M48
; DRILL file {KiCad (5.1.5)-3} date 03/05/2020 15:56:07
; FORMAT={-:-/ absolute / inch / decimal}
; #@! TF.CreationDate,2020-05-03T15:56:07+02:00
; #@! TF.GenerationSoftware,Kicad,Pcbnew,(5.1.5)-3
; #@! TF.FileFunction,Plated,1,4,PTH
FMAT,2
INCH
T1C0.0157
T2C0.0394
T3C0.0512
T4C0.0591
T5C0.1378
%
G90
G05
T1
X2.3705Y-2.9664
X2.3705Y-3.0966
X2.3705Y-3.5577
X2.3705Y-3.6885
X2.3705Y-3.8194
X2.3705Y-3.9503
X2.3705Y-4.0812
X2.3705Y-4.2121
X2.3705Y-4.343
X2.3705Y-4.4738
X2.3705Y-4.9349
X2.3705Y-5.0651
X2.372Y-2.381
X2.372Y-2.4206
X2.372Y-2.4602
X2.372Y-2.4998
X2.372Y-2.5394
X2.3721Y-2.3414
X2.379Y-2.3026
X2.3983Y-2.2682
X2.4098Y-2.9664
X2.4098Y-3.0966
X2.4098Y-3.5577
X2.4098Y-3.6885
X2.4098Y-3.8194
X2.4098Y-3.9503
X2.4098Y-4.0812
X2.4098Y-4.2121
X2.4098Y-4.343
X2.4098Y-4.4738
X2.4098Y-4.9349
X2.4098Y-5.0651
X2.4259Y-2.2398
X2.4539Y-2.2118
X2.4819Y-2.1838
X2.4902Y-3.2087
X2.4902Y-3.4449
X2.5099Y-2.1558
X2.5394Y-2.1294
X2.5753Y-2.1133
X2.6083Y-2.3914
X2.6083Y-2.4408
X2.6083Y-2.4901
X2.6083Y-2.5394
X2.6146Y-2.1094
X2.654Y-2.3457
X2.6542Y-2.1094
X2.6673Y-4.8943
X2.6673Y-4.9366
X2.6673Y-4.9789
X2.6673Y-5.0212
X2.6673Y-5.0634
X2.6673Y-5.1057
X2.6711Y-5.1477
X2.6715Y-3.2087
X2.687Y-3.5925
X2.6876Y-5.1843
X2.6911Y-3.4449
X2.6937Y-2.3457
X2.6938Y-2.1094
X2.7146Y-5.2143
X2.7168Y-3.2087
X2.7264Y-1.6339
X2.7313Y-3.4449
X2.7333Y-2.3457
X2.7334Y-2.1094
X2.7362Y-3.5925
X2.7432Y-5.2429
X2.7503Y-3.1752
X2.7705Y-4.6212
X2.7715Y-3.4447
X2.7718Y-5.2715
X2.773Y-2.126
X2.7838Y-3.1417
X2.7854Y-3.5925
X2.8004Y-5.3001
X2.8029Y-4.6536
X2.8106Y-3.4361
X2.8126Y-2.126
X2.8126Y-2.3291
X2.8126Y-2.5457
X2.8173Y-3.1082
X2.829Y-5.3287
X2.8354Y-4.6861
X2.8445Y-3.4148
X2.8445Y-1.6339
X2.8445Y-3.5728
X2.8508Y-2.5457
X2.8508Y-2.5864
X2.8508Y-2.6271
X2.8508Y-2.6678
X2.8508Y-2.7084
X2.8508Y-2.7491
X2.8508Y-2.7898
X2.8508Y-2.8305
X2.8508Y-2.8712
X2.8508Y-2.9119
X2.8508Y-2.9526
X2.8508Y-2.9933
X2.8508Y-3.034
X2.8508Y-3.0747
X2.8555Y-2.3291
X2.8576Y-5.3573
X2.8642Y-2.126
X2.8678Y-4.7185
X2.873Y-3.3865
X2.8839Y-3.5335
X2.8862Y-5.3859
X2.8937Y-4.756
X2.8983Y-2.3291
X2.9014Y-3.3581
X2.9035Y-4.8005
X2.9035Y-2.126
X2.9035Y-4.8452
X2.9035Y-4.89
X2.9035Y-4.9348
X2.9035Y-4.9796
X2.9035Y-5.0244
X2.9035Y-5.0692
X2.9194Y-5.4088
X2.9298Y-3.3297
X2.9321Y-5.0978
X2.9412Y-2.3291
X2.9429Y-2.126
X2.9583Y-5.4192
X2.9583Y-3.3013
X2.9607Y-5.1263
X2.9626Y-1.6339
X2.9823Y-2.126
X2.984Y-2.3291
X2.9867Y-3.2729
X2.9893Y-5.1549
X2.9987Y-5.4197
X3.0151Y-3.2444
X3.0178Y-5.1835
X3.0217Y-2.126
X3.0269Y-2.3291
X3.0391Y-5.4197
X3.0435Y-3.216
X3.0606Y-5.1835
X3.061Y-2.126
X3.061Y-2.126
X3.0695Y-3.1855
X3.0697Y-2.3291
X3.0796Y-5.4197
X3.0807Y-1.6339
X3.0844Y-3.1484
X3.087Y-2.5457
X3.087Y-2.5859
X3.087Y-2.6261
X3.087Y-2.6662
X3.087Y-2.7064
X3.087Y-2.7466
X3.087Y-2.7868
X3.087Y-2.827
X3.087Y-2.8672
X3.087Y-2.9074
X3.087Y-2.9476
X3.087Y-2.9878
X3.087Y-3.028
X3.087Y-3.0682
X3.087Y-3.1084
X3.1004Y-2.126
X3.1034Y-5.1835
X3.1126Y-2.3291
X3.12Y-5.4197
X3.1398Y-2.126
X3.1463Y-5.1835
X3.1605Y-5.4197
X3.1891Y-5.1835
X3.1988Y-1.6339
X3.2009Y-5.4197
X3.2319Y-5.1835
X3.2382Y-2.5613
X3.2382Y-2.6825
X3.2382Y-2.8038
X3.2382Y-2.925
X3.2382Y-3.0463
X3.2382Y-3.1675
X3.2382Y-3.2888
X3.2382Y-3.41
X3.2382Y-3.5313
X3.2382Y-3.6526
X3.2382Y-3.7738
X3.2382Y-3.8951
X3.2382Y-4.0163
X3.2382Y-4.1376
X3.2382Y-4.2588
X3.2382Y-4.3801
X3.2382Y-4.5013
X3.2382Y-4.6226
X3.2414Y-5.4197
X3.2776Y-2.6073
X3.2776Y-2.7305
X3.2776Y-2.8537
X3.2776Y-2.9769
X3.2776Y-3.1001
X3.2776Y-3.2233
X3.2776Y-3.3465
X3.2776Y-3.4697
X3.2776Y-3.5929
X3.2776Y-3.7161
X3.2776Y-3.8393
X3.2776Y-3.9625
X3.2776Y-4.0857
X3.2776Y-4.2089
X3.2776Y-4.3321
X3.2776Y-4.5785
X3.2776Y-4.7017
X3.2818Y-5.4197
X3.3169Y-1.6339
X3.3223Y-5.4197
X3.3627Y-5.4197
X3.4031Y-5.4197
X3.435Y-1.6339
X3.435Y-5.4134
X3.5531Y-1.6339
X3.5531Y-5.4134
X3.6713Y-1.6339
X3.6713Y-5.4134
X3.7894Y-1.6339
X3.7894Y-5.4134
X3.8846Y-1.9457
X3.8846Y-2.0668
X3.8846Y-2.1879
X3.8846Y-2.3228
X3.8846Y-2.4302
X3.8846Y-2.5514
X3.8846Y-2.6725
X3.8846Y-2.7936
X3.8846Y-2.9148
X3.8846Y-3.0359
X3.8846Y-3.1571
X3.8846Y-3.2782
X3.8846Y-3.3993
X3.8846Y-3.5205
X3.8846Y-3.6416
X3.8846Y-3.7627
X3.8846Y-3.8839
X3.8846Y-4.005
X3.8846Y-4.1262
X3.8846Y-4.2473
X3.8846Y-4.3684
X3.8846Y-4.4896
X3.8846Y-4.6107
X3.8846Y-4.7319
X3.8846Y-4.853
X3.8846Y-5.0953
X3.9075Y-1.6339
X3.9075Y-5.4134
X3.924Y-1.9457
X3.924Y-2.0668
X3.924Y-2.1879
X3.924Y-2.3228
X3.924Y-2.4302
X3.924Y-2.5514
X3.924Y-2.7936
X3.924Y-2.9148
X3.924Y-3.0359
X3.924Y-3.1571
X3.924Y-3.2782
X3.924Y-3.3993
X3.924Y-3.5205
X3.924Y-3.6416
X3.924Y-3.7627
X3.924Y-3.8839
X3.924Y-4.005
X3.924Y-4.1262
X3.924Y-4.2473
X3.924Y-4.3684
X3.924Y-4.4896
X3.924Y-4.6107
X3.924Y-4.7319
X3.924Y-4.853
X3.924Y-5.0953
X4.0256Y-1.6339
X4.0256Y-5.4134
X4.1437Y-1.6339
X4.1437Y-5.4134
X4.2618Y-1.6339
X4.2618Y-5.4134
X4.3799Y-1.6339
X4.3799Y-5.4134
X4.498Y-1.6339
X4.498Y-5.4134
X4.5602Y-1.9457
X4.5602Y-2.0664
X4.5602Y-2.1872
X4.5602Y-2.3228
X4.5602Y-2.4287
X4.5602Y-2.5495
X4.5602Y-2.6702
X4.5602Y-2.791
X4.5602Y-2.9118
X4.5602Y-3.0325
X4.5602Y-3.1533
X4.5602Y-3.274
X4.5602Y-3.3948
X4.5602Y-3.5156
X4.5602Y-3.6363
X4.5602Y-3.7571
X4.5602Y-3.8778
X4.5602Y-3.9986
X4.5602Y-4.1194
X4.5602Y-4.2401
X4.5602Y-4.3609
X4.5602Y-4.4816
X4.5602Y-4.6024
X4.5602Y-4.7232
X4.5602Y-4.8439
X4.5602Y-5.0854
X4.5996Y-1.9457
X4.5996Y-2.0664
X4.5996Y-2.1872
X4.5996Y-2.3228
X4.5996Y-2.4287
X4.5996Y-2.5495
X4.5996Y-2.791
X4.5996Y-2.9118
X4.5996Y-3.0325
X4.5996Y-3.1533
X4.5996Y-3.274
X4.5996Y-3.3948
X4.5996Y-3.5156
X4.5996Y-3.6363
X4.5996Y-3.7571
X4.5996Y-3.8778
X4.5996Y-3.9986
X4.5996Y-4.1194
X4.5996Y-4.2401
X4.5996Y-4.3609
X4.5996Y-4.4816
X4.5996Y-4.6024
X4.5996Y-4.7232
X4.5996Y-4.8439
X4.5996Y-5.0854
X4.6161Y-1.6339
X4.6161Y-5.4134
X4.7343Y-1.6339
X4.7343Y-5.4134
X4.8524Y-1.6339
X4.8524Y-5.4134
X4.9705Y-1.6339
X4.9705Y-5.4134
X5.0886Y-1.6339
X5.0886Y-5.4134
X5.2067Y-1.6339
X5.2067Y-5.4134
X5.2429Y-1.9457
X5.2429Y-2.0668
X5.2429Y-2.1879
X5.2429Y-2.3228
X5.2429Y-2.4302
X5.2429Y-2.5514
X5.2429Y-3.3993
X5.2429Y-3.5205
X5.2429Y-3.6416
X5.2429Y-3.7627
X5.2429Y-3.8839
X5.2429Y-4.005
X5.2429Y-4.1262
X5.2429Y-4.2473
X5.2429Y-4.3684
X5.2429Y-4.4896
X5.2429Y-4.6107
X5.2429Y-4.7319
X5.2429Y-4.853
X5.2429Y-5.0953
X5.2626Y-2.8807
X5.2626Y-2.8807
X5.2626Y-3.176
X5.2823Y-1.9457
X5.2823Y-2.0668
X5.2823Y-2.1879
X5.2823Y-2.3228
X5.2823Y-2.4302
X5.2823Y-2.5514
X5.2823Y-3.3993
X5.2823Y-3.5205
X5.2823Y-3.6416
X5.2823Y-3.7627
X5.2823Y-3.8839
X5.2823Y-4.005
X5.2823Y-4.1262
X5.2823Y-4.2473
X5.2823Y-4.3684
X5.2823Y-4.4896
X5.2823Y-4.6107
X5.2823Y-4.7319
X5.2823Y-4.853
X5.2823Y-5.0953
X5.3248Y-1.6339
X5.3248Y-5.4134
X5.4429Y-1.6339
X5.4429Y-5.4134
X5.561Y-1.6339
X5.561Y-5.4134
X5.6791Y-1.6339
X5.6791Y-5.4134
X5.7972Y-1.6339
X5.7972Y-5.4134
X5.9087Y-1.9457
X5.9087Y-2.0664
X5.9087Y-2.1871
X5.9087Y-2.3078
X5.9087Y-2.4286
X5.9087Y-2.5493
X5.9087Y-2.7907
X5.9087Y-2.9115
X5.9087Y-3.0322
X5.9087Y-3.1529
X5.9087Y-3.2736
X5.9087Y-3.3944
X5.9087Y-3.5151
X5.9087Y-3.6358
X5.9087Y-3.7565
X5.9087Y-3.8773
X5.9087Y-3.998
X5.9087Y-4.1187
X5.9087Y-4.2394
X5.9087Y-4.3602
X5.9087Y-4.4809
X5.9087Y-4.6016
X5.9087Y-4.7223
X5.9087Y-4.8431
X5.9087Y-4.9638
X5.9154Y-1.6339
X5.9154Y-5.4134
X5.948Y-1.9457
X5.948Y-2.0664
X5.948Y-2.1871
X5.948Y-2.3078
X5.948Y-2.4286
X5.948Y-2.5493
X5.948Y-2.7907
X5.948Y-2.9115
X5.948Y-3.0322
X5.948Y-3.1529
X5.948Y-3.2736
X5.948Y-3.3944
X5.948Y-3.5151
X5.948Y-3.6358
X5.948Y-3.7565
X5.948Y-3.8773
X5.948Y-3.998
X5.948Y-4.1187
X5.948Y-4.2394
X5.948Y-4.3602
X5.948Y-4.4809
X5.948Y-4.6016
X5.948Y-4.7223
X5.948Y-4.8431
X5.948Y-4.9638
X6.0335Y-1.6339
X6.0335Y-5.4134
X6.1516Y-1.6339
X6.1516Y-5.4134
X6.2697Y-1.6339
X6.2697Y-5.4134
X6.3878Y-1.6339
X6.3878Y-5.4134
X6.5059Y-1.6339
X6.5059Y-5.4134
X6.5618Y-1.9457
X6.5618Y-2.0667
X6.5618Y-2.1877
X6.5618Y-2.3087
X6.5618Y-2.4297
X6.5618Y-2.5507
X6.5618Y-2.6717
X6.5618Y-2.7927
X6.5618Y-2.9137
X6.5618Y-3.0347
X6.5618Y-3.1557
X6.5618Y-3.2767
X6.5618Y-3.3977
X6.5618Y-3.5187
X6.5618Y-3.6397
X6.5618Y-3.7607
X6.5618Y-3.8817
X6.5618Y-4.0027
X6.5618Y-4.1237
X6.5618Y-4.2447
X6.5618Y-4.3657
X6.5618Y-4.4867
X6.5618Y-4.6077
X6.5618Y-4.7287
X6.5618Y-4.8497
X6.5618Y-4.9707
X6.5618Y-5.0917
X6.6012Y-1.9457
X6.6012Y-2.0667
X6.6012Y-2.1877
X6.6012Y-2.3087
X6.6012Y-2.4297
X6.6012Y-2.5507
X6.6012Y-2.7927
X6.6012Y-2.9137
X6.6012Y-3.0347
X6.6012Y-3.1557
X6.6012Y-3.2767
X6.6012Y-3.3977
X6.6012Y-3.5187
X6.6012Y-3.6397
X6.6012Y-3.7607
X6.6012Y-3.8817
X6.6012Y-4.0027
X6.6012Y-4.1237
X6.6012Y-4.2447
X6.6012Y-4.3657
X6.6012Y-4.4867
X6.6012Y-4.6077
X6.6012Y-4.7287
X6.6012Y-4.8497
X6.6012Y-4.9707
X6.6012Y-5.0917
X6.624Y-1.6339
X6.624Y-5.4134
X6.7421Y-1.6339
X6.7421Y-5.4134
X6.8602Y-1.6339
X6.8602Y-5.4134
X6.9783Y-1.6339
X6.9783Y-5.4134
X7.0965Y-1.6339
X7.0965Y-5.4134
X7.2146Y-1.6339
X7.2146Y-5.4134
X7.2311Y-1.9457
X7.2311Y-2.0659
X7.2311Y-2.1862
X7.2311Y-2.3064
X7.2311Y-2.4267
X7.2311Y-2.5469
X7.2311Y-2.6671
X7.2311Y-2.7874
X7.2311Y-2.9076
X7.2311Y-3.0279
X7.2311Y-3.1481
X7.2311Y-3.2684
X7.2311Y-3.3886
X7.2311Y-3.5089
X7.2311Y-3.6291
X7.2311Y-3.7493
X7.2311Y-3.8696
X7.2311Y-3.9898
X7.2311Y-4.1101
X7.2311Y-4.2303
X7.2311Y-4.3506
X7.2311Y-4.4708
X7.2311Y-4.5911
X7.2311Y-4.7113
X7.2311Y-4.8316
X7.2311Y-4.9518
X7.2311Y-5.072
X7.2705Y-1.9457
X7.2705Y-2.0659
X7.2705Y-2.1862
X7.2705Y-2.3064
X7.2705Y-2.4267
X7.2705Y-2.5469
X7.2705Y-2.7874
X7.2705Y-2.9076
X7.2705Y-3.0279
X7.2705Y-3.1481
X7.2705Y-3.2684
X7.2705Y-3.3886
X7.2705Y-3.5089
X7.2705Y-3.6291
X7.2705Y-3.7493
X7.2705Y-3.8696
X7.2705Y-3.9898
X7.2705Y-4.1101
X7.2705Y-4.2303
X7.2705Y-4.3506
X7.2705Y-4.4708
X7.2705Y-4.5911
X7.2705Y-4.7113
X7.2705Y-4.8316
X7.2705Y-4.9518
X7.2705Y-5.072
X7.3327Y-1.6339
X7.3327Y-5.4134
X7.4508Y-1.6339
X7.4508Y-5.4134
X7.5689Y-1.6339
X7.5689Y-5.4134
X7.687Y-1.6339
X7.687Y-5.4134
X7.7909Y-2.0455
X7.7909Y-5.0018
X7.8051Y-1.6339
X7.8051Y-5.4134
X7.8188Y-2.0177
X7.8767Y-2.1313
X7.9048Y-2.1037
X7.9048Y-4.9435
X7.9626Y-2.2172
X7.9626Y-2.336
X7.9626Y-2.4547
X7.9626Y-2.5735
X7.9626Y-2.6923
X7.9626Y-2.811
X7.9626Y-2.9298
X7.9626Y-3.0486
X7.9626Y-3.1673
X7.9626Y-3.2861
X7.9626Y-3.4049
X7.9626Y-3.5236
X7.9626Y-3.6424
X7.9626Y-3.7612
X7.9626Y-3.8799
X7.9626Y-3.9987
X7.9626Y-4.1174
X7.9626Y-4.2362
X7.9626Y-4.355
X7.9626Y-4.4737
X7.9626Y-4.5925
X7.9626Y-4.7113
X7.9626Y-4.83
X7.9908Y-2.1897
X7.9908Y-4.8575
X8.002Y-2.3075
X8.002Y-2.4292
X8.002Y-2.5508
X8.002Y-2.6724
X8.002Y-2.794
X8.002Y-2.9156
X8.002Y-3.0372
X8.002Y-3.1588
X8.002Y-3.2804
X8.002Y-3.402
X8.002Y-3.5236
X8.002Y-3.6452
X8.002Y-3.7668
X8.002Y-3.8884
X8.002Y-4.0101
X8.002Y-4.1317
X8.002Y-4.2533
X8.002Y-4.3749
X8.002Y-4.4965
X8.002Y-4.6181
X8.002Y-4.7397
X8.1201Y-1.9488
X8.1201Y-2.0669
X8.1201Y-2.185
X8.1201Y-2.3031
X8.1201Y-2.4213
X8.1201Y-2.5394
X8.1201Y-2.6575
X8.1201Y-2.7756
X8.1201Y-2.8937
X8.1201Y-3.0118
X8.1201Y-3.1299
X8.1201Y-3.248
X8.1201Y-3.3661
X8.1201Y-3.4843
X8.1201Y-3.6024
X8.1201Y-3.7205
X8.1201Y-3.8386
X8.1201Y-3.9567
X8.1201Y-4.0748
X8.1201Y-4.1929
X8.1201Y-4.311
X8.1201Y-4.4291
X8.1201Y-4.5472
X8.1201Y-4.6654
X8.1201Y-4.7835
X8.1201Y-4.9016
X8.1201Y-5.0197
X8.1201Y-5.1378
T2
X4.7417Y-1.7457
X4.7417Y-1.9457
X4.7417Y-2.1457
X4.7417Y-2.4457
X5.0417Y-1.7457
X5.0417Y-1.9457
X5.0417Y-2.1457
X5.0417Y-2.4457
X3.4031Y-1.7457
X3.4031Y-1.9457
X3.4031Y-2.1457
X3.4031Y-2.4457
X3.7031Y-1.7457
X3.7031Y-1.9457
X3.7031Y-2.1457
X3.7031Y-2.4457
X5.411Y-1.7457
X5.411Y-1.9457
X5.411Y-2.1457
X5.411Y-2.4457
X5.711Y-1.7457
X5.711Y-1.9457
X5.711Y-2.1457
X5.711Y-2.4457
X3.4031Y-4.6016
X3.4031Y-4.9016
X3.4031Y-5.1016
X3.4031Y-5.3016
X3.7031Y-4.6016
X3.7031Y-4.9016
X3.7031Y-5.1016
X3.7031Y-5.3016
X6.0803Y-1.7457
X6.0803Y-1.9457
X6.0803Y-2.1457
X6.0803Y-2.4457
X6.3803Y-1.7457
X6.3803Y-1.9457
X6.3803Y-2.1457
X6.3803Y-2.4457
X6.7496Y-4.6016
X6.7496Y-4.9016
X6.7496Y-5.1016
X6.7496Y-5.3016
X7.0496Y-4.6016
X7.0496Y-4.9016
X7.0496Y-5.1016
X7.0496Y-5.3016
X7.4189Y-4.6016
X7.4189Y-4.9016
X7.4189Y-5.1016
X7.4189Y-5.3016
X7.7189Y-4.6016
X7.7189Y-4.9016
X7.7189Y-5.1016
X7.7189Y-5.3016
X6.7496Y-1.7457
X6.7496Y-1.9457
X6.7496Y-2.1457
X6.7496Y-2.4457
X7.0496Y-1.7457
X7.0496Y-1.9457
X7.0496Y-2.1457
X7.0496Y-2.4457
X4.7417Y-4.6016
X4.7417Y-4.9016
X4.7417Y-5.1016
X4.7417Y-5.3016
X5.0417Y-4.6016
X5.0417Y-4.9016
X5.0417Y-5.1016
X5.0417Y-5.3016
X2.5886Y-3.8173
X2.5886Y-3.9173
X2.5886Y-4.0173
X2.5886Y-4.1173
X2.5886Y-4.2173
X2.6886Y-3.8173
X2.6886Y-3.9173
X2.6886Y-4.0173
X2.6886Y-4.1173
X2.6886Y-4.2173
X5.411Y-4.6016
X5.411Y-4.9016
X5.411Y-5.1016
X5.411Y-5.3016
X5.711Y-4.6016
X5.711Y-4.9016
X5.711Y-5.1016
X5.711Y-5.3016
X4.0724Y-1.7457
X4.0724Y-1.9457
X4.0724Y-2.1457
X4.0724Y-2.4457
X4.3724Y-1.7457
X4.3724Y-1.9457
X4.3724Y-2.1457
X4.3724Y-2.4457
X6.0803Y-4.6016
X6.0803Y-4.9016
X6.0803Y-5.1016
X6.0803Y-5.3016
X6.3803Y-4.6016
X6.3803Y-4.9016
X6.3803Y-5.1016
X6.3803Y-5.3016
X4.0724Y-4.6016
X4.0724Y-4.9016
X4.0724Y-5.1016
X4.0724Y-5.3016
X4.3724Y-4.6016
X4.3724Y-4.9016
X4.3724Y-5.1016
X4.3724Y-5.3016
X7.4189Y-1.7457
X7.4189Y-1.9457
X7.4189Y-2.1457
X7.4189Y-2.4457
X7.7189Y-1.7457
X7.7189Y-1.9457
X7.7189Y-2.1457
X7.7189Y-2.4457
X2.8126Y-1.7276
X2.8126Y-2.0276
X2.8126Y-2.2276
X2.8126Y-2.4276
X3.1126Y-1.7276
X3.1126Y-2.0276
X3.1126Y-2.2276
X3.1126Y-2.4276
T3
X2.3902Y-3.2268
X2.3902Y-3.4268
X2.4902Y-3.3268
X2.5902Y-3.2268
X2.5902Y-3.4268
X2.3902Y-2.6362
X2.3902Y-2.8362
X2.4902Y-2.7362
X2.5902Y-2.6362
X2.5902Y-2.8362
X2.3902Y-4.6047
X2.3902Y-4.8047
X2.4902Y-4.7047
X2.5902Y-4.6047
X2.5902Y-4.8047
T4
X6.7996Y-2.9346
X6.9496Y-2.7346
X5.461Y-4.3126
X5.611Y-4.1126
X3.4531Y-4.3126
X3.6031Y-4.1126
X6.1303Y-4.3126
X6.2803Y-4.1126
X3.4531Y-2.9346
X3.6031Y-2.7346
X4.7917Y-2.9346
X4.9417Y-2.7346
X5.461Y-3.513
X5.661Y-3.663
X7.4689Y-2.9346
X7.6189Y-2.7346
X5.461Y-2.9543
X5.611Y-2.7543
X3.4531Y-3.4736
X3.6531Y-3.6236
X4.1224Y-4.3126
X4.2724Y-4.1126
X4.1224Y-2.9346
X4.2724Y-2.7346
X4.7917Y-4.3126
X4.9417Y-4.1126
X7.4689Y-4.3126
X7.6189Y-4.1126
X6.1303Y-2.9346
X6.2803Y-2.7346
X6.7996Y-4.3126
X6.9496Y-4.1126
T5
X2.4902Y-1.752
X8.002Y-1.752
X8.002Y-5.2953
X2.4902Y-5.2953
T0
M30
