%TF.GenerationSoftware,KiCad,Pcbnew,(5.1.5)-3*%
%TF.CreationDate,2020-05-03T15:54:47+02:00*%
%TF.ProjectId,LPF,4c50462e-6b69-4636-9164-5f7063625858,rev?*%
%TF.SameCoordinates,Original*%
%TF.FileFunction,Copper,L2,Inr*%
%TF.FilePolarity,Positive*%
%FSLAX46Y46*%
G04 Gerber Fmt 4.6, Leading zero omitted, Abs format (unit mm)*
G04 Created by KiCad (PCBNEW (5.1.5)-3) date 2020-05-03 15:54:47*
%MOMM*%
%LPD*%
G04 APERTURE LIST*
%ADD10C,2.500000*%
%ADD11R,1.700000X1.700000*%
%ADD12O,1.700000X1.700000*%
%ADD13C,3.500000*%
%ADD14C,2.499360*%
%ADD15C,1.998980*%
%ADD16C,7.000000*%
%ADD17C,0.600000*%
%ADD18C,1.500000*%
G04 APERTURE END LIST*
D10*
X79060000Y-43880000D03*
X71440000Y-43880000D03*
X79060000Y-51500000D03*
X71440000Y-51500000D03*
X79060000Y-56580000D03*
X71440000Y-56580000D03*
X79060000Y-61660000D03*
X71440000Y-61660000D03*
D11*
X68290000Y-107120000D03*
D12*
X65750000Y-107120000D03*
X68290000Y-104580000D03*
X65750000Y-104580000D03*
X68290000Y-102040000D03*
X65750000Y-102040000D03*
X68290000Y-99500000D03*
X65750000Y-99500000D03*
X68290000Y-96960000D03*
X65750000Y-96960000D03*
D13*
X138710000Y-75040000D03*
X142520000Y-69960000D03*
X91520000Y-69460000D03*
X87710000Y-74540000D03*
X193520000Y-69460000D03*
X189710000Y-74540000D03*
X172710000Y-74540000D03*
X176520000Y-69460000D03*
X155710000Y-74540000D03*
X159520000Y-69460000D03*
X125520000Y-69460000D03*
X121710000Y-74540000D03*
X104710000Y-74540000D03*
X108520000Y-69460000D03*
X87710000Y-88230000D03*
X92790000Y-92040000D03*
X138710000Y-89230000D03*
X143790000Y-93040000D03*
X193520000Y-104460000D03*
X189710000Y-109540000D03*
X172710000Y-109540000D03*
X176520000Y-104460000D03*
X159520000Y-104460000D03*
X155710000Y-109540000D03*
X121710000Y-109540000D03*
X125520000Y-104460000D03*
X104710000Y-109540000D03*
X108520000Y-104460000D03*
X87710000Y-109540000D03*
X91520000Y-104460000D03*
X142520000Y-104460000D03*
X138710000Y-109540000D03*
D14*
X65790000Y-81960000D03*
X60710000Y-81960000D03*
X60710000Y-87040000D03*
X65790000Y-87040000D03*
D15*
X63250000Y-84500000D03*
X63250000Y-119500000D03*
D14*
X65790000Y-122040000D03*
X60710000Y-122040000D03*
X60710000Y-116960000D03*
X65790000Y-116960000D03*
D15*
X63250000Y-69500000D03*
D14*
X65790000Y-72040000D03*
X60710000Y-72040000D03*
X60710000Y-66960000D03*
X65790000Y-66960000D03*
D10*
X188440000Y-62120000D03*
X196060000Y-62120000D03*
X188440000Y-54500000D03*
X196060000Y-54500000D03*
X188440000Y-49420000D03*
X196060000Y-49420000D03*
X188440000Y-44340000D03*
X196060000Y-44340000D03*
X179060000Y-44340000D03*
X171440000Y-44340000D03*
X179060000Y-49420000D03*
X171440000Y-49420000D03*
X179060000Y-54500000D03*
X171440000Y-54500000D03*
X179060000Y-62120000D03*
X171440000Y-62120000D03*
X154440000Y-62120000D03*
X162060000Y-62120000D03*
X154440000Y-54500000D03*
X162060000Y-54500000D03*
X154440000Y-49420000D03*
X162060000Y-49420000D03*
X154440000Y-44340000D03*
X162060000Y-44340000D03*
X145060000Y-44340000D03*
X137440000Y-44340000D03*
X145060000Y-49420000D03*
X137440000Y-49420000D03*
X145060000Y-54500000D03*
X137440000Y-54500000D03*
X145060000Y-62120000D03*
X137440000Y-62120000D03*
X128060000Y-44340000D03*
X120440000Y-44340000D03*
X128060000Y-49420000D03*
X120440000Y-49420000D03*
X128060000Y-54500000D03*
X120440000Y-54500000D03*
X128060000Y-62120000D03*
X120440000Y-62120000D03*
X103440000Y-62120000D03*
X111060000Y-62120000D03*
X103440000Y-54500000D03*
X111060000Y-54500000D03*
X103440000Y-49420000D03*
X111060000Y-49420000D03*
X103440000Y-44340000D03*
X111060000Y-44340000D03*
X94060000Y-44340000D03*
X86440000Y-44340000D03*
X94060000Y-49420000D03*
X86440000Y-49420000D03*
X94060000Y-54500000D03*
X86440000Y-54500000D03*
X94060000Y-62120000D03*
X86440000Y-62120000D03*
X196060000Y-116880000D03*
X188440000Y-116880000D03*
X196060000Y-124500000D03*
X188440000Y-124500000D03*
X196060000Y-129580000D03*
X188440000Y-129580000D03*
X196060000Y-134660000D03*
X188440000Y-134660000D03*
X171440000Y-134660000D03*
X179060000Y-134660000D03*
X171440000Y-129580000D03*
X179060000Y-129580000D03*
X171440000Y-124500000D03*
X179060000Y-124500000D03*
X171440000Y-116880000D03*
X179060000Y-116880000D03*
X162060000Y-116880000D03*
X154440000Y-116880000D03*
X162060000Y-124500000D03*
X154440000Y-124500000D03*
X162060000Y-129580000D03*
X154440000Y-129580000D03*
X162060000Y-134660000D03*
X154440000Y-134660000D03*
X137440000Y-134660000D03*
X145060000Y-134660000D03*
X137440000Y-129580000D03*
X145060000Y-129580000D03*
X137440000Y-124500000D03*
X145060000Y-124500000D03*
X137440000Y-116880000D03*
X145060000Y-116880000D03*
X120440000Y-134660000D03*
X128060000Y-134660000D03*
X120440000Y-129580000D03*
X128060000Y-129580000D03*
X120440000Y-124500000D03*
X128060000Y-124500000D03*
X120440000Y-116880000D03*
X128060000Y-116880000D03*
X111060000Y-116880000D03*
X103440000Y-116880000D03*
X111060000Y-124500000D03*
X103440000Y-124500000D03*
X111060000Y-129580000D03*
X103440000Y-129580000D03*
X111060000Y-134660000D03*
X103440000Y-134660000D03*
X94060000Y-116880000D03*
X86440000Y-116880000D03*
X94060000Y-124500000D03*
X86440000Y-124500000D03*
X94060000Y-129580000D03*
X86440000Y-129580000D03*
X94060000Y-134660000D03*
X86440000Y-134660000D03*
D16*
X63250000Y-44500000D03*
X203250000Y-44500000D03*
X203250000Y-134500000D03*
X63250000Y-134500000D03*
D17*
X60210000Y-75346666D03*
X60210000Y-78653333D03*
X61210000Y-78653333D03*
X61210000Y-75346666D03*
X60210000Y-125346666D03*
X60210000Y-128653333D03*
X61210000Y-128653333D03*
X61210000Y-125346666D03*
X60210000Y-90364444D03*
X60210000Y-93688888D03*
X60210000Y-97013333D03*
X60210000Y-100337777D03*
X60210000Y-103662222D03*
X60210000Y-106986666D03*
X60210000Y-110311111D03*
X60210000Y-113635555D03*
X61210000Y-113635555D03*
X61210000Y-110311111D03*
X61210000Y-106986666D03*
X61210000Y-103662222D03*
X61210000Y-100337777D03*
X61210000Y-97013333D03*
X61210000Y-93688888D03*
X61210000Y-90364444D03*
X133170000Y-52496923D03*
X133170000Y-55573846D03*
X133170000Y-59000000D03*
X133170000Y-61727692D03*
X133170000Y-64804615D03*
X133170000Y-86343076D03*
X133170000Y-89420000D03*
X133170000Y-92496923D03*
X133170000Y-95573846D03*
X133170000Y-98650769D03*
X133170000Y-101727692D03*
X133170000Y-104804615D03*
X133170000Y-107881538D03*
X133170000Y-110958461D03*
X133170000Y-114035384D03*
X133170000Y-117112307D03*
X133170000Y-120189230D03*
X133170000Y-123266153D03*
X133170000Y-49420000D03*
X133170000Y-129420000D03*
X134170000Y-123266153D03*
X134170000Y-120189230D03*
X134170000Y-117112307D03*
X134170000Y-114035384D03*
X134170000Y-110958461D03*
X134170000Y-107881538D03*
X134170000Y-104804615D03*
X134170000Y-101727692D03*
X134170000Y-98650769D03*
X134170000Y-95573846D03*
X134170000Y-92496923D03*
X134170000Y-89420000D03*
X134170000Y-86343076D03*
X134170000Y-64804615D03*
X134170000Y-61727692D03*
X134170000Y-59000000D03*
X134170000Y-55573846D03*
X134170000Y-52496923D03*
X134170000Y-129420000D03*
X134170000Y-49420000D03*
X82250000Y-65055995D03*
X82250000Y-68135871D03*
X82250000Y-71215746D03*
X82250000Y-74295622D03*
X82250000Y-77375497D03*
X82250000Y-80455373D03*
X82250000Y-83535248D03*
X82250000Y-86615124D03*
X82250000Y-89695000D03*
X82250000Y-92774875D03*
X82250000Y-95854751D03*
X82250000Y-98934626D03*
X82250000Y-102014502D03*
X82250000Y-105094377D03*
X82250000Y-108174253D03*
X82250000Y-111254128D03*
X82250000Y-114334004D03*
X82250000Y-117413879D03*
X83250000Y-119424129D03*
X83250000Y-116294747D03*
X83250000Y-110035983D03*
X83250000Y-106906601D03*
X83250000Y-103777219D03*
X83250000Y-100647837D03*
X83250000Y-97518455D03*
X83250000Y-94389073D03*
X83250000Y-91259691D03*
X83250000Y-88130308D03*
X83250000Y-85000926D03*
X83250000Y-81871544D03*
X83250000Y-78742162D03*
X83250000Y-75612780D03*
X83250000Y-72483398D03*
X83250000Y-69354016D03*
X83250000Y-66224634D03*
X200781836Y-125565270D03*
X202965977Y-123381129D03*
X203250000Y-120388419D03*
X203250000Y-117299577D03*
X203250000Y-114210735D03*
X203250000Y-111121893D03*
X203250000Y-108033051D03*
X203250000Y-104944209D03*
X203250000Y-101855367D03*
X203250000Y-98766525D03*
X203250000Y-95677683D03*
X203250000Y-92588841D03*
X203250000Y-89499999D03*
X203250000Y-86411157D03*
X203250000Y-83322316D03*
X203250000Y-80233474D03*
X203250000Y-77144632D03*
X203250000Y-74055790D03*
X203250000Y-70966948D03*
X203250000Y-67878106D03*
X203250000Y-64789264D03*
X203250000Y-61700422D03*
X203250000Y-58611580D03*
X202965977Y-55618870D03*
X200781836Y-53434729D03*
X198597695Y-51250588D03*
X197887632Y-51954737D03*
X200068816Y-54135921D03*
X202250000Y-59333732D03*
X202250000Y-62350359D03*
X202250000Y-65366986D03*
X202250000Y-68383612D03*
X202250000Y-71400239D03*
X202250000Y-74416866D03*
X202250000Y-77433493D03*
X202250000Y-80450119D03*
X202250000Y-83466746D03*
X202250000Y-86483373D03*
X202250000Y-89500000D03*
X202250000Y-92516626D03*
X202250000Y-95533253D03*
X202250000Y-98549880D03*
X202250000Y-101566506D03*
X202250000Y-104583133D03*
X202250000Y-107599760D03*
X202250000Y-110616387D03*
X202250000Y-113633013D03*
X202250000Y-116649640D03*
X202250000Y-119666267D03*
X197887632Y-127045262D03*
X202250000Y-56317106D03*
X202250000Y-122682894D03*
X183670000Y-52474230D03*
X183670000Y-55528461D03*
X183670000Y-58582692D03*
X183670000Y-61636923D03*
X183670000Y-64691153D03*
X183670000Y-67745384D03*
X183670000Y-70799615D03*
X183670000Y-73853846D03*
X183670000Y-76908076D03*
X183670000Y-79962307D03*
X183670000Y-83016538D03*
X183670000Y-86070769D03*
X183670000Y-89125000D03*
X183670000Y-92179230D03*
X183670000Y-95233461D03*
X183670000Y-98287692D03*
X183670000Y-101341923D03*
X183670000Y-104396153D03*
X183670000Y-107450384D03*
X183670000Y-110504615D03*
X183670000Y-113558846D03*
X183670000Y-116613076D03*
X183670000Y-119667307D03*
X183670000Y-122721538D03*
X183670000Y-125775769D03*
X183670000Y-49420000D03*
X183670000Y-128830000D03*
X184670000Y-125775769D03*
X184670000Y-122721538D03*
X184670000Y-119667307D03*
X184670000Y-116613076D03*
X184670000Y-113558846D03*
X184670000Y-110504615D03*
X184670000Y-107450384D03*
X184670000Y-104396153D03*
X184670000Y-101341923D03*
X184670000Y-98287692D03*
X184670000Y-95233461D03*
X184670000Y-92179230D03*
X184670000Y-89125000D03*
X184670000Y-86070769D03*
X184670000Y-83016538D03*
X184670000Y-79962307D03*
X184670000Y-76908076D03*
X184670000Y-73853846D03*
X184670000Y-70799615D03*
X184670000Y-64691153D03*
X184670000Y-61636923D03*
X184670000Y-58582692D03*
X184670000Y-55528461D03*
X184670000Y-52474230D03*
X184670000Y-128830000D03*
X184670000Y-49420000D03*
X166670000Y-52493461D03*
X166670000Y-55566923D03*
X166670000Y-58640384D03*
X166670000Y-61713846D03*
X166670000Y-64787307D03*
X166670000Y-67860769D03*
X166670000Y-70934230D03*
X166670000Y-74007692D03*
X166670000Y-77081153D03*
X166670000Y-80154615D03*
X166670000Y-83228076D03*
X166670000Y-86301538D03*
X166670000Y-89375000D03*
X166670000Y-92448461D03*
X166670000Y-95521923D03*
X166670000Y-98595384D03*
X166670000Y-101668846D03*
X166670000Y-104742307D03*
X166670000Y-107815769D03*
X166670000Y-110889230D03*
X166670000Y-113962692D03*
X166670000Y-117036153D03*
X166670000Y-120109615D03*
X166670000Y-123183076D03*
X166670000Y-126256538D03*
X166670000Y-49420000D03*
X166670000Y-129330000D03*
X167670000Y-126256538D03*
X167670000Y-123183076D03*
X167670000Y-120109615D03*
X167670000Y-117036153D03*
X167670000Y-113962692D03*
X167670000Y-110889230D03*
X167670000Y-107815769D03*
X167670000Y-104742307D03*
X167670000Y-101668846D03*
X167670000Y-98595384D03*
X167670000Y-95521923D03*
X167670000Y-92448461D03*
X167670000Y-89375000D03*
X167670000Y-86301538D03*
X167670000Y-83228076D03*
X167670000Y-80154615D03*
X167670000Y-77081153D03*
X167670000Y-74007692D03*
X167670000Y-70934230D03*
X167670000Y-64787307D03*
X167670000Y-61713846D03*
X167670000Y-58640384D03*
X167670000Y-55566923D03*
X167670000Y-52493461D03*
X167670000Y-129330000D03*
X167670000Y-49420000D03*
X150080000Y-52486400D03*
X150080000Y-55552800D03*
X150080000Y-58619200D03*
X150080000Y-61685600D03*
X150080000Y-64752000D03*
X150080000Y-70884800D03*
X150080000Y-73951200D03*
X150080000Y-77017600D03*
X150080000Y-80084000D03*
X150080000Y-83150400D03*
X150080000Y-86216800D03*
X150080000Y-89283200D03*
X150080000Y-92349600D03*
X150080000Y-95416000D03*
X150080000Y-98482400D03*
X150080000Y-101548800D03*
X150080000Y-104615200D03*
X150080000Y-107681600D03*
X150080000Y-110748000D03*
X150080000Y-113814400D03*
X150080000Y-116880800D03*
X150080000Y-119947200D03*
X150080000Y-123013600D03*
X150080000Y-49420000D03*
X150080000Y-126080000D03*
X151080000Y-123013600D03*
X151080000Y-119947200D03*
X151080000Y-116880800D03*
X151080000Y-113814400D03*
X151080000Y-110748000D03*
X151080000Y-107681600D03*
X151080000Y-104615200D03*
X151080000Y-101548800D03*
X151080000Y-98482400D03*
X151080000Y-95416000D03*
X151080000Y-92349600D03*
X151080000Y-89283200D03*
X151080000Y-86216800D03*
X151080000Y-83150400D03*
X151080000Y-80084000D03*
X151080000Y-77017600D03*
X151080000Y-73951200D03*
X151080000Y-70884800D03*
X151080000Y-64752000D03*
X151080000Y-61685600D03*
X151080000Y-58619200D03*
X151080000Y-55552800D03*
X151080000Y-52486400D03*
X151080000Y-126080000D03*
X151080000Y-49420000D03*
X98670000Y-52496923D03*
X98670000Y-55573846D03*
X98670000Y-59000000D03*
X98670000Y-61727692D03*
X98670000Y-64804615D03*
X98670000Y-67881538D03*
X98670000Y-70958461D03*
X98670000Y-74035384D03*
X98670000Y-77112307D03*
X98670000Y-80189230D03*
X98670000Y-83266153D03*
X98670000Y-86343076D03*
X98670000Y-89420000D03*
X98670000Y-92496923D03*
X98670000Y-95573846D03*
X98670000Y-98650769D03*
X98670000Y-101727692D03*
X98670000Y-104804615D03*
X98670000Y-107881538D03*
X98670000Y-110958461D03*
X98670000Y-114035384D03*
X98670000Y-117112307D03*
X98670000Y-120189230D03*
X98670000Y-123266153D03*
X98670000Y-49420000D03*
X98670000Y-129420000D03*
X99670000Y-123266153D03*
X99670000Y-120189230D03*
X99670000Y-117112307D03*
X99670000Y-114035384D03*
X99670000Y-110958461D03*
X99670000Y-107881538D03*
X99670000Y-104804615D03*
X99670000Y-101727692D03*
X99670000Y-98650769D03*
X99670000Y-95573846D03*
X99670000Y-92496923D03*
X99670000Y-89420000D03*
X99670000Y-86343076D03*
X99670000Y-83266153D03*
X99670000Y-80189230D03*
X99670000Y-77112307D03*
X99670000Y-74035384D03*
X99670000Y-70958461D03*
X99670000Y-64804615D03*
X99670000Y-61727692D03*
X99670000Y-59000000D03*
X99670000Y-55573846D03*
X99670000Y-52496923D03*
X99670000Y-129420000D03*
X99670000Y-49420000D03*
X115830000Y-52487307D03*
X115830000Y-55554615D03*
X115830000Y-59000000D03*
X115830000Y-61689230D03*
X115830000Y-64756538D03*
X115830000Y-67823846D03*
X115830000Y-70891153D03*
X115830000Y-73958461D03*
X115830000Y-77025769D03*
X115830000Y-80093076D03*
X115830000Y-83160384D03*
X115830000Y-86227692D03*
X115830000Y-89295000D03*
X115830000Y-92362307D03*
X115830000Y-95429615D03*
X115830000Y-98496923D03*
X115830000Y-101564230D03*
X115830000Y-104631538D03*
X115830000Y-107698846D03*
X115830000Y-110766153D03*
X115830000Y-113833461D03*
X115830000Y-116900769D03*
X115830000Y-119968076D03*
X115830000Y-123035384D03*
X115830000Y-49420000D03*
X115830000Y-129170000D03*
X116830000Y-123035384D03*
X116830000Y-119968076D03*
X116830000Y-116900769D03*
X116830000Y-113833461D03*
X116830000Y-110766153D03*
X116830000Y-107698846D03*
X116830000Y-104631538D03*
X116830000Y-101564230D03*
X116830000Y-98496923D03*
X116830000Y-95429615D03*
X116830000Y-92362307D03*
X116830000Y-89295000D03*
X116830000Y-86227692D03*
X116830000Y-83160384D03*
X116830000Y-80093076D03*
X116830000Y-77025769D03*
X116830000Y-73958461D03*
X116830000Y-70891153D03*
X116830000Y-64756538D03*
X116830000Y-61689230D03*
X116830000Y-59000000D03*
X116830000Y-55554615D03*
X116830000Y-52487307D03*
X116830000Y-129170000D03*
X116830000Y-49420000D03*
X67750000Y-124316331D03*
X67750000Y-125390023D03*
X67750000Y-126463715D03*
X67750000Y-127537407D03*
X67750000Y-128611099D03*
X67750000Y-129684791D03*
X68266017Y-131682209D03*
X68951807Y-132444446D03*
X69678246Y-133170885D03*
X70404685Y-133897324D03*
X71131124Y-134623763D03*
X71857564Y-135350203D03*
X72584003Y-136076642D03*
X73310553Y-136802969D03*
X74152049Y-137383519D03*
X75139628Y-137647791D03*
X76166601Y-137660000D03*
X77193941Y-137660000D03*
X78221281Y-137660000D03*
X79248621Y-137660000D03*
X80275961Y-137660000D03*
X81303301Y-137660000D03*
X82330641Y-137660000D03*
X83357981Y-137660000D03*
X84385321Y-137660000D03*
X85412661Y-137660000D03*
X67845373Y-130750428D03*
X86440000Y-137660000D03*
X82090063Y-131660000D03*
X81002578Y-131660000D03*
X79915094Y-131660000D03*
X78827609Y-131660000D03*
X77740125Y-131660000D03*
X75926980Y-130934340D03*
X75201320Y-130208680D03*
X74475660Y-129483020D03*
X73750000Y-127619735D03*
X73750000Y-126482111D03*
X73750000Y-125344487D03*
X73750000Y-124206863D03*
X73750000Y-123069239D03*
X73500149Y-120801382D03*
X72841962Y-119849321D03*
X72018415Y-119025774D03*
X71194868Y-118202227D03*
X76652640Y-131660000D03*
X73750000Y-128757360D03*
X73749221Y-121931621D03*
X70371320Y-117378680D03*
X66250000Y-63247546D03*
X66250000Y-61995093D03*
X68419480Y-59580000D03*
X69426320Y-59580000D03*
X66250000Y-64500000D03*
X66250000Y-60742640D03*
X67412640Y-59580000D03*
X70434111Y-54000000D03*
X69428222Y-53580000D03*
X68422333Y-53580000D03*
X67416444Y-53580000D03*
X66410555Y-53580000D03*
X65412941Y-53677094D03*
X64499901Y-54087858D03*
X63751046Y-54756314D03*
X63039775Y-55467585D03*
X62328504Y-56178856D03*
X61617233Y-56890127D03*
X60918052Y-57612669D03*
X60426887Y-58485095D03*
X60250145Y-59470554D03*
X60250000Y-60476443D03*
X60250000Y-61482332D03*
X60250000Y-62488221D03*
X60250000Y-63494110D03*
X71440000Y-54000000D03*
X60250000Y-64500000D03*
X68354505Y-87500000D03*
X69375406Y-87500000D03*
X70396249Y-87496433D03*
X71387982Y-87275787D03*
X72249199Y-86736784D03*
X72974352Y-86018288D03*
X73696238Y-85296402D03*
X74418124Y-84574516D03*
X75140010Y-83852630D03*
X75861896Y-83130744D03*
X76583782Y-82408858D03*
X77305668Y-81686972D03*
X77965264Y-80911824D03*
X78343359Y-79968816D03*
X78410000Y-78952613D03*
X78410000Y-77931712D03*
X78410000Y-76910811D03*
X78410000Y-75889910D03*
X78410000Y-74869009D03*
X78410000Y-73848108D03*
X78410000Y-72827207D03*
X78410000Y-71806306D03*
X78410000Y-70785405D03*
X78410000Y-69764504D03*
X78410000Y-68743603D03*
X78410000Y-67722702D03*
X78410000Y-66701801D03*
X78410000Y-65680900D03*
X63250000Y-87500000D03*
X78410000Y-64660000D03*
X77971429Y-59160000D03*
X76882858Y-59160000D03*
X75794286Y-59160000D03*
X74705715Y-59160000D03*
X73617143Y-59160000D03*
X72528572Y-59160000D03*
X79060000Y-59160000D03*
X71440000Y-59160000D03*
X72410000Y-65693643D03*
X72410000Y-66727286D03*
X72410000Y-67760929D03*
X72410000Y-68794572D03*
X72410000Y-69828215D03*
X72410000Y-70861858D03*
X72410000Y-71895501D03*
X72410000Y-72929144D03*
X72410000Y-73962787D03*
X72410000Y-74996430D03*
X72410000Y-76030073D03*
X72410000Y-77063716D03*
X71559340Y-78948020D03*
X70708680Y-79798680D03*
X69858020Y-80649340D03*
X67855888Y-81500000D03*
X71440000Y-64660000D03*
X72410000Y-64660000D03*
X72410000Y-78097360D03*
X69007360Y-81500000D03*
X63250000Y-81500000D03*
X72750000Y-54000000D03*
X73750000Y-54000000D03*
X74750000Y-54000000D03*
X75750000Y-54000000D03*
X76750000Y-54000000D03*
X77750000Y-54000000D03*
X77750000Y-54000000D03*
X78750000Y-54000000D03*
X79750000Y-54000000D03*
X198250000Y-137500000D03*
X195250000Y-137500000D03*
X192250000Y-137500000D03*
X189250000Y-137500000D03*
X186250000Y-137500000D03*
X183250000Y-137500000D03*
X180250000Y-137500000D03*
X177250000Y-137500000D03*
X174250000Y-137500000D03*
X171250000Y-137500000D03*
X168250000Y-137500000D03*
X165250000Y-137500000D03*
X162250000Y-137500000D03*
X159250000Y-137500000D03*
X156250000Y-137500000D03*
X153250000Y-137500000D03*
X150250000Y-137500000D03*
X147250000Y-137500000D03*
X144250000Y-137500000D03*
X141250000Y-137500000D03*
X138250000Y-137500000D03*
X135250000Y-137500000D03*
X132250000Y-137500000D03*
X129250000Y-137500000D03*
X126250000Y-137500000D03*
X123250000Y-137500000D03*
X120250000Y-137500000D03*
X117250000Y-137500000D03*
X114250000Y-137500000D03*
X111250000Y-137500000D03*
X108250000Y-137500000D03*
X105250000Y-137500000D03*
X102250000Y-137500000D03*
X99250000Y-137500000D03*
X96250000Y-137500000D03*
X93250000Y-137500000D03*
X90250000Y-137500000D03*
X87250000Y-137500000D03*
X198250000Y-41500000D03*
X195250000Y-41500000D03*
X192250000Y-41500000D03*
X189250000Y-41500000D03*
X186250000Y-41500000D03*
X183250000Y-41500000D03*
X180250000Y-41500000D03*
X177250000Y-41500000D03*
X174250000Y-41500000D03*
X171250000Y-41500000D03*
X168250000Y-41500000D03*
X165250000Y-41500000D03*
X162250000Y-41500000D03*
X159250000Y-41500000D03*
X156250000Y-41500000D03*
X153250000Y-41500000D03*
X150250000Y-41500000D03*
X147250000Y-41500000D03*
X144250000Y-41500000D03*
X141250000Y-41500000D03*
X138250000Y-41500000D03*
X135250000Y-41500000D03*
X132250000Y-41500000D03*
X129250000Y-41500000D03*
X126250000Y-41500000D03*
X123250000Y-41500000D03*
X120250000Y-41500000D03*
X117250000Y-41500000D03*
X114250000Y-41500000D03*
X111250000Y-41500000D03*
X108250000Y-41500000D03*
X105250000Y-41500000D03*
X102250000Y-41500000D03*
X99250000Y-41500000D03*
X96250000Y-41500000D03*
X93250000Y-41500000D03*
X90250000Y-41500000D03*
X87250000Y-41500000D03*
X84250000Y-41500000D03*
X81250000Y-41500000D03*
X78250000Y-41500000D03*
X75250000Y-41500000D03*
X72250000Y-41500000D03*
X69250000Y-41500000D03*
X206250000Y-49500000D03*
X206250000Y-52500000D03*
X206250000Y-55500000D03*
X206250000Y-58500000D03*
X206250000Y-61500000D03*
X206250000Y-64500000D03*
X206250000Y-67500000D03*
X206250000Y-70500000D03*
X206250000Y-73500000D03*
X206250000Y-76500000D03*
X206250000Y-79500000D03*
X206250000Y-82500000D03*
X206250000Y-85500000D03*
X206250000Y-88500000D03*
X206250000Y-91500000D03*
X206250000Y-94500000D03*
X206250000Y-97500000D03*
X206250000Y-100500000D03*
X206250000Y-103500000D03*
X206250000Y-106500000D03*
X206250000Y-109500000D03*
X206250000Y-112500000D03*
X206250000Y-115500000D03*
X206250000Y-118500000D03*
X206250000Y-121500000D03*
X206250000Y-124500000D03*
X206250000Y-127500000D03*
X206250000Y-130500000D03*
X133670000Y-80670000D03*
X133670000Y-73170000D03*
X133670000Y-73170000D03*
X73250000Y-89750000D03*
X72250000Y-90750000D03*
X70750000Y-91250000D03*
X69500000Y-91250000D03*
X68250000Y-91250000D03*
D18*
X82250000Y-63000000D02*
X82250000Y-47070000D01*
X80250000Y-65000000D02*
X82250000Y-63000000D01*
X73250000Y-89750000D02*
X80250000Y-82750000D01*
X82250000Y-47070000D02*
X79060000Y-43880000D01*
X80250000Y-82750000D02*
X80250000Y-65000000D01*
X73250000Y-89750000D02*
X72250000Y-90750000D01*
X72250000Y-90750000D02*
X71750000Y-91250000D01*
X71750000Y-91250000D02*
X70750000Y-91250000D01*
X70750000Y-91250000D02*
X69500000Y-91250000D01*
X69500000Y-91250000D02*
X68250000Y-91250000D01*
M02*
