G04 #@! TF.FileFunction,Copper,L1,Top,Signal*
%FSLAX46Y46*%
G04 Gerber Fmt 4.6, Leading zero omitted, Abs format (unit mm)*
G04 Created by KiCad (PCBNEW 4.0.7) date 01/05/18 19:13:59*
%MOMM*%
%LPD*%
G01*
G04 APERTURE LIST*
%ADD10C,0.100000*%
%ADD11C,0.600000*%
%ADD12R,1.727200X1.727200*%
%ADD13O,1.727200X1.727200*%
%ADD14C,2.500000*%
%ADD15C,3.500000*%
%ADD16C,1.998980*%
%ADD17C,2.499360*%
%ADD18C,7.000000*%
%ADD19R,1.400000X4.000000*%
%ADD20R,1.500000X4.000000*%
%ADD21C,0.250000*%
%ADD22C,1.500000*%
%ADD23C,3.000000*%
%ADD24C,2.000000*%
%ADD25C,2.500000*%
%ADD26C,1.000000*%
G04 APERTURE END LIST*
D10*
D11*
X134000000Y-144000000D03*
X133000000Y-144000000D03*
X132000000Y-144000000D03*
X131000000Y-144000000D03*
X130000000Y-144000000D03*
X129000000Y-144000000D03*
X128000000Y-144000000D03*
X127000000Y-144000000D03*
X126000000Y-144000000D03*
X125000000Y-144000000D03*
X124000000Y-144000000D03*
X123000000Y-144000000D03*
X122000000Y-144000000D03*
X121000000Y-144000000D03*
X120000000Y-144000000D03*
X119000000Y-144000000D03*
X118000000Y-144000000D03*
X117000000Y-144000000D03*
X116000000Y-144000000D03*
X115000000Y-144000000D03*
X114000000Y-144000000D03*
X113000000Y-144000000D03*
X112000000Y-144000000D03*
X111000000Y-144000000D03*
X110000000Y-144000000D03*
X109000000Y-144000000D03*
X108000000Y-144000000D03*
X107000000Y-144000000D03*
X134000000Y-143000000D03*
X133000000Y-143000000D03*
X132000000Y-143000000D03*
X131000000Y-143000000D03*
X130000000Y-143000000D03*
X129000000Y-143000000D03*
X128000000Y-143000000D03*
X127000000Y-143000000D03*
X126000000Y-143000000D03*
X125000000Y-143000000D03*
X124000000Y-143000000D03*
X123000000Y-143000000D03*
X122000000Y-143000000D03*
X121000000Y-143000000D03*
X120000000Y-143000000D03*
X119000000Y-143000000D03*
X118000000Y-143000000D03*
X117000000Y-143000000D03*
X116000000Y-143000000D03*
X115000000Y-143000000D03*
X114000000Y-143000000D03*
X113000000Y-143000000D03*
X112000000Y-143000000D03*
X111000000Y-143000000D03*
X110000000Y-143000000D03*
X109000000Y-143000000D03*
X108000000Y-143000000D03*
X107000000Y-143000000D03*
X134000000Y-142000000D03*
X133000000Y-142000000D03*
X132000000Y-142000000D03*
X131000000Y-142000000D03*
X130000000Y-142000000D03*
X129000000Y-142000000D03*
X128000000Y-142000000D03*
X127000000Y-142000000D03*
X126000000Y-142000000D03*
X125000000Y-142000000D03*
X124000000Y-142000000D03*
X123000000Y-142000000D03*
X122000000Y-142000000D03*
X121000000Y-142000000D03*
X120000000Y-142000000D03*
X119000000Y-142000000D03*
X118000000Y-142000000D03*
X117000000Y-142000000D03*
X116000000Y-142000000D03*
X115000000Y-142000000D03*
X114000000Y-142000000D03*
X113000000Y-142000000D03*
X112000000Y-142000000D03*
X111000000Y-142000000D03*
X110000000Y-142000000D03*
X109000000Y-142000000D03*
X108000000Y-142000000D03*
X107000000Y-142000000D03*
X134000000Y-141000000D03*
X133000000Y-141000000D03*
X132000000Y-141000000D03*
X131000000Y-141000000D03*
X130000000Y-141000000D03*
X129000000Y-141000000D03*
X128000000Y-141000000D03*
X127000000Y-141000000D03*
X126000000Y-141000000D03*
X125000000Y-141000000D03*
X124000000Y-141000000D03*
X123000000Y-141000000D03*
X122000000Y-141000000D03*
X121000000Y-141000000D03*
X120000000Y-141000000D03*
X119000000Y-141000000D03*
X118000000Y-141000000D03*
X117000000Y-141000000D03*
X116000000Y-141000000D03*
X115000000Y-141000000D03*
X114000000Y-141000000D03*
X113000000Y-141000000D03*
X112000000Y-141000000D03*
X111000000Y-141000000D03*
X110000000Y-141000000D03*
X109000000Y-141000000D03*
X108000000Y-141000000D03*
X107000000Y-141000000D03*
X134000000Y-140000000D03*
X133000000Y-140000000D03*
X132000000Y-140000000D03*
X131000000Y-140000000D03*
X130000000Y-140000000D03*
X129000000Y-140000000D03*
X128000000Y-140000000D03*
X127000000Y-140000000D03*
X126000000Y-140000000D03*
X125000000Y-140000000D03*
X124000000Y-140000000D03*
X123000000Y-140000000D03*
X122000000Y-140000000D03*
X121000000Y-140000000D03*
X120000000Y-140000000D03*
X119000000Y-140000000D03*
X118000000Y-140000000D03*
X117000000Y-140000000D03*
X116000000Y-140000000D03*
X115000000Y-140000000D03*
X114000000Y-140000000D03*
X113000000Y-140000000D03*
X112000000Y-140000000D03*
X111000000Y-140000000D03*
X110000000Y-140000000D03*
X109000000Y-140000000D03*
X108000000Y-140000000D03*
X107000000Y-140000000D03*
X134000000Y-139000000D03*
X133000000Y-139000000D03*
X132000000Y-139000000D03*
X131000000Y-139000000D03*
X130000000Y-139000000D03*
X129000000Y-139000000D03*
X128000000Y-139000000D03*
X127000000Y-139000000D03*
X126000000Y-139000000D03*
X125000000Y-139000000D03*
X124000000Y-139000000D03*
X123000000Y-139000000D03*
X122000000Y-139000000D03*
X121000000Y-139000000D03*
X120000000Y-139000000D03*
X119000000Y-139000000D03*
X118000000Y-139000000D03*
X117000000Y-139000000D03*
X116000000Y-139000000D03*
X115000000Y-139000000D03*
X114000000Y-139000000D03*
X113000000Y-139000000D03*
X112000000Y-139000000D03*
X111000000Y-139000000D03*
X110000000Y-139000000D03*
X109000000Y-139000000D03*
X108000000Y-139000000D03*
X107000000Y-139000000D03*
X134000000Y-138000000D03*
X133000000Y-138000000D03*
X132000000Y-138000000D03*
X131000000Y-138000000D03*
X130000000Y-138000000D03*
X129000000Y-138000000D03*
X128000000Y-138000000D03*
X127000000Y-138000000D03*
X126000000Y-138000000D03*
X125000000Y-138000000D03*
X124000000Y-138000000D03*
X123000000Y-138000000D03*
X122000000Y-138000000D03*
X121000000Y-138000000D03*
X120000000Y-138000000D03*
X119000000Y-138000000D03*
X118000000Y-138000000D03*
X117000000Y-138000000D03*
X116000000Y-138000000D03*
X115000000Y-138000000D03*
X114000000Y-138000000D03*
X113000000Y-138000000D03*
X112000000Y-138000000D03*
X111000000Y-138000000D03*
X110000000Y-138000000D03*
X109000000Y-138000000D03*
X108000000Y-138000000D03*
X107000000Y-138000000D03*
X154000000Y-136000000D03*
X154000000Y-135000000D03*
X154000000Y-134000000D03*
X154000000Y-133000000D03*
X154000000Y-132000000D03*
X154000000Y-131000000D03*
X154000000Y-130000000D03*
X154000000Y-129000000D03*
X154000000Y-128000000D03*
X154000000Y-127000000D03*
X154000000Y-126000000D03*
X154000000Y-125000000D03*
X154000000Y-124000000D03*
X154000000Y-123000000D03*
X154000000Y-122000000D03*
X154000000Y-121000000D03*
X154000000Y-120000000D03*
X154000000Y-119000000D03*
X154000000Y-118000000D03*
X154000000Y-117000000D03*
X154000000Y-116000000D03*
X154000000Y-115000000D03*
X154000000Y-114000000D03*
X154000000Y-113000000D03*
X154000000Y-112000000D03*
X154000000Y-111000000D03*
X154000000Y-110000000D03*
X154000000Y-109000000D03*
X154000000Y-108000000D03*
X154000000Y-107000000D03*
X154000000Y-106000000D03*
X154000000Y-105000000D03*
X154000000Y-104000000D03*
X154000000Y-103000000D03*
X154000000Y-102000000D03*
X154000000Y-101000000D03*
X154000000Y-100000000D03*
X154000000Y-99000000D03*
X154000000Y-98000000D03*
X154000000Y-97000000D03*
X154000000Y-96000000D03*
X154000000Y-95000000D03*
X154000000Y-94000000D03*
X154000000Y-93000000D03*
X154000000Y-92000000D03*
X154000000Y-91000000D03*
X154000000Y-90000000D03*
X154000000Y-89000000D03*
X154000000Y-88000000D03*
X154000000Y-87000000D03*
X154000000Y-86000000D03*
X154000000Y-85000000D03*
X154000000Y-84000000D03*
X154000000Y-83000000D03*
X154000000Y-82000000D03*
X154000000Y-81000000D03*
X154000000Y-80000000D03*
X154000000Y-79000000D03*
X154000000Y-78000000D03*
X154000000Y-77000000D03*
X154000000Y-76000000D03*
X154000000Y-75000000D03*
X154000000Y-74000000D03*
X154000000Y-73000000D03*
X154000000Y-72000000D03*
X154000000Y-71000000D03*
X154000000Y-70000000D03*
X154000000Y-69000000D03*
X154000000Y-68000000D03*
X154000000Y-67000000D03*
X154000000Y-66000000D03*
X154000000Y-65000000D03*
X154000000Y-64000000D03*
X154000000Y-63000000D03*
X154000000Y-62000000D03*
X154000000Y-61000000D03*
X154000000Y-60000000D03*
X154000000Y-59000000D03*
X154000000Y-58000000D03*
X154000000Y-57000000D03*
X154000000Y-56000000D03*
X154000000Y-55000000D03*
X154000000Y-54000000D03*
X57000000Y-136000000D03*
X56000000Y-136000000D03*
X57000000Y-135000000D03*
X56000000Y-135000000D03*
X57000000Y-134000000D03*
X56000000Y-134000000D03*
X57000000Y-133000000D03*
X56000000Y-133000000D03*
X57000000Y-132000000D03*
X56000000Y-132000000D03*
X57000000Y-131000000D03*
X56000000Y-131000000D03*
X57000000Y-130000000D03*
X56000000Y-130000000D03*
X57000000Y-129000000D03*
X56000000Y-129000000D03*
X57000000Y-128000000D03*
X56000000Y-128000000D03*
X57000000Y-127000000D03*
X56000000Y-127000000D03*
X57000000Y-126000000D03*
X56000000Y-126000000D03*
X57000000Y-125000000D03*
X56000000Y-125000000D03*
X57000000Y-124000000D03*
X56000000Y-124000000D03*
X57000000Y-123000000D03*
X56000000Y-123000000D03*
X57000000Y-122000000D03*
X56000000Y-122000000D03*
X57000000Y-121000000D03*
X56000000Y-121000000D03*
X57000000Y-120000000D03*
X56000000Y-120000000D03*
X57000000Y-119000000D03*
X56000000Y-119000000D03*
X57000000Y-118000000D03*
X56000000Y-118000000D03*
X57000000Y-117000000D03*
X56000000Y-117000000D03*
X57000000Y-116000000D03*
X56000000Y-116000000D03*
X57000000Y-115000000D03*
X56000000Y-115000000D03*
X57000000Y-114000000D03*
X56000000Y-114000000D03*
X57000000Y-113000000D03*
X56000000Y-113000000D03*
X57000000Y-112000000D03*
X56000000Y-112000000D03*
X57000000Y-111000000D03*
X56000000Y-111000000D03*
X57000000Y-110000000D03*
X56000000Y-110000000D03*
X57000000Y-109000000D03*
X56000000Y-109000000D03*
X57000000Y-108000000D03*
X56000000Y-108000000D03*
X57000000Y-107000000D03*
X56000000Y-107000000D03*
X57000000Y-106000000D03*
X56000000Y-106000000D03*
X57000000Y-105000000D03*
X56000000Y-105000000D03*
X57000000Y-104000000D03*
X56000000Y-104000000D03*
X57000000Y-103000000D03*
X56000000Y-103000000D03*
X57000000Y-102000000D03*
X56000000Y-102000000D03*
X57000000Y-101000000D03*
X56000000Y-101000000D03*
X57000000Y-100000000D03*
X56000000Y-100000000D03*
X57000000Y-99000000D03*
X56000000Y-99000000D03*
X57000000Y-98000000D03*
X56000000Y-98000000D03*
X57000000Y-97000000D03*
X56000000Y-97000000D03*
X57000000Y-96000000D03*
X56000000Y-96000000D03*
X57000000Y-95000000D03*
X56000000Y-95000000D03*
X57000000Y-94000000D03*
X56000000Y-94000000D03*
X57000000Y-93000000D03*
X56000000Y-93000000D03*
X57000000Y-92000000D03*
X56000000Y-92000000D03*
X57000000Y-91000000D03*
X56000000Y-91000000D03*
X57000000Y-90000000D03*
X56000000Y-90000000D03*
X57000000Y-89000000D03*
X56000000Y-89000000D03*
X57000000Y-88000000D03*
X56000000Y-88000000D03*
X57000000Y-87000000D03*
X56000000Y-87000000D03*
X57000000Y-86000000D03*
X56000000Y-86000000D03*
X57000000Y-85000000D03*
X56000000Y-85000000D03*
X57000000Y-84000000D03*
X56000000Y-84000000D03*
X57000000Y-83000000D03*
X56000000Y-83000000D03*
X57000000Y-82000000D03*
X56000000Y-82000000D03*
X57000000Y-81000000D03*
X56000000Y-81000000D03*
X57000000Y-80000000D03*
X56000000Y-80000000D03*
X57000000Y-79000000D03*
X56000000Y-79000000D03*
X57000000Y-78000000D03*
X56000000Y-78000000D03*
X57000000Y-77000000D03*
X56000000Y-77000000D03*
X57000000Y-76000000D03*
X56000000Y-76000000D03*
X57000000Y-75000000D03*
X56000000Y-75000000D03*
X57000000Y-74000000D03*
X56000000Y-74000000D03*
X57000000Y-73000000D03*
X56000000Y-73000000D03*
X57000000Y-72000000D03*
X56000000Y-72000000D03*
X57000000Y-71000000D03*
X56000000Y-71000000D03*
X57000000Y-70000000D03*
X56000000Y-70000000D03*
X57000000Y-69000000D03*
X56000000Y-69000000D03*
X57000000Y-68000000D03*
X56000000Y-68000000D03*
X57000000Y-67000000D03*
X56000000Y-67000000D03*
X57000000Y-66000000D03*
X56000000Y-66000000D03*
X57000000Y-65000000D03*
X56000000Y-65000000D03*
X57000000Y-64000000D03*
X56000000Y-64000000D03*
X57000000Y-63000000D03*
X56000000Y-63000000D03*
X57000000Y-62000000D03*
X56000000Y-62000000D03*
X57000000Y-61000000D03*
X56000000Y-61000000D03*
X57000000Y-60000000D03*
X56000000Y-60000000D03*
X57000000Y-59000000D03*
X56000000Y-59000000D03*
X57000000Y-58000000D03*
X56000000Y-58000000D03*
X57000000Y-57000000D03*
X56000000Y-57000000D03*
X57000000Y-56000000D03*
X56000000Y-56000000D03*
X57000000Y-55000000D03*
X56000000Y-55000000D03*
X57000000Y-54000000D03*
D12*
X125500000Y-130000000D03*
D13*
X125500000Y-132540000D03*
X122960000Y-130000000D03*
X122960000Y-132540000D03*
X120420000Y-130000000D03*
X120420000Y-132540000D03*
X117880000Y-130000000D03*
X117880000Y-132540000D03*
X115340000Y-130000000D03*
X115340000Y-132540000D03*
D14*
X133380000Y-70190000D03*
X133380000Y-77810000D03*
X141000000Y-70190000D03*
X141000000Y-77810000D03*
X146080000Y-70190000D03*
X146080000Y-77810000D03*
X151160000Y-70190000D03*
X151160000Y-77810000D03*
D15*
X119460000Y-95730000D03*
X124540000Y-99540000D03*
D14*
X127620000Y-122810000D03*
X127620000Y-115190000D03*
X120000000Y-122810000D03*
X120000000Y-115190000D03*
X114920000Y-122810000D03*
X114920000Y-115190000D03*
X109840000Y-122810000D03*
X109840000Y-115190000D03*
X86620000Y-54810000D03*
X86620000Y-47190000D03*
X79000000Y-54810000D03*
X79000000Y-47190000D03*
X73920000Y-54810000D03*
X73920000Y-47190000D03*
X68840000Y-54810000D03*
X68840000Y-47190000D03*
X133380000Y-103190000D03*
X133380000Y-110810000D03*
X141000000Y-103190000D03*
X141000000Y-110810000D03*
X146080000Y-103190000D03*
X146080000Y-110810000D03*
X151160000Y-103190000D03*
X151160000Y-110810000D03*
D15*
X86460000Y-95730000D03*
X91540000Y-99540000D03*
D16*
X102000000Y-140000000D03*
D17*
X104540000Y-137460000D03*
X104540000Y-142540000D03*
X99460000Y-142540000D03*
X99460000Y-137460000D03*
D16*
X139000000Y-140000000D03*
D17*
X141540000Y-137460000D03*
X141540000Y-142540000D03*
X136460000Y-142540000D03*
X136460000Y-137460000D03*
D18*
X60000000Y-50000000D03*
X150000000Y-140000000D03*
X60000000Y-140000000D03*
X150000000Y-50000000D03*
D16*
X87000000Y-140000000D03*
D17*
X89540000Y-137460000D03*
X89540000Y-142540000D03*
X84460000Y-142540000D03*
X84460000Y-137460000D03*
D15*
X86460000Y-84730000D03*
X91540000Y-88540000D03*
X75940000Y-140470000D03*
X70860000Y-136660000D03*
X93305923Y-51898026D03*
X99592102Y-51000000D03*
X88460000Y-62730000D03*
X93540000Y-66540000D03*
X86460000Y-73730000D03*
X91540000Y-77540000D03*
X88460000Y-106730000D03*
X93540000Y-110540000D03*
X73540000Y-129770000D03*
X68460000Y-125960000D03*
X110305923Y-51898026D03*
X116592102Y-51000000D03*
X116460000Y-62730000D03*
X121540000Y-66540000D03*
X119460000Y-73730000D03*
X124540000Y-77540000D03*
X116460000Y-106730000D03*
X121540000Y-110540000D03*
X68540000Y-119270000D03*
X63460000Y-115460000D03*
X119460000Y-84730000D03*
X124540000Y-88540000D03*
D14*
X84380000Y-122190000D03*
X84380000Y-129810000D03*
X92000000Y-122190000D03*
X92000000Y-129810000D03*
X97080000Y-122190000D03*
X97080000Y-129810000D03*
X102160000Y-122190000D03*
X102160000Y-129810000D03*
X79620000Y-66810000D03*
X79620000Y-59190000D03*
X72000000Y-66810000D03*
X72000000Y-59190000D03*
X66920000Y-66810000D03*
X66920000Y-59190000D03*
X61840000Y-66810000D03*
X61840000Y-59190000D03*
X77620000Y-77810000D03*
X77620000Y-70190000D03*
X70000000Y-77810000D03*
X70000000Y-70190000D03*
X64920000Y-77810000D03*
X64920000Y-70190000D03*
X59840000Y-77810000D03*
X59840000Y-70190000D03*
X77620000Y-88810000D03*
X77620000Y-81190000D03*
X70000000Y-88810000D03*
X70000000Y-81190000D03*
X64920000Y-88810000D03*
X64920000Y-81190000D03*
X59840000Y-88810000D03*
X59840000Y-81190000D03*
X77620000Y-99810000D03*
X77620000Y-92190000D03*
X70000000Y-99810000D03*
X70000000Y-92190000D03*
X64920000Y-99810000D03*
X64920000Y-92190000D03*
X59840000Y-99810000D03*
X59840000Y-92190000D03*
X77620000Y-110810000D03*
X77620000Y-103190000D03*
X70000000Y-110810000D03*
X70000000Y-103190000D03*
X64920000Y-110810000D03*
X64920000Y-103190000D03*
X59840000Y-110810000D03*
X59840000Y-103190000D03*
X123380000Y-47190000D03*
X123380000Y-54810000D03*
X131000000Y-47190000D03*
X131000000Y-54810000D03*
X136080000Y-47190000D03*
X136080000Y-54810000D03*
X141160000Y-47190000D03*
X141160000Y-54810000D03*
X130380000Y-59190000D03*
X130380000Y-66810000D03*
X138000000Y-59190000D03*
X138000000Y-66810000D03*
X143080000Y-59190000D03*
X143080000Y-66810000D03*
X148160000Y-59190000D03*
X148160000Y-66810000D03*
X133380000Y-81190000D03*
X133380000Y-88810000D03*
X141000000Y-81190000D03*
X141000000Y-88810000D03*
X146080000Y-81190000D03*
X146080000Y-88810000D03*
X151160000Y-81190000D03*
X151160000Y-88810000D03*
X133380000Y-92190000D03*
X133380000Y-99810000D03*
X141000000Y-92190000D03*
X141000000Y-99810000D03*
X146080000Y-92190000D03*
X146080000Y-99810000D03*
X151160000Y-92190000D03*
X151160000Y-99810000D03*
X133380000Y-115190000D03*
X133380000Y-122810000D03*
X141000000Y-115190000D03*
X141000000Y-122810000D03*
X146080000Y-115190000D03*
X146080000Y-122810000D03*
X151160000Y-115190000D03*
X151160000Y-122810000D03*
D15*
X102305923Y-87898026D03*
X108592102Y-87000000D03*
D19*
X102000000Y-142800000D03*
D20*
X104540000Y-142800000D03*
X99460000Y-142800000D03*
D19*
X87000000Y-142800000D03*
D20*
X89540000Y-142800000D03*
X84460000Y-142800000D03*
D19*
X139000000Y-142800000D03*
D20*
X141540000Y-142800000D03*
X136460000Y-142800000D03*
D11*
X56000000Y-54000000D03*
X67500000Y-102500000D03*
X67500000Y-103500000D03*
X67500000Y-104500000D03*
X98200002Y-69000000D03*
X84800000Y-82200000D03*
X82400000Y-82800000D03*
X118800000Y-48200000D03*
X113600000Y-48250000D03*
X111400000Y-48250000D03*
X108800000Y-48250000D03*
X106200000Y-48250000D03*
X104000000Y-48250000D03*
X96400000Y-48250000D03*
X93750000Y-48250000D03*
X92600000Y-48750000D03*
X91400000Y-48750000D03*
X108800000Y-60200000D03*
X108800000Y-57500000D03*
X106400000Y-57500000D03*
X103600000Y-57500000D03*
X101400000Y-57500000D03*
X98800000Y-57500000D03*
X96400000Y-57500000D03*
X93800000Y-57500000D03*
X91400000Y-57500000D03*
X88800000Y-57500000D03*
X86400000Y-57500000D03*
X85000000Y-57500000D03*
X83800000Y-57500000D03*
X78600000Y-57000000D03*
X81400000Y-57000000D03*
X80000000Y-57000000D03*
X83800000Y-60499998D03*
X85000000Y-60499998D03*
X86400000Y-60499998D03*
X91400000Y-60250000D03*
X93800000Y-60250000D03*
X96400000Y-60250000D03*
X98800000Y-60250000D03*
X101400000Y-60250000D03*
X103600000Y-60250000D03*
X106400000Y-60250000D03*
X111600000Y-60200000D03*
X112999996Y-60200000D03*
X114600000Y-60200000D03*
X118800000Y-60250000D03*
X121400000Y-60250000D03*
X123800000Y-60250000D03*
X117600000Y-69600000D03*
X116600000Y-69600000D03*
X115400000Y-69500000D03*
X113800000Y-69500000D03*
X111200000Y-69500000D03*
X108800000Y-69000000D03*
X106400000Y-69000000D03*
X103800000Y-69000000D03*
X101200000Y-69000000D03*
X96000000Y-69000000D03*
X91600000Y-69000000D03*
X90600000Y-69000000D03*
X89200000Y-69000000D03*
X87600000Y-69000000D03*
X86000000Y-69000000D03*
X84200000Y-69000000D03*
X98800000Y-74750000D03*
X97500000Y-73200000D03*
X91400000Y-71750000D03*
X93800000Y-71750000D03*
X96600000Y-71750000D03*
X99000000Y-71750000D03*
X101200000Y-71750000D03*
X103800000Y-71750000D03*
X106400000Y-71750000D03*
X108800000Y-71750000D03*
X111200000Y-71750000D03*
X113800000Y-71750000D03*
X116400000Y-71750000D03*
X120600000Y-80400000D03*
X119000000Y-80400000D03*
X116400000Y-80400000D03*
X113800000Y-80000000D03*
X111200000Y-80000000D03*
X108800000Y-80000000D03*
X106400000Y-80000000D03*
X103800000Y-80000000D03*
X101200000Y-80000000D03*
X98800000Y-80000000D03*
X96400000Y-80000000D03*
X95200000Y-80000000D03*
X93800000Y-80000000D03*
X89000000Y-80000000D03*
X86400000Y-80000000D03*
X85000000Y-80000000D03*
X92800000Y-82600000D03*
X87800000Y-82200000D03*
X89000000Y-82250000D03*
X91500000Y-82250000D03*
X94000000Y-82500000D03*
X96500000Y-82500000D03*
X99000000Y-82500000D03*
X101500000Y-82200000D03*
X104000000Y-82200000D03*
X106500000Y-82200000D03*
X109000000Y-82200000D03*
X111500000Y-82200000D03*
X114000000Y-82200000D03*
X116500000Y-82200000D03*
X126500000Y-82500000D03*
X124000000Y-82500000D03*
X126400000Y-91200000D03*
X121500000Y-91000000D03*
X119000000Y-91000000D03*
X116500000Y-91000000D03*
X114000000Y-91000000D03*
X111500000Y-91000000D03*
X109000000Y-91000000D03*
X106500000Y-91000000D03*
X104000000Y-91000000D03*
X101500000Y-91000000D03*
X99000000Y-91000000D03*
X96500000Y-91000000D03*
X93000000Y-91000000D03*
X94000000Y-91000000D03*
X89500000Y-93250000D03*
X91500000Y-93250000D03*
X94000000Y-93250000D03*
X96500000Y-93250000D03*
X99000000Y-93250000D03*
X101500000Y-93250000D03*
X104000000Y-93250000D03*
X106500000Y-93250000D03*
X109000000Y-93250000D03*
X111500000Y-93250000D03*
X114000000Y-93250000D03*
X116500000Y-93250000D03*
X121500000Y-93250000D03*
X124000000Y-93250000D03*
X121000000Y-102200000D03*
X118500000Y-102200000D03*
X116500000Y-102200000D03*
X114000000Y-102000000D03*
X113000000Y-102000000D03*
X112000000Y-102000000D03*
X111000000Y-102000000D03*
X110000000Y-102000000D03*
X109000000Y-102000000D03*
X108000000Y-102000000D03*
X106600000Y-102000000D03*
X105400000Y-102000000D03*
X104200000Y-102000000D03*
X102800000Y-102000000D03*
X100000000Y-102000000D03*
X71200000Y-101500000D03*
X73800000Y-101500000D03*
X76600000Y-101500000D03*
X78600000Y-101500000D03*
X81200000Y-101500000D03*
X89800000Y-102250004D03*
X101400000Y-102000000D03*
X98800000Y-102000000D03*
X96400000Y-102000000D03*
X94000000Y-102000000D03*
X92500000Y-106000000D03*
X92500000Y-104500000D03*
X91000000Y-104500000D03*
X86500000Y-104500000D03*
X92500000Y-107500000D03*
X94000000Y-107500000D03*
X95500000Y-107500000D03*
X97000000Y-107500000D03*
X98500000Y-107500000D03*
X100000000Y-107500000D03*
X80600000Y-104800000D03*
X81800000Y-104800000D03*
X83000000Y-104800000D03*
X84200000Y-104800000D03*
X85400000Y-104800000D03*
X124500000Y-104500000D03*
X123000000Y-104500000D03*
X121500000Y-104500000D03*
X120000000Y-104500000D03*
X118500000Y-104500000D03*
X115000000Y-104500000D03*
X113500000Y-104500000D03*
X112000000Y-104500000D03*
X110500000Y-104500000D03*
X109000000Y-104500000D03*
X107500000Y-104500000D03*
X106000000Y-104500000D03*
X104500000Y-104500000D03*
X103500000Y-105500000D03*
X102500000Y-106500000D03*
X101500000Y-107500000D03*
X107500000Y-113500000D03*
X108500000Y-113500000D03*
X110500000Y-113500000D03*
X111500000Y-113500000D03*
X112500000Y-113500000D03*
X113500000Y-113500000D03*
X116500000Y-113500000D03*
X117500000Y-113500000D03*
X118500000Y-113500000D03*
X121500000Y-113500000D03*
X122500000Y-113500000D03*
X123500000Y-113500000D03*
X107000000Y-114500000D03*
X106000000Y-113500000D03*
X105000000Y-113500000D03*
X104000000Y-113500000D03*
X103000000Y-113500000D03*
X102000000Y-113500000D03*
X101000000Y-113500000D03*
X100000000Y-113500000D03*
X99000000Y-113500000D03*
X98000000Y-113500000D03*
X97000000Y-113500000D03*
X96000000Y-113500000D03*
X95000000Y-113500000D03*
X94000000Y-113500000D03*
X93000000Y-113500000D03*
X92000000Y-113500000D03*
X91000000Y-113500000D03*
X90000000Y-113500000D03*
X89000000Y-113500000D03*
X88000000Y-113500000D03*
X87000000Y-113500000D03*
X86000000Y-113500000D03*
X85000000Y-113500000D03*
X84000000Y-113500000D03*
X83000000Y-113500000D03*
X82000000Y-113500000D03*
X81000000Y-113500000D03*
X80000000Y-113500000D03*
X79000000Y-113500000D03*
X78000000Y-113500000D03*
X77000000Y-113500000D03*
X76000000Y-113500000D03*
X75000000Y-113500000D03*
X74000000Y-113500000D03*
X73000000Y-113500000D03*
X73000000Y-117500000D03*
X74000000Y-117500000D03*
X75000000Y-117500000D03*
X76000000Y-117500000D03*
X77000000Y-117500000D03*
X78000000Y-117500000D03*
X79000000Y-117500000D03*
X80000000Y-117500000D03*
X81000000Y-117500000D03*
X82000000Y-117500000D03*
X83000000Y-117500000D03*
X84000000Y-117500000D03*
X85000000Y-117500000D03*
X86000000Y-117500000D03*
X87000000Y-117500000D03*
X88000000Y-117500000D03*
X89000000Y-117500000D03*
X90000000Y-117500000D03*
X91000000Y-117500000D03*
X92000000Y-117500000D03*
X93000000Y-117500000D03*
X94000000Y-117500000D03*
X95000000Y-117500000D03*
X96000000Y-117500000D03*
X97000000Y-117500000D03*
X98000000Y-117500000D03*
X99000000Y-117500000D03*
X100000000Y-117500000D03*
X101000000Y-117500000D03*
X102000000Y-117500000D03*
X103000000Y-117500000D03*
X72000000Y-117500000D03*
X72000000Y-119000000D03*
X72000000Y-120000000D03*
X73000000Y-120000000D03*
X74000000Y-120000000D03*
X75000000Y-120000000D03*
X76000000Y-120000000D03*
X77000000Y-120000000D03*
X77000000Y-121000000D03*
X77000000Y-122000000D03*
X77000000Y-123000000D03*
X78000000Y-123000000D03*
X79000000Y-123000000D03*
X79000000Y-124000000D03*
X79000000Y-125000000D03*
X79000000Y-126000000D03*
X79000000Y-127000000D03*
X79000000Y-128000000D03*
X79000000Y-129000000D03*
X79000000Y-130000000D03*
X107500000Y-126000000D03*
X107500000Y-125000000D03*
X107500000Y-124000000D03*
X107500000Y-123000000D03*
X107000000Y-121500000D03*
X106000000Y-120500000D03*
X105000000Y-119500000D03*
X104000000Y-118500000D03*
X90000000Y-122000000D03*
X90000000Y-123000000D03*
X90000000Y-124000000D03*
X90000000Y-125000000D03*
X90000000Y-126000000D03*
X90000000Y-127000000D03*
X86000000Y-135000000D03*
X87000000Y-134000000D03*
X88000000Y-133000000D03*
X89000000Y-132000000D03*
X90000000Y-132000000D03*
X91000000Y-132000000D03*
X92000000Y-132000000D03*
X93000000Y-132000000D03*
X94000000Y-131000000D03*
X95000000Y-130000000D03*
X95000000Y-129000000D03*
X95000000Y-128000000D03*
X95000000Y-127000000D03*
X95000000Y-126000000D03*
X95000000Y-125000000D03*
X95000000Y-124000000D03*
X95000000Y-123000000D03*
X95000000Y-122000000D03*
X98000000Y-132000000D03*
X97000000Y-132000000D03*
X96000000Y-133000000D03*
X95000000Y-134000000D03*
X94000000Y-135000000D03*
X93000000Y-136000000D03*
X92000000Y-136000000D03*
X91000000Y-136000000D03*
X100000000Y-122000000D03*
X100000000Y-123000000D03*
X100000000Y-124000000D03*
X100000000Y-125000000D03*
X100000000Y-126000000D03*
X100000000Y-127000000D03*
X100000000Y-128000000D03*
X100000000Y-129000000D03*
X100000000Y-130000000D03*
X100000000Y-131000000D03*
X100000000Y-132000000D03*
X100000000Y-133000000D03*
X100000000Y-134000000D03*
X100000000Y-135000000D03*
X104000000Y-122000000D03*
X104000000Y-123000000D03*
X104000000Y-124000000D03*
X104000000Y-125000000D03*
X104000000Y-126000000D03*
X104000000Y-127000000D03*
X104000000Y-128000000D03*
X104000000Y-129000000D03*
X104000000Y-130000000D03*
X104000000Y-131000000D03*
X104000000Y-132000000D03*
X104000000Y-133000000D03*
X104000000Y-134000000D03*
X104000000Y-135000000D03*
X149000000Y-127000000D03*
X149000000Y-128000000D03*
X148000000Y-129000000D03*
X147000000Y-130000000D03*
X146000000Y-131000000D03*
X145000000Y-131000000D03*
X144000000Y-131000000D03*
X143000000Y-131000000D03*
X142000000Y-131000000D03*
X141000000Y-131000000D03*
X140000000Y-131000000D03*
X139000000Y-132000000D03*
X138000000Y-133000000D03*
X137000000Y-134000000D03*
X137000000Y-135000000D03*
X142000000Y-135000000D03*
X143000000Y-135000000D03*
X144000000Y-135000000D03*
X145000000Y-135000000D03*
X146000000Y-135000000D03*
X147000000Y-135000000D03*
X148000000Y-135000000D03*
X153000000Y-130000000D03*
X152000000Y-131000000D03*
X151000000Y-132000000D03*
X150000000Y-133000000D03*
X149000000Y-134000000D03*
X110000000Y-125000000D03*
X115000000Y-125000000D03*
X118600000Y-125000000D03*
X127800000Y-55500000D03*
X127800000Y-54799988D03*
X127800000Y-54000000D03*
X127800000Y-53200000D03*
X124768593Y-58013518D03*
X154000000Y-127750000D03*
X123400000Y-124800000D03*
X126000000Y-124800000D03*
X130000000Y-124800000D03*
X83000000Y-144000000D03*
X117750000Y-58000000D03*
X120000000Y-58000000D03*
X117399994Y-82200000D03*
X115200000Y-82200000D03*
X112399990Y-82200000D03*
X110000000Y-82200000D03*
X107600000Y-82200000D03*
X105000000Y-82200000D03*
X102600000Y-82200016D03*
X117600000Y-102200000D03*
X122600000Y-102200000D03*
X120000000Y-102200000D03*
X122600000Y-80400000D03*
X117600000Y-80400000D03*
X112500000Y-69500000D03*
X92500000Y-102250000D03*
X87500000Y-102250004D03*
X122500000Y-58000000D03*
X115250000Y-58000000D03*
X112500000Y-58000000D03*
X109750000Y-58000000D03*
X82500000Y-60499998D03*
X127500000Y-71500000D03*
X125250000Y-71500004D03*
X138500000Y-90000000D03*
X136500000Y-88000000D03*
X146000000Y-85000000D03*
X138500000Y-88000000D03*
X136500000Y-90000000D03*
X146000000Y-96000000D03*
X137500000Y-99500000D03*
X135500000Y-101500000D03*
X127500000Y-102000000D03*
X137500000Y-101500000D03*
X137500000Y-98500000D03*
X107500000Y-80000000D03*
X112500000Y-80000000D03*
X127500000Y-80000000D03*
X102500000Y-80000000D03*
X115250000Y-80000000D03*
X110000000Y-80000000D03*
X105000000Y-80000000D03*
X127499996Y-78500000D03*
X128500000Y-77000000D03*
X122500000Y-72000000D03*
X122500000Y-69000000D03*
X129500000Y-71500000D03*
X117500000Y-91000000D03*
X122500000Y-91000000D03*
X127500000Y-91000000D03*
X120000000Y-91000000D03*
X127500002Y-89250000D03*
X115250000Y-91000000D03*
X128600000Y-88200000D03*
X125000000Y-82500000D03*
X100000000Y-82500000D03*
X95250000Y-82500000D03*
X90250000Y-82250000D03*
X122500000Y-82500000D03*
X97500000Y-82500000D03*
X82500000Y-90500000D03*
X75000000Y-90500000D03*
X79750000Y-90500000D03*
X127600000Y-83000000D03*
X146000000Y-107000000D03*
X146000000Y-113000000D03*
X146000000Y-119000000D03*
X117500000Y-46000000D03*
X112500000Y-46000000D03*
X107500000Y-46000000D03*
X102500000Y-46000000D03*
X97500000Y-48250000D03*
X100000000Y-46000000D03*
X97500000Y-46000000D03*
X105000000Y-46000000D03*
X110000000Y-46000000D03*
X115000000Y-46000000D03*
X120500000Y-46000000D03*
X110000000Y-91000000D03*
X110500000Y-89750000D03*
X115250000Y-89750000D03*
X102500000Y-71750000D03*
X107500000Y-71750000D03*
X112500000Y-71750000D03*
X117500000Y-71750000D03*
X105000000Y-71750000D03*
X110000000Y-71750000D03*
X115250000Y-71750000D03*
X82500008Y-73750000D03*
X125500000Y-61250000D03*
X125000000Y-60250000D03*
X122500000Y-60250000D03*
X127500000Y-100499994D03*
X125000000Y-67250000D03*
X82500000Y-57000000D03*
X75000000Y-68500000D03*
X82500002Y-68500000D03*
X82500010Y-101500000D03*
X75000000Y-101500000D03*
X79750000Y-101500000D03*
X72500000Y-101500000D03*
X82500000Y-94000016D03*
X112500000Y-116000000D03*
X112500000Y-122250000D03*
X71750000Y-53750000D03*
X71750000Y-48250000D03*
X64500000Y-60500000D03*
X64500000Y-66000000D03*
X62750000Y-71250000D03*
X62750000Y-77000000D03*
X62750000Y-82250000D03*
X62750000Y-87750000D03*
X62750000Y-93250000D03*
X62750000Y-98750000D03*
X62750000Y-109750000D03*
X62750000Y-104250000D03*
X97500000Y-96000000D03*
X97500000Y-93250000D03*
X100000000Y-96000000D03*
X97500000Y-74750000D03*
X97500000Y-71750000D03*
X100000000Y-74750000D03*
X99250000Y-63500000D03*
X100000000Y-60250000D03*
X101250000Y-63500000D03*
X105000000Y-54500000D03*
X105000000Y-57500000D03*
X107250000Y-54500000D03*
X115000000Y-48250000D03*
X110000000Y-48250000D03*
X105000000Y-48250000D03*
X95250000Y-48250000D03*
X90250000Y-57500000D03*
X90250000Y-60250000D03*
X95250000Y-60250000D03*
X95250000Y-57500000D03*
X100000000Y-57500000D03*
X125000000Y-69000000D03*
X120000000Y-60250000D03*
X110000000Y-60250000D03*
X105000000Y-60250000D03*
X100000000Y-69000000D03*
X105000000Y-69000000D03*
X110000000Y-69000000D03*
X100000000Y-80000000D03*
X100000000Y-71750000D03*
X90250000Y-71750000D03*
X95250000Y-71750000D03*
X115250000Y-102000000D03*
X95250000Y-102000000D03*
X97500000Y-102000000D03*
X87500000Y-93250000D03*
X92500000Y-93250000D03*
X102500000Y-93250000D03*
X107500000Y-93250000D03*
X112500000Y-93250000D03*
X117500000Y-93250000D03*
X122500000Y-93250000D03*
X90250000Y-93250000D03*
X95250000Y-93250000D03*
X100000000Y-93250000D03*
X105000000Y-93250000D03*
X110000000Y-93250000D03*
X115250000Y-93250000D03*
X125000000Y-93250000D03*
X107500000Y-60250000D03*
X102500000Y-60250000D03*
X97500000Y-60250000D03*
X92500000Y-60250000D03*
X92500000Y-71750000D03*
X88500000Y-71750000D03*
X82500000Y-80000000D03*
X75000000Y-79500000D03*
X125000000Y-110500000D03*
X97500000Y-80000000D03*
X87500000Y-80000000D03*
X107500000Y-69000000D03*
X102500000Y-69000000D03*
X77000000Y-144000000D03*
X67000000Y-144000000D03*
X112500000Y-48250000D03*
X102500000Y-48250000D03*
X92500000Y-57500000D03*
X107500000Y-48250000D03*
X117500000Y-48250000D03*
X102500000Y-57500000D03*
X75000000Y-57500000D03*
X77500000Y-57500000D03*
X87500000Y-57500000D03*
X97500000Y-57500000D03*
X107500000Y-57500000D03*
X112500000Y-91000000D03*
X95250000Y-91000000D03*
X100000000Y-91000000D03*
X105000000Y-91000000D03*
X107500000Y-91000000D03*
X102500000Y-91000000D03*
X97500000Y-91000000D03*
X87500020Y-91000000D03*
X67500000Y-109500000D03*
X67500000Y-110500000D03*
X67500000Y-111500000D03*
D21*
X67500000Y-106000000D02*
X67500000Y-104500000D01*
X67500000Y-103500000D02*
X67500000Y-102500000D01*
X86500000Y-104500000D02*
X85700000Y-104500000D01*
X92500000Y-104500000D02*
X91000000Y-104500000D01*
X101500000Y-107500000D02*
X100000000Y-107500000D01*
X95500000Y-107500000D02*
X94000000Y-107500000D01*
X98500000Y-107500000D02*
X97000000Y-107500000D01*
X92500000Y-107500000D02*
X92500000Y-106000000D01*
X81800000Y-104800000D02*
X80600000Y-104800000D01*
X84200000Y-104800000D02*
X83000000Y-104800000D01*
X85700000Y-104500000D02*
X85400000Y-104800000D01*
X123000000Y-104500000D02*
X124500000Y-104500000D01*
X120000000Y-104500000D02*
X121500000Y-104500000D01*
X118000000Y-104000000D02*
X118500000Y-104500000D01*
X115500000Y-104000000D02*
X118000000Y-104000000D01*
X115000000Y-104500000D02*
X115500000Y-104000000D01*
X112000000Y-104500000D02*
X113500000Y-104500000D01*
X109000000Y-104500000D02*
X110500000Y-104500000D01*
X106000000Y-104500000D02*
X107500000Y-104500000D01*
X103500000Y-105500000D02*
X104500000Y-104500000D01*
X101500000Y-107500000D02*
X102500000Y-106500000D01*
X108500000Y-113500000D02*
X107500000Y-113500000D01*
X111500000Y-113500000D02*
X110500000Y-113500000D01*
X113500000Y-113500000D02*
X112500000Y-113500000D01*
X117500000Y-113500000D02*
X116500000Y-113500000D01*
X121500000Y-113500000D02*
X118500000Y-113500000D01*
X123500000Y-113500000D02*
X122500000Y-113500000D01*
X105000000Y-113500000D02*
X106000000Y-113500000D01*
X103000000Y-113500000D02*
X104000000Y-113500000D01*
X101000000Y-113500000D02*
X102000000Y-113500000D01*
X99000000Y-113500000D02*
X100000000Y-113500000D01*
X97000000Y-113500000D02*
X98000000Y-113500000D01*
X95000000Y-113500000D02*
X96000000Y-113500000D01*
X93000000Y-113500000D02*
X94000000Y-113500000D01*
X91000000Y-113500000D02*
X92000000Y-113500000D01*
X89000000Y-113500000D02*
X90000000Y-113500000D01*
X87000000Y-113500000D02*
X88000000Y-113500000D01*
X85000000Y-113500000D02*
X86000000Y-113500000D01*
X83000000Y-113500000D02*
X84000000Y-113500000D01*
X81000000Y-113500000D02*
X82000000Y-113500000D01*
X79000000Y-113500000D02*
X80000000Y-113500000D01*
X77000000Y-113500000D02*
X78000000Y-113500000D01*
X75000000Y-113500000D02*
X76000000Y-113500000D01*
X73000000Y-113500000D02*
X74000000Y-113500000D01*
X74000000Y-117500000D02*
X75000000Y-117500000D01*
X76000000Y-117500000D02*
X77000000Y-117500000D01*
X78000000Y-117500000D02*
X79000000Y-117500000D01*
X80000000Y-117500000D02*
X81000000Y-117500000D01*
X82000000Y-117500000D02*
X83000000Y-117500000D01*
X84000000Y-117500000D02*
X85000000Y-117500000D01*
X86000000Y-117500000D02*
X87000000Y-117500000D01*
X88000000Y-117500000D02*
X89000000Y-117500000D01*
X90000000Y-117500000D02*
X91000000Y-117500000D01*
X92000000Y-117500000D02*
X93000000Y-117500000D01*
X94000000Y-117500000D02*
X95000000Y-117500000D01*
X96000000Y-117500000D02*
X97000000Y-117500000D01*
X98000000Y-117500000D02*
X99000000Y-117500000D01*
X100000000Y-117500000D02*
X101000000Y-117500000D01*
X102000000Y-117500000D02*
X103000000Y-117500000D01*
X72000000Y-119000000D02*
X72000000Y-117500000D01*
X73000000Y-120000000D02*
X72000000Y-120000000D01*
X76000000Y-120000000D02*
X75000000Y-120000000D01*
X77000000Y-122000000D02*
X77000000Y-121000000D01*
X78000000Y-123000000D02*
X77000000Y-123000000D01*
X79000000Y-124000000D02*
X79000000Y-123000000D01*
X79000000Y-126000000D02*
X79000000Y-125000000D01*
X79000000Y-128000000D02*
X79000000Y-127000000D01*
X79000000Y-130000000D02*
X79000000Y-129000000D01*
X72000000Y-117500000D02*
X73000000Y-117500000D01*
X107500000Y-125000000D02*
X107500000Y-126000000D01*
X107500000Y-123000000D02*
X107500000Y-124000000D01*
X106000000Y-120500000D02*
X107000000Y-121500000D01*
X104000000Y-118500000D02*
X105000000Y-119500000D01*
X90000000Y-123000000D02*
X90000000Y-122000000D01*
X90000000Y-125000000D02*
X90000000Y-124000000D01*
X90000000Y-127000000D02*
X90000000Y-126000000D01*
X86000000Y-135000000D02*
X87000000Y-134000000D01*
X88000000Y-133000000D02*
X89000000Y-132000000D01*
X90000000Y-132000000D02*
X91000000Y-132000000D01*
X92000000Y-132000000D02*
X93000000Y-132000000D01*
X94000000Y-131000000D02*
X95000000Y-130000000D01*
X95000000Y-129000000D02*
X95000000Y-128000000D01*
X95000000Y-127000000D02*
X95000000Y-126000000D01*
X95000000Y-125000000D02*
X95000000Y-124000000D01*
X95000000Y-123000000D02*
X95000000Y-122000000D01*
X89540000Y-137460000D02*
X91000000Y-136000000D01*
X96000000Y-133000000D02*
X97000000Y-132000000D01*
X94000000Y-135000000D02*
X95000000Y-134000000D01*
X92000000Y-136000000D02*
X93000000Y-136000000D01*
X99460000Y-137460000D02*
X99460000Y-135540000D01*
X100000000Y-124000000D02*
X100000000Y-123000000D01*
X100000000Y-126000000D02*
X100000000Y-125000000D01*
X100000000Y-128000000D02*
X100000000Y-127000000D01*
X100000000Y-130000000D02*
X100000000Y-129000000D01*
X100000000Y-132000000D02*
X100000000Y-131000000D01*
X100000000Y-134000000D02*
X100000000Y-133000000D01*
X99460000Y-135540000D02*
X100000000Y-135000000D01*
X104540000Y-137460000D02*
X104540000Y-135540000D01*
X104000000Y-124000000D02*
X104000000Y-123000000D01*
X104000000Y-126000000D02*
X104000000Y-125000000D01*
X104000000Y-128000000D02*
X104000000Y-127000000D01*
X104000000Y-130000000D02*
X104000000Y-129000000D01*
X104000000Y-132000000D02*
X104000000Y-131000000D01*
X104000000Y-134000000D02*
X104000000Y-133000000D01*
X104540000Y-135540000D02*
X104000000Y-135000000D01*
X148000000Y-129000000D02*
X149000000Y-128000000D01*
X146000000Y-131000000D02*
X147000000Y-130000000D01*
X144000000Y-131000000D02*
X145000000Y-131000000D01*
X142000000Y-131000000D02*
X143000000Y-131000000D01*
X140000000Y-131000000D02*
X141000000Y-131000000D01*
X138000000Y-133000000D02*
X139000000Y-132000000D01*
X137000000Y-135000000D02*
X137000000Y-134000000D01*
X141540000Y-135460000D02*
X142000000Y-135000000D01*
X143000000Y-135000000D02*
X144000000Y-135000000D01*
X145000000Y-135000000D02*
X146000000Y-135000000D01*
X147000000Y-135000000D02*
X148000000Y-135000000D01*
X141540000Y-137460000D02*
X141540000Y-135460000D01*
X151000000Y-132000000D02*
X152000000Y-131000000D01*
X149000000Y-134000000D02*
X150000000Y-133000000D01*
X99400000Y-137400000D02*
X99460000Y-137460000D01*
X115000000Y-125000000D02*
X118600000Y-125000000D01*
X110000000Y-128000000D02*
X110000000Y-125000000D01*
X114540000Y-132540000D02*
X110000000Y-128000000D01*
X127800000Y-54799988D02*
X127800000Y-55500000D01*
X115340000Y-132540000D02*
X114540000Y-132540000D01*
D22*
X115340000Y-132540000D02*
X114118686Y-132540000D01*
X114118686Y-132540000D02*
X112000000Y-130421314D01*
X112000000Y-130421314D02*
X112000000Y-125730000D01*
X112000000Y-125730000D02*
X113670001Y-124059999D01*
X113670001Y-124059999D02*
X114920000Y-122810000D01*
X115340000Y-132860000D02*
X115340000Y-132540000D01*
X73920000Y-54810000D02*
X73920000Y-47190000D01*
X66920000Y-66810000D02*
X66920000Y-59190000D01*
X64920000Y-77810000D02*
X64920000Y-70190000D01*
X64920000Y-88810000D02*
X64920000Y-81190000D01*
X64920000Y-99810000D02*
X64920000Y-92190000D01*
X64920000Y-103190000D02*
X64920000Y-110810000D01*
X136080000Y-54810000D02*
X136080000Y-47190000D01*
X143080000Y-66810000D02*
X143080000Y-59190000D01*
X146080000Y-69810000D02*
X143080000Y-66810000D01*
X146080000Y-77810000D02*
X146080000Y-70190000D01*
X146080000Y-81190000D02*
X146080000Y-77810000D01*
X146080000Y-88810000D02*
X146080000Y-81190000D01*
X146080000Y-92190000D02*
X146080000Y-88810000D01*
X146080000Y-99810000D02*
X146080000Y-92190000D01*
X146080000Y-103190000D02*
X146080000Y-99810000D01*
X146080000Y-110810000D02*
X146080000Y-103190000D01*
X146080000Y-115190000D02*
X146080000Y-110810000D01*
X136460000Y-142540000D02*
X135290000Y-142540000D01*
X135290000Y-142540000D02*
X134750000Y-142000000D01*
X141540000Y-142540000D02*
X142710000Y-142540000D01*
X142710000Y-142540000D02*
X143250000Y-142000000D01*
D21*
X126000000Y-124800000D02*
X123400000Y-124800000D01*
D22*
X114920000Y-115190000D02*
X113670001Y-116439999D01*
X113670001Y-116439999D02*
X113670001Y-121560001D01*
X113670001Y-121560001D02*
X114920000Y-122810000D01*
D21*
X122500000Y-72000000D02*
X122500000Y-69000000D01*
X97500000Y-46000000D02*
X97500000Y-48250000D01*
D23*
X70000000Y-85000000D02*
X86190000Y-85000000D01*
X86190000Y-85000000D02*
X86460000Y-84730000D01*
X70000000Y-88810000D02*
X70000000Y-85000000D01*
X70000000Y-85000000D02*
X70000000Y-81190000D01*
X102305923Y-87898026D02*
X92181974Y-87898026D01*
X92181974Y-87898026D02*
X91540000Y-88540000D01*
D24*
X92000000Y-129810000D02*
X92000000Y-129500000D01*
X92000000Y-129500000D02*
X89000000Y-129500000D01*
X89000000Y-129500000D02*
X85500000Y-133000000D01*
X85500000Y-133000000D02*
X80000000Y-133000000D01*
X80000000Y-133000000D02*
X76000000Y-137000000D01*
X76000000Y-137000000D02*
X76000000Y-140410000D01*
X76000000Y-140410000D02*
X75940000Y-140470000D01*
X92000000Y-122190000D02*
X92000000Y-126000000D01*
X92000000Y-126000000D02*
X92000000Y-129810000D01*
D23*
X79000000Y-51000000D02*
X92407897Y-51000000D01*
D24*
X92407897Y-51000000D02*
X93305923Y-51898026D01*
D23*
X79000000Y-47190000D02*
X79000000Y-51000000D01*
X79000000Y-51000000D02*
X79000000Y-54810000D01*
X72000000Y-63000000D02*
X88190000Y-63000000D01*
X88190000Y-63000000D02*
X88460000Y-62730000D01*
X72000000Y-59190000D02*
X72000000Y-63000000D01*
X72000000Y-63000000D02*
X72000000Y-66810000D01*
X70000000Y-74000000D02*
X79789996Y-74000000D01*
X84710001Y-75479999D02*
X86460000Y-73730000D01*
X84439999Y-75750001D02*
X84710001Y-75479999D01*
X81539997Y-75750001D02*
X84439999Y-75750001D01*
X79789996Y-74000000D02*
X81539997Y-75750001D01*
X70000000Y-77810000D02*
X70000000Y-74000000D01*
X70000000Y-74000000D02*
X70000000Y-70190000D01*
X70000000Y-96000000D02*
X70500001Y-96500001D01*
X70500001Y-96500001D02*
X85689999Y-96500001D01*
X85689999Y-96500001D02*
X86460000Y-95730000D01*
X70000000Y-99810000D02*
X70000000Y-96000000D01*
X70000000Y-96000000D02*
X70000000Y-92190000D01*
X70000000Y-107000000D02*
X88190000Y-107000000D01*
X88190000Y-107000000D02*
X88460000Y-106730000D01*
X70000000Y-110810000D02*
X70000000Y-107000000D01*
X70000000Y-107000000D02*
X70000000Y-103190000D01*
X110305923Y-51898026D02*
X100490128Y-51898026D01*
D24*
X100490128Y-51898026D02*
X99592102Y-51000000D01*
D23*
X116460000Y-62730000D02*
X116190000Y-63000000D01*
X103500000Y-66000000D02*
X94080000Y-66000000D01*
X94080000Y-66000000D02*
X93540000Y-66540000D01*
X116190000Y-63000000D02*
X106500000Y-63000000D01*
X106500000Y-63000000D02*
X103500000Y-66000000D01*
X119460000Y-73730000D02*
X118940000Y-74250000D01*
X118940000Y-74250000D02*
X106250000Y-74250000D01*
X103250000Y-77250000D02*
X91830000Y-77250000D01*
X106250000Y-74250000D02*
X103250000Y-77250000D01*
X91830000Y-77250000D02*
X91540000Y-77540000D01*
X119460000Y-95730000D02*
X118940000Y-96250000D01*
X118940000Y-96250000D02*
X106750000Y-96250000D01*
X106750000Y-96250000D02*
X104500000Y-98500000D01*
X104500000Y-98500000D02*
X92580000Y-98500000D01*
X92580000Y-98500000D02*
X91540000Y-99540000D01*
X116460000Y-106730000D02*
X116190000Y-107000000D01*
X116190000Y-107000000D02*
X106000000Y-107000000D01*
X106000000Y-107000000D02*
X103250000Y-109750000D01*
X103250000Y-109750000D02*
X94330000Y-109750000D01*
X94330000Y-109750000D02*
X93540000Y-110540000D01*
X119460000Y-84730000D02*
X110862102Y-84730000D01*
X110862102Y-84730000D02*
X108592102Y-87000000D01*
X131000000Y-52000000D02*
X131000000Y-54810000D01*
X131000000Y-50250000D02*
X131000000Y-52000000D01*
X131000000Y-52000000D02*
X130000000Y-51000000D01*
X130000000Y-51000000D02*
X116592102Y-51000000D01*
X131000000Y-47190000D02*
X131000000Y-51750000D01*
X138000000Y-63000000D02*
X137250000Y-63750000D01*
X137250000Y-63750000D02*
X124330000Y-63750000D01*
X124330000Y-63750000D02*
X121540000Y-66540000D01*
X138000000Y-66810000D02*
X138000000Y-63000000D01*
X138000000Y-59190000D02*
X138000000Y-63000000D01*
X124540000Y-77540000D02*
X124540000Y-77460000D01*
X124540000Y-77460000D02*
X128000000Y-74000000D01*
X128000000Y-74000000D02*
X141000000Y-74000000D01*
X141000000Y-70190000D02*
X141000000Y-74000000D01*
X141000000Y-74000000D02*
X141000000Y-77810000D01*
X141000000Y-96000000D02*
X128080000Y-96000000D01*
X128080000Y-96000000D02*
X124540000Y-99540000D01*
X141000000Y-92190000D02*
X141000000Y-96000000D01*
X141000000Y-96000000D02*
X141000000Y-99810000D01*
X141000000Y-107000000D02*
X125080000Y-107000000D01*
X125080000Y-107000000D02*
X121540000Y-110540000D01*
X141000000Y-103190000D02*
X141000000Y-107000000D01*
X141000000Y-107000000D02*
X141000000Y-110810000D01*
D21*
X67500000Y-111500000D02*
X67500000Y-110500000D01*
D25*
X61840000Y-59190000D02*
X61840000Y-59160000D01*
X61840000Y-59160000D02*
X66000000Y-55000000D01*
X66000000Y-55000000D02*
X68650000Y-55000000D01*
X68650000Y-55000000D02*
X68840000Y-54810000D01*
X109840000Y-119000000D02*
X108000000Y-119000000D01*
X104460000Y-115460000D02*
X108000000Y-119000000D01*
X104460000Y-115460000D02*
X63460000Y-115460000D01*
X109840000Y-119000000D02*
X110000000Y-119000000D01*
X110000000Y-119000000D02*
X109840000Y-119000000D01*
X109840000Y-115190000D02*
X109840000Y-119000000D01*
X109840000Y-119000000D02*
X109840000Y-122810000D01*
D23*
X59840000Y-110810000D02*
X59840000Y-113840000D01*
X61460000Y-115460000D02*
X63460000Y-115460000D01*
X59840000Y-113840000D02*
X61460000Y-115460000D01*
D25*
X61840000Y-66810000D02*
X61840000Y-68190000D01*
X61840000Y-68190000D02*
X59840000Y-70190000D01*
X61840000Y-59190000D02*
X61840000Y-66810000D01*
X68840000Y-47190000D02*
X68840000Y-54810000D01*
D23*
X59840000Y-70190000D02*
X59840000Y-77810000D01*
X59840000Y-77810000D02*
X59840000Y-81190000D01*
X59840000Y-81190000D02*
X59840000Y-88810000D01*
X59840000Y-88810000D02*
X59840000Y-92190000D01*
X59840000Y-92190000D02*
X59840000Y-99810000D01*
X59840000Y-99810000D02*
X59840000Y-103190000D01*
X59840000Y-103190000D02*
X59840000Y-110810000D01*
X141000000Y-85000000D02*
X128080000Y-85000000D01*
X128080000Y-85000000D02*
X124540000Y-88540000D01*
X141000000Y-81190000D02*
X141000000Y-85000000D01*
X141000000Y-85000000D02*
X141000000Y-88810000D01*
D22*
X126400000Y-126400000D02*
X127620000Y-125180000D01*
X127620000Y-125180000D02*
X127620000Y-122810000D01*
X117718686Y-126400000D02*
X126400000Y-126400000D01*
X115340000Y-130000000D02*
X115340000Y-128778686D01*
X115340000Y-128778686D02*
X117718686Y-126400000D01*
D26*
X127620000Y-122810000D02*
X133380000Y-122810000D01*
D22*
X102000000Y-142000000D02*
X102000000Y-140000000D01*
D24*
X102000000Y-129970000D02*
X102000000Y-140000000D01*
X102000000Y-129970000D02*
X102160000Y-129810000D01*
D25*
X102160000Y-122190000D02*
X102160000Y-129810000D01*
D24*
X151160000Y-122810000D02*
X151160000Y-128840000D01*
X151160000Y-128840000D02*
X147000000Y-133000000D01*
X147000000Y-133000000D02*
X141000000Y-133000000D01*
X141000000Y-133000000D02*
X139000000Y-135000000D01*
X139000000Y-135000000D02*
X139000000Y-140000000D01*
D22*
X139000000Y-142000000D02*
X139000000Y-140000000D01*
D25*
X148160000Y-59190000D02*
X148160000Y-58910000D01*
X148160000Y-58910000D02*
X144250000Y-55000000D01*
X144250000Y-55000000D02*
X141350000Y-55000000D01*
X141350000Y-55000000D02*
X141160000Y-54810000D01*
X151160000Y-110810000D02*
X151160000Y-115190000D01*
X151160000Y-115190000D02*
X151160000Y-122810000D01*
D23*
X151160000Y-70190000D02*
X151160000Y-77810000D01*
D25*
X148160000Y-66810000D02*
X148160000Y-67190000D01*
X148160000Y-67190000D02*
X151160000Y-70190000D01*
X148160000Y-59190000D02*
X148160000Y-66810000D01*
D23*
X141160000Y-47190000D02*
X141160000Y-54810000D01*
X151160000Y-110810000D02*
X151160000Y-103190000D01*
X151160000Y-103190000D02*
X151160000Y-99810000D01*
X151160000Y-99810000D02*
X151160000Y-92190000D01*
X151160000Y-92190000D02*
X151160000Y-88810000D01*
X151160000Y-88810000D02*
X151160000Y-81190000D01*
X151160000Y-81190000D02*
X151160000Y-77810000D01*
D22*
X92839998Y-134050002D02*
X95830001Y-131059999D01*
X87000000Y-136744471D02*
X89694469Y-134050002D01*
X87000000Y-140000000D02*
X87000000Y-136744471D01*
X95830001Y-131059999D02*
X97080000Y-129810000D01*
X89694469Y-134050002D02*
X92839998Y-134050002D01*
X87000000Y-142000000D02*
X87000000Y-140000000D01*
D24*
X97080000Y-129810000D02*
X97080000Y-122190000D01*
D25*
X141000000Y-119000000D02*
X121000000Y-119000000D01*
X121000000Y-119000000D02*
X120000000Y-119000000D01*
X120000000Y-115190000D02*
X120000000Y-119000000D01*
X120000000Y-119000000D02*
X120000000Y-122810000D01*
X141000000Y-115190000D02*
X141000000Y-119000000D01*
X141000000Y-119000000D02*
X141000000Y-122810000D01*
M02*
