G04 #@! TF.FileFunction,Paste,Bot*
%FSLAX46Y46*%
G04 Gerber Fmt 4.6, Leading zero omitted, Abs format (unit mm)*
G04 Created by KiCad (PCBNEW 4.0.7) date 12/14/17 19:40:15*
%MOMM*%
%LPD*%
G01*
G04 APERTURE LIST*
%ADD10C,0.100000*%
%ADD11R,1.250000X1.500000*%
%ADD12R,1.500000X1.250000*%
%ADD13R,2.000000X3.500000*%
%ADD14R,2.300000X2.500000*%
%ADD15R,1.500000X1.300000*%
%ADD16R,1.300000X1.500000*%
%ADD17R,3.500000X2.000000*%
%ADD18R,1.500000X5.080000*%
G04 APERTURE END LIST*
D10*
D11*
X130500000Y-120500000D03*
X130500000Y-123000000D03*
X84000000Y-47250000D03*
X84000000Y-49750000D03*
X77000000Y-59250000D03*
X77000000Y-61750000D03*
X75000000Y-70250000D03*
X75000000Y-72750000D03*
X75000000Y-81250000D03*
X75000000Y-83750000D03*
X75000000Y-92250000D03*
X75000000Y-94750000D03*
X75000000Y-103250000D03*
X75000000Y-105750000D03*
X84000000Y-54750000D03*
X84000000Y-52250000D03*
X128000000Y-66750000D03*
X128000000Y-64250000D03*
X75000000Y-77750000D03*
X75000000Y-75250000D03*
X75000000Y-88750000D03*
X75000000Y-86250000D03*
X75000000Y-99750000D03*
X75000000Y-97250000D03*
X75000000Y-110750000D03*
X75000000Y-108250000D03*
X126000000Y-49750000D03*
X126000000Y-47250000D03*
X128000000Y-61750000D03*
X128000000Y-59250000D03*
X131000000Y-72750000D03*
X131000000Y-70250000D03*
D12*
X128750000Y-80000000D03*
X131250000Y-80000000D03*
X129000000Y-90750000D03*
X131500000Y-90750000D03*
D11*
X131000000Y-105750000D03*
X131000000Y-103250000D03*
X126000000Y-54750000D03*
X126000000Y-52250000D03*
X77000000Y-66750000D03*
X77000000Y-64250000D03*
X131000000Y-77750000D03*
X131000000Y-75250000D03*
X131000000Y-88750000D03*
X131000000Y-86250000D03*
X131000000Y-100000000D03*
X131000000Y-97500000D03*
X131000000Y-111000000D03*
X131000000Y-108500000D03*
X82000000Y-129750000D03*
X82000000Y-127250000D03*
X87000000Y-129750000D03*
X87000000Y-127250000D03*
X87000000Y-122250000D03*
X87000000Y-124750000D03*
X125000000Y-115250000D03*
X125000000Y-112750000D03*
D13*
X117750000Y-119000000D03*
X113750000Y-119000000D03*
D11*
X130500000Y-113750000D03*
X130500000Y-116250000D03*
D14*
X84500000Y-128150000D03*
X84500000Y-123850000D03*
X123500000Y-53150000D03*
X123500000Y-48850000D03*
X86500000Y-53150000D03*
X86500000Y-48850000D03*
X79500000Y-65150000D03*
X79500000Y-60850000D03*
X77500000Y-76150000D03*
X77500000Y-71850000D03*
X77500000Y-87150000D03*
X77500000Y-82850000D03*
X77500000Y-98150000D03*
X77500000Y-93850000D03*
X77500000Y-109150000D03*
X77500000Y-104850000D03*
X127500000Y-121150000D03*
X127500000Y-116850000D03*
X130500000Y-65150000D03*
X130500000Y-60850000D03*
X133500000Y-87150000D03*
X133500000Y-82850000D03*
X133500000Y-98150000D03*
X133500000Y-93850000D03*
X133500000Y-109150000D03*
X133500000Y-104850000D03*
X133500000Y-121150000D03*
X133500000Y-116850000D03*
X133500000Y-76150000D03*
X133500000Y-71850000D03*
D15*
X89400000Y-47000000D03*
X92100000Y-47000000D03*
X82900000Y-59000000D03*
X85600000Y-59000000D03*
X80400000Y-70500000D03*
X83100000Y-70500000D03*
X80400000Y-81250000D03*
X83100000Y-81250000D03*
X80650000Y-92000000D03*
X83350000Y-92000000D03*
X81150000Y-103250000D03*
X83850000Y-103250000D03*
D16*
X124200000Y-117650000D03*
X124200000Y-120350000D03*
D15*
X131100000Y-51500000D03*
X128400000Y-51500000D03*
X136850000Y-62000000D03*
X134150000Y-62000000D03*
D16*
X137000000Y-70150000D03*
X137000000Y-72850000D03*
X137000000Y-83850000D03*
X137000000Y-81150000D03*
X137000000Y-94850000D03*
X137000000Y-92150000D03*
X137000000Y-105850000D03*
X137000000Y-103150000D03*
X137000000Y-117850000D03*
X137000000Y-115150000D03*
D15*
X87150000Y-119500000D03*
X89850000Y-119500000D03*
D13*
X63500000Y-85000000D03*
X67500000Y-85000000D03*
X84750000Y-88500000D03*
X88750000Y-88500000D03*
X73200000Y-141200000D03*
X69200000Y-141200000D03*
X95500000Y-85250000D03*
X91500000Y-85250000D03*
X72500000Y-51000000D03*
X76500000Y-51000000D03*
X65500000Y-63000000D03*
X69500000Y-63000000D03*
X63500000Y-74000000D03*
X67500000Y-74000000D03*
X63500000Y-96000000D03*
X67500000Y-96000000D03*
X63500000Y-107000000D03*
X67500000Y-107000000D03*
X79600000Y-133400000D03*
X75600000Y-133400000D03*
X95500000Y-54500000D03*
X99500000Y-54500000D03*
X87250000Y-66500000D03*
X91250000Y-66500000D03*
X84500000Y-77500000D03*
X88500000Y-77500000D03*
X84750000Y-99750000D03*
X88750000Y-99750000D03*
X86750000Y-110750000D03*
X90750000Y-110750000D03*
X70750000Y-130250000D03*
X66750000Y-130250000D03*
X95500000Y-88000000D03*
X99500000Y-88000000D03*
X106500000Y-51000000D03*
X102500000Y-51000000D03*
X101000000Y-66250000D03*
X97000000Y-66250000D03*
X99250000Y-77250000D03*
X95250000Y-77250000D03*
X102250000Y-84750000D03*
X106250000Y-84750000D03*
X99250000Y-99000000D03*
X95250000Y-99000000D03*
X101000000Y-110250000D03*
X97000000Y-110250000D03*
X75000000Y-122750000D03*
X71000000Y-122750000D03*
X111500000Y-55500000D03*
X115500000Y-55500000D03*
X114750000Y-67000000D03*
X118750000Y-67000000D03*
X117500000Y-77750000D03*
X121500000Y-77750000D03*
D17*
X113000000Y-89250000D03*
X113000000Y-85250000D03*
D13*
X117750000Y-99600000D03*
X121750000Y-99600000D03*
X114800000Y-110800000D03*
X118800000Y-110800000D03*
X65750000Y-119750000D03*
X61750000Y-119750000D03*
D17*
X119000000Y-56000000D03*
X119000000Y-52000000D03*
D13*
X125500000Y-63500000D03*
X121500000Y-63500000D03*
X128500000Y-74000000D03*
X124500000Y-74000000D03*
X128500000Y-96500000D03*
X124500000Y-96500000D03*
X125500000Y-107500000D03*
X121500000Y-107500000D03*
X117400000Y-88600000D03*
X121400000Y-88600000D03*
X128500000Y-85500000D03*
X124500000Y-85500000D03*
X67000000Y-114500000D03*
X71000000Y-114500000D03*
D18*
X97750000Y-142000000D03*
X106250000Y-142000000D03*
X83750000Y-142000000D03*
X92250000Y-142000000D03*
X134750000Y-142000000D03*
X143250000Y-142000000D03*
M02*
