G04 #@! TF.FileFunction,Legend,Bot*
%FSLAX46Y46*%
G04 Gerber Fmt 4.6, Leading zero omitted, Abs format (unit mm)*
G04 Created by KiCad (PCBNEW 4.0.7) date 12/14/17 19:40:15*
%MOMM*%
%LPD*%
G01*
G04 APERTURE LIST*
%ADD10C,0.100000*%
%ADD11C,0.300000*%
%ADD12C,0.120000*%
%ADD13C,0.150000*%
G04 APERTURE END LIST*
D10*
D11*
X96721428Y-116850000D02*
X96007142Y-116850000D01*
X96864285Y-117278571D02*
X96364285Y-115778571D01*
X95864285Y-117278571D01*
X95149999Y-117278571D02*
X95292857Y-117207143D01*
X95364285Y-117064286D01*
X95364285Y-115778571D01*
X94007143Y-117207143D02*
X94150000Y-117278571D01*
X94435714Y-117278571D01*
X94578571Y-117207143D01*
X94650000Y-117064286D01*
X94650000Y-116492857D01*
X94578571Y-116350000D01*
X94435714Y-116278571D01*
X94150000Y-116278571D01*
X94007143Y-116350000D01*
X93935714Y-116492857D01*
X93935714Y-116635714D01*
X94650000Y-116778571D01*
X93435714Y-117278571D02*
X92650000Y-116278571D01*
X93435714Y-116278571D02*
X92650000Y-117278571D01*
X92078571Y-117278571D02*
X92078571Y-116278571D01*
X92078571Y-115778571D02*
X92150000Y-115850000D01*
X92078571Y-115921429D01*
X92007143Y-115850000D01*
X92078571Y-115778571D01*
X92078571Y-115921429D01*
X90721428Y-117278571D02*
X90721428Y-116492857D01*
X90792857Y-116350000D01*
X90935714Y-116278571D01*
X91221428Y-116278571D01*
X91364285Y-116350000D01*
X90721428Y-117207143D02*
X90864285Y-117278571D01*
X91221428Y-117278571D01*
X91364285Y-117207143D01*
X91435714Y-117064286D01*
X91435714Y-116921429D01*
X91364285Y-116778571D01*
X91221428Y-116707143D01*
X90864285Y-116707143D01*
X90721428Y-116635714D01*
X90007142Y-117278571D02*
X90007142Y-116278571D01*
X90007142Y-116564286D02*
X89935714Y-116421429D01*
X89864285Y-116350000D01*
X89721428Y-116278571D01*
X89578571Y-116278571D01*
X88507143Y-117207143D02*
X88650000Y-117278571D01*
X88935714Y-117278571D01*
X89078571Y-117207143D01*
X89150000Y-117064286D01*
X89150000Y-116492857D01*
X89078571Y-116350000D01*
X88935714Y-116278571D01*
X88650000Y-116278571D01*
X88507143Y-116350000D01*
X88435714Y-116492857D01*
X88435714Y-116635714D01*
X89150000Y-116778571D01*
X87864286Y-117207143D02*
X87721429Y-117278571D01*
X87435714Y-117278571D01*
X87292857Y-117207143D01*
X87221429Y-117064286D01*
X87221429Y-116992857D01*
X87292857Y-116850000D01*
X87435714Y-116778571D01*
X87650000Y-116778571D01*
X87792857Y-116707143D01*
X87864286Y-116564286D01*
X87864286Y-116492857D01*
X87792857Y-116350000D01*
X87650000Y-116278571D01*
X87435714Y-116278571D01*
X87292857Y-116350000D01*
X84721428Y-117278571D02*
X85435714Y-117278571D01*
X85435714Y-115778571D01*
X84221428Y-117278571D02*
X84221428Y-115778571D01*
X83650000Y-115778571D01*
X83507142Y-115850000D01*
X83435714Y-115921429D01*
X83364285Y-116064286D01*
X83364285Y-116278571D01*
X83435714Y-116421429D01*
X83507142Y-116492857D01*
X83650000Y-116564286D01*
X84221428Y-116564286D01*
X82221428Y-116492857D02*
X82721428Y-116492857D01*
X82721428Y-117278571D02*
X82721428Y-115778571D01*
X82007142Y-115778571D01*
X88749999Y-132903571D02*
X89249999Y-132189286D01*
X89607142Y-132903571D02*
X89607142Y-131403571D01*
X89035714Y-131403571D01*
X88892856Y-131475000D01*
X88821428Y-131546429D01*
X88749999Y-131689286D01*
X88749999Y-131903571D01*
X88821428Y-132046429D01*
X88892856Y-132117857D01*
X89035714Y-132189286D01*
X89607142Y-132189286D01*
X88249999Y-131403571D02*
X87249999Y-132903571D01*
X87249999Y-131403571D02*
X88249999Y-132903571D01*
X94071428Y-135453571D02*
X94071428Y-133953571D01*
X93571428Y-135025000D01*
X93071428Y-133953571D01*
X93071428Y-135453571D01*
X92428571Y-135025000D02*
X91714285Y-135025000D01*
X92571428Y-135453571D02*
X92071428Y-133953571D01*
X91571428Y-135453571D01*
X91142857Y-135382143D02*
X90928571Y-135453571D01*
X90571428Y-135453571D01*
X90428571Y-135382143D01*
X90357142Y-135310714D01*
X90285714Y-135167857D01*
X90285714Y-135025000D01*
X90357142Y-134882143D01*
X90428571Y-134810714D01*
X90571428Y-134739286D01*
X90857142Y-134667857D01*
X91000000Y-134596429D01*
X91071428Y-134525000D01*
X91142857Y-134382143D01*
X91142857Y-134239286D01*
X91071428Y-134096429D01*
X91000000Y-134025000D01*
X90857142Y-133953571D01*
X90500000Y-133953571D01*
X90285714Y-134025000D01*
X89857143Y-133953571D02*
X89000000Y-133953571D01*
X89428571Y-135453571D02*
X89428571Y-133953571D01*
X88500000Y-134667857D02*
X88000000Y-134667857D01*
X87785714Y-135453571D02*
X88500000Y-135453571D01*
X88500000Y-133953571D01*
X87785714Y-133953571D01*
X86285714Y-135453571D02*
X86785714Y-134739286D01*
X87142857Y-135453571D02*
X87142857Y-133953571D01*
X86571429Y-133953571D01*
X86428571Y-134025000D01*
X86357143Y-134096429D01*
X86285714Y-134239286D01*
X86285714Y-134453571D01*
X86357143Y-134596429D01*
X86428571Y-134667857D01*
X86571429Y-134739286D01*
X87142857Y-134739286D01*
X86000000Y-135596429D02*
X84857143Y-135596429D01*
X84500000Y-135453571D02*
X84500000Y-133953571D01*
X83785714Y-135453571D02*
X83785714Y-133953571D01*
X82928571Y-135453571D01*
X82928571Y-133953571D01*
X104678571Y-134678571D02*
X104678571Y-133178571D01*
X104678571Y-133892857D02*
X103821428Y-133892857D01*
X103821428Y-134678571D02*
X103821428Y-133178571D01*
X102607142Y-133892857D02*
X103107142Y-133892857D01*
X103107142Y-134678571D02*
X103107142Y-133178571D01*
X102392856Y-133178571D01*
X102178571Y-134821429D02*
X101035714Y-134821429D01*
X100892857Y-133178571D02*
X100035714Y-133178571D01*
X100464285Y-134678571D02*
X100464285Y-133178571D01*
X99678571Y-133178571D02*
X98678571Y-134678571D01*
X98678571Y-133178571D02*
X99678571Y-134678571D01*
X149250000Y-128628571D02*
X148678571Y-128628571D01*
X149035714Y-128128571D02*
X149035714Y-129414286D01*
X148964286Y-129557143D01*
X148821428Y-129628571D01*
X148678571Y-129628571D01*
X147964285Y-129628571D02*
X148107143Y-129557143D01*
X148178571Y-129485714D01*
X148250000Y-129342857D01*
X148250000Y-128914286D01*
X148178571Y-128771429D01*
X148107143Y-128700000D01*
X147964285Y-128628571D01*
X147750000Y-128628571D01*
X147607143Y-128700000D01*
X147535714Y-128771429D01*
X147464285Y-128914286D01*
X147464285Y-129342857D01*
X147535714Y-129485714D01*
X147607143Y-129557143D01*
X147750000Y-129628571D01*
X147964285Y-129628571D01*
X145678571Y-129628571D02*
X145678571Y-128128571D01*
X145107143Y-128128571D01*
X144964285Y-128200000D01*
X144892857Y-128271429D01*
X144821428Y-128414286D01*
X144821428Y-128628571D01*
X144892857Y-128771429D01*
X144964285Y-128842857D01*
X145107143Y-128914286D01*
X145678571Y-128914286D01*
X144250000Y-129557143D02*
X144035714Y-129628571D01*
X143678571Y-129628571D01*
X143535714Y-129557143D01*
X143464285Y-129485714D01*
X143392857Y-129342857D01*
X143392857Y-129200000D01*
X143464285Y-129057143D01*
X143535714Y-128985714D01*
X143678571Y-128914286D01*
X143964285Y-128842857D01*
X144107143Y-128771429D01*
X144178571Y-128700000D01*
X144250000Y-128557143D01*
X144250000Y-128414286D01*
X144178571Y-128271429D01*
X144107143Y-128200000D01*
X143964285Y-128128571D01*
X143607143Y-128128571D01*
X143392857Y-128200000D01*
X141678572Y-128057143D02*
X142964286Y-129985714D01*
X141392857Y-128128571D02*
X140892857Y-129628571D01*
X140392857Y-128128571D01*
X139964286Y-129557143D02*
X139750000Y-129628571D01*
X139392857Y-129628571D01*
X139250000Y-129557143D01*
X139178571Y-129485714D01*
X139107143Y-129342857D01*
X139107143Y-129200000D01*
X139178571Y-129057143D01*
X139250000Y-128985714D01*
X139392857Y-128914286D01*
X139678571Y-128842857D01*
X139821429Y-128771429D01*
X139892857Y-128700000D01*
X139964286Y-128557143D01*
X139964286Y-128414286D01*
X139892857Y-128271429D01*
X139821429Y-128200000D01*
X139678571Y-128128571D01*
X139321429Y-128128571D01*
X139107143Y-128200000D01*
X138607143Y-128128571D02*
X138250000Y-129628571D01*
X137964286Y-128557143D01*
X137678572Y-129628571D01*
X137321429Y-128128571D01*
X135892857Y-129628571D02*
X136392857Y-128914286D01*
X136750000Y-129628571D02*
X136750000Y-128128571D01*
X136178572Y-128128571D01*
X136035714Y-128200000D01*
X135964286Y-128271429D01*
X135892857Y-128414286D01*
X135892857Y-128628571D01*
X135964286Y-128771429D01*
X136035714Y-128842857D01*
X136178572Y-128914286D01*
X136750000Y-128914286D01*
X146785714Y-131750000D02*
X146071428Y-131750000D01*
X146928571Y-132178571D02*
X146428571Y-130678571D01*
X145928571Y-132178571D01*
X145428571Y-131178571D02*
X145428571Y-132178571D01*
X145428571Y-131321429D02*
X145357143Y-131250000D01*
X145214285Y-131178571D01*
X145000000Y-131178571D01*
X144857143Y-131250000D01*
X144785714Y-131392857D01*
X144785714Y-132178571D01*
X144285714Y-131178571D02*
X143714285Y-131178571D01*
X144071428Y-130678571D02*
X144071428Y-131964286D01*
X144000000Y-132107143D01*
X143857142Y-132178571D01*
X143714285Y-132178571D01*
X143214285Y-132035714D02*
X143142857Y-132107143D01*
X143214285Y-132178571D01*
X143285714Y-132107143D01*
X143214285Y-132035714D01*
X143214285Y-132178571D01*
X140857142Y-131392857D02*
X140642856Y-131464286D01*
X140571428Y-131535714D01*
X140499999Y-131678571D01*
X140499999Y-131892857D01*
X140571428Y-132035714D01*
X140642856Y-132107143D01*
X140785714Y-132178571D01*
X141357142Y-132178571D01*
X141357142Y-130678571D01*
X140857142Y-130678571D01*
X140714285Y-130750000D01*
X140642856Y-130821429D01*
X140571428Y-130964286D01*
X140571428Y-131107143D01*
X140642856Y-131250000D01*
X140714285Y-131321429D01*
X140857142Y-131392857D01*
X141357142Y-131392857D01*
X139857142Y-132178571D02*
X139857142Y-131178571D01*
X139857142Y-131464286D02*
X139785714Y-131321429D01*
X139714285Y-131250000D01*
X139571428Y-131178571D01*
X139428571Y-131178571D01*
X138285714Y-132178571D02*
X138285714Y-130678571D01*
X138285714Y-132107143D02*
X138428571Y-132178571D01*
X138714285Y-132178571D01*
X138857143Y-132107143D01*
X138928571Y-132035714D01*
X139000000Y-131892857D01*
X139000000Y-131464286D01*
X138928571Y-131321429D01*
X138857143Y-131250000D01*
X138714285Y-131178571D01*
X138428571Y-131178571D01*
X138285714Y-131250000D01*
X149464285Y-133228571D02*
X148607142Y-133228571D01*
X149035713Y-134728571D02*
X149035713Y-133228571D01*
X148249999Y-133228571D02*
X147249999Y-134728571D01*
X147249999Y-133228571D02*
X148249999Y-134728571D01*
X144678571Y-134585714D02*
X144750000Y-134657143D01*
X144964286Y-134728571D01*
X145107143Y-134728571D01*
X145321428Y-134657143D01*
X145464286Y-134514286D01*
X145535714Y-134371429D01*
X145607143Y-134085714D01*
X145607143Y-133871429D01*
X145535714Y-133585714D01*
X145464286Y-133442857D01*
X145321428Y-133300000D01*
X145107143Y-133228571D01*
X144964286Y-133228571D01*
X144750000Y-133300000D01*
X144678571Y-133371429D01*
X143821428Y-134728571D02*
X143964286Y-134657143D01*
X144035714Y-134585714D01*
X144107143Y-134442857D01*
X144107143Y-134014286D01*
X144035714Y-133871429D01*
X143964286Y-133800000D01*
X143821428Y-133728571D01*
X143607143Y-133728571D01*
X143464286Y-133800000D01*
X143392857Y-133871429D01*
X143321428Y-134014286D01*
X143321428Y-134442857D01*
X143392857Y-134585714D01*
X143464286Y-134657143D01*
X143607143Y-134728571D01*
X143821428Y-134728571D01*
X142678571Y-133728571D02*
X142678571Y-134728571D01*
X142678571Y-133871429D02*
X142607143Y-133800000D01*
X142464285Y-133728571D01*
X142250000Y-133728571D01*
X142107143Y-133800000D01*
X142035714Y-133942857D01*
X142035714Y-134728571D01*
X141321428Y-133728571D02*
X141321428Y-134728571D01*
X141321428Y-133871429D02*
X141250000Y-133800000D01*
X141107142Y-133728571D01*
X140892857Y-133728571D01*
X140750000Y-133800000D01*
X140678571Y-133942857D01*
X140678571Y-134728571D01*
X138321428Y-133942857D02*
X138107142Y-134014286D01*
X138035714Y-134085714D01*
X137964285Y-134228571D01*
X137964285Y-134442857D01*
X138035714Y-134585714D01*
X138107142Y-134657143D01*
X138250000Y-134728571D01*
X138821428Y-134728571D01*
X138821428Y-133228571D01*
X138321428Y-133228571D01*
X138178571Y-133300000D01*
X138107142Y-133371429D01*
X138035714Y-133514286D01*
X138035714Y-133657143D01*
X138107142Y-133800000D01*
X138178571Y-133871429D01*
X138321428Y-133942857D01*
X138821428Y-133942857D01*
X137321428Y-134728571D02*
X137321428Y-133728571D01*
X137321428Y-134014286D02*
X137250000Y-133871429D01*
X137178571Y-133800000D01*
X137035714Y-133728571D01*
X136892857Y-133728571D01*
X135750000Y-134728571D02*
X135750000Y-133228571D01*
X135750000Y-134657143D02*
X135892857Y-134728571D01*
X136178571Y-134728571D01*
X136321429Y-134657143D01*
X136392857Y-134585714D01*
X136464286Y-134442857D01*
X136464286Y-134014286D01*
X136392857Y-133871429D01*
X136321429Y-133800000D01*
X136178571Y-133728571D01*
X135892857Y-133728571D01*
X135750000Y-133800000D01*
X113303571Y-126785715D02*
X113303571Y-125928572D01*
X113303571Y-126357144D02*
X111803571Y-126357144D01*
X112017857Y-126214287D01*
X112160714Y-126071429D01*
X112232143Y-125928572D01*
X111946429Y-127357143D02*
X111875000Y-127428572D01*
X111803571Y-127571429D01*
X111803571Y-127928572D01*
X111875000Y-128071429D01*
X111946429Y-128142858D01*
X112089286Y-128214286D01*
X112232143Y-128214286D01*
X112446429Y-128142858D01*
X113303571Y-127285715D01*
X113303571Y-128214286D01*
X114353571Y-124785715D02*
X115853571Y-125285715D01*
X114353571Y-125785715D01*
X115782143Y-126928572D02*
X115853571Y-126785715D01*
X115853571Y-126500001D01*
X115782143Y-126357143D01*
X115710714Y-126285715D01*
X115567857Y-126214286D01*
X115139286Y-126214286D01*
X114996429Y-126285715D01*
X114925000Y-126357143D01*
X114853571Y-126500001D01*
X114853571Y-126785715D01*
X114925000Y-126928572D01*
X115782143Y-128214286D02*
X115853571Y-128071429D01*
X115853571Y-127785715D01*
X115782143Y-127642857D01*
X115710714Y-127571429D01*
X115567857Y-127500000D01*
X115139286Y-127500000D01*
X114996429Y-127571429D01*
X114925000Y-127642857D01*
X114853571Y-127785715D01*
X114853571Y-128071429D01*
X114925000Y-128214286D01*
X118403571Y-124785715D02*
X118403571Y-123928572D01*
X118403571Y-124357144D02*
X116903571Y-124357144D01*
X117117857Y-124214287D01*
X117260714Y-124071429D01*
X117332143Y-123928572D01*
X116903571Y-125714286D02*
X116903571Y-125857143D01*
X116975000Y-126000000D01*
X117046429Y-126071429D01*
X117189286Y-126142858D01*
X117475000Y-126214286D01*
X117832143Y-126214286D01*
X118117857Y-126142858D01*
X118260714Y-126071429D01*
X118332143Y-126000000D01*
X118403571Y-125857143D01*
X118403571Y-125714286D01*
X118332143Y-125571429D01*
X118260714Y-125500000D01*
X118117857Y-125428572D01*
X117832143Y-125357143D01*
X117475000Y-125357143D01*
X117189286Y-125428572D01*
X117046429Y-125500000D01*
X116975000Y-125571429D01*
X116903571Y-125714286D01*
X118403571Y-126857143D02*
X117403571Y-126857143D01*
X117546429Y-126857143D02*
X117475000Y-126928571D01*
X117403571Y-127071429D01*
X117403571Y-127285714D01*
X117475000Y-127428571D01*
X117617857Y-127500000D01*
X118403571Y-127500000D01*
X117617857Y-127500000D02*
X117475000Y-127571429D01*
X117403571Y-127714286D01*
X117403571Y-127928571D01*
X117475000Y-128071429D01*
X117617857Y-128142857D01*
X118403571Y-128142857D01*
X120953571Y-124785715D02*
X120953571Y-123928572D01*
X120953571Y-124357144D02*
X119453571Y-124357144D01*
X119667857Y-124214287D01*
X119810714Y-124071429D01*
X119882143Y-123928572D01*
X119453571Y-126142858D02*
X119453571Y-125428572D01*
X120167857Y-125357143D01*
X120096429Y-125428572D01*
X120025000Y-125571429D01*
X120025000Y-125928572D01*
X120096429Y-126071429D01*
X120167857Y-126142858D01*
X120310714Y-126214286D01*
X120667857Y-126214286D01*
X120810714Y-126142858D01*
X120882143Y-126071429D01*
X120953571Y-125928572D01*
X120953571Y-125571429D01*
X120882143Y-125428572D01*
X120810714Y-125357143D01*
X120953571Y-126857143D02*
X119953571Y-126857143D01*
X120096429Y-126857143D02*
X120025000Y-126928571D01*
X119953571Y-127071429D01*
X119953571Y-127285714D01*
X120025000Y-127428571D01*
X120167857Y-127500000D01*
X120953571Y-127500000D01*
X120167857Y-127500000D02*
X120025000Y-127571429D01*
X119953571Y-127714286D01*
X119953571Y-127928571D01*
X120025000Y-128071429D01*
X120167857Y-128142857D01*
X120953571Y-128142857D01*
X122146429Y-123928572D02*
X122075000Y-124000001D01*
X122003571Y-124142858D01*
X122003571Y-124500001D01*
X122075000Y-124642858D01*
X122146429Y-124714287D01*
X122289286Y-124785715D01*
X122432143Y-124785715D01*
X122646429Y-124714287D01*
X123503571Y-123857144D01*
X123503571Y-124785715D01*
X122003571Y-125714286D02*
X122003571Y-125857143D01*
X122075000Y-126000000D01*
X122146429Y-126071429D01*
X122289286Y-126142858D01*
X122575000Y-126214286D01*
X122932143Y-126214286D01*
X123217857Y-126142858D01*
X123360714Y-126071429D01*
X123432143Y-126000000D01*
X123503571Y-125857143D01*
X123503571Y-125714286D01*
X123432143Y-125571429D01*
X123360714Y-125500000D01*
X123217857Y-125428572D01*
X122932143Y-125357143D01*
X122575000Y-125357143D01*
X122289286Y-125428572D01*
X122146429Y-125500000D01*
X122075000Y-125571429D01*
X122003571Y-125714286D01*
X123503571Y-126857143D02*
X122503571Y-126857143D01*
X122646429Y-126857143D02*
X122575000Y-126928571D01*
X122503571Y-127071429D01*
X122503571Y-127285714D01*
X122575000Y-127428571D01*
X122717857Y-127500000D01*
X123503571Y-127500000D01*
X122717857Y-127500000D02*
X122575000Y-127571429D01*
X122503571Y-127714286D01*
X122503571Y-127928571D01*
X122575000Y-128071429D01*
X122717857Y-128142857D01*
X123503571Y-128142857D01*
X125053571Y-124642858D02*
X126053571Y-124642858D01*
X124482143Y-124285715D02*
X125553571Y-123928572D01*
X125553571Y-124857144D01*
X124553571Y-125714286D02*
X124553571Y-125857143D01*
X124625000Y-126000000D01*
X124696429Y-126071429D01*
X124839286Y-126142858D01*
X125125000Y-126214286D01*
X125482143Y-126214286D01*
X125767857Y-126142858D01*
X125910714Y-126071429D01*
X125982143Y-126000000D01*
X126053571Y-125857143D01*
X126053571Y-125714286D01*
X125982143Y-125571429D01*
X125910714Y-125500000D01*
X125767857Y-125428572D01*
X125482143Y-125357143D01*
X125125000Y-125357143D01*
X124839286Y-125428572D01*
X124696429Y-125500000D01*
X124625000Y-125571429D01*
X124553571Y-125714286D01*
X126053571Y-126857143D02*
X125053571Y-126857143D01*
X125196429Y-126857143D02*
X125125000Y-126928571D01*
X125053571Y-127071429D01*
X125053571Y-127285714D01*
X125125000Y-127428571D01*
X125267857Y-127500000D01*
X126053571Y-127500000D01*
X125267857Y-127500000D02*
X125125000Y-127571429D01*
X125053571Y-127714286D01*
X125053571Y-127928571D01*
X125125000Y-128071429D01*
X125267857Y-128142857D01*
X126053571Y-128142857D01*
X114400000Y-134892857D02*
X114328571Y-134750000D01*
X114328571Y-134535714D01*
X114400000Y-134321429D01*
X114542857Y-134178571D01*
X114685714Y-134107143D01*
X114971429Y-134035714D01*
X115185714Y-134035714D01*
X115471429Y-134107143D01*
X115614286Y-134178571D01*
X115757143Y-134321429D01*
X115828571Y-134535714D01*
X115828571Y-134678571D01*
X115757143Y-134892857D01*
X115685714Y-134964286D01*
X115185714Y-134964286D01*
X115185714Y-134678571D01*
X114828571Y-135607143D02*
X115828571Y-135607143D01*
X114971429Y-135607143D02*
X114900000Y-135678571D01*
X114828571Y-135821429D01*
X114828571Y-136035714D01*
X114900000Y-136178571D01*
X115042857Y-136250000D01*
X115828571Y-136250000D01*
X115828571Y-137607143D02*
X114328571Y-137607143D01*
X115757143Y-137607143D02*
X115828571Y-137464286D01*
X115828571Y-137178572D01*
X115757143Y-137035714D01*
X115685714Y-136964286D01*
X115542857Y-136892857D01*
X115114286Y-136892857D01*
X114971429Y-136964286D01*
X114900000Y-137035714D01*
X114828571Y-137178572D01*
X114828571Y-137464286D01*
X114900000Y-137607143D01*
X116878571Y-134750000D02*
X116878571Y-134464286D01*
X116950000Y-134321429D01*
X117021429Y-134250000D01*
X117235714Y-134107143D01*
X117521429Y-134035714D01*
X118092857Y-134035714D01*
X118235714Y-134107143D01*
X118307143Y-134178571D01*
X118378571Y-134321429D01*
X118378571Y-134607143D01*
X118307143Y-134750000D01*
X118235714Y-134821429D01*
X118092857Y-134892857D01*
X117735714Y-134892857D01*
X117592857Y-134821429D01*
X117521429Y-134750000D01*
X117450000Y-134607143D01*
X117450000Y-134321429D01*
X117521429Y-134178571D01*
X117592857Y-134107143D01*
X117735714Y-134035714D01*
X118378571Y-135535714D02*
X117378571Y-135535714D01*
X117521429Y-135535714D02*
X117450000Y-135607142D01*
X117378571Y-135750000D01*
X117378571Y-135964285D01*
X117450000Y-136107142D01*
X117592857Y-136178571D01*
X118378571Y-136178571D01*
X117592857Y-136178571D02*
X117450000Y-136250000D01*
X117378571Y-136392857D01*
X117378571Y-136607142D01*
X117450000Y-136750000D01*
X117592857Y-136821428D01*
X118378571Y-136821428D01*
X117807143Y-137535714D02*
X117807143Y-138678571D01*
X117592857Y-139892857D02*
X117664286Y-140107143D01*
X117735714Y-140178571D01*
X117878571Y-140250000D01*
X118092857Y-140250000D01*
X118235714Y-140178571D01*
X118307143Y-140107143D01*
X118378571Y-139964285D01*
X118378571Y-139392857D01*
X116878571Y-139392857D01*
X116878571Y-139892857D01*
X116950000Y-140035714D01*
X117021429Y-140107143D01*
X117164286Y-140178571D01*
X117307143Y-140178571D01*
X117450000Y-140107143D01*
X117521429Y-140035714D01*
X117592857Y-139892857D01*
X117592857Y-139392857D01*
X118378571Y-140892857D02*
X116878571Y-140892857D01*
X116878571Y-141464285D01*
X116950000Y-141607143D01*
X117021429Y-141678571D01*
X117164286Y-141750000D01*
X117378571Y-141750000D01*
X117521429Y-141678571D01*
X117592857Y-141607143D01*
X117664286Y-141464285D01*
X117664286Y-140892857D01*
X119428571Y-133892857D02*
X119428571Y-134750000D01*
X120928571Y-134321429D02*
X119428571Y-134321429D01*
X119428571Y-135107143D02*
X120928571Y-136107143D01*
X119428571Y-136107143D02*
X120928571Y-135107143D01*
X121071429Y-136321428D02*
X121071429Y-137464285D01*
X120928571Y-138678571D02*
X120214286Y-138178571D01*
X120928571Y-137821428D02*
X119428571Y-137821428D01*
X119428571Y-138392856D01*
X119500000Y-138535714D01*
X119571429Y-138607142D01*
X119714286Y-138678571D01*
X119928571Y-138678571D01*
X120071429Y-138607142D01*
X120142857Y-138535714D01*
X120214286Y-138392856D01*
X120214286Y-137821428D01*
X120928571Y-139535714D02*
X120857143Y-139392856D01*
X120714286Y-139321428D01*
X119428571Y-139321428D01*
X119928571Y-139964285D02*
X120928571Y-140321428D01*
X119928571Y-140678570D02*
X120928571Y-140321428D01*
X121285714Y-140178570D01*
X121357143Y-140107142D01*
X121428571Y-139964285D01*
X123478571Y-134892857D02*
X123478571Y-134035714D01*
X123478571Y-134464286D02*
X121978571Y-134464286D01*
X122192857Y-134321429D01*
X122335714Y-134178571D01*
X122407143Y-134035714D01*
X121978571Y-136178571D02*
X121978571Y-135892857D01*
X122050000Y-135750000D01*
X122121429Y-135678571D01*
X122335714Y-135535714D01*
X122621429Y-135464285D01*
X123192857Y-135464285D01*
X123335714Y-135535714D01*
X123407143Y-135607142D01*
X123478571Y-135750000D01*
X123478571Y-136035714D01*
X123407143Y-136178571D01*
X123335714Y-136250000D01*
X123192857Y-136321428D01*
X122835714Y-136321428D01*
X122692857Y-136250000D01*
X122621429Y-136178571D01*
X122550000Y-136035714D01*
X122550000Y-135750000D01*
X122621429Y-135607142D01*
X122692857Y-135535714D01*
X122835714Y-135464285D01*
X121978571Y-137249999D02*
X121978571Y-137392856D01*
X122050000Y-137535713D01*
X122121429Y-137607142D01*
X122264286Y-137678571D01*
X122550000Y-137749999D01*
X122907143Y-137749999D01*
X123192857Y-137678571D01*
X123335714Y-137607142D01*
X123407143Y-137535713D01*
X123478571Y-137392856D01*
X123478571Y-137249999D01*
X123407143Y-137107142D01*
X123335714Y-137035713D01*
X123192857Y-136964285D01*
X122907143Y-136892856D01*
X122550000Y-136892856D01*
X122264286Y-136964285D01*
X122121429Y-137035713D01*
X122050000Y-137107142D01*
X121978571Y-137249999D01*
X123478571Y-138392856D02*
X122478571Y-138392856D01*
X122621429Y-138392856D02*
X122550000Y-138464284D01*
X122478571Y-138607142D01*
X122478571Y-138821427D01*
X122550000Y-138964284D01*
X122692857Y-139035713D01*
X123478571Y-139035713D01*
X122692857Y-139035713D02*
X122550000Y-139107142D01*
X122478571Y-139249999D01*
X122478571Y-139464284D01*
X122550000Y-139607142D01*
X122692857Y-139678570D01*
X123478571Y-139678570D01*
X125171429Y-134321429D02*
X125100000Y-134178571D01*
X125028571Y-134107143D01*
X124885714Y-134035714D01*
X124814286Y-134035714D01*
X124671429Y-134107143D01*
X124600000Y-134178571D01*
X124528571Y-134321429D01*
X124528571Y-134607143D01*
X124600000Y-134750000D01*
X124671429Y-134821429D01*
X124814286Y-134892857D01*
X124885714Y-134892857D01*
X125028571Y-134821429D01*
X125100000Y-134750000D01*
X125171429Y-134607143D01*
X125171429Y-134321429D01*
X125242857Y-134178571D01*
X125314286Y-134107143D01*
X125457143Y-134035714D01*
X125742857Y-134035714D01*
X125885714Y-134107143D01*
X125957143Y-134178571D01*
X126028571Y-134321429D01*
X126028571Y-134607143D01*
X125957143Y-134750000D01*
X125885714Y-134821429D01*
X125742857Y-134892857D01*
X125457143Y-134892857D01*
X125314286Y-134821429D01*
X125242857Y-134750000D01*
X125171429Y-134607143D01*
X124528571Y-135821428D02*
X124528571Y-135964285D01*
X124600000Y-136107142D01*
X124671429Y-136178571D01*
X124814286Y-136250000D01*
X125100000Y-136321428D01*
X125457143Y-136321428D01*
X125742857Y-136250000D01*
X125885714Y-136178571D01*
X125957143Y-136107142D01*
X126028571Y-135964285D01*
X126028571Y-135821428D01*
X125957143Y-135678571D01*
X125885714Y-135607142D01*
X125742857Y-135535714D01*
X125457143Y-135464285D01*
X125100000Y-135464285D01*
X124814286Y-135535714D01*
X124671429Y-135607142D01*
X124600000Y-135678571D01*
X124528571Y-135821428D01*
X126028571Y-136964285D02*
X125028571Y-136964285D01*
X125171429Y-136964285D02*
X125100000Y-137035713D01*
X125028571Y-137178571D01*
X125028571Y-137392856D01*
X125100000Y-137535713D01*
X125242857Y-137607142D01*
X126028571Y-137607142D01*
X125242857Y-137607142D02*
X125100000Y-137678571D01*
X125028571Y-137821428D01*
X125028571Y-138035713D01*
X125100000Y-138178571D01*
X125242857Y-138249999D01*
X126028571Y-138249999D01*
D12*
X129650000Y-122250000D02*
X129650000Y-121250000D01*
X131350000Y-121250000D02*
X131350000Y-122250000D01*
X83150000Y-49000000D02*
X83150000Y-48000000D01*
X84850000Y-48000000D02*
X84850000Y-49000000D01*
X76150000Y-61000000D02*
X76150000Y-60000000D01*
X77850000Y-60000000D02*
X77850000Y-61000000D01*
X74150000Y-72000000D02*
X74150000Y-71000000D01*
X75850000Y-71000000D02*
X75850000Y-72000000D01*
X74150000Y-83000000D02*
X74150000Y-82000000D01*
X75850000Y-82000000D02*
X75850000Y-83000000D01*
X74150000Y-94000000D02*
X74150000Y-93000000D01*
X75850000Y-93000000D02*
X75850000Y-94000000D01*
X74150000Y-105000000D02*
X74150000Y-104000000D01*
X75850000Y-104000000D02*
X75850000Y-105000000D01*
X84850000Y-53000000D02*
X84850000Y-54000000D01*
X83150000Y-54000000D02*
X83150000Y-53000000D01*
X128850000Y-65000000D02*
X128850000Y-66000000D01*
X127150000Y-66000000D02*
X127150000Y-65000000D01*
X75850000Y-76000000D02*
X75850000Y-77000000D01*
X74150000Y-77000000D02*
X74150000Y-76000000D01*
X75850000Y-87000000D02*
X75850000Y-88000000D01*
X74150000Y-88000000D02*
X74150000Y-87000000D01*
X75850000Y-98000000D02*
X75850000Y-99000000D01*
X74150000Y-99000000D02*
X74150000Y-98000000D01*
X75850000Y-109000000D02*
X75850000Y-110000000D01*
X74150000Y-110000000D02*
X74150000Y-109000000D01*
X126850000Y-48000000D02*
X126850000Y-49000000D01*
X125150000Y-49000000D02*
X125150000Y-48000000D01*
X128850000Y-60000000D02*
X128850000Y-61000000D01*
X127150000Y-61000000D02*
X127150000Y-60000000D01*
X131850000Y-71000000D02*
X131850000Y-72000000D01*
X130150000Y-72000000D02*
X130150000Y-71000000D01*
X130500000Y-80850000D02*
X129500000Y-80850000D01*
X129500000Y-79150000D02*
X130500000Y-79150000D01*
X130750000Y-91600000D02*
X129750000Y-91600000D01*
X129750000Y-89900000D02*
X130750000Y-89900000D01*
X131850000Y-104000000D02*
X131850000Y-105000000D01*
X130150000Y-105000000D02*
X130150000Y-104000000D01*
X126850000Y-53000000D02*
X126850000Y-54000000D01*
X125150000Y-54000000D02*
X125150000Y-53000000D01*
X77850000Y-65000000D02*
X77850000Y-66000000D01*
X76150000Y-66000000D02*
X76150000Y-65000000D01*
X131850000Y-76000000D02*
X131850000Y-77000000D01*
X130150000Y-77000000D02*
X130150000Y-76000000D01*
X131850000Y-87000000D02*
X131850000Y-88000000D01*
X130150000Y-88000000D02*
X130150000Y-87000000D01*
X131850000Y-98250000D02*
X131850000Y-99250000D01*
X130150000Y-99250000D02*
X130150000Y-98250000D01*
X131850000Y-109250000D02*
X131850000Y-110250000D01*
X130150000Y-110250000D02*
X130150000Y-109250000D01*
X82850000Y-128000000D02*
X82850000Y-129000000D01*
X81150000Y-129000000D02*
X81150000Y-128000000D01*
X87850000Y-128000000D02*
X87850000Y-129000000D01*
X86150000Y-129000000D02*
X86150000Y-128000000D01*
X86150000Y-124000000D02*
X86150000Y-123000000D01*
X87850000Y-123000000D02*
X87850000Y-124000000D01*
X125850000Y-113500000D02*
X125850000Y-114500000D01*
X124150000Y-114500000D02*
X124150000Y-113500000D01*
X114750000Y-117012000D02*
X116750000Y-117012000D01*
X116750000Y-120988000D02*
X114750000Y-120988000D01*
X129650000Y-115500000D02*
X129650000Y-114500000D01*
X131350000Y-114500000D02*
X131350000Y-115500000D01*
X86650000Y-129550000D02*
X82350000Y-129550000D01*
X82350000Y-129550000D02*
X82350000Y-123850000D01*
X86650000Y-129550000D02*
X86650000Y-123850000D01*
X125650000Y-54550000D02*
X121350000Y-54550000D01*
X121350000Y-54550000D02*
X121350000Y-48850000D01*
X125650000Y-54550000D02*
X125650000Y-48850000D01*
X88650000Y-54550000D02*
X84350000Y-54550000D01*
X84350000Y-54550000D02*
X84350000Y-48850000D01*
X88650000Y-54550000D02*
X88650000Y-48850000D01*
X81650000Y-66550000D02*
X77350000Y-66550000D01*
X77350000Y-66550000D02*
X77350000Y-60850000D01*
X81650000Y-66550000D02*
X81650000Y-60850000D01*
X79650000Y-77550000D02*
X75350000Y-77550000D01*
X75350000Y-77550000D02*
X75350000Y-71850000D01*
X79650000Y-77550000D02*
X79650000Y-71850000D01*
X79650000Y-88550000D02*
X75350000Y-88550000D01*
X75350000Y-88550000D02*
X75350000Y-82850000D01*
X79650000Y-88550000D02*
X79650000Y-82850000D01*
X79650000Y-99550000D02*
X75350000Y-99550000D01*
X75350000Y-99550000D02*
X75350000Y-93850000D01*
X79650000Y-99550000D02*
X79650000Y-93850000D01*
X79650000Y-110550000D02*
X75350000Y-110550000D01*
X75350000Y-110550000D02*
X75350000Y-104850000D01*
X79650000Y-110550000D02*
X79650000Y-104850000D01*
X129650000Y-122550000D02*
X125350000Y-122550000D01*
X125350000Y-122550000D02*
X125350000Y-116850000D01*
X129650000Y-122550000D02*
X129650000Y-116850000D01*
X132650000Y-66550000D02*
X128350000Y-66550000D01*
X128350000Y-66550000D02*
X128350000Y-60850000D01*
X132650000Y-66550000D02*
X132650000Y-60850000D01*
X135650000Y-88550000D02*
X131350000Y-88550000D01*
X131350000Y-88550000D02*
X131350000Y-82850000D01*
X135650000Y-88550000D02*
X135650000Y-82850000D01*
X135650000Y-99550000D02*
X131350000Y-99550000D01*
X131350000Y-99550000D02*
X131350000Y-93850000D01*
X135650000Y-99550000D02*
X135650000Y-93850000D01*
X135650000Y-110550000D02*
X131350000Y-110550000D01*
X131350000Y-110550000D02*
X131350000Y-104850000D01*
X135650000Y-110550000D02*
X135650000Y-104850000D01*
X135650000Y-122550000D02*
X131350000Y-122550000D01*
X131350000Y-122550000D02*
X131350000Y-116850000D01*
X135650000Y-122550000D02*
X135650000Y-116850000D01*
X135650000Y-77550000D02*
X131350000Y-77550000D01*
X131350000Y-77550000D02*
X131350000Y-71850000D01*
X135650000Y-77550000D02*
X135650000Y-71850000D01*
X91350000Y-46120000D02*
X90150000Y-46120000D01*
X90150000Y-47880000D02*
X91350000Y-47880000D01*
X84850000Y-58120000D02*
X83650000Y-58120000D01*
X83650000Y-59880000D02*
X84850000Y-59880000D01*
X82350000Y-69620000D02*
X81150000Y-69620000D01*
X81150000Y-71380000D02*
X82350000Y-71380000D01*
X82350000Y-80370000D02*
X81150000Y-80370000D01*
X81150000Y-82130000D02*
X82350000Y-82130000D01*
X82600000Y-91120000D02*
X81400000Y-91120000D01*
X81400000Y-92880000D02*
X82600000Y-92880000D01*
X83100000Y-102370000D02*
X81900000Y-102370000D01*
X81900000Y-104130000D02*
X83100000Y-104130000D01*
X125080000Y-119600000D02*
X125080000Y-118400000D01*
X123320000Y-118400000D02*
X123320000Y-119600000D01*
X129150000Y-52380000D02*
X130350000Y-52380000D01*
X130350000Y-50620000D02*
X129150000Y-50620000D01*
X134900000Y-62880000D02*
X136100000Y-62880000D01*
X136100000Y-61120000D02*
X134900000Y-61120000D01*
X137880000Y-72100000D02*
X137880000Y-70900000D01*
X136120000Y-70900000D02*
X136120000Y-72100000D01*
X136120000Y-81900000D02*
X136120000Y-83100000D01*
X137880000Y-83100000D02*
X137880000Y-81900000D01*
X136120000Y-92900000D02*
X136120000Y-94100000D01*
X137880000Y-94100000D02*
X137880000Y-92900000D01*
X136120000Y-103900000D02*
X136120000Y-105100000D01*
X137880000Y-105100000D02*
X137880000Y-103900000D01*
X136120000Y-115900000D02*
X136120000Y-117100000D01*
X137880000Y-117100000D02*
X137880000Y-115900000D01*
X89100000Y-118620000D02*
X87900000Y-118620000D01*
X87900000Y-120380000D02*
X89100000Y-120380000D01*
X66500000Y-86988000D02*
X64500000Y-86988000D01*
X64500000Y-83012000D02*
X66500000Y-83012000D01*
X87750000Y-90488000D02*
X85750000Y-90488000D01*
X85750000Y-86512000D02*
X87750000Y-86512000D01*
X70200000Y-139212000D02*
X72200000Y-139212000D01*
X72200000Y-143188000D02*
X70200000Y-143188000D01*
X92500000Y-83262000D02*
X94500000Y-83262000D01*
X94500000Y-87238000D02*
X92500000Y-87238000D01*
X75500000Y-52988000D02*
X73500000Y-52988000D01*
X73500000Y-49012000D02*
X75500000Y-49012000D01*
X68500000Y-64988000D02*
X66500000Y-64988000D01*
X66500000Y-61012000D02*
X68500000Y-61012000D01*
X66500000Y-75988000D02*
X64500000Y-75988000D01*
X64500000Y-72012000D02*
X66500000Y-72012000D01*
X66500000Y-97988000D02*
X64500000Y-97988000D01*
X64500000Y-94012000D02*
X66500000Y-94012000D01*
X66500000Y-108988000D02*
X64500000Y-108988000D01*
X64500000Y-105012000D02*
X66500000Y-105012000D01*
X76600000Y-131412000D02*
X78600000Y-131412000D01*
X78600000Y-135388000D02*
X76600000Y-135388000D01*
X98500000Y-56488000D02*
X96500000Y-56488000D01*
X96500000Y-52512000D02*
X98500000Y-52512000D01*
X90250000Y-68488000D02*
X88250000Y-68488000D01*
X88250000Y-64512000D02*
X90250000Y-64512000D01*
X87500000Y-79488000D02*
X85500000Y-79488000D01*
X85500000Y-75512000D02*
X87500000Y-75512000D01*
X87750000Y-101738000D02*
X85750000Y-101738000D01*
X85750000Y-97762000D02*
X87750000Y-97762000D01*
X89750000Y-112738000D02*
X87750000Y-112738000D01*
X87750000Y-108762000D02*
X89750000Y-108762000D01*
X67750000Y-128262000D02*
X69750000Y-128262000D01*
X69750000Y-132238000D02*
X67750000Y-132238000D01*
X98500000Y-89988000D02*
X96500000Y-89988000D01*
X96500000Y-86012000D02*
X98500000Y-86012000D01*
X103500000Y-49012000D02*
X105500000Y-49012000D01*
X105500000Y-52988000D02*
X103500000Y-52988000D01*
X98000000Y-64262000D02*
X100000000Y-64262000D01*
X100000000Y-68238000D02*
X98000000Y-68238000D01*
X96250000Y-75262000D02*
X98250000Y-75262000D01*
X98250000Y-79238000D02*
X96250000Y-79238000D01*
X105250000Y-86738000D02*
X103250000Y-86738000D01*
X103250000Y-82762000D02*
X105250000Y-82762000D01*
X96250000Y-97012000D02*
X98250000Y-97012000D01*
X98250000Y-100988000D02*
X96250000Y-100988000D01*
X98000000Y-108262000D02*
X100000000Y-108262000D01*
X100000000Y-112238000D02*
X98000000Y-112238000D01*
X72000000Y-120762000D02*
X74000000Y-120762000D01*
X74000000Y-124738000D02*
X72000000Y-124738000D01*
X114500000Y-57488000D02*
X112500000Y-57488000D01*
X112500000Y-53512000D02*
X114500000Y-53512000D01*
X117750000Y-68988000D02*
X115750000Y-68988000D01*
X115750000Y-65012000D02*
X117750000Y-65012000D01*
X120500000Y-79738000D02*
X118500000Y-79738000D01*
X118500000Y-75762000D02*
X120500000Y-75762000D01*
X114988000Y-86250000D02*
X114988000Y-88250000D01*
X111012000Y-88250000D02*
X111012000Y-86250000D01*
X120750000Y-101588000D02*
X118750000Y-101588000D01*
X118750000Y-97612000D02*
X120750000Y-97612000D01*
X117800000Y-112788000D02*
X115800000Y-112788000D01*
X115800000Y-108812000D02*
X117800000Y-108812000D01*
X62750000Y-117762000D02*
X64750000Y-117762000D01*
X64750000Y-121738000D02*
X62750000Y-121738000D01*
X120988000Y-53000000D02*
X120988000Y-55000000D01*
X117012000Y-55000000D02*
X117012000Y-53000000D01*
X122500000Y-61512000D02*
X124500000Y-61512000D01*
X124500000Y-65488000D02*
X122500000Y-65488000D01*
X125500000Y-72012000D02*
X127500000Y-72012000D01*
X127500000Y-75988000D02*
X125500000Y-75988000D01*
X125500000Y-94512000D02*
X127500000Y-94512000D01*
X127500000Y-98488000D02*
X125500000Y-98488000D01*
X122500000Y-105512000D02*
X124500000Y-105512000D01*
X124500000Y-109488000D02*
X122500000Y-109488000D01*
X120400000Y-90588000D02*
X118400000Y-90588000D01*
X118400000Y-86612000D02*
X120400000Y-86612000D01*
X125500000Y-83512000D02*
X127500000Y-83512000D01*
X127500000Y-87488000D02*
X125500000Y-87488000D01*
X70000000Y-116488000D02*
X68000000Y-116488000D01*
X68000000Y-112512000D02*
X70000000Y-112512000D01*
D13*
X130757143Y-124957143D02*
X130804762Y-124909524D01*
X130852381Y-124766667D01*
X130852381Y-124671429D01*
X130804762Y-124528571D01*
X130709524Y-124433333D01*
X130614286Y-124385714D01*
X130423810Y-124338095D01*
X130280952Y-124338095D01*
X130090476Y-124385714D01*
X129995238Y-124433333D01*
X129900000Y-124528571D01*
X129852381Y-124671429D01*
X129852381Y-124766667D01*
X129900000Y-124909524D01*
X129947619Y-124957143D01*
X129852381Y-125814286D02*
X129852381Y-125623809D01*
X129900000Y-125528571D01*
X129947619Y-125480952D01*
X130090476Y-125385714D01*
X130280952Y-125338095D01*
X130661905Y-125338095D01*
X130757143Y-125385714D01*
X130804762Y-125433333D01*
X130852381Y-125528571D01*
X130852381Y-125719048D01*
X130804762Y-125814286D01*
X130757143Y-125861905D01*
X130661905Y-125909524D01*
X130423810Y-125909524D01*
X130328571Y-125861905D01*
X130280952Y-125814286D01*
X130233333Y-125719048D01*
X130233333Y-125528571D01*
X130280952Y-125433333D01*
X130328571Y-125385714D01*
X130423810Y-125338095D01*
X129852381Y-126766667D02*
X129852381Y-126576190D01*
X129900000Y-126480952D01*
X129947619Y-126433333D01*
X130090476Y-126338095D01*
X130280952Y-126290476D01*
X130661905Y-126290476D01*
X130757143Y-126338095D01*
X130804762Y-126385714D01*
X130852381Y-126480952D01*
X130852381Y-126671429D01*
X130804762Y-126766667D01*
X130757143Y-126814286D01*
X130661905Y-126861905D01*
X130423810Y-126861905D01*
X130328571Y-126814286D01*
X130280952Y-126766667D01*
X130233333Y-126671429D01*
X130233333Y-126480952D01*
X130280952Y-126385714D01*
X130328571Y-126338095D01*
X130423810Y-126290476D01*
X82607143Y-48333334D02*
X82654762Y-48285715D01*
X82702381Y-48142858D01*
X82702381Y-48047620D01*
X82654762Y-47904762D01*
X82559524Y-47809524D01*
X82464286Y-47761905D01*
X82273810Y-47714286D01*
X82130952Y-47714286D01*
X81940476Y-47761905D01*
X81845238Y-47809524D01*
X81750000Y-47904762D01*
X81702381Y-48047620D01*
X81702381Y-48142858D01*
X81750000Y-48285715D01*
X81797619Y-48333334D01*
X82702381Y-49285715D02*
X82702381Y-48714286D01*
X82702381Y-49000000D02*
X81702381Y-49000000D01*
X81845238Y-48904762D01*
X81940476Y-48809524D01*
X81988095Y-48714286D01*
X75607143Y-60333334D02*
X75654762Y-60285715D01*
X75702381Y-60142858D01*
X75702381Y-60047620D01*
X75654762Y-59904762D01*
X75559524Y-59809524D01*
X75464286Y-59761905D01*
X75273810Y-59714286D01*
X75130952Y-59714286D01*
X74940476Y-59761905D01*
X74845238Y-59809524D01*
X74750000Y-59904762D01*
X74702381Y-60047620D01*
X74702381Y-60142858D01*
X74750000Y-60285715D01*
X74797619Y-60333334D01*
X74797619Y-60714286D02*
X74750000Y-60761905D01*
X74702381Y-60857143D01*
X74702381Y-61095239D01*
X74750000Y-61190477D01*
X74797619Y-61238096D01*
X74892857Y-61285715D01*
X74988095Y-61285715D01*
X75130952Y-61238096D01*
X75702381Y-60666667D01*
X75702381Y-61285715D01*
X73607143Y-71333334D02*
X73654762Y-71285715D01*
X73702381Y-71142858D01*
X73702381Y-71047620D01*
X73654762Y-70904762D01*
X73559524Y-70809524D01*
X73464286Y-70761905D01*
X73273810Y-70714286D01*
X73130952Y-70714286D01*
X72940476Y-70761905D01*
X72845238Y-70809524D01*
X72750000Y-70904762D01*
X72702381Y-71047620D01*
X72702381Y-71142858D01*
X72750000Y-71285715D01*
X72797619Y-71333334D01*
X72702381Y-71666667D02*
X72702381Y-72285715D01*
X73083333Y-71952381D01*
X73083333Y-72095239D01*
X73130952Y-72190477D01*
X73178571Y-72238096D01*
X73273810Y-72285715D01*
X73511905Y-72285715D01*
X73607143Y-72238096D01*
X73654762Y-72190477D01*
X73702381Y-72095239D01*
X73702381Y-71809524D01*
X73654762Y-71714286D01*
X73607143Y-71666667D01*
X73607143Y-82333334D02*
X73654762Y-82285715D01*
X73702381Y-82142858D01*
X73702381Y-82047620D01*
X73654762Y-81904762D01*
X73559524Y-81809524D01*
X73464286Y-81761905D01*
X73273810Y-81714286D01*
X73130952Y-81714286D01*
X72940476Y-81761905D01*
X72845238Y-81809524D01*
X72750000Y-81904762D01*
X72702381Y-82047620D01*
X72702381Y-82142858D01*
X72750000Y-82285715D01*
X72797619Y-82333334D01*
X73035714Y-83190477D02*
X73702381Y-83190477D01*
X72654762Y-82952381D02*
X73369048Y-82714286D01*
X73369048Y-83333334D01*
X73607143Y-93333334D02*
X73654762Y-93285715D01*
X73702381Y-93142858D01*
X73702381Y-93047620D01*
X73654762Y-92904762D01*
X73559524Y-92809524D01*
X73464286Y-92761905D01*
X73273810Y-92714286D01*
X73130952Y-92714286D01*
X72940476Y-92761905D01*
X72845238Y-92809524D01*
X72750000Y-92904762D01*
X72702381Y-93047620D01*
X72702381Y-93142858D01*
X72750000Y-93285715D01*
X72797619Y-93333334D01*
X72702381Y-94238096D02*
X72702381Y-93761905D01*
X73178571Y-93714286D01*
X73130952Y-93761905D01*
X73083333Y-93857143D01*
X73083333Y-94095239D01*
X73130952Y-94190477D01*
X73178571Y-94238096D01*
X73273810Y-94285715D01*
X73511905Y-94285715D01*
X73607143Y-94238096D01*
X73654762Y-94190477D01*
X73702381Y-94095239D01*
X73702381Y-93857143D01*
X73654762Y-93761905D01*
X73607143Y-93714286D01*
X73607143Y-104333334D02*
X73654762Y-104285715D01*
X73702381Y-104142858D01*
X73702381Y-104047620D01*
X73654762Y-103904762D01*
X73559524Y-103809524D01*
X73464286Y-103761905D01*
X73273810Y-103714286D01*
X73130952Y-103714286D01*
X72940476Y-103761905D01*
X72845238Y-103809524D01*
X72750000Y-103904762D01*
X72702381Y-104047620D01*
X72702381Y-104142858D01*
X72750000Y-104285715D01*
X72797619Y-104333334D01*
X72702381Y-105190477D02*
X72702381Y-105000000D01*
X72750000Y-104904762D01*
X72797619Y-104857143D01*
X72940476Y-104761905D01*
X73130952Y-104714286D01*
X73511905Y-104714286D01*
X73607143Y-104761905D01*
X73654762Y-104809524D01*
X73702381Y-104904762D01*
X73702381Y-105095239D01*
X73654762Y-105190477D01*
X73607143Y-105238096D01*
X73511905Y-105285715D01*
X73273810Y-105285715D01*
X73178571Y-105238096D01*
X73130952Y-105190477D01*
X73083333Y-105095239D01*
X73083333Y-104904762D01*
X73130952Y-104809524D01*
X73178571Y-104761905D01*
X73273810Y-104714286D01*
X82607143Y-53083334D02*
X82654762Y-53035715D01*
X82702381Y-52892858D01*
X82702381Y-52797620D01*
X82654762Y-52654762D01*
X82559524Y-52559524D01*
X82464286Y-52511905D01*
X82273810Y-52464286D01*
X82130952Y-52464286D01*
X81940476Y-52511905D01*
X81845238Y-52559524D01*
X81750000Y-52654762D01*
X81702381Y-52797620D01*
X81702381Y-52892858D01*
X81750000Y-53035715D01*
X81797619Y-53083334D01*
X82130952Y-53654762D02*
X82083333Y-53559524D01*
X82035714Y-53511905D01*
X81940476Y-53464286D01*
X81892857Y-53464286D01*
X81797619Y-53511905D01*
X81750000Y-53559524D01*
X81702381Y-53654762D01*
X81702381Y-53845239D01*
X81750000Y-53940477D01*
X81797619Y-53988096D01*
X81892857Y-54035715D01*
X81940476Y-54035715D01*
X82035714Y-53988096D01*
X82083333Y-53940477D01*
X82130952Y-53845239D01*
X82130952Y-53654762D01*
X82178571Y-53559524D01*
X82226190Y-53511905D01*
X82321429Y-53464286D01*
X82511905Y-53464286D01*
X82607143Y-53511905D01*
X82654762Y-53559524D01*
X82702381Y-53654762D01*
X82702381Y-53845239D01*
X82654762Y-53940477D01*
X82607143Y-53988096D01*
X82511905Y-54035715D01*
X82321429Y-54035715D01*
X82226190Y-53988096D01*
X82178571Y-53940477D01*
X82130952Y-53845239D01*
X126857143Y-66833334D02*
X126904762Y-66785715D01*
X126952381Y-66642858D01*
X126952381Y-66547620D01*
X126904762Y-66404762D01*
X126809524Y-66309524D01*
X126714286Y-66261905D01*
X126523810Y-66214286D01*
X126380952Y-66214286D01*
X126190476Y-66261905D01*
X126095238Y-66309524D01*
X126000000Y-66404762D01*
X125952381Y-66547620D01*
X125952381Y-66642858D01*
X126000000Y-66785715D01*
X126047619Y-66833334D01*
X126952381Y-67309524D02*
X126952381Y-67500000D01*
X126904762Y-67595239D01*
X126857143Y-67642858D01*
X126714286Y-67738096D01*
X126523810Y-67785715D01*
X126142857Y-67785715D01*
X126047619Y-67738096D01*
X126000000Y-67690477D01*
X125952381Y-67595239D01*
X125952381Y-67404762D01*
X126000000Y-67309524D01*
X126047619Y-67261905D01*
X126142857Y-67214286D01*
X126380952Y-67214286D01*
X126476190Y-67261905D01*
X126523810Y-67309524D01*
X126571429Y-67404762D01*
X126571429Y-67595239D01*
X126523810Y-67690477D01*
X126476190Y-67738096D01*
X126380952Y-67785715D01*
X73607143Y-75857143D02*
X73654762Y-75809524D01*
X73702381Y-75666667D01*
X73702381Y-75571429D01*
X73654762Y-75428571D01*
X73559524Y-75333333D01*
X73464286Y-75285714D01*
X73273810Y-75238095D01*
X73130952Y-75238095D01*
X72940476Y-75285714D01*
X72845238Y-75333333D01*
X72750000Y-75428571D01*
X72702381Y-75571429D01*
X72702381Y-75666667D01*
X72750000Y-75809524D01*
X72797619Y-75857143D01*
X73702381Y-76809524D02*
X73702381Y-76238095D01*
X73702381Y-76523809D02*
X72702381Y-76523809D01*
X72845238Y-76428571D01*
X72940476Y-76333333D01*
X72988095Y-76238095D01*
X72702381Y-77428571D02*
X72702381Y-77523810D01*
X72750000Y-77619048D01*
X72797619Y-77666667D01*
X72892857Y-77714286D01*
X73083333Y-77761905D01*
X73321429Y-77761905D01*
X73511905Y-77714286D01*
X73607143Y-77666667D01*
X73654762Y-77619048D01*
X73702381Y-77523810D01*
X73702381Y-77428571D01*
X73654762Y-77333333D01*
X73607143Y-77285714D01*
X73511905Y-77238095D01*
X73321429Y-77190476D01*
X73083333Y-77190476D01*
X72892857Y-77238095D01*
X72797619Y-77285714D01*
X72750000Y-77333333D01*
X72702381Y-77428571D01*
X73607143Y-86857143D02*
X73654762Y-86809524D01*
X73702381Y-86666667D01*
X73702381Y-86571429D01*
X73654762Y-86428571D01*
X73559524Y-86333333D01*
X73464286Y-86285714D01*
X73273810Y-86238095D01*
X73130952Y-86238095D01*
X72940476Y-86285714D01*
X72845238Y-86333333D01*
X72750000Y-86428571D01*
X72702381Y-86571429D01*
X72702381Y-86666667D01*
X72750000Y-86809524D01*
X72797619Y-86857143D01*
X73702381Y-87809524D02*
X73702381Y-87238095D01*
X73702381Y-87523809D02*
X72702381Y-87523809D01*
X72845238Y-87428571D01*
X72940476Y-87333333D01*
X72988095Y-87238095D01*
X72797619Y-88190476D02*
X72750000Y-88238095D01*
X72702381Y-88333333D01*
X72702381Y-88571429D01*
X72750000Y-88666667D01*
X72797619Y-88714286D01*
X72892857Y-88761905D01*
X72988095Y-88761905D01*
X73130952Y-88714286D01*
X73702381Y-88142857D01*
X73702381Y-88761905D01*
X73607143Y-97607143D02*
X73654762Y-97559524D01*
X73702381Y-97416667D01*
X73702381Y-97321429D01*
X73654762Y-97178571D01*
X73559524Y-97083333D01*
X73464286Y-97035714D01*
X73273810Y-96988095D01*
X73130952Y-96988095D01*
X72940476Y-97035714D01*
X72845238Y-97083333D01*
X72750000Y-97178571D01*
X72702381Y-97321429D01*
X72702381Y-97416667D01*
X72750000Y-97559524D01*
X72797619Y-97607143D01*
X73702381Y-98559524D02*
X73702381Y-97988095D01*
X73702381Y-98273809D02*
X72702381Y-98273809D01*
X72845238Y-98178571D01*
X72940476Y-98083333D01*
X72988095Y-97988095D01*
X72702381Y-98892857D02*
X72702381Y-99511905D01*
X73083333Y-99178571D01*
X73083333Y-99321429D01*
X73130952Y-99416667D01*
X73178571Y-99464286D01*
X73273810Y-99511905D01*
X73511905Y-99511905D01*
X73607143Y-99464286D01*
X73654762Y-99416667D01*
X73702381Y-99321429D01*
X73702381Y-99035714D01*
X73654762Y-98940476D01*
X73607143Y-98892857D01*
X73607143Y-108607143D02*
X73654762Y-108559524D01*
X73702381Y-108416667D01*
X73702381Y-108321429D01*
X73654762Y-108178571D01*
X73559524Y-108083333D01*
X73464286Y-108035714D01*
X73273810Y-107988095D01*
X73130952Y-107988095D01*
X72940476Y-108035714D01*
X72845238Y-108083333D01*
X72750000Y-108178571D01*
X72702381Y-108321429D01*
X72702381Y-108416667D01*
X72750000Y-108559524D01*
X72797619Y-108607143D01*
X73702381Y-109559524D02*
X73702381Y-108988095D01*
X73702381Y-109273809D02*
X72702381Y-109273809D01*
X72845238Y-109178571D01*
X72940476Y-109083333D01*
X72988095Y-108988095D01*
X73035714Y-110416667D02*
X73702381Y-110416667D01*
X72654762Y-110178571D02*
X73369048Y-109940476D01*
X73369048Y-110559524D01*
X128157143Y-48357143D02*
X128204762Y-48309524D01*
X128252381Y-48166667D01*
X128252381Y-48071429D01*
X128204762Y-47928571D01*
X128109524Y-47833333D01*
X128014286Y-47785714D01*
X127823810Y-47738095D01*
X127680952Y-47738095D01*
X127490476Y-47785714D01*
X127395238Y-47833333D01*
X127300000Y-47928571D01*
X127252381Y-48071429D01*
X127252381Y-48166667D01*
X127300000Y-48309524D01*
X127347619Y-48357143D01*
X127252381Y-49261905D02*
X127252381Y-48785714D01*
X127728571Y-48738095D01*
X127680952Y-48785714D01*
X127633333Y-48880952D01*
X127633333Y-49119048D01*
X127680952Y-49214286D01*
X127728571Y-49261905D01*
X127823810Y-49309524D01*
X128061905Y-49309524D01*
X128157143Y-49261905D01*
X128204762Y-49214286D01*
X128252381Y-49119048D01*
X128252381Y-48880952D01*
X128204762Y-48785714D01*
X128157143Y-48738095D01*
X127347619Y-49690476D02*
X127300000Y-49738095D01*
X127252381Y-49833333D01*
X127252381Y-50071429D01*
X127300000Y-50166667D01*
X127347619Y-50214286D01*
X127442857Y-50261905D01*
X127538095Y-50261905D01*
X127680952Y-50214286D01*
X128252381Y-49642857D01*
X128252381Y-50261905D01*
X126757143Y-58957143D02*
X126804762Y-58909524D01*
X126852381Y-58766667D01*
X126852381Y-58671429D01*
X126804762Y-58528571D01*
X126709524Y-58433333D01*
X126614286Y-58385714D01*
X126423810Y-58338095D01*
X126280952Y-58338095D01*
X126090476Y-58385714D01*
X125995238Y-58433333D01*
X125900000Y-58528571D01*
X125852381Y-58671429D01*
X125852381Y-58766667D01*
X125900000Y-58909524D01*
X125947619Y-58957143D01*
X125852381Y-59861905D02*
X125852381Y-59385714D01*
X126328571Y-59338095D01*
X126280952Y-59385714D01*
X126233333Y-59480952D01*
X126233333Y-59719048D01*
X126280952Y-59814286D01*
X126328571Y-59861905D01*
X126423810Y-59909524D01*
X126661905Y-59909524D01*
X126757143Y-59861905D01*
X126804762Y-59814286D01*
X126852381Y-59719048D01*
X126852381Y-59480952D01*
X126804762Y-59385714D01*
X126757143Y-59338095D01*
X125852381Y-60242857D02*
X125852381Y-60861905D01*
X126233333Y-60528571D01*
X126233333Y-60671429D01*
X126280952Y-60766667D01*
X126328571Y-60814286D01*
X126423810Y-60861905D01*
X126661905Y-60861905D01*
X126757143Y-60814286D01*
X126804762Y-60766667D01*
X126852381Y-60671429D01*
X126852381Y-60385714D01*
X126804762Y-60290476D01*
X126757143Y-60242857D01*
X129757143Y-69557143D02*
X129804762Y-69509524D01*
X129852381Y-69366667D01*
X129852381Y-69271429D01*
X129804762Y-69128571D01*
X129709524Y-69033333D01*
X129614286Y-68985714D01*
X129423810Y-68938095D01*
X129280952Y-68938095D01*
X129090476Y-68985714D01*
X128995238Y-69033333D01*
X128900000Y-69128571D01*
X128852381Y-69271429D01*
X128852381Y-69366667D01*
X128900000Y-69509524D01*
X128947619Y-69557143D01*
X128852381Y-70461905D02*
X128852381Y-69985714D01*
X129328571Y-69938095D01*
X129280952Y-69985714D01*
X129233333Y-70080952D01*
X129233333Y-70319048D01*
X129280952Y-70414286D01*
X129328571Y-70461905D01*
X129423810Y-70509524D01*
X129661905Y-70509524D01*
X129757143Y-70461905D01*
X129804762Y-70414286D01*
X129852381Y-70319048D01*
X129852381Y-70080952D01*
X129804762Y-69985714D01*
X129757143Y-69938095D01*
X129185714Y-71366667D02*
X129852381Y-71366667D01*
X128804762Y-71128571D02*
X129519048Y-70890476D01*
X129519048Y-71509524D01*
X130642857Y-81957143D02*
X130690476Y-82004762D01*
X130833333Y-82052381D01*
X130928571Y-82052381D01*
X131071429Y-82004762D01*
X131166667Y-81909524D01*
X131214286Y-81814286D01*
X131261905Y-81623810D01*
X131261905Y-81480952D01*
X131214286Y-81290476D01*
X131166667Y-81195238D01*
X131071429Y-81100000D01*
X130928571Y-81052381D01*
X130833333Y-81052381D01*
X130690476Y-81100000D01*
X130642857Y-81147619D01*
X129738095Y-81052381D02*
X130214286Y-81052381D01*
X130261905Y-81528571D01*
X130214286Y-81480952D01*
X130119048Y-81433333D01*
X129880952Y-81433333D01*
X129785714Y-81480952D01*
X129738095Y-81528571D01*
X129690476Y-81623810D01*
X129690476Y-81861905D01*
X129738095Y-81957143D01*
X129785714Y-82004762D01*
X129880952Y-82052381D01*
X130119048Y-82052381D01*
X130214286Y-82004762D01*
X130261905Y-81957143D01*
X128833333Y-81052381D02*
X129023810Y-81052381D01*
X129119048Y-81100000D01*
X129166667Y-81147619D01*
X129261905Y-81290476D01*
X129309524Y-81480952D01*
X129309524Y-81861905D01*
X129261905Y-81957143D01*
X129214286Y-82004762D01*
X129119048Y-82052381D01*
X128928571Y-82052381D01*
X128833333Y-82004762D01*
X128785714Y-81957143D01*
X128738095Y-81861905D01*
X128738095Y-81623810D01*
X128785714Y-81528571D01*
X128833333Y-81480952D01*
X128928571Y-81433333D01*
X129119048Y-81433333D01*
X129214286Y-81480952D01*
X129261905Y-81528571D01*
X129309524Y-81623810D01*
X131042857Y-92757143D02*
X131090476Y-92804762D01*
X131233333Y-92852381D01*
X131328571Y-92852381D01*
X131471429Y-92804762D01*
X131566667Y-92709524D01*
X131614286Y-92614286D01*
X131661905Y-92423810D01*
X131661905Y-92280952D01*
X131614286Y-92090476D01*
X131566667Y-91995238D01*
X131471429Y-91900000D01*
X131328571Y-91852381D01*
X131233333Y-91852381D01*
X131090476Y-91900000D01*
X131042857Y-91947619D01*
X130138095Y-91852381D02*
X130614286Y-91852381D01*
X130661905Y-92328571D01*
X130614286Y-92280952D01*
X130519048Y-92233333D01*
X130280952Y-92233333D01*
X130185714Y-92280952D01*
X130138095Y-92328571D01*
X130090476Y-92423810D01*
X130090476Y-92661905D01*
X130138095Y-92757143D01*
X130185714Y-92804762D01*
X130280952Y-92852381D01*
X130519048Y-92852381D01*
X130614286Y-92804762D01*
X130661905Y-92757143D01*
X129757143Y-91852381D02*
X129090476Y-91852381D01*
X129519048Y-92852381D01*
X129607143Y-103857143D02*
X129654762Y-103809524D01*
X129702381Y-103666667D01*
X129702381Y-103571429D01*
X129654762Y-103428571D01*
X129559524Y-103333333D01*
X129464286Y-103285714D01*
X129273810Y-103238095D01*
X129130952Y-103238095D01*
X128940476Y-103285714D01*
X128845238Y-103333333D01*
X128750000Y-103428571D01*
X128702381Y-103571429D01*
X128702381Y-103666667D01*
X128750000Y-103809524D01*
X128797619Y-103857143D01*
X128702381Y-104761905D02*
X128702381Y-104285714D01*
X129178571Y-104238095D01*
X129130952Y-104285714D01*
X129083333Y-104380952D01*
X129083333Y-104619048D01*
X129130952Y-104714286D01*
X129178571Y-104761905D01*
X129273810Y-104809524D01*
X129511905Y-104809524D01*
X129607143Y-104761905D01*
X129654762Y-104714286D01*
X129702381Y-104619048D01*
X129702381Y-104380952D01*
X129654762Y-104285714D01*
X129607143Y-104238095D01*
X129130952Y-105380952D02*
X129083333Y-105285714D01*
X129035714Y-105238095D01*
X128940476Y-105190476D01*
X128892857Y-105190476D01*
X128797619Y-105238095D01*
X128750000Y-105285714D01*
X128702381Y-105380952D01*
X128702381Y-105571429D01*
X128750000Y-105666667D01*
X128797619Y-105714286D01*
X128892857Y-105761905D01*
X128940476Y-105761905D01*
X129035714Y-105714286D01*
X129083333Y-105666667D01*
X129130952Y-105571429D01*
X129130952Y-105380952D01*
X129178571Y-105285714D01*
X129226190Y-105238095D01*
X129321429Y-105190476D01*
X129511905Y-105190476D01*
X129607143Y-105238095D01*
X129654762Y-105285714D01*
X129702381Y-105380952D01*
X129702381Y-105571429D01*
X129654762Y-105666667D01*
X129607143Y-105714286D01*
X129511905Y-105761905D01*
X129321429Y-105761905D01*
X129226190Y-105714286D01*
X129178571Y-105666667D01*
X129130952Y-105571429D01*
X128157143Y-53957143D02*
X128204762Y-53909524D01*
X128252381Y-53766667D01*
X128252381Y-53671429D01*
X128204762Y-53528571D01*
X128109524Y-53433333D01*
X128014286Y-53385714D01*
X127823810Y-53338095D01*
X127680952Y-53338095D01*
X127490476Y-53385714D01*
X127395238Y-53433333D01*
X127300000Y-53528571D01*
X127252381Y-53671429D01*
X127252381Y-53766667D01*
X127300000Y-53909524D01*
X127347619Y-53957143D01*
X127252381Y-54814286D02*
X127252381Y-54623809D01*
X127300000Y-54528571D01*
X127347619Y-54480952D01*
X127490476Y-54385714D01*
X127680952Y-54338095D01*
X128061905Y-54338095D01*
X128157143Y-54385714D01*
X128204762Y-54433333D01*
X128252381Y-54528571D01*
X128252381Y-54719048D01*
X128204762Y-54814286D01*
X128157143Y-54861905D01*
X128061905Y-54909524D01*
X127823810Y-54909524D01*
X127728571Y-54861905D01*
X127680952Y-54814286D01*
X127633333Y-54719048D01*
X127633333Y-54528571D01*
X127680952Y-54433333D01*
X127728571Y-54385714D01*
X127823810Y-54338095D01*
X127252381Y-55528571D02*
X127252381Y-55623810D01*
X127300000Y-55719048D01*
X127347619Y-55766667D01*
X127442857Y-55814286D01*
X127633333Y-55861905D01*
X127871429Y-55861905D01*
X128061905Y-55814286D01*
X128157143Y-55766667D01*
X128204762Y-55719048D01*
X128252381Y-55623810D01*
X128252381Y-55528571D01*
X128204762Y-55433333D01*
X128157143Y-55385714D01*
X128061905Y-55338095D01*
X127871429Y-55290476D01*
X127633333Y-55290476D01*
X127442857Y-55338095D01*
X127347619Y-55385714D01*
X127300000Y-55433333D01*
X127252381Y-55528571D01*
X75607143Y-64857143D02*
X75654762Y-64809524D01*
X75702381Y-64666667D01*
X75702381Y-64571429D01*
X75654762Y-64428571D01*
X75559524Y-64333333D01*
X75464286Y-64285714D01*
X75273810Y-64238095D01*
X75130952Y-64238095D01*
X74940476Y-64285714D01*
X74845238Y-64333333D01*
X74750000Y-64428571D01*
X74702381Y-64571429D01*
X74702381Y-64666667D01*
X74750000Y-64809524D01*
X74797619Y-64857143D01*
X74702381Y-65714286D02*
X74702381Y-65523809D01*
X74750000Y-65428571D01*
X74797619Y-65380952D01*
X74940476Y-65285714D01*
X75130952Y-65238095D01*
X75511905Y-65238095D01*
X75607143Y-65285714D01*
X75654762Y-65333333D01*
X75702381Y-65428571D01*
X75702381Y-65619048D01*
X75654762Y-65714286D01*
X75607143Y-65761905D01*
X75511905Y-65809524D01*
X75273810Y-65809524D01*
X75178571Y-65761905D01*
X75130952Y-65714286D01*
X75083333Y-65619048D01*
X75083333Y-65428571D01*
X75130952Y-65333333D01*
X75178571Y-65285714D01*
X75273810Y-65238095D01*
X75702381Y-66761905D02*
X75702381Y-66190476D01*
X75702381Y-66476190D02*
X74702381Y-66476190D01*
X74845238Y-66380952D01*
X74940476Y-66285714D01*
X74988095Y-66190476D01*
X129757143Y-76957143D02*
X129804762Y-76909524D01*
X129852381Y-76766667D01*
X129852381Y-76671429D01*
X129804762Y-76528571D01*
X129709524Y-76433333D01*
X129614286Y-76385714D01*
X129423810Y-76338095D01*
X129280952Y-76338095D01*
X129090476Y-76385714D01*
X128995238Y-76433333D01*
X128900000Y-76528571D01*
X128852381Y-76671429D01*
X128852381Y-76766667D01*
X128900000Y-76909524D01*
X128947619Y-76957143D01*
X128852381Y-77814286D02*
X128852381Y-77623809D01*
X128900000Y-77528571D01*
X128947619Y-77480952D01*
X129090476Y-77385714D01*
X129280952Y-77338095D01*
X129661905Y-77338095D01*
X129757143Y-77385714D01*
X129804762Y-77433333D01*
X129852381Y-77528571D01*
X129852381Y-77719048D01*
X129804762Y-77814286D01*
X129757143Y-77861905D01*
X129661905Y-77909524D01*
X129423810Y-77909524D01*
X129328571Y-77861905D01*
X129280952Y-77814286D01*
X129233333Y-77719048D01*
X129233333Y-77528571D01*
X129280952Y-77433333D01*
X129328571Y-77385714D01*
X129423810Y-77338095D01*
X128947619Y-78290476D02*
X128900000Y-78338095D01*
X128852381Y-78433333D01*
X128852381Y-78671429D01*
X128900000Y-78766667D01*
X128947619Y-78814286D01*
X129042857Y-78861905D01*
X129138095Y-78861905D01*
X129280952Y-78814286D01*
X129852381Y-78242857D01*
X129852381Y-78861905D01*
X131157143Y-82957143D02*
X131204762Y-82909524D01*
X131252381Y-82766667D01*
X131252381Y-82671429D01*
X131204762Y-82528571D01*
X131109524Y-82433333D01*
X131014286Y-82385714D01*
X130823810Y-82338095D01*
X130680952Y-82338095D01*
X130490476Y-82385714D01*
X130395238Y-82433333D01*
X130300000Y-82528571D01*
X130252381Y-82671429D01*
X130252381Y-82766667D01*
X130300000Y-82909524D01*
X130347619Y-82957143D01*
X130252381Y-83814286D02*
X130252381Y-83623809D01*
X130300000Y-83528571D01*
X130347619Y-83480952D01*
X130490476Y-83385714D01*
X130680952Y-83338095D01*
X131061905Y-83338095D01*
X131157143Y-83385714D01*
X131204762Y-83433333D01*
X131252381Y-83528571D01*
X131252381Y-83719048D01*
X131204762Y-83814286D01*
X131157143Y-83861905D01*
X131061905Y-83909524D01*
X130823810Y-83909524D01*
X130728571Y-83861905D01*
X130680952Y-83814286D01*
X130633333Y-83719048D01*
X130633333Y-83528571D01*
X130680952Y-83433333D01*
X130728571Y-83385714D01*
X130823810Y-83338095D01*
X130252381Y-84242857D02*
X130252381Y-84861905D01*
X130633333Y-84528571D01*
X130633333Y-84671429D01*
X130680952Y-84766667D01*
X130728571Y-84814286D01*
X130823810Y-84861905D01*
X131061905Y-84861905D01*
X131157143Y-84814286D01*
X131204762Y-84766667D01*
X131252381Y-84671429D01*
X131252381Y-84385714D01*
X131204762Y-84290476D01*
X131157143Y-84242857D01*
X131157143Y-94157143D02*
X131204762Y-94109524D01*
X131252381Y-93966667D01*
X131252381Y-93871429D01*
X131204762Y-93728571D01*
X131109524Y-93633333D01*
X131014286Y-93585714D01*
X130823810Y-93538095D01*
X130680952Y-93538095D01*
X130490476Y-93585714D01*
X130395238Y-93633333D01*
X130300000Y-93728571D01*
X130252381Y-93871429D01*
X130252381Y-93966667D01*
X130300000Y-94109524D01*
X130347619Y-94157143D01*
X130252381Y-95014286D02*
X130252381Y-94823809D01*
X130300000Y-94728571D01*
X130347619Y-94680952D01*
X130490476Y-94585714D01*
X130680952Y-94538095D01*
X131061905Y-94538095D01*
X131157143Y-94585714D01*
X131204762Y-94633333D01*
X131252381Y-94728571D01*
X131252381Y-94919048D01*
X131204762Y-95014286D01*
X131157143Y-95061905D01*
X131061905Y-95109524D01*
X130823810Y-95109524D01*
X130728571Y-95061905D01*
X130680952Y-95014286D01*
X130633333Y-94919048D01*
X130633333Y-94728571D01*
X130680952Y-94633333D01*
X130728571Y-94585714D01*
X130823810Y-94538095D01*
X130585714Y-95966667D02*
X131252381Y-95966667D01*
X130204762Y-95728571D02*
X130919048Y-95490476D01*
X130919048Y-96109524D01*
X129607143Y-109107143D02*
X129654762Y-109059524D01*
X129702381Y-108916667D01*
X129702381Y-108821429D01*
X129654762Y-108678571D01*
X129559524Y-108583333D01*
X129464286Y-108535714D01*
X129273810Y-108488095D01*
X129130952Y-108488095D01*
X128940476Y-108535714D01*
X128845238Y-108583333D01*
X128750000Y-108678571D01*
X128702381Y-108821429D01*
X128702381Y-108916667D01*
X128750000Y-109059524D01*
X128797619Y-109107143D01*
X128702381Y-109964286D02*
X128702381Y-109773809D01*
X128750000Y-109678571D01*
X128797619Y-109630952D01*
X128940476Y-109535714D01*
X129130952Y-109488095D01*
X129511905Y-109488095D01*
X129607143Y-109535714D01*
X129654762Y-109583333D01*
X129702381Y-109678571D01*
X129702381Y-109869048D01*
X129654762Y-109964286D01*
X129607143Y-110011905D01*
X129511905Y-110059524D01*
X129273810Y-110059524D01*
X129178571Y-110011905D01*
X129130952Y-109964286D01*
X129083333Y-109869048D01*
X129083333Y-109678571D01*
X129130952Y-109583333D01*
X129178571Y-109535714D01*
X129273810Y-109488095D01*
X128702381Y-110964286D02*
X128702381Y-110488095D01*
X129178571Y-110440476D01*
X129130952Y-110488095D01*
X129083333Y-110583333D01*
X129083333Y-110821429D01*
X129130952Y-110916667D01*
X129178571Y-110964286D01*
X129273810Y-111011905D01*
X129511905Y-111011905D01*
X129607143Y-110964286D01*
X129654762Y-110916667D01*
X129702381Y-110821429D01*
X129702381Y-110583333D01*
X129654762Y-110488095D01*
X129607143Y-110440476D01*
X80557143Y-126357143D02*
X80604762Y-126309524D01*
X80652381Y-126166667D01*
X80652381Y-126071429D01*
X80604762Y-125928571D01*
X80509524Y-125833333D01*
X80414286Y-125785714D01*
X80223810Y-125738095D01*
X80080952Y-125738095D01*
X79890476Y-125785714D01*
X79795238Y-125833333D01*
X79700000Y-125928571D01*
X79652381Y-126071429D01*
X79652381Y-126166667D01*
X79700000Y-126309524D01*
X79747619Y-126357143D01*
X79652381Y-127214286D02*
X79652381Y-127023809D01*
X79700000Y-126928571D01*
X79747619Y-126880952D01*
X79890476Y-126785714D01*
X80080952Y-126738095D01*
X80461905Y-126738095D01*
X80557143Y-126785714D01*
X80604762Y-126833333D01*
X80652381Y-126928571D01*
X80652381Y-127119048D01*
X80604762Y-127214286D01*
X80557143Y-127261905D01*
X80461905Y-127309524D01*
X80223810Y-127309524D01*
X80128571Y-127261905D01*
X80080952Y-127214286D01*
X80033333Y-127119048D01*
X80033333Y-126928571D01*
X80080952Y-126833333D01*
X80128571Y-126785714D01*
X80223810Y-126738095D01*
X79652381Y-127642857D02*
X79652381Y-128309524D01*
X80652381Y-127880952D01*
X89107143Y-127857143D02*
X89154762Y-127809524D01*
X89202381Y-127666667D01*
X89202381Y-127571429D01*
X89154762Y-127428571D01*
X89059524Y-127333333D01*
X88964286Y-127285714D01*
X88773810Y-127238095D01*
X88630952Y-127238095D01*
X88440476Y-127285714D01*
X88345238Y-127333333D01*
X88250000Y-127428571D01*
X88202381Y-127571429D01*
X88202381Y-127666667D01*
X88250000Y-127809524D01*
X88297619Y-127857143D01*
X88202381Y-128714286D02*
X88202381Y-128523809D01*
X88250000Y-128428571D01*
X88297619Y-128380952D01*
X88440476Y-128285714D01*
X88630952Y-128238095D01*
X89011905Y-128238095D01*
X89107143Y-128285714D01*
X89154762Y-128333333D01*
X89202381Y-128428571D01*
X89202381Y-128619048D01*
X89154762Y-128714286D01*
X89107143Y-128761905D01*
X89011905Y-128809524D01*
X88773810Y-128809524D01*
X88678571Y-128761905D01*
X88630952Y-128714286D01*
X88583333Y-128619048D01*
X88583333Y-128428571D01*
X88630952Y-128333333D01*
X88678571Y-128285714D01*
X88773810Y-128238095D01*
X88630952Y-129380952D02*
X88583333Y-129285714D01*
X88535714Y-129238095D01*
X88440476Y-129190476D01*
X88392857Y-129190476D01*
X88297619Y-129238095D01*
X88250000Y-129285714D01*
X88202381Y-129380952D01*
X88202381Y-129571429D01*
X88250000Y-129666667D01*
X88297619Y-129714286D01*
X88392857Y-129761905D01*
X88440476Y-129761905D01*
X88535714Y-129714286D01*
X88583333Y-129666667D01*
X88630952Y-129571429D01*
X88630952Y-129380952D01*
X88678571Y-129285714D01*
X88726190Y-129238095D01*
X88821429Y-129190476D01*
X89011905Y-129190476D01*
X89107143Y-129238095D01*
X89154762Y-129285714D01*
X89202381Y-129380952D01*
X89202381Y-129571429D01*
X89154762Y-129666667D01*
X89107143Y-129714286D01*
X89011905Y-129761905D01*
X88821429Y-129761905D01*
X88726190Y-129714286D01*
X88678571Y-129666667D01*
X88630952Y-129571429D01*
X89107143Y-123083334D02*
X89154762Y-123035715D01*
X89202381Y-122892858D01*
X89202381Y-122797620D01*
X89154762Y-122654762D01*
X89059524Y-122559524D01*
X88964286Y-122511905D01*
X88773810Y-122464286D01*
X88630952Y-122464286D01*
X88440476Y-122511905D01*
X88345238Y-122559524D01*
X88250000Y-122654762D01*
X88202381Y-122797620D01*
X88202381Y-122892858D01*
X88250000Y-123035715D01*
X88297619Y-123083334D01*
X88202381Y-123416667D02*
X88202381Y-124083334D01*
X89202381Y-123654762D01*
X123557143Y-113757143D02*
X123604762Y-113709524D01*
X123652381Y-113566667D01*
X123652381Y-113471429D01*
X123604762Y-113328571D01*
X123509524Y-113233333D01*
X123414286Y-113185714D01*
X123223810Y-113138095D01*
X123080952Y-113138095D01*
X122890476Y-113185714D01*
X122795238Y-113233333D01*
X122700000Y-113328571D01*
X122652381Y-113471429D01*
X122652381Y-113566667D01*
X122700000Y-113709524D01*
X122747619Y-113757143D01*
X123652381Y-114709524D02*
X123652381Y-114138095D01*
X123652381Y-114423809D02*
X122652381Y-114423809D01*
X122795238Y-114328571D01*
X122890476Y-114233333D01*
X122938095Y-114138095D01*
X122652381Y-115614286D02*
X122652381Y-115138095D01*
X123128571Y-115090476D01*
X123080952Y-115138095D01*
X123033333Y-115233333D01*
X123033333Y-115471429D01*
X123080952Y-115566667D01*
X123128571Y-115614286D01*
X123223810Y-115661905D01*
X123461905Y-115661905D01*
X123557143Y-115614286D01*
X123604762Y-115566667D01*
X123652381Y-115471429D01*
X123652381Y-115233333D01*
X123604762Y-115138095D01*
X123557143Y-115090476D01*
X111392857Y-119357143D02*
X111440476Y-119404762D01*
X111583333Y-119452381D01*
X111678571Y-119452381D01*
X111821429Y-119404762D01*
X111916667Y-119309524D01*
X111964286Y-119214286D01*
X112011905Y-119023810D01*
X112011905Y-118880952D01*
X111964286Y-118690476D01*
X111916667Y-118595238D01*
X111821429Y-118500000D01*
X111678571Y-118452381D01*
X111583333Y-118452381D01*
X111440476Y-118500000D01*
X111392857Y-118547619D01*
X110535714Y-118452381D02*
X110726191Y-118452381D01*
X110821429Y-118500000D01*
X110869048Y-118547619D01*
X110964286Y-118690476D01*
X111011905Y-118880952D01*
X111011905Y-119261905D01*
X110964286Y-119357143D01*
X110916667Y-119404762D01*
X110821429Y-119452381D01*
X110630952Y-119452381D01*
X110535714Y-119404762D01*
X110488095Y-119357143D01*
X110440476Y-119261905D01*
X110440476Y-119023810D01*
X110488095Y-118928571D01*
X110535714Y-118880952D01*
X110630952Y-118833333D01*
X110821429Y-118833333D01*
X110916667Y-118880952D01*
X110964286Y-118928571D01*
X111011905Y-119023810D01*
X109964286Y-119452381D02*
X109773810Y-119452381D01*
X109678571Y-119404762D01*
X109630952Y-119357143D01*
X109535714Y-119214286D01*
X109488095Y-119023810D01*
X109488095Y-118642857D01*
X109535714Y-118547619D01*
X109583333Y-118500000D01*
X109678571Y-118452381D01*
X109869048Y-118452381D01*
X109964286Y-118500000D01*
X110011905Y-118547619D01*
X110059524Y-118642857D01*
X110059524Y-118880952D01*
X110011905Y-118976190D01*
X109964286Y-119023810D01*
X109869048Y-119071429D01*
X109678571Y-119071429D01*
X109583333Y-119023810D01*
X109535714Y-118976190D01*
X109488095Y-118880952D01*
X129557143Y-112157143D02*
X129604762Y-112109524D01*
X129652381Y-111966667D01*
X129652381Y-111871429D01*
X129604762Y-111728571D01*
X129509524Y-111633333D01*
X129414286Y-111585714D01*
X129223810Y-111538095D01*
X129080952Y-111538095D01*
X128890476Y-111585714D01*
X128795238Y-111633333D01*
X128700000Y-111728571D01*
X128652381Y-111871429D01*
X128652381Y-111966667D01*
X128700000Y-112109524D01*
X128747619Y-112157143D01*
X128652381Y-112490476D02*
X128652381Y-113157143D01*
X129652381Y-112728571D01*
X128652381Y-113728571D02*
X128652381Y-113823810D01*
X128700000Y-113919048D01*
X128747619Y-113966667D01*
X128842857Y-114014286D01*
X129033333Y-114061905D01*
X129271429Y-114061905D01*
X129461905Y-114014286D01*
X129557143Y-113966667D01*
X129604762Y-113919048D01*
X129652381Y-113823810D01*
X129652381Y-113728571D01*
X129604762Y-113633333D01*
X129557143Y-113585714D01*
X129461905Y-113538095D01*
X129271429Y-113490476D01*
X129033333Y-113490476D01*
X128842857Y-113538095D01*
X128747619Y-113585714D01*
X128700000Y-113633333D01*
X128652381Y-113728571D01*
X81952381Y-123761905D02*
X80952381Y-123761905D01*
X80952381Y-124000000D01*
X81000000Y-124142858D01*
X81095238Y-124238096D01*
X81190476Y-124285715D01*
X81380952Y-124333334D01*
X81523810Y-124333334D01*
X81714286Y-124285715D01*
X81809524Y-124238096D01*
X81904762Y-124142858D01*
X81952381Y-124000000D01*
X81952381Y-123761905D01*
X81952381Y-125285715D02*
X81952381Y-124714286D01*
X81952381Y-125000000D02*
X80952381Y-125000000D01*
X81095238Y-124904762D01*
X81190476Y-124809524D01*
X81238095Y-124714286D01*
X124238095Y-57452381D02*
X124238095Y-56452381D01*
X124000000Y-56452381D01*
X123857142Y-56500000D01*
X123761904Y-56595238D01*
X123714285Y-56690476D01*
X123666666Y-56880952D01*
X123666666Y-57023810D01*
X123714285Y-57214286D01*
X123761904Y-57309524D01*
X123857142Y-57404762D01*
X124000000Y-57452381D01*
X124238095Y-57452381D01*
X123285714Y-56547619D02*
X123238095Y-56500000D01*
X123142857Y-56452381D01*
X122904761Y-56452381D01*
X122809523Y-56500000D01*
X122761904Y-56547619D01*
X122714285Y-56642857D01*
X122714285Y-56738095D01*
X122761904Y-56880952D01*
X123333333Y-57452381D01*
X122714285Y-57452381D01*
X89952381Y-50261905D02*
X88952381Y-50261905D01*
X88952381Y-50500000D01*
X89000000Y-50642858D01*
X89095238Y-50738096D01*
X89190476Y-50785715D01*
X89380952Y-50833334D01*
X89523810Y-50833334D01*
X89714286Y-50785715D01*
X89809524Y-50738096D01*
X89904762Y-50642858D01*
X89952381Y-50500000D01*
X89952381Y-50261905D01*
X88952381Y-51166667D02*
X88952381Y-51785715D01*
X89333333Y-51452381D01*
X89333333Y-51595239D01*
X89380952Y-51690477D01*
X89428571Y-51738096D01*
X89523810Y-51785715D01*
X89761905Y-51785715D01*
X89857143Y-51738096D01*
X89904762Y-51690477D01*
X89952381Y-51595239D01*
X89952381Y-51309524D01*
X89904762Y-51214286D01*
X89857143Y-51166667D01*
X82952381Y-62261905D02*
X81952381Y-62261905D01*
X81952381Y-62500000D01*
X82000000Y-62642858D01*
X82095238Y-62738096D01*
X82190476Y-62785715D01*
X82380952Y-62833334D01*
X82523810Y-62833334D01*
X82714286Y-62785715D01*
X82809524Y-62738096D01*
X82904762Y-62642858D01*
X82952381Y-62500000D01*
X82952381Y-62261905D01*
X82285714Y-63690477D02*
X82952381Y-63690477D01*
X81904762Y-63452381D02*
X82619048Y-63214286D01*
X82619048Y-63833334D01*
X80952381Y-73261905D02*
X79952381Y-73261905D01*
X79952381Y-73500000D01*
X80000000Y-73642858D01*
X80095238Y-73738096D01*
X80190476Y-73785715D01*
X80380952Y-73833334D01*
X80523810Y-73833334D01*
X80714286Y-73785715D01*
X80809524Y-73738096D01*
X80904762Y-73642858D01*
X80952381Y-73500000D01*
X80952381Y-73261905D01*
X79952381Y-74738096D02*
X79952381Y-74261905D01*
X80428571Y-74214286D01*
X80380952Y-74261905D01*
X80333333Y-74357143D01*
X80333333Y-74595239D01*
X80380952Y-74690477D01*
X80428571Y-74738096D01*
X80523810Y-74785715D01*
X80761905Y-74785715D01*
X80857143Y-74738096D01*
X80904762Y-74690477D01*
X80952381Y-74595239D01*
X80952381Y-74357143D01*
X80904762Y-74261905D01*
X80857143Y-74214286D01*
X80952381Y-84261905D02*
X79952381Y-84261905D01*
X79952381Y-84500000D01*
X80000000Y-84642858D01*
X80095238Y-84738096D01*
X80190476Y-84785715D01*
X80380952Y-84833334D01*
X80523810Y-84833334D01*
X80714286Y-84785715D01*
X80809524Y-84738096D01*
X80904762Y-84642858D01*
X80952381Y-84500000D01*
X80952381Y-84261905D01*
X79952381Y-85690477D02*
X79952381Y-85500000D01*
X80000000Y-85404762D01*
X80047619Y-85357143D01*
X80190476Y-85261905D01*
X80380952Y-85214286D01*
X80761905Y-85214286D01*
X80857143Y-85261905D01*
X80904762Y-85309524D01*
X80952381Y-85404762D01*
X80952381Y-85595239D01*
X80904762Y-85690477D01*
X80857143Y-85738096D01*
X80761905Y-85785715D01*
X80523810Y-85785715D01*
X80428571Y-85738096D01*
X80380952Y-85690477D01*
X80333333Y-85595239D01*
X80333333Y-85404762D01*
X80380952Y-85309524D01*
X80428571Y-85261905D01*
X80523810Y-85214286D01*
X80952381Y-95261905D02*
X79952381Y-95261905D01*
X79952381Y-95500000D01*
X80000000Y-95642858D01*
X80095238Y-95738096D01*
X80190476Y-95785715D01*
X80380952Y-95833334D01*
X80523810Y-95833334D01*
X80714286Y-95785715D01*
X80809524Y-95738096D01*
X80904762Y-95642858D01*
X80952381Y-95500000D01*
X80952381Y-95261905D01*
X79952381Y-96166667D02*
X79952381Y-96833334D01*
X80952381Y-96404762D01*
X80952381Y-106261905D02*
X79952381Y-106261905D01*
X79952381Y-106500000D01*
X80000000Y-106642858D01*
X80095238Y-106738096D01*
X80190476Y-106785715D01*
X80380952Y-106833334D01*
X80523810Y-106833334D01*
X80714286Y-106785715D01*
X80809524Y-106738096D01*
X80904762Y-106642858D01*
X80952381Y-106500000D01*
X80952381Y-106261905D01*
X80380952Y-107404762D02*
X80333333Y-107309524D01*
X80285714Y-107261905D01*
X80190476Y-107214286D01*
X80142857Y-107214286D01*
X80047619Y-107261905D01*
X80000000Y-107309524D01*
X79952381Y-107404762D01*
X79952381Y-107595239D01*
X80000000Y-107690477D01*
X80047619Y-107738096D01*
X80142857Y-107785715D01*
X80190476Y-107785715D01*
X80285714Y-107738096D01*
X80333333Y-107690477D01*
X80380952Y-107595239D01*
X80380952Y-107404762D01*
X80428571Y-107309524D01*
X80476190Y-107261905D01*
X80571429Y-107214286D01*
X80761905Y-107214286D01*
X80857143Y-107261905D01*
X80904762Y-107309524D01*
X80952381Y-107404762D01*
X80952381Y-107595239D01*
X80904762Y-107690477D01*
X80857143Y-107738096D01*
X80761905Y-107785715D01*
X80571429Y-107785715D01*
X80476190Y-107738096D01*
X80428571Y-107690477D01*
X80380952Y-107595239D01*
X124952381Y-118261905D02*
X123952381Y-118261905D01*
X123952381Y-118500000D01*
X124000000Y-118642858D01*
X124095238Y-118738096D01*
X124190476Y-118785715D01*
X124380952Y-118833334D01*
X124523810Y-118833334D01*
X124714286Y-118785715D01*
X124809524Y-118738096D01*
X124904762Y-118642858D01*
X124952381Y-118500000D01*
X124952381Y-118261905D01*
X124952381Y-119309524D02*
X124952381Y-119500000D01*
X124904762Y-119595239D01*
X124857143Y-119642858D01*
X124714286Y-119738096D01*
X124523810Y-119785715D01*
X124142857Y-119785715D01*
X124047619Y-119738096D01*
X124000000Y-119690477D01*
X123952381Y-119595239D01*
X123952381Y-119404762D01*
X124000000Y-119309524D01*
X124047619Y-119261905D01*
X124142857Y-119214286D01*
X124380952Y-119214286D01*
X124476190Y-119261905D01*
X124523810Y-119309524D01*
X124571429Y-119404762D01*
X124571429Y-119595239D01*
X124523810Y-119690477D01*
X124476190Y-119738096D01*
X124380952Y-119785715D01*
X134252381Y-64385714D02*
X133252381Y-64385714D01*
X133252381Y-64623809D01*
X133300000Y-64766667D01*
X133395238Y-64861905D01*
X133490476Y-64909524D01*
X133680952Y-64957143D01*
X133823810Y-64957143D01*
X134014286Y-64909524D01*
X134109524Y-64861905D01*
X134204762Y-64766667D01*
X134252381Y-64623809D01*
X134252381Y-64385714D01*
X134252381Y-65909524D02*
X134252381Y-65338095D01*
X134252381Y-65623809D02*
X133252381Y-65623809D01*
X133395238Y-65528571D01*
X133490476Y-65433333D01*
X133538095Y-65338095D01*
X133252381Y-66528571D02*
X133252381Y-66623810D01*
X133300000Y-66719048D01*
X133347619Y-66766667D01*
X133442857Y-66814286D01*
X133633333Y-66861905D01*
X133871429Y-66861905D01*
X134061905Y-66814286D01*
X134157143Y-66766667D01*
X134204762Y-66719048D01*
X134252381Y-66623810D01*
X134252381Y-66528571D01*
X134204762Y-66433333D01*
X134157143Y-66385714D01*
X134061905Y-66338095D01*
X133871429Y-66290476D01*
X133633333Y-66290476D01*
X133442857Y-66338095D01*
X133347619Y-66385714D01*
X133300000Y-66433333D01*
X133252381Y-66528571D01*
X137052381Y-85785714D02*
X136052381Y-85785714D01*
X136052381Y-86023809D01*
X136100000Y-86166667D01*
X136195238Y-86261905D01*
X136290476Y-86309524D01*
X136480952Y-86357143D01*
X136623810Y-86357143D01*
X136814286Y-86309524D01*
X136909524Y-86261905D01*
X137004762Y-86166667D01*
X137052381Y-86023809D01*
X137052381Y-85785714D01*
X137052381Y-87309524D02*
X137052381Y-86738095D01*
X137052381Y-87023809D02*
X136052381Y-87023809D01*
X136195238Y-86928571D01*
X136290476Y-86833333D01*
X136338095Y-86738095D01*
X137052381Y-88261905D02*
X137052381Y-87690476D01*
X137052381Y-87976190D02*
X136052381Y-87976190D01*
X136195238Y-87880952D01*
X136290476Y-87785714D01*
X136338095Y-87690476D01*
X137052381Y-96985714D02*
X136052381Y-96985714D01*
X136052381Y-97223809D01*
X136100000Y-97366667D01*
X136195238Y-97461905D01*
X136290476Y-97509524D01*
X136480952Y-97557143D01*
X136623810Y-97557143D01*
X136814286Y-97509524D01*
X136909524Y-97461905D01*
X137004762Y-97366667D01*
X137052381Y-97223809D01*
X137052381Y-96985714D01*
X137052381Y-98509524D02*
X137052381Y-97938095D01*
X137052381Y-98223809D02*
X136052381Y-98223809D01*
X136195238Y-98128571D01*
X136290476Y-98033333D01*
X136338095Y-97938095D01*
X136147619Y-98890476D02*
X136100000Y-98938095D01*
X136052381Y-99033333D01*
X136052381Y-99271429D01*
X136100000Y-99366667D01*
X136147619Y-99414286D01*
X136242857Y-99461905D01*
X136338095Y-99461905D01*
X136480952Y-99414286D01*
X137052381Y-98842857D01*
X137052381Y-99461905D01*
X137052381Y-108185714D02*
X136052381Y-108185714D01*
X136052381Y-108423809D01*
X136100000Y-108566667D01*
X136195238Y-108661905D01*
X136290476Y-108709524D01*
X136480952Y-108757143D01*
X136623810Y-108757143D01*
X136814286Y-108709524D01*
X136909524Y-108661905D01*
X137004762Y-108566667D01*
X137052381Y-108423809D01*
X137052381Y-108185714D01*
X137052381Y-109709524D02*
X137052381Y-109138095D01*
X137052381Y-109423809D02*
X136052381Y-109423809D01*
X136195238Y-109328571D01*
X136290476Y-109233333D01*
X136338095Y-109138095D01*
X136052381Y-110042857D02*
X136052381Y-110661905D01*
X136433333Y-110328571D01*
X136433333Y-110471429D01*
X136480952Y-110566667D01*
X136528571Y-110614286D01*
X136623810Y-110661905D01*
X136861905Y-110661905D01*
X136957143Y-110614286D01*
X137004762Y-110566667D01*
X137052381Y-110471429D01*
X137052381Y-110185714D01*
X137004762Y-110090476D01*
X136957143Y-110042857D01*
X137052381Y-119785714D02*
X136052381Y-119785714D01*
X136052381Y-120023809D01*
X136100000Y-120166667D01*
X136195238Y-120261905D01*
X136290476Y-120309524D01*
X136480952Y-120357143D01*
X136623810Y-120357143D01*
X136814286Y-120309524D01*
X136909524Y-120261905D01*
X137004762Y-120166667D01*
X137052381Y-120023809D01*
X137052381Y-119785714D01*
X137052381Y-121309524D02*
X137052381Y-120738095D01*
X137052381Y-121023809D02*
X136052381Y-121023809D01*
X136195238Y-120928571D01*
X136290476Y-120833333D01*
X136338095Y-120738095D01*
X136385714Y-122166667D02*
X137052381Y-122166667D01*
X136004762Y-121928571D02*
X136719048Y-121690476D01*
X136719048Y-122309524D01*
X137252381Y-75585714D02*
X136252381Y-75585714D01*
X136252381Y-75823809D01*
X136300000Y-75966667D01*
X136395238Y-76061905D01*
X136490476Y-76109524D01*
X136680952Y-76157143D01*
X136823810Y-76157143D01*
X137014286Y-76109524D01*
X137109524Y-76061905D01*
X137204762Y-75966667D01*
X137252381Y-75823809D01*
X137252381Y-75585714D01*
X137252381Y-77109524D02*
X137252381Y-76538095D01*
X137252381Y-76823809D02*
X136252381Y-76823809D01*
X136395238Y-76728571D01*
X136490476Y-76633333D01*
X136538095Y-76538095D01*
X136252381Y-78014286D02*
X136252381Y-77538095D01*
X136728571Y-77490476D01*
X136680952Y-77538095D01*
X136633333Y-77633333D01*
X136633333Y-77871429D01*
X136680952Y-77966667D01*
X136728571Y-78014286D01*
X136823810Y-78061905D01*
X137061905Y-78061905D01*
X137157143Y-78014286D01*
X137204762Y-77966667D01*
X137252381Y-77871429D01*
X137252381Y-77633333D01*
X137204762Y-77538095D01*
X137157143Y-77490476D01*
X91392857Y-49552381D02*
X91869048Y-49552381D01*
X91869048Y-48552381D01*
X91107143Y-48647619D02*
X91059524Y-48600000D01*
X90964286Y-48552381D01*
X90726190Y-48552381D01*
X90630952Y-48600000D01*
X90583333Y-48647619D01*
X90535714Y-48742857D01*
X90535714Y-48838095D01*
X90583333Y-48980952D01*
X91154762Y-49552381D01*
X90535714Y-49552381D01*
X89678571Y-48885714D02*
X89678571Y-49552381D01*
X89916667Y-48504762D02*
X90154762Y-49219048D01*
X89535714Y-49219048D01*
X84892857Y-61552381D02*
X85369048Y-61552381D01*
X85369048Y-60552381D01*
X84607143Y-60647619D02*
X84559524Y-60600000D01*
X84464286Y-60552381D01*
X84226190Y-60552381D01*
X84130952Y-60600000D01*
X84083333Y-60647619D01*
X84035714Y-60742857D01*
X84035714Y-60838095D01*
X84083333Y-60980952D01*
X84654762Y-61552381D01*
X84035714Y-61552381D01*
X83130952Y-60552381D02*
X83607143Y-60552381D01*
X83654762Y-61028571D01*
X83607143Y-60980952D01*
X83511905Y-60933333D01*
X83273809Y-60933333D01*
X83178571Y-60980952D01*
X83130952Y-61028571D01*
X83083333Y-61123810D01*
X83083333Y-61361905D01*
X83130952Y-61457143D01*
X83178571Y-61504762D01*
X83273809Y-61552381D01*
X83511905Y-61552381D01*
X83607143Y-61504762D01*
X83654762Y-61457143D01*
X82392857Y-73052381D02*
X82869048Y-73052381D01*
X82869048Y-72052381D01*
X82107143Y-72147619D02*
X82059524Y-72100000D01*
X81964286Y-72052381D01*
X81726190Y-72052381D01*
X81630952Y-72100000D01*
X81583333Y-72147619D01*
X81535714Y-72242857D01*
X81535714Y-72338095D01*
X81583333Y-72480952D01*
X82154762Y-73052381D01*
X81535714Y-73052381D01*
X80678571Y-72052381D02*
X80869048Y-72052381D01*
X80964286Y-72100000D01*
X81011905Y-72147619D01*
X81107143Y-72290476D01*
X81154762Y-72480952D01*
X81154762Y-72861905D01*
X81107143Y-72957143D01*
X81059524Y-73004762D01*
X80964286Y-73052381D01*
X80773809Y-73052381D01*
X80678571Y-73004762D01*
X80630952Y-72957143D01*
X80583333Y-72861905D01*
X80583333Y-72623810D01*
X80630952Y-72528571D01*
X80678571Y-72480952D01*
X80773809Y-72433333D01*
X80964286Y-72433333D01*
X81059524Y-72480952D01*
X81107143Y-72528571D01*
X81154762Y-72623810D01*
X82392857Y-83802381D02*
X82869048Y-83802381D01*
X82869048Y-82802381D01*
X82107143Y-82897619D02*
X82059524Y-82850000D01*
X81964286Y-82802381D01*
X81726190Y-82802381D01*
X81630952Y-82850000D01*
X81583333Y-82897619D01*
X81535714Y-82992857D01*
X81535714Y-83088095D01*
X81583333Y-83230952D01*
X82154762Y-83802381D01*
X81535714Y-83802381D01*
X81202381Y-82802381D02*
X80535714Y-82802381D01*
X80964286Y-83802381D01*
X82642857Y-94552381D02*
X83119048Y-94552381D01*
X83119048Y-93552381D01*
X82357143Y-93647619D02*
X82309524Y-93600000D01*
X82214286Y-93552381D01*
X81976190Y-93552381D01*
X81880952Y-93600000D01*
X81833333Y-93647619D01*
X81785714Y-93742857D01*
X81785714Y-93838095D01*
X81833333Y-93980952D01*
X82404762Y-94552381D01*
X81785714Y-94552381D01*
X81214286Y-93980952D02*
X81309524Y-93933333D01*
X81357143Y-93885714D01*
X81404762Y-93790476D01*
X81404762Y-93742857D01*
X81357143Y-93647619D01*
X81309524Y-93600000D01*
X81214286Y-93552381D01*
X81023809Y-93552381D01*
X80928571Y-93600000D01*
X80880952Y-93647619D01*
X80833333Y-93742857D01*
X80833333Y-93790476D01*
X80880952Y-93885714D01*
X80928571Y-93933333D01*
X81023809Y-93980952D01*
X81214286Y-93980952D01*
X81309524Y-94028571D01*
X81357143Y-94076190D01*
X81404762Y-94171429D01*
X81404762Y-94361905D01*
X81357143Y-94457143D01*
X81309524Y-94504762D01*
X81214286Y-94552381D01*
X81023809Y-94552381D01*
X80928571Y-94504762D01*
X80880952Y-94457143D01*
X80833333Y-94361905D01*
X80833333Y-94171429D01*
X80880952Y-94076190D01*
X80928571Y-94028571D01*
X81023809Y-93980952D01*
X83142857Y-105802381D02*
X83619048Y-105802381D01*
X83619048Y-104802381D01*
X82857143Y-104897619D02*
X82809524Y-104850000D01*
X82714286Y-104802381D01*
X82476190Y-104802381D01*
X82380952Y-104850000D01*
X82333333Y-104897619D01*
X82285714Y-104992857D01*
X82285714Y-105088095D01*
X82333333Y-105230952D01*
X82904762Y-105802381D01*
X82285714Y-105802381D01*
X81809524Y-105802381D02*
X81619048Y-105802381D01*
X81523809Y-105754762D01*
X81476190Y-105707143D01*
X81380952Y-105564286D01*
X81333333Y-105373810D01*
X81333333Y-104992857D01*
X81380952Y-104897619D01*
X81428571Y-104850000D01*
X81523809Y-104802381D01*
X81714286Y-104802381D01*
X81809524Y-104850000D01*
X81857143Y-104897619D01*
X81904762Y-104992857D01*
X81904762Y-105230952D01*
X81857143Y-105326190D01*
X81809524Y-105373810D01*
X81714286Y-105421429D01*
X81523809Y-105421429D01*
X81428571Y-105373810D01*
X81380952Y-105326190D01*
X81333333Y-105230952D01*
X122552381Y-118357143D02*
X122552381Y-117880952D01*
X121552381Y-117880952D01*
X121552381Y-118595238D02*
X121552381Y-119214286D01*
X121933333Y-118880952D01*
X121933333Y-119023810D01*
X121980952Y-119119048D01*
X122028571Y-119166667D01*
X122123810Y-119214286D01*
X122361905Y-119214286D01*
X122457143Y-119166667D01*
X122504762Y-119119048D01*
X122552381Y-119023810D01*
X122552381Y-118738095D01*
X122504762Y-118642857D01*
X122457143Y-118595238D01*
X121552381Y-119833333D02*
X121552381Y-119928572D01*
X121600000Y-120023810D01*
X121647619Y-120071429D01*
X121742857Y-120119048D01*
X121933333Y-120166667D01*
X122171429Y-120166667D01*
X122361905Y-120119048D01*
X122457143Y-120071429D01*
X122504762Y-120023810D01*
X122552381Y-119928572D01*
X122552381Y-119833333D01*
X122504762Y-119738095D01*
X122457143Y-119690476D01*
X122361905Y-119642857D01*
X122171429Y-119595238D01*
X121933333Y-119595238D01*
X121742857Y-119642857D01*
X121647619Y-119690476D01*
X121600000Y-119738095D01*
X121552381Y-119833333D01*
X134242857Y-51852381D02*
X134719048Y-51852381D01*
X134719048Y-50852381D01*
X134004762Y-50852381D02*
X133385714Y-50852381D01*
X133719048Y-51233333D01*
X133576190Y-51233333D01*
X133480952Y-51280952D01*
X133433333Y-51328571D01*
X133385714Y-51423810D01*
X133385714Y-51661905D01*
X133433333Y-51757143D01*
X133480952Y-51804762D01*
X133576190Y-51852381D01*
X133861905Y-51852381D01*
X133957143Y-51804762D01*
X134004762Y-51757143D01*
X132433333Y-51852381D02*
X133004762Y-51852381D01*
X132719048Y-51852381D02*
X132719048Y-50852381D01*
X132814286Y-50995238D01*
X132909524Y-51090476D01*
X133004762Y-51138095D01*
X136142857Y-60352381D02*
X136619048Y-60352381D01*
X136619048Y-59352381D01*
X135904762Y-59352381D02*
X135285714Y-59352381D01*
X135619048Y-59733333D01*
X135476190Y-59733333D01*
X135380952Y-59780952D01*
X135333333Y-59828571D01*
X135285714Y-59923810D01*
X135285714Y-60161905D01*
X135333333Y-60257143D01*
X135380952Y-60304762D01*
X135476190Y-60352381D01*
X135761905Y-60352381D01*
X135857143Y-60304762D01*
X135904762Y-60257143D01*
X134904762Y-59447619D02*
X134857143Y-59400000D01*
X134761905Y-59352381D01*
X134523809Y-59352381D01*
X134428571Y-59400000D01*
X134380952Y-59447619D01*
X134333333Y-59542857D01*
X134333333Y-59638095D01*
X134380952Y-59780952D01*
X134952381Y-60352381D01*
X134333333Y-60352381D01*
X139252381Y-71157143D02*
X139252381Y-70680952D01*
X138252381Y-70680952D01*
X138252381Y-71395238D02*
X138252381Y-72014286D01*
X138633333Y-71680952D01*
X138633333Y-71823810D01*
X138680952Y-71919048D01*
X138728571Y-71966667D01*
X138823810Y-72014286D01*
X139061905Y-72014286D01*
X139157143Y-71966667D01*
X139204762Y-71919048D01*
X139252381Y-71823810D01*
X139252381Y-71538095D01*
X139204762Y-71442857D01*
X139157143Y-71395238D01*
X138252381Y-72347619D02*
X138252381Y-72966667D01*
X138633333Y-72633333D01*
X138633333Y-72776191D01*
X138680952Y-72871429D01*
X138728571Y-72919048D01*
X138823810Y-72966667D01*
X139061905Y-72966667D01*
X139157143Y-72919048D01*
X139204762Y-72871429D01*
X139252381Y-72776191D01*
X139252381Y-72490476D01*
X139204762Y-72395238D01*
X139157143Y-72347619D01*
X139552381Y-81857143D02*
X139552381Y-81380952D01*
X138552381Y-81380952D01*
X138552381Y-82095238D02*
X138552381Y-82714286D01*
X138933333Y-82380952D01*
X138933333Y-82523810D01*
X138980952Y-82619048D01*
X139028571Y-82666667D01*
X139123810Y-82714286D01*
X139361905Y-82714286D01*
X139457143Y-82666667D01*
X139504762Y-82619048D01*
X139552381Y-82523810D01*
X139552381Y-82238095D01*
X139504762Y-82142857D01*
X139457143Y-82095238D01*
X138885714Y-83571429D02*
X139552381Y-83571429D01*
X138504762Y-83333333D02*
X139219048Y-83095238D01*
X139219048Y-83714286D01*
X139552381Y-92857143D02*
X139552381Y-92380952D01*
X138552381Y-92380952D01*
X138552381Y-93095238D02*
X138552381Y-93714286D01*
X138933333Y-93380952D01*
X138933333Y-93523810D01*
X138980952Y-93619048D01*
X139028571Y-93666667D01*
X139123810Y-93714286D01*
X139361905Y-93714286D01*
X139457143Y-93666667D01*
X139504762Y-93619048D01*
X139552381Y-93523810D01*
X139552381Y-93238095D01*
X139504762Y-93142857D01*
X139457143Y-93095238D01*
X138552381Y-94619048D02*
X138552381Y-94142857D01*
X139028571Y-94095238D01*
X138980952Y-94142857D01*
X138933333Y-94238095D01*
X138933333Y-94476191D01*
X138980952Y-94571429D01*
X139028571Y-94619048D01*
X139123810Y-94666667D01*
X139361905Y-94666667D01*
X139457143Y-94619048D01*
X139504762Y-94571429D01*
X139552381Y-94476191D01*
X139552381Y-94238095D01*
X139504762Y-94142857D01*
X139457143Y-94095238D01*
X139552381Y-103857143D02*
X139552381Y-103380952D01*
X138552381Y-103380952D01*
X138552381Y-104095238D02*
X138552381Y-104714286D01*
X138933333Y-104380952D01*
X138933333Y-104523810D01*
X138980952Y-104619048D01*
X139028571Y-104666667D01*
X139123810Y-104714286D01*
X139361905Y-104714286D01*
X139457143Y-104666667D01*
X139504762Y-104619048D01*
X139552381Y-104523810D01*
X139552381Y-104238095D01*
X139504762Y-104142857D01*
X139457143Y-104095238D01*
X138552381Y-105571429D02*
X138552381Y-105380952D01*
X138600000Y-105285714D01*
X138647619Y-105238095D01*
X138790476Y-105142857D01*
X138980952Y-105095238D01*
X139361905Y-105095238D01*
X139457143Y-105142857D01*
X139504762Y-105190476D01*
X139552381Y-105285714D01*
X139552381Y-105476191D01*
X139504762Y-105571429D01*
X139457143Y-105619048D01*
X139361905Y-105666667D01*
X139123810Y-105666667D01*
X139028571Y-105619048D01*
X138980952Y-105571429D01*
X138933333Y-105476191D01*
X138933333Y-105285714D01*
X138980952Y-105190476D01*
X139028571Y-105142857D01*
X139123810Y-105095238D01*
X139552381Y-115857143D02*
X139552381Y-115380952D01*
X138552381Y-115380952D01*
X138552381Y-116095238D02*
X138552381Y-116714286D01*
X138933333Y-116380952D01*
X138933333Y-116523810D01*
X138980952Y-116619048D01*
X139028571Y-116666667D01*
X139123810Y-116714286D01*
X139361905Y-116714286D01*
X139457143Y-116666667D01*
X139504762Y-116619048D01*
X139552381Y-116523810D01*
X139552381Y-116238095D01*
X139504762Y-116142857D01*
X139457143Y-116095238D01*
X138552381Y-117047619D02*
X138552381Y-117714286D01*
X139552381Y-117285714D01*
X85242857Y-119852381D02*
X85719048Y-119852381D01*
X85719048Y-118852381D01*
X84385714Y-119852381D02*
X84957143Y-119852381D01*
X84671429Y-119852381D02*
X84671429Y-118852381D01*
X84766667Y-118995238D01*
X84861905Y-119090476D01*
X84957143Y-119138095D01*
X84052381Y-118852381D02*
X83385714Y-118852381D01*
X83814286Y-119852381D01*
X61042857Y-85557143D02*
X61090476Y-85604762D01*
X61233333Y-85652381D01*
X61328571Y-85652381D01*
X61471429Y-85604762D01*
X61566667Y-85509524D01*
X61614286Y-85414286D01*
X61661905Y-85223810D01*
X61661905Y-85080952D01*
X61614286Y-84890476D01*
X61566667Y-84795238D01*
X61471429Y-84700000D01*
X61328571Y-84652381D01*
X61233333Y-84652381D01*
X61090476Y-84700000D01*
X61042857Y-84747619D01*
X60090476Y-85652381D02*
X60661905Y-85652381D01*
X60376191Y-85652381D02*
X60376191Y-84652381D01*
X60471429Y-84795238D01*
X60566667Y-84890476D01*
X60661905Y-84938095D01*
X59138095Y-85652381D02*
X59709524Y-85652381D01*
X59423810Y-85652381D02*
X59423810Y-84652381D01*
X59519048Y-84795238D01*
X59614286Y-84890476D01*
X59709524Y-84938095D01*
X87392857Y-92921143D02*
X87440476Y-92968762D01*
X87583333Y-93016381D01*
X87678571Y-93016381D01*
X87821429Y-92968762D01*
X87916667Y-92873524D01*
X87964286Y-92778286D01*
X88011905Y-92587810D01*
X88011905Y-92444952D01*
X87964286Y-92254476D01*
X87916667Y-92159238D01*
X87821429Y-92064000D01*
X87678571Y-92016381D01*
X87583333Y-92016381D01*
X87440476Y-92064000D01*
X87392857Y-92111619D01*
X86440476Y-93016381D02*
X87011905Y-93016381D01*
X86726191Y-93016381D02*
X86726191Y-92016381D01*
X86821429Y-92159238D01*
X86916667Y-92254476D01*
X87011905Y-92302095D01*
X85583333Y-92016381D02*
X85773810Y-92016381D01*
X85869048Y-92064000D01*
X85916667Y-92111619D01*
X86011905Y-92254476D01*
X86059524Y-92444952D01*
X86059524Y-92825905D01*
X86011905Y-92921143D01*
X85964286Y-92968762D01*
X85869048Y-93016381D01*
X85678571Y-93016381D01*
X85583333Y-92968762D01*
X85535714Y-92921143D01*
X85488095Y-92825905D01*
X85488095Y-92587810D01*
X85535714Y-92492571D01*
X85583333Y-92444952D01*
X85678571Y-92397333D01*
X85869048Y-92397333D01*
X85964286Y-92444952D01*
X86011905Y-92492571D01*
X86059524Y-92587810D01*
X66792857Y-141657143D02*
X66840476Y-141704762D01*
X66983333Y-141752381D01*
X67078571Y-141752381D01*
X67221429Y-141704762D01*
X67316667Y-141609524D01*
X67364286Y-141514286D01*
X67411905Y-141323810D01*
X67411905Y-141180952D01*
X67364286Y-140990476D01*
X67316667Y-140895238D01*
X67221429Y-140800000D01*
X67078571Y-140752381D01*
X66983333Y-140752381D01*
X66840476Y-140800000D01*
X66792857Y-140847619D01*
X65840476Y-141752381D02*
X66411905Y-141752381D01*
X66126191Y-141752381D02*
X66126191Y-140752381D01*
X66221429Y-140895238D01*
X66316667Y-140990476D01*
X66411905Y-141038095D01*
X65507143Y-140752381D02*
X64840476Y-140752381D01*
X65269048Y-141752381D01*
X94242857Y-82557143D02*
X94290476Y-82604762D01*
X94433333Y-82652381D01*
X94528571Y-82652381D01*
X94671429Y-82604762D01*
X94766667Y-82509524D01*
X94814286Y-82414286D01*
X94861905Y-82223810D01*
X94861905Y-82080952D01*
X94814286Y-81890476D01*
X94766667Y-81795238D01*
X94671429Y-81700000D01*
X94528571Y-81652381D01*
X94433333Y-81652381D01*
X94290476Y-81700000D01*
X94242857Y-81747619D01*
X93290476Y-82652381D02*
X93861905Y-82652381D01*
X93576191Y-82652381D02*
X93576191Y-81652381D01*
X93671429Y-81795238D01*
X93766667Y-81890476D01*
X93861905Y-81938095D01*
X92719048Y-82080952D02*
X92814286Y-82033333D01*
X92861905Y-81985714D01*
X92909524Y-81890476D01*
X92909524Y-81842857D01*
X92861905Y-81747619D01*
X92814286Y-81700000D01*
X92719048Y-81652381D01*
X92528571Y-81652381D01*
X92433333Y-81700000D01*
X92385714Y-81747619D01*
X92338095Y-81842857D01*
X92338095Y-81890476D01*
X92385714Y-81985714D01*
X92433333Y-82033333D01*
X92528571Y-82080952D01*
X92719048Y-82080952D01*
X92814286Y-82128571D01*
X92861905Y-82176190D01*
X92909524Y-82271429D01*
X92909524Y-82461905D01*
X92861905Y-82557143D01*
X92814286Y-82604762D01*
X92719048Y-82652381D01*
X92528571Y-82652381D01*
X92433333Y-82604762D01*
X92385714Y-82557143D01*
X92338095Y-82461905D01*
X92338095Y-82271429D01*
X92385714Y-82176190D01*
X92433333Y-82128571D01*
X92528571Y-82080952D01*
X70042857Y-51357143D02*
X70090476Y-51404762D01*
X70233333Y-51452381D01*
X70328571Y-51452381D01*
X70471429Y-51404762D01*
X70566667Y-51309524D01*
X70614286Y-51214286D01*
X70661905Y-51023810D01*
X70661905Y-50880952D01*
X70614286Y-50690476D01*
X70566667Y-50595238D01*
X70471429Y-50500000D01*
X70328571Y-50452381D01*
X70233333Y-50452381D01*
X70090476Y-50500000D01*
X70042857Y-50547619D01*
X69090476Y-51452381D02*
X69661905Y-51452381D01*
X69376191Y-51452381D02*
X69376191Y-50452381D01*
X69471429Y-50595238D01*
X69566667Y-50690476D01*
X69661905Y-50738095D01*
X68614286Y-51452381D02*
X68423810Y-51452381D01*
X68328571Y-51404762D01*
X68280952Y-51357143D01*
X68185714Y-51214286D01*
X68138095Y-51023810D01*
X68138095Y-50642857D01*
X68185714Y-50547619D01*
X68233333Y-50500000D01*
X68328571Y-50452381D01*
X68519048Y-50452381D01*
X68614286Y-50500000D01*
X68661905Y-50547619D01*
X68709524Y-50642857D01*
X68709524Y-50880952D01*
X68661905Y-50976190D01*
X68614286Y-51023810D01*
X68519048Y-51071429D01*
X68328571Y-51071429D01*
X68233333Y-51023810D01*
X68185714Y-50976190D01*
X68138095Y-50880952D01*
X63042857Y-63557143D02*
X63090476Y-63604762D01*
X63233333Y-63652381D01*
X63328571Y-63652381D01*
X63471429Y-63604762D01*
X63566667Y-63509524D01*
X63614286Y-63414286D01*
X63661905Y-63223810D01*
X63661905Y-63080952D01*
X63614286Y-62890476D01*
X63566667Y-62795238D01*
X63471429Y-62700000D01*
X63328571Y-62652381D01*
X63233333Y-62652381D01*
X63090476Y-62700000D01*
X63042857Y-62747619D01*
X62661905Y-62747619D02*
X62614286Y-62700000D01*
X62519048Y-62652381D01*
X62280952Y-62652381D01*
X62185714Y-62700000D01*
X62138095Y-62747619D01*
X62090476Y-62842857D01*
X62090476Y-62938095D01*
X62138095Y-63080952D01*
X62709524Y-63652381D01*
X62090476Y-63652381D01*
X61471429Y-62652381D02*
X61376190Y-62652381D01*
X61280952Y-62700000D01*
X61233333Y-62747619D01*
X61185714Y-62842857D01*
X61138095Y-63033333D01*
X61138095Y-63271429D01*
X61185714Y-63461905D01*
X61233333Y-63557143D01*
X61280952Y-63604762D01*
X61376190Y-63652381D01*
X61471429Y-63652381D01*
X61566667Y-63604762D01*
X61614286Y-63557143D01*
X61661905Y-63461905D01*
X61709524Y-63271429D01*
X61709524Y-63033333D01*
X61661905Y-62842857D01*
X61614286Y-62747619D01*
X61566667Y-62700000D01*
X61471429Y-62652381D01*
X61242857Y-74557143D02*
X61290476Y-74604762D01*
X61433333Y-74652381D01*
X61528571Y-74652381D01*
X61671429Y-74604762D01*
X61766667Y-74509524D01*
X61814286Y-74414286D01*
X61861905Y-74223810D01*
X61861905Y-74080952D01*
X61814286Y-73890476D01*
X61766667Y-73795238D01*
X61671429Y-73700000D01*
X61528571Y-73652381D01*
X61433333Y-73652381D01*
X61290476Y-73700000D01*
X61242857Y-73747619D01*
X60861905Y-73747619D02*
X60814286Y-73700000D01*
X60719048Y-73652381D01*
X60480952Y-73652381D01*
X60385714Y-73700000D01*
X60338095Y-73747619D01*
X60290476Y-73842857D01*
X60290476Y-73938095D01*
X60338095Y-74080952D01*
X60909524Y-74652381D01*
X60290476Y-74652381D01*
X59338095Y-74652381D02*
X59909524Y-74652381D01*
X59623810Y-74652381D02*
X59623810Y-73652381D01*
X59719048Y-73795238D01*
X59814286Y-73890476D01*
X59909524Y-73938095D01*
X61042857Y-96557143D02*
X61090476Y-96604762D01*
X61233333Y-96652381D01*
X61328571Y-96652381D01*
X61471429Y-96604762D01*
X61566667Y-96509524D01*
X61614286Y-96414286D01*
X61661905Y-96223810D01*
X61661905Y-96080952D01*
X61614286Y-95890476D01*
X61566667Y-95795238D01*
X61471429Y-95700000D01*
X61328571Y-95652381D01*
X61233333Y-95652381D01*
X61090476Y-95700000D01*
X61042857Y-95747619D01*
X60661905Y-95747619D02*
X60614286Y-95700000D01*
X60519048Y-95652381D01*
X60280952Y-95652381D01*
X60185714Y-95700000D01*
X60138095Y-95747619D01*
X60090476Y-95842857D01*
X60090476Y-95938095D01*
X60138095Y-96080952D01*
X60709524Y-96652381D01*
X60090476Y-96652381D01*
X59709524Y-95747619D02*
X59661905Y-95700000D01*
X59566667Y-95652381D01*
X59328571Y-95652381D01*
X59233333Y-95700000D01*
X59185714Y-95747619D01*
X59138095Y-95842857D01*
X59138095Y-95938095D01*
X59185714Y-96080952D01*
X59757143Y-96652381D01*
X59138095Y-96652381D01*
X60842857Y-107557143D02*
X60890476Y-107604762D01*
X61033333Y-107652381D01*
X61128571Y-107652381D01*
X61271429Y-107604762D01*
X61366667Y-107509524D01*
X61414286Y-107414286D01*
X61461905Y-107223810D01*
X61461905Y-107080952D01*
X61414286Y-106890476D01*
X61366667Y-106795238D01*
X61271429Y-106700000D01*
X61128571Y-106652381D01*
X61033333Y-106652381D01*
X60890476Y-106700000D01*
X60842857Y-106747619D01*
X60461905Y-106747619D02*
X60414286Y-106700000D01*
X60319048Y-106652381D01*
X60080952Y-106652381D01*
X59985714Y-106700000D01*
X59938095Y-106747619D01*
X59890476Y-106842857D01*
X59890476Y-106938095D01*
X59938095Y-107080952D01*
X60509524Y-107652381D01*
X59890476Y-107652381D01*
X59557143Y-106652381D02*
X58938095Y-106652381D01*
X59271429Y-107033333D01*
X59128571Y-107033333D01*
X59033333Y-107080952D01*
X58985714Y-107128571D01*
X58938095Y-107223810D01*
X58938095Y-107461905D01*
X58985714Y-107557143D01*
X59033333Y-107604762D01*
X59128571Y-107652381D01*
X59414286Y-107652381D01*
X59509524Y-107604762D01*
X59557143Y-107557143D01*
X73342857Y-133657143D02*
X73390476Y-133704762D01*
X73533333Y-133752381D01*
X73628571Y-133752381D01*
X73771429Y-133704762D01*
X73866667Y-133609524D01*
X73914286Y-133514286D01*
X73961905Y-133323810D01*
X73961905Y-133180952D01*
X73914286Y-132990476D01*
X73866667Y-132895238D01*
X73771429Y-132800000D01*
X73628571Y-132752381D01*
X73533333Y-132752381D01*
X73390476Y-132800000D01*
X73342857Y-132847619D01*
X72961905Y-132847619D02*
X72914286Y-132800000D01*
X72819048Y-132752381D01*
X72580952Y-132752381D01*
X72485714Y-132800000D01*
X72438095Y-132847619D01*
X72390476Y-132942857D01*
X72390476Y-133038095D01*
X72438095Y-133180952D01*
X73009524Y-133752381D01*
X72390476Y-133752381D01*
X71533333Y-133085714D02*
X71533333Y-133752381D01*
X71771429Y-132704762D02*
X72009524Y-133419048D01*
X71390476Y-133419048D01*
X97842857Y-57957143D02*
X97890476Y-58004762D01*
X98033333Y-58052381D01*
X98128571Y-58052381D01*
X98271429Y-58004762D01*
X98366667Y-57909524D01*
X98414286Y-57814286D01*
X98461905Y-57623810D01*
X98461905Y-57480952D01*
X98414286Y-57290476D01*
X98366667Y-57195238D01*
X98271429Y-57100000D01*
X98128571Y-57052381D01*
X98033333Y-57052381D01*
X97890476Y-57100000D01*
X97842857Y-57147619D01*
X97461905Y-57147619D02*
X97414286Y-57100000D01*
X97319048Y-57052381D01*
X97080952Y-57052381D01*
X96985714Y-57100000D01*
X96938095Y-57147619D01*
X96890476Y-57242857D01*
X96890476Y-57338095D01*
X96938095Y-57480952D01*
X97509524Y-58052381D01*
X96890476Y-58052381D01*
X95985714Y-57052381D02*
X96461905Y-57052381D01*
X96509524Y-57528571D01*
X96461905Y-57480952D01*
X96366667Y-57433333D01*
X96128571Y-57433333D01*
X96033333Y-57480952D01*
X95985714Y-57528571D01*
X95938095Y-57623810D01*
X95938095Y-57861905D01*
X95985714Y-57957143D01*
X96033333Y-58004762D01*
X96128571Y-58052381D01*
X96366667Y-58052381D01*
X96461905Y-58004762D01*
X96509524Y-57957143D01*
X89642857Y-69957143D02*
X89690476Y-70004762D01*
X89833333Y-70052381D01*
X89928571Y-70052381D01*
X90071429Y-70004762D01*
X90166667Y-69909524D01*
X90214286Y-69814286D01*
X90261905Y-69623810D01*
X90261905Y-69480952D01*
X90214286Y-69290476D01*
X90166667Y-69195238D01*
X90071429Y-69100000D01*
X89928571Y-69052381D01*
X89833333Y-69052381D01*
X89690476Y-69100000D01*
X89642857Y-69147619D01*
X89261905Y-69147619D02*
X89214286Y-69100000D01*
X89119048Y-69052381D01*
X88880952Y-69052381D01*
X88785714Y-69100000D01*
X88738095Y-69147619D01*
X88690476Y-69242857D01*
X88690476Y-69338095D01*
X88738095Y-69480952D01*
X89309524Y-70052381D01*
X88690476Y-70052381D01*
X87833333Y-69052381D02*
X88023810Y-69052381D01*
X88119048Y-69100000D01*
X88166667Y-69147619D01*
X88261905Y-69290476D01*
X88309524Y-69480952D01*
X88309524Y-69861905D01*
X88261905Y-69957143D01*
X88214286Y-70004762D01*
X88119048Y-70052381D01*
X87928571Y-70052381D01*
X87833333Y-70004762D01*
X87785714Y-69957143D01*
X87738095Y-69861905D01*
X87738095Y-69623810D01*
X87785714Y-69528571D01*
X87833333Y-69480952D01*
X87928571Y-69433333D01*
X88119048Y-69433333D01*
X88214286Y-69480952D01*
X88261905Y-69528571D01*
X88309524Y-69623810D01*
X87042857Y-81157143D02*
X87090476Y-81204762D01*
X87233333Y-81252381D01*
X87328571Y-81252381D01*
X87471429Y-81204762D01*
X87566667Y-81109524D01*
X87614286Y-81014286D01*
X87661905Y-80823810D01*
X87661905Y-80680952D01*
X87614286Y-80490476D01*
X87566667Y-80395238D01*
X87471429Y-80300000D01*
X87328571Y-80252381D01*
X87233333Y-80252381D01*
X87090476Y-80300000D01*
X87042857Y-80347619D01*
X86661905Y-80347619D02*
X86614286Y-80300000D01*
X86519048Y-80252381D01*
X86280952Y-80252381D01*
X86185714Y-80300000D01*
X86138095Y-80347619D01*
X86090476Y-80442857D01*
X86090476Y-80538095D01*
X86138095Y-80680952D01*
X86709524Y-81252381D01*
X86090476Y-81252381D01*
X85757143Y-80252381D02*
X85090476Y-80252381D01*
X85519048Y-81252381D01*
X87392857Y-104171143D02*
X87440476Y-104218762D01*
X87583333Y-104266381D01*
X87678571Y-104266381D01*
X87821429Y-104218762D01*
X87916667Y-104123524D01*
X87964286Y-104028286D01*
X88011905Y-103837810D01*
X88011905Y-103694952D01*
X87964286Y-103504476D01*
X87916667Y-103409238D01*
X87821429Y-103314000D01*
X87678571Y-103266381D01*
X87583333Y-103266381D01*
X87440476Y-103314000D01*
X87392857Y-103361619D01*
X87011905Y-103361619D02*
X86964286Y-103314000D01*
X86869048Y-103266381D01*
X86630952Y-103266381D01*
X86535714Y-103314000D01*
X86488095Y-103361619D01*
X86440476Y-103456857D01*
X86440476Y-103552095D01*
X86488095Y-103694952D01*
X87059524Y-104266381D01*
X86440476Y-104266381D01*
X85869048Y-103694952D02*
X85964286Y-103647333D01*
X86011905Y-103599714D01*
X86059524Y-103504476D01*
X86059524Y-103456857D01*
X86011905Y-103361619D01*
X85964286Y-103314000D01*
X85869048Y-103266381D01*
X85678571Y-103266381D01*
X85583333Y-103314000D01*
X85535714Y-103361619D01*
X85488095Y-103456857D01*
X85488095Y-103504476D01*
X85535714Y-103599714D01*
X85583333Y-103647333D01*
X85678571Y-103694952D01*
X85869048Y-103694952D01*
X85964286Y-103742571D01*
X86011905Y-103790190D01*
X86059524Y-103885429D01*
X86059524Y-104075905D01*
X86011905Y-104171143D01*
X85964286Y-104218762D01*
X85869048Y-104266381D01*
X85678571Y-104266381D01*
X85583333Y-104218762D01*
X85535714Y-104171143D01*
X85488095Y-104075905D01*
X85488095Y-103885429D01*
X85535714Y-103790190D01*
X85583333Y-103742571D01*
X85678571Y-103694952D01*
X89442857Y-114357143D02*
X89490476Y-114404762D01*
X89633333Y-114452381D01*
X89728571Y-114452381D01*
X89871429Y-114404762D01*
X89966667Y-114309524D01*
X90014286Y-114214286D01*
X90061905Y-114023810D01*
X90061905Y-113880952D01*
X90014286Y-113690476D01*
X89966667Y-113595238D01*
X89871429Y-113500000D01*
X89728571Y-113452381D01*
X89633333Y-113452381D01*
X89490476Y-113500000D01*
X89442857Y-113547619D01*
X89061905Y-113547619D02*
X89014286Y-113500000D01*
X88919048Y-113452381D01*
X88680952Y-113452381D01*
X88585714Y-113500000D01*
X88538095Y-113547619D01*
X88490476Y-113642857D01*
X88490476Y-113738095D01*
X88538095Y-113880952D01*
X89109524Y-114452381D01*
X88490476Y-114452381D01*
X88014286Y-114452381D02*
X87823810Y-114452381D01*
X87728571Y-114404762D01*
X87680952Y-114357143D01*
X87585714Y-114214286D01*
X87538095Y-114023810D01*
X87538095Y-113642857D01*
X87585714Y-113547619D01*
X87633333Y-113500000D01*
X87728571Y-113452381D01*
X87919048Y-113452381D01*
X88014286Y-113500000D01*
X88061905Y-113547619D01*
X88109524Y-113642857D01*
X88109524Y-113880952D01*
X88061905Y-113976190D01*
X88014286Y-114023810D01*
X87919048Y-114071429D01*
X87728571Y-114071429D01*
X87633333Y-114023810D01*
X87585714Y-113976190D01*
X87538095Y-113880952D01*
X64442857Y-130757143D02*
X64490476Y-130804762D01*
X64633333Y-130852381D01*
X64728571Y-130852381D01*
X64871429Y-130804762D01*
X64966667Y-130709524D01*
X65014286Y-130614286D01*
X65061905Y-130423810D01*
X65061905Y-130280952D01*
X65014286Y-130090476D01*
X64966667Y-129995238D01*
X64871429Y-129900000D01*
X64728571Y-129852381D01*
X64633333Y-129852381D01*
X64490476Y-129900000D01*
X64442857Y-129947619D01*
X64109524Y-129852381D02*
X63490476Y-129852381D01*
X63823810Y-130233333D01*
X63680952Y-130233333D01*
X63585714Y-130280952D01*
X63538095Y-130328571D01*
X63490476Y-130423810D01*
X63490476Y-130661905D01*
X63538095Y-130757143D01*
X63585714Y-130804762D01*
X63680952Y-130852381D01*
X63966667Y-130852381D01*
X64061905Y-130804762D01*
X64109524Y-130757143D01*
X62871429Y-129852381D02*
X62776190Y-129852381D01*
X62680952Y-129900000D01*
X62633333Y-129947619D01*
X62585714Y-130042857D01*
X62538095Y-130233333D01*
X62538095Y-130471429D01*
X62585714Y-130661905D01*
X62633333Y-130757143D01*
X62680952Y-130804762D01*
X62776190Y-130852381D01*
X62871429Y-130852381D01*
X62966667Y-130804762D01*
X63014286Y-130757143D01*
X63061905Y-130661905D01*
X63109524Y-130471429D01*
X63109524Y-130233333D01*
X63061905Y-130042857D01*
X63014286Y-129947619D01*
X62966667Y-129900000D01*
X62871429Y-129852381D01*
X98142857Y-92421143D02*
X98190476Y-92468762D01*
X98333333Y-92516381D01*
X98428571Y-92516381D01*
X98571429Y-92468762D01*
X98666667Y-92373524D01*
X98714286Y-92278286D01*
X98761905Y-92087810D01*
X98761905Y-91944952D01*
X98714286Y-91754476D01*
X98666667Y-91659238D01*
X98571429Y-91564000D01*
X98428571Y-91516381D01*
X98333333Y-91516381D01*
X98190476Y-91564000D01*
X98142857Y-91611619D01*
X97809524Y-91516381D02*
X97190476Y-91516381D01*
X97523810Y-91897333D01*
X97380952Y-91897333D01*
X97285714Y-91944952D01*
X97238095Y-91992571D01*
X97190476Y-92087810D01*
X97190476Y-92325905D01*
X97238095Y-92421143D01*
X97285714Y-92468762D01*
X97380952Y-92516381D01*
X97666667Y-92516381D01*
X97761905Y-92468762D01*
X97809524Y-92421143D01*
X96238095Y-92516381D02*
X96809524Y-92516381D01*
X96523810Y-92516381D02*
X96523810Y-91516381D01*
X96619048Y-91659238D01*
X96714286Y-91754476D01*
X96809524Y-91802095D01*
X104842857Y-54957143D02*
X104890476Y-55004762D01*
X105033333Y-55052381D01*
X105128571Y-55052381D01*
X105271429Y-55004762D01*
X105366667Y-54909524D01*
X105414286Y-54814286D01*
X105461905Y-54623810D01*
X105461905Y-54480952D01*
X105414286Y-54290476D01*
X105366667Y-54195238D01*
X105271429Y-54100000D01*
X105128571Y-54052381D01*
X105033333Y-54052381D01*
X104890476Y-54100000D01*
X104842857Y-54147619D01*
X104509524Y-54052381D02*
X103890476Y-54052381D01*
X104223810Y-54433333D01*
X104080952Y-54433333D01*
X103985714Y-54480952D01*
X103938095Y-54528571D01*
X103890476Y-54623810D01*
X103890476Y-54861905D01*
X103938095Y-54957143D01*
X103985714Y-55004762D01*
X104080952Y-55052381D01*
X104366667Y-55052381D01*
X104461905Y-55004762D01*
X104509524Y-54957143D01*
X103509524Y-54147619D02*
X103461905Y-54100000D01*
X103366667Y-54052381D01*
X103128571Y-54052381D01*
X103033333Y-54100000D01*
X102985714Y-54147619D01*
X102938095Y-54242857D01*
X102938095Y-54338095D01*
X102985714Y-54480952D01*
X103557143Y-55052381D01*
X102938095Y-55052381D01*
X99642857Y-69757143D02*
X99690476Y-69804762D01*
X99833333Y-69852381D01*
X99928571Y-69852381D01*
X100071429Y-69804762D01*
X100166667Y-69709524D01*
X100214286Y-69614286D01*
X100261905Y-69423810D01*
X100261905Y-69280952D01*
X100214286Y-69090476D01*
X100166667Y-68995238D01*
X100071429Y-68900000D01*
X99928571Y-68852381D01*
X99833333Y-68852381D01*
X99690476Y-68900000D01*
X99642857Y-68947619D01*
X99309524Y-68852381D02*
X98690476Y-68852381D01*
X99023810Y-69233333D01*
X98880952Y-69233333D01*
X98785714Y-69280952D01*
X98738095Y-69328571D01*
X98690476Y-69423810D01*
X98690476Y-69661905D01*
X98738095Y-69757143D01*
X98785714Y-69804762D01*
X98880952Y-69852381D01*
X99166667Y-69852381D01*
X99261905Y-69804762D01*
X99309524Y-69757143D01*
X98357143Y-68852381D02*
X97738095Y-68852381D01*
X98071429Y-69233333D01*
X97928571Y-69233333D01*
X97833333Y-69280952D01*
X97785714Y-69328571D01*
X97738095Y-69423810D01*
X97738095Y-69661905D01*
X97785714Y-69757143D01*
X97833333Y-69804762D01*
X97928571Y-69852381D01*
X98214286Y-69852381D01*
X98309524Y-69804762D01*
X98357143Y-69757143D01*
X98042857Y-80957143D02*
X98090476Y-81004762D01*
X98233333Y-81052381D01*
X98328571Y-81052381D01*
X98471429Y-81004762D01*
X98566667Y-80909524D01*
X98614286Y-80814286D01*
X98661905Y-80623810D01*
X98661905Y-80480952D01*
X98614286Y-80290476D01*
X98566667Y-80195238D01*
X98471429Y-80100000D01*
X98328571Y-80052381D01*
X98233333Y-80052381D01*
X98090476Y-80100000D01*
X98042857Y-80147619D01*
X97709524Y-80052381D02*
X97090476Y-80052381D01*
X97423810Y-80433333D01*
X97280952Y-80433333D01*
X97185714Y-80480952D01*
X97138095Y-80528571D01*
X97090476Y-80623810D01*
X97090476Y-80861905D01*
X97138095Y-80957143D01*
X97185714Y-81004762D01*
X97280952Y-81052381D01*
X97566667Y-81052381D01*
X97661905Y-81004762D01*
X97709524Y-80957143D01*
X96233333Y-80385714D02*
X96233333Y-81052381D01*
X96471429Y-80004762D02*
X96709524Y-80719048D01*
X96090476Y-80719048D01*
X104842857Y-81957143D02*
X104890476Y-82004762D01*
X105033333Y-82052381D01*
X105128571Y-82052381D01*
X105271429Y-82004762D01*
X105366667Y-81909524D01*
X105414286Y-81814286D01*
X105461905Y-81623810D01*
X105461905Y-81480952D01*
X105414286Y-81290476D01*
X105366667Y-81195238D01*
X105271429Y-81100000D01*
X105128571Y-81052381D01*
X105033333Y-81052381D01*
X104890476Y-81100000D01*
X104842857Y-81147619D01*
X104509524Y-81052381D02*
X103890476Y-81052381D01*
X104223810Y-81433333D01*
X104080952Y-81433333D01*
X103985714Y-81480952D01*
X103938095Y-81528571D01*
X103890476Y-81623810D01*
X103890476Y-81861905D01*
X103938095Y-81957143D01*
X103985714Y-82004762D01*
X104080952Y-82052381D01*
X104366667Y-82052381D01*
X104461905Y-82004762D01*
X104509524Y-81957143D01*
X102985714Y-81052381D02*
X103461905Y-81052381D01*
X103509524Y-81528571D01*
X103461905Y-81480952D01*
X103366667Y-81433333D01*
X103128571Y-81433333D01*
X103033333Y-81480952D01*
X102985714Y-81528571D01*
X102938095Y-81623810D01*
X102938095Y-81861905D01*
X102985714Y-81957143D01*
X103033333Y-82004762D01*
X103128571Y-82052381D01*
X103366667Y-82052381D01*
X103461905Y-82004762D01*
X103509524Y-81957143D01*
X97642857Y-103357143D02*
X97690476Y-103404762D01*
X97833333Y-103452381D01*
X97928571Y-103452381D01*
X98071429Y-103404762D01*
X98166667Y-103309524D01*
X98214286Y-103214286D01*
X98261905Y-103023810D01*
X98261905Y-102880952D01*
X98214286Y-102690476D01*
X98166667Y-102595238D01*
X98071429Y-102500000D01*
X97928571Y-102452381D01*
X97833333Y-102452381D01*
X97690476Y-102500000D01*
X97642857Y-102547619D01*
X97309524Y-102452381D02*
X96690476Y-102452381D01*
X97023810Y-102833333D01*
X96880952Y-102833333D01*
X96785714Y-102880952D01*
X96738095Y-102928571D01*
X96690476Y-103023810D01*
X96690476Y-103261905D01*
X96738095Y-103357143D01*
X96785714Y-103404762D01*
X96880952Y-103452381D01*
X97166667Y-103452381D01*
X97261905Y-103404762D01*
X97309524Y-103357143D01*
X95833333Y-102452381D02*
X96023810Y-102452381D01*
X96119048Y-102500000D01*
X96166667Y-102547619D01*
X96261905Y-102690476D01*
X96309524Y-102880952D01*
X96309524Y-103261905D01*
X96261905Y-103357143D01*
X96214286Y-103404762D01*
X96119048Y-103452381D01*
X95928571Y-103452381D01*
X95833333Y-103404762D01*
X95785714Y-103357143D01*
X95738095Y-103261905D01*
X95738095Y-103023810D01*
X95785714Y-102928571D01*
X95833333Y-102880952D01*
X95928571Y-102833333D01*
X96119048Y-102833333D01*
X96214286Y-102880952D01*
X96261905Y-102928571D01*
X96309524Y-103023810D01*
X99442857Y-114357143D02*
X99490476Y-114404762D01*
X99633333Y-114452381D01*
X99728571Y-114452381D01*
X99871429Y-114404762D01*
X99966667Y-114309524D01*
X100014286Y-114214286D01*
X100061905Y-114023810D01*
X100061905Y-113880952D01*
X100014286Y-113690476D01*
X99966667Y-113595238D01*
X99871429Y-113500000D01*
X99728571Y-113452381D01*
X99633333Y-113452381D01*
X99490476Y-113500000D01*
X99442857Y-113547619D01*
X99109524Y-113452381D02*
X98490476Y-113452381D01*
X98823810Y-113833333D01*
X98680952Y-113833333D01*
X98585714Y-113880952D01*
X98538095Y-113928571D01*
X98490476Y-114023810D01*
X98490476Y-114261905D01*
X98538095Y-114357143D01*
X98585714Y-114404762D01*
X98680952Y-114452381D01*
X98966667Y-114452381D01*
X99061905Y-114404762D01*
X99109524Y-114357143D01*
X98157143Y-113452381D02*
X97490476Y-113452381D01*
X97919048Y-114452381D01*
X78842857Y-123157143D02*
X78890476Y-123204762D01*
X79033333Y-123252381D01*
X79128571Y-123252381D01*
X79271429Y-123204762D01*
X79366667Y-123109524D01*
X79414286Y-123014286D01*
X79461905Y-122823810D01*
X79461905Y-122680952D01*
X79414286Y-122490476D01*
X79366667Y-122395238D01*
X79271429Y-122300000D01*
X79128571Y-122252381D01*
X79033333Y-122252381D01*
X78890476Y-122300000D01*
X78842857Y-122347619D01*
X78509524Y-122252381D02*
X77890476Y-122252381D01*
X78223810Y-122633333D01*
X78080952Y-122633333D01*
X77985714Y-122680952D01*
X77938095Y-122728571D01*
X77890476Y-122823810D01*
X77890476Y-123061905D01*
X77938095Y-123157143D01*
X77985714Y-123204762D01*
X78080952Y-123252381D01*
X78366667Y-123252381D01*
X78461905Y-123204762D01*
X78509524Y-123157143D01*
X77319048Y-122680952D02*
X77414286Y-122633333D01*
X77461905Y-122585714D01*
X77509524Y-122490476D01*
X77509524Y-122442857D01*
X77461905Y-122347619D01*
X77414286Y-122300000D01*
X77319048Y-122252381D01*
X77128571Y-122252381D01*
X77033333Y-122300000D01*
X76985714Y-122347619D01*
X76938095Y-122442857D01*
X76938095Y-122490476D01*
X76985714Y-122585714D01*
X77033333Y-122633333D01*
X77128571Y-122680952D01*
X77319048Y-122680952D01*
X77414286Y-122728571D01*
X77461905Y-122776190D01*
X77509524Y-122871429D01*
X77509524Y-123061905D01*
X77461905Y-123157143D01*
X77414286Y-123204762D01*
X77319048Y-123252381D01*
X77128571Y-123252381D01*
X77033333Y-123204762D01*
X76985714Y-123157143D01*
X76938095Y-123061905D01*
X76938095Y-122871429D01*
X76985714Y-122776190D01*
X77033333Y-122728571D01*
X77128571Y-122680952D01*
X114242857Y-58957143D02*
X114290476Y-59004762D01*
X114433333Y-59052381D01*
X114528571Y-59052381D01*
X114671429Y-59004762D01*
X114766667Y-58909524D01*
X114814286Y-58814286D01*
X114861905Y-58623810D01*
X114861905Y-58480952D01*
X114814286Y-58290476D01*
X114766667Y-58195238D01*
X114671429Y-58100000D01*
X114528571Y-58052381D01*
X114433333Y-58052381D01*
X114290476Y-58100000D01*
X114242857Y-58147619D01*
X113909524Y-58052381D02*
X113290476Y-58052381D01*
X113623810Y-58433333D01*
X113480952Y-58433333D01*
X113385714Y-58480952D01*
X113338095Y-58528571D01*
X113290476Y-58623810D01*
X113290476Y-58861905D01*
X113338095Y-58957143D01*
X113385714Y-59004762D01*
X113480952Y-59052381D01*
X113766667Y-59052381D01*
X113861905Y-59004762D01*
X113909524Y-58957143D01*
X112814286Y-59052381D02*
X112623810Y-59052381D01*
X112528571Y-59004762D01*
X112480952Y-58957143D01*
X112385714Y-58814286D01*
X112338095Y-58623810D01*
X112338095Y-58242857D01*
X112385714Y-58147619D01*
X112433333Y-58100000D01*
X112528571Y-58052381D01*
X112719048Y-58052381D01*
X112814286Y-58100000D01*
X112861905Y-58147619D01*
X112909524Y-58242857D01*
X112909524Y-58480952D01*
X112861905Y-58576190D01*
X112814286Y-58623810D01*
X112719048Y-58671429D01*
X112528571Y-58671429D01*
X112433333Y-58623810D01*
X112385714Y-58576190D01*
X112338095Y-58480952D01*
X117242857Y-70357143D02*
X117290476Y-70404762D01*
X117433333Y-70452381D01*
X117528571Y-70452381D01*
X117671429Y-70404762D01*
X117766667Y-70309524D01*
X117814286Y-70214286D01*
X117861905Y-70023810D01*
X117861905Y-69880952D01*
X117814286Y-69690476D01*
X117766667Y-69595238D01*
X117671429Y-69500000D01*
X117528571Y-69452381D01*
X117433333Y-69452381D01*
X117290476Y-69500000D01*
X117242857Y-69547619D01*
X116385714Y-69785714D02*
X116385714Y-70452381D01*
X116623810Y-69404762D02*
X116861905Y-70119048D01*
X116242857Y-70119048D01*
X115671429Y-69452381D02*
X115576190Y-69452381D01*
X115480952Y-69500000D01*
X115433333Y-69547619D01*
X115385714Y-69642857D01*
X115338095Y-69833333D01*
X115338095Y-70071429D01*
X115385714Y-70261905D01*
X115433333Y-70357143D01*
X115480952Y-70404762D01*
X115576190Y-70452381D01*
X115671429Y-70452381D01*
X115766667Y-70404762D01*
X115814286Y-70357143D01*
X115861905Y-70261905D01*
X115909524Y-70071429D01*
X115909524Y-69833333D01*
X115861905Y-69642857D01*
X115814286Y-69547619D01*
X115766667Y-69500000D01*
X115671429Y-69452381D01*
X120042857Y-81157143D02*
X120090476Y-81204762D01*
X120233333Y-81252381D01*
X120328571Y-81252381D01*
X120471429Y-81204762D01*
X120566667Y-81109524D01*
X120614286Y-81014286D01*
X120661905Y-80823810D01*
X120661905Y-80680952D01*
X120614286Y-80490476D01*
X120566667Y-80395238D01*
X120471429Y-80300000D01*
X120328571Y-80252381D01*
X120233333Y-80252381D01*
X120090476Y-80300000D01*
X120042857Y-80347619D01*
X119185714Y-80585714D02*
X119185714Y-81252381D01*
X119423810Y-80204762D02*
X119661905Y-80919048D01*
X119042857Y-80919048D01*
X118138095Y-81252381D02*
X118709524Y-81252381D01*
X118423810Y-81252381D02*
X118423810Y-80252381D01*
X118519048Y-80395238D01*
X118614286Y-80490476D01*
X118709524Y-80538095D01*
X117421143Y-86607143D02*
X117468762Y-86559524D01*
X117516381Y-86416667D01*
X117516381Y-86321429D01*
X117468762Y-86178571D01*
X117373524Y-86083333D01*
X117278286Y-86035714D01*
X117087810Y-85988095D01*
X116944952Y-85988095D01*
X116754476Y-86035714D01*
X116659238Y-86083333D01*
X116564000Y-86178571D01*
X116516381Y-86321429D01*
X116516381Y-86416667D01*
X116564000Y-86559524D01*
X116611619Y-86607143D01*
X116849714Y-87464286D02*
X117516381Y-87464286D01*
X116468762Y-87226190D02*
X117183048Y-86988095D01*
X117183048Y-87607143D01*
X116611619Y-87940476D02*
X116564000Y-87988095D01*
X116516381Y-88083333D01*
X116516381Y-88321429D01*
X116564000Y-88416667D01*
X116611619Y-88464286D01*
X116706857Y-88511905D01*
X116802095Y-88511905D01*
X116944952Y-88464286D01*
X117516381Y-87892857D01*
X117516381Y-88511905D01*
X120642857Y-102957143D02*
X120690476Y-103004762D01*
X120833333Y-103052381D01*
X120928571Y-103052381D01*
X121071429Y-103004762D01*
X121166667Y-102909524D01*
X121214286Y-102814286D01*
X121261905Y-102623810D01*
X121261905Y-102480952D01*
X121214286Y-102290476D01*
X121166667Y-102195238D01*
X121071429Y-102100000D01*
X120928571Y-102052381D01*
X120833333Y-102052381D01*
X120690476Y-102100000D01*
X120642857Y-102147619D01*
X119785714Y-102385714D02*
X119785714Y-103052381D01*
X120023810Y-102004762D02*
X120261905Y-102719048D01*
X119642857Y-102719048D01*
X119357143Y-102052381D02*
X118738095Y-102052381D01*
X119071429Y-102433333D01*
X118928571Y-102433333D01*
X118833333Y-102480952D01*
X118785714Y-102528571D01*
X118738095Y-102623810D01*
X118738095Y-102861905D01*
X118785714Y-102957143D01*
X118833333Y-103004762D01*
X118928571Y-103052381D01*
X119214286Y-103052381D01*
X119309524Y-103004762D01*
X119357143Y-102957143D01*
X118042857Y-114157143D02*
X118090476Y-114204762D01*
X118233333Y-114252381D01*
X118328571Y-114252381D01*
X118471429Y-114204762D01*
X118566667Y-114109524D01*
X118614286Y-114014286D01*
X118661905Y-113823810D01*
X118661905Y-113680952D01*
X118614286Y-113490476D01*
X118566667Y-113395238D01*
X118471429Y-113300000D01*
X118328571Y-113252381D01*
X118233333Y-113252381D01*
X118090476Y-113300000D01*
X118042857Y-113347619D01*
X117185714Y-113585714D02*
X117185714Y-114252381D01*
X117423810Y-113204762D02*
X117661905Y-113919048D01*
X117042857Y-113919048D01*
X116233333Y-113585714D02*
X116233333Y-114252381D01*
X116471429Y-113204762D02*
X116709524Y-113919048D01*
X116090476Y-113919048D01*
X59442857Y-120357143D02*
X59490476Y-120404762D01*
X59633333Y-120452381D01*
X59728571Y-120452381D01*
X59871429Y-120404762D01*
X59966667Y-120309524D01*
X60014286Y-120214286D01*
X60061905Y-120023810D01*
X60061905Y-119880952D01*
X60014286Y-119690476D01*
X59966667Y-119595238D01*
X59871429Y-119500000D01*
X59728571Y-119452381D01*
X59633333Y-119452381D01*
X59490476Y-119500000D01*
X59442857Y-119547619D01*
X58585714Y-119785714D02*
X58585714Y-120452381D01*
X58823810Y-119404762D02*
X59061905Y-120119048D01*
X58442857Y-120119048D01*
X57585714Y-119452381D02*
X58061905Y-119452381D01*
X58109524Y-119928571D01*
X58061905Y-119880952D01*
X57966667Y-119833333D01*
X57728571Y-119833333D01*
X57633333Y-119880952D01*
X57585714Y-119928571D01*
X57538095Y-120023810D01*
X57538095Y-120261905D01*
X57585714Y-120357143D01*
X57633333Y-120404762D01*
X57728571Y-120452381D01*
X57966667Y-120452381D01*
X58061905Y-120404762D01*
X58109524Y-120357143D01*
X119842857Y-58757143D02*
X119890476Y-58804762D01*
X120033333Y-58852381D01*
X120128571Y-58852381D01*
X120271429Y-58804762D01*
X120366667Y-58709524D01*
X120414286Y-58614286D01*
X120461905Y-58423810D01*
X120461905Y-58280952D01*
X120414286Y-58090476D01*
X120366667Y-57995238D01*
X120271429Y-57900000D01*
X120128571Y-57852381D01*
X120033333Y-57852381D01*
X119890476Y-57900000D01*
X119842857Y-57947619D01*
X118985714Y-58185714D02*
X118985714Y-58852381D01*
X119223810Y-57804762D02*
X119461905Y-58519048D01*
X118842857Y-58519048D01*
X118033333Y-57852381D02*
X118223810Y-57852381D01*
X118319048Y-57900000D01*
X118366667Y-57947619D01*
X118461905Y-58090476D01*
X118509524Y-58280952D01*
X118509524Y-58661905D01*
X118461905Y-58757143D01*
X118414286Y-58804762D01*
X118319048Y-58852381D01*
X118128571Y-58852381D01*
X118033333Y-58804762D01*
X117985714Y-58757143D01*
X117938095Y-58661905D01*
X117938095Y-58423810D01*
X117985714Y-58328571D01*
X118033333Y-58280952D01*
X118128571Y-58233333D01*
X118319048Y-58233333D01*
X118414286Y-58280952D01*
X118461905Y-58328571D01*
X118509524Y-58423810D01*
X124242857Y-60557143D02*
X124290476Y-60604762D01*
X124433333Y-60652381D01*
X124528571Y-60652381D01*
X124671429Y-60604762D01*
X124766667Y-60509524D01*
X124814286Y-60414286D01*
X124861905Y-60223810D01*
X124861905Y-60080952D01*
X124814286Y-59890476D01*
X124766667Y-59795238D01*
X124671429Y-59700000D01*
X124528571Y-59652381D01*
X124433333Y-59652381D01*
X124290476Y-59700000D01*
X124242857Y-59747619D01*
X123385714Y-59985714D02*
X123385714Y-60652381D01*
X123623810Y-59604762D02*
X123861905Y-60319048D01*
X123242857Y-60319048D01*
X122957143Y-59652381D02*
X122290476Y-59652381D01*
X122719048Y-60652381D01*
X127242857Y-71157143D02*
X127290476Y-71204762D01*
X127433333Y-71252381D01*
X127528571Y-71252381D01*
X127671429Y-71204762D01*
X127766667Y-71109524D01*
X127814286Y-71014286D01*
X127861905Y-70823810D01*
X127861905Y-70680952D01*
X127814286Y-70490476D01*
X127766667Y-70395238D01*
X127671429Y-70300000D01*
X127528571Y-70252381D01*
X127433333Y-70252381D01*
X127290476Y-70300000D01*
X127242857Y-70347619D01*
X126385714Y-70585714D02*
X126385714Y-71252381D01*
X126623810Y-70204762D02*
X126861905Y-70919048D01*
X126242857Y-70919048D01*
X125719048Y-70680952D02*
X125814286Y-70633333D01*
X125861905Y-70585714D01*
X125909524Y-70490476D01*
X125909524Y-70442857D01*
X125861905Y-70347619D01*
X125814286Y-70300000D01*
X125719048Y-70252381D01*
X125528571Y-70252381D01*
X125433333Y-70300000D01*
X125385714Y-70347619D01*
X125338095Y-70442857D01*
X125338095Y-70490476D01*
X125385714Y-70585714D01*
X125433333Y-70633333D01*
X125528571Y-70680952D01*
X125719048Y-70680952D01*
X125814286Y-70728571D01*
X125861905Y-70776190D01*
X125909524Y-70871429D01*
X125909524Y-71061905D01*
X125861905Y-71157143D01*
X125814286Y-71204762D01*
X125719048Y-71252381D01*
X125528571Y-71252381D01*
X125433333Y-71204762D01*
X125385714Y-71157143D01*
X125338095Y-71061905D01*
X125338095Y-70871429D01*
X125385714Y-70776190D01*
X125433333Y-70728571D01*
X125528571Y-70680952D01*
X127242857Y-93957143D02*
X127290476Y-94004762D01*
X127433333Y-94052381D01*
X127528571Y-94052381D01*
X127671429Y-94004762D01*
X127766667Y-93909524D01*
X127814286Y-93814286D01*
X127861905Y-93623810D01*
X127861905Y-93480952D01*
X127814286Y-93290476D01*
X127766667Y-93195238D01*
X127671429Y-93100000D01*
X127528571Y-93052381D01*
X127433333Y-93052381D01*
X127290476Y-93100000D01*
X127242857Y-93147619D01*
X126385714Y-93385714D02*
X126385714Y-94052381D01*
X126623810Y-93004762D02*
X126861905Y-93719048D01*
X126242857Y-93719048D01*
X125814286Y-94052381D02*
X125623810Y-94052381D01*
X125528571Y-94004762D01*
X125480952Y-93957143D01*
X125385714Y-93814286D01*
X125338095Y-93623810D01*
X125338095Y-93242857D01*
X125385714Y-93147619D01*
X125433333Y-93100000D01*
X125528571Y-93052381D01*
X125719048Y-93052381D01*
X125814286Y-93100000D01*
X125861905Y-93147619D01*
X125909524Y-93242857D01*
X125909524Y-93480952D01*
X125861905Y-93576190D01*
X125814286Y-93623810D01*
X125719048Y-93671429D01*
X125528571Y-93671429D01*
X125433333Y-93623810D01*
X125385714Y-93576190D01*
X125338095Y-93480952D01*
X124242857Y-104957143D02*
X124290476Y-105004762D01*
X124433333Y-105052381D01*
X124528571Y-105052381D01*
X124671429Y-105004762D01*
X124766667Y-104909524D01*
X124814286Y-104814286D01*
X124861905Y-104623810D01*
X124861905Y-104480952D01*
X124814286Y-104290476D01*
X124766667Y-104195238D01*
X124671429Y-104100000D01*
X124528571Y-104052381D01*
X124433333Y-104052381D01*
X124290476Y-104100000D01*
X124242857Y-104147619D01*
X123338095Y-104052381D02*
X123814286Y-104052381D01*
X123861905Y-104528571D01*
X123814286Y-104480952D01*
X123719048Y-104433333D01*
X123480952Y-104433333D01*
X123385714Y-104480952D01*
X123338095Y-104528571D01*
X123290476Y-104623810D01*
X123290476Y-104861905D01*
X123338095Y-104957143D01*
X123385714Y-105004762D01*
X123480952Y-105052381D01*
X123719048Y-105052381D01*
X123814286Y-105004762D01*
X123861905Y-104957143D01*
X122671429Y-104052381D02*
X122576190Y-104052381D01*
X122480952Y-104100000D01*
X122433333Y-104147619D01*
X122385714Y-104242857D01*
X122338095Y-104433333D01*
X122338095Y-104671429D01*
X122385714Y-104861905D01*
X122433333Y-104957143D01*
X122480952Y-105004762D01*
X122576190Y-105052381D01*
X122671429Y-105052381D01*
X122766667Y-105004762D01*
X122814286Y-104957143D01*
X122861905Y-104861905D01*
X122909524Y-104671429D01*
X122909524Y-104433333D01*
X122861905Y-104242857D01*
X122814286Y-104147619D01*
X122766667Y-104100000D01*
X122671429Y-104052381D01*
X120042857Y-93021143D02*
X120090476Y-93068762D01*
X120233333Y-93116381D01*
X120328571Y-93116381D01*
X120471429Y-93068762D01*
X120566667Y-92973524D01*
X120614286Y-92878286D01*
X120661905Y-92687810D01*
X120661905Y-92544952D01*
X120614286Y-92354476D01*
X120566667Y-92259238D01*
X120471429Y-92164000D01*
X120328571Y-92116381D01*
X120233333Y-92116381D01*
X120090476Y-92164000D01*
X120042857Y-92211619D01*
X119138095Y-92116381D02*
X119614286Y-92116381D01*
X119661905Y-92592571D01*
X119614286Y-92544952D01*
X119519048Y-92497333D01*
X119280952Y-92497333D01*
X119185714Y-92544952D01*
X119138095Y-92592571D01*
X119090476Y-92687810D01*
X119090476Y-92925905D01*
X119138095Y-93021143D01*
X119185714Y-93068762D01*
X119280952Y-93116381D01*
X119519048Y-93116381D01*
X119614286Y-93068762D01*
X119661905Y-93021143D01*
X118138095Y-93116381D02*
X118709524Y-93116381D01*
X118423810Y-93116381D02*
X118423810Y-92116381D01*
X118519048Y-92259238D01*
X118614286Y-92354476D01*
X118709524Y-92402095D01*
X127242857Y-82957143D02*
X127290476Y-83004762D01*
X127433333Y-83052381D01*
X127528571Y-83052381D01*
X127671429Y-83004762D01*
X127766667Y-82909524D01*
X127814286Y-82814286D01*
X127861905Y-82623810D01*
X127861905Y-82480952D01*
X127814286Y-82290476D01*
X127766667Y-82195238D01*
X127671429Y-82100000D01*
X127528571Y-82052381D01*
X127433333Y-82052381D01*
X127290476Y-82100000D01*
X127242857Y-82147619D01*
X126338095Y-82052381D02*
X126814286Y-82052381D01*
X126861905Y-82528571D01*
X126814286Y-82480952D01*
X126719048Y-82433333D01*
X126480952Y-82433333D01*
X126385714Y-82480952D01*
X126338095Y-82528571D01*
X126290476Y-82623810D01*
X126290476Y-82861905D01*
X126338095Y-82957143D01*
X126385714Y-83004762D01*
X126480952Y-83052381D01*
X126719048Y-83052381D01*
X126814286Y-83004762D01*
X126861905Y-82957143D01*
X125385714Y-82052381D02*
X125861905Y-82052381D01*
X125909524Y-82528571D01*
X125861905Y-82480952D01*
X125766667Y-82433333D01*
X125528571Y-82433333D01*
X125433333Y-82480952D01*
X125385714Y-82528571D01*
X125338095Y-82623810D01*
X125338095Y-82861905D01*
X125385714Y-82957143D01*
X125433333Y-83004762D01*
X125528571Y-83052381D01*
X125766667Y-83052381D01*
X125861905Y-83004762D01*
X125909524Y-82957143D01*
X74442857Y-115157143D02*
X74490476Y-115204762D01*
X74633333Y-115252381D01*
X74728571Y-115252381D01*
X74871429Y-115204762D01*
X74966667Y-115109524D01*
X75014286Y-115014286D01*
X75061905Y-114823810D01*
X75061905Y-114680952D01*
X75014286Y-114490476D01*
X74966667Y-114395238D01*
X74871429Y-114300000D01*
X74728571Y-114252381D01*
X74633333Y-114252381D01*
X74490476Y-114300000D01*
X74442857Y-114347619D01*
X73538095Y-114252381D02*
X74014286Y-114252381D01*
X74061905Y-114728571D01*
X74014286Y-114680952D01*
X73919048Y-114633333D01*
X73680952Y-114633333D01*
X73585714Y-114680952D01*
X73538095Y-114728571D01*
X73490476Y-114823810D01*
X73490476Y-115061905D01*
X73538095Y-115157143D01*
X73585714Y-115204762D01*
X73680952Y-115252381D01*
X73919048Y-115252381D01*
X74014286Y-115204762D01*
X74061905Y-115157143D01*
X73014286Y-115252381D02*
X72823810Y-115252381D01*
X72728571Y-115204762D01*
X72680952Y-115157143D01*
X72585714Y-115014286D01*
X72538095Y-114823810D01*
X72538095Y-114442857D01*
X72585714Y-114347619D01*
X72633333Y-114300000D01*
X72728571Y-114252381D01*
X72919048Y-114252381D01*
X73014286Y-114300000D01*
X73061905Y-114347619D01*
X73109524Y-114442857D01*
X73109524Y-114680952D01*
X73061905Y-114776190D01*
X73014286Y-114823810D01*
X72919048Y-114871429D01*
X72728571Y-114871429D01*
X72633333Y-114823810D01*
X72585714Y-114776190D01*
X72538095Y-114680952D01*
M02*
