G04 #@! TF.FileFunction,Soldermask,Top*
%FSLAX46Y46*%
G04 Gerber Fmt 4.6, Leading zero omitted, Abs format (unit mm)*
G04 Created by KiCad (PCBNEW 4.0.7) date 12/14/17 19:40:15*
%MOMM*%
%LPD*%
G01*
G04 APERTURE LIST*
%ADD10C,0.100000*%
%ADD11R,2.127200X2.127200*%
%ADD12O,2.127200X2.127200*%
%ADD13C,2.900000*%
%ADD14C,4.900000*%
%ADD15C,2.398980*%
%ADD16C,2.899360*%
%ADD17C,7.400000*%
%ADD18R,1.900000X5.480000*%
G04 APERTURE END LIST*
D10*
D11*
X125500000Y-130000000D03*
D12*
X125500000Y-132540000D03*
X122960000Y-130000000D03*
X122960000Y-132540000D03*
X120420000Y-130000000D03*
X120420000Y-132540000D03*
X117880000Y-130000000D03*
X117880000Y-132540000D03*
X115340000Y-130000000D03*
X115340000Y-132540000D03*
D13*
X133380000Y-70190000D03*
X133380000Y-77810000D03*
X141000000Y-70190000D03*
X141000000Y-77810000D03*
X146080000Y-70190000D03*
X146080000Y-77810000D03*
X151160000Y-70190000D03*
X151160000Y-77810000D03*
D14*
X119460000Y-95730000D03*
X124540000Y-99540000D03*
D13*
X127620000Y-122810000D03*
X127620000Y-115190000D03*
X120000000Y-122810000D03*
X120000000Y-115190000D03*
X114920000Y-122810000D03*
X114920000Y-115190000D03*
X109840000Y-122810000D03*
X109840000Y-115190000D03*
X86620000Y-54810000D03*
X86620000Y-47190000D03*
X79000000Y-54810000D03*
X79000000Y-47190000D03*
X73920000Y-54810000D03*
X73920000Y-47190000D03*
X68840000Y-54810000D03*
X68840000Y-47190000D03*
X133380000Y-103190000D03*
X133380000Y-110810000D03*
X141000000Y-103190000D03*
X141000000Y-110810000D03*
X146080000Y-103190000D03*
X146080000Y-110810000D03*
X151160000Y-103190000D03*
X151160000Y-110810000D03*
D14*
X86460000Y-95730000D03*
X91540000Y-99540000D03*
D15*
X102000000Y-140000000D03*
D16*
X104540000Y-137460000D03*
X104540000Y-142540000D03*
X99460000Y-142540000D03*
X99460000Y-137460000D03*
D15*
X139000000Y-140000000D03*
D16*
X141540000Y-137460000D03*
X141540000Y-142540000D03*
X136460000Y-142540000D03*
X136460000Y-137460000D03*
D17*
X60000000Y-50000000D03*
X150000000Y-140000000D03*
X60000000Y-140000000D03*
X150000000Y-50000000D03*
D15*
X88000000Y-140000000D03*
D16*
X90540000Y-137460000D03*
X90540000Y-142540000D03*
X85460000Y-142540000D03*
X85460000Y-137460000D03*
D14*
X86460000Y-84730000D03*
X91540000Y-88540000D03*
X75940000Y-140470000D03*
X70860000Y-136660000D03*
X93305923Y-51898026D03*
X99592102Y-51000000D03*
X88460000Y-62730000D03*
X93540000Y-66540000D03*
X86460000Y-73730000D03*
X91540000Y-77540000D03*
X88460000Y-106730000D03*
X93540000Y-110540000D03*
X73540000Y-129770000D03*
X68460000Y-125960000D03*
X110305923Y-51898026D03*
X116592102Y-51000000D03*
X116460000Y-62730000D03*
X121540000Y-66540000D03*
X119460000Y-73730000D03*
X124540000Y-77540000D03*
X116460000Y-106730000D03*
X121540000Y-110540000D03*
X68540000Y-119270000D03*
X63460000Y-115460000D03*
X119460000Y-84730000D03*
X124540000Y-88540000D03*
D13*
X84380000Y-122190000D03*
X84380000Y-129810000D03*
X92000000Y-122190000D03*
X92000000Y-129810000D03*
X97080000Y-122190000D03*
X97080000Y-129810000D03*
X102160000Y-122190000D03*
X102160000Y-129810000D03*
X79620000Y-66810000D03*
X79620000Y-59190000D03*
X72000000Y-66810000D03*
X72000000Y-59190000D03*
X66920000Y-66810000D03*
X66920000Y-59190000D03*
X61840000Y-66810000D03*
X61840000Y-59190000D03*
X77620000Y-77810000D03*
X77620000Y-70190000D03*
X70000000Y-77810000D03*
X70000000Y-70190000D03*
X64920000Y-77810000D03*
X64920000Y-70190000D03*
X59840000Y-77810000D03*
X59840000Y-70190000D03*
X77620000Y-88810000D03*
X77620000Y-81190000D03*
X70000000Y-88810000D03*
X70000000Y-81190000D03*
X64920000Y-88810000D03*
X64920000Y-81190000D03*
X59840000Y-88810000D03*
X59840000Y-81190000D03*
X77620000Y-99810000D03*
X77620000Y-92190000D03*
X70000000Y-99810000D03*
X70000000Y-92190000D03*
X64920000Y-99810000D03*
X64920000Y-92190000D03*
X59840000Y-99810000D03*
X59840000Y-92190000D03*
X77620000Y-110810000D03*
X77620000Y-103190000D03*
X70000000Y-110810000D03*
X70000000Y-103190000D03*
X64920000Y-110810000D03*
X64920000Y-103190000D03*
X59840000Y-110810000D03*
X59840000Y-103190000D03*
X123380000Y-47190000D03*
X123380000Y-54810000D03*
X131000000Y-47190000D03*
X131000000Y-54810000D03*
X136080000Y-47190000D03*
X136080000Y-54810000D03*
X141160000Y-47190000D03*
X141160000Y-54810000D03*
X130380000Y-59190000D03*
X130380000Y-66810000D03*
X138000000Y-59190000D03*
X138000000Y-66810000D03*
X143080000Y-59190000D03*
X143080000Y-66810000D03*
X148160000Y-59190000D03*
X148160000Y-66810000D03*
X133380000Y-81190000D03*
X133380000Y-88810000D03*
X141000000Y-81190000D03*
X141000000Y-88810000D03*
X146080000Y-81190000D03*
X146080000Y-88810000D03*
X151160000Y-81190000D03*
X151160000Y-88810000D03*
X133380000Y-92190000D03*
X133380000Y-99810000D03*
X141000000Y-92190000D03*
X141000000Y-99810000D03*
X146080000Y-92190000D03*
X146080000Y-99810000D03*
X151160000Y-92190000D03*
X151160000Y-99810000D03*
X133380000Y-115190000D03*
X133380000Y-122810000D03*
X141000000Y-115190000D03*
X141000000Y-122810000D03*
X146080000Y-115190000D03*
X146080000Y-122810000D03*
X151160000Y-115190000D03*
X151160000Y-122810000D03*
D14*
X102305923Y-87898026D03*
X108592102Y-87000000D03*
D18*
X97750000Y-142000000D03*
X106250000Y-142000000D03*
X102000000Y-142000000D03*
X83750000Y-142000000D03*
X92250000Y-142000000D03*
X88000000Y-142000000D03*
X134750000Y-142000000D03*
X143250000Y-142000000D03*
X139000000Y-142000000D03*
M02*
