M48
;DRILL file {KiCad 4.0.7} date 01/05/18 19:14:02
;FORMAT={3:3/ absolute / metric / suppress leading zeros}
FMAT,2
METRIC,TZ
T1C0.300
T2C0.400
T3C1.000
T4C1.016
T5C1.300
T6C1.500
T7C3.500
%
G90
G05
M71
T1
X56000Y-54000
X56000Y-55000
X56000Y-56000
X56000Y-57000
X56000Y-58000
X56000Y-59000
X56000Y-60000
X56000Y-61000
X56000Y-62000
X56000Y-63000
X56000Y-64000
X56000Y-65000
X56000Y-66000
X56000Y-67000
X56000Y-68000
X56000Y-69000
X56000Y-70000
X56000Y-71000
X56000Y-72000
X56000Y-73000
X56000Y-74000
X56000Y-75000
X56000Y-76000
X56000Y-77000
X56000Y-78000
X56000Y-79000
X56000Y-80000
X56000Y-81000
X56000Y-82000
X56000Y-83000
X56000Y-84000
X56000Y-85000
X56000Y-86000
X56000Y-87000
X56000Y-88000
X56000Y-89000
X56000Y-90000
X56000Y-91000
X56000Y-92000
X56000Y-93000
X56000Y-94000
X56000Y-95000
X56000Y-96000
X56000Y-97000
X56000Y-98000
X56000Y-99000
X56000Y-100000
X56000Y-101000
X56000Y-102000
X56000Y-103000
X56000Y-104000
X56000Y-105000
X56000Y-106000
X56000Y-107000
X56000Y-108000
X56000Y-109000
X56000Y-110000
X56000Y-111000
X56000Y-112000
X56000Y-113000
X56000Y-114000
X56000Y-115000
X56000Y-116000
X56000Y-117000
X56000Y-118000
X56000Y-119000
X56000Y-120000
X56000Y-121000
X56000Y-122000
X56000Y-123000
X56000Y-124000
X56000Y-125000
X56000Y-126000
X56000Y-127000
X56000Y-128000
X56000Y-129000
X56000Y-130000
X56000Y-131000
X56000Y-132000
X56000Y-133000
X56000Y-134000
X56000Y-135000
X56000Y-136000
X57000Y-54000
X57000Y-55000
X57000Y-56000
X57000Y-57000
X57000Y-58000
X57000Y-59000
X57000Y-60000
X57000Y-61000
X57000Y-62000
X57000Y-63000
X57000Y-64000
X57000Y-65000
X57000Y-66000
X57000Y-67000
X57000Y-68000
X57000Y-69000
X57000Y-70000
X57000Y-71000
X57000Y-72000
X57000Y-73000
X57000Y-74000
X57000Y-75000
X57000Y-76000
X57000Y-77000
X57000Y-78000
X57000Y-79000
X57000Y-80000
X57000Y-81000
X57000Y-82000
X57000Y-83000
X57000Y-84000
X57000Y-85000
X57000Y-86000
X57000Y-87000
X57000Y-88000
X57000Y-89000
X57000Y-90000
X57000Y-91000
X57000Y-92000
X57000Y-93000
X57000Y-94000
X57000Y-95000
X57000Y-96000
X57000Y-97000
X57000Y-98000
X57000Y-99000
X57000Y-100000
X57000Y-101000
X57000Y-102000
X57000Y-103000
X57000Y-104000
X57000Y-105000
X57000Y-106000
X57000Y-107000
X57000Y-108000
X57000Y-109000
X57000Y-110000
X57000Y-111000
X57000Y-112000
X57000Y-113000
X57000Y-114000
X57000Y-115000
X57000Y-116000
X57000Y-117000
X57000Y-118000
X57000Y-119000
X57000Y-120000
X57000Y-121000
X57000Y-122000
X57000Y-123000
X57000Y-124000
X57000Y-125000
X57000Y-126000
X57000Y-127000
X57000Y-128000
X57000Y-129000
X57000Y-130000
X57000Y-131000
X57000Y-132000
X57000Y-133000
X57000Y-134000
X57000Y-135000
X57000Y-136000
X107000Y-138000
X107000Y-139000
X107000Y-140000
X107000Y-141000
X107000Y-142000
X107000Y-143000
X107000Y-144000
X108000Y-138000
X108000Y-139000
X108000Y-140000
X108000Y-141000
X108000Y-142000
X108000Y-143000
X108000Y-144000
X109000Y-138000
X109000Y-139000
X109000Y-140000
X109000Y-141000
X109000Y-142000
X109000Y-143000
X109000Y-144000
X110000Y-138000
X110000Y-139000
X110000Y-140000
X110000Y-141000
X110000Y-142000
X110000Y-143000
X110000Y-144000
X111000Y-138000
X111000Y-139000
X111000Y-140000
X111000Y-141000
X111000Y-142000
X111000Y-143000
X111000Y-144000
X112000Y-138000
X112000Y-139000
X112000Y-140000
X112000Y-141000
X112000Y-142000
X112000Y-143000
X112000Y-144000
X113000Y-138000
X113000Y-139000
X113000Y-140000
X113000Y-141000
X113000Y-142000
X113000Y-143000
X113000Y-144000
X114000Y-138000
X114000Y-139000
X114000Y-140000
X114000Y-141000
X114000Y-142000
X114000Y-143000
X114000Y-144000
X115000Y-138000
X115000Y-139000
X115000Y-140000
X115000Y-141000
X115000Y-142000
X115000Y-143000
X115000Y-144000
X116000Y-138000
X116000Y-139000
X116000Y-140000
X116000Y-141000
X116000Y-142000
X116000Y-143000
X116000Y-144000
X117000Y-138000
X117000Y-139000
X117000Y-140000
X117000Y-141000
X117000Y-142000
X117000Y-143000
X117000Y-144000
X118000Y-138000
X118000Y-139000
X118000Y-140000
X118000Y-141000
X118000Y-142000
X118000Y-143000
X118000Y-144000
X119000Y-138000
X119000Y-139000
X119000Y-140000
X119000Y-141000
X119000Y-142000
X119000Y-143000
X119000Y-144000
X120000Y-138000
X120000Y-139000
X120000Y-140000
X120000Y-141000
X120000Y-142000
X120000Y-143000
X120000Y-144000
X121000Y-138000
X121000Y-139000
X121000Y-140000
X121000Y-141000
X121000Y-142000
X121000Y-143000
X121000Y-144000
X122000Y-138000
X122000Y-139000
X122000Y-140000
X122000Y-141000
X122000Y-142000
X122000Y-143000
X122000Y-144000
X123000Y-138000
X123000Y-139000
X123000Y-140000
X123000Y-141000
X123000Y-142000
X123000Y-143000
X123000Y-144000
X124000Y-138000
X124000Y-139000
X124000Y-140000
X124000Y-141000
X124000Y-142000
X124000Y-143000
X124000Y-144000
X125000Y-138000
X125000Y-139000
X125000Y-140000
X125000Y-141000
X125000Y-142000
X125000Y-143000
X125000Y-144000
X126000Y-138000
X126000Y-139000
X126000Y-140000
X126000Y-141000
X126000Y-142000
X126000Y-143000
X126000Y-144000
X127000Y-138000
X127000Y-139000
X127000Y-140000
X127000Y-141000
X127000Y-142000
X127000Y-143000
X127000Y-144000
X128000Y-138000
X128000Y-139000
X128000Y-140000
X128000Y-141000
X128000Y-142000
X128000Y-143000
X128000Y-144000
X129000Y-138000
X129000Y-139000
X129000Y-140000
X129000Y-141000
X129000Y-142000
X129000Y-143000
X129000Y-144000
X130000Y-138000
X130000Y-139000
X130000Y-140000
X130000Y-141000
X130000Y-142000
X130000Y-143000
X130000Y-144000
X131000Y-138000
X131000Y-139000
X131000Y-140000
X131000Y-141000
X131000Y-142000
X131000Y-143000
X131000Y-144000
X132000Y-138000
X132000Y-139000
X132000Y-140000
X132000Y-141000
X132000Y-142000
X132000Y-143000
X132000Y-144000
X133000Y-138000
X133000Y-139000
X133000Y-140000
X133000Y-141000
X133000Y-142000
X133000Y-143000
X133000Y-144000
X134000Y-138000
X134000Y-139000
X134000Y-140000
X134000Y-141000
X134000Y-142000
X134000Y-143000
X134000Y-144000
X154000Y-54000
X154000Y-55000
X154000Y-56000
X154000Y-57000
X154000Y-58000
X154000Y-59000
X154000Y-60000
X154000Y-61000
X154000Y-62000
X154000Y-63000
X154000Y-64000
X154000Y-65000
X154000Y-66000
X154000Y-67000
X154000Y-68000
X154000Y-69000
X154000Y-70000
X154000Y-71000
X154000Y-72000
X154000Y-73000
X154000Y-74000
X154000Y-75000
X154000Y-76000
X154000Y-77000
X154000Y-78000
X154000Y-79000
X154000Y-80000
X154000Y-81000
X154000Y-82000
X154000Y-83000
X154000Y-84000
X154000Y-85000
X154000Y-86000
X154000Y-87000
X154000Y-88000
X154000Y-89000
X154000Y-90000
X154000Y-91000
X154000Y-92000
X154000Y-93000
X154000Y-94000
X154000Y-95000
X154000Y-96000
X154000Y-97000
X154000Y-98000
X154000Y-99000
X154000Y-100000
X154000Y-101000
X154000Y-102000
X154000Y-103000
X154000Y-104000
X154000Y-105000
X154000Y-106000
X154000Y-107000
X154000Y-108000
X154000Y-109000
X154000Y-110000
X154000Y-111000
X154000Y-112000
X154000Y-113000
X154000Y-114000
X154000Y-115000
X154000Y-116000
X154000Y-117000
X154000Y-118000
X154000Y-119000
X154000Y-120000
X154000Y-121000
X154000Y-122000
X154000Y-123000
X154000Y-124000
X154000Y-125000
X154000Y-126000
X154000Y-127000
X154000Y-128000
X154000Y-129000
X154000Y-130000
X154000Y-131000
X154000Y-132000
X154000Y-133000
X154000Y-134000
X154000Y-135000
X154000Y-136000
T2
X62750Y-71250
X62750Y-77000
X62750Y-82250
X62750Y-87750
X62750Y-93250
X62750Y-98750
X62750Y-104250
X62750Y-109750
X64500Y-60500
X64500Y-66000
X67000Y-144000
X67500Y-102500
X67500Y-103500
X67500Y-104500
X67500Y-109500
X67500Y-110500
X67500Y-111500
X71200Y-101500
X71750Y-48250
X71750Y-53750
X72000Y-117500
X72000Y-119000
X72000Y-120000
X72500Y-101500
X73000Y-113500
X73000Y-117500
X73000Y-120000
X73800Y-101500
X74000Y-113500
X74000Y-117500
X74000Y-120000
X75000Y-57500
X75000Y-68500
X75000Y-79500
X75000Y-90500
X75000Y-101500
X75000Y-113500
X75000Y-117500
X75000Y-120000
X76000Y-113500
X76000Y-117500
X76000Y-120000
X76600Y-101500
X77000Y-113500
X77000Y-117500
X77000Y-120000
X77000Y-121000
X77000Y-122000
X77000Y-123000
X77000Y-144000
X77500Y-57500
X78000Y-113500
X78000Y-117500
X78000Y-123000
X78600Y-57000
X78600Y-101500
X79000Y-113500
X79000Y-117500
X79000Y-123000
X79000Y-124000
X79000Y-125000
X79000Y-126000
X79000Y-127000
X79000Y-128000
X79000Y-129000
X79000Y-130000
X79750Y-90500
X79750Y-101500
X80000Y-57000
X80000Y-113500
X80000Y-117500
X80600Y-104800
X81000Y-113500
X81000Y-117500
X81200Y-101500
X81400Y-57000
X81800Y-104800
X82000Y-113500
X82000Y-117500
X82400Y-82800
X82500Y-57000
X82500Y-60500
X82500Y-80000
X82500Y-90500
X82500Y-94000
X82500Y-68500
X82500Y-73750
X82500Y-101500
X83000Y-104800
X83000Y-113500
X83000Y-117500
X83000Y-144000
X83800Y-57500
X83800Y-60500
X84000Y-113500
X84000Y-117500
X84200Y-69000
X84200Y-104800
X84800Y-82200
X85000Y-57500
X85000Y-60500
X85000Y-80000
X85000Y-113500
X85000Y-117500
X85400Y-104800
X86000Y-69000
X86000Y-113500
X86000Y-117500
X86000Y-135000
X86400Y-57500
X86400Y-60500
X86400Y-80000
X86500Y-104500
X87000Y-113500
X87000Y-117500
X87000Y-134000
X87500Y-57500
X87500Y-80000
X87500Y-93250
X87500Y-102250
X87500Y-91000
X87600Y-69000
X87800Y-82200
X88000Y-113500
X88000Y-117500
X88000Y-133000
X88500Y-71750
X88800Y-57500
X89000Y-80000
X89000Y-82250
X89000Y-113500
X89000Y-117500
X89000Y-132000
X89200Y-69000
X89500Y-93250
X89800Y-102250
X90000Y-113500
X90000Y-117500
X90000Y-122000
X90000Y-123000
X90000Y-124000
X90000Y-125000
X90000Y-126000
X90000Y-127000
X90000Y-132000
X90250Y-57500
X90250Y-60250
X90250Y-71750
X90250Y-82250
X90250Y-93250
X90600Y-69000
X91000Y-104500
X91000Y-113500
X91000Y-117500
X91000Y-132000
X91000Y-136000
X91400Y-48750
X91400Y-57500
X91400Y-60250
X91400Y-71750
X91500Y-82250
X91500Y-93250
X91600Y-69000
X92000Y-113500
X92000Y-117500
X92000Y-132000
X92000Y-136000
X92500Y-57500
X92500Y-60250
X92500Y-71750
X92500Y-93250
X92500Y-102250
X92500Y-104500
X92500Y-106000
X92500Y-107500
X92600Y-48750
X92800Y-82600
X93000Y-91000
X93000Y-113500
X93000Y-117500
X93000Y-132000
X93000Y-136000
X93750Y-48250
X93800Y-57500
X93800Y-60250
X93800Y-71750
X93800Y-80000
X94000Y-82500
X94000Y-91000
X94000Y-93250
X94000Y-102000
X94000Y-107500
X94000Y-113500
X94000Y-117500
X94000Y-131000
X94000Y-135000
X95000Y-113500
X95000Y-117500
X95000Y-122000
X95000Y-123000
X95000Y-124000
X95000Y-125000
X95000Y-126000
X95000Y-127000
X95000Y-128000
X95000Y-129000
X95000Y-130000
X95000Y-134000
X95200Y-80000
X95250Y-48250
X95250Y-57500
X95250Y-60250
X95250Y-71750
X95250Y-82500
X95250Y-91000
X95250Y-93250
X95250Y-102000
X95500Y-107500
X96000Y-69000
X96000Y-113500
X96000Y-117500
X96000Y-133000
X96400Y-48250
X96400Y-57500
X96400Y-60250
X96400Y-80000
X96400Y-102000
X96500Y-82500
X96500Y-91000
X96500Y-93250
X96600Y-71750
X97000Y-107500
X97000Y-113500
X97000Y-117500
X97000Y-132000
X97500Y-46000
X97500Y-48250
X97500Y-57500
X97500Y-60250
X97500Y-71750
X97500Y-73200
X97500Y-74750
X97500Y-80000
X97500Y-82500
X97500Y-91000
X97500Y-93250
X97500Y-96000
X97500Y-102000
X98000Y-113500
X98000Y-117500
X98000Y-132000
X98200Y-69000
X98500Y-107500
X98800Y-57500
X98800Y-60250
X98800Y-74750
X98800Y-80000
X98800Y-102000
X99000Y-71750
X99000Y-82500
X99000Y-91000
X99000Y-93250
X99000Y-113500
X99000Y-117500
X99250Y-63500
X100000Y-46000
X100000Y-57500
X100000Y-60250
X100000Y-69000
X100000Y-71750
X100000Y-74750
X100000Y-80000
X100000Y-82500
X100000Y-91000
X100000Y-93250
X100000Y-96000
X100000Y-102000
X100000Y-107500
X100000Y-113500
X100000Y-117500
X100000Y-122000
X100000Y-123000
X100000Y-124000
X100000Y-125000
X100000Y-126000
X100000Y-127000
X100000Y-128000
X100000Y-129000
X100000Y-130000
X100000Y-131000
X100000Y-132000
X100000Y-133000
X100000Y-134000
X100000Y-135000
X101000Y-113500
X101000Y-117500
X101200Y-69000
X101200Y-71750
X101200Y-80000
X101250Y-63500
X101400Y-57500
X101400Y-60250
X101400Y-102000
X101500Y-82200
X101500Y-91000
X101500Y-93250
X101500Y-107500
X102000Y-113500
X102000Y-117500
X102500Y-46000
X102500Y-48250
X102500Y-57500
X102500Y-60250
X102500Y-69000
X102500Y-71750
X102500Y-80000
X102500Y-91000
X102500Y-93250
X102500Y-106500
X102600Y-82200
X102800Y-102000
X103000Y-113500
X103000Y-117500
X103500Y-105500
X103600Y-57500
X103600Y-60250
X103800Y-69000
X103800Y-71750
X103800Y-80000
X104000Y-48250
X104000Y-82200
X104000Y-91000
X104000Y-93250
X104000Y-113500
X104000Y-118500
X104000Y-122000
X104000Y-123000
X104000Y-124000
X104000Y-125000
X104000Y-126000
X104000Y-127000
X104000Y-128000
X104000Y-129000
X104000Y-130000
X104000Y-131000
X104000Y-132000
X104000Y-133000
X104000Y-134000
X104000Y-135000
X104200Y-102000
X104500Y-104500
X105000Y-46000
X105000Y-48250
X105000Y-54500
X105000Y-57500
X105000Y-60250
X105000Y-69000
X105000Y-71750
X105000Y-80000
X105000Y-82200
X105000Y-91000
X105000Y-93250
X105000Y-113500
X105000Y-119500
X105400Y-102000
X106000Y-104500
X106000Y-113500
X106000Y-120500
X106200Y-48250
X106400Y-57500
X106400Y-60250
X106400Y-69000
X106400Y-71750
X106400Y-80000
X106500Y-82200
X106500Y-91000
X106500Y-93250
X106600Y-102000
X107000Y-114500
X107000Y-121500
X107250Y-54500
X107500Y-46000
X107500Y-48250
X107500Y-57500
X107500Y-60250
X107500Y-69000
X107500Y-71750
X107500Y-80000
X107500Y-91000
X107500Y-93250
X107500Y-104500
X107500Y-113500
X107500Y-123000
X107500Y-124000
X107500Y-125000
X107500Y-126000
X107600Y-82200
X108000Y-102000
X108500Y-113500
X108800Y-48250
X108800Y-57500
X108800Y-60200
X108800Y-69000
X108800Y-71750
X108800Y-80000
X109000Y-82200
X109000Y-91000
X109000Y-93250
X109000Y-102000
X109000Y-104500
X109750Y-58000
X110000Y-46000
X110000Y-48250
X110000Y-60250
X110000Y-69000
X110000Y-71750
X110000Y-80000
X110000Y-82200
X110000Y-91000
X110000Y-93250
X110000Y-102000
X110000Y-125000
X110500Y-89750
X110500Y-104500
X110500Y-113500
X111000Y-102000
X111200Y-69500
X111200Y-71750
X111200Y-80000
X111400Y-48250
X111500Y-82200
X111500Y-91000
X111500Y-93250
X111500Y-113500
X111600Y-60200
X112000Y-102000
X112000Y-104500
X112400Y-82200
X112500Y-46000
X112500Y-48250
X112500Y-58000
X112500Y-69500
X112500Y-71750
X112500Y-80000
X112500Y-91000
X112500Y-93250
X112500Y-113500
X112500Y-116000
X112500Y-122250
X113000Y-60200
X113000Y-102000
X113500Y-104500
X113500Y-113500
X113600Y-48250
X113800Y-69500
X113800Y-71750
X113800Y-80000
X114000Y-82200
X114000Y-91000
X114000Y-93250
X114000Y-102000
X114600Y-60200
X115000Y-46000
X115000Y-48250
X115000Y-104500
X115000Y-125000
X115200Y-82200
X115250Y-58000
X115250Y-71750
X115250Y-80000
X115250Y-89750
X115250Y-91000
X115250Y-93250
X115250Y-102000
X115400Y-69500
X116400Y-71750
X116400Y-80400
X116500Y-82200
X116500Y-91000
X116500Y-93250
X116500Y-102200
X116500Y-113500
X116600Y-69600
X117400Y-82200
X117500Y-46000
X117500Y-48250
X117500Y-71750
X117500Y-91000
X117500Y-93250
X117500Y-113500
X117600Y-69600
X117600Y-80400
X117600Y-102200
X117750Y-58000
X118500Y-102200
X118500Y-104500
X118500Y-113500
X118600Y-125000
X118800Y-48200
X118800Y-60250
X119000Y-80400
X119000Y-91000
X120000Y-58000
X120000Y-60250
X120000Y-91000
X120000Y-102200
X120000Y-104500
X120500Y-46000
X120600Y-80400
X121000Y-102200
X121400Y-60250
X121500Y-91000
X121500Y-93250
X121500Y-104500
X121500Y-113500
X122500Y-58000
X122500Y-60250
X122500Y-69000
X122500Y-72000
X122500Y-82500
X122500Y-91000
X122500Y-93250
X122500Y-113500
X122600Y-80400
X122600Y-102200
X123000Y-104500
X123400Y-124800
X123500Y-113500
X123800Y-60250
X124000Y-82500
X124000Y-93250
X124500Y-104500
X124769Y-58014
X125000Y-60250
X125000Y-67250
X125000Y-69000
X125000Y-82500
X125000Y-93250
X125000Y-110500
X125250Y-71500
X125500Y-61250
X126000Y-124800
X126400Y-91200
X126500Y-82500
X127500Y-78500
X127500Y-71500
X127500Y-80000
X127500Y-91000
X127500Y-100500
X127500Y-102000
X127500Y-89250
X127600Y-83000
X127800Y-53200
X127800Y-54000
X127800Y-54800
X127800Y-55500
X128500Y-77000
X128600Y-88200
X129500Y-71500
X130000Y-124800
X135500Y-101500
X136500Y-88000
X136500Y-90000
X137000Y-134000
X137000Y-135000
X137500Y-98500
X137500Y-99500
X137500Y-101500
X138000Y-133000
X138500Y-88000
X138500Y-90000
X139000Y-132000
X140000Y-131000
X141000Y-131000
X142000Y-131000
X142000Y-135000
X143000Y-131000
X143000Y-135000
X144000Y-131000
X144000Y-135000
X145000Y-131000
X145000Y-135000
X146000Y-85000
X146000Y-96000
X146000Y-107000
X146000Y-113000
X146000Y-119000
X146000Y-131000
X146000Y-135000
X147000Y-130000
X147000Y-135000
X148000Y-129000
X148000Y-135000
X149000Y-127000
X149000Y-128000
X149000Y-134000
X150000Y-133000
X151000Y-132000
X152000Y-131000
X153000Y-130000
X154000Y-127750
T3
X59840Y-70190
X59840Y-77810
X59840Y-81190
X59840Y-88810
X59840Y-92190
X59840Y-99810
X59840Y-103190
X59840Y-110810
X61840Y-59190
X61840Y-66810
X64920Y-70190
X64920Y-77810
X64920Y-81190
X64920Y-88810
X64920Y-92190
X64920Y-99810
X64920Y-103190
X64920Y-110810
X66920Y-59190
X66920Y-66810
X68840Y-47190
X68840Y-54810
X70000Y-70190
X70000Y-77810
X70000Y-81190
X70000Y-88810
X70000Y-92190
X70000Y-99810
X70000Y-103190
X70000Y-110810
X72000Y-59190
X72000Y-66810
X73920Y-47190
X73920Y-54810
X77620Y-70190
X77620Y-77810
X77620Y-81190
X77620Y-88810
X77620Y-92190
X77620Y-99810
X77620Y-103190
X77620Y-110810
X79000Y-47190
X79000Y-54810
X79620Y-59190
X79620Y-66810
X84380Y-122190
X84380Y-129810
X86620Y-47190
X86620Y-54810
X92000Y-122190
X92000Y-129810
X97080Y-122190
X97080Y-129810
X102160Y-122190
X102160Y-129810
X109840Y-115190
X109840Y-122810
X114920Y-115190
X114920Y-122810
X120000Y-115190
X120000Y-122810
X123380Y-47190
X123380Y-54810
X127620Y-115190
X127620Y-122810
X130380Y-59190
X130380Y-66810
X131000Y-47190
X131000Y-54810
X133380Y-70190
X133380Y-77810
X133380Y-81190
X133380Y-88810
X133380Y-92190
X133380Y-99810
X133380Y-103190
X133380Y-110810
X133380Y-115190
X133380Y-122810
X136080Y-47190
X136080Y-54810
X138000Y-59190
X138000Y-66810
X141000Y-70190
X141000Y-77810
X141000Y-81190
X141000Y-88810
X141000Y-92190
X141000Y-99810
X141000Y-103190
X141000Y-110810
X141000Y-115190
X141000Y-122810
X141160Y-47190
X141160Y-54810
X143080Y-59190
X143080Y-66810
X146080Y-70190
X146080Y-77810
X146080Y-81190
X146080Y-88810
X146080Y-92190
X146080Y-99810
X146080Y-103190
X146080Y-110810
X146080Y-115190
X146080Y-122810
X148160Y-59190
X148160Y-66810
X151160Y-70190
X151160Y-77810
X151160Y-81190
X151160Y-88810
X151160Y-92190
X151160Y-99810
X151160Y-103190
X151160Y-110810
X151160Y-115190
X151160Y-122810
T4
X115340Y-130000
X115340Y-132540
X117880Y-130000
X117880Y-132540
X120420Y-130000
X120420Y-132540
X122960Y-130000
X122960Y-132540
X125500Y-130000
X125500Y-132540
T5
X84460Y-137460
X84460Y-142540
X87000Y-140000
X89540Y-137460
X89540Y-142540
X99460Y-137460
X99460Y-142540
X102000Y-140000
X104540Y-137460
X104540Y-142540
X136460Y-137460
X136460Y-142540
X139000Y-140000
X141540Y-137460
X141540Y-142540
T6
X63460Y-115460
X68460Y-125960
X68540Y-119270
X70860Y-136660
X73540Y-129770
X75940Y-140470
X86460Y-73730
X86460Y-84730
X86460Y-95730
X88460Y-62730
X88460Y-106730
X91540Y-77540
X91540Y-88540
X91540Y-99540
X93306Y-51898
X93540Y-66540
X93540Y-110540
X99592Y-51000
X102306Y-87898
X108592Y-87000
X110306Y-51898
X116460Y-62730
X116460Y-106730
X116592Y-51000
X119460Y-73730
X119460Y-84730
X119460Y-95730
X121540Y-66540
X121540Y-110540
X124540Y-77540
X124540Y-88540
X124540Y-99540
T7
X60000Y-50000
X60000Y-140000
X150000Y-50000
X150000Y-140000
T0
M30
