M48
;DRILL file {KiCad 4.0.7} date 12/16/17 23:34:17
;FORMAT={3:3/ absolute / metric / suppress leading zeros}
FMAT,2
METRIC,TZ
T1C0.400
T2C1.000
T3C1.016
T4C1.300
T5C1.500
T6C3.500
%
G90
G05
M71
T1
X56000Y-55000
X56000Y-65000
X56000Y-75000
X56000Y-85000
X56000Y-95000
X56000Y-105000
X56000Y-115000
X56000Y-125000
X56000Y-135000
X62750Y-71250
X62750Y-77000
X62750Y-82250
X62750Y-87750
X62750Y-93250
X62750Y-98750
X62750Y-104250
X62750Y-109750
X64500Y-60500
X64500Y-66000
X67000Y-144000
X71400Y-117800
X71750Y-48250
X71750Y-53750
X72400Y-109800
X72400Y-112200
X72500Y-101500
X73000Y-113250
X73000Y-117800
X75000Y-57500
X75000Y-68500
X75000Y-79500
X75000Y-90500
X75000Y-101500
X75000Y-113250
X75000Y-117800
X75000Y-120500
X75000Y-125500
X77000Y-144000
X77400Y-113250
X77400Y-117800
X77500Y-57500
X77500Y-123500
X79500Y-122000
X79500Y-125000
X79500Y-127500
X79500Y-130500
X79750Y-90500
X79750Y-101500
X79750Y-113250
X79800Y-117800
X82500Y-57000
X82500Y-60500
X82500Y-80000
X82500Y-82500
X82500Y-90500
X82500Y-94000
X82500Y-113250
X82500Y-68500
X82500Y-73750
X82500Y-101500
X82600Y-117800
X83000Y-144000
X84500Y-109500
X84500Y-111250
X84500Y-113250
X85200Y-117800
X85400Y-135600
X86600Y-134800
X87400Y-134000
X87500Y-57500
X87500Y-80000
X87500Y-82250
X87500Y-93250
X87500Y-102250
X87500Y-104250
X87500Y-104250
X87500Y-113250
X87500Y-91000
X87600Y-117800
X88200Y-133200
X88500Y-69000
X88500Y-71750
X89400Y-132600
X89500Y-121500
X89500Y-124000
X89500Y-126500
X90200Y-117800
X90250Y-57500
X90250Y-60250
X90250Y-71750
X90250Y-82250
X90250Y-93250
X90250Y-104250
X91000Y-132600
X92400Y-132200
X92500Y-57500
X92500Y-60250
X92500Y-69000
X92500Y-71750
X92500Y-80000
X92500Y-82500
X92500Y-91000
X92500Y-93250
X92500Y-102250
X92500Y-104250
X92500Y-113250
X92500Y-136500
X92600Y-117800
X93500Y-131500
X94000Y-130500
X94000Y-136000
X94000Y-141000
X94000Y-144000
X94500Y-121500
X94500Y-124000
X94500Y-126500
X94500Y-129000
X95000Y-117800
X95000Y-135000
X95250Y-48250
X95250Y-57500
X95250Y-60250
X95250Y-71750
X95250Y-82500
X95250Y-91000
X95250Y-93250
X95250Y-102000
X95250Y-104250
X96000Y-134000
X96000Y-144000
X97000Y-133000
X97500Y-46000
X97500Y-48250
X97500Y-57500
X97500Y-60250
X97500Y-69000
X97500Y-71750
X97500Y-74750
X97500Y-80000
X97500Y-82500
X97500Y-91000
X97500Y-93250
X97500Y-96000
X97500Y-102000
X97500Y-104250
X97500Y-113250
X97600Y-117800
X98000Y-132000
X99250Y-63500
X99250Y-107250
X99400Y-133400
X99400Y-135000
X99500Y-121500
X99500Y-124000
X99500Y-126500
X99500Y-129000
X99500Y-131500
X100000Y-46000
X100000Y-57500
X100000Y-60250
X100000Y-69000
X100000Y-71750
X100000Y-74750
X100000Y-80000
X100000Y-82500
X100000Y-91000
X100000Y-93250
X100000Y-96000
X100000Y-113250
X100200Y-117800
X100250Y-102000
X100250Y-104250
X101250Y-63500
X101250Y-107250
X102500Y-46000
X102500Y-48250
X102500Y-57500
X102500Y-60250
X102500Y-69000
X102500Y-71750
X102500Y-80000
X102500Y-91000
X102500Y-93250
X102500Y-102000
X102500Y-104250
X102500Y-113250
X102600Y-82200
X102600Y-117800
X104500Y-122000
X104500Y-124000
X104500Y-126500
X104500Y-129000
X104500Y-131000
X104500Y-132000
X104500Y-133000
X104500Y-134000
X104500Y-135000
X105000Y-46000
X105000Y-48250
X105000Y-54500
X105000Y-57500
X105000Y-60250
X105000Y-69000
X105000Y-71750
X105000Y-80000
X105000Y-82200
X105000Y-91000
X105000Y-93250
X105000Y-102000
X105000Y-104250
X105000Y-113250
X107250Y-54500
X107500Y-46000
X107500Y-48250
X107500Y-57500
X107500Y-60250
X107500Y-69000
X107500Y-71750
X107500Y-80000
X107500Y-91000
X107500Y-93250
X107500Y-102000
X107500Y-104250
X107500Y-113250
X107600Y-82200
X109750Y-58000
X110000Y-46000
X110000Y-48250
X110000Y-60250
X110000Y-69000
X110000Y-71750
X110000Y-80000
X110000Y-82200
X110000Y-91000
X110000Y-93250
X110000Y-102000
X110000Y-104250
X110000Y-112950
X110000Y-125000
X110000Y-140000
X110500Y-89750
X112400Y-82200
X112450Y-112950
X112500Y-46000
X112500Y-48250
X112500Y-58000
X112500Y-60250
X112500Y-69500
X112500Y-71750
X112500Y-80000
X112500Y-91000
X112500Y-93250
X112500Y-102000
X112500Y-104250
X112500Y-116000
X112500Y-122250
X114750Y-60250
X115000Y-46000
X115000Y-48250
X115000Y-125000
X115000Y-140000
X115200Y-82200
X115250Y-58000
X115250Y-71750
X115250Y-80000
X115250Y-89750
X115250Y-91000
X115250Y-93250
X115250Y-102000
X115250Y-104250
X117000Y-69500
X117400Y-82200
X117500Y-46000
X117500Y-48250
X117500Y-60250
X117500Y-71750
X117500Y-91000
X117500Y-93250
X117500Y-104250
X117500Y-113250
X117600Y-80400
X117600Y-102200
X117750Y-58000
X118600Y-125000
X120000Y-58000
X120000Y-60250
X120000Y-91000
X120000Y-102200
X120000Y-104250
X120000Y-140000
X120000Y-140000
X120500Y-46000
X122500Y-58000
X122500Y-60250
X122500Y-69000
X122500Y-72000
X122500Y-82500
X122500Y-91000
X122500Y-93250
X122500Y-104250
X122500Y-113250
X122600Y-80400
X122600Y-102200
X123400Y-124800
X124769Y-58014
X125000Y-60250
X125000Y-67250
X125000Y-69000
X125000Y-82500
X125000Y-93250
X125000Y-104250
X125000Y-110500
X125000Y-140000
X125250Y-71500
X125500Y-61250
X126000Y-124800
X127500Y-78500
X127500Y-71500
X127500Y-80000
X127500Y-91000
X127500Y-100500
X127500Y-102000
X127500Y-89250
X127600Y-83000
X127800Y-53200
X127800Y-54000
X127800Y-54800
X127800Y-55500
X128500Y-77000
X128600Y-88200
X129500Y-71500
X130000Y-124800
X130000Y-140000
X135500Y-101500
X136500Y-88000
X136500Y-90000
X137000Y-134000
X137500Y-98500
X137500Y-99500
X137500Y-101500
X138000Y-132250
X138500Y-88000
X138500Y-90000
X139000Y-131000
X141000Y-130000
X143000Y-130000
X143000Y-135500
X145000Y-130000
X145000Y-135500
X146000Y-85000
X146000Y-96000
X146000Y-107000
X146000Y-113000
X146000Y-119000
X146750Y-129250
X146750Y-135500
X148000Y-128000
X148000Y-135000
X149000Y-127000
X149000Y-134250
X150000Y-133250
X151000Y-132250
X152000Y-131250
X153000Y-130250
X153250Y-129000
X154000Y-56000
X154000Y-66000
X154000Y-76000
X154000Y-86000
X154000Y-96000
X154000Y-106000
X154000Y-116000
X154000Y-126000
X154000Y-127750
X154000Y-136000
T2
X59840Y-70190
X59840Y-77810
X59840Y-81190
X59840Y-88810
X59840Y-92190
X59840Y-99810
X59840Y-103190
X59840Y-110810
X61840Y-59190
X61840Y-66810
X64920Y-70190
X64920Y-77810
X64920Y-81190
X64920Y-88810
X64920Y-92190
X64920Y-99810
X64920Y-103190
X64920Y-110810
X66920Y-59190
X66920Y-66810
X68840Y-47190
X68840Y-54810
X70000Y-70190
X70000Y-77810
X70000Y-81190
X70000Y-88810
X70000Y-92190
X70000Y-99810
X70000Y-103190
X70000Y-110810
X72000Y-59190
X72000Y-66810
X73920Y-47190
X73920Y-54810
X77620Y-70190
X77620Y-77810
X77620Y-81190
X77620Y-88810
X77620Y-92190
X77620Y-99810
X77620Y-103190
X77620Y-110810
X79000Y-47190
X79000Y-54810
X79620Y-59190
X79620Y-66810
X84380Y-122190
X84380Y-129810
X86620Y-47190
X86620Y-54810
X92000Y-122190
X92000Y-129810
X97080Y-122190
X97080Y-129810
X102160Y-122190
X102160Y-129810
X109840Y-115190
X109840Y-122810
X114920Y-115190
X114920Y-122810
X120000Y-115190
X120000Y-122810
X123380Y-47190
X123380Y-54810
X127620Y-115190
X127620Y-122810
X130380Y-59190
X130380Y-66810
X131000Y-47190
X131000Y-54810
X133380Y-70190
X133380Y-77810
X133380Y-81190
X133380Y-88810
X133380Y-92190
X133380Y-99810
X133380Y-103190
X133380Y-110810
X133380Y-115190
X133380Y-122810
X136080Y-47190
X136080Y-54810
X138000Y-59190
X138000Y-66810
X141000Y-70190
X141000Y-77810
X141000Y-81190
X141000Y-88810
X141000Y-92190
X141000Y-99810
X141000Y-103190
X141000Y-110810
X141000Y-115190
X141000Y-122810
X141160Y-47190
X141160Y-54810
X143080Y-59190
X143080Y-66810
X146080Y-70190
X146080Y-77810
X146080Y-81190
X146080Y-88810
X146080Y-92190
X146080Y-99810
X146080Y-103190
X146080Y-110810
X146080Y-115190
X146080Y-122810
X148160Y-59190
X148160Y-66810
X151160Y-70190
X151160Y-77810
X151160Y-81190
X151160Y-88810
X151160Y-92190
X151160Y-99810
X151160Y-103190
X151160Y-110810
X151160Y-115190
X151160Y-122810
T3
X115340Y-130000
X115340Y-132540
X117880Y-130000
X117880Y-132540
X120420Y-130000
X120420Y-132540
X122960Y-130000
X122960Y-132540
X125500Y-130000
X125500Y-132540
T4
X84460Y-137460
X84460Y-142540
X87000Y-140000
X89540Y-137460
X89540Y-142540
X99460Y-137460
X99460Y-142540
X102000Y-140000
X104540Y-137460
X104540Y-142540
X136460Y-137460
X136460Y-142540
X139000Y-140000
X141540Y-137460
X141540Y-142540
T5
X63460Y-115460
X68460Y-125960
X68540Y-119270
X70860Y-136660
X73540Y-129770
X75940Y-140470
X86460Y-73730
X86460Y-84730
X86460Y-95730
X88460Y-62730
X88460Y-106730
X91540Y-77540
X91540Y-88540
X91540Y-99540
X93306Y-51898
X93540Y-66540
X93540Y-110540
X99592Y-51000
X102306Y-87898
X108592Y-87000
X110306Y-51898
X116460Y-62730
X116460Y-106730
X116592Y-51000
X119460Y-73730
X119460Y-84730
X119460Y-95730
X121540Y-66540
X121540Y-110540
X124540Y-77540
X124540Y-88540
X124540Y-99540
T6
X60000Y-50000
X60000Y-140000
X150000Y-50000
X150000Y-140000
T0
M30
