%TF.GenerationSoftware,KiCad,Pcbnew,(5.1.5)-3*%
%TF.CreationDate,2020-05-10T11:21:28+02:00*%
%TF.ProjectId,LPF,4c50462e-6b69-4636-9164-5f7063625858,rev?*%
%TF.SameCoordinates,Original*%
%TF.FileFunction,Copper,L1,Top*%
%TF.FilePolarity,Positive*%
%FSLAX46Y46*%
G04 Gerber Fmt 4.6, Leading zero omitted, Abs format (unit mm)*
G04 Created by KiCad (PCBNEW (5.1.5)-3) date 2020-05-10 11:21:28*
%MOMM*%
%LPD*%
G04 APERTURE LIST*
%ADD10C,2.500000*%
%ADD11R,1.700000X1.700000*%
%ADD12O,1.700000X1.700000*%
%ADD13C,3.500000*%
%ADD14C,2.499360*%
%ADD15C,1.998980*%
%ADD16C,7.000000*%
%ADD17C,0.600000*%
%ADD18C,2.000000*%
%ADD19C,1.500000*%
%ADD20C,3.000000*%
%ADD21C,0.254000*%
G04 APERTURE END LIST*
D10*
X79060000Y-43880000D03*
X71440000Y-43880000D03*
X79060000Y-51500000D03*
X71440000Y-51500000D03*
X79060000Y-56580000D03*
X71440000Y-56580000D03*
X79060000Y-61660000D03*
X71440000Y-61660000D03*
D11*
X68290000Y-107120000D03*
D12*
X65750000Y-107120000D03*
X68290000Y-104580000D03*
X65750000Y-104580000D03*
X68290000Y-102040000D03*
X65750000Y-102040000D03*
X68290000Y-99500000D03*
X65750000Y-99500000D03*
X68290000Y-96960000D03*
X65750000Y-96960000D03*
D13*
X138710000Y-75040000D03*
X142520000Y-69960000D03*
X91520000Y-69460000D03*
X87710000Y-74540000D03*
X193520000Y-69460000D03*
X189710000Y-74540000D03*
X172710000Y-74540000D03*
X176520000Y-69460000D03*
X155710000Y-74540000D03*
X159520000Y-69460000D03*
X125520000Y-69460000D03*
X121710000Y-74540000D03*
X104710000Y-74540000D03*
X108520000Y-69460000D03*
X87710000Y-88230000D03*
X92790000Y-92040000D03*
X138710000Y-89230000D03*
X143790000Y-93040000D03*
X193520000Y-104460000D03*
X189710000Y-109540000D03*
X172710000Y-109540000D03*
X176520000Y-104460000D03*
X159520000Y-104460000D03*
X155710000Y-109540000D03*
X121710000Y-109540000D03*
X125520000Y-104460000D03*
X104710000Y-109540000D03*
X108520000Y-104460000D03*
X87710000Y-109540000D03*
X91520000Y-104460000D03*
X142520000Y-104460000D03*
X138710000Y-109540000D03*
D14*
X65790000Y-81960000D03*
X60710000Y-81960000D03*
X60710000Y-87040000D03*
X65790000Y-87040000D03*
D15*
X63250000Y-84500000D03*
X63250000Y-119500000D03*
D14*
X65790000Y-122040000D03*
X60710000Y-122040000D03*
X60710000Y-116960000D03*
X65790000Y-116960000D03*
D15*
X63250000Y-69500000D03*
D14*
X65790000Y-72040000D03*
X60710000Y-72040000D03*
X60710000Y-66960000D03*
X65790000Y-66960000D03*
D10*
X188440000Y-62120000D03*
X196060000Y-62120000D03*
X188440000Y-54500000D03*
X196060000Y-54500000D03*
X188440000Y-49420000D03*
X196060000Y-49420000D03*
X188440000Y-44340000D03*
X196060000Y-44340000D03*
X179060000Y-44340000D03*
X171440000Y-44340000D03*
X179060000Y-49420000D03*
X171440000Y-49420000D03*
X179060000Y-54500000D03*
X171440000Y-54500000D03*
X179060000Y-62120000D03*
X171440000Y-62120000D03*
X154440000Y-62120000D03*
X162060000Y-62120000D03*
X154440000Y-54500000D03*
X162060000Y-54500000D03*
X154440000Y-49420000D03*
X162060000Y-49420000D03*
X154440000Y-44340000D03*
X162060000Y-44340000D03*
X145060000Y-44340000D03*
X137440000Y-44340000D03*
X145060000Y-49420000D03*
X137440000Y-49420000D03*
X145060000Y-54500000D03*
X137440000Y-54500000D03*
X145060000Y-62120000D03*
X137440000Y-62120000D03*
X128060000Y-44340000D03*
X120440000Y-44340000D03*
X128060000Y-49420000D03*
X120440000Y-49420000D03*
X128060000Y-54500000D03*
X120440000Y-54500000D03*
X128060000Y-62120000D03*
X120440000Y-62120000D03*
X103440000Y-62120000D03*
X111060000Y-62120000D03*
X103440000Y-54500000D03*
X111060000Y-54500000D03*
X103440000Y-49420000D03*
X111060000Y-49420000D03*
X103440000Y-44340000D03*
X111060000Y-44340000D03*
X94060000Y-44340000D03*
X86440000Y-44340000D03*
X94060000Y-49420000D03*
X86440000Y-49420000D03*
X94060000Y-54500000D03*
X86440000Y-54500000D03*
X94060000Y-62120000D03*
X86440000Y-62120000D03*
X196060000Y-116880000D03*
X188440000Y-116880000D03*
X196060000Y-124500000D03*
X188440000Y-124500000D03*
X196060000Y-129580000D03*
X188440000Y-129580000D03*
X196060000Y-134660000D03*
X188440000Y-134660000D03*
X171440000Y-134660000D03*
X179060000Y-134660000D03*
X171440000Y-129580000D03*
X179060000Y-129580000D03*
X171440000Y-124500000D03*
X179060000Y-124500000D03*
X171440000Y-116880000D03*
X179060000Y-116880000D03*
X162060000Y-116880000D03*
X154440000Y-116880000D03*
X162060000Y-124500000D03*
X154440000Y-124500000D03*
X162060000Y-129580000D03*
X154440000Y-129580000D03*
X162060000Y-134660000D03*
X154440000Y-134660000D03*
X137440000Y-134660000D03*
X145060000Y-134660000D03*
X137440000Y-129580000D03*
X145060000Y-129580000D03*
X137440000Y-124500000D03*
X145060000Y-124500000D03*
X137440000Y-116880000D03*
X145060000Y-116880000D03*
X120440000Y-134660000D03*
X128060000Y-134660000D03*
X120440000Y-129580000D03*
X128060000Y-129580000D03*
X120440000Y-124500000D03*
X128060000Y-124500000D03*
X120440000Y-116880000D03*
X128060000Y-116880000D03*
X111060000Y-116880000D03*
X103440000Y-116880000D03*
X111060000Y-124500000D03*
X103440000Y-124500000D03*
X111060000Y-129580000D03*
X103440000Y-129580000D03*
X111060000Y-134660000D03*
X103440000Y-134660000D03*
X94060000Y-116880000D03*
X86440000Y-116880000D03*
X94060000Y-124500000D03*
X86440000Y-124500000D03*
X94060000Y-129580000D03*
X86440000Y-129580000D03*
X94060000Y-134660000D03*
X86440000Y-134660000D03*
D16*
X63250000Y-44500000D03*
X203250000Y-44500000D03*
X203250000Y-134500000D03*
X63250000Y-134500000D03*
D17*
X60210000Y-75346666D03*
X60210000Y-78653333D03*
X61210000Y-78653333D03*
X61210000Y-75346666D03*
X60210000Y-125346666D03*
X60210000Y-128653333D03*
X61210000Y-128653333D03*
X61210000Y-125346666D03*
X60210000Y-90364444D03*
X60210000Y-93688888D03*
X60210000Y-97013333D03*
X60210000Y-100337777D03*
X60210000Y-103662222D03*
X60210000Y-106986666D03*
X60210000Y-110311111D03*
X60210000Y-113635555D03*
X61210000Y-113635555D03*
X61210000Y-110311111D03*
X61210000Y-106986666D03*
X61210000Y-103662222D03*
X61210000Y-100337777D03*
X61210000Y-97013333D03*
X61210000Y-93688888D03*
X61210000Y-90364444D03*
X133170000Y-52496923D03*
X133170000Y-55573846D03*
X133170000Y-59000000D03*
X133170000Y-61727692D03*
X133170000Y-64804615D03*
X133170000Y-86343076D03*
X133170000Y-89420000D03*
X133170000Y-92496923D03*
X133170000Y-95573846D03*
X133170000Y-98650769D03*
X133170000Y-101727692D03*
X133170000Y-104804615D03*
X133170000Y-107881538D03*
X133170000Y-110958461D03*
X133170000Y-114035384D03*
X133170000Y-117112307D03*
X133170000Y-120189230D03*
X133170000Y-123266153D03*
X133170000Y-49420000D03*
X133170000Y-129420000D03*
X134170000Y-123266153D03*
X134170000Y-120189230D03*
X134170000Y-117112307D03*
X134170000Y-114035384D03*
X134170000Y-110958461D03*
X134170000Y-107881538D03*
X134170000Y-104804615D03*
X134170000Y-101727692D03*
X134170000Y-98650769D03*
X134170000Y-95573846D03*
X134170000Y-92496923D03*
X134170000Y-89420000D03*
X134170000Y-86343076D03*
X134170000Y-64804615D03*
X134170000Y-61727692D03*
X134170000Y-59000000D03*
X134170000Y-55573846D03*
X134170000Y-52496923D03*
X134170000Y-129420000D03*
X134170000Y-49420000D03*
X82250000Y-65055995D03*
X82250000Y-68135871D03*
X82250000Y-71215746D03*
X82250000Y-74295622D03*
X82250000Y-77375497D03*
X82250000Y-80455373D03*
X82250000Y-83535248D03*
X82250000Y-86615124D03*
X82250000Y-89695000D03*
X82250000Y-92774875D03*
X82250000Y-95854751D03*
X82250000Y-98934626D03*
X82250000Y-102014502D03*
X82250000Y-105094377D03*
X82250000Y-108174253D03*
X82250000Y-111254128D03*
X82250000Y-114334004D03*
X82250000Y-117413879D03*
X83250000Y-119424129D03*
X83250000Y-116294747D03*
X83250000Y-110035983D03*
X83250000Y-106906601D03*
X83250000Y-103777219D03*
X83250000Y-100647837D03*
X83250000Y-97518455D03*
X83250000Y-94389073D03*
X83250000Y-91259691D03*
X83250000Y-88130308D03*
X83250000Y-85000926D03*
X83250000Y-81871544D03*
X83250000Y-78742162D03*
X83250000Y-75612780D03*
X83250000Y-72483398D03*
X83250000Y-69354016D03*
X83250000Y-66224634D03*
X200781836Y-125565270D03*
X202965977Y-123381129D03*
X203250000Y-120388419D03*
X203250000Y-117299577D03*
X203250000Y-114210735D03*
X203250000Y-111121893D03*
X203250000Y-108033051D03*
X203250000Y-104944209D03*
X203250000Y-101855367D03*
X203250000Y-98766525D03*
X203250000Y-95677683D03*
X203250000Y-92588841D03*
X203250000Y-89499999D03*
X203250000Y-86411157D03*
X203250000Y-83322316D03*
X203250000Y-80233474D03*
X203250000Y-77144632D03*
X203250000Y-74055790D03*
X203250000Y-70966948D03*
X203250000Y-67878106D03*
X203250000Y-64789264D03*
X203250000Y-61700422D03*
X203250000Y-58611580D03*
X202965977Y-55618870D03*
X200781836Y-53434729D03*
X198597695Y-51250588D03*
X197887632Y-51954737D03*
X200068816Y-54135921D03*
X202250000Y-59333732D03*
X202250000Y-62350359D03*
X202250000Y-65366986D03*
X202250000Y-68383612D03*
X202250000Y-71400239D03*
X202250000Y-74416866D03*
X202250000Y-77433493D03*
X202250000Y-80450119D03*
X202250000Y-83466746D03*
X202250000Y-86483373D03*
X202250000Y-89500000D03*
X202250000Y-92516626D03*
X202250000Y-95533253D03*
X202250000Y-98549880D03*
X202250000Y-101566506D03*
X202250000Y-104583133D03*
X202250000Y-107599760D03*
X202250000Y-110616387D03*
X202250000Y-113633013D03*
X202250000Y-116649640D03*
X202250000Y-119666267D03*
X197887632Y-127045262D03*
X202250000Y-56317106D03*
X202250000Y-122682894D03*
X183670000Y-52474230D03*
X183670000Y-55528461D03*
X183670000Y-58582692D03*
X183670000Y-61636923D03*
X183670000Y-64691153D03*
X183670000Y-67745384D03*
X183670000Y-70799615D03*
X183670000Y-73853846D03*
X183670000Y-76908076D03*
X183670000Y-79962307D03*
X183670000Y-83016538D03*
X183670000Y-86070769D03*
X183670000Y-89125000D03*
X183670000Y-92179230D03*
X183670000Y-95233461D03*
X183670000Y-98287692D03*
X183670000Y-101341923D03*
X183670000Y-104396153D03*
X183670000Y-107450384D03*
X183670000Y-110504615D03*
X183670000Y-113558846D03*
X183670000Y-116613076D03*
X183670000Y-119667307D03*
X183670000Y-122721538D03*
X183670000Y-125775769D03*
X183670000Y-49420000D03*
X183670000Y-128830000D03*
X184670000Y-125775769D03*
X184670000Y-122721538D03*
X184670000Y-119667307D03*
X184670000Y-116613076D03*
X184670000Y-113558846D03*
X184670000Y-110504615D03*
X184670000Y-107450384D03*
X184670000Y-104396153D03*
X184670000Y-101341923D03*
X184670000Y-98287692D03*
X184670000Y-95233461D03*
X184670000Y-92179230D03*
X184670000Y-89125000D03*
X184670000Y-86070769D03*
X184670000Y-83016538D03*
X184670000Y-79962307D03*
X184670000Y-76908076D03*
X184670000Y-73853846D03*
X184670000Y-70799615D03*
X184670000Y-64691153D03*
X184670000Y-61636923D03*
X184670000Y-58582692D03*
X184670000Y-55528461D03*
X184670000Y-52474230D03*
X184670000Y-128830000D03*
X184670000Y-49420000D03*
X166670000Y-52493461D03*
X166670000Y-55566923D03*
X166670000Y-58640384D03*
X166670000Y-61713846D03*
X166670000Y-64787307D03*
X166670000Y-67860769D03*
X166670000Y-70934230D03*
X166670000Y-74007692D03*
X166670000Y-77081153D03*
X166670000Y-80154615D03*
X166670000Y-83228076D03*
X166670000Y-86301538D03*
X166670000Y-89375000D03*
X166670000Y-92448461D03*
X166670000Y-95521923D03*
X166670000Y-98595384D03*
X166670000Y-101668846D03*
X166670000Y-104742307D03*
X166670000Y-107815769D03*
X166670000Y-110889230D03*
X166670000Y-113962692D03*
X166670000Y-117036153D03*
X166670000Y-120109615D03*
X166670000Y-123183076D03*
X166670000Y-126256538D03*
X166670000Y-49420000D03*
X166670000Y-129330000D03*
X167670000Y-126256538D03*
X167670000Y-123183076D03*
X167670000Y-120109615D03*
X167670000Y-117036153D03*
X167670000Y-113962692D03*
X167670000Y-110889230D03*
X167670000Y-107815769D03*
X167670000Y-104742307D03*
X167670000Y-101668846D03*
X167670000Y-98595384D03*
X167670000Y-95521923D03*
X167670000Y-92448461D03*
X167670000Y-89375000D03*
X167670000Y-86301538D03*
X167670000Y-83228076D03*
X167670000Y-80154615D03*
X167670000Y-77081153D03*
X167670000Y-74007692D03*
X167670000Y-70934230D03*
X167670000Y-64787307D03*
X167670000Y-61713846D03*
X167670000Y-58640384D03*
X167670000Y-55566923D03*
X167670000Y-52493461D03*
X167670000Y-129330000D03*
X167670000Y-49420000D03*
X150080000Y-52486400D03*
X150080000Y-55552800D03*
X150080000Y-58619200D03*
X150080000Y-61685600D03*
X150080000Y-64752000D03*
X150080000Y-70884800D03*
X150080000Y-73951200D03*
X150080000Y-77017600D03*
X150080000Y-80084000D03*
X150080000Y-83150400D03*
X150080000Y-86216800D03*
X150080000Y-89283200D03*
X150080000Y-92349600D03*
X150080000Y-95416000D03*
X150080000Y-98482400D03*
X150080000Y-101548800D03*
X150080000Y-104615200D03*
X150080000Y-107681600D03*
X150080000Y-110748000D03*
X150080000Y-113814400D03*
X150080000Y-116880800D03*
X150080000Y-119947200D03*
X150080000Y-123013600D03*
X150080000Y-49420000D03*
X150080000Y-126080000D03*
X151080000Y-123013600D03*
X151080000Y-119947200D03*
X151080000Y-116880800D03*
X151080000Y-113814400D03*
X151080000Y-110748000D03*
X151080000Y-107681600D03*
X151080000Y-104615200D03*
X151080000Y-101548800D03*
X151080000Y-98482400D03*
X151080000Y-95416000D03*
X151080000Y-92349600D03*
X151080000Y-89283200D03*
X151080000Y-86216800D03*
X151080000Y-83150400D03*
X151080000Y-80084000D03*
X151080000Y-77017600D03*
X151080000Y-73951200D03*
X151080000Y-70884800D03*
X151080000Y-64752000D03*
X151080000Y-61685600D03*
X151080000Y-58619200D03*
X151080000Y-55552800D03*
X151080000Y-52486400D03*
X151080000Y-126080000D03*
X151080000Y-49420000D03*
X98670000Y-52496923D03*
X98670000Y-55573846D03*
X98670000Y-59000000D03*
X98670000Y-61727692D03*
X98670000Y-64804615D03*
X98670000Y-67881538D03*
X98670000Y-70958461D03*
X98670000Y-74035384D03*
X98670000Y-77112307D03*
X98670000Y-80189230D03*
X98670000Y-83266153D03*
X98670000Y-86343076D03*
X98670000Y-89420000D03*
X98670000Y-92496923D03*
X98670000Y-95573846D03*
X98670000Y-98650769D03*
X98670000Y-101727692D03*
X98670000Y-104804615D03*
X98670000Y-107881538D03*
X98670000Y-110958461D03*
X98670000Y-114035384D03*
X98670000Y-117112307D03*
X98670000Y-120189230D03*
X98670000Y-123266153D03*
X98670000Y-49420000D03*
X98670000Y-129420000D03*
X99670000Y-123266153D03*
X99670000Y-120189230D03*
X99670000Y-117112307D03*
X99670000Y-114035384D03*
X99670000Y-110958461D03*
X99670000Y-107881538D03*
X99670000Y-104804615D03*
X99670000Y-101727692D03*
X99670000Y-98650769D03*
X99670000Y-95573846D03*
X99670000Y-92496923D03*
X99670000Y-89420000D03*
X99670000Y-86343076D03*
X99670000Y-83266153D03*
X99670000Y-80189230D03*
X99670000Y-77112307D03*
X99670000Y-74035384D03*
X99670000Y-70958461D03*
X99670000Y-64804615D03*
X99670000Y-61727692D03*
X99670000Y-59000000D03*
X99670000Y-55573846D03*
X99670000Y-52496923D03*
X99670000Y-129420000D03*
X99670000Y-49420000D03*
X115830000Y-52487307D03*
X115830000Y-55554615D03*
X115830000Y-59000000D03*
X115830000Y-61689230D03*
X115830000Y-64756538D03*
X115830000Y-67823846D03*
X115830000Y-70891153D03*
X115830000Y-73958461D03*
X115830000Y-77025769D03*
X115830000Y-80093076D03*
X115830000Y-83160384D03*
X115830000Y-86227692D03*
X115830000Y-89295000D03*
X115830000Y-92362307D03*
X115830000Y-95429615D03*
X115830000Y-98496923D03*
X115830000Y-101564230D03*
X115830000Y-104631538D03*
X115830000Y-107698846D03*
X115830000Y-110766153D03*
X115830000Y-113833461D03*
X115830000Y-116900769D03*
X115830000Y-119968076D03*
X115830000Y-123035384D03*
X115830000Y-49420000D03*
X115830000Y-129170000D03*
X116830000Y-123035384D03*
X116830000Y-119968076D03*
X116830000Y-116900769D03*
X116830000Y-113833461D03*
X116830000Y-110766153D03*
X116830000Y-107698846D03*
X116830000Y-104631538D03*
X116830000Y-101564230D03*
X116830000Y-98496923D03*
X116830000Y-95429615D03*
X116830000Y-92362307D03*
X116830000Y-89295000D03*
X116830000Y-86227692D03*
X116830000Y-83160384D03*
X116830000Y-80093076D03*
X116830000Y-77025769D03*
X116830000Y-73958461D03*
X116830000Y-70891153D03*
X116830000Y-64756538D03*
X116830000Y-61689230D03*
X116830000Y-59000000D03*
X116830000Y-55554615D03*
X116830000Y-52487307D03*
X116830000Y-129170000D03*
X116830000Y-49420000D03*
X67750000Y-124316331D03*
X67750000Y-125390023D03*
X67750000Y-126463715D03*
X67750000Y-127537407D03*
X67750000Y-128611099D03*
X67750000Y-129684791D03*
X68266017Y-131682209D03*
X68951807Y-132444446D03*
X69678246Y-133170885D03*
X70404685Y-133897324D03*
X71131124Y-134623763D03*
X71857564Y-135350203D03*
X72584003Y-136076642D03*
X73310553Y-136802969D03*
X74152049Y-137383519D03*
X75139628Y-137647791D03*
X76166601Y-137660000D03*
X77193941Y-137660000D03*
X78221281Y-137660000D03*
X79248621Y-137660000D03*
X80275961Y-137660000D03*
X81303301Y-137660000D03*
X82330641Y-137660000D03*
X83357981Y-137660000D03*
X84385321Y-137660000D03*
X85412661Y-137660000D03*
X67845373Y-130750428D03*
X86440000Y-137660000D03*
X82090063Y-131660000D03*
X81002578Y-131660000D03*
X79915094Y-131660000D03*
X78827609Y-131660000D03*
X77740125Y-131660000D03*
X75926980Y-130934340D03*
X75201320Y-130208680D03*
X74475660Y-129483020D03*
X73750000Y-127619735D03*
X73750000Y-126482111D03*
X73750000Y-125344487D03*
X73750000Y-124206863D03*
X73750000Y-123069239D03*
X73500149Y-120801382D03*
X72841962Y-119849321D03*
X72018415Y-119025774D03*
X71194868Y-118202227D03*
X76652640Y-131660000D03*
X73750000Y-128757360D03*
X73749221Y-121931621D03*
X70371320Y-117378680D03*
X66250000Y-63247546D03*
X66250000Y-61995093D03*
X68419480Y-59580000D03*
X69426320Y-59580000D03*
X66250000Y-64500000D03*
X66250000Y-60742640D03*
X67412640Y-59580000D03*
X70434111Y-54000000D03*
X69428222Y-53580000D03*
X68422333Y-53580000D03*
X67416444Y-53580000D03*
X66410555Y-53580000D03*
X65412941Y-53677094D03*
X64499901Y-54087858D03*
X63751046Y-54756314D03*
X63039775Y-55467585D03*
X62328504Y-56178856D03*
X61617233Y-56890127D03*
X60918052Y-57612669D03*
X60426887Y-58485095D03*
X60250145Y-59470554D03*
X60250000Y-60476443D03*
X60250000Y-61482332D03*
X60250000Y-62488221D03*
X60250000Y-63494110D03*
X71440000Y-54000000D03*
X60250000Y-64500000D03*
X68354505Y-87500000D03*
X69375406Y-87500000D03*
X70396249Y-87496433D03*
X71387982Y-87275787D03*
X72249199Y-86736784D03*
X72974352Y-86018288D03*
X73696238Y-85296402D03*
X74418124Y-84574516D03*
X75140010Y-83852630D03*
X75861896Y-83130744D03*
X76583782Y-82408858D03*
X77305668Y-81686972D03*
X77965264Y-80911824D03*
X78343359Y-79968816D03*
X78410000Y-78952613D03*
X78410000Y-77931712D03*
X78410000Y-76910811D03*
X78410000Y-75889910D03*
X78410000Y-74869009D03*
X78410000Y-73848108D03*
X78410000Y-72827207D03*
X78410000Y-71806306D03*
X78410000Y-70785405D03*
X78410000Y-69764504D03*
X78410000Y-68743603D03*
X78410000Y-67722702D03*
X78410000Y-66701801D03*
X78410000Y-65680900D03*
X63250000Y-87500000D03*
X78410000Y-64660000D03*
X77971429Y-59160000D03*
X76882858Y-59160000D03*
X75794286Y-59160000D03*
X74705715Y-59160000D03*
X73617143Y-59160000D03*
X72528572Y-59160000D03*
X79060000Y-59160000D03*
X71440000Y-59160000D03*
X72410000Y-65693643D03*
X72410000Y-66727286D03*
X72410000Y-67760929D03*
X72410000Y-68794572D03*
X72410000Y-69828215D03*
X72410000Y-70861858D03*
X72410000Y-71895501D03*
X72410000Y-72929144D03*
X72410000Y-73962787D03*
X72410000Y-74996430D03*
X72410000Y-76030073D03*
X72410000Y-77063716D03*
X71559340Y-78948020D03*
X70708680Y-79798680D03*
X69858020Y-80649340D03*
X67855888Y-81500000D03*
X71440000Y-64660000D03*
X72410000Y-64660000D03*
X72410000Y-78097360D03*
X69007360Y-81500000D03*
X63250000Y-81500000D03*
X72750000Y-54000000D03*
X73750000Y-54000000D03*
X74750000Y-54000000D03*
X75750000Y-54000000D03*
X76750000Y-54000000D03*
X77750000Y-54000000D03*
X77750000Y-54000000D03*
X78750000Y-54000000D03*
X79750000Y-54000000D03*
X198250000Y-137500000D03*
X195250000Y-137500000D03*
X192250000Y-137500000D03*
X189250000Y-137500000D03*
X186250000Y-137500000D03*
X183250000Y-137500000D03*
X180250000Y-137500000D03*
X177250000Y-137500000D03*
X174250000Y-137500000D03*
X171250000Y-137500000D03*
X168250000Y-137500000D03*
X165250000Y-137500000D03*
X162250000Y-137500000D03*
X159250000Y-137500000D03*
X156250000Y-137500000D03*
X153250000Y-137500000D03*
X150250000Y-137500000D03*
X147250000Y-137500000D03*
X144250000Y-137500000D03*
X141250000Y-137500000D03*
X138250000Y-137500000D03*
X135250000Y-137500000D03*
X132250000Y-137500000D03*
X129250000Y-137500000D03*
X126250000Y-137500000D03*
X123250000Y-137500000D03*
X120250000Y-137500000D03*
X117250000Y-137500000D03*
X114250000Y-137500000D03*
X111250000Y-137500000D03*
X108250000Y-137500000D03*
X105250000Y-137500000D03*
X102250000Y-137500000D03*
X99250000Y-137500000D03*
X96250000Y-137500000D03*
X93250000Y-137500000D03*
X90250000Y-137500000D03*
X87250000Y-137500000D03*
X198250000Y-41500000D03*
X195250000Y-41500000D03*
X192250000Y-41500000D03*
X189250000Y-41500000D03*
X186250000Y-41500000D03*
X183250000Y-41500000D03*
X180250000Y-41500000D03*
X177250000Y-41500000D03*
X174250000Y-41500000D03*
X171250000Y-41500000D03*
X168250000Y-41500000D03*
X165250000Y-41500000D03*
X162250000Y-41500000D03*
X159250000Y-41500000D03*
X156250000Y-41500000D03*
X153250000Y-41500000D03*
X150250000Y-41500000D03*
X147250000Y-41500000D03*
X144250000Y-41500000D03*
X141250000Y-41500000D03*
X138250000Y-41500000D03*
X135250000Y-41500000D03*
X132250000Y-41500000D03*
X129250000Y-41500000D03*
X126250000Y-41500000D03*
X123250000Y-41500000D03*
X120250000Y-41500000D03*
X117250000Y-41500000D03*
X114250000Y-41500000D03*
X111250000Y-41500000D03*
X108250000Y-41500000D03*
X105250000Y-41500000D03*
X102250000Y-41500000D03*
X99250000Y-41500000D03*
X96250000Y-41500000D03*
X93250000Y-41500000D03*
X90250000Y-41500000D03*
X87250000Y-41500000D03*
X84250000Y-41500000D03*
X81250000Y-41500000D03*
X78250000Y-41500000D03*
X75250000Y-41500000D03*
X72250000Y-41500000D03*
X69250000Y-41500000D03*
X206250000Y-49500000D03*
X206250000Y-52500000D03*
X206250000Y-55500000D03*
X206250000Y-58500000D03*
X206250000Y-61500000D03*
X206250000Y-64500000D03*
X206250000Y-67500000D03*
X206250000Y-70500000D03*
X206250000Y-73500000D03*
X206250000Y-76500000D03*
X206250000Y-79500000D03*
X206250000Y-82500000D03*
X206250000Y-85500000D03*
X206250000Y-88500000D03*
X206250000Y-91500000D03*
X206250000Y-94500000D03*
X206250000Y-97500000D03*
X206250000Y-100500000D03*
X206250000Y-103500000D03*
X206250000Y-106500000D03*
X206250000Y-109500000D03*
X206250000Y-112500000D03*
X206250000Y-115500000D03*
X206250000Y-118500000D03*
X206250000Y-121500000D03*
X206250000Y-124500000D03*
X206250000Y-127500000D03*
X206250000Y-130500000D03*
X133670000Y-80670000D03*
X133670000Y-73170000D03*
X133670000Y-73170000D03*
X133670000Y-68230000D03*
X73250000Y-89750000D03*
X72250000Y-90750000D03*
X70750000Y-91250000D03*
X69500000Y-91250000D03*
X68250000Y-91250000D03*
D18*
X110830000Y-129580000D02*
X110750000Y-129500000D01*
X116330000Y-49420000D02*
X111060000Y-49420000D01*
X116330000Y-49420000D02*
X116330000Y-129170000D01*
X116000000Y-129500000D02*
X110830000Y-129580000D01*
X120440000Y-49420000D02*
X116330000Y-49420000D01*
X116330000Y-129170000D02*
X116000000Y-129500000D01*
X120440000Y-129580000D02*
X116000000Y-129500000D01*
X184170000Y-128830000D02*
X183500000Y-129500000D01*
X184170000Y-49420000D02*
X179060000Y-49420000D01*
X184170000Y-49420000D02*
X184170000Y-128830000D01*
X188440000Y-49420000D02*
X184170000Y-49420000D01*
X188440000Y-129580000D02*
X183500000Y-129500000D01*
X183500000Y-129500000D02*
X179060000Y-129580000D01*
X167170000Y-129330000D02*
X167000000Y-129500000D01*
X167170000Y-49420000D02*
X167170000Y-129330000D01*
X167170000Y-49420000D02*
X162060000Y-49420000D01*
X171440000Y-49420000D02*
X167170000Y-49420000D01*
X171440000Y-129580000D02*
X167000000Y-129500000D01*
X167000000Y-129500000D02*
X162060000Y-129580000D01*
X150580000Y-49420000D02*
X150580000Y-126080000D01*
X154440000Y-49420000D02*
X150580000Y-49420000D01*
X150580000Y-49420000D02*
X145060000Y-49420000D01*
X145250000Y-129750000D02*
X145000000Y-129500000D01*
X149750000Y-129750000D02*
X145250000Y-129750000D01*
X150580000Y-126080000D02*
X150580000Y-128920000D01*
X150580000Y-128920000D02*
X149750000Y-129750000D01*
X149750000Y-129750000D02*
X154250000Y-129750000D01*
X103440000Y-49420000D02*
X99170000Y-49420000D01*
X99170000Y-49420000D02*
X94060000Y-49420000D01*
X101592234Y-129500000D02*
X94000000Y-129500000D01*
X101672234Y-129580000D02*
X101592234Y-129500000D01*
X103440000Y-129580000D02*
X101672234Y-129580000D01*
X99330000Y-129580000D02*
X103440000Y-129580000D01*
X99170000Y-49420000D02*
X99170000Y-129420000D01*
X99170000Y-129420000D02*
X99330000Y-129580000D01*
X196060000Y-49420000D02*
X202750000Y-56110000D01*
X202750000Y-122890000D02*
X196060000Y-129580000D01*
X202750000Y-56110000D02*
X202750000Y-122890000D01*
X128080000Y-129580000D02*
X128000000Y-129500000D01*
X133670000Y-129420000D02*
X133750000Y-129500000D01*
X137440000Y-49420000D02*
X133670000Y-49420000D01*
X137440000Y-129580000D02*
X133750000Y-129500000D01*
X133670000Y-49420000D02*
X133670000Y-68230000D01*
X133750000Y-129500000D02*
X128080000Y-129580000D01*
X133670000Y-49420000D02*
X128060000Y-49420000D01*
X133670000Y-80670000D02*
X133670000Y-129420000D01*
X133670000Y-73170000D02*
X133670000Y-73170000D01*
X133670000Y-73170000D02*
X133670000Y-80670000D01*
X86440000Y-49420000D02*
X86440000Y-49810000D01*
D19*
X65750000Y-87080000D02*
X65790000Y-87040000D01*
D18*
X60710000Y-87040000D02*
X60710000Y-116960000D01*
X60710000Y-116960000D02*
X60710000Y-122040000D01*
X60710000Y-131960000D02*
X63250000Y-134500000D01*
X60710000Y-122040000D02*
X60710000Y-131960000D01*
X60710000Y-87040000D02*
X60710000Y-81960000D01*
X60710000Y-81960000D02*
X60710000Y-72040000D01*
X60710000Y-72040000D02*
X60710000Y-66960000D01*
X82750000Y-65500000D02*
X82750000Y-125890000D01*
X85190001Y-128330001D02*
X86440000Y-129580000D01*
X82750000Y-125890000D02*
X85190001Y-128330001D01*
X133670000Y-68230000D02*
X133670000Y-73170000D01*
D20*
X141250000Y-54500000D02*
X141250000Y-67750000D01*
X145060000Y-54500000D02*
X141250000Y-54500000D01*
X141250000Y-54500000D02*
X137440000Y-54500000D01*
X142520000Y-69020000D02*
X142520000Y-69960000D01*
X141250000Y-67750000D02*
X142520000Y-69020000D01*
X138710000Y-89230000D02*
X138710000Y-75040000D01*
X87710000Y-88230000D02*
X87710000Y-74540000D01*
X94060000Y-54500000D02*
X90250000Y-54500000D01*
X90250000Y-54500000D02*
X86440000Y-54500000D01*
X90250000Y-68190000D02*
X91520000Y-69460000D01*
X90250000Y-54500000D02*
X90250000Y-68190000D01*
X196060000Y-54500000D02*
X192250000Y-54500000D01*
X192250000Y-54500000D02*
X188440000Y-54500000D01*
X192250000Y-68190000D02*
X193520000Y-69460000D01*
X192250000Y-54500000D02*
X192250000Y-68190000D01*
X179060000Y-54500000D02*
X175250000Y-54500000D01*
X175250000Y-54500000D02*
X171440000Y-54500000D01*
X175250000Y-68190000D02*
X176520000Y-69460000D01*
X175250000Y-54500000D02*
X175250000Y-68190000D01*
X162060000Y-54500000D02*
X158500000Y-54500000D01*
X158500000Y-54500000D02*
X154440000Y-54500000D01*
X158500000Y-68440000D02*
X159520000Y-69460000D01*
X158500000Y-54500000D02*
X158500000Y-68440000D01*
X123770001Y-67710001D02*
X125520000Y-69460000D01*
X123770001Y-54979999D02*
X123770001Y-67710001D01*
X124250000Y-54500000D02*
X123770001Y-54979999D01*
X128060000Y-54500000D02*
X124250000Y-54500000D01*
X124250000Y-54500000D02*
X120440000Y-54500000D01*
X111060000Y-54500000D02*
X107250000Y-54500000D01*
X107250000Y-54500000D02*
X103440000Y-54500000D01*
X107250000Y-66750000D02*
X107250000Y-67750000D01*
X107250000Y-54500000D02*
X107250000Y-67750000D01*
X108520000Y-69020000D02*
X107250000Y-67750000D01*
X108520000Y-69460000D02*
X108520000Y-69020000D01*
X193520000Y-78350000D02*
X189710000Y-74540000D01*
X193520000Y-104460000D02*
X193520000Y-78350000D01*
X176520000Y-78350000D02*
X172710000Y-74540000D01*
X176520000Y-104460000D02*
X176520000Y-78350000D01*
X159520000Y-78350000D02*
X155710000Y-74540000D01*
X159520000Y-104460000D02*
X159520000Y-78350000D01*
X125520000Y-78350000D02*
X121710000Y-74540000D01*
X125520000Y-104460000D02*
X125520000Y-78350000D01*
X108520000Y-104460000D02*
X108290000Y-104460000D01*
X108520000Y-78350000D02*
X104710000Y-74540000D01*
X108520000Y-104460000D02*
X108520000Y-78350000D01*
X92790000Y-103190000D02*
X91520000Y-104460000D01*
X92790000Y-92040000D02*
X92790000Y-103190000D01*
X143790000Y-103190000D02*
X142520000Y-104460000D01*
X143790000Y-93040000D02*
X143790000Y-103190000D01*
X192250000Y-112080000D02*
X189710000Y-109540000D01*
X192250000Y-124500000D02*
X192250000Y-112080000D01*
X188440000Y-124500000D02*
X192250000Y-124500000D01*
X192250000Y-124500000D02*
X196060000Y-124500000D01*
X171440000Y-124500000D02*
X175250000Y-124500000D01*
X175250000Y-124500000D02*
X175250000Y-112080000D01*
X175250000Y-124500000D02*
X179060000Y-124500000D01*
X175250000Y-112080000D02*
X172710000Y-109540000D01*
X158250000Y-112080000D02*
X155710000Y-109540000D01*
X158250000Y-124500000D02*
X158250000Y-112080000D01*
X154440000Y-124500000D02*
X158250000Y-124500000D01*
X158250000Y-124500000D02*
X162060000Y-124500000D01*
X124250000Y-112080000D02*
X121710000Y-109540000D01*
X124250000Y-124500000D02*
X124250000Y-112080000D01*
X120440000Y-124500000D02*
X124250000Y-124500000D01*
X124250000Y-124500000D02*
X128060000Y-124500000D01*
X103440000Y-124500000D02*
X107250000Y-124500000D01*
X107250000Y-112080000D02*
X104710000Y-109540000D01*
X107250000Y-124500000D02*
X107250000Y-112080000D01*
X107250000Y-124500000D02*
X111060000Y-124500000D01*
X86440000Y-124500000D02*
X90250000Y-124500000D01*
X90250000Y-124500000D02*
X90250000Y-112000000D01*
X90250000Y-124500000D02*
X94060000Y-124500000D01*
X90170000Y-112000000D02*
X87710000Y-109540000D01*
X90250000Y-112000000D02*
X90170000Y-112000000D01*
X141250000Y-112080000D02*
X138710000Y-109540000D01*
X137440000Y-124500000D02*
X141250000Y-124500000D01*
X141250000Y-124500000D02*
X141250000Y-112080000D01*
X141250000Y-124500000D02*
X145060000Y-124500000D01*
X94060000Y-134660000D02*
X103440000Y-134660000D01*
X86440000Y-134660000D02*
X94060000Y-134660000D01*
X103440000Y-134660000D02*
X111060000Y-134660000D01*
X111060000Y-134660000D02*
X120440000Y-134660000D01*
X120440000Y-134660000D02*
X128060000Y-134660000D01*
X128060000Y-134660000D02*
X137440000Y-134660000D01*
X137440000Y-134660000D02*
X145060000Y-134660000D01*
X145060000Y-134660000D02*
X154440000Y-134660000D01*
X154440000Y-134660000D02*
X162060000Y-134660000D01*
X162060000Y-134660000D02*
X171440000Y-134660000D01*
X171440000Y-134660000D02*
X179060000Y-134660000D01*
X179060000Y-134660000D02*
X188440000Y-134660000D01*
X188440000Y-134660000D02*
X196060000Y-134660000D01*
X71440000Y-51500000D02*
X79060000Y-51500000D01*
X86440000Y-44340000D02*
X94060000Y-44340000D01*
X94060000Y-44340000D02*
X103440000Y-44340000D01*
X103440000Y-44340000D02*
X111060000Y-44340000D01*
X111060000Y-44340000D02*
X120440000Y-44340000D01*
X120440000Y-44340000D02*
X128060000Y-44340000D01*
X128060000Y-44340000D02*
X137440000Y-44340000D01*
X137440000Y-44340000D02*
X145060000Y-44340000D01*
X145060000Y-44340000D02*
X154440000Y-44340000D01*
X154440000Y-44340000D02*
X162060000Y-44340000D01*
X162060000Y-44340000D02*
X171440000Y-44340000D01*
X171440000Y-44340000D02*
X179060000Y-44340000D01*
X179060000Y-44340000D02*
X188440000Y-44340000D01*
X188440000Y-44340000D02*
X196060000Y-44340000D01*
X85910000Y-44340000D02*
X86440000Y-44340000D01*
X79060000Y-51500000D02*
X79060000Y-51190000D01*
X79060000Y-51190000D02*
X85910000Y-44340000D01*
D21*
G36*
X207540001Y-138790000D02*
G01*
X198377000Y-138790000D01*
X198377000Y-137414155D01*
X200515450Y-137414155D01*
X200911634Y-137934550D01*
X201626612Y-138324748D01*
X202403976Y-138567964D01*
X203213853Y-138654851D01*
X204025118Y-138582069D01*
X204806597Y-138352415D01*
X205528256Y-137974715D01*
X205588366Y-137934550D01*
X205984550Y-137414155D01*
X203250000Y-134679605D01*
X200515450Y-137414155D01*
X198377000Y-137414155D01*
X198377000Y-134463853D01*
X199095149Y-134463853D01*
X199167931Y-135275118D01*
X199397585Y-136056597D01*
X199775285Y-136778256D01*
X199815450Y-136838366D01*
X200335845Y-137234550D01*
X203070395Y-134500000D01*
X203429605Y-134500000D01*
X206164155Y-137234550D01*
X206684550Y-136838366D01*
X207074748Y-136123388D01*
X207317964Y-135346024D01*
X207404851Y-134536147D01*
X207332069Y-133724882D01*
X207102415Y-132943403D01*
X206724715Y-132221744D01*
X206684550Y-132161634D01*
X206164155Y-131765450D01*
X203429605Y-134500000D01*
X203070395Y-134500000D01*
X200335845Y-131765450D01*
X199815450Y-132161634D01*
X199425252Y-132876612D01*
X199182036Y-133653976D01*
X199095149Y-134463853D01*
X198377000Y-134463853D01*
X198377000Y-131585845D01*
X200515450Y-131585845D01*
X203250000Y-134320395D01*
X205984550Y-131585845D01*
X205588366Y-131065450D01*
X204873388Y-130675252D01*
X204096024Y-130432036D01*
X203286147Y-130345149D01*
X202474882Y-130417931D01*
X201693403Y-130647585D01*
X200971744Y-131025285D01*
X200911634Y-131065450D01*
X200515450Y-131585845D01*
X198377000Y-131585845D01*
X198377000Y-47414155D01*
X200515450Y-47414155D01*
X200911634Y-47934550D01*
X201626612Y-48324748D01*
X202403976Y-48567964D01*
X203213853Y-48654851D01*
X204025118Y-48582069D01*
X204806597Y-48352415D01*
X205528256Y-47974715D01*
X205588366Y-47934550D01*
X205984550Y-47414155D01*
X203250000Y-44679605D01*
X200515450Y-47414155D01*
X198377000Y-47414155D01*
X198377000Y-44463853D01*
X199095149Y-44463853D01*
X199167931Y-45275118D01*
X199397585Y-46056597D01*
X199775285Y-46778256D01*
X199815450Y-46838366D01*
X200335845Y-47234550D01*
X203070395Y-44500000D01*
X203429605Y-44500000D01*
X206164155Y-47234550D01*
X206684550Y-46838366D01*
X207074748Y-46123388D01*
X207317964Y-45346024D01*
X207404851Y-44536147D01*
X207332069Y-43724882D01*
X207102415Y-42943403D01*
X206724715Y-42221744D01*
X206684550Y-42161634D01*
X206164155Y-41765450D01*
X203429605Y-44500000D01*
X203070395Y-44500000D01*
X200335845Y-41765450D01*
X199815450Y-42161634D01*
X199425252Y-42876612D01*
X199182036Y-43653976D01*
X199095149Y-44463853D01*
X198377000Y-44463853D01*
X198377000Y-41585845D01*
X200515450Y-41585845D01*
X203250000Y-44320395D01*
X205984550Y-41585845D01*
X205588366Y-41065450D01*
X204873388Y-40675252D01*
X204096024Y-40432036D01*
X203286147Y-40345149D01*
X202474882Y-40417931D01*
X201693403Y-40647585D01*
X200971744Y-41025285D01*
X200911634Y-41065450D01*
X200515450Y-41585845D01*
X198377000Y-41585845D01*
X198377000Y-40210000D01*
X207540000Y-40210000D01*
X207540001Y-138790000D01*
G37*
X207540001Y-138790000D02*
X198377000Y-138790000D01*
X198377000Y-137414155D01*
X200515450Y-137414155D01*
X200911634Y-137934550D01*
X201626612Y-138324748D01*
X202403976Y-138567964D01*
X203213853Y-138654851D01*
X204025118Y-138582069D01*
X204806597Y-138352415D01*
X205528256Y-137974715D01*
X205588366Y-137934550D01*
X205984550Y-137414155D01*
X203250000Y-134679605D01*
X200515450Y-137414155D01*
X198377000Y-137414155D01*
X198377000Y-134463853D01*
X199095149Y-134463853D01*
X199167931Y-135275118D01*
X199397585Y-136056597D01*
X199775285Y-136778256D01*
X199815450Y-136838366D01*
X200335845Y-137234550D01*
X203070395Y-134500000D01*
X203429605Y-134500000D01*
X206164155Y-137234550D01*
X206684550Y-136838366D01*
X207074748Y-136123388D01*
X207317964Y-135346024D01*
X207404851Y-134536147D01*
X207332069Y-133724882D01*
X207102415Y-132943403D01*
X206724715Y-132221744D01*
X206684550Y-132161634D01*
X206164155Y-131765450D01*
X203429605Y-134500000D01*
X203070395Y-134500000D01*
X200335845Y-131765450D01*
X199815450Y-132161634D01*
X199425252Y-132876612D01*
X199182036Y-133653976D01*
X199095149Y-134463853D01*
X198377000Y-134463853D01*
X198377000Y-131585845D01*
X200515450Y-131585845D01*
X203250000Y-134320395D01*
X205984550Y-131585845D01*
X205588366Y-131065450D01*
X204873388Y-130675252D01*
X204096024Y-130432036D01*
X203286147Y-130345149D01*
X202474882Y-130417931D01*
X201693403Y-130647585D01*
X200971744Y-131025285D01*
X200911634Y-131065450D01*
X200515450Y-131585845D01*
X198377000Y-131585845D01*
X198377000Y-47414155D01*
X200515450Y-47414155D01*
X200911634Y-47934550D01*
X201626612Y-48324748D01*
X202403976Y-48567964D01*
X203213853Y-48654851D01*
X204025118Y-48582069D01*
X204806597Y-48352415D01*
X205528256Y-47974715D01*
X205588366Y-47934550D01*
X205984550Y-47414155D01*
X203250000Y-44679605D01*
X200515450Y-47414155D01*
X198377000Y-47414155D01*
X198377000Y-44463853D01*
X199095149Y-44463853D01*
X199167931Y-45275118D01*
X199397585Y-46056597D01*
X199775285Y-46778256D01*
X199815450Y-46838366D01*
X200335845Y-47234550D01*
X203070395Y-44500000D01*
X203429605Y-44500000D01*
X206164155Y-47234550D01*
X206684550Y-46838366D01*
X207074748Y-46123388D01*
X207317964Y-45346024D01*
X207404851Y-44536147D01*
X207332069Y-43724882D01*
X207102415Y-42943403D01*
X206724715Y-42221744D01*
X206684550Y-42161634D01*
X206164155Y-41765450D01*
X203429605Y-44500000D01*
X203070395Y-44500000D01*
X200335845Y-41765450D01*
X199815450Y-42161634D01*
X199425252Y-42876612D01*
X199182036Y-43653976D01*
X199095149Y-44463853D01*
X198377000Y-44463853D01*
X198377000Y-41585845D01*
X200515450Y-41585845D01*
X203250000Y-44320395D01*
X205984550Y-41585845D01*
X205588366Y-41065450D01*
X204873388Y-40675252D01*
X204096024Y-40432036D01*
X203286147Y-40345149D01*
X202474882Y-40417931D01*
X201693403Y-40647585D01*
X200971744Y-41025285D01*
X200911634Y-41065450D01*
X200515450Y-41585845D01*
X198377000Y-41585845D01*
X198377000Y-40210000D01*
X207540000Y-40210000D01*
X207540001Y-138790000D01*
G36*
X198123000Y-138790000D02*
G01*
X83377000Y-138790000D01*
X83377000Y-137627000D01*
X198123000Y-137627000D01*
X198123000Y-138790000D01*
G37*
X198123000Y-138790000D02*
X83377000Y-138790000D01*
X83377000Y-137627000D01*
X198123000Y-137627000D01*
X198123000Y-138790000D01*
G36*
X198075514Y-41873000D02*
G01*
X83377000Y-41873000D01*
X83377000Y-40210000D01*
X198108774Y-40210000D01*
X198075514Y-41873000D01*
G37*
X198075514Y-41873000D02*
X83377000Y-41873000D01*
X83377000Y-40210000D01*
X198108774Y-40210000D01*
X198075514Y-41873000D01*
G36*
X83123000Y-44107654D02*
G01*
X77865655Y-49365000D01*
X71335118Y-49365000D01*
X71021467Y-49395892D01*
X70619018Y-49517974D01*
X70248119Y-49716223D01*
X69923023Y-49983023D01*
X69656223Y-50308119D01*
X69457974Y-50679018D01*
X69335892Y-51081467D01*
X69294670Y-51500000D01*
X69335892Y-51918533D01*
X69457974Y-52320982D01*
X69656223Y-52691881D01*
X69923023Y-53016977D01*
X70248119Y-53283777D01*
X70619018Y-53482026D01*
X71021467Y-53604108D01*
X71335118Y-53635000D01*
X78955118Y-53635000D01*
X79060000Y-53645330D01*
X79164882Y-53635000D01*
X79478533Y-53604108D01*
X79880982Y-53482026D01*
X80251881Y-53283777D01*
X80576977Y-53016977D01*
X80843777Y-52691881D01*
X81042026Y-52320982D01*
X81082810Y-52186535D01*
X83123000Y-50146345D01*
X83123000Y-138790000D01*
X58960000Y-138790000D01*
X58960000Y-137414155D01*
X60515450Y-137414155D01*
X60911634Y-137934550D01*
X61626612Y-138324748D01*
X62403976Y-138567964D01*
X63213853Y-138654851D01*
X64025118Y-138582069D01*
X64806597Y-138352415D01*
X65528256Y-137974715D01*
X65588366Y-137934550D01*
X65984550Y-137414155D01*
X63250000Y-134679605D01*
X60515450Y-137414155D01*
X58960000Y-137414155D01*
X58960000Y-134463853D01*
X59095149Y-134463853D01*
X59167931Y-135275118D01*
X59397585Y-136056597D01*
X59775285Y-136778256D01*
X59815450Y-136838366D01*
X60335845Y-137234550D01*
X63070395Y-134500000D01*
X63429605Y-134500000D01*
X66164155Y-137234550D01*
X66684550Y-136838366D01*
X67074748Y-136123388D01*
X67317964Y-135346024D01*
X67404851Y-134536147D01*
X67332069Y-133724882D01*
X67102415Y-132943403D01*
X66724715Y-132221744D01*
X66684550Y-132161634D01*
X66164155Y-131765450D01*
X63429605Y-134500000D01*
X63070395Y-134500000D01*
X60335845Y-131765450D01*
X59815450Y-132161634D01*
X59425252Y-132876612D01*
X59182036Y-133653976D01*
X59095149Y-134463853D01*
X58960000Y-134463853D01*
X58960000Y-131585845D01*
X60515450Y-131585845D01*
X63250000Y-134320395D01*
X65984550Y-131585845D01*
X65588366Y-131065450D01*
X64873388Y-130675252D01*
X64096024Y-130432036D01*
X63286147Y-130345149D01*
X62474882Y-130417931D01*
X61693403Y-130647585D01*
X60971744Y-131025285D01*
X60911634Y-131065450D01*
X60515450Y-131585845D01*
X58960000Y-131585845D01*
X58960000Y-123353377D01*
X59576229Y-123353377D01*
X59702104Y-123643315D01*
X60034262Y-123809139D01*
X60392387Y-123906975D01*
X60762719Y-123933065D01*
X61131025Y-123886405D01*
X61483151Y-123768789D01*
X61717896Y-123643315D01*
X61843771Y-123353377D01*
X64656229Y-123353377D01*
X64782104Y-123643315D01*
X65114262Y-123809139D01*
X65472387Y-123906975D01*
X65842719Y-123933065D01*
X66211025Y-123886405D01*
X66563151Y-123768789D01*
X66797896Y-123643315D01*
X66923771Y-123353377D01*
X65790000Y-122219605D01*
X64656229Y-123353377D01*
X61843771Y-123353377D01*
X60710000Y-122219605D01*
X59576229Y-123353377D01*
X58960000Y-123353377D01*
X58960000Y-122749648D01*
X58981211Y-122813151D01*
X59106685Y-123047896D01*
X59396623Y-123173771D01*
X60530395Y-122040000D01*
X60889605Y-122040000D01*
X62023377Y-123173771D01*
X62313315Y-123047896D01*
X62479139Y-122715738D01*
X62576975Y-122357613D01*
X62595636Y-122092719D01*
X63896935Y-122092719D01*
X63943595Y-122461025D01*
X64061211Y-122813151D01*
X64186685Y-123047896D01*
X64476623Y-123173771D01*
X65610395Y-122040000D01*
X65969605Y-122040000D01*
X67103377Y-123173771D01*
X67393315Y-123047896D01*
X67559139Y-122715738D01*
X67656975Y-122357613D01*
X67683065Y-121987281D01*
X67636405Y-121618975D01*
X67518789Y-121266849D01*
X67393315Y-121032104D01*
X67103377Y-120906229D01*
X65969605Y-122040000D01*
X65610395Y-122040000D01*
X64476623Y-120906229D01*
X64186685Y-121032104D01*
X64020861Y-121364262D01*
X63923025Y-121722387D01*
X63896935Y-122092719D01*
X62595636Y-122092719D01*
X62603065Y-121987281D01*
X62556405Y-121618975D01*
X62438789Y-121266849D01*
X62313315Y-121032104D01*
X62023377Y-120906229D01*
X60889605Y-122040000D01*
X60530395Y-122040000D01*
X59396623Y-120906229D01*
X59106685Y-121032104D01*
X58960000Y-121325925D01*
X58960000Y-120726623D01*
X59576229Y-120726623D01*
X60710000Y-121860395D01*
X61843771Y-120726623D01*
X61717896Y-120436685D01*
X61385738Y-120270861D01*
X61027613Y-120173025D01*
X60657281Y-120146935D01*
X60288975Y-120193595D01*
X59936849Y-120311211D01*
X59702104Y-120436685D01*
X59576229Y-120726623D01*
X58960000Y-120726623D01*
X58960000Y-119339017D01*
X61615510Y-119339017D01*
X61615510Y-119660983D01*
X61678322Y-119976763D01*
X61801533Y-120274222D01*
X61980408Y-120541927D01*
X62208073Y-120769592D01*
X62475778Y-120948467D01*
X62773237Y-121071678D01*
X63089017Y-121134490D01*
X63410983Y-121134490D01*
X63726763Y-121071678D01*
X64024222Y-120948467D01*
X64291927Y-120769592D01*
X64334896Y-120726623D01*
X64656229Y-120726623D01*
X65790000Y-121860395D01*
X66923771Y-120726623D01*
X66797896Y-120436685D01*
X66465738Y-120270861D01*
X66107613Y-120173025D01*
X65737281Y-120146935D01*
X65368975Y-120193595D01*
X65016849Y-120311211D01*
X64782104Y-120436685D01*
X64656229Y-120726623D01*
X64334896Y-120726623D01*
X64519592Y-120541927D01*
X64698467Y-120274222D01*
X64821678Y-119976763D01*
X64884490Y-119660983D01*
X64884490Y-119339017D01*
X64821678Y-119023237D01*
X64698467Y-118725778D01*
X64519592Y-118458073D01*
X64334896Y-118273377D01*
X64656229Y-118273377D01*
X64782104Y-118563315D01*
X65114262Y-118729139D01*
X65472387Y-118826975D01*
X65842719Y-118853065D01*
X66211025Y-118806405D01*
X66563151Y-118688789D01*
X66797896Y-118563315D01*
X66923771Y-118273377D01*
X65790000Y-117139605D01*
X64656229Y-118273377D01*
X64334896Y-118273377D01*
X64291927Y-118230408D01*
X64024222Y-118051533D01*
X63726763Y-117928322D01*
X63410983Y-117865510D01*
X63089017Y-117865510D01*
X62773237Y-117928322D01*
X62475778Y-118051533D01*
X62208073Y-118230408D01*
X61980408Y-118458073D01*
X61801533Y-118725778D01*
X61678322Y-119023237D01*
X61615510Y-119339017D01*
X58960000Y-119339017D01*
X58960000Y-118273377D01*
X59576229Y-118273377D01*
X59702104Y-118563315D01*
X60034262Y-118729139D01*
X60392387Y-118826975D01*
X60762719Y-118853065D01*
X61131025Y-118806405D01*
X61483151Y-118688789D01*
X61717896Y-118563315D01*
X61843771Y-118273377D01*
X60710000Y-117139605D01*
X59576229Y-118273377D01*
X58960000Y-118273377D01*
X58960000Y-117669648D01*
X58981211Y-117733151D01*
X59106685Y-117967896D01*
X59396623Y-118093771D01*
X60530395Y-116960000D01*
X60889605Y-116960000D01*
X62023377Y-118093771D01*
X62313315Y-117967896D01*
X62479139Y-117635738D01*
X62576975Y-117277613D01*
X62595636Y-117012719D01*
X63896935Y-117012719D01*
X63943595Y-117381025D01*
X64061211Y-117733151D01*
X64186685Y-117967896D01*
X64476623Y-118093771D01*
X65610395Y-116960000D01*
X65969605Y-116960000D01*
X67103377Y-118093771D01*
X67393315Y-117967896D01*
X67559139Y-117635738D01*
X67656975Y-117277613D01*
X67683065Y-116907281D01*
X67636405Y-116538975D01*
X67518789Y-116186849D01*
X67393315Y-115952104D01*
X67103377Y-115826229D01*
X65969605Y-116960000D01*
X65610395Y-116960000D01*
X64476623Y-115826229D01*
X64186685Y-115952104D01*
X64020861Y-116284262D01*
X63923025Y-116642387D01*
X63896935Y-117012719D01*
X62595636Y-117012719D01*
X62603065Y-116907281D01*
X62556405Y-116538975D01*
X62438789Y-116186849D01*
X62313315Y-115952104D01*
X62023377Y-115826229D01*
X60889605Y-116960000D01*
X60530395Y-116960000D01*
X59396623Y-115826229D01*
X59106685Y-115952104D01*
X58960000Y-116245925D01*
X58960000Y-115646623D01*
X59576229Y-115646623D01*
X60710000Y-116780395D01*
X61843771Y-115646623D01*
X64656229Y-115646623D01*
X65790000Y-116780395D01*
X66923771Y-115646623D01*
X66797896Y-115356685D01*
X66465738Y-115190861D01*
X66107613Y-115093025D01*
X65737281Y-115066935D01*
X65368975Y-115113595D01*
X65016849Y-115231211D01*
X64782104Y-115356685D01*
X64656229Y-115646623D01*
X61843771Y-115646623D01*
X61717896Y-115356685D01*
X61385738Y-115190861D01*
X61027613Y-115093025D01*
X60657281Y-115066935D01*
X60288975Y-115113595D01*
X59936849Y-115231211D01*
X59702104Y-115356685D01*
X59576229Y-115646623D01*
X58960000Y-115646623D01*
X58960000Y-99353740D01*
X64265000Y-99353740D01*
X64265000Y-99646260D01*
X64322068Y-99933158D01*
X64434010Y-100203411D01*
X64596525Y-100446632D01*
X64803368Y-100653475D01*
X64977760Y-100770000D01*
X64803368Y-100886525D01*
X64596525Y-101093368D01*
X64434010Y-101336589D01*
X64322068Y-101606842D01*
X64265000Y-101893740D01*
X64265000Y-102186260D01*
X64322068Y-102473158D01*
X64434010Y-102743411D01*
X64596525Y-102986632D01*
X64803368Y-103193475D01*
X64977760Y-103310000D01*
X64803368Y-103426525D01*
X64596525Y-103633368D01*
X64434010Y-103876589D01*
X64322068Y-104146842D01*
X64265000Y-104433740D01*
X64265000Y-104726260D01*
X64322068Y-105013158D01*
X64434010Y-105283411D01*
X64596525Y-105526632D01*
X64803368Y-105733475D01*
X64977760Y-105850000D01*
X64803368Y-105966525D01*
X64596525Y-106173368D01*
X64434010Y-106416589D01*
X64322068Y-106686842D01*
X64265000Y-106973740D01*
X64265000Y-107266260D01*
X64322068Y-107553158D01*
X64434010Y-107823411D01*
X64596525Y-108066632D01*
X64803368Y-108273475D01*
X65046589Y-108435990D01*
X65316842Y-108547932D01*
X65603740Y-108605000D01*
X65896260Y-108605000D01*
X66183158Y-108547932D01*
X66453411Y-108435990D01*
X66696632Y-108273475D01*
X66828487Y-108141620D01*
X66850498Y-108214180D01*
X66909463Y-108324494D01*
X66988815Y-108421185D01*
X67085506Y-108500537D01*
X67195820Y-108559502D01*
X67315518Y-108595812D01*
X67440000Y-108608072D01*
X69140000Y-108608072D01*
X69264482Y-108595812D01*
X69384180Y-108559502D01*
X69494494Y-108500537D01*
X69591185Y-108421185D01*
X69670537Y-108324494D01*
X69729502Y-108214180D01*
X69765812Y-108094482D01*
X69778072Y-107970000D01*
X69778072Y-106270000D01*
X69765812Y-106145518D01*
X69729502Y-106025820D01*
X69670537Y-105915506D01*
X69591185Y-105818815D01*
X69494494Y-105739463D01*
X69384180Y-105680498D01*
X69311620Y-105658487D01*
X69443475Y-105526632D01*
X69605990Y-105283411D01*
X69717932Y-105013158D01*
X69775000Y-104726260D01*
X69775000Y-104433740D01*
X69717932Y-104146842D01*
X69605990Y-103876589D01*
X69443475Y-103633368D01*
X69236632Y-103426525D01*
X69062240Y-103310000D01*
X69236632Y-103193475D01*
X69443475Y-102986632D01*
X69605990Y-102743411D01*
X69717932Y-102473158D01*
X69775000Y-102186260D01*
X69775000Y-101893740D01*
X69717932Y-101606842D01*
X69605990Y-101336589D01*
X69443475Y-101093368D01*
X69236632Y-100886525D01*
X69062240Y-100770000D01*
X69236632Y-100653475D01*
X69443475Y-100446632D01*
X69605990Y-100203411D01*
X69717932Y-99933158D01*
X69775000Y-99646260D01*
X69775000Y-99353740D01*
X69717932Y-99066842D01*
X69605990Y-98796589D01*
X69443475Y-98553368D01*
X69236632Y-98346525D01*
X69062240Y-98230000D01*
X69236632Y-98113475D01*
X69443475Y-97906632D01*
X69605990Y-97663411D01*
X69717932Y-97393158D01*
X69775000Y-97106260D01*
X69775000Y-96813740D01*
X69717932Y-96526842D01*
X69605990Y-96256589D01*
X69443475Y-96013368D01*
X69236632Y-95806525D01*
X68993411Y-95644010D01*
X68723158Y-95532068D01*
X68436260Y-95475000D01*
X68143740Y-95475000D01*
X67856842Y-95532068D01*
X67586589Y-95644010D01*
X67343368Y-95806525D01*
X67136525Y-96013368D01*
X67018900Y-96189406D01*
X66847588Y-95959731D01*
X66631355Y-95764822D01*
X66381252Y-95615843D01*
X66106891Y-95518519D01*
X65877000Y-95639186D01*
X65877000Y-96833000D01*
X65897000Y-96833000D01*
X65897000Y-97087000D01*
X65877000Y-97087000D01*
X65877000Y-97107000D01*
X65623000Y-97107000D01*
X65623000Y-97087000D01*
X64429845Y-97087000D01*
X64308524Y-97316890D01*
X64353175Y-97464099D01*
X64478359Y-97726920D01*
X64652412Y-97960269D01*
X64868645Y-98155178D01*
X64985534Y-98224805D01*
X64803368Y-98346525D01*
X64596525Y-98553368D01*
X64434010Y-98796589D01*
X64322068Y-99066842D01*
X64265000Y-99353740D01*
X58960000Y-99353740D01*
X58960000Y-96603110D01*
X64308524Y-96603110D01*
X64429845Y-96833000D01*
X65623000Y-96833000D01*
X65623000Y-95639186D01*
X65393109Y-95518519D01*
X65118748Y-95615843D01*
X64868645Y-95764822D01*
X64652412Y-95959731D01*
X64478359Y-96193080D01*
X64353175Y-96455901D01*
X64308524Y-96603110D01*
X58960000Y-96603110D01*
X58960000Y-90900000D01*
X66573000Y-90900000D01*
X66573000Y-92100000D01*
X66577364Y-92133007D01*
X66586160Y-92156298D01*
X66599331Y-92177425D01*
X66616370Y-92195577D01*
X67416370Y-92895577D01*
X67429443Y-92905597D01*
X67451399Y-92917333D01*
X67475224Y-92924560D01*
X67500000Y-92927000D01*
X72400000Y-92927000D01*
X72428780Y-92923696D01*
X72452358Y-92915705D01*
X72473925Y-92903267D01*
X72492651Y-92886861D01*
X75492651Y-89686861D01*
X75511914Y-89660035D01*
X75521476Y-89637048D01*
X75526370Y-89612637D01*
X75626370Y-88612637D01*
X75626824Y-88593325D01*
X75623085Y-88568711D01*
X75614616Y-88545300D01*
X75601742Y-88523990D01*
X75584959Y-88505602D01*
X74584959Y-87605602D01*
X74570557Y-87594403D01*
X74548601Y-87582667D01*
X74524776Y-87575440D01*
X74500000Y-87573000D01*
X73400000Y-87573000D01*
X73369836Y-87576634D01*
X73346348Y-87584889D01*
X73324922Y-87597568D01*
X73306381Y-87614183D01*
X71144132Y-89973000D01*
X67500000Y-89973000D01*
X67475224Y-89975440D01*
X67451399Y-89982667D01*
X67429443Y-89994403D01*
X67410197Y-90010197D01*
X66610197Y-90810197D01*
X66594403Y-90829443D01*
X66582667Y-90851399D01*
X66575440Y-90875224D01*
X66573000Y-90900000D01*
X58960000Y-90900000D01*
X58960000Y-88353377D01*
X59576229Y-88353377D01*
X59702104Y-88643315D01*
X60034262Y-88809139D01*
X60392387Y-88906975D01*
X60762719Y-88933065D01*
X61131025Y-88886405D01*
X61483151Y-88768789D01*
X61717896Y-88643315D01*
X61843771Y-88353377D01*
X64656229Y-88353377D01*
X64782104Y-88643315D01*
X65114262Y-88809139D01*
X65472387Y-88906975D01*
X65842719Y-88933065D01*
X66211025Y-88886405D01*
X66563151Y-88768789D01*
X66797896Y-88643315D01*
X66923771Y-88353377D01*
X65790000Y-87219605D01*
X64656229Y-88353377D01*
X61843771Y-88353377D01*
X60710000Y-87219605D01*
X59576229Y-88353377D01*
X58960000Y-88353377D01*
X58960000Y-87749648D01*
X58981211Y-87813151D01*
X59106685Y-88047896D01*
X59396623Y-88173771D01*
X60530395Y-87040000D01*
X60889605Y-87040000D01*
X62023377Y-88173771D01*
X62313315Y-88047896D01*
X62479139Y-87715738D01*
X62576975Y-87357613D01*
X62595636Y-87092719D01*
X63896935Y-87092719D01*
X63943595Y-87461025D01*
X64061211Y-87813151D01*
X64186685Y-88047896D01*
X64476623Y-88173771D01*
X65610395Y-87040000D01*
X65969605Y-87040000D01*
X67103377Y-88173771D01*
X67393315Y-88047896D01*
X67559139Y-87715738D01*
X67656975Y-87357613D01*
X67683065Y-86987281D01*
X67636405Y-86618975D01*
X67518789Y-86266849D01*
X67393315Y-86032104D01*
X67103377Y-85906229D01*
X65969605Y-87040000D01*
X65610395Y-87040000D01*
X64476623Y-85906229D01*
X64186685Y-86032104D01*
X64020861Y-86364262D01*
X63923025Y-86722387D01*
X63896935Y-87092719D01*
X62595636Y-87092719D01*
X62603065Y-86987281D01*
X62556405Y-86618975D01*
X62438789Y-86266849D01*
X62313315Y-86032104D01*
X62023377Y-85906229D01*
X60889605Y-87040000D01*
X60530395Y-87040000D01*
X59396623Y-85906229D01*
X59106685Y-86032104D01*
X58960000Y-86325925D01*
X58960000Y-85726623D01*
X59576229Y-85726623D01*
X60710000Y-86860395D01*
X61843771Y-85726623D01*
X61717896Y-85436685D01*
X61385738Y-85270861D01*
X61027613Y-85173025D01*
X60657281Y-85146935D01*
X60288975Y-85193595D01*
X59936849Y-85311211D01*
X59702104Y-85436685D01*
X59576229Y-85726623D01*
X58960000Y-85726623D01*
X58960000Y-84339017D01*
X61615510Y-84339017D01*
X61615510Y-84660983D01*
X61678322Y-84976763D01*
X61801533Y-85274222D01*
X61980408Y-85541927D01*
X62208073Y-85769592D01*
X62475778Y-85948467D01*
X62773237Y-86071678D01*
X63089017Y-86134490D01*
X63410983Y-86134490D01*
X63726763Y-86071678D01*
X64024222Y-85948467D01*
X64291927Y-85769592D01*
X64334896Y-85726623D01*
X64656229Y-85726623D01*
X65790000Y-86860395D01*
X66923771Y-85726623D01*
X66797896Y-85436685D01*
X66465738Y-85270861D01*
X66107613Y-85173025D01*
X65737281Y-85146935D01*
X65368975Y-85193595D01*
X65016849Y-85311211D01*
X64782104Y-85436685D01*
X64656229Y-85726623D01*
X64334896Y-85726623D01*
X64519592Y-85541927D01*
X64698467Y-85274222D01*
X64821678Y-84976763D01*
X64884490Y-84660983D01*
X64884490Y-84339017D01*
X64821678Y-84023237D01*
X64698467Y-83725778D01*
X64519592Y-83458073D01*
X64334896Y-83273377D01*
X64656229Y-83273377D01*
X64782104Y-83563315D01*
X65114262Y-83729139D01*
X65472387Y-83826975D01*
X65842719Y-83853065D01*
X66211025Y-83806405D01*
X66563151Y-83688789D01*
X66797896Y-83563315D01*
X66923771Y-83273377D01*
X65790000Y-82139605D01*
X64656229Y-83273377D01*
X64334896Y-83273377D01*
X64291927Y-83230408D01*
X64024222Y-83051533D01*
X63726763Y-82928322D01*
X63410983Y-82865510D01*
X63089017Y-82865510D01*
X62773237Y-82928322D01*
X62475778Y-83051533D01*
X62208073Y-83230408D01*
X61980408Y-83458073D01*
X61801533Y-83725778D01*
X61678322Y-84023237D01*
X61615510Y-84339017D01*
X58960000Y-84339017D01*
X58960000Y-83273377D01*
X59576229Y-83273377D01*
X59702104Y-83563315D01*
X60034262Y-83729139D01*
X60392387Y-83826975D01*
X60762719Y-83853065D01*
X61131025Y-83806405D01*
X61483151Y-83688789D01*
X61717896Y-83563315D01*
X61843771Y-83273377D01*
X60710000Y-82139605D01*
X59576229Y-83273377D01*
X58960000Y-83273377D01*
X58960000Y-82669648D01*
X58981211Y-82733151D01*
X59106685Y-82967896D01*
X59396623Y-83093771D01*
X60530395Y-81960000D01*
X60889605Y-81960000D01*
X62023377Y-83093771D01*
X62313315Y-82967896D01*
X62479139Y-82635738D01*
X62576975Y-82277613D01*
X62595636Y-82012719D01*
X63896935Y-82012719D01*
X63943595Y-82381025D01*
X64061211Y-82733151D01*
X64186685Y-82967896D01*
X64476623Y-83093771D01*
X65610395Y-81960000D01*
X65969605Y-81960000D01*
X67103377Y-83093771D01*
X67393315Y-82967896D01*
X67559139Y-82635738D01*
X67656975Y-82277613D01*
X67683065Y-81907281D01*
X67636405Y-81538975D01*
X67518789Y-81186849D01*
X67393315Y-80952104D01*
X67103377Y-80826229D01*
X65969605Y-81960000D01*
X65610395Y-81960000D01*
X64476623Y-80826229D01*
X64186685Y-80952104D01*
X64020861Y-81284262D01*
X63923025Y-81642387D01*
X63896935Y-82012719D01*
X62595636Y-82012719D01*
X62603065Y-81907281D01*
X62556405Y-81538975D01*
X62438789Y-81186849D01*
X62313315Y-80952104D01*
X62023377Y-80826229D01*
X60889605Y-81960000D01*
X60530395Y-81960000D01*
X59396623Y-80826229D01*
X59106685Y-80952104D01*
X58960000Y-81245925D01*
X58960000Y-80646623D01*
X59576229Y-80646623D01*
X60710000Y-81780395D01*
X61843771Y-80646623D01*
X64656229Y-80646623D01*
X65790000Y-81780395D01*
X66923771Y-80646623D01*
X66797896Y-80356685D01*
X66465738Y-80190861D01*
X66107613Y-80093025D01*
X65737281Y-80066935D01*
X65368975Y-80113595D01*
X65016849Y-80231211D01*
X64782104Y-80356685D01*
X64656229Y-80646623D01*
X61843771Y-80646623D01*
X61717896Y-80356685D01*
X61385738Y-80190861D01*
X61027613Y-80093025D01*
X60657281Y-80066935D01*
X60288975Y-80113595D01*
X59936849Y-80231211D01*
X59702104Y-80356685D01*
X59576229Y-80646623D01*
X58960000Y-80646623D01*
X58960000Y-73353377D01*
X59576229Y-73353377D01*
X59702104Y-73643315D01*
X60034262Y-73809139D01*
X60392387Y-73906975D01*
X60762719Y-73933065D01*
X61131025Y-73886405D01*
X61483151Y-73768789D01*
X61717896Y-73643315D01*
X61843771Y-73353377D01*
X64656229Y-73353377D01*
X64782104Y-73643315D01*
X65114262Y-73809139D01*
X65472387Y-73906975D01*
X65842719Y-73933065D01*
X66211025Y-73886405D01*
X66563151Y-73768789D01*
X66797896Y-73643315D01*
X66923771Y-73353377D01*
X65790000Y-72219605D01*
X64656229Y-73353377D01*
X61843771Y-73353377D01*
X60710000Y-72219605D01*
X59576229Y-73353377D01*
X58960000Y-73353377D01*
X58960000Y-72749648D01*
X58981211Y-72813151D01*
X59106685Y-73047896D01*
X59396623Y-73173771D01*
X60530395Y-72040000D01*
X60889605Y-72040000D01*
X62023377Y-73173771D01*
X62313315Y-73047896D01*
X62479139Y-72715738D01*
X62576975Y-72357613D01*
X62595636Y-72092719D01*
X63896935Y-72092719D01*
X63943595Y-72461025D01*
X64061211Y-72813151D01*
X64186685Y-73047896D01*
X64476623Y-73173771D01*
X65610395Y-72040000D01*
X65969605Y-72040000D01*
X67103377Y-73173771D01*
X67393315Y-73047896D01*
X67559139Y-72715738D01*
X67656975Y-72357613D01*
X67683065Y-71987281D01*
X67636405Y-71618975D01*
X67518789Y-71266849D01*
X67393315Y-71032104D01*
X67103377Y-70906229D01*
X65969605Y-72040000D01*
X65610395Y-72040000D01*
X64476623Y-70906229D01*
X64186685Y-71032104D01*
X64020861Y-71364262D01*
X63923025Y-71722387D01*
X63896935Y-72092719D01*
X62595636Y-72092719D01*
X62603065Y-71987281D01*
X62556405Y-71618975D01*
X62438789Y-71266849D01*
X62313315Y-71032104D01*
X62023377Y-70906229D01*
X60889605Y-72040000D01*
X60530395Y-72040000D01*
X59396623Y-70906229D01*
X59106685Y-71032104D01*
X58960000Y-71325925D01*
X58960000Y-70726623D01*
X59576229Y-70726623D01*
X60710000Y-71860395D01*
X61843771Y-70726623D01*
X61717896Y-70436685D01*
X61385738Y-70270861D01*
X61027613Y-70173025D01*
X60657281Y-70146935D01*
X60288975Y-70193595D01*
X59936849Y-70311211D01*
X59702104Y-70436685D01*
X59576229Y-70726623D01*
X58960000Y-70726623D01*
X58960000Y-69339017D01*
X61615510Y-69339017D01*
X61615510Y-69660983D01*
X61678322Y-69976763D01*
X61801533Y-70274222D01*
X61980408Y-70541927D01*
X62208073Y-70769592D01*
X62475778Y-70948467D01*
X62773237Y-71071678D01*
X63089017Y-71134490D01*
X63410983Y-71134490D01*
X63726763Y-71071678D01*
X64024222Y-70948467D01*
X64291927Y-70769592D01*
X64334896Y-70726623D01*
X64656229Y-70726623D01*
X65790000Y-71860395D01*
X66923771Y-70726623D01*
X66797896Y-70436685D01*
X66465738Y-70270861D01*
X66107613Y-70173025D01*
X65737281Y-70146935D01*
X65368975Y-70193595D01*
X65016849Y-70311211D01*
X64782104Y-70436685D01*
X64656229Y-70726623D01*
X64334896Y-70726623D01*
X64519592Y-70541927D01*
X64698467Y-70274222D01*
X64821678Y-69976763D01*
X64884490Y-69660983D01*
X64884490Y-69339017D01*
X64821678Y-69023237D01*
X64698467Y-68725778D01*
X64519592Y-68458073D01*
X64334896Y-68273377D01*
X64656229Y-68273377D01*
X64782104Y-68563315D01*
X65114262Y-68729139D01*
X65472387Y-68826975D01*
X65842719Y-68853065D01*
X66211025Y-68806405D01*
X66563151Y-68688789D01*
X66797896Y-68563315D01*
X66923771Y-68273377D01*
X65790000Y-67139605D01*
X64656229Y-68273377D01*
X64334896Y-68273377D01*
X64291927Y-68230408D01*
X64024222Y-68051533D01*
X63726763Y-67928322D01*
X63410983Y-67865510D01*
X63089017Y-67865510D01*
X62773237Y-67928322D01*
X62475778Y-68051533D01*
X62208073Y-68230408D01*
X61980408Y-68458073D01*
X61801533Y-68725778D01*
X61678322Y-69023237D01*
X61615510Y-69339017D01*
X58960000Y-69339017D01*
X58960000Y-68273377D01*
X59576229Y-68273377D01*
X59702104Y-68563315D01*
X60034262Y-68729139D01*
X60392387Y-68826975D01*
X60762719Y-68853065D01*
X61131025Y-68806405D01*
X61483151Y-68688789D01*
X61717896Y-68563315D01*
X61843771Y-68273377D01*
X60710000Y-67139605D01*
X59576229Y-68273377D01*
X58960000Y-68273377D01*
X58960000Y-67669648D01*
X58981211Y-67733151D01*
X59106685Y-67967896D01*
X59396623Y-68093771D01*
X60530395Y-66960000D01*
X60889605Y-66960000D01*
X62023377Y-68093771D01*
X62313315Y-67967896D01*
X62479139Y-67635738D01*
X62576975Y-67277613D01*
X62595636Y-67012719D01*
X63896935Y-67012719D01*
X63943595Y-67381025D01*
X64061211Y-67733151D01*
X64186685Y-67967896D01*
X64476623Y-68093771D01*
X65610395Y-66960000D01*
X65969605Y-66960000D01*
X67103377Y-68093771D01*
X67393315Y-67967896D01*
X67559139Y-67635738D01*
X67656975Y-67277613D01*
X67683065Y-66907281D01*
X67636405Y-66538975D01*
X67518789Y-66186849D01*
X67393315Y-65952104D01*
X67103377Y-65826229D01*
X65969605Y-66960000D01*
X65610395Y-66960000D01*
X64476623Y-65826229D01*
X64186685Y-65952104D01*
X64020861Y-66284262D01*
X63923025Y-66642387D01*
X63896935Y-67012719D01*
X62595636Y-67012719D01*
X62603065Y-66907281D01*
X62556405Y-66538975D01*
X62438789Y-66186849D01*
X62313315Y-65952104D01*
X62023377Y-65826229D01*
X60889605Y-66960000D01*
X60530395Y-66960000D01*
X59396623Y-65826229D01*
X59106685Y-65952104D01*
X58960000Y-66245925D01*
X58960000Y-65646623D01*
X59576229Y-65646623D01*
X60710000Y-66780395D01*
X61843771Y-65646623D01*
X64656229Y-65646623D01*
X65790000Y-66780395D01*
X66923771Y-65646623D01*
X66797896Y-65356685D01*
X66465738Y-65190861D01*
X66107613Y-65093025D01*
X65737281Y-65066935D01*
X65368975Y-65113595D01*
X65016849Y-65231211D01*
X64782104Y-65356685D01*
X64656229Y-65646623D01*
X61843771Y-65646623D01*
X61717896Y-65356685D01*
X61385738Y-65190861D01*
X61027613Y-65093025D01*
X60657281Y-65066935D01*
X60288975Y-65113595D01*
X59936849Y-65231211D01*
X59702104Y-65356685D01*
X59576229Y-65646623D01*
X58960000Y-65646623D01*
X58960000Y-61474344D01*
X69555000Y-61474344D01*
X69555000Y-61845656D01*
X69627439Y-62209834D01*
X69769534Y-62552882D01*
X69975825Y-62861618D01*
X70238382Y-63124175D01*
X70547118Y-63330466D01*
X70890166Y-63472561D01*
X71254344Y-63545000D01*
X71625656Y-63545000D01*
X71989834Y-63472561D01*
X72332882Y-63330466D01*
X72641618Y-63124175D01*
X72904175Y-62861618D01*
X73110466Y-62552882D01*
X73252561Y-62209834D01*
X73325000Y-61845656D01*
X73325000Y-61474344D01*
X77175000Y-61474344D01*
X77175000Y-61845656D01*
X77247439Y-62209834D01*
X77389534Y-62552882D01*
X77595825Y-62861618D01*
X77858382Y-63124175D01*
X78167118Y-63330466D01*
X78510166Y-63472561D01*
X78874344Y-63545000D01*
X79245656Y-63545000D01*
X79609834Y-63472561D01*
X79952882Y-63330466D01*
X80261618Y-63124175D01*
X80524175Y-62861618D01*
X80730466Y-62552882D01*
X80872561Y-62209834D01*
X80945000Y-61845656D01*
X80945000Y-61474344D01*
X80872561Y-61110166D01*
X80730466Y-60767118D01*
X80524175Y-60458382D01*
X80261618Y-60195825D01*
X79952882Y-59989534D01*
X79609834Y-59847439D01*
X79245656Y-59775000D01*
X78874344Y-59775000D01*
X78510166Y-59847439D01*
X78167118Y-59989534D01*
X77858382Y-60195825D01*
X77595825Y-60458382D01*
X77389534Y-60767118D01*
X77247439Y-61110166D01*
X77175000Y-61474344D01*
X73325000Y-61474344D01*
X73252561Y-61110166D01*
X73110466Y-60767118D01*
X72904175Y-60458382D01*
X72641618Y-60195825D01*
X72332882Y-59989534D01*
X71989834Y-59847439D01*
X71625656Y-59775000D01*
X71254344Y-59775000D01*
X70890166Y-59847439D01*
X70547118Y-59989534D01*
X70238382Y-60195825D01*
X69975825Y-60458382D01*
X69769534Y-60767118D01*
X69627439Y-61110166D01*
X69555000Y-61474344D01*
X58960000Y-61474344D01*
X58960000Y-56394344D01*
X69555000Y-56394344D01*
X69555000Y-56765656D01*
X69627439Y-57129834D01*
X69769534Y-57472882D01*
X69975825Y-57781618D01*
X70238382Y-58044175D01*
X70547118Y-58250466D01*
X70890166Y-58392561D01*
X71254344Y-58465000D01*
X71625656Y-58465000D01*
X71989834Y-58392561D01*
X72332882Y-58250466D01*
X72641618Y-58044175D01*
X72904175Y-57781618D01*
X73110466Y-57472882D01*
X73252561Y-57129834D01*
X73325000Y-56765656D01*
X73325000Y-56394344D01*
X77175000Y-56394344D01*
X77175000Y-56765656D01*
X77247439Y-57129834D01*
X77389534Y-57472882D01*
X77595825Y-57781618D01*
X77858382Y-58044175D01*
X78167118Y-58250466D01*
X78510166Y-58392561D01*
X78874344Y-58465000D01*
X79245656Y-58465000D01*
X79609834Y-58392561D01*
X79952882Y-58250466D01*
X80261618Y-58044175D01*
X80524175Y-57781618D01*
X80730466Y-57472882D01*
X80872561Y-57129834D01*
X80945000Y-56765656D01*
X80945000Y-56394344D01*
X80872561Y-56030166D01*
X80730466Y-55687118D01*
X80524175Y-55378382D01*
X80261618Y-55115825D01*
X79952882Y-54909534D01*
X79609834Y-54767439D01*
X79245656Y-54695000D01*
X78874344Y-54695000D01*
X78510166Y-54767439D01*
X78167118Y-54909534D01*
X77858382Y-55115825D01*
X77595825Y-55378382D01*
X77389534Y-55687118D01*
X77247439Y-56030166D01*
X77175000Y-56394344D01*
X73325000Y-56394344D01*
X73252561Y-56030166D01*
X73110466Y-55687118D01*
X72904175Y-55378382D01*
X72641618Y-55115825D01*
X72332882Y-54909534D01*
X71989834Y-54767439D01*
X71625656Y-54695000D01*
X71254344Y-54695000D01*
X70890166Y-54767439D01*
X70547118Y-54909534D01*
X70238382Y-55115825D01*
X69975825Y-55378382D01*
X69769534Y-55687118D01*
X69627439Y-56030166D01*
X69555000Y-56394344D01*
X58960000Y-56394344D01*
X58960000Y-47414155D01*
X60515450Y-47414155D01*
X60911634Y-47934550D01*
X61626612Y-48324748D01*
X62403976Y-48567964D01*
X63213853Y-48654851D01*
X64025118Y-48582069D01*
X64806597Y-48352415D01*
X65528256Y-47974715D01*
X65588366Y-47934550D01*
X65984550Y-47414155D01*
X63250000Y-44679605D01*
X60515450Y-47414155D01*
X58960000Y-47414155D01*
X58960000Y-44463853D01*
X59095149Y-44463853D01*
X59167931Y-45275118D01*
X59397585Y-46056597D01*
X59775285Y-46778256D01*
X59815450Y-46838366D01*
X60335845Y-47234550D01*
X63070395Y-44500000D01*
X63429605Y-44500000D01*
X66164155Y-47234550D01*
X66684550Y-46838366D01*
X67074748Y-46123388D01*
X67317964Y-45346024D01*
X67404851Y-44536147D01*
X67332069Y-43724882D01*
X67323095Y-43694344D01*
X69555000Y-43694344D01*
X69555000Y-44065656D01*
X69627439Y-44429834D01*
X69769534Y-44772882D01*
X69975825Y-45081618D01*
X70238382Y-45344175D01*
X70547118Y-45550466D01*
X70890166Y-45692561D01*
X71254344Y-45765000D01*
X71625656Y-45765000D01*
X71989834Y-45692561D01*
X72332882Y-45550466D01*
X72641618Y-45344175D01*
X72904175Y-45081618D01*
X73110466Y-44772882D01*
X73252561Y-44429834D01*
X73325000Y-44065656D01*
X73325000Y-43694344D01*
X77175000Y-43694344D01*
X77175000Y-44065656D01*
X77247439Y-44429834D01*
X77389534Y-44772882D01*
X77595825Y-45081618D01*
X77858382Y-45344175D01*
X78167118Y-45550466D01*
X78510166Y-45692561D01*
X78874344Y-45765000D01*
X79245656Y-45765000D01*
X79609834Y-45692561D01*
X79952882Y-45550466D01*
X80261618Y-45344175D01*
X80524175Y-45081618D01*
X80730466Y-44772882D01*
X80872561Y-44429834D01*
X80945000Y-44065656D01*
X80945000Y-43694344D01*
X80872561Y-43330166D01*
X80730466Y-42987118D01*
X80524175Y-42678382D01*
X80261618Y-42415825D01*
X79952882Y-42209534D01*
X79609834Y-42067439D01*
X79245656Y-41995000D01*
X78874344Y-41995000D01*
X78510166Y-42067439D01*
X78167118Y-42209534D01*
X77858382Y-42415825D01*
X77595825Y-42678382D01*
X77389534Y-42987118D01*
X77247439Y-43330166D01*
X77175000Y-43694344D01*
X73325000Y-43694344D01*
X73252561Y-43330166D01*
X73110466Y-42987118D01*
X72904175Y-42678382D01*
X72641618Y-42415825D01*
X72332882Y-42209534D01*
X71989834Y-42067439D01*
X71625656Y-41995000D01*
X71254344Y-41995000D01*
X70890166Y-42067439D01*
X70547118Y-42209534D01*
X70238382Y-42415825D01*
X69975825Y-42678382D01*
X69769534Y-42987118D01*
X69627439Y-43330166D01*
X69555000Y-43694344D01*
X67323095Y-43694344D01*
X67102415Y-42943403D01*
X66724715Y-42221744D01*
X66684550Y-42161634D01*
X66164155Y-41765450D01*
X63429605Y-44500000D01*
X63070395Y-44500000D01*
X60335845Y-41765450D01*
X59815450Y-42161634D01*
X59425252Y-42876612D01*
X59182036Y-43653976D01*
X59095149Y-44463853D01*
X58960000Y-44463853D01*
X58960000Y-41585845D01*
X60515450Y-41585845D01*
X63250000Y-44320395D01*
X65984550Y-41585845D01*
X65588366Y-41065450D01*
X64873388Y-40675252D01*
X64096024Y-40432036D01*
X63286147Y-40345149D01*
X62474882Y-40417931D01*
X61693403Y-40647585D01*
X60971744Y-41025285D01*
X60911634Y-41065450D01*
X60515450Y-41585845D01*
X58960000Y-41585845D01*
X58960000Y-40210000D01*
X83123000Y-40210000D01*
X83123000Y-44107654D01*
G37*
X83123000Y-44107654D02*
X77865655Y-49365000D01*
X71335118Y-49365000D01*
X71021467Y-49395892D01*
X70619018Y-49517974D01*
X70248119Y-49716223D01*
X69923023Y-49983023D01*
X69656223Y-50308119D01*
X69457974Y-50679018D01*
X69335892Y-51081467D01*
X69294670Y-51500000D01*
X69335892Y-51918533D01*
X69457974Y-52320982D01*
X69656223Y-52691881D01*
X69923023Y-53016977D01*
X70248119Y-53283777D01*
X70619018Y-53482026D01*
X71021467Y-53604108D01*
X71335118Y-53635000D01*
X78955118Y-53635000D01*
X79060000Y-53645330D01*
X79164882Y-53635000D01*
X79478533Y-53604108D01*
X79880982Y-53482026D01*
X80251881Y-53283777D01*
X80576977Y-53016977D01*
X80843777Y-52691881D01*
X81042026Y-52320982D01*
X81082810Y-52186535D01*
X83123000Y-50146345D01*
X83123000Y-138790000D01*
X58960000Y-138790000D01*
X58960000Y-137414155D01*
X60515450Y-137414155D01*
X60911634Y-137934550D01*
X61626612Y-138324748D01*
X62403976Y-138567964D01*
X63213853Y-138654851D01*
X64025118Y-138582069D01*
X64806597Y-138352415D01*
X65528256Y-137974715D01*
X65588366Y-137934550D01*
X65984550Y-137414155D01*
X63250000Y-134679605D01*
X60515450Y-137414155D01*
X58960000Y-137414155D01*
X58960000Y-134463853D01*
X59095149Y-134463853D01*
X59167931Y-135275118D01*
X59397585Y-136056597D01*
X59775285Y-136778256D01*
X59815450Y-136838366D01*
X60335845Y-137234550D01*
X63070395Y-134500000D01*
X63429605Y-134500000D01*
X66164155Y-137234550D01*
X66684550Y-136838366D01*
X67074748Y-136123388D01*
X67317964Y-135346024D01*
X67404851Y-134536147D01*
X67332069Y-133724882D01*
X67102415Y-132943403D01*
X66724715Y-132221744D01*
X66684550Y-132161634D01*
X66164155Y-131765450D01*
X63429605Y-134500000D01*
X63070395Y-134500000D01*
X60335845Y-131765450D01*
X59815450Y-132161634D01*
X59425252Y-132876612D01*
X59182036Y-133653976D01*
X59095149Y-134463853D01*
X58960000Y-134463853D01*
X58960000Y-131585845D01*
X60515450Y-131585845D01*
X63250000Y-134320395D01*
X65984550Y-131585845D01*
X65588366Y-131065450D01*
X64873388Y-130675252D01*
X64096024Y-130432036D01*
X63286147Y-130345149D01*
X62474882Y-130417931D01*
X61693403Y-130647585D01*
X60971744Y-131025285D01*
X60911634Y-131065450D01*
X60515450Y-131585845D01*
X58960000Y-131585845D01*
X58960000Y-123353377D01*
X59576229Y-123353377D01*
X59702104Y-123643315D01*
X60034262Y-123809139D01*
X60392387Y-123906975D01*
X60762719Y-123933065D01*
X61131025Y-123886405D01*
X61483151Y-123768789D01*
X61717896Y-123643315D01*
X61843771Y-123353377D01*
X64656229Y-123353377D01*
X64782104Y-123643315D01*
X65114262Y-123809139D01*
X65472387Y-123906975D01*
X65842719Y-123933065D01*
X66211025Y-123886405D01*
X66563151Y-123768789D01*
X66797896Y-123643315D01*
X66923771Y-123353377D01*
X65790000Y-122219605D01*
X64656229Y-123353377D01*
X61843771Y-123353377D01*
X60710000Y-122219605D01*
X59576229Y-123353377D01*
X58960000Y-123353377D01*
X58960000Y-122749648D01*
X58981211Y-122813151D01*
X59106685Y-123047896D01*
X59396623Y-123173771D01*
X60530395Y-122040000D01*
X60889605Y-122040000D01*
X62023377Y-123173771D01*
X62313315Y-123047896D01*
X62479139Y-122715738D01*
X62576975Y-122357613D01*
X62595636Y-122092719D01*
X63896935Y-122092719D01*
X63943595Y-122461025D01*
X64061211Y-122813151D01*
X64186685Y-123047896D01*
X64476623Y-123173771D01*
X65610395Y-122040000D01*
X65969605Y-122040000D01*
X67103377Y-123173771D01*
X67393315Y-123047896D01*
X67559139Y-122715738D01*
X67656975Y-122357613D01*
X67683065Y-121987281D01*
X67636405Y-121618975D01*
X67518789Y-121266849D01*
X67393315Y-121032104D01*
X67103377Y-120906229D01*
X65969605Y-122040000D01*
X65610395Y-122040000D01*
X64476623Y-120906229D01*
X64186685Y-121032104D01*
X64020861Y-121364262D01*
X63923025Y-121722387D01*
X63896935Y-122092719D01*
X62595636Y-122092719D01*
X62603065Y-121987281D01*
X62556405Y-121618975D01*
X62438789Y-121266849D01*
X62313315Y-121032104D01*
X62023377Y-120906229D01*
X60889605Y-122040000D01*
X60530395Y-122040000D01*
X59396623Y-120906229D01*
X59106685Y-121032104D01*
X58960000Y-121325925D01*
X58960000Y-120726623D01*
X59576229Y-120726623D01*
X60710000Y-121860395D01*
X61843771Y-120726623D01*
X61717896Y-120436685D01*
X61385738Y-120270861D01*
X61027613Y-120173025D01*
X60657281Y-120146935D01*
X60288975Y-120193595D01*
X59936849Y-120311211D01*
X59702104Y-120436685D01*
X59576229Y-120726623D01*
X58960000Y-120726623D01*
X58960000Y-119339017D01*
X61615510Y-119339017D01*
X61615510Y-119660983D01*
X61678322Y-119976763D01*
X61801533Y-120274222D01*
X61980408Y-120541927D01*
X62208073Y-120769592D01*
X62475778Y-120948467D01*
X62773237Y-121071678D01*
X63089017Y-121134490D01*
X63410983Y-121134490D01*
X63726763Y-121071678D01*
X64024222Y-120948467D01*
X64291927Y-120769592D01*
X64334896Y-120726623D01*
X64656229Y-120726623D01*
X65790000Y-121860395D01*
X66923771Y-120726623D01*
X66797896Y-120436685D01*
X66465738Y-120270861D01*
X66107613Y-120173025D01*
X65737281Y-120146935D01*
X65368975Y-120193595D01*
X65016849Y-120311211D01*
X64782104Y-120436685D01*
X64656229Y-120726623D01*
X64334896Y-120726623D01*
X64519592Y-120541927D01*
X64698467Y-120274222D01*
X64821678Y-119976763D01*
X64884490Y-119660983D01*
X64884490Y-119339017D01*
X64821678Y-119023237D01*
X64698467Y-118725778D01*
X64519592Y-118458073D01*
X64334896Y-118273377D01*
X64656229Y-118273377D01*
X64782104Y-118563315D01*
X65114262Y-118729139D01*
X65472387Y-118826975D01*
X65842719Y-118853065D01*
X66211025Y-118806405D01*
X66563151Y-118688789D01*
X66797896Y-118563315D01*
X66923771Y-118273377D01*
X65790000Y-117139605D01*
X64656229Y-118273377D01*
X64334896Y-118273377D01*
X64291927Y-118230408D01*
X64024222Y-118051533D01*
X63726763Y-117928322D01*
X63410983Y-117865510D01*
X63089017Y-117865510D01*
X62773237Y-117928322D01*
X62475778Y-118051533D01*
X62208073Y-118230408D01*
X61980408Y-118458073D01*
X61801533Y-118725778D01*
X61678322Y-119023237D01*
X61615510Y-119339017D01*
X58960000Y-119339017D01*
X58960000Y-118273377D01*
X59576229Y-118273377D01*
X59702104Y-118563315D01*
X60034262Y-118729139D01*
X60392387Y-118826975D01*
X60762719Y-118853065D01*
X61131025Y-118806405D01*
X61483151Y-118688789D01*
X61717896Y-118563315D01*
X61843771Y-118273377D01*
X60710000Y-117139605D01*
X59576229Y-118273377D01*
X58960000Y-118273377D01*
X58960000Y-117669648D01*
X58981211Y-117733151D01*
X59106685Y-117967896D01*
X59396623Y-118093771D01*
X60530395Y-116960000D01*
X60889605Y-116960000D01*
X62023377Y-118093771D01*
X62313315Y-117967896D01*
X62479139Y-117635738D01*
X62576975Y-117277613D01*
X62595636Y-117012719D01*
X63896935Y-117012719D01*
X63943595Y-117381025D01*
X64061211Y-117733151D01*
X64186685Y-117967896D01*
X64476623Y-118093771D01*
X65610395Y-116960000D01*
X65969605Y-116960000D01*
X67103377Y-118093771D01*
X67393315Y-117967896D01*
X67559139Y-117635738D01*
X67656975Y-117277613D01*
X67683065Y-116907281D01*
X67636405Y-116538975D01*
X67518789Y-116186849D01*
X67393315Y-115952104D01*
X67103377Y-115826229D01*
X65969605Y-116960000D01*
X65610395Y-116960000D01*
X64476623Y-115826229D01*
X64186685Y-115952104D01*
X64020861Y-116284262D01*
X63923025Y-116642387D01*
X63896935Y-117012719D01*
X62595636Y-117012719D01*
X62603065Y-116907281D01*
X62556405Y-116538975D01*
X62438789Y-116186849D01*
X62313315Y-115952104D01*
X62023377Y-115826229D01*
X60889605Y-116960000D01*
X60530395Y-116960000D01*
X59396623Y-115826229D01*
X59106685Y-115952104D01*
X58960000Y-116245925D01*
X58960000Y-115646623D01*
X59576229Y-115646623D01*
X60710000Y-116780395D01*
X61843771Y-115646623D01*
X64656229Y-115646623D01*
X65790000Y-116780395D01*
X66923771Y-115646623D01*
X66797896Y-115356685D01*
X66465738Y-115190861D01*
X66107613Y-115093025D01*
X65737281Y-115066935D01*
X65368975Y-115113595D01*
X65016849Y-115231211D01*
X64782104Y-115356685D01*
X64656229Y-115646623D01*
X61843771Y-115646623D01*
X61717896Y-115356685D01*
X61385738Y-115190861D01*
X61027613Y-115093025D01*
X60657281Y-115066935D01*
X60288975Y-115113595D01*
X59936849Y-115231211D01*
X59702104Y-115356685D01*
X59576229Y-115646623D01*
X58960000Y-115646623D01*
X58960000Y-99353740D01*
X64265000Y-99353740D01*
X64265000Y-99646260D01*
X64322068Y-99933158D01*
X64434010Y-100203411D01*
X64596525Y-100446632D01*
X64803368Y-100653475D01*
X64977760Y-100770000D01*
X64803368Y-100886525D01*
X64596525Y-101093368D01*
X64434010Y-101336589D01*
X64322068Y-101606842D01*
X64265000Y-101893740D01*
X64265000Y-102186260D01*
X64322068Y-102473158D01*
X64434010Y-102743411D01*
X64596525Y-102986632D01*
X64803368Y-103193475D01*
X64977760Y-103310000D01*
X64803368Y-103426525D01*
X64596525Y-103633368D01*
X64434010Y-103876589D01*
X64322068Y-104146842D01*
X64265000Y-104433740D01*
X64265000Y-104726260D01*
X64322068Y-105013158D01*
X64434010Y-105283411D01*
X64596525Y-105526632D01*
X64803368Y-105733475D01*
X64977760Y-105850000D01*
X64803368Y-105966525D01*
X64596525Y-106173368D01*
X64434010Y-106416589D01*
X64322068Y-106686842D01*
X64265000Y-106973740D01*
X64265000Y-107266260D01*
X64322068Y-107553158D01*
X64434010Y-107823411D01*
X64596525Y-108066632D01*
X64803368Y-108273475D01*
X65046589Y-108435990D01*
X65316842Y-108547932D01*
X65603740Y-108605000D01*
X65896260Y-108605000D01*
X66183158Y-108547932D01*
X66453411Y-108435990D01*
X66696632Y-108273475D01*
X66828487Y-108141620D01*
X66850498Y-108214180D01*
X66909463Y-108324494D01*
X66988815Y-108421185D01*
X67085506Y-108500537D01*
X67195820Y-108559502D01*
X67315518Y-108595812D01*
X67440000Y-108608072D01*
X69140000Y-108608072D01*
X69264482Y-108595812D01*
X69384180Y-108559502D01*
X69494494Y-108500537D01*
X69591185Y-108421185D01*
X69670537Y-108324494D01*
X69729502Y-108214180D01*
X69765812Y-108094482D01*
X69778072Y-107970000D01*
X69778072Y-106270000D01*
X69765812Y-106145518D01*
X69729502Y-106025820D01*
X69670537Y-105915506D01*
X69591185Y-105818815D01*
X69494494Y-105739463D01*
X69384180Y-105680498D01*
X69311620Y-105658487D01*
X69443475Y-105526632D01*
X69605990Y-105283411D01*
X69717932Y-105013158D01*
X69775000Y-104726260D01*
X69775000Y-104433740D01*
X69717932Y-104146842D01*
X69605990Y-103876589D01*
X69443475Y-103633368D01*
X69236632Y-103426525D01*
X69062240Y-103310000D01*
X69236632Y-103193475D01*
X69443475Y-102986632D01*
X69605990Y-102743411D01*
X69717932Y-102473158D01*
X69775000Y-102186260D01*
X69775000Y-101893740D01*
X69717932Y-101606842D01*
X69605990Y-101336589D01*
X69443475Y-101093368D01*
X69236632Y-100886525D01*
X69062240Y-100770000D01*
X69236632Y-100653475D01*
X69443475Y-100446632D01*
X69605990Y-100203411D01*
X69717932Y-99933158D01*
X69775000Y-99646260D01*
X69775000Y-99353740D01*
X69717932Y-99066842D01*
X69605990Y-98796589D01*
X69443475Y-98553368D01*
X69236632Y-98346525D01*
X69062240Y-98230000D01*
X69236632Y-98113475D01*
X69443475Y-97906632D01*
X69605990Y-97663411D01*
X69717932Y-97393158D01*
X69775000Y-97106260D01*
X69775000Y-96813740D01*
X69717932Y-96526842D01*
X69605990Y-96256589D01*
X69443475Y-96013368D01*
X69236632Y-95806525D01*
X68993411Y-95644010D01*
X68723158Y-95532068D01*
X68436260Y-95475000D01*
X68143740Y-95475000D01*
X67856842Y-95532068D01*
X67586589Y-95644010D01*
X67343368Y-95806525D01*
X67136525Y-96013368D01*
X67018900Y-96189406D01*
X66847588Y-95959731D01*
X66631355Y-95764822D01*
X66381252Y-95615843D01*
X66106891Y-95518519D01*
X65877000Y-95639186D01*
X65877000Y-96833000D01*
X65897000Y-96833000D01*
X65897000Y-97087000D01*
X65877000Y-97087000D01*
X65877000Y-97107000D01*
X65623000Y-97107000D01*
X65623000Y-97087000D01*
X64429845Y-97087000D01*
X64308524Y-97316890D01*
X64353175Y-97464099D01*
X64478359Y-97726920D01*
X64652412Y-97960269D01*
X64868645Y-98155178D01*
X64985534Y-98224805D01*
X64803368Y-98346525D01*
X64596525Y-98553368D01*
X64434010Y-98796589D01*
X64322068Y-99066842D01*
X64265000Y-99353740D01*
X58960000Y-99353740D01*
X58960000Y-96603110D01*
X64308524Y-96603110D01*
X64429845Y-96833000D01*
X65623000Y-96833000D01*
X65623000Y-95639186D01*
X65393109Y-95518519D01*
X65118748Y-95615843D01*
X64868645Y-95764822D01*
X64652412Y-95959731D01*
X64478359Y-96193080D01*
X64353175Y-96455901D01*
X64308524Y-96603110D01*
X58960000Y-96603110D01*
X58960000Y-90900000D01*
X66573000Y-90900000D01*
X66573000Y-92100000D01*
X66577364Y-92133007D01*
X66586160Y-92156298D01*
X66599331Y-92177425D01*
X66616370Y-92195577D01*
X67416370Y-92895577D01*
X67429443Y-92905597D01*
X67451399Y-92917333D01*
X67475224Y-92924560D01*
X67500000Y-92927000D01*
X72400000Y-92927000D01*
X72428780Y-92923696D01*
X72452358Y-92915705D01*
X72473925Y-92903267D01*
X72492651Y-92886861D01*
X75492651Y-89686861D01*
X75511914Y-89660035D01*
X75521476Y-89637048D01*
X75526370Y-89612637D01*
X75626370Y-88612637D01*
X75626824Y-88593325D01*
X75623085Y-88568711D01*
X75614616Y-88545300D01*
X75601742Y-88523990D01*
X75584959Y-88505602D01*
X74584959Y-87605602D01*
X74570557Y-87594403D01*
X74548601Y-87582667D01*
X74524776Y-87575440D01*
X74500000Y-87573000D01*
X73400000Y-87573000D01*
X73369836Y-87576634D01*
X73346348Y-87584889D01*
X73324922Y-87597568D01*
X73306381Y-87614183D01*
X71144132Y-89973000D01*
X67500000Y-89973000D01*
X67475224Y-89975440D01*
X67451399Y-89982667D01*
X67429443Y-89994403D01*
X67410197Y-90010197D01*
X66610197Y-90810197D01*
X66594403Y-90829443D01*
X66582667Y-90851399D01*
X66575440Y-90875224D01*
X66573000Y-90900000D01*
X58960000Y-90900000D01*
X58960000Y-88353377D01*
X59576229Y-88353377D01*
X59702104Y-88643315D01*
X60034262Y-88809139D01*
X60392387Y-88906975D01*
X60762719Y-88933065D01*
X61131025Y-88886405D01*
X61483151Y-88768789D01*
X61717896Y-88643315D01*
X61843771Y-88353377D01*
X64656229Y-88353377D01*
X64782104Y-88643315D01*
X65114262Y-88809139D01*
X65472387Y-88906975D01*
X65842719Y-88933065D01*
X66211025Y-88886405D01*
X66563151Y-88768789D01*
X66797896Y-88643315D01*
X66923771Y-88353377D01*
X65790000Y-87219605D01*
X64656229Y-88353377D01*
X61843771Y-88353377D01*
X60710000Y-87219605D01*
X59576229Y-88353377D01*
X58960000Y-88353377D01*
X58960000Y-87749648D01*
X58981211Y-87813151D01*
X59106685Y-88047896D01*
X59396623Y-88173771D01*
X60530395Y-87040000D01*
X60889605Y-87040000D01*
X62023377Y-88173771D01*
X62313315Y-88047896D01*
X62479139Y-87715738D01*
X62576975Y-87357613D01*
X62595636Y-87092719D01*
X63896935Y-87092719D01*
X63943595Y-87461025D01*
X64061211Y-87813151D01*
X64186685Y-88047896D01*
X64476623Y-88173771D01*
X65610395Y-87040000D01*
X65969605Y-87040000D01*
X67103377Y-88173771D01*
X67393315Y-88047896D01*
X67559139Y-87715738D01*
X67656975Y-87357613D01*
X67683065Y-86987281D01*
X67636405Y-86618975D01*
X67518789Y-86266849D01*
X67393315Y-86032104D01*
X67103377Y-85906229D01*
X65969605Y-87040000D01*
X65610395Y-87040000D01*
X64476623Y-85906229D01*
X64186685Y-86032104D01*
X64020861Y-86364262D01*
X63923025Y-86722387D01*
X63896935Y-87092719D01*
X62595636Y-87092719D01*
X62603065Y-86987281D01*
X62556405Y-86618975D01*
X62438789Y-86266849D01*
X62313315Y-86032104D01*
X62023377Y-85906229D01*
X60889605Y-87040000D01*
X60530395Y-87040000D01*
X59396623Y-85906229D01*
X59106685Y-86032104D01*
X58960000Y-86325925D01*
X58960000Y-85726623D01*
X59576229Y-85726623D01*
X60710000Y-86860395D01*
X61843771Y-85726623D01*
X61717896Y-85436685D01*
X61385738Y-85270861D01*
X61027613Y-85173025D01*
X60657281Y-85146935D01*
X60288975Y-85193595D01*
X59936849Y-85311211D01*
X59702104Y-85436685D01*
X59576229Y-85726623D01*
X58960000Y-85726623D01*
X58960000Y-84339017D01*
X61615510Y-84339017D01*
X61615510Y-84660983D01*
X61678322Y-84976763D01*
X61801533Y-85274222D01*
X61980408Y-85541927D01*
X62208073Y-85769592D01*
X62475778Y-85948467D01*
X62773237Y-86071678D01*
X63089017Y-86134490D01*
X63410983Y-86134490D01*
X63726763Y-86071678D01*
X64024222Y-85948467D01*
X64291927Y-85769592D01*
X64334896Y-85726623D01*
X64656229Y-85726623D01*
X65790000Y-86860395D01*
X66923771Y-85726623D01*
X66797896Y-85436685D01*
X66465738Y-85270861D01*
X66107613Y-85173025D01*
X65737281Y-85146935D01*
X65368975Y-85193595D01*
X65016849Y-85311211D01*
X64782104Y-85436685D01*
X64656229Y-85726623D01*
X64334896Y-85726623D01*
X64519592Y-85541927D01*
X64698467Y-85274222D01*
X64821678Y-84976763D01*
X64884490Y-84660983D01*
X64884490Y-84339017D01*
X64821678Y-84023237D01*
X64698467Y-83725778D01*
X64519592Y-83458073D01*
X64334896Y-83273377D01*
X64656229Y-83273377D01*
X64782104Y-83563315D01*
X65114262Y-83729139D01*
X65472387Y-83826975D01*
X65842719Y-83853065D01*
X66211025Y-83806405D01*
X66563151Y-83688789D01*
X66797896Y-83563315D01*
X66923771Y-83273377D01*
X65790000Y-82139605D01*
X64656229Y-83273377D01*
X64334896Y-83273377D01*
X64291927Y-83230408D01*
X64024222Y-83051533D01*
X63726763Y-82928322D01*
X63410983Y-82865510D01*
X63089017Y-82865510D01*
X62773237Y-82928322D01*
X62475778Y-83051533D01*
X62208073Y-83230408D01*
X61980408Y-83458073D01*
X61801533Y-83725778D01*
X61678322Y-84023237D01*
X61615510Y-84339017D01*
X58960000Y-84339017D01*
X58960000Y-83273377D01*
X59576229Y-83273377D01*
X59702104Y-83563315D01*
X60034262Y-83729139D01*
X60392387Y-83826975D01*
X60762719Y-83853065D01*
X61131025Y-83806405D01*
X61483151Y-83688789D01*
X61717896Y-83563315D01*
X61843771Y-83273377D01*
X60710000Y-82139605D01*
X59576229Y-83273377D01*
X58960000Y-83273377D01*
X58960000Y-82669648D01*
X58981211Y-82733151D01*
X59106685Y-82967896D01*
X59396623Y-83093771D01*
X60530395Y-81960000D01*
X60889605Y-81960000D01*
X62023377Y-83093771D01*
X62313315Y-82967896D01*
X62479139Y-82635738D01*
X62576975Y-82277613D01*
X62595636Y-82012719D01*
X63896935Y-82012719D01*
X63943595Y-82381025D01*
X64061211Y-82733151D01*
X64186685Y-82967896D01*
X64476623Y-83093771D01*
X65610395Y-81960000D01*
X65969605Y-81960000D01*
X67103377Y-83093771D01*
X67393315Y-82967896D01*
X67559139Y-82635738D01*
X67656975Y-82277613D01*
X67683065Y-81907281D01*
X67636405Y-81538975D01*
X67518789Y-81186849D01*
X67393315Y-80952104D01*
X67103377Y-80826229D01*
X65969605Y-81960000D01*
X65610395Y-81960000D01*
X64476623Y-80826229D01*
X64186685Y-80952104D01*
X64020861Y-81284262D01*
X63923025Y-81642387D01*
X63896935Y-82012719D01*
X62595636Y-82012719D01*
X62603065Y-81907281D01*
X62556405Y-81538975D01*
X62438789Y-81186849D01*
X62313315Y-80952104D01*
X62023377Y-80826229D01*
X60889605Y-81960000D01*
X60530395Y-81960000D01*
X59396623Y-80826229D01*
X59106685Y-80952104D01*
X58960000Y-81245925D01*
X58960000Y-80646623D01*
X59576229Y-80646623D01*
X60710000Y-81780395D01*
X61843771Y-80646623D01*
X64656229Y-80646623D01*
X65790000Y-81780395D01*
X66923771Y-80646623D01*
X66797896Y-80356685D01*
X66465738Y-80190861D01*
X66107613Y-80093025D01*
X65737281Y-80066935D01*
X65368975Y-80113595D01*
X65016849Y-80231211D01*
X64782104Y-80356685D01*
X64656229Y-80646623D01*
X61843771Y-80646623D01*
X61717896Y-80356685D01*
X61385738Y-80190861D01*
X61027613Y-80093025D01*
X60657281Y-80066935D01*
X60288975Y-80113595D01*
X59936849Y-80231211D01*
X59702104Y-80356685D01*
X59576229Y-80646623D01*
X58960000Y-80646623D01*
X58960000Y-73353377D01*
X59576229Y-73353377D01*
X59702104Y-73643315D01*
X60034262Y-73809139D01*
X60392387Y-73906975D01*
X60762719Y-73933065D01*
X61131025Y-73886405D01*
X61483151Y-73768789D01*
X61717896Y-73643315D01*
X61843771Y-73353377D01*
X64656229Y-73353377D01*
X64782104Y-73643315D01*
X65114262Y-73809139D01*
X65472387Y-73906975D01*
X65842719Y-73933065D01*
X66211025Y-73886405D01*
X66563151Y-73768789D01*
X66797896Y-73643315D01*
X66923771Y-73353377D01*
X65790000Y-72219605D01*
X64656229Y-73353377D01*
X61843771Y-73353377D01*
X60710000Y-72219605D01*
X59576229Y-73353377D01*
X58960000Y-73353377D01*
X58960000Y-72749648D01*
X58981211Y-72813151D01*
X59106685Y-73047896D01*
X59396623Y-73173771D01*
X60530395Y-72040000D01*
X60889605Y-72040000D01*
X62023377Y-73173771D01*
X62313315Y-73047896D01*
X62479139Y-72715738D01*
X62576975Y-72357613D01*
X62595636Y-72092719D01*
X63896935Y-72092719D01*
X63943595Y-72461025D01*
X64061211Y-72813151D01*
X64186685Y-73047896D01*
X64476623Y-73173771D01*
X65610395Y-72040000D01*
X65969605Y-72040000D01*
X67103377Y-73173771D01*
X67393315Y-73047896D01*
X67559139Y-72715738D01*
X67656975Y-72357613D01*
X67683065Y-71987281D01*
X67636405Y-71618975D01*
X67518789Y-71266849D01*
X67393315Y-71032104D01*
X67103377Y-70906229D01*
X65969605Y-72040000D01*
X65610395Y-72040000D01*
X64476623Y-70906229D01*
X64186685Y-71032104D01*
X64020861Y-71364262D01*
X63923025Y-71722387D01*
X63896935Y-72092719D01*
X62595636Y-72092719D01*
X62603065Y-71987281D01*
X62556405Y-71618975D01*
X62438789Y-71266849D01*
X62313315Y-71032104D01*
X62023377Y-70906229D01*
X60889605Y-72040000D01*
X60530395Y-72040000D01*
X59396623Y-70906229D01*
X59106685Y-71032104D01*
X58960000Y-71325925D01*
X58960000Y-70726623D01*
X59576229Y-70726623D01*
X60710000Y-71860395D01*
X61843771Y-70726623D01*
X61717896Y-70436685D01*
X61385738Y-70270861D01*
X61027613Y-70173025D01*
X60657281Y-70146935D01*
X60288975Y-70193595D01*
X59936849Y-70311211D01*
X59702104Y-70436685D01*
X59576229Y-70726623D01*
X58960000Y-70726623D01*
X58960000Y-69339017D01*
X61615510Y-69339017D01*
X61615510Y-69660983D01*
X61678322Y-69976763D01*
X61801533Y-70274222D01*
X61980408Y-70541927D01*
X62208073Y-70769592D01*
X62475778Y-70948467D01*
X62773237Y-71071678D01*
X63089017Y-71134490D01*
X63410983Y-71134490D01*
X63726763Y-71071678D01*
X64024222Y-70948467D01*
X64291927Y-70769592D01*
X64334896Y-70726623D01*
X64656229Y-70726623D01*
X65790000Y-71860395D01*
X66923771Y-70726623D01*
X66797896Y-70436685D01*
X66465738Y-70270861D01*
X66107613Y-70173025D01*
X65737281Y-70146935D01*
X65368975Y-70193595D01*
X65016849Y-70311211D01*
X64782104Y-70436685D01*
X64656229Y-70726623D01*
X64334896Y-70726623D01*
X64519592Y-70541927D01*
X64698467Y-70274222D01*
X64821678Y-69976763D01*
X64884490Y-69660983D01*
X64884490Y-69339017D01*
X64821678Y-69023237D01*
X64698467Y-68725778D01*
X64519592Y-68458073D01*
X64334896Y-68273377D01*
X64656229Y-68273377D01*
X64782104Y-68563315D01*
X65114262Y-68729139D01*
X65472387Y-68826975D01*
X65842719Y-68853065D01*
X66211025Y-68806405D01*
X66563151Y-68688789D01*
X66797896Y-68563315D01*
X66923771Y-68273377D01*
X65790000Y-67139605D01*
X64656229Y-68273377D01*
X64334896Y-68273377D01*
X64291927Y-68230408D01*
X64024222Y-68051533D01*
X63726763Y-67928322D01*
X63410983Y-67865510D01*
X63089017Y-67865510D01*
X62773237Y-67928322D01*
X62475778Y-68051533D01*
X62208073Y-68230408D01*
X61980408Y-68458073D01*
X61801533Y-68725778D01*
X61678322Y-69023237D01*
X61615510Y-69339017D01*
X58960000Y-69339017D01*
X58960000Y-68273377D01*
X59576229Y-68273377D01*
X59702104Y-68563315D01*
X60034262Y-68729139D01*
X60392387Y-68826975D01*
X60762719Y-68853065D01*
X61131025Y-68806405D01*
X61483151Y-68688789D01*
X61717896Y-68563315D01*
X61843771Y-68273377D01*
X60710000Y-67139605D01*
X59576229Y-68273377D01*
X58960000Y-68273377D01*
X58960000Y-67669648D01*
X58981211Y-67733151D01*
X59106685Y-67967896D01*
X59396623Y-68093771D01*
X60530395Y-66960000D01*
X60889605Y-66960000D01*
X62023377Y-68093771D01*
X62313315Y-67967896D01*
X62479139Y-67635738D01*
X62576975Y-67277613D01*
X62595636Y-67012719D01*
X63896935Y-67012719D01*
X63943595Y-67381025D01*
X64061211Y-67733151D01*
X64186685Y-67967896D01*
X64476623Y-68093771D01*
X65610395Y-66960000D01*
X65969605Y-66960000D01*
X67103377Y-68093771D01*
X67393315Y-67967896D01*
X67559139Y-67635738D01*
X67656975Y-67277613D01*
X67683065Y-66907281D01*
X67636405Y-66538975D01*
X67518789Y-66186849D01*
X67393315Y-65952104D01*
X67103377Y-65826229D01*
X65969605Y-66960000D01*
X65610395Y-66960000D01*
X64476623Y-65826229D01*
X64186685Y-65952104D01*
X64020861Y-66284262D01*
X63923025Y-66642387D01*
X63896935Y-67012719D01*
X62595636Y-67012719D01*
X62603065Y-66907281D01*
X62556405Y-66538975D01*
X62438789Y-66186849D01*
X62313315Y-65952104D01*
X62023377Y-65826229D01*
X60889605Y-66960000D01*
X60530395Y-66960000D01*
X59396623Y-65826229D01*
X59106685Y-65952104D01*
X58960000Y-66245925D01*
X58960000Y-65646623D01*
X59576229Y-65646623D01*
X60710000Y-66780395D01*
X61843771Y-65646623D01*
X64656229Y-65646623D01*
X65790000Y-66780395D01*
X66923771Y-65646623D01*
X66797896Y-65356685D01*
X66465738Y-65190861D01*
X66107613Y-65093025D01*
X65737281Y-65066935D01*
X65368975Y-65113595D01*
X65016849Y-65231211D01*
X64782104Y-65356685D01*
X64656229Y-65646623D01*
X61843771Y-65646623D01*
X61717896Y-65356685D01*
X61385738Y-65190861D01*
X61027613Y-65093025D01*
X60657281Y-65066935D01*
X60288975Y-65113595D01*
X59936849Y-65231211D01*
X59702104Y-65356685D01*
X59576229Y-65646623D01*
X58960000Y-65646623D01*
X58960000Y-61474344D01*
X69555000Y-61474344D01*
X69555000Y-61845656D01*
X69627439Y-62209834D01*
X69769534Y-62552882D01*
X69975825Y-62861618D01*
X70238382Y-63124175D01*
X70547118Y-63330466D01*
X70890166Y-63472561D01*
X71254344Y-63545000D01*
X71625656Y-63545000D01*
X71989834Y-63472561D01*
X72332882Y-63330466D01*
X72641618Y-63124175D01*
X72904175Y-62861618D01*
X73110466Y-62552882D01*
X73252561Y-62209834D01*
X73325000Y-61845656D01*
X73325000Y-61474344D01*
X77175000Y-61474344D01*
X77175000Y-61845656D01*
X77247439Y-62209834D01*
X77389534Y-62552882D01*
X77595825Y-62861618D01*
X77858382Y-63124175D01*
X78167118Y-63330466D01*
X78510166Y-63472561D01*
X78874344Y-63545000D01*
X79245656Y-63545000D01*
X79609834Y-63472561D01*
X79952882Y-63330466D01*
X80261618Y-63124175D01*
X80524175Y-62861618D01*
X80730466Y-62552882D01*
X80872561Y-62209834D01*
X80945000Y-61845656D01*
X80945000Y-61474344D01*
X80872561Y-61110166D01*
X80730466Y-60767118D01*
X80524175Y-60458382D01*
X80261618Y-60195825D01*
X79952882Y-59989534D01*
X79609834Y-59847439D01*
X79245656Y-59775000D01*
X78874344Y-59775000D01*
X78510166Y-59847439D01*
X78167118Y-59989534D01*
X77858382Y-60195825D01*
X77595825Y-60458382D01*
X77389534Y-60767118D01*
X77247439Y-61110166D01*
X77175000Y-61474344D01*
X73325000Y-61474344D01*
X73252561Y-61110166D01*
X73110466Y-60767118D01*
X72904175Y-60458382D01*
X72641618Y-60195825D01*
X72332882Y-59989534D01*
X71989834Y-59847439D01*
X71625656Y-59775000D01*
X71254344Y-59775000D01*
X70890166Y-59847439D01*
X70547118Y-59989534D01*
X70238382Y-60195825D01*
X69975825Y-60458382D01*
X69769534Y-60767118D01*
X69627439Y-61110166D01*
X69555000Y-61474344D01*
X58960000Y-61474344D01*
X58960000Y-56394344D01*
X69555000Y-56394344D01*
X69555000Y-56765656D01*
X69627439Y-57129834D01*
X69769534Y-57472882D01*
X69975825Y-57781618D01*
X70238382Y-58044175D01*
X70547118Y-58250466D01*
X70890166Y-58392561D01*
X71254344Y-58465000D01*
X71625656Y-58465000D01*
X71989834Y-58392561D01*
X72332882Y-58250466D01*
X72641618Y-58044175D01*
X72904175Y-57781618D01*
X73110466Y-57472882D01*
X73252561Y-57129834D01*
X73325000Y-56765656D01*
X73325000Y-56394344D01*
X77175000Y-56394344D01*
X77175000Y-56765656D01*
X77247439Y-57129834D01*
X77389534Y-57472882D01*
X77595825Y-57781618D01*
X77858382Y-58044175D01*
X78167118Y-58250466D01*
X78510166Y-58392561D01*
X78874344Y-58465000D01*
X79245656Y-58465000D01*
X79609834Y-58392561D01*
X79952882Y-58250466D01*
X80261618Y-58044175D01*
X80524175Y-57781618D01*
X80730466Y-57472882D01*
X80872561Y-57129834D01*
X80945000Y-56765656D01*
X80945000Y-56394344D01*
X80872561Y-56030166D01*
X80730466Y-55687118D01*
X80524175Y-55378382D01*
X80261618Y-55115825D01*
X79952882Y-54909534D01*
X79609834Y-54767439D01*
X79245656Y-54695000D01*
X78874344Y-54695000D01*
X78510166Y-54767439D01*
X78167118Y-54909534D01*
X77858382Y-55115825D01*
X77595825Y-55378382D01*
X77389534Y-55687118D01*
X77247439Y-56030166D01*
X77175000Y-56394344D01*
X73325000Y-56394344D01*
X73252561Y-56030166D01*
X73110466Y-55687118D01*
X72904175Y-55378382D01*
X72641618Y-55115825D01*
X72332882Y-54909534D01*
X71989834Y-54767439D01*
X71625656Y-54695000D01*
X71254344Y-54695000D01*
X70890166Y-54767439D01*
X70547118Y-54909534D01*
X70238382Y-55115825D01*
X69975825Y-55378382D01*
X69769534Y-55687118D01*
X69627439Y-56030166D01*
X69555000Y-56394344D01*
X58960000Y-56394344D01*
X58960000Y-47414155D01*
X60515450Y-47414155D01*
X60911634Y-47934550D01*
X61626612Y-48324748D01*
X62403976Y-48567964D01*
X63213853Y-48654851D01*
X64025118Y-48582069D01*
X64806597Y-48352415D01*
X65528256Y-47974715D01*
X65588366Y-47934550D01*
X65984550Y-47414155D01*
X63250000Y-44679605D01*
X60515450Y-47414155D01*
X58960000Y-47414155D01*
X58960000Y-44463853D01*
X59095149Y-44463853D01*
X59167931Y-45275118D01*
X59397585Y-46056597D01*
X59775285Y-46778256D01*
X59815450Y-46838366D01*
X60335845Y-47234550D01*
X63070395Y-44500000D01*
X63429605Y-44500000D01*
X66164155Y-47234550D01*
X66684550Y-46838366D01*
X67074748Y-46123388D01*
X67317964Y-45346024D01*
X67404851Y-44536147D01*
X67332069Y-43724882D01*
X67323095Y-43694344D01*
X69555000Y-43694344D01*
X69555000Y-44065656D01*
X69627439Y-44429834D01*
X69769534Y-44772882D01*
X69975825Y-45081618D01*
X70238382Y-45344175D01*
X70547118Y-45550466D01*
X70890166Y-45692561D01*
X71254344Y-45765000D01*
X71625656Y-45765000D01*
X71989834Y-45692561D01*
X72332882Y-45550466D01*
X72641618Y-45344175D01*
X72904175Y-45081618D01*
X73110466Y-44772882D01*
X73252561Y-44429834D01*
X73325000Y-44065656D01*
X73325000Y-43694344D01*
X77175000Y-43694344D01*
X77175000Y-44065656D01*
X77247439Y-44429834D01*
X77389534Y-44772882D01*
X77595825Y-45081618D01*
X77858382Y-45344175D01*
X78167118Y-45550466D01*
X78510166Y-45692561D01*
X78874344Y-45765000D01*
X79245656Y-45765000D01*
X79609834Y-45692561D01*
X79952882Y-45550466D01*
X80261618Y-45344175D01*
X80524175Y-45081618D01*
X80730466Y-44772882D01*
X80872561Y-44429834D01*
X80945000Y-44065656D01*
X80945000Y-43694344D01*
X80872561Y-43330166D01*
X80730466Y-42987118D01*
X80524175Y-42678382D01*
X80261618Y-42415825D01*
X79952882Y-42209534D01*
X79609834Y-42067439D01*
X79245656Y-41995000D01*
X78874344Y-41995000D01*
X78510166Y-42067439D01*
X78167118Y-42209534D01*
X77858382Y-42415825D01*
X77595825Y-42678382D01*
X77389534Y-42987118D01*
X77247439Y-43330166D01*
X77175000Y-43694344D01*
X73325000Y-43694344D01*
X73252561Y-43330166D01*
X73110466Y-42987118D01*
X72904175Y-42678382D01*
X72641618Y-42415825D01*
X72332882Y-42209534D01*
X71989834Y-42067439D01*
X71625656Y-41995000D01*
X71254344Y-41995000D01*
X70890166Y-42067439D01*
X70547118Y-42209534D01*
X70238382Y-42415825D01*
X69975825Y-42678382D01*
X69769534Y-42987118D01*
X69627439Y-43330166D01*
X69555000Y-43694344D01*
X67323095Y-43694344D01*
X67102415Y-42943403D01*
X66724715Y-42221744D01*
X66684550Y-42161634D01*
X66164155Y-41765450D01*
X63429605Y-44500000D01*
X63070395Y-44500000D01*
X60335845Y-41765450D01*
X59815450Y-42161634D01*
X59425252Y-42876612D01*
X59182036Y-43653976D01*
X59095149Y-44463853D01*
X58960000Y-44463853D01*
X58960000Y-41585845D01*
X60515450Y-41585845D01*
X63250000Y-44320395D01*
X65984550Y-41585845D01*
X65588366Y-41065450D01*
X64873388Y-40675252D01*
X64096024Y-40432036D01*
X63286147Y-40345149D01*
X62474882Y-40417931D01*
X61693403Y-40647585D01*
X60971744Y-41025285D01*
X60911634Y-41065450D01*
X60515450Y-41585845D01*
X58960000Y-41585845D01*
X58960000Y-40210000D01*
X83123000Y-40210000D01*
X83123000Y-44107654D01*
M02*
