%TF.GenerationSoftware,KiCad,Pcbnew,(5.1.5)-3*%
%TF.CreationDate,2021-12-07T14:42:13+01:00*%
%TF.ProjectId,LPF,4c50462e-6b69-4636-9164-5f7063625858,rev?*%
%TF.SameCoordinates,Original*%
%TF.FileFunction,Soldermask,Top*%
%TF.FilePolarity,Negative*%
%FSLAX46Y46*%
G04 Gerber Fmt 4.6, Leading zero omitted, Abs format (unit mm)*
G04 Created by KiCad (PCBNEW (5.1.5)-3) date 2021-12-07 14:42:13*
%MOMM*%
%LPD*%
G04 APERTURE LIST*
%ADD10C,0.100000*%
G04 APERTURE END LIST*
D10*
G36*
X208250000Y-139500000D02*
G01*
X58250000Y-139500000D01*
X58250000Y-137034365D01*
X60250000Y-137034365D01*
X60250000Y-137375001D01*
X60252402Y-137399387D01*
X60259515Y-137422836D01*
X60271066Y-137444447D01*
X60286611Y-137463389D01*
X60305553Y-137478934D01*
X60327164Y-137490485D01*
X60350613Y-137497598D01*
X60374999Y-137500000D01*
X60715635Y-137500000D01*
X60740021Y-137497598D01*
X60763470Y-137490485D01*
X60785081Y-137478934D01*
X60804023Y-137463389D01*
X60819568Y-137444447D01*
X60831119Y-137422836D01*
X60838232Y-137399387D01*
X60840634Y-137375001D01*
X60838232Y-137350615D01*
X60831119Y-137327166D01*
X60819568Y-137305555D01*
X60804028Y-137286619D01*
X60463381Y-136945972D01*
X60444445Y-136930432D01*
X60422834Y-136918881D01*
X60399385Y-136911768D01*
X60374999Y-136909366D01*
X60350613Y-136911768D01*
X60327164Y-136918881D01*
X60305553Y-136930432D01*
X60286611Y-136945977D01*
X60271066Y-136964919D01*
X60259515Y-136986530D01*
X60252402Y-137009979D01*
X60250000Y-137034365D01*
X58250000Y-137034365D01*
X58250000Y-47034365D01*
X60250000Y-47034365D01*
X60250000Y-65421107D01*
X60252402Y-65445493D01*
X60259515Y-65468942D01*
X60271066Y-65490553D01*
X60286611Y-65509495D01*
X60305553Y-65525040D01*
X60327164Y-65536591D01*
X60350613Y-65543704D01*
X60374999Y-65546106D01*
X60399385Y-65543704D01*
X60567218Y-65510320D01*
X60852782Y-65510320D01*
X61132855Y-65566030D01*
X61396679Y-65675310D01*
X61396681Y-65675311D01*
X61634117Y-65833960D01*
X61836040Y-66035883D01*
X61994689Y-66273319D01*
X61994690Y-66273321D01*
X62103970Y-66537145D01*
X62159680Y-66817218D01*
X62159680Y-67102782D01*
X62103970Y-67382855D01*
X62012305Y-67604152D01*
X61994689Y-67646681D01*
X61836040Y-67884117D01*
X61634117Y-68086040D01*
X61396681Y-68244689D01*
X61396680Y-68244690D01*
X61396679Y-68244690D01*
X61132855Y-68353970D01*
X60852782Y-68409680D01*
X60567218Y-68409680D01*
X60399385Y-68376296D01*
X60374999Y-68373894D01*
X60350613Y-68376296D01*
X60327164Y-68383409D01*
X60305553Y-68394960D01*
X60286611Y-68410505D01*
X60271066Y-68429447D01*
X60259515Y-68451058D01*
X60252402Y-68474507D01*
X60250000Y-68498893D01*
X60250000Y-70501107D01*
X60252402Y-70525493D01*
X60259515Y-70548942D01*
X60271066Y-70570553D01*
X60286611Y-70589495D01*
X60305553Y-70605040D01*
X60327164Y-70616591D01*
X60350613Y-70623704D01*
X60374999Y-70626106D01*
X60399385Y-70623704D01*
X60567218Y-70590320D01*
X60852782Y-70590320D01*
X61132855Y-70646030D01*
X61396679Y-70755310D01*
X61396681Y-70755311D01*
X61634117Y-70913960D01*
X61836040Y-71115883D01*
X61994689Y-71353319D01*
X61994690Y-71353321D01*
X62103970Y-71617145D01*
X62159680Y-71897218D01*
X62159680Y-72182782D01*
X62103970Y-72462855D01*
X62012305Y-72684152D01*
X61994689Y-72726681D01*
X61836040Y-72964117D01*
X61634117Y-73166040D01*
X61396681Y-73324689D01*
X61396680Y-73324690D01*
X61396679Y-73324690D01*
X61132855Y-73433970D01*
X60852782Y-73489680D01*
X60567218Y-73489680D01*
X60399385Y-73456296D01*
X60374999Y-73453894D01*
X60350613Y-73456296D01*
X60327164Y-73463409D01*
X60305553Y-73474960D01*
X60286611Y-73490505D01*
X60271066Y-73509447D01*
X60259515Y-73531058D01*
X60252402Y-73554507D01*
X60250000Y-73578893D01*
X60250000Y-80421107D01*
X60252402Y-80445493D01*
X60259515Y-80468942D01*
X60271066Y-80490553D01*
X60286611Y-80509495D01*
X60305553Y-80525040D01*
X60327164Y-80536591D01*
X60350613Y-80543704D01*
X60374999Y-80546106D01*
X60399385Y-80543704D01*
X60567218Y-80510320D01*
X60852782Y-80510320D01*
X61132855Y-80566030D01*
X61396679Y-80675310D01*
X61396681Y-80675311D01*
X61634117Y-80833960D01*
X61836040Y-81035883D01*
X61994689Y-81273319D01*
X61994690Y-81273321D01*
X62103970Y-81537145D01*
X62159680Y-81817218D01*
X62159680Y-82102782D01*
X62103970Y-82382855D01*
X61994690Y-82646679D01*
X61994689Y-82646681D01*
X61836040Y-82884117D01*
X61634117Y-83086040D01*
X61396681Y-83244689D01*
X61396680Y-83244690D01*
X61396679Y-83244690D01*
X61132855Y-83353970D01*
X60852782Y-83409680D01*
X60567218Y-83409680D01*
X60399385Y-83376296D01*
X60374999Y-83373894D01*
X60350613Y-83376296D01*
X60327164Y-83383409D01*
X60305553Y-83394960D01*
X60286611Y-83410505D01*
X60271066Y-83429447D01*
X60259515Y-83451058D01*
X60252402Y-83474507D01*
X60250000Y-83498893D01*
X60250000Y-85501107D01*
X60252402Y-85525493D01*
X60259515Y-85548942D01*
X60271066Y-85570553D01*
X60286611Y-85589495D01*
X60305553Y-85605040D01*
X60327164Y-85616591D01*
X60350613Y-85623704D01*
X60374999Y-85626106D01*
X60399385Y-85623704D01*
X60567218Y-85590320D01*
X60852782Y-85590320D01*
X61132855Y-85646030D01*
X61396679Y-85755310D01*
X61396681Y-85755311D01*
X61634117Y-85913960D01*
X61836040Y-86115883D01*
X61977077Y-86326961D01*
X61994690Y-86353321D01*
X62103970Y-86617145D01*
X62159680Y-86897218D01*
X62159680Y-87182782D01*
X62103970Y-87462855D01*
X62082221Y-87515361D01*
X61994689Y-87726681D01*
X61836040Y-87964117D01*
X61634117Y-88166040D01*
X61396681Y-88324689D01*
X61396680Y-88324690D01*
X61396679Y-88324690D01*
X61132855Y-88433970D01*
X60852782Y-88489680D01*
X60567218Y-88489680D01*
X60399385Y-88456296D01*
X60374999Y-88453894D01*
X60350613Y-88456296D01*
X60327164Y-88463409D01*
X60305553Y-88474960D01*
X60286611Y-88490505D01*
X60271066Y-88509447D01*
X60259515Y-88531058D01*
X60252402Y-88554507D01*
X60250000Y-88578893D01*
X60250000Y-115421107D01*
X60252402Y-115445493D01*
X60259515Y-115468942D01*
X60271066Y-115490553D01*
X60286611Y-115509495D01*
X60305553Y-115525040D01*
X60327164Y-115536591D01*
X60350613Y-115543704D01*
X60374999Y-115546106D01*
X60399385Y-115543704D01*
X60567218Y-115510320D01*
X60852782Y-115510320D01*
X61132855Y-115566030D01*
X61396679Y-115675310D01*
X61396681Y-115675311D01*
X61634117Y-115833960D01*
X61836040Y-116035883D01*
X61994689Y-116273319D01*
X61994690Y-116273321D01*
X62103970Y-116537145D01*
X62159680Y-116817218D01*
X62159680Y-117102782D01*
X62103970Y-117382855D01*
X62027764Y-117566831D01*
X61994689Y-117646681D01*
X61836040Y-117884117D01*
X61634117Y-118086040D01*
X61396681Y-118244689D01*
X61396680Y-118244690D01*
X61396679Y-118244690D01*
X61132855Y-118353970D01*
X60852782Y-118409680D01*
X60567218Y-118409680D01*
X60399385Y-118376296D01*
X60374999Y-118373894D01*
X60350613Y-118376296D01*
X60327164Y-118383409D01*
X60305553Y-118394960D01*
X60286611Y-118410505D01*
X60271066Y-118429447D01*
X60259515Y-118451058D01*
X60252402Y-118474507D01*
X60250000Y-118498893D01*
X60250000Y-120501107D01*
X60252402Y-120525493D01*
X60259515Y-120548942D01*
X60271066Y-120570553D01*
X60286611Y-120589495D01*
X60305553Y-120605040D01*
X60327164Y-120616591D01*
X60350613Y-120623704D01*
X60374999Y-120626106D01*
X60399385Y-120623704D01*
X60567218Y-120590320D01*
X60852782Y-120590320D01*
X61132855Y-120646030D01*
X61396679Y-120755310D01*
X61396681Y-120755311D01*
X61634117Y-120913960D01*
X61836040Y-121115883D01*
X61994689Y-121353319D01*
X61994690Y-121353321D01*
X62103970Y-121617145D01*
X62159680Y-121897218D01*
X62159680Y-122182782D01*
X62103970Y-122462855D01*
X61994690Y-122726679D01*
X61994689Y-122726681D01*
X61836040Y-122964117D01*
X61634117Y-123166040D01*
X61396681Y-123324689D01*
X61396680Y-123324690D01*
X61396679Y-123324690D01*
X61132855Y-123433970D01*
X60852782Y-123489680D01*
X60567218Y-123489680D01*
X60399385Y-123456296D01*
X60374999Y-123453894D01*
X60350613Y-123456296D01*
X60327164Y-123463409D01*
X60305553Y-123474960D01*
X60286611Y-123490505D01*
X60271066Y-123509447D01*
X60259515Y-123531058D01*
X60252402Y-123554507D01*
X60250000Y-123578893D01*
X60250000Y-131965635D01*
X60252402Y-131990021D01*
X60259515Y-132013470D01*
X60271066Y-132035081D01*
X60286611Y-132054023D01*
X60305553Y-132069568D01*
X60327164Y-132081119D01*
X60350613Y-132088232D01*
X60374999Y-132090634D01*
X60399385Y-132088232D01*
X60422834Y-132081119D01*
X60444445Y-132069568D01*
X60463381Y-132054028D01*
X60891387Y-131626022D01*
X61497393Y-131221102D01*
X61497394Y-131221101D01*
X62170751Y-130942188D01*
X62885580Y-130800000D01*
X63614420Y-130800000D01*
X64329249Y-130942188D01*
X65002606Y-131221101D01*
X65002607Y-131221102D01*
X65608613Y-131626022D01*
X66123978Y-132141387D01*
X66394537Y-132546308D01*
X66528899Y-132747394D01*
X66807812Y-133420751D01*
X66950000Y-134135580D01*
X66950000Y-134864420D01*
X66807812Y-135579249D01*
X66528899Y-136252606D01*
X66528898Y-136252607D01*
X66123978Y-136858613D01*
X65695972Y-137286619D01*
X65680432Y-137305555D01*
X65668881Y-137327166D01*
X65661768Y-137350615D01*
X65659366Y-137375001D01*
X65661768Y-137399387D01*
X65668881Y-137422836D01*
X65680432Y-137444447D01*
X65695977Y-137463389D01*
X65714919Y-137478934D01*
X65736530Y-137490485D01*
X65759979Y-137497598D01*
X65784365Y-137500000D01*
X200715635Y-137500000D01*
X200740021Y-137497598D01*
X200763470Y-137490485D01*
X200785081Y-137478934D01*
X200804023Y-137463389D01*
X200819568Y-137444447D01*
X200831119Y-137422836D01*
X200838232Y-137399387D01*
X200840634Y-137375001D01*
X205659366Y-137375001D01*
X205661768Y-137399387D01*
X205668881Y-137422836D01*
X205680432Y-137444447D01*
X205695977Y-137463389D01*
X205714919Y-137478934D01*
X205736530Y-137490485D01*
X205759979Y-137497598D01*
X205784365Y-137500000D01*
X206125001Y-137500000D01*
X206149387Y-137497598D01*
X206172836Y-137490485D01*
X206194447Y-137478934D01*
X206213389Y-137463389D01*
X206228934Y-137444447D01*
X206240485Y-137422836D01*
X206247598Y-137399387D01*
X206250000Y-137375001D01*
X206250000Y-137034365D01*
X206247598Y-137009979D01*
X206240485Y-136986530D01*
X206228934Y-136964919D01*
X206213389Y-136945977D01*
X206194447Y-136930432D01*
X206172836Y-136918881D01*
X206149387Y-136911768D01*
X206125001Y-136909366D01*
X206100615Y-136911768D01*
X206077166Y-136918881D01*
X206055555Y-136930432D01*
X206036619Y-136945972D01*
X205695972Y-137286619D01*
X205680432Y-137305555D01*
X205668881Y-137327166D01*
X205661768Y-137350615D01*
X205659366Y-137375001D01*
X200840634Y-137375001D01*
X200838232Y-137350615D01*
X200831119Y-137327166D01*
X200819568Y-137305555D01*
X200804028Y-137286619D01*
X200376022Y-136858613D01*
X199971102Y-136252607D01*
X199971101Y-136252606D01*
X199692188Y-135579249D01*
X199550000Y-134864420D01*
X199550000Y-134135580D01*
X199692188Y-133420751D01*
X199971101Y-132747394D01*
X200105463Y-132546308D01*
X200376022Y-132141387D01*
X200891387Y-131626022D01*
X201497393Y-131221102D01*
X201497394Y-131221101D01*
X202170751Y-130942188D01*
X202885580Y-130800000D01*
X203614420Y-130800000D01*
X204329249Y-130942188D01*
X205002606Y-131221101D01*
X205002607Y-131221102D01*
X205608613Y-131626022D01*
X206036619Y-132054028D01*
X206055555Y-132069568D01*
X206077166Y-132081119D01*
X206100615Y-132088232D01*
X206125001Y-132090634D01*
X206149387Y-132088232D01*
X206172836Y-132081119D01*
X206194447Y-132069568D01*
X206213389Y-132054023D01*
X206228934Y-132035081D01*
X206240485Y-132013470D01*
X206247598Y-131990021D01*
X206250000Y-131965635D01*
X206250000Y-47034365D01*
X206247598Y-47009979D01*
X206240485Y-46986530D01*
X206228934Y-46964919D01*
X206213389Y-46945977D01*
X206194447Y-46930432D01*
X206172836Y-46918881D01*
X206149387Y-46911768D01*
X206125001Y-46909366D01*
X206100615Y-46911768D01*
X206077166Y-46918881D01*
X206055555Y-46930432D01*
X206036619Y-46945972D01*
X205608613Y-47373978D01*
X205203692Y-47644537D01*
X205002606Y-47778899D01*
X204329249Y-48057812D01*
X203614420Y-48200000D01*
X202885580Y-48200000D01*
X202170751Y-48057812D01*
X201497394Y-47778899D01*
X201296308Y-47644537D01*
X200891387Y-47373978D01*
X200376022Y-46858613D01*
X199971102Y-46252607D01*
X199971101Y-46252606D01*
X199692188Y-45579249D01*
X199550000Y-44864420D01*
X199550000Y-44135580D01*
X199692188Y-43420751D01*
X199971101Y-42747394D01*
X200183177Y-42430000D01*
X200376022Y-42141387D01*
X200804028Y-41713381D01*
X200819568Y-41694445D01*
X200831119Y-41672834D01*
X200838232Y-41649385D01*
X200840634Y-41624999D01*
X205659366Y-41624999D01*
X205661768Y-41649385D01*
X205668881Y-41672834D01*
X205680432Y-41694445D01*
X205695972Y-41713381D01*
X206036619Y-42054028D01*
X206055555Y-42069568D01*
X206077166Y-42081119D01*
X206100615Y-42088232D01*
X206125001Y-42090634D01*
X206149387Y-42088232D01*
X206172836Y-42081119D01*
X206194447Y-42069568D01*
X206213389Y-42054023D01*
X206228934Y-42035081D01*
X206240485Y-42013470D01*
X206247598Y-41990021D01*
X206250000Y-41965635D01*
X206250000Y-41624999D01*
X206247598Y-41600613D01*
X206240485Y-41577164D01*
X206228934Y-41555553D01*
X206213389Y-41536611D01*
X206194447Y-41521066D01*
X206172836Y-41509515D01*
X206149387Y-41502402D01*
X206125001Y-41500000D01*
X205784365Y-41500000D01*
X205759979Y-41502402D01*
X205736530Y-41509515D01*
X205714919Y-41521066D01*
X205695977Y-41536611D01*
X205680432Y-41555553D01*
X205668881Y-41577164D01*
X205661768Y-41600613D01*
X205659366Y-41624999D01*
X200840634Y-41624999D01*
X200838232Y-41600613D01*
X200831119Y-41577164D01*
X200819568Y-41555553D01*
X200804023Y-41536611D01*
X200785081Y-41521066D01*
X200763470Y-41509515D01*
X200740021Y-41502402D01*
X200715635Y-41500000D01*
X65784365Y-41500000D01*
X65759979Y-41502402D01*
X65736530Y-41509515D01*
X65714919Y-41521066D01*
X65695977Y-41536611D01*
X65680432Y-41555553D01*
X65668881Y-41577164D01*
X65661768Y-41600613D01*
X65659366Y-41624999D01*
X65661768Y-41649385D01*
X65668881Y-41672834D01*
X65680432Y-41694445D01*
X65695972Y-41713381D01*
X66123978Y-42141387D01*
X66316823Y-42430000D01*
X66528899Y-42747394D01*
X66807812Y-43420751D01*
X66950000Y-44135580D01*
X66950000Y-44864420D01*
X66807812Y-45579249D01*
X66528899Y-46252606D01*
X66528898Y-46252607D01*
X66123978Y-46858613D01*
X65608613Y-47373978D01*
X65203692Y-47644537D01*
X65002606Y-47778899D01*
X64329249Y-48057812D01*
X63614420Y-48200000D01*
X62885580Y-48200000D01*
X62170751Y-48057812D01*
X61497394Y-47778899D01*
X61296308Y-47644537D01*
X60891387Y-47373978D01*
X60463381Y-46945972D01*
X60444445Y-46930432D01*
X60422834Y-46918881D01*
X60399385Y-46911768D01*
X60374999Y-46909366D01*
X60350613Y-46911768D01*
X60327164Y-46918881D01*
X60305553Y-46930432D01*
X60286611Y-46945977D01*
X60271066Y-46964919D01*
X60259515Y-46986530D01*
X60252402Y-47009979D01*
X60250000Y-47034365D01*
X58250000Y-47034365D01*
X58250000Y-41624999D01*
X60250000Y-41624999D01*
X60250000Y-41965635D01*
X60252402Y-41990021D01*
X60259515Y-42013470D01*
X60271066Y-42035081D01*
X60286611Y-42054023D01*
X60305553Y-42069568D01*
X60327164Y-42081119D01*
X60350613Y-42088232D01*
X60374999Y-42090634D01*
X60399385Y-42088232D01*
X60422834Y-42081119D01*
X60444445Y-42069568D01*
X60463381Y-42054028D01*
X60804028Y-41713381D01*
X60819568Y-41694445D01*
X60831119Y-41672834D01*
X60838232Y-41649385D01*
X60840634Y-41624999D01*
X60838232Y-41600613D01*
X60831119Y-41577164D01*
X60819568Y-41555553D01*
X60804023Y-41536611D01*
X60785081Y-41521066D01*
X60763470Y-41509515D01*
X60740021Y-41502402D01*
X60715635Y-41500000D01*
X60374999Y-41500000D01*
X60350613Y-41502402D01*
X60327164Y-41509515D01*
X60305553Y-41521066D01*
X60286611Y-41536611D01*
X60271066Y-41555553D01*
X60259515Y-41577164D01*
X60252402Y-41600613D01*
X60250000Y-41624999D01*
X58250000Y-41624999D01*
X58250000Y-39500000D01*
X208250000Y-39500000D01*
X208250000Y-139500000D01*
G37*
G36*
X196482948Y-133265722D02*
G01*
X196746831Y-133375026D01*
X196746833Y-133375027D01*
X196984321Y-133533711D01*
X197186289Y-133735679D01*
X197344973Y-133973167D01*
X197344974Y-133973169D01*
X197454278Y-134237052D01*
X197510000Y-134517186D01*
X197510000Y-134802814D01*
X197454278Y-135082948D01*
X197344974Y-135346831D01*
X197344973Y-135346833D01*
X197186289Y-135584321D01*
X196984321Y-135786289D01*
X196746833Y-135944973D01*
X196746832Y-135944974D01*
X196746831Y-135944974D01*
X196482948Y-136054278D01*
X196202814Y-136110000D01*
X195917186Y-136110000D01*
X195637052Y-136054278D01*
X195373169Y-135944974D01*
X195373168Y-135944974D01*
X195373167Y-135944973D01*
X195135679Y-135786289D01*
X194933711Y-135584321D01*
X194775027Y-135346833D01*
X194775026Y-135346831D01*
X194665722Y-135082948D01*
X194610000Y-134802814D01*
X194610000Y-134517186D01*
X194665722Y-134237052D01*
X194775026Y-133973169D01*
X194775027Y-133973167D01*
X194933711Y-133735679D01*
X195135679Y-133533711D01*
X195373167Y-133375027D01*
X195373169Y-133375026D01*
X195637052Y-133265722D01*
X195917186Y-133210000D01*
X196202814Y-133210000D01*
X196482948Y-133265722D01*
G37*
G36*
X188862948Y-133265722D02*
G01*
X189126831Y-133375026D01*
X189126833Y-133375027D01*
X189364321Y-133533711D01*
X189566289Y-133735679D01*
X189724973Y-133973167D01*
X189724974Y-133973169D01*
X189834278Y-134237052D01*
X189890000Y-134517186D01*
X189890000Y-134802814D01*
X189834278Y-135082948D01*
X189724974Y-135346831D01*
X189724973Y-135346833D01*
X189566289Y-135584321D01*
X189364321Y-135786289D01*
X189126833Y-135944973D01*
X189126832Y-135944974D01*
X189126831Y-135944974D01*
X188862948Y-136054278D01*
X188582814Y-136110000D01*
X188297186Y-136110000D01*
X188017052Y-136054278D01*
X187753169Y-135944974D01*
X187753168Y-135944974D01*
X187753167Y-135944973D01*
X187515679Y-135786289D01*
X187313711Y-135584321D01*
X187155027Y-135346833D01*
X187155026Y-135346831D01*
X187045722Y-135082948D01*
X186990000Y-134802814D01*
X186990000Y-134517186D01*
X187045722Y-134237052D01*
X187155026Y-133973169D01*
X187155027Y-133973167D01*
X187313711Y-133735679D01*
X187515679Y-133533711D01*
X187753167Y-133375027D01*
X187753169Y-133375026D01*
X188017052Y-133265722D01*
X188297186Y-133210000D01*
X188582814Y-133210000D01*
X188862948Y-133265722D01*
G37*
G36*
X179482948Y-133265722D02*
G01*
X179746831Y-133375026D01*
X179746833Y-133375027D01*
X179984321Y-133533711D01*
X180186289Y-133735679D01*
X180344973Y-133973167D01*
X180344974Y-133973169D01*
X180454278Y-134237052D01*
X180510000Y-134517186D01*
X180510000Y-134802814D01*
X180454278Y-135082948D01*
X180344974Y-135346831D01*
X180344973Y-135346833D01*
X180186289Y-135584321D01*
X179984321Y-135786289D01*
X179746833Y-135944973D01*
X179746832Y-135944974D01*
X179746831Y-135944974D01*
X179482948Y-136054278D01*
X179202814Y-136110000D01*
X178917186Y-136110000D01*
X178637052Y-136054278D01*
X178373169Y-135944974D01*
X178373168Y-135944974D01*
X178373167Y-135944973D01*
X178135679Y-135786289D01*
X177933711Y-135584321D01*
X177775027Y-135346833D01*
X177775026Y-135346831D01*
X177665722Y-135082948D01*
X177610000Y-134802814D01*
X177610000Y-134517186D01*
X177665722Y-134237052D01*
X177775026Y-133973169D01*
X177775027Y-133973167D01*
X177933711Y-133735679D01*
X178135679Y-133533711D01*
X178373167Y-133375027D01*
X178373169Y-133375026D01*
X178637052Y-133265722D01*
X178917186Y-133210000D01*
X179202814Y-133210000D01*
X179482948Y-133265722D01*
G37*
G36*
X120862948Y-133265722D02*
G01*
X121126831Y-133375026D01*
X121126833Y-133375027D01*
X121364321Y-133533711D01*
X121566289Y-133735679D01*
X121724973Y-133973167D01*
X121724974Y-133973169D01*
X121834278Y-134237052D01*
X121890000Y-134517186D01*
X121890000Y-134802814D01*
X121834278Y-135082948D01*
X121724974Y-135346831D01*
X121724973Y-135346833D01*
X121566289Y-135584321D01*
X121364321Y-135786289D01*
X121126833Y-135944973D01*
X121126832Y-135944974D01*
X121126831Y-135944974D01*
X120862948Y-136054278D01*
X120582814Y-136110000D01*
X120297186Y-136110000D01*
X120017052Y-136054278D01*
X119753169Y-135944974D01*
X119753168Y-135944974D01*
X119753167Y-135944973D01*
X119515679Y-135786289D01*
X119313711Y-135584321D01*
X119155027Y-135346833D01*
X119155026Y-135346831D01*
X119045722Y-135082948D01*
X118990000Y-134802814D01*
X118990000Y-134517186D01*
X119045722Y-134237052D01*
X119155026Y-133973169D01*
X119155027Y-133973167D01*
X119313711Y-133735679D01*
X119515679Y-133533711D01*
X119753167Y-133375027D01*
X119753169Y-133375026D01*
X120017052Y-133265722D01*
X120297186Y-133210000D01*
X120582814Y-133210000D01*
X120862948Y-133265722D01*
G37*
G36*
X171862948Y-133265722D02*
G01*
X172126831Y-133375026D01*
X172126833Y-133375027D01*
X172364321Y-133533711D01*
X172566289Y-133735679D01*
X172724973Y-133973167D01*
X172724974Y-133973169D01*
X172834278Y-134237052D01*
X172890000Y-134517186D01*
X172890000Y-134802814D01*
X172834278Y-135082948D01*
X172724974Y-135346831D01*
X172724973Y-135346833D01*
X172566289Y-135584321D01*
X172364321Y-135786289D01*
X172126833Y-135944973D01*
X172126832Y-135944974D01*
X172126831Y-135944974D01*
X171862948Y-136054278D01*
X171582814Y-136110000D01*
X171297186Y-136110000D01*
X171017052Y-136054278D01*
X170753169Y-135944974D01*
X170753168Y-135944974D01*
X170753167Y-135944973D01*
X170515679Y-135786289D01*
X170313711Y-135584321D01*
X170155027Y-135346833D01*
X170155026Y-135346831D01*
X170045722Y-135082948D01*
X169990000Y-134802814D01*
X169990000Y-134517186D01*
X170045722Y-134237052D01*
X170155026Y-133973169D01*
X170155027Y-133973167D01*
X170313711Y-133735679D01*
X170515679Y-133533711D01*
X170753167Y-133375027D01*
X170753169Y-133375026D01*
X171017052Y-133265722D01*
X171297186Y-133210000D01*
X171582814Y-133210000D01*
X171862948Y-133265722D01*
G37*
G36*
X162482948Y-133265722D02*
G01*
X162746831Y-133375026D01*
X162746833Y-133375027D01*
X162984321Y-133533711D01*
X163186289Y-133735679D01*
X163344973Y-133973167D01*
X163344974Y-133973169D01*
X163454278Y-134237052D01*
X163510000Y-134517186D01*
X163510000Y-134802814D01*
X163454278Y-135082948D01*
X163344974Y-135346831D01*
X163344973Y-135346833D01*
X163186289Y-135584321D01*
X162984321Y-135786289D01*
X162746833Y-135944973D01*
X162746832Y-135944974D01*
X162746831Y-135944974D01*
X162482948Y-136054278D01*
X162202814Y-136110000D01*
X161917186Y-136110000D01*
X161637052Y-136054278D01*
X161373169Y-135944974D01*
X161373168Y-135944974D01*
X161373167Y-135944973D01*
X161135679Y-135786289D01*
X160933711Y-135584321D01*
X160775027Y-135346833D01*
X160775026Y-135346831D01*
X160665722Y-135082948D01*
X160610000Y-134802814D01*
X160610000Y-134517186D01*
X160665722Y-134237052D01*
X160775026Y-133973169D01*
X160775027Y-133973167D01*
X160933711Y-133735679D01*
X161135679Y-133533711D01*
X161373167Y-133375027D01*
X161373169Y-133375026D01*
X161637052Y-133265722D01*
X161917186Y-133210000D01*
X162202814Y-133210000D01*
X162482948Y-133265722D01*
G37*
G36*
X154862948Y-133265722D02*
G01*
X155126831Y-133375026D01*
X155126833Y-133375027D01*
X155364321Y-133533711D01*
X155566289Y-133735679D01*
X155724973Y-133973167D01*
X155724974Y-133973169D01*
X155834278Y-134237052D01*
X155890000Y-134517186D01*
X155890000Y-134802814D01*
X155834278Y-135082948D01*
X155724974Y-135346831D01*
X155724973Y-135346833D01*
X155566289Y-135584321D01*
X155364321Y-135786289D01*
X155126833Y-135944973D01*
X155126832Y-135944974D01*
X155126831Y-135944974D01*
X154862948Y-136054278D01*
X154582814Y-136110000D01*
X154297186Y-136110000D01*
X154017052Y-136054278D01*
X153753169Y-135944974D01*
X153753168Y-135944974D01*
X153753167Y-135944973D01*
X153515679Y-135786289D01*
X153313711Y-135584321D01*
X153155027Y-135346833D01*
X153155026Y-135346831D01*
X153045722Y-135082948D01*
X152990000Y-134802814D01*
X152990000Y-134517186D01*
X153045722Y-134237052D01*
X153155026Y-133973169D01*
X153155027Y-133973167D01*
X153313711Y-133735679D01*
X153515679Y-133533711D01*
X153753167Y-133375027D01*
X153753169Y-133375026D01*
X154017052Y-133265722D01*
X154297186Y-133210000D01*
X154582814Y-133210000D01*
X154862948Y-133265722D01*
G37*
G36*
X145482948Y-133265722D02*
G01*
X145746831Y-133375026D01*
X145746833Y-133375027D01*
X145984321Y-133533711D01*
X146186289Y-133735679D01*
X146344973Y-133973167D01*
X146344974Y-133973169D01*
X146454278Y-134237052D01*
X146510000Y-134517186D01*
X146510000Y-134802814D01*
X146454278Y-135082948D01*
X146344974Y-135346831D01*
X146344973Y-135346833D01*
X146186289Y-135584321D01*
X145984321Y-135786289D01*
X145746833Y-135944973D01*
X145746832Y-135944974D01*
X145746831Y-135944974D01*
X145482948Y-136054278D01*
X145202814Y-136110000D01*
X144917186Y-136110000D01*
X144637052Y-136054278D01*
X144373169Y-135944974D01*
X144373168Y-135944974D01*
X144373167Y-135944973D01*
X144135679Y-135786289D01*
X143933711Y-135584321D01*
X143775027Y-135346833D01*
X143775026Y-135346831D01*
X143665722Y-135082948D01*
X143610000Y-134802814D01*
X143610000Y-134517186D01*
X143665722Y-134237052D01*
X143775026Y-133973169D01*
X143775027Y-133973167D01*
X143933711Y-133735679D01*
X144135679Y-133533711D01*
X144373167Y-133375027D01*
X144373169Y-133375026D01*
X144637052Y-133265722D01*
X144917186Y-133210000D01*
X145202814Y-133210000D01*
X145482948Y-133265722D01*
G37*
G36*
X137862948Y-133265722D02*
G01*
X138126831Y-133375026D01*
X138126833Y-133375027D01*
X138364321Y-133533711D01*
X138566289Y-133735679D01*
X138724973Y-133973167D01*
X138724974Y-133973169D01*
X138834278Y-134237052D01*
X138890000Y-134517186D01*
X138890000Y-134802814D01*
X138834278Y-135082948D01*
X138724974Y-135346831D01*
X138724973Y-135346833D01*
X138566289Y-135584321D01*
X138364321Y-135786289D01*
X138126833Y-135944973D01*
X138126832Y-135944974D01*
X138126831Y-135944974D01*
X137862948Y-136054278D01*
X137582814Y-136110000D01*
X137297186Y-136110000D01*
X137017052Y-136054278D01*
X136753169Y-135944974D01*
X136753168Y-135944974D01*
X136753167Y-135944973D01*
X136515679Y-135786289D01*
X136313711Y-135584321D01*
X136155027Y-135346833D01*
X136155026Y-135346831D01*
X136045722Y-135082948D01*
X135990000Y-134802814D01*
X135990000Y-134517186D01*
X136045722Y-134237052D01*
X136155026Y-133973169D01*
X136155027Y-133973167D01*
X136313711Y-133735679D01*
X136515679Y-133533711D01*
X136753167Y-133375027D01*
X136753169Y-133375026D01*
X137017052Y-133265722D01*
X137297186Y-133210000D01*
X137582814Y-133210000D01*
X137862948Y-133265722D01*
G37*
G36*
X128482948Y-133265722D02*
G01*
X128746831Y-133375026D01*
X128746833Y-133375027D01*
X128984321Y-133533711D01*
X129186289Y-133735679D01*
X129344973Y-133973167D01*
X129344974Y-133973169D01*
X129454278Y-134237052D01*
X129510000Y-134517186D01*
X129510000Y-134802814D01*
X129454278Y-135082948D01*
X129344974Y-135346831D01*
X129344973Y-135346833D01*
X129186289Y-135584321D01*
X128984321Y-135786289D01*
X128746833Y-135944973D01*
X128746832Y-135944974D01*
X128746831Y-135944974D01*
X128482948Y-136054278D01*
X128202814Y-136110000D01*
X127917186Y-136110000D01*
X127637052Y-136054278D01*
X127373169Y-135944974D01*
X127373168Y-135944974D01*
X127373167Y-135944973D01*
X127135679Y-135786289D01*
X126933711Y-135584321D01*
X126775027Y-135346833D01*
X126775026Y-135346831D01*
X126665722Y-135082948D01*
X126610000Y-134802814D01*
X126610000Y-134517186D01*
X126665722Y-134237052D01*
X126775026Y-133973169D01*
X126775027Y-133973167D01*
X126933711Y-133735679D01*
X127135679Y-133533711D01*
X127373167Y-133375027D01*
X127373169Y-133375026D01*
X127637052Y-133265722D01*
X127917186Y-133210000D01*
X128202814Y-133210000D01*
X128482948Y-133265722D01*
G37*
G36*
X111482948Y-133265722D02*
G01*
X111746831Y-133375026D01*
X111746833Y-133375027D01*
X111984321Y-133533711D01*
X112186289Y-133735679D01*
X112344973Y-133973167D01*
X112344974Y-133973169D01*
X112454278Y-134237052D01*
X112510000Y-134517186D01*
X112510000Y-134802814D01*
X112454278Y-135082948D01*
X112344974Y-135346831D01*
X112344973Y-135346833D01*
X112186289Y-135584321D01*
X111984321Y-135786289D01*
X111746833Y-135944973D01*
X111746832Y-135944974D01*
X111746831Y-135944974D01*
X111482948Y-136054278D01*
X111202814Y-136110000D01*
X110917186Y-136110000D01*
X110637052Y-136054278D01*
X110373169Y-135944974D01*
X110373168Y-135944974D01*
X110373167Y-135944973D01*
X110135679Y-135786289D01*
X109933711Y-135584321D01*
X109775027Y-135346833D01*
X109775026Y-135346831D01*
X109665722Y-135082948D01*
X109610000Y-134802814D01*
X109610000Y-134517186D01*
X109665722Y-134237052D01*
X109775026Y-133973169D01*
X109775027Y-133973167D01*
X109933711Y-133735679D01*
X110135679Y-133533711D01*
X110373167Y-133375027D01*
X110373169Y-133375026D01*
X110637052Y-133265722D01*
X110917186Y-133210000D01*
X111202814Y-133210000D01*
X111482948Y-133265722D01*
G37*
G36*
X103862948Y-133265722D02*
G01*
X104126831Y-133375026D01*
X104126833Y-133375027D01*
X104364321Y-133533711D01*
X104566289Y-133735679D01*
X104724973Y-133973167D01*
X104724974Y-133973169D01*
X104834278Y-134237052D01*
X104890000Y-134517186D01*
X104890000Y-134802814D01*
X104834278Y-135082948D01*
X104724974Y-135346831D01*
X104724973Y-135346833D01*
X104566289Y-135584321D01*
X104364321Y-135786289D01*
X104126833Y-135944973D01*
X104126832Y-135944974D01*
X104126831Y-135944974D01*
X103862948Y-136054278D01*
X103582814Y-136110000D01*
X103297186Y-136110000D01*
X103017052Y-136054278D01*
X102753169Y-135944974D01*
X102753168Y-135944974D01*
X102753167Y-135944973D01*
X102515679Y-135786289D01*
X102313711Y-135584321D01*
X102155027Y-135346833D01*
X102155026Y-135346831D01*
X102045722Y-135082948D01*
X101990000Y-134802814D01*
X101990000Y-134517186D01*
X102045722Y-134237052D01*
X102155026Y-133973169D01*
X102155027Y-133973167D01*
X102313711Y-133735679D01*
X102515679Y-133533711D01*
X102753167Y-133375027D01*
X102753169Y-133375026D01*
X103017052Y-133265722D01*
X103297186Y-133210000D01*
X103582814Y-133210000D01*
X103862948Y-133265722D01*
G37*
G36*
X94482948Y-133265722D02*
G01*
X94746831Y-133375026D01*
X94746833Y-133375027D01*
X94984321Y-133533711D01*
X95186289Y-133735679D01*
X95344973Y-133973167D01*
X95344974Y-133973169D01*
X95454278Y-134237052D01*
X95510000Y-134517186D01*
X95510000Y-134802814D01*
X95454278Y-135082948D01*
X95344974Y-135346831D01*
X95344973Y-135346833D01*
X95186289Y-135584321D01*
X94984321Y-135786289D01*
X94746833Y-135944973D01*
X94746832Y-135944974D01*
X94746831Y-135944974D01*
X94482948Y-136054278D01*
X94202814Y-136110000D01*
X93917186Y-136110000D01*
X93637052Y-136054278D01*
X93373169Y-135944974D01*
X93373168Y-135944974D01*
X93373167Y-135944973D01*
X93135679Y-135786289D01*
X92933711Y-135584321D01*
X92775027Y-135346833D01*
X92775026Y-135346831D01*
X92665722Y-135082948D01*
X92610000Y-134802814D01*
X92610000Y-134517186D01*
X92665722Y-134237052D01*
X92775026Y-133973169D01*
X92775027Y-133973167D01*
X92933711Y-133735679D01*
X93135679Y-133533711D01*
X93373167Y-133375027D01*
X93373169Y-133375026D01*
X93637052Y-133265722D01*
X93917186Y-133210000D01*
X94202814Y-133210000D01*
X94482948Y-133265722D01*
G37*
G36*
X86862948Y-133265722D02*
G01*
X87126831Y-133375026D01*
X87126833Y-133375027D01*
X87364321Y-133533711D01*
X87566289Y-133735679D01*
X87724973Y-133973167D01*
X87724974Y-133973169D01*
X87834278Y-134237052D01*
X87890000Y-134517186D01*
X87890000Y-134802814D01*
X87834278Y-135082948D01*
X87724974Y-135346831D01*
X87724973Y-135346833D01*
X87566289Y-135584321D01*
X87364321Y-135786289D01*
X87126833Y-135944973D01*
X87126832Y-135944974D01*
X87126831Y-135944974D01*
X86862948Y-136054278D01*
X86582814Y-136110000D01*
X86297186Y-136110000D01*
X86017052Y-136054278D01*
X85753169Y-135944974D01*
X85753168Y-135944974D01*
X85753167Y-135944973D01*
X85515679Y-135786289D01*
X85313711Y-135584321D01*
X85155027Y-135346833D01*
X85155026Y-135346831D01*
X85045722Y-135082948D01*
X84990000Y-134802814D01*
X84990000Y-134517186D01*
X85045722Y-134237052D01*
X85155026Y-133973169D01*
X85155027Y-133973167D01*
X85313711Y-133735679D01*
X85515679Y-133533711D01*
X85753167Y-133375027D01*
X85753169Y-133375026D01*
X86017052Y-133265722D01*
X86297186Y-133210000D01*
X86582814Y-133210000D01*
X86862948Y-133265722D01*
G37*
G36*
X86862948Y-128185722D02*
G01*
X87126831Y-128295026D01*
X87126833Y-128295027D01*
X87364321Y-128453711D01*
X87566289Y-128655679D01*
X87724973Y-128893167D01*
X87724974Y-128893169D01*
X87834278Y-129157052D01*
X87890000Y-129437186D01*
X87890000Y-129722814D01*
X87834278Y-130002948D01*
X87724974Y-130266831D01*
X87724973Y-130266833D01*
X87566289Y-130504321D01*
X87364321Y-130706289D01*
X87126833Y-130864973D01*
X87126832Y-130864974D01*
X87126831Y-130864974D01*
X86862948Y-130974278D01*
X86582814Y-131030000D01*
X86297186Y-131030000D01*
X86017052Y-130974278D01*
X85753169Y-130864974D01*
X85753168Y-130864974D01*
X85753167Y-130864973D01*
X85515679Y-130706289D01*
X85313711Y-130504321D01*
X85155027Y-130266833D01*
X85155026Y-130266831D01*
X85045722Y-130002948D01*
X84990000Y-129722814D01*
X84990000Y-129437186D01*
X85045722Y-129157052D01*
X85155026Y-128893169D01*
X85155027Y-128893167D01*
X85313711Y-128655679D01*
X85515679Y-128453711D01*
X85753167Y-128295027D01*
X85753169Y-128295026D01*
X86017052Y-128185722D01*
X86297186Y-128130000D01*
X86582814Y-128130000D01*
X86862948Y-128185722D01*
G37*
G36*
X94482948Y-128185722D02*
G01*
X94746831Y-128295026D01*
X94746833Y-128295027D01*
X94984321Y-128453711D01*
X95186289Y-128655679D01*
X95344973Y-128893167D01*
X95344974Y-128893169D01*
X95454278Y-129157052D01*
X95510000Y-129437186D01*
X95510000Y-129722814D01*
X95454278Y-130002948D01*
X95344974Y-130266831D01*
X95344973Y-130266833D01*
X95186289Y-130504321D01*
X94984321Y-130706289D01*
X94746833Y-130864973D01*
X94746832Y-130864974D01*
X94746831Y-130864974D01*
X94482948Y-130974278D01*
X94202814Y-131030000D01*
X93917186Y-131030000D01*
X93637052Y-130974278D01*
X93373169Y-130864974D01*
X93373168Y-130864974D01*
X93373167Y-130864973D01*
X93135679Y-130706289D01*
X92933711Y-130504321D01*
X92775027Y-130266833D01*
X92775026Y-130266831D01*
X92665722Y-130002948D01*
X92610000Y-129722814D01*
X92610000Y-129437186D01*
X92665722Y-129157052D01*
X92775026Y-128893169D01*
X92775027Y-128893167D01*
X92933711Y-128655679D01*
X93135679Y-128453711D01*
X93373167Y-128295027D01*
X93373169Y-128295026D01*
X93637052Y-128185722D01*
X93917186Y-128130000D01*
X94202814Y-128130000D01*
X94482948Y-128185722D01*
G37*
G36*
X137862948Y-128185722D02*
G01*
X138126831Y-128295026D01*
X138126833Y-128295027D01*
X138364321Y-128453711D01*
X138566289Y-128655679D01*
X138724973Y-128893167D01*
X138724974Y-128893169D01*
X138834278Y-129157052D01*
X138890000Y-129437186D01*
X138890000Y-129722814D01*
X138834278Y-130002948D01*
X138724974Y-130266831D01*
X138724973Y-130266833D01*
X138566289Y-130504321D01*
X138364321Y-130706289D01*
X138126833Y-130864973D01*
X138126832Y-130864974D01*
X138126831Y-130864974D01*
X137862948Y-130974278D01*
X137582814Y-131030000D01*
X137297186Y-131030000D01*
X137017052Y-130974278D01*
X136753169Y-130864974D01*
X136753168Y-130864974D01*
X136753167Y-130864973D01*
X136515679Y-130706289D01*
X136313711Y-130504321D01*
X136155027Y-130266833D01*
X136155026Y-130266831D01*
X136045722Y-130002948D01*
X135990000Y-129722814D01*
X135990000Y-129437186D01*
X136045722Y-129157052D01*
X136155026Y-128893169D01*
X136155027Y-128893167D01*
X136313711Y-128655679D01*
X136515679Y-128453711D01*
X136753167Y-128295027D01*
X136753169Y-128295026D01*
X137017052Y-128185722D01*
X137297186Y-128130000D01*
X137582814Y-128130000D01*
X137862948Y-128185722D01*
G37*
G36*
X103862948Y-128185722D02*
G01*
X104126831Y-128295026D01*
X104126833Y-128295027D01*
X104364321Y-128453711D01*
X104566289Y-128655679D01*
X104724973Y-128893167D01*
X104724974Y-128893169D01*
X104834278Y-129157052D01*
X104890000Y-129437186D01*
X104890000Y-129722814D01*
X104834278Y-130002948D01*
X104724974Y-130266831D01*
X104724973Y-130266833D01*
X104566289Y-130504321D01*
X104364321Y-130706289D01*
X104126833Y-130864973D01*
X104126832Y-130864974D01*
X104126831Y-130864974D01*
X103862948Y-130974278D01*
X103582814Y-131030000D01*
X103297186Y-131030000D01*
X103017052Y-130974278D01*
X102753169Y-130864974D01*
X102753168Y-130864974D01*
X102753167Y-130864973D01*
X102515679Y-130706289D01*
X102313711Y-130504321D01*
X102155027Y-130266833D01*
X102155026Y-130266831D01*
X102045722Y-130002948D01*
X101990000Y-129722814D01*
X101990000Y-129437186D01*
X102045722Y-129157052D01*
X102155026Y-128893169D01*
X102155027Y-128893167D01*
X102313711Y-128655679D01*
X102515679Y-128453711D01*
X102753167Y-128295027D01*
X102753169Y-128295026D01*
X103017052Y-128185722D01*
X103297186Y-128130000D01*
X103582814Y-128130000D01*
X103862948Y-128185722D01*
G37*
G36*
X111482948Y-128185722D02*
G01*
X111746831Y-128295026D01*
X111746833Y-128295027D01*
X111984321Y-128453711D01*
X112186289Y-128655679D01*
X112344973Y-128893167D01*
X112344974Y-128893169D01*
X112454278Y-129157052D01*
X112510000Y-129437186D01*
X112510000Y-129722814D01*
X112454278Y-130002948D01*
X112344974Y-130266831D01*
X112344973Y-130266833D01*
X112186289Y-130504321D01*
X111984321Y-130706289D01*
X111746833Y-130864973D01*
X111746832Y-130864974D01*
X111746831Y-130864974D01*
X111482948Y-130974278D01*
X111202814Y-131030000D01*
X110917186Y-131030000D01*
X110637052Y-130974278D01*
X110373169Y-130864974D01*
X110373168Y-130864974D01*
X110373167Y-130864973D01*
X110135679Y-130706289D01*
X109933711Y-130504321D01*
X109775027Y-130266833D01*
X109775026Y-130266831D01*
X109665722Y-130002948D01*
X109610000Y-129722814D01*
X109610000Y-129437186D01*
X109665722Y-129157052D01*
X109775026Y-128893169D01*
X109775027Y-128893167D01*
X109933711Y-128655679D01*
X110135679Y-128453711D01*
X110373167Y-128295027D01*
X110373169Y-128295026D01*
X110637052Y-128185722D01*
X110917186Y-128130000D01*
X111202814Y-128130000D01*
X111482948Y-128185722D01*
G37*
G36*
X128482948Y-128185722D02*
G01*
X128746831Y-128295026D01*
X128746833Y-128295027D01*
X128984321Y-128453711D01*
X129186289Y-128655679D01*
X129344973Y-128893167D01*
X129344974Y-128893169D01*
X129454278Y-129157052D01*
X129510000Y-129437186D01*
X129510000Y-129722814D01*
X129454278Y-130002948D01*
X129344974Y-130266831D01*
X129344973Y-130266833D01*
X129186289Y-130504321D01*
X128984321Y-130706289D01*
X128746833Y-130864973D01*
X128746832Y-130864974D01*
X128746831Y-130864974D01*
X128482948Y-130974278D01*
X128202814Y-131030000D01*
X127917186Y-131030000D01*
X127637052Y-130974278D01*
X127373169Y-130864974D01*
X127373168Y-130864974D01*
X127373167Y-130864973D01*
X127135679Y-130706289D01*
X126933711Y-130504321D01*
X126775027Y-130266833D01*
X126775026Y-130266831D01*
X126665722Y-130002948D01*
X126610000Y-129722814D01*
X126610000Y-129437186D01*
X126665722Y-129157052D01*
X126775026Y-128893169D01*
X126775027Y-128893167D01*
X126933711Y-128655679D01*
X127135679Y-128453711D01*
X127373167Y-128295027D01*
X127373169Y-128295026D01*
X127637052Y-128185722D01*
X127917186Y-128130000D01*
X128202814Y-128130000D01*
X128482948Y-128185722D01*
G37*
G36*
X145482948Y-128185722D02*
G01*
X145746831Y-128295026D01*
X145746833Y-128295027D01*
X145984321Y-128453711D01*
X146186289Y-128655679D01*
X146344973Y-128893167D01*
X146344974Y-128893169D01*
X146454278Y-129157052D01*
X146510000Y-129437186D01*
X146510000Y-129722814D01*
X146454278Y-130002948D01*
X146344974Y-130266831D01*
X146344973Y-130266833D01*
X146186289Y-130504321D01*
X145984321Y-130706289D01*
X145746833Y-130864973D01*
X145746832Y-130864974D01*
X145746831Y-130864974D01*
X145482948Y-130974278D01*
X145202814Y-131030000D01*
X144917186Y-131030000D01*
X144637052Y-130974278D01*
X144373169Y-130864974D01*
X144373168Y-130864974D01*
X144373167Y-130864973D01*
X144135679Y-130706289D01*
X143933711Y-130504321D01*
X143775027Y-130266833D01*
X143775026Y-130266831D01*
X143665722Y-130002948D01*
X143610000Y-129722814D01*
X143610000Y-129437186D01*
X143665722Y-129157052D01*
X143775026Y-128893169D01*
X143775027Y-128893167D01*
X143933711Y-128655679D01*
X144135679Y-128453711D01*
X144373167Y-128295027D01*
X144373169Y-128295026D01*
X144637052Y-128185722D01*
X144917186Y-128130000D01*
X145202814Y-128130000D01*
X145482948Y-128185722D01*
G37*
G36*
X196482948Y-128185722D02*
G01*
X196746831Y-128295026D01*
X196746833Y-128295027D01*
X196984321Y-128453711D01*
X197186289Y-128655679D01*
X197344973Y-128893167D01*
X197344974Y-128893169D01*
X197454278Y-129157052D01*
X197510000Y-129437186D01*
X197510000Y-129722814D01*
X197454278Y-130002948D01*
X197344974Y-130266831D01*
X197344973Y-130266833D01*
X197186289Y-130504321D01*
X196984321Y-130706289D01*
X196746833Y-130864973D01*
X196746832Y-130864974D01*
X196746831Y-130864974D01*
X196482948Y-130974278D01*
X196202814Y-131030000D01*
X195917186Y-131030000D01*
X195637052Y-130974278D01*
X195373169Y-130864974D01*
X195373168Y-130864974D01*
X195373167Y-130864973D01*
X195135679Y-130706289D01*
X194933711Y-130504321D01*
X194775027Y-130266833D01*
X194775026Y-130266831D01*
X194665722Y-130002948D01*
X194610000Y-129722814D01*
X194610000Y-129437186D01*
X194665722Y-129157052D01*
X194775026Y-128893169D01*
X194775027Y-128893167D01*
X194933711Y-128655679D01*
X195135679Y-128453711D01*
X195373167Y-128295027D01*
X195373169Y-128295026D01*
X195637052Y-128185722D01*
X195917186Y-128130000D01*
X196202814Y-128130000D01*
X196482948Y-128185722D01*
G37*
G36*
X188862948Y-128185722D02*
G01*
X189126831Y-128295026D01*
X189126833Y-128295027D01*
X189364321Y-128453711D01*
X189566289Y-128655679D01*
X189724973Y-128893167D01*
X189724974Y-128893169D01*
X189834278Y-129157052D01*
X189890000Y-129437186D01*
X189890000Y-129722814D01*
X189834278Y-130002948D01*
X189724974Y-130266831D01*
X189724973Y-130266833D01*
X189566289Y-130504321D01*
X189364321Y-130706289D01*
X189126833Y-130864973D01*
X189126832Y-130864974D01*
X189126831Y-130864974D01*
X188862948Y-130974278D01*
X188582814Y-131030000D01*
X188297186Y-131030000D01*
X188017052Y-130974278D01*
X187753169Y-130864974D01*
X187753168Y-130864974D01*
X187753167Y-130864973D01*
X187515679Y-130706289D01*
X187313711Y-130504321D01*
X187155027Y-130266833D01*
X187155026Y-130266831D01*
X187045722Y-130002948D01*
X186990000Y-129722814D01*
X186990000Y-129437186D01*
X187045722Y-129157052D01*
X187155026Y-128893169D01*
X187155027Y-128893167D01*
X187313711Y-128655679D01*
X187515679Y-128453711D01*
X187753167Y-128295027D01*
X187753169Y-128295026D01*
X188017052Y-128185722D01*
X188297186Y-128130000D01*
X188582814Y-128130000D01*
X188862948Y-128185722D01*
G37*
G36*
X171862948Y-128185722D02*
G01*
X172126831Y-128295026D01*
X172126833Y-128295027D01*
X172364321Y-128453711D01*
X172566289Y-128655679D01*
X172724973Y-128893167D01*
X172724974Y-128893169D01*
X172834278Y-129157052D01*
X172890000Y-129437186D01*
X172890000Y-129722814D01*
X172834278Y-130002948D01*
X172724974Y-130266831D01*
X172724973Y-130266833D01*
X172566289Y-130504321D01*
X172364321Y-130706289D01*
X172126833Y-130864973D01*
X172126832Y-130864974D01*
X172126831Y-130864974D01*
X171862948Y-130974278D01*
X171582814Y-131030000D01*
X171297186Y-131030000D01*
X171017052Y-130974278D01*
X170753169Y-130864974D01*
X170753168Y-130864974D01*
X170753167Y-130864973D01*
X170515679Y-130706289D01*
X170313711Y-130504321D01*
X170155027Y-130266833D01*
X170155026Y-130266831D01*
X170045722Y-130002948D01*
X169990000Y-129722814D01*
X169990000Y-129437186D01*
X170045722Y-129157052D01*
X170155026Y-128893169D01*
X170155027Y-128893167D01*
X170313711Y-128655679D01*
X170515679Y-128453711D01*
X170753167Y-128295027D01*
X170753169Y-128295026D01*
X171017052Y-128185722D01*
X171297186Y-128130000D01*
X171582814Y-128130000D01*
X171862948Y-128185722D01*
G37*
G36*
X179482948Y-128185722D02*
G01*
X179746831Y-128295026D01*
X179746833Y-128295027D01*
X179984321Y-128453711D01*
X180186289Y-128655679D01*
X180344973Y-128893167D01*
X180344974Y-128893169D01*
X180454278Y-129157052D01*
X180510000Y-129437186D01*
X180510000Y-129722814D01*
X180454278Y-130002948D01*
X180344974Y-130266831D01*
X180344973Y-130266833D01*
X180186289Y-130504321D01*
X179984321Y-130706289D01*
X179746833Y-130864973D01*
X179746832Y-130864974D01*
X179746831Y-130864974D01*
X179482948Y-130974278D01*
X179202814Y-131030000D01*
X178917186Y-131030000D01*
X178637052Y-130974278D01*
X178373169Y-130864974D01*
X178373168Y-130864974D01*
X178373167Y-130864973D01*
X178135679Y-130706289D01*
X177933711Y-130504321D01*
X177775027Y-130266833D01*
X177775026Y-130266831D01*
X177665722Y-130002948D01*
X177610000Y-129722814D01*
X177610000Y-129437186D01*
X177665722Y-129157052D01*
X177775026Y-128893169D01*
X177775027Y-128893167D01*
X177933711Y-128655679D01*
X178135679Y-128453711D01*
X178373167Y-128295027D01*
X178373169Y-128295026D01*
X178637052Y-128185722D01*
X178917186Y-128130000D01*
X179202814Y-128130000D01*
X179482948Y-128185722D01*
G37*
G36*
X162482948Y-128185722D02*
G01*
X162746831Y-128295026D01*
X162746833Y-128295027D01*
X162984321Y-128453711D01*
X163186289Y-128655679D01*
X163344973Y-128893167D01*
X163344974Y-128893169D01*
X163454278Y-129157052D01*
X163510000Y-129437186D01*
X163510000Y-129722814D01*
X163454278Y-130002948D01*
X163344974Y-130266831D01*
X163344973Y-130266833D01*
X163186289Y-130504321D01*
X162984321Y-130706289D01*
X162746833Y-130864973D01*
X162746832Y-130864974D01*
X162746831Y-130864974D01*
X162482948Y-130974278D01*
X162202814Y-131030000D01*
X161917186Y-131030000D01*
X161637052Y-130974278D01*
X161373169Y-130864974D01*
X161373168Y-130864974D01*
X161373167Y-130864973D01*
X161135679Y-130706289D01*
X160933711Y-130504321D01*
X160775027Y-130266833D01*
X160775026Y-130266831D01*
X160665722Y-130002948D01*
X160610000Y-129722814D01*
X160610000Y-129437186D01*
X160665722Y-129157052D01*
X160775026Y-128893169D01*
X160775027Y-128893167D01*
X160933711Y-128655679D01*
X161135679Y-128453711D01*
X161373167Y-128295027D01*
X161373169Y-128295026D01*
X161637052Y-128185722D01*
X161917186Y-128130000D01*
X162202814Y-128130000D01*
X162482948Y-128185722D01*
G37*
G36*
X154862948Y-128185722D02*
G01*
X155126831Y-128295026D01*
X155126833Y-128295027D01*
X155364321Y-128453711D01*
X155566289Y-128655679D01*
X155724973Y-128893167D01*
X155724974Y-128893169D01*
X155834278Y-129157052D01*
X155890000Y-129437186D01*
X155890000Y-129722814D01*
X155834278Y-130002948D01*
X155724974Y-130266831D01*
X155724973Y-130266833D01*
X155566289Y-130504321D01*
X155364321Y-130706289D01*
X155126833Y-130864973D01*
X155126832Y-130864974D01*
X155126831Y-130864974D01*
X154862948Y-130974278D01*
X154582814Y-131030000D01*
X154297186Y-131030000D01*
X154017052Y-130974278D01*
X153753169Y-130864974D01*
X153753168Y-130864974D01*
X153753167Y-130864973D01*
X153515679Y-130706289D01*
X153313711Y-130504321D01*
X153155027Y-130266833D01*
X153155026Y-130266831D01*
X153045722Y-130002948D01*
X152990000Y-129722814D01*
X152990000Y-129437186D01*
X153045722Y-129157052D01*
X153155026Y-128893169D01*
X153155027Y-128893167D01*
X153313711Y-128655679D01*
X153515679Y-128453711D01*
X153753167Y-128295027D01*
X153753169Y-128295026D01*
X154017052Y-128185722D01*
X154297186Y-128130000D01*
X154582814Y-128130000D01*
X154862948Y-128185722D01*
G37*
G36*
X120862948Y-128185722D02*
G01*
X121126831Y-128295026D01*
X121126833Y-128295027D01*
X121364321Y-128453711D01*
X121566289Y-128655679D01*
X121724973Y-128893167D01*
X121724974Y-128893169D01*
X121834278Y-129157052D01*
X121890000Y-129437186D01*
X121890000Y-129722814D01*
X121834278Y-130002948D01*
X121724974Y-130266831D01*
X121724973Y-130266833D01*
X121566289Y-130504321D01*
X121364321Y-130706289D01*
X121126833Y-130864973D01*
X121126832Y-130864974D01*
X121126831Y-130864974D01*
X120862948Y-130974278D01*
X120582814Y-131030000D01*
X120297186Y-131030000D01*
X120017052Y-130974278D01*
X119753169Y-130864974D01*
X119753168Y-130864974D01*
X119753167Y-130864973D01*
X119515679Y-130706289D01*
X119313711Y-130504321D01*
X119155027Y-130266833D01*
X119155026Y-130266831D01*
X119045722Y-130002948D01*
X118990000Y-129722814D01*
X118990000Y-129437186D01*
X119045722Y-129157052D01*
X119155026Y-128893169D01*
X119155027Y-128893167D01*
X119313711Y-128655679D01*
X119515679Y-128453711D01*
X119753167Y-128295027D01*
X119753169Y-128295026D01*
X120017052Y-128185722D01*
X120297186Y-128130000D01*
X120582814Y-128130000D01*
X120862948Y-128185722D01*
G37*
G36*
X137862948Y-123105722D02*
G01*
X138008568Y-123166040D01*
X138126833Y-123215027D01*
X138364321Y-123373711D01*
X138566289Y-123575679D01*
X138724973Y-123813167D01*
X138724974Y-123813169D01*
X138834278Y-124077052D01*
X138890000Y-124357186D01*
X138890000Y-124642814D01*
X138834278Y-124922948D01*
X138724974Y-125186831D01*
X138724973Y-125186833D01*
X138566289Y-125424321D01*
X138364321Y-125626289D01*
X138126833Y-125784973D01*
X138126832Y-125784974D01*
X138126831Y-125784974D01*
X137862948Y-125894278D01*
X137582814Y-125950000D01*
X137297186Y-125950000D01*
X137017052Y-125894278D01*
X136753169Y-125784974D01*
X136753168Y-125784974D01*
X136753167Y-125784973D01*
X136515679Y-125626289D01*
X136313711Y-125424321D01*
X136155027Y-125186833D01*
X136155026Y-125186831D01*
X136045722Y-124922948D01*
X135990000Y-124642814D01*
X135990000Y-124357186D01*
X136045722Y-124077052D01*
X136155026Y-123813169D01*
X136155027Y-123813167D01*
X136313711Y-123575679D01*
X136515679Y-123373711D01*
X136753167Y-123215027D01*
X136871432Y-123166040D01*
X137017052Y-123105722D01*
X137297186Y-123050000D01*
X137582814Y-123050000D01*
X137862948Y-123105722D01*
G37*
G36*
X128482948Y-123105722D02*
G01*
X128628568Y-123166040D01*
X128746833Y-123215027D01*
X128984321Y-123373711D01*
X129186289Y-123575679D01*
X129344973Y-123813167D01*
X129344974Y-123813169D01*
X129454278Y-124077052D01*
X129510000Y-124357186D01*
X129510000Y-124642814D01*
X129454278Y-124922948D01*
X129344974Y-125186831D01*
X129344973Y-125186833D01*
X129186289Y-125424321D01*
X128984321Y-125626289D01*
X128746833Y-125784973D01*
X128746832Y-125784974D01*
X128746831Y-125784974D01*
X128482948Y-125894278D01*
X128202814Y-125950000D01*
X127917186Y-125950000D01*
X127637052Y-125894278D01*
X127373169Y-125784974D01*
X127373168Y-125784974D01*
X127373167Y-125784973D01*
X127135679Y-125626289D01*
X126933711Y-125424321D01*
X126775027Y-125186833D01*
X126775026Y-125186831D01*
X126665722Y-124922948D01*
X126610000Y-124642814D01*
X126610000Y-124357186D01*
X126665722Y-124077052D01*
X126775026Y-123813169D01*
X126775027Y-123813167D01*
X126933711Y-123575679D01*
X127135679Y-123373711D01*
X127373167Y-123215027D01*
X127491432Y-123166040D01*
X127637052Y-123105722D01*
X127917186Y-123050000D01*
X128202814Y-123050000D01*
X128482948Y-123105722D01*
G37*
G36*
X111482948Y-123105722D02*
G01*
X111628568Y-123166040D01*
X111746833Y-123215027D01*
X111984321Y-123373711D01*
X112186289Y-123575679D01*
X112344973Y-123813167D01*
X112344974Y-123813169D01*
X112454278Y-124077052D01*
X112510000Y-124357186D01*
X112510000Y-124642814D01*
X112454278Y-124922948D01*
X112344974Y-125186831D01*
X112344973Y-125186833D01*
X112186289Y-125424321D01*
X111984321Y-125626289D01*
X111746833Y-125784973D01*
X111746832Y-125784974D01*
X111746831Y-125784974D01*
X111482948Y-125894278D01*
X111202814Y-125950000D01*
X110917186Y-125950000D01*
X110637052Y-125894278D01*
X110373169Y-125784974D01*
X110373168Y-125784974D01*
X110373167Y-125784973D01*
X110135679Y-125626289D01*
X109933711Y-125424321D01*
X109775027Y-125186833D01*
X109775026Y-125186831D01*
X109665722Y-124922948D01*
X109610000Y-124642814D01*
X109610000Y-124357186D01*
X109665722Y-124077052D01*
X109775026Y-123813169D01*
X109775027Y-123813167D01*
X109933711Y-123575679D01*
X110135679Y-123373711D01*
X110373167Y-123215027D01*
X110491432Y-123166040D01*
X110637052Y-123105722D01*
X110917186Y-123050000D01*
X111202814Y-123050000D01*
X111482948Y-123105722D01*
G37*
G36*
X94482948Y-123105722D02*
G01*
X94628568Y-123166040D01*
X94746833Y-123215027D01*
X94984321Y-123373711D01*
X95186289Y-123575679D01*
X95344973Y-123813167D01*
X95344974Y-123813169D01*
X95454278Y-124077052D01*
X95510000Y-124357186D01*
X95510000Y-124642814D01*
X95454278Y-124922948D01*
X95344974Y-125186831D01*
X95344973Y-125186833D01*
X95186289Y-125424321D01*
X94984321Y-125626289D01*
X94746833Y-125784973D01*
X94746832Y-125784974D01*
X94746831Y-125784974D01*
X94482948Y-125894278D01*
X94202814Y-125950000D01*
X93917186Y-125950000D01*
X93637052Y-125894278D01*
X93373169Y-125784974D01*
X93373168Y-125784974D01*
X93373167Y-125784973D01*
X93135679Y-125626289D01*
X92933711Y-125424321D01*
X92775027Y-125186833D01*
X92775026Y-125186831D01*
X92665722Y-124922948D01*
X92610000Y-124642814D01*
X92610000Y-124357186D01*
X92665722Y-124077052D01*
X92775026Y-123813169D01*
X92775027Y-123813167D01*
X92933711Y-123575679D01*
X93135679Y-123373711D01*
X93373167Y-123215027D01*
X93491432Y-123166040D01*
X93637052Y-123105722D01*
X93917186Y-123050000D01*
X94202814Y-123050000D01*
X94482948Y-123105722D01*
G37*
G36*
X154862948Y-123105722D02*
G01*
X155008568Y-123166040D01*
X155126833Y-123215027D01*
X155364321Y-123373711D01*
X155566289Y-123575679D01*
X155724973Y-123813167D01*
X155724974Y-123813169D01*
X155834278Y-124077052D01*
X155890000Y-124357186D01*
X155890000Y-124642814D01*
X155834278Y-124922948D01*
X155724974Y-125186831D01*
X155724973Y-125186833D01*
X155566289Y-125424321D01*
X155364321Y-125626289D01*
X155126833Y-125784973D01*
X155126832Y-125784974D01*
X155126831Y-125784974D01*
X154862948Y-125894278D01*
X154582814Y-125950000D01*
X154297186Y-125950000D01*
X154017052Y-125894278D01*
X153753169Y-125784974D01*
X153753168Y-125784974D01*
X153753167Y-125784973D01*
X153515679Y-125626289D01*
X153313711Y-125424321D01*
X153155027Y-125186833D01*
X153155026Y-125186831D01*
X153045722Y-124922948D01*
X152990000Y-124642814D01*
X152990000Y-124357186D01*
X153045722Y-124077052D01*
X153155026Y-123813169D01*
X153155027Y-123813167D01*
X153313711Y-123575679D01*
X153515679Y-123373711D01*
X153753167Y-123215027D01*
X153871432Y-123166040D01*
X154017052Y-123105722D01*
X154297186Y-123050000D01*
X154582814Y-123050000D01*
X154862948Y-123105722D01*
G37*
G36*
X162482948Y-123105722D02*
G01*
X162628568Y-123166040D01*
X162746833Y-123215027D01*
X162984321Y-123373711D01*
X163186289Y-123575679D01*
X163344973Y-123813167D01*
X163344974Y-123813169D01*
X163454278Y-124077052D01*
X163510000Y-124357186D01*
X163510000Y-124642814D01*
X163454278Y-124922948D01*
X163344974Y-125186831D01*
X163344973Y-125186833D01*
X163186289Y-125424321D01*
X162984321Y-125626289D01*
X162746833Y-125784973D01*
X162746832Y-125784974D01*
X162746831Y-125784974D01*
X162482948Y-125894278D01*
X162202814Y-125950000D01*
X161917186Y-125950000D01*
X161637052Y-125894278D01*
X161373169Y-125784974D01*
X161373168Y-125784974D01*
X161373167Y-125784973D01*
X161135679Y-125626289D01*
X160933711Y-125424321D01*
X160775027Y-125186833D01*
X160775026Y-125186831D01*
X160665722Y-124922948D01*
X160610000Y-124642814D01*
X160610000Y-124357186D01*
X160665722Y-124077052D01*
X160775026Y-123813169D01*
X160775027Y-123813167D01*
X160933711Y-123575679D01*
X161135679Y-123373711D01*
X161373167Y-123215027D01*
X161491432Y-123166040D01*
X161637052Y-123105722D01*
X161917186Y-123050000D01*
X162202814Y-123050000D01*
X162482948Y-123105722D01*
G37*
G36*
X179482948Y-123105722D02*
G01*
X179628568Y-123166040D01*
X179746833Y-123215027D01*
X179984321Y-123373711D01*
X180186289Y-123575679D01*
X180344973Y-123813167D01*
X180344974Y-123813169D01*
X180454278Y-124077052D01*
X180510000Y-124357186D01*
X180510000Y-124642814D01*
X180454278Y-124922948D01*
X180344974Y-125186831D01*
X180344973Y-125186833D01*
X180186289Y-125424321D01*
X179984321Y-125626289D01*
X179746833Y-125784973D01*
X179746832Y-125784974D01*
X179746831Y-125784974D01*
X179482948Y-125894278D01*
X179202814Y-125950000D01*
X178917186Y-125950000D01*
X178637052Y-125894278D01*
X178373169Y-125784974D01*
X178373168Y-125784974D01*
X178373167Y-125784973D01*
X178135679Y-125626289D01*
X177933711Y-125424321D01*
X177775027Y-125186833D01*
X177775026Y-125186831D01*
X177665722Y-124922948D01*
X177610000Y-124642814D01*
X177610000Y-124357186D01*
X177665722Y-124077052D01*
X177775026Y-123813169D01*
X177775027Y-123813167D01*
X177933711Y-123575679D01*
X178135679Y-123373711D01*
X178373167Y-123215027D01*
X178491432Y-123166040D01*
X178637052Y-123105722D01*
X178917186Y-123050000D01*
X179202814Y-123050000D01*
X179482948Y-123105722D01*
G37*
G36*
X171862948Y-123105722D02*
G01*
X172008568Y-123166040D01*
X172126833Y-123215027D01*
X172364321Y-123373711D01*
X172566289Y-123575679D01*
X172724973Y-123813167D01*
X172724974Y-123813169D01*
X172834278Y-124077052D01*
X172890000Y-124357186D01*
X172890000Y-124642814D01*
X172834278Y-124922948D01*
X172724974Y-125186831D01*
X172724973Y-125186833D01*
X172566289Y-125424321D01*
X172364321Y-125626289D01*
X172126833Y-125784973D01*
X172126832Y-125784974D01*
X172126831Y-125784974D01*
X171862948Y-125894278D01*
X171582814Y-125950000D01*
X171297186Y-125950000D01*
X171017052Y-125894278D01*
X170753169Y-125784974D01*
X170753168Y-125784974D01*
X170753167Y-125784973D01*
X170515679Y-125626289D01*
X170313711Y-125424321D01*
X170155027Y-125186833D01*
X170155026Y-125186831D01*
X170045722Y-124922948D01*
X169990000Y-124642814D01*
X169990000Y-124357186D01*
X170045722Y-124077052D01*
X170155026Y-123813169D01*
X170155027Y-123813167D01*
X170313711Y-123575679D01*
X170515679Y-123373711D01*
X170753167Y-123215027D01*
X170871432Y-123166040D01*
X171017052Y-123105722D01*
X171297186Y-123050000D01*
X171582814Y-123050000D01*
X171862948Y-123105722D01*
G37*
G36*
X188862948Y-123105722D02*
G01*
X189008568Y-123166040D01*
X189126833Y-123215027D01*
X189364321Y-123373711D01*
X189566289Y-123575679D01*
X189724973Y-123813167D01*
X189724974Y-123813169D01*
X189834278Y-124077052D01*
X189890000Y-124357186D01*
X189890000Y-124642814D01*
X189834278Y-124922948D01*
X189724974Y-125186831D01*
X189724973Y-125186833D01*
X189566289Y-125424321D01*
X189364321Y-125626289D01*
X189126833Y-125784973D01*
X189126832Y-125784974D01*
X189126831Y-125784974D01*
X188862948Y-125894278D01*
X188582814Y-125950000D01*
X188297186Y-125950000D01*
X188017052Y-125894278D01*
X187753169Y-125784974D01*
X187753168Y-125784974D01*
X187753167Y-125784973D01*
X187515679Y-125626289D01*
X187313711Y-125424321D01*
X187155027Y-125186833D01*
X187155026Y-125186831D01*
X187045722Y-124922948D01*
X186990000Y-124642814D01*
X186990000Y-124357186D01*
X187045722Y-124077052D01*
X187155026Y-123813169D01*
X187155027Y-123813167D01*
X187313711Y-123575679D01*
X187515679Y-123373711D01*
X187753167Y-123215027D01*
X187871432Y-123166040D01*
X188017052Y-123105722D01*
X188297186Y-123050000D01*
X188582814Y-123050000D01*
X188862948Y-123105722D01*
G37*
G36*
X196482948Y-123105722D02*
G01*
X196628568Y-123166040D01*
X196746833Y-123215027D01*
X196984321Y-123373711D01*
X197186289Y-123575679D01*
X197344973Y-123813167D01*
X197344974Y-123813169D01*
X197454278Y-124077052D01*
X197510000Y-124357186D01*
X197510000Y-124642814D01*
X197454278Y-124922948D01*
X197344974Y-125186831D01*
X197344973Y-125186833D01*
X197186289Y-125424321D01*
X196984321Y-125626289D01*
X196746833Y-125784973D01*
X196746832Y-125784974D01*
X196746831Y-125784974D01*
X196482948Y-125894278D01*
X196202814Y-125950000D01*
X195917186Y-125950000D01*
X195637052Y-125894278D01*
X195373169Y-125784974D01*
X195373168Y-125784974D01*
X195373167Y-125784973D01*
X195135679Y-125626289D01*
X194933711Y-125424321D01*
X194775027Y-125186833D01*
X194775026Y-125186831D01*
X194665722Y-124922948D01*
X194610000Y-124642814D01*
X194610000Y-124357186D01*
X194665722Y-124077052D01*
X194775026Y-123813169D01*
X194775027Y-123813167D01*
X194933711Y-123575679D01*
X195135679Y-123373711D01*
X195373167Y-123215027D01*
X195491432Y-123166040D01*
X195637052Y-123105722D01*
X195917186Y-123050000D01*
X196202814Y-123050000D01*
X196482948Y-123105722D01*
G37*
G36*
X103862948Y-123105722D02*
G01*
X104008568Y-123166040D01*
X104126833Y-123215027D01*
X104364321Y-123373711D01*
X104566289Y-123575679D01*
X104724973Y-123813167D01*
X104724974Y-123813169D01*
X104834278Y-124077052D01*
X104890000Y-124357186D01*
X104890000Y-124642814D01*
X104834278Y-124922948D01*
X104724974Y-125186831D01*
X104724973Y-125186833D01*
X104566289Y-125424321D01*
X104364321Y-125626289D01*
X104126833Y-125784973D01*
X104126832Y-125784974D01*
X104126831Y-125784974D01*
X103862948Y-125894278D01*
X103582814Y-125950000D01*
X103297186Y-125950000D01*
X103017052Y-125894278D01*
X102753169Y-125784974D01*
X102753168Y-125784974D01*
X102753167Y-125784973D01*
X102515679Y-125626289D01*
X102313711Y-125424321D01*
X102155027Y-125186833D01*
X102155026Y-125186831D01*
X102045722Y-124922948D01*
X101990000Y-124642814D01*
X101990000Y-124357186D01*
X102045722Y-124077052D01*
X102155026Y-123813169D01*
X102155027Y-123813167D01*
X102313711Y-123575679D01*
X102515679Y-123373711D01*
X102753167Y-123215027D01*
X102871432Y-123166040D01*
X103017052Y-123105722D01*
X103297186Y-123050000D01*
X103582814Y-123050000D01*
X103862948Y-123105722D01*
G37*
G36*
X86862948Y-123105722D02*
G01*
X87008568Y-123166040D01*
X87126833Y-123215027D01*
X87364321Y-123373711D01*
X87566289Y-123575679D01*
X87724973Y-123813167D01*
X87724974Y-123813169D01*
X87834278Y-124077052D01*
X87890000Y-124357186D01*
X87890000Y-124642814D01*
X87834278Y-124922948D01*
X87724974Y-125186831D01*
X87724973Y-125186833D01*
X87566289Y-125424321D01*
X87364321Y-125626289D01*
X87126833Y-125784973D01*
X87126832Y-125784974D01*
X87126831Y-125784974D01*
X86862948Y-125894278D01*
X86582814Y-125950000D01*
X86297186Y-125950000D01*
X86017052Y-125894278D01*
X85753169Y-125784974D01*
X85753168Y-125784974D01*
X85753167Y-125784973D01*
X85515679Y-125626289D01*
X85313711Y-125424321D01*
X85155027Y-125186833D01*
X85155026Y-125186831D01*
X85045722Y-124922948D01*
X84990000Y-124642814D01*
X84990000Y-124357186D01*
X85045722Y-124077052D01*
X85155026Y-123813169D01*
X85155027Y-123813167D01*
X85313711Y-123575679D01*
X85515679Y-123373711D01*
X85753167Y-123215027D01*
X85871432Y-123166040D01*
X86017052Y-123105722D01*
X86297186Y-123050000D01*
X86582814Y-123050000D01*
X86862948Y-123105722D01*
G37*
G36*
X120862948Y-123105722D02*
G01*
X121008568Y-123166040D01*
X121126833Y-123215027D01*
X121364321Y-123373711D01*
X121566289Y-123575679D01*
X121724973Y-123813167D01*
X121724974Y-123813169D01*
X121834278Y-124077052D01*
X121890000Y-124357186D01*
X121890000Y-124642814D01*
X121834278Y-124922948D01*
X121724974Y-125186831D01*
X121724973Y-125186833D01*
X121566289Y-125424321D01*
X121364321Y-125626289D01*
X121126833Y-125784973D01*
X121126832Y-125784974D01*
X121126831Y-125784974D01*
X120862948Y-125894278D01*
X120582814Y-125950000D01*
X120297186Y-125950000D01*
X120017052Y-125894278D01*
X119753169Y-125784974D01*
X119753168Y-125784974D01*
X119753167Y-125784973D01*
X119515679Y-125626289D01*
X119313711Y-125424321D01*
X119155027Y-125186833D01*
X119155026Y-125186831D01*
X119045722Y-124922948D01*
X118990000Y-124642814D01*
X118990000Y-124357186D01*
X119045722Y-124077052D01*
X119155026Y-123813169D01*
X119155027Y-123813167D01*
X119313711Y-123575679D01*
X119515679Y-123373711D01*
X119753167Y-123215027D01*
X119871432Y-123166040D01*
X120017052Y-123105722D01*
X120297186Y-123050000D01*
X120582814Y-123050000D01*
X120862948Y-123105722D01*
G37*
G36*
X145482948Y-123105722D02*
G01*
X145628568Y-123166040D01*
X145746833Y-123215027D01*
X145984321Y-123373711D01*
X146186289Y-123575679D01*
X146344973Y-123813167D01*
X146344974Y-123813169D01*
X146454278Y-124077052D01*
X146510000Y-124357186D01*
X146510000Y-124642814D01*
X146454278Y-124922948D01*
X146344974Y-125186831D01*
X146344973Y-125186833D01*
X146186289Y-125424321D01*
X145984321Y-125626289D01*
X145746833Y-125784973D01*
X145746832Y-125784974D01*
X145746831Y-125784974D01*
X145482948Y-125894278D01*
X145202814Y-125950000D01*
X144917186Y-125950000D01*
X144637052Y-125894278D01*
X144373169Y-125784974D01*
X144373168Y-125784974D01*
X144373167Y-125784973D01*
X144135679Y-125626289D01*
X143933711Y-125424321D01*
X143775027Y-125186833D01*
X143775026Y-125186831D01*
X143665722Y-124922948D01*
X143610000Y-124642814D01*
X143610000Y-124357186D01*
X143665722Y-124077052D01*
X143775026Y-123813169D01*
X143775027Y-123813167D01*
X143933711Y-123575679D01*
X144135679Y-123373711D01*
X144373167Y-123215027D01*
X144491432Y-123166040D01*
X144637052Y-123105722D01*
X144917186Y-123050000D01*
X145202814Y-123050000D01*
X145482948Y-123105722D01*
G37*
G36*
X66212855Y-120646030D02*
G01*
X66476679Y-120755310D01*
X66476681Y-120755311D01*
X66714117Y-120913960D01*
X66916040Y-121115883D01*
X67074689Y-121353319D01*
X67074690Y-121353321D01*
X67183970Y-121617145D01*
X67239680Y-121897218D01*
X67239680Y-122182782D01*
X67183970Y-122462855D01*
X67074690Y-122726679D01*
X67074689Y-122726681D01*
X66916040Y-122964117D01*
X66714117Y-123166040D01*
X66476681Y-123324689D01*
X66476680Y-123324690D01*
X66476679Y-123324690D01*
X66212855Y-123433970D01*
X65932782Y-123489680D01*
X65647218Y-123489680D01*
X65367145Y-123433970D01*
X65103321Y-123324690D01*
X65103320Y-123324690D01*
X65103319Y-123324689D01*
X64865883Y-123166040D01*
X64663960Y-122964117D01*
X64505311Y-122726681D01*
X64505310Y-122726679D01*
X64396030Y-122462855D01*
X64340320Y-122182782D01*
X64340320Y-121897218D01*
X64396030Y-121617145D01*
X64505310Y-121353321D01*
X64505311Y-121353319D01*
X64663960Y-121115883D01*
X64865883Y-120913960D01*
X65103319Y-120755311D01*
X65103321Y-120755310D01*
X65367145Y-120646030D01*
X65647218Y-120590320D01*
X65932782Y-120590320D01*
X66212855Y-120646030D01*
G37*
G36*
X63599877Y-118346605D02*
G01*
X63799875Y-118429447D01*
X63818172Y-118437026D01*
X64014630Y-118568295D01*
X64181705Y-118735370D01*
X64312975Y-118931830D01*
X64403395Y-119150123D01*
X64449490Y-119381859D01*
X64449490Y-119618141D01*
X64403395Y-119849877D01*
X64312975Y-120068170D01*
X64312974Y-120068172D01*
X64181705Y-120264630D01*
X64014630Y-120431705D01*
X63818172Y-120562974D01*
X63818171Y-120562975D01*
X63818170Y-120562975D01*
X63599877Y-120653395D01*
X63368141Y-120699490D01*
X63131859Y-120699490D01*
X62900123Y-120653395D01*
X62681830Y-120562975D01*
X62681829Y-120562975D01*
X62681828Y-120562974D01*
X62485370Y-120431705D01*
X62318295Y-120264630D01*
X62187026Y-120068172D01*
X62187025Y-120068170D01*
X62096605Y-119849877D01*
X62050510Y-119618141D01*
X62050510Y-119381859D01*
X62096605Y-119150123D01*
X62187025Y-118931830D01*
X62318295Y-118735370D01*
X62485370Y-118568295D01*
X62681828Y-118437026D01*
X62700125Y-118429447D01*
X62900123Y-118346605D01*
X63131859Y-118300510D01*
X63368141Y-118300510D01*
X63599877Y-118346605D01*
G37*
G36*
X66212855Y-115566030D02*
G01*
X66476679Y-115675310D01*
X66476681Y-115675311D01*
X66714117Y-115833960D01*
X66916040Y-116035883D01*
X67074689Y-116273319D01*
X67074690Y-116273321D01*
X67183970Y-116537145D01*
X67239680Y-116817218D01*
X67239680Y-117102782D01*
X67183970Y-117382855D01*
X67107764Y-117566831D01*
X67074689Y-117646681D01*
X66916040Y-117884117D01*
X66714117Y-118086040D01*
X66476681Y-118244689D01*
X66476680Y-118244690D01*
X66476679Y-118244690D01*
X66212855Y-118353970D01*
X65932782Y-118409680D01*
X65647218Y-118409680D01*
X65367145Y-118353970D01*
X65103321Y-118244690D01*
X65103320Y-118244690D01*
X65103319Y-118244689D01*
X64865883Y-118086040D01*
X64663960Y-117884117D01*
X64505311Y-117646681D01*
X64472236Y-117566831D01*
X64396030Y-117382855D01*
X64340320Y-117102782D01*
X64340320Y-116817218D01*
X64396030Y-116537145D01*
X64505310Y-116273321D01*
X64505311Y-116273319D01*
X64663960Y-116035883D01*
X64865883Y-115833960D01*
X65103319Y-115675311D01*
X65103321Y-115675310D01*
X65367145Y-115566030D01*
X65647218Y-115510320D01*
X65932782Y-115510320D01*
X66212855Y-115566030D01*
G37*
G36*
X86862948Y-115485722D02*
G01*
X87126831Y-115595026D01*
X87126833Y-115595027D01*
X87364321Y-115753711D01*
X87566289Y-115955679D01*
X87619879Y-116035883D01*
X87724974Y-116193169D01*
X87834278Y-116457052D01*
X87890000Y-116737186D01*
X87890000Y-117022814D01*
X87834278Y-117302948D01*
X87801179Y-117382855D01*
X87724973Y-117566833D01*
X87566289Y-117804321D01*
X87364321Y-118006289D01*
X87126833Y-118164973D01*
X87126832Y-118164974D01*
X87126831Y-118164974D01*
X86862948Y-118274278D01*
X86582814Y-118330000D01*
X86297186Y-118330000D01*
X86017052Y-118274278D01*
X85753169Y-118164974D01*
X85753168Y-118164974D01*
X85753167Y-118164973D01*
X85515679Y-118006289D01*
X85313711Y-117804321D01*
X85155027Y-117566833D01*
X85078821Y-117382855D01*
X85045722Y-117302948D01*
X84990000Y-117022814D01*
X84990000Y-116737186D01*
X85045722Y-116457052D01*
X85155026Y-116193169D01*
X85260121Y-116035883D01*
X85313711Y-115955679D01*
X85515679Y-115753711D01*
X85753167Y-115595027D01*
X85753169Y-115595026D01*
X86017052Y-115485722D01*
X86297186Y-115430000D01*
X86582814Y-115430000D01*
X86862948Y-115485722D01*
G37*
G36*
X94482948Y-115485722D02*
G01*
X94746831Y-115595026D01*
X94746833Y-115595027D01*
X94984321Y-115753711D01*
X95186289Y-115955679D01*
X95239879Y-116035883D01*
X95344974Y-116193169D01*
X95454278Y-116457052D01*
X95510000Y-116737186D01*
X95510000Y-117022814D01*
X95454278Y-117302948D01*
X95421179Y-117382855D01*
X95344973Y-117566833D01*
X95186289Y-117804321D01*
X94984321Y-118006289D01*
X94746833Y-118164973D01*
X94746832Y-118164974D01*
X94746831Y-118164974D01*
X94482948Y-118274278D01*
X94202814Y-118330000D01*
X93917186Y-118330000D01*
X93637052Y-118274278D01*
X93373169Y-118164974D01*
X93373168Y-118164974D01*
X93373167Y-118164973D01*
X93135679Y-118006289D01*
X92933711Y-117804321D01*
X92775027Y-117566833D01*
X92698821Y-117382855D01*
X92665722Y-117302948D01*
X92610000Y-117022814D01*
X92610000Y-116737186D01*
X92665722Y-116457052D01*
X92775026Y-116193169D01*
X92880121Y-116035883D01*
X92933711Y-115955679D01*
X93135679Y-115753711D01*
X93373167Y-115595027D01*
X93373169Y-115595026D01*
X93637052Y-115485722D01*
X93917186Y-115430000D01*
X94202814Y-115430000D01*
X94482948Y-115485722D01*
G37*
G36*
X154862948Y-115485722D02*
G01*
X155126831Y-115595026D01*
X155126833Y-115595027D01*
X155364321Y-115753711D01*
X155566289Y-115955679D01*
X155619879Y-116035883D01*
X155724974Y-116193169D01*
X155834278Y-116457052D01*
X155890000Y-116737186D01*
X155890000Y-117022814D01*
X155834278Y-117302948D01*
X155801179Y-117382855D01*
X155724973Y-117566833D01*
X155566289Y-117804321D01*
X155364321Y-118006289D01*
X155126833Y-118164973D01*
X155126832Y-118164974D01*
X155126831Y-118164974D01*
X154862948Y-118274278D01*
X154582814Y-118330000D01*
X154297186Y-118330000D01*
X154017052Y-118274278D01*
X153753169Y-118164974D01*
X153753168Y-118164974D01*
X153753167Y-118164973D01*
X153515679Y-118006289D01*
X153313711Y-117804321D01*
X153155027Y-117566833D01*
X153078821Y-117382855D01*
X153045722Y-117302948D01*
X152990000Y-117022814D01*
X152990000Y-116737186D01*
X153045722Y-116457052D01*
X153155026Y-116193169D01*
X153260121Y-116035883D01*
X153313711Y-115955679D01*
X153515679Y-115753711D01*
X153753167Y-115595027D01*
X153753169Y-115595026D01*
X154017052Y-115485722D01*
X154297186Y-115430000D01*
X154582814Y-115430000D01*
X154862948Y-115485722D01*
G37*
G36*
X162482948Y-115485722D02*
G01*
X162746831Y-115595026D01*
X162746833Y-115595027D01*
X162984321Y-115753711D01*
X163186289Y-115955679D01*
X163239879Y-116035883D01*
X163344974Y-116193169D01*
X163454278Y-116457052D01*
X163510000Y-116737186D01*
X163510000Y-117022814D01*
X163454278Y-117302948D01*
X163421179Y-117382855D01*
X163344973Y-117566833D01*
X163186289Y-117804321D01*
X162984321Y-118006289D01*
X162746833Y-118164973D01*
X162746832Y-118164974D01*
X162746831Y-118164974D01*
X162482948Y-118274278D01*
X162202814Y-118330000D01*
X161917186Y-118330000D01*
X161637052Y-118274278D01*
X161373169Y-118164974D01*
X161373168Y-118164974D01*
X161373167Y-118164973D01*
X161135679Y-118006289D01*
X160933711Y-117804321D01*
X160775027Y-117566833D01*
X160698821Y-117382855D01*
X160665722Y-117302948D01*
X160610000Y-117022814D01*
X160610000Y-116737186D01*
X160665722Y-116457052D01*
X160775026Y-116193169D01*
X160880121Y-116035883D01*
X160933711Y-115955679D01*
X161135679Y-115753711D01*
X161373167Y-115595027D01*
X161373169Y-115595026D01*
X161637052Y-115485722D01*
X161917186Y-115430000D01*
X162202814Y-115430000D01*
X162482948Y-115485722D01*
G37*
G36*
X171862948Y-115485722D02*
G01*
X172126831Y-115595026D01*
X172126833Y-115595027D01*
X172364321Y-115753711D01*
X172566289Y-115955679D01*
X172619879Y-116035883D01*
X172724974Y-116193169D01*
X172834278Y-116457052D01*
X172890000Y-116737186D01*
X172890000Y-117022814D01*
X172834278Y-117302948D01*
X172801179Y-117382855D01*
X172724973Y-117566833D01*
X172566289Y-117804321D01*
X172364321Y-118006289D01*
X172126833Y-118164973D01*
X172126832Y-118164974D01*
X172126831Y-118164974D01*
X171862948Y-118274278D01*
X171582814Y-118330000D01*
X171297186Y-118330000D01*
X171017052Y-118274278D01*
X170753169Y-118164974D01*
X170753168Y-118164974D01*
X170753167Y-118164973D01*
X170515679Y-118006289D01*
X170313711Y-117804321D01*
X170155027Y-117566833D01*
X170078821Y-117382855D01*
X170045722Y-117302948D01*
X169990000Y-117022814D01*
X169990000Y-116737186D01*
X170045722Y-116457052D01*
X170155026Y-116193169D01*
X170260121Y-116035883D01*
X170313711Y-115955679D01*
X170515679Y-115753711D01*
X170753167Y-115595027D01*
X170753169Y-115595026D01*
X171017052Y-115485722D01*
X171297186Y-115430000D01*
X171582814Y-115430000D01*
X171862948Y-115485722D01*
G37*
G36*
X179482948Y-115485722D02*
G01*
X179746831Y-115595026D01*
X179746833Y-115595027D01*
X179984321Y-115753711D01*
X180186289Y-115955679D01*
X180239879Y-116035883D01*
X180344974Y-116193169D01*
X180454278Y-116457052D01*
X180510000Y-116737186D01*
X180510000Y-117022814D01*
X180454278Y-117302948D01*
X180421179Y-117382855D01*
X180344973Y-117566833D01*
X180186289Y-117804321D01*
X179984321Y-118006289D01*
X179746833Y-118164973D01*
X179746832Y-118164974D01*
X179746831Y-118164974D01*
X179482948Y-118274278D01*
X179202814Y-118330000D01*
X178917186Y-118330000D01*
X178637052Y-118274278D01*
X178373169Y-118164974D01*
X178373168Y-118164974D01*
X178373167Y-118164973D01*
X178135679Y-118006289D01*
X177933711Y-117804321D01*
X177775027Y-117566833D01*
X177698821Y-117382855D01*
X177665722Y-117302948D01*
X177610000Y-117022814D01*
X177610000Y-116737186D01*
X177665722Y-116457052D01*
X177775026Y-116193169D01*
X177880121Y-116035883D01*
X177933711Y-115955679D01*
X178135679Y-115753711D01*
X178373167Y-115595027D01*
X178373169Y-115595026D01*
X178637052Y-115485722D01*
X178917186Y-115430000D01*
X179202814Y-115430000D01*
X179482948Y-115485722D01*
G37*
G36*
X188862948Y-115485722D02*
G01*
X189126831Y-115595026D01*
X189126833Y-115595027D01*
X189364321Y-115753711D01*
X189566289Y-115955679D01*
X189619879Y-116035883D01*
X189724974Y-116193169D01*
X189834278Y-116457052D01*
X189890000Y-116737186D01*
X189890000Y-117022814D01*
X189834278Y-117302948D01*
X189801179Y-117382855D01*
X189724973Y-117566833D01*
X189566289Y-117804321D01*
X189364321Y-118006289D01*
X189126833Y-118164973D01*
X189126832Y-118164974D01*
X189126831Y-118164974D01*
X188862948Y-118274278D01*
X188582814Y-118330000D01*
X188297186Y-118330000D01*
X188017052Y-118274278D01*
X187753169Y-118164974D01*
X187753168Y-118164974D01*
X187753167Y-118164973D01*
X187515679Y-118006289D01*
X187313711Y-117804321D01*
X187155027Y-117566833D01*
X187078821Y-117382855D01*
X187045722Y-117302948D01*
X186990000Y-117022814D01*
X186990000Y-116737186D01*
X187045722Y-116457052D01*
X187155026Y-116193169D01*
X187260121Y-116035883D01*
X187313711Y-115955679D01*
X187515679Y-115753711D01*
X187753167Y-115595027D01*
X187753169Y-115595026D01*
X188017052Y-115485722D01*
X188297186Y-115430000D01*
X188582814Y-115430000D01*
X188862948Y-115485722D01*
G37*
G36*
X145482948Y-115485722D02*
G01*
X145746831Y-115595026D01*
X145746833Y-115595027D01*
X145984321Y-115753711D01*
X146186289Y-115955679D01*
X146239879Y-116035883D01*
X146344974Y-116193169D01*
X146454278Y-116457052D01*
X146510000Y-116737186D01*
X146510000Y-117022814D01*
X146454278Y-117302948D01*
X146421179Y-117382855D01*
X146344973Y-117566833D01*
X146186289Y-117804321D01*
X145984321Y-118006289D01*
X145746833Y-118164973D01*
X145746832Y-118164974D01*
X145746831Y-118164974D01*
X145482948Y-118274278D01*
X145202814Y-118330000D01*
X144917186Y-118330000D01*
X144637052Y-118274278D01*
X144373169Y-118164974D01*
X144373168Y-118164974D01*
X144373167Y-118164973D01*
X144135679Y-118006289D01*
X143933711Y-117804321D01*
X143775027Y-117566833D01*
X143698821Y-117382855D01*
X143665722Y-117302948D01*
X143610000Y-117022814D01*
X143610000Y-116737186D01*
X143665722Y-116457052D01*
X143775026Y-116193169D01*
X143880121Y-116035883D01*
X143933711Y-115955679D01*
X144135679Y-115753711D01*
X144373167Y-115595027D01*
X144373169Y-115595026D01*
X144637052Y-115485722D01*
X144917186Y-115430000D01*
X145202814Y-115430000D01*
X145482948Y-115485722D01*
G37*
G36*
X137862948Y-115485722D02*
G01*
X138126831Y-115595026D01*
X138126833Y-115595027D01*
X138364321Y-115753711D01*
X138566289Y-115955679D01*
X138619879Y-116035883D01*
X138724974Y-116193169D01*
X138834278Y-116457052D01*
X138890000Y-116737186D01*
X138890000Y-117022814D01*
X138834278Y-117302948D01*
X138801179Y-117382855D01*
X138724973Y-117566833D01*
X138566289Y-117804321D01*
X138364321Y-118006289D01*
X138126833Y-118164973D01*
X138126832Y-118164974D01*
X138126831Y-118164974D01*
X137862948Y-118274278D01*
X137582814Y-118330000D01*
X137297186Y-118330000D01*
X137017052Y-118274278D01*
X136753169Y-118164974D01*
X136753168Y-118164974D01*
X136753167Y-118164973D01*
X136515679Y-118006289D01*
X136313711Y-117804321D01*
X136155027Y-117566833D01*
X136078821Y-117382855D01*
X136045722Y-117302948D01*
X135990000Y-117022814D01*
X135990000Y-116737186D01*
X136045722Y-116457052D01*
X136155026Y-116193169D01*
X136260121Y-116035883D01*
X136313711Y-115955679D01*
X136515679Y-115753711D01*
X136753167Y-115595027D01*
X136753169Y-115595026D01*
X137017052Y-115485722D01*
X137297186Y-115430000D01*
X137582814Y-115430000D01*
X137862948Y-115485722D01*
G37*
G36*
X128482948Y-115485722D02*
G01*
X128746831Y-115595026D01*
X128746833Y-115595027D01*
X128984321Y-115753711D01*
X129186289Y-115955679D01*
X129239879Y-116035883D01*
X129344974Y-116193169D01*
X129454278Y-116457052D01*
X129510000Y-116737186D01*
X129510000Y-117022814D01*
X129454278Y-117302948D01*
X129421179Y-117382855D01*
X129344973Y-117566833D01*
X129186289Y-117804321D01*
X128984321Y-118006289D01*
X128746833Y-118164973D01*
X128746832Y-118164974D01*
X128746831Y-118164974D01*
X128482948Y-118274278D01*
X128202814Y-118330000D01*
X127917186Y-118330000D01*
X127637052Y-118274278D01*
X127373169Y-118164974D01*
X127373168Y-118164974D01*
X127373167Y-118164973D01*
X127135679Y-118006289D01*
X126933711Y-117804321D01*
X126775027Y-117566833D01*
X126698821Y-117382855D01*
X126665722Y-117302948D01*
X126610000Y-117022814D01*
X126610000Y-116737186D01*
X126665722Y-116457052D01*
X126775026Y-116193169D01*
X126880121Y-116035883D01*
X126933711Y-115955679D01*
X127135679Y-115753711D01*
X127373167Y-115595027D01*
X127373169Y-115595026D01*
X127637052Y-115485722D01*
X127917186Y-115430000D01*
X128202814Y-115430000D01*
X128482948Y-115485722D01*
G37*
G36*
X120862948Y-115485722D02*
G01*
X121126831Y-115595026D01*
X121126833Y-115595027D01*
X121364321Y-115753711D01*
X121566289Y-115955679D01*
X121619879Y-116035883D01*
X121724974Y-116193169D01*
X121834278Y-116457052D01*
X121890000Y-116737186D01*
X121890000Y-117022814D01*
X121834278Y-117302948D01*
X121801179Y-117382855D01*
X121724973Y-117566833D01*
X121566289Y-117804321D01*
X121364321Y-118006289D01*
X121126833Y-118164973D01*
X121126832Y-118164974D01*
X121126831Y-118164974D01*
X120862948Y-118274278D01*
X120582814Y-118330000D01*
X120297186Y-118330000D01*
X120017052Y-118274278D01*
X119753169Y-118164974D01*
X119753168Y-118164974D01*
X119753167Y-118164973D01*
X119515679Y-118006289D01*
X119313711Y-117804321D01*
X119155027Y-117566833D01*
X119078821Y-117382855D01*
X119045722Y-117302948D01*
X118990000Y-117022814D01*
X118990000Y-116737186D01*
X119045722Y-116457052D01*
X119155026Y-116193169D01*
X119260121Y-116035883D01*
X119313711Y-115955679D01*
X119515679Y-115753711D01*
X119753167Y-115595027D01*
X119753169Y-115595026D01*
X120017052Y-115485722D01*
X120297186Y-115430000D01*
X120582814Y-115430000D01*
X120862948Y-115485722D01*
G37*
G36*
X111482948Y-115485722D02*
G01*
X111746831Y-115595026D01*
X111746833Y-115595027D01*
X111984321Y-115753711D01*
X112186289Y-115955679D01*
X112239879Y-116035883D01*
X112344974Y-116193169D01*
X112454278Y-116457052D01*
X112510000Y-116737186D01*
X112510000Y-117022814D01*
X112454278Y-117302948D01*
X112421179Y-117382855D01*
X112344973Y-117566833D01*
X112186289Y-117804321D01*
X111984321Y-118006289D01*
X111746833Y-118164973D01*
X111746832Y-118164974D01*
X111746831Y-118164974D01*
X111482948Y-118274278D01*
X111202814Y-118330000D01*
X110917186Y-118330000D01*
X110637052Y-118274278D01*
X110373169Y-118164974D01*
X110373168Y-118164974D01*
X110373167Y-118164973D01*
X110135679Y-118006289D01*
X109933711Y-117804321D01*
X109775027Y-117566833D01*
X109698821Y-117382855D01*
X109665722Y-117302948D01*
X109610000Y-117022814D01*
X109610000Y-116737186D01*
X109665722Y-116457052D01*
X109775026Y-116193169D01*
X109880121Y-116035883D01*
X109933711Y-115955679D01*
X110135679Y-115753711D01*
X110373167Y-115595027D01*
X110373169Y-115595026D01*
X110637052Y-115485722D01*
X110917186Y-115430000D01*
X111202814Y-115430000D01*
X111482948Y-115485722D01*
G37*
G36*
X103862948Y-115485722D02*
G01*
X104126831Y-115595026D01*
X104126833Y-115595027D01*
X104364321Y-115753711D01*
X104566289Y-115955679D01*
X104619879Y-116035883D01*
X104724974Y-116193169D01*
X104834278Y-116457052D01*
X104890000Y-116737186D01*
X104890000Y-117022814D01*
X104834278Y-117302948D01*
X104801179Y-117382855D01*
X104724973Y-117566833D01*
X104566289Y-117804321D01*
X104364321Y-118006289D01*
X104126833Y-118164973D01*
X104126832Y-118164974D01*
X104126831Y-118164974D01*
X103862948Y-118274278D01*
X103582814Y-118330000D01*
X103297186Y-118330000D01*
X103017052Y-118274278D01*
X102753169Y-118164974D01*
X102753168Y-118164974D01*
X102753167Y-118164973D01*
X102515679Y-118006289D01*
X102313711Y-117804321D01*
X102155027Y-117566833D01*
X102078821Y-117382855D01*
X102045722Y-117302948D01*
X101990000Y-117022814D01*
X101990000Y-116737186D01*
X102045722Y-116457052D01*
X102155026Y-116193169D01*
X102260121Y-116035883D01*
X102313711Y-115955679D01*
X102515679Y-115753711D01*
X102753167Y-115595027D01*
X102753169Y-115595026D01*
X103017052Y-115485722D01*
X103297186Y-115430000D01*
X103582814Y-115430000D01*
X103862948Y-115485722D01*
G37*
G36*
X196482948Y-115485722D02*
G01*
X196746831Y-115595026D01*
X196746833Y-115595027D01*
X196984321Y-115753711D01*
X197186289Y-115955679D01*
X197239879Y-116035883D01*
X197344974Y-116193169D01*
X197454278Y-116457052D01*
X197510000Y-116737186D01*
X197510000Y-117022814D01*
X197454278Y-117302948D01*
X197421179Y-117382855D01*
X197344973Y-117566833D01*
X197186289Y-117804321D01*
X196984321Y-118006289D01*
X196746833Y-118164973D01*
X196746832Y-118164974D01*
X196746831Y-118164974D01*
X196482948Y-118274278D01*
X196202814Y-118330000D01*
X195917186Y-118330000D01*
X195637052Y-118274278D01*
X195373169Y-118164974D01*
X195373168Y-118164974D01*
X195373167Y-118164973D01*
X195135679Y-118006289D01*
X194933711Y-117804321D01*
X194775027Y-117566833D01*
X194698821Y-117382855D01*
X194665722Y-117302948D01*
X194610000Y-117022814D01*
X194610000Y-116737186D01*
X194665722Y-116457052D01*
X194775026Y-116193169D01*
X194880121Y-116035883D01*
X194933711Y-115955679D01*
X195135679Y-115753711D01*
X195373167Y-115595027D01*
X195373169Y-115595026D01*
X195637052Y-115485722D01*
X195917186Y-115430000D01*
X196202814Y-115430000D01*
X196482948Y-115485722D01*
G37*
G36*
X122109082Y-107121384D02*
G01*
X122424639Y-107184152D01*
X122870510Y-107368838D01*
X123271784Y-107636960D01*
X123613040Y-107978216D01*
X123881162Y-108379490D01*
X124065848Y-108825361D01*
X124160000Y-109298696D01*
X124160000Y-109781304D01*
X124065848Y-110254639D01*
X123881162Y-110700510D01*
X123613040Y-111101784D01*
X123271784Y-111443040D01*
X122870510Y-111711162D01*
X122424639Y-111895848D01*
X122109082Y-111958616D01*
X121951305Y-111990000D01*
X121468695Y-111990000D01*
X121310918Y-111958616D01*
X120995361Y-111895848D01*
X120549490Y-111711162D01*
X120148216Y-111443040D01*
X119806960Y-111101784D01*
X119538838Y-110700510D01*
X119354152Y-110254639D01*
X119260000Y-109781304D01*
X119260000Y-109298696D01*
X119354152Y-108825361D01*
X119538838Y-108379490D01*
X119806960Y-107978216D01*
X120148216Y-107636960D01*
X120549490Y-107368838D01*
X120995361Y-107184152D01*
X121310918Y-107121384D01*
X121468695Y-107090000D01*
X121951305Y-107090000D01*
X122109082Y-107121384D01*
G37*
G36*
X173109082Y-107121384D02*
G01*
X173424639Y-107184152D01*
X173870510Y-107368838D01*
X174271784Y-107636960D01*
X174613040Y-107978216D01*
X174881162Y-108379490D01*
X175065848Y-108825361D01*
X175160000Y-109298696D01*
X175160000Y-109781304D01*
X175065848Y-110254639D01*
X174881162Y-110700510D01*
X174613040Y-111101784D01*
X174271784Y-111443040D01*
X173870510Y-111711162D01*
X173424639Y-111895848D01*
X173109082Y-111958616D01*
X172951305Y-111990000D01*
X172468695Y-111990000D01*
X172310918Y-111958616D01*
X171995361Y-111895848D01*
X171549490Y-111711162D01*
X171148216Y-111443040D01*
X170806960Y-111101784D01*
X170538838Y-110700510D01*
X170354152Y-110254639D01*
X170260000Y-109781304D01*
X170260000Y-109298696D01*
X170354152Y-108825361D01*
X170538838Y-108379490D01*
X170806960Y-107978216D01*
X171148216Y-107636960D01*
X171549490Y-107368838D01*
X171995361Y-107184152D01*
X172310918Y-107121384D01*
X172468695Y-107090000D01*
X172951305Y-107090000D01*
X173109082Y-107121384D01*
G37*
G36*
X190109082Y-107121384D02*
G01*
X190424639Y-107184152D01*
X190870510Y-107368838D01*
X191271784Y-107636960D01*
X191613040Y-107978216D01*
X191881162Y-108379490D01*
X192065848Y-108825361D01*
X192160000Y-109298696D01*
X192160000Y-109781304D01*
X192065848Y-110254639D01*
X191881162Y-110700510D01*
X191613040Y-111101784D01*
X191271784Y-111443040D01*
X190870510Y-111711162D01*
X190424639Y-111895848D01*
X190109082Y-111958616D01*
X189951305Y-111990000D01*
X189468695Y-111990000D01*
X189310918Y-111958616D01*
X188995361Y-111895848D01*
X188549490Y-111711162D01*
X188148216Y-111443040D01*
X187806960Y-111101784D01*
X187538838Y-110700510D01*
X187354152Y-110254639D01*
X187260000Y-109781304D01*
X187260000Y-109298696D01*
X187354152Y-108825361D01*
X187538838Y-108379490D01*
X187806960Y-107978216D01*
X188148216Y-107636960D01*
X188549490Y-107368838D01*
X188995361Y-107184152D01*
X189310918Y-107121384D01*
X189468695Y-107090000D01*
X189951305Y-107090000D01*
X190109082Y-107121384D01*
G37*
G36*
X105109082Y-107121384D02*
G01*
X105424639Y-107184152D01*
X105870510Y-107368838D01*
X106271784Y-107636960D01*
X106613040Y-107978216D01*
X106881162Y-108379490D01*
X107065848Y-108825361D01*
X107160000Y-109298696D01*
X107160000Y-109781304D01*
X107065848Y-110254639D01*
X106881162Y-110700510D01*
X106613040Y-111101784D01*
X106271784Y-111443040D01*
X105870510Y-111711162D01*
X105424639Y-111895848D01*
X105109082Y-111958616D01*
X104951305Y-111990000D01*
X104468695Y-111990000D01*
X104310918Y-111958616D01*
X103995361Y-111895848D01*
X103549490Y-111711162D01*
X103148216Y-111443040D01*
X102806960Y-111101784D01*
X102538838Y-110700510D01*
X102354152Y-110254639D01*
X102260000Y-109781304D01*
X102260000Y-109298696D01*
X102354152Y-108825361D01*
X102538838Y-108379490D01*
X102806960Y-107978216D01*
X103148216Y-107636960D01*
X103549490Y-107368838D01*
X103995361Y-107184152D01*
X104310918Y-107121384D01*
X104468695Y-107090000D01*
X104951305Y-107090000D01*
X105109082Y-107121384D01*
G37*
G36*
X156109082Y-107121384D02*
G01*
X156424639Y-107184152D01*
X156870510Y-107368838D01*
X157271784Y-107636960D01*
X157613040Y-107978216D01*
X157881162Y-108379490D01*
X158065848Y-108825361D01*
X158160000Y-109298696D01*
X158160000Y-109781304D01*
X158065848Y-110254639D01*
X157881162Y-110700510D01*
X157613040Y-111101784D01*
X157271784Y-111443040D01*
X156870510Y-111711162D01*
X156424639Y-111895848D01*
X156109082Y-111958616D01*
X155951305Y-111990000D01*
X155468695Y-111990000D01*
X155310918Y-111958616D01*
X154995361Y-111895848D01*
X154549490Y-111711162D01*
X154148216Y-111443040D01*
X153806960Y-111101784D01*
X153538838Y-110700510D01*
X153354152Y-110254639D01*
X153260000Y-109781304D01*
X153260000Y-109298696D01*
X153354152Y-108825361D01*
X153538838Y-108379490D01*
X153806960Y-107978216D01*
X154148216Y-107636960D01*
X154549490Y-107368838D01*
X154995361Y-107184152D01*
X155310918Y-107121384D01*
X155468695Y-107090000D01*
X155951305Y-107090000D01*
X156109082Y-107121384D01*
G37*
G36*
X139109082Y-107121384D02*
G01*
X139424639Y-107184152D01*
X139870510Y-107368838D01*
X140271784Y-107636960D01*
X140613040Y-107978216D01*
X140881162Y-108379490D01*
X141065848Y-108825361D01*
X141160000Y-109298696D01*
X141160000Y-109781304D01*
X141065848Y-110254639D01*
X140881162Y-110700510D01*
X140613040Y-111101784D01*
X140271784Y-111443040D01*
X139870510Y-111711162D01*
X139424639Y-111895848D01*
X139109082Y-111958616D01*
X138951305Y-111990000D01*
X138468695Y-111990000D01*
X138310918Y-111958616D01*
X137995361Y-111895848D01*
X137549490Y-111711162D01*
X137148216Y-111443040D01*
X136806960Y-111101784D01*
X136538838Y-110700510D01*
X136354152Y-110254639D01*
X136260000Y-109781304D01*
X136260000Y-109298696D01*
X136354152Y-108825361D01*
X136538838Y-108379490D01*
X136806960Y-107978216D01*
X137148216Y-107636960D01*
X137549490Y-107368838D01*
X137995361Y-107184152D01*
X138310918Y-107121384D01*
X138468695Y-107090000D01*
X138951305Y-107090000D01*
X139109082Y-107121384D01*
G37*
G36*
X88109082Y-107121384D02*
G01*
X88424639Y-107184152D01*
X88870510Y-107368838D01*
X89271784Y-107636960D01*
X89613040Y-107978216D01*
X89881162Y-108379490D01*
X90065848Y-108825361D01*
X90160000Y-109298696D01*
X90160000Y-109781304D01*
X90065848Y-110254639D01*
X89881162Y-110700510D01*
X89613040Y-111101784D01*
X89271784Y-111443040D01*
X88870510Y-111711162D01*
X88424639Y-111895848D01*
X88109082Y-111958616D01*
X87951305Y-111990000D01*
X87468695Y-111990000D01*
X87310918Y-111958616D01*
X86995361Y-111895848D01*
X86549490Y-111711162D01*
X86148216Y-111443040D01*
X85806960Y-111101784D01*
X85538838Y-110700510D01*
X85354152Y-110254639D01*
X85260000Y-109781304D01*
X85260000Y-109298696D01*
X85354152Y-108825361D01*
X85538838Y-108379490D01*
X85806960Y-107978216D01*
X86148216Y-107636960D01*
X86549490Y-107368838D01*
X86995361Y-107184152D01*
X87310918Y-107121384D01*
X87468695Y-107090000D01*
X87951305Y-107090000D01*
X88109082Y-107121384D01*
G37*
G36*
X65878687Y-106075027D02*
G01*
X66056274Y-106110350D01*
X66247362Y-106189502D01*
X66419336Y-106304411D01*
X66565589Y-106450664D01*
X66680498Y-106622638D01*
X66759650Y-106813726D01*
X66800000Y-107016584D01*
X66800000Y-107223416D01*
X66759650Y-107426274D01*
X66680498Y-107617362D01*
X66565589Y-107789336D01*
X66419336Y-107935589D01*
X66247362Y-108050498D01*
X66056274Y-108129650D01*
X65878687Y-108164973D01*
X65853417Y-108170000D01*
X65646583Y-108170000D01*
X65621313Y-108164973D01*
X65443726Y-108129650D01*
X65252638Y-108050498D01*
X65080664Y-107935589D01*
X64934411Y-107789336D01*
X64819502Y-107617362D01*
X64740350Y-107426274D01*
X64700000Y-107223416D01*
X64700000Y-107016584D01*
X64740350Y-106813726D01*
X64819502Y-106622638D01*
X64934411Y-106450664D01*
X65080664Y-106304411D01*
X65252638Y-106189502D01*
X65443726Y-106110350D01*
X65621313Y-106075027D01*
X65646583Y-106070000D01*
X65853417Y-106070000D01*
X65878687Y-106075027D01*
G37*
G36*
X69340000Y-108170000D02*
G01*
X67240000Y-108170000D01*
X67240000Y-106070000D01*
X69340000Y-106070000D01*
X69340000Y-108170000D01*
G37*
G36*
X176919082Y-102041384D02*
G01*
X177234639Y-102104152D01*
X177680510Y-102288838D01*
X178081784Y-102556960D01*
X178423040Y-102898216D01*
X178691162Y-103299490D01*
X178875848Y-103745361D01*
X178970000Y-104218696D01*
X178970000Y-104701304D01*
X178875848Y-105174639D01*
X178691162Y-105620510D01*
X178423040Y-106021784D01*
X178081784Y-106363040D01*
X177680510Y-106631162D01*
X177234639Y-106815848D01*
X176919082Y-106878616D01*
X176761305Y-106910000D01*
X176278695Y-106910000D01*
X176120918Y-106878616D01*
X175805361Y-106815848D01*
X175359490Y-106631162D01*
X174958216Y-106363040D01*
X174616960Y-106021784D01*
X174348838Y-105620510D01*
X174164152Y-105174639D01*
X174070000Y-104701304D01*
X174070000Y-104218696D01*
X174164152Y-103745361D01*
X174348838Y-103299490D01*
X174616960Y-102898216D01*
X174958216Y-102556960D01*
X175359490Y-102288838D01*
X175805361Y-102104152D01*
X176120918Y-102041384D01*
X176278695Y-102010000D01*
X176761305Y-102010000D01*
X176919082Y-102041384D01*
G37*
G36*
X108919082Y-102041384D02*
G01*
X109234639Y-102104152D01*
X109680510Y-102288838D01*
X110081784Y-102556960D01*
X110423040Y-102898216D01*
X110691162Y-103299490D01*
X110875848Y-103745361D01*
X110970000Y-104218696D01*
X110970000Y-104701304D01*
X110875848Y-105174639D01*
X110691162Y-105620510D01*
X110423040Y-106021784D01*
X110081784Y-106363040D01*
X109680510Y-106631162D01*
X109234639Y-106815848D01*
X108919082Y-106878616D01*
X108761305Y-106910000D01*
X108278695Y-106910000D01*
X108120918Y-106878616D01*
X107805361Y-106815848D01*
X107359490Y-106631162D01*
X106958216Y-106363040D01*
X106616960Y-106021784D01*
X106348838Y-105620510D01*
X106164152Y-105174639D01*
X106070000Y-104701304D01*
X106070000Y-104218696D01*
X106164152Y-103745361D01*
X106348838Y-103299490D01*
X106616960Y-102898216D01*
X106958216Y-102556960D01*
X107359490Y-102288838D01*
X107805361Y-102104152D01*
X108120918Y-102041384D01*
X108278695Y-102010000D01*
X108761305Y-102010000D01*
X108919082Y-102041384D01*
G37*
G36*
X91919082Y-102041384D02*
G01*
X92234639Y-102104152D01*
X92680510Y-102288838D01*
X93081784Y-102556960D01*
X93423040Y-102898216D01*
X93691162Y-103299490D01*
X93875848Y-103745361D01*
X93970000Y-104218696D01*
X93970000Y-104701304D01*
X93875848Y-105174639D01*
X93691162Y-105620510D01*
X93423040Y-106021784D01*
X93081784Y-106363040D01*
X92680510Y-106631162D01*
X92234639Y-106815848D01*
X91919082Y-106878616D01*
X91761305Y-106910000D01*
X91278695Y-106910000D01*
X91120918Y-106878616D01*
X90805361Y-106815848D01*
X90359490Y-106631162D01*
X89958216Y-106363040D01*
X89616960Y-106021784D01*
X89348838Y-105620510D01*
X89164152Y-105174639D01*
X89070000Y-104701304D01*
X89070000Y-104218696D01*
X89164152Y-103745361D01*
X89348838Y-103299490D01*
X89616960Y-102898216D01*
X89958216Y-102556960D01*
X90359490Y-102288838D01*
X90805361Y-102104152D01*
X91120918Y-102041384D01*
X91278695Y-102010000D01*
X91761305Y-102010000D01*
X91919082Y-102041384D01*
G37*
G36*
X142919082Y-102041384D02*
G01*
X143234639Y-102104152D01*
X143680510Y-102288838D01*
X144081784Y-102556960D01*
X144423040Y-102898216D01*
X144691162Y-103299490D01*
X144875848Y-103745361D01*
X144970000Y-104218696D01*
X144970000Y-104701304D01*
X144875848Y-105174639D01*
X144691162Y-105620510D01*
X144423040Y-106021784D01*
X144081784Y-106363040D01*
X143680510Y-106631162D01*
X143234639Y-106815848D01*
X142919082Y-106878616D01*
X142761305Y-106910000D01*
X142278695Y-106910000D01*
X142120918Y-106878616D01*
X141805361Y-106815848D01*
X141359490Y-106631162D01*
X140958216Y-106363040D01*
X140616960Y-106021784D01*
X140348838Y-105620510D01*
X140164152Y-105174639D01*
X140070000Y-104701304D01*
X140070000Y-104218696D01*
X140164152Y-103745361D01*
X140348838Y-103299490D01*
X140616960Y-102898216D01*
X140958216Y-102556960D01*
X141359490Y-102288838D01*
X141805361Y-102104152D01*
X142120918Y-102041384D01*
X142278695Y-102010000D01*
X142761305Y-102010000D01*
X142919082Y-102041384D01*
G37*
G36*
X159919082Y-102041384D02*
G01*
X160234639Y-102104152D01*
X160680510Y-102288838D01*
X161081784Y-102556960D01*
X161423040Y-102898216D01*
X161691162Y-103299490D01*
X161875848Y-103745361D01*
X161970000Y-104218696D01*
X161970000Y-104701304D01*
X161875848Y-105174639D01*
X161691162Y-105620510D01*
X161423040Y-106021784D01*
X161081784Y-106363040D01*
X160680510Y-106631162D01*
X160234639Y-106815848D01*
X159919082Y-106878616D01*
X159761305Y-106910000D01*
X159278695Y-106910000D01*
X159120918Y-106878616D01*
X158805361Y-106815848D01*
X158359490Y-106631162D01*
X157958216Y-106363040D01*
X157616960Y-106021784D01*
X157348838Y-105620510D01*
X157164152Y-105174639D01*
X157070000Y-104701304D01*
X157070000Y-104218696D01*
X157164152Y-103745361D01*
X157348838Y-103299490D01*
X157616960Y-102898216D01*
X157958216Y-102556960D01*
X158359490Y-102288838D01*
X158805361Y-102104152D01*
X159120918Y-102041384D01*
X159278695Y-102010000D01*
X159761305Y-102010000D01*
X159919082Y-102041384D01*
G37*
G36*
X125919082Y-102041384D02*
G01*
X126234639Y-102104152D01*
X126680510Y-102288838D01*
X127081784Y-102556960D01*
X127423040Y-102898216D01*
X127691162Y-103299490D01*
X127875848Y-103745361D01*
X127970000Y-104218696D01*
X127970000Y-104701304D01*
X127875848Y-105174639D01*
X127691162Y-105620510D01*
X127423040Y-106021784D01*
X127081784Y-106363040D01*
X126680510Y-106631162D01*
X126234639Y-106815848D01*
X125919082Y-106878616D01*
X125761305Y-106910000D01*
X125278695Y-106910000D01*
X125120918Y-106878616D01*
X124805361Y-106815848D01*
X124359490Y-106631162D01*
X123958216Y-106363040D01*
X123616960Y-106021784D01*
X123348838Y-105620510D01*
X123164152Y-105174639D01*
X123070000Y-104701304D01*
X123070000Y-104218696D01*
X123164152Y-103745361D01*
X123348838Y-103299490D01*
X123616960Y-102898216D01*
X123958216Y-102556960D01*
X124359490Y-102288838D01*
X124805361Y-102104152D01*
X125120918Y-102041384D01*
X125278695Y-102010000D01*
X125761305Y-102010000D01*
X125919082Y-102041384D01*
G37*
G36*
X193919082Y-102041384D02*
G01*
X194234639Y-102104152D01*
X194680510Y-102288838D01*
X195081784Y-102556960D01*
X195423040Y-102898216D01*
X195691162Y-103299490D01*
X195875848Y-103745361D01*
X195970000Y-104218696D01*
X195970000Y-104701304D01*
X195875848Y-105174639D01*
X195691162Y-105620510D01*
X195423040Y-106021784D01*
X195081784Y-106363040D01*
X194680510Y-106631162D01*
X194234639Y-106815848D01*
X193919082Y-106878616D01*
X193761305Y-106910000D01*
X193278695Y-106910000D01*
X193120918Y-106878616D01*
X192805361Y-106815848D01*
X192359490Y-106631162D01*
X191958216Y-106363040D01*
X191616960Y-106021784D01*
X191348838Y-105620510D01*
X191164152Y-105174639D01*
X191070000Y-104701304D01*
X191070000Y-104218696D01*
X191164152Y-103745361D01*
X191348838Y-103299490D01*
X191616960Y-102898216D01*
X191958216Y-102556960D01*
X192359490Y-102288838D01*
X192805361Y-102104152D01*
X193120918Y-102041384D01*
X193278695Y-102010000D01*
X193761305Y-102010000D01*
X193919082Y-102041384D01*
G37*
G36*
X68418687Y-103535027D02*
G01*
X68596274Y-103570350D01*
X68787362Y-103649502D01*
X68959336Y-103764411D01*
X69105589Y-103910664D01*
X69220498Y-104082638D01*
X69299650Y-104273726D01*
X69340000Y-104476584D01*
X69340000Y-104683416D01*
X69299650Y-104886274D01*
X69220498Y-105077362D01*
X69105589Y-105249336D01*
X68959336Y-105395589D01*
X68787362Y-105510498D01*
X68596274Y-105589650D01*
X68418687Y-105624973D01*
X68393417Y-105630000D01*
X68186583Y-105630000D01*
X68161313Y-105624973D01*
X67983726Y-105589650D01*
X67792638Y-105510498D01*
X67620664Y-105395589D01*
X67474411Y-105249336D01*
X67359502Y-105077362D01*
X67280350Y-104886274D01*
X67240000Y-104683416D01*
X67240000Y-104476584D01*
X67280350Y-104273726D01*
X67359502Y-104082638D01*
X67474411Y-103910664D01*
X67620664Y-103764411D01*
X67792638Y-103649502D01*
X67983726Y-103570350D01*
X68161313Y-103535027D01*
X68186583Y-103530000D01*
X68393417Y-103530000D01*
X68418687Y-103535027D01*
G37*
G36*
X65878687Y-103535027D02*
G01*
X66056274Y-103570350D01*
X66247362Y-103649502D01*
X66419336Y-103764411D01*
X66565589Y-103910664D01*
X66680498Y-104082638D01*
X66759650Y-104273726D01*
X66800000Y-104476584D01*
X66800000Y-104683416D01*
X66759650Y-104886274D01*
X66680498Y-105077362D01*
X66565589Y-105249336D01*
X66419336Y-105395589D01*
X66247362Y-105510498D01*
X66056274Y-105589650D01*
X65878687Y-105624973D01*
X65853417Y-105630000D01*
X65646583Y-105630000D01*
X65621313Y-105624973D01*
X65443726Y-105589650D01*
X65252638Y-105510498D01*
X65080664Y-105395589D01*
X64934411Y-105249336D01*
X64819502Y-105077362D01*
X64740350Y-104886274D01*
X64700000Y-104683416D01*
X64700000Y-104476584D01*
X64740350Y-104273726D01*
X64819502Y-104082638D01*
X64934411Y-103910664D01*
X65080664Y-103764411D01*
X65252638Y-103649502D01*
X65443726Y-103570350D01*
X65621313Y-103535027D01*
X65646583Y-103530000D01*
X65853417Y-103530000D01*
X65878687Y-103535027D01*
G37*
G36*
X65878687Y-100995027D02*
G01*
X66056274Y-101030350D01*
X66247362Y-101109502D01*
X66419336Y-101224411D01*
X66565589Y-101370664D01*
X66680498Y-101542638D01*
X66759650Y-101733726D01*
X66800000Y-101936584D01*
X66800000Y-102143416D01*
X66759650Y-102346274D01*
X66680498Y-102537362D01*
X66565589Y-102709336D01*
X66419336Y-102855589D01*
X66247362Y-102970498D01*
X66056274Y-103049650D01*
X65878687Y-103084973D01*
X65853417Y-103090000D01*
X65646583Y-103090000D01*
X65621313Y-103084973D01*
X65443726Y-103049650D01*
X65252638Y-102970498D01*
X65080664Y-102855589D01*
X64934411Y-102709336D01*
X64819502Y-102537362D01*
X64740350Y-102346274D01*
X64700000Y-102143416D01*
X64700000Y-101936584D01*
X64740350Y-101733726D01*
X64819502Y-101542638D01*
X64934411Y-101370664D01*
X65080664Y-101224411D01*
X65252638Y-101109502D01*
X65443726Y-101030350D01*
X65621313Y-100995027D01*
X65646583Y-100990000D01*
X65853417Y-100990000D01*
X65878687Y-100995027D01*
G37*
G36*
X68418687Y-100995027D02*
G01*
X68596274Y-101030350D01*
X68787362Y-101109502D01*
X68959336Y-101224411D01*
X69105589Y-101370664D01*
X69220498Y-101542638D01*
X69299650Y-101733726D01*
X69340000Y-101936584D01*
X69340000Y-102143416D01*
X69299650Y-102346274D01*
X69220498Y-102537362D01*
X69105589Y-102709336D01*
X68959336Y-102855589D01*
X68787362Y-102970498D01*
X68596274Y-103049650D01*
X68418687Y-103084973D01*
X68393417Y-103090000D01*
X68186583Y-103090000D01*
X68161313Y-103084973D01*
X67983726Y-103049650D01*
X67792638Y-102970498D01*
X67620664Y-102855589D01*
X67474411Y-102709336D01*
X67359502Y-102537362D01*
X67280350Y-102346274D01*
X67240000Y-102143416D01*
X67240000Y-101936584D01*
X67280350Y-101733726D01*
X67359502Y-101542638D01*
X67474411Y-101370664D01*
X67620664Y-101224411D01*
X67792638Y-101109502D01*
X67983726Y-101030350D01*
X68161313Y-100995027D01*
X68186583Y-100990000D01*
X68393417Y-100990000D01*
X68418687Y-100995027D01*
G37*
G36*
X68418687Y-98455027D02*
G01*
X68596274Y-98490350D01*
X68787362Y-98569502D01*
X68959336Y-98684411D01*
X69105589Y-98830664D01*
X69220498Y-99002638D01*
X69299650Y-99193726D01*
X69340000Y-99396584D01*
X69340000Y-99603416D01*
X69299650Y-99806274D01*
X69220498Y-99997362D01*
X69105589Y-100169336D01*
X68959336Y-100315589D01*
X68787362Y-100430498D01*
X68596274Y-100509650D01*
X68418687Y-100544973D01*
X68393417Y-100550000D01*
X68186583Y-100550000D01*
X68161313Y-100544973D01*
X67983726Y-100509650D01*
X67792638Y-100430498D01*
X67620664Y-100315589D01*
X67474411Y-100169336D01*
X67359502Y-99997362D01*
X67280350Y-99806274D01*
X67240000Y-99603416D01*
X67240000Y-99396584D01*
X67280350Y-99193726D01*
X67359502Y-99002638D01*
X67474411Y-98830664D01*
X67620664Y-98684411D01*
X67792638Y-98569502D01*
X67983726Y-98490350D01*
X68161313Y-98455027D01*
X68186583Y-98450000D01*
X68393417Y-98450000D01*
X68418687Y-98455027D01*
G37*
G36*
X65878687Y-98455027D02*
G01*
X66056274Y-98490350D01*
X66247362Y-98569502D01*
X66419336Y-98684411D01*
X66565589Y-98830664D01*
X66680498Y-99002638D01*
X66759650Y-99193726D01*
X66800000Y-99396584D01*
X66800000Y-99603416D01*
X66759650Y-99806274D01*
X66680498Y-99997362D01*
X66565589Y-100169336D01*
X66419336Y-100315589D01*
X66247362Y-100430498D01*
X66056274Y-100509650D01*
X65878687Y-100544973D01*
X65853417Y-100550000D01*
X65646583Y-100550000D01*
X65621313Y-100544973D01*
X65443726Y-100509650D01*
X65252638Y-100430498D01*
X65080664Y-100315589D01*
X64934411Y-100169336D01*
X64819502Y-99997362D01*
X64740350Y-99806274D01*
X64700000Y-99603416D01*
X64700000Y-99396584D01*
X64740350Y-99193726D01*
X64819502Y-99002638D01*
X64934411Y-98830664D01*
X65080664Y-98684411D01*
X65252638Y-98569502D01*
X65443726Y-98490350D01*
X65621313Y-98455027D01*
X65646583Y-98450000D01*
X65853417Y-98450000D01*
X65878687Y-98455027D01*
G37*
G36*
X68418687Y-95915027D02*
G01*
X68596274Y-95950350D01*
X68787362Y-96029502D01*
X68959336Y-96144411D01*
X69105589Y-96290664D01*
X69220498Y-96462638D01*
X69299650Y-96653726D01*
X69340000Y-96856584D01*
X69340000Y-97063416D01*
X69299650Y-97266274D01*
X69220498Y-97457362D01*
X69105589Y-97629336D01*
X68959336Y-97775589D01*
X68787362Y-97890498D01*
X68596274Y-97969650D01*
X68418687Y-98004973D01*
X68393417Y-98010000D01*
X68186583Y-98010000D01*
X68161313Y-98004973D01*
X67983726Y-97969650D01*
X67792638Y-97890498D01*
X67620664Y-97775589D01*
X67474411Y-97629336D01*
X67359502Y-97457362D01*
X67280350Y-97266274D01*
X67240000Y-97063416D01*
X67240000Y-96856584D01*
X67280350Y-96653726D01*
X67359502Y-96462638D01*
X67474411Y-96290664D01*
X67620664Y-96144411D01*
X67792638Y-96029502D01*
X67983726Y-95950350D01*
X68161313Y-95915027D01*
X68186583Y-95910000D01*
X68393417Y-95910000D01*
X68418687Y-95915027D01*
G37*
G36*
X65878687Y-95915027D02*
G01*
X66056274Y-95950350D01*
X66247362Y-96029502D01*
X66419336Y-96144411D01*
X66565589Y-96290664D01*
X66680498Y-96462638D01*
X66759650Y-96653726D01*
X66800000Y-96856584D01*
X66800000Y-97063416D01*
X66759650Y-97266274D01*
X66680498Y-97457362D01*
X66565589Y-97629336D01*
X66419336Y-97775589D01*
X66247362Y-97890498D01*
X66056274Y-97969650D01*
X65878687Y-98004973D01*
X65853417Y-98010000D01*
X65646583Y-98010000D01*
X65621313Y-98004973D01*
X65443726Y-97969650D01*
X65252638Y-97890498D01*
X65080664Y-97775589D01*
X64934411Y-97629336D01*
X64819502Y-97457362D01*
X64740350Y-97266274D01*
X64700000Y-97063416D01*
X64700000Y-96856584D01*
X64740350Y-96653726D01*
X64819502Y-96462638D01*
X64934411Y-96290664D01*
X65080664Y-96144411D01*
X65252638Y-96029502D01*
X65443726Y-95950350D01*
X65621313Y-95915027D01*
X65646583Y-95910000D01*
X65853417Y-95910000D01*
X65878687Y-95915027D01*
G37*
G36*
X144189082Y-90621384D02*
G01*
X144504639Y-90684152D01*
X144950510Y-90868838D01*
X145351784Y-91136960D01*
X145693040Y-91478216D01*
X145961162Y-91879490D01*
X146145848Y-92325361D01*
X146240000Y-92798696D01*
X146240000Y-93281304D01*
X146145848Y-93754639D01*
X145961162Y-94200510D01*
X145693040Y-94601784D01*
X145351784Y-94943040D01*
X144950510Y-95211162D01*
X144504639Y-95395848D01*
X144189082Y-95458616D01*
X144031305Y-95490000D01*
X143548695Y-95490000D01*
X143390918Y-95458616D01*
X143075361Y-95395848D01*
X142629490Y-95211162D01*
X142228216Y-94943040D01*
X141886960Y-94601784D01*
X141618838Y-94200510D01*
X141434152Y-93754639D01*
X141340000Y-93281304D01*
X141340000Y-92798696D01*
X141434152Y-92325361D01*
X141618838Y-91879490D01*
X141886960Y-91478216D01*
X142228216Y-91136960D01*
X142629490Y-90868838D01*
X143075361Y-90684152D01*
X143390918Y-90621384D01*
X143548695Y-90590000D01*
X144031305Y-90590000D01*
X144189082Y-90621384D01*
G37*
G36*
X93189082Y-89621384D02*
G01*
X93504639Y-89684152D01*
X93950510Y-89868838D01*
X94351784Y-90136960D01*
X94693040Y-90478216D01*
X94961162Y-90879490D01*
X95145848Y-91325361D01*
X95240000Y-91798696D01*
X95240000Y-92281304D01*
X95145848Y-92754639D01*
X94961162Y-93200510D01*
X94693040Y-93601784D01*
X94351784Y-93943040D01*
X93950510Y-94211162D01*
X93504639Y-94395848D01*
X93189082Y-94458616D01*
X93031305Y-94490000D01*
X92548695Y-94490000D01*
X92390918Y-94458616D01*
X92075361Y-94395848D01*
X91629490Y-94211162D01*
X91228216Y-93943040D01*
X90886960Y-93601784D01*
X90618838Y-93200510D01*
X90434152Y-92754639D01*
X90340000Y-92281304D01*
X90340000Y-91798696D01*
X90434152Y-91325361D01*
X90618838Y-90879490D01*
X90886960Y-90478216D01*
X91228216Y-90136960D01*
X91629490Y-89868838D01*
X92075361Y-89684152D01*
X92390918Y-89621384D01*
X92548695Y-89590000D01*
X93031305Y-89590000D01*
X93189082Y-89621384D01*
G37*
G36*
X139109082Y-86811384D02*
G01*
X139424639Y-86874152D01*
X139870510Y-87058838D01*
X140271784Y-87326960D01*
X140613040Y-87668216D01*
X140881162Y-88069490D01*
X141065848Y-88515361D01*
X141160000Y-88988696D01*
X141160000Y-89471304D01*
X141065848Y-89944639D01*
X140881162Y-90390510D01*
X140613040Y-90791784D01*
X140271784Y-91133040D01*
X139870510Y-91401162D01*
X139424639Y-91585848D01*
X139109082Y-91648616D01*
X138951305Y-91680000D01*
X138468695Y-91680000D01*
X138310918Y-91648616D01*
X137995361Y-91585848D01*
X137549490Y-91401162D01*
X137148216Y-91133040D01*
X136806960Y-90791784D01*
X136538838Y-90390510D01*
X136354152Y-89944639D01*
X136260000Y-89471304D01*
X136260000Y-88988696D01*
X136354152Y-88515361D01*
X136538838Y-88069490D01*
X136806960Y-87668216D01*
X137148216Y-87326960D01*
X137549490Y-87058838D01*
X137995361Y-86874152D01*
X138310918Y-86811384D01*
X138468695Y-86780000D01*
X138951305Y-86780000D01*
X139109082Y-86811384D01*
G37*
G36*
X88109082Y-85811384D02*
G01*
X88424639Y-85874152D01*
X88870510Y-86058838D01*
X89271784Y-86326960D01*
X89613040Y-86668216D01*
X89881162Y-87069490D01*
X90065848Y-87515361D01*
X90160000Y-87988696D01*
X90160000Y-88471304D01*
X90065848Y-88944639D01*
X89881162Y-89390510D01*
X89613040Y-89791784D01*
X89271784Y-90133040D01*
X88870510Y-90401162D01*
X88424639Y-90585848D01*
X88109082Y-90648616D01*
X87951305Y-90680000D01*
X87468695Y-90680000D01*
X87310918Y-90648616D01*
X86995361Y-90585848D01*
X86549490Y-90401162D01*
X86148216Y-90133040D01*
X85806960Y-89791784D01*
X85538838Y-89390510D01*
X85354152Y-88944639D01*
X85260000Y-88471304D01*
X85260000Y-87988696D01*
X85354152Y-87515361D01*
X85538838Y-87069490D01*
X85806960Y-86668216D01*
X86148216Y-86326960D01*
X86549490Y-86058838D01*
X86995361Y-85874152D01*
X87310918Y-85811384D01*
X87468695Y-85780000D01*
X87951305Y-85780000D01*
X88109082Y-85811384D01*
G37*
G36*
X66212855Y-85646030D02*
G01*
X66476679Y-85755310D01*
X66476681Y-85755311D01*
X66714117Y-85913960D01*
X66916040Y-86115883D01*
X67057077Y-86326961D01*
X67074690Y-86353321D01*
X67183970Y-86617145D01*
X67239680Y-86897218D01*
X67239680Y-87182782D01*
X67183970Y-87462855D01*
X67162221Y-87515361D01*
X67074689Y-87726681D01*
X66916040Y-87964117D01*
X66714117Y-88166040D01*
X66476681Y-88324689D01*
X66476680Y-88324690D01*
X66476679Y-88324690D01*
X66212855Y-88433970D01*
X65932782Y-88489680D01*
X65647218Y-88489680D01*
X65367145Y-88433970D01*
X65103321Y-88324690D01*
X65103320Y-88324690D01*
X65103319Y-88324689D01*
X64865883Y-88166040D01*
X64663960Y-87964117D01*
X64505311Y-87726681D01*
X64417779Y-87515361D01*
X64396030Y-87462855D01*
X64340320Y-87182782D01*
X64340320Y-86897218D01*
X64396030Y-86617145D01*
X64505310Y-86353321D01*
X64522923Y-86326961D01*
X64663960Y-86115883D01*
X64865883Y-85913960D01*
X65103319Y-85755311D01*
X65103321Y-85755310D01*
X65367145Y-85646030D01*
X65647218Y-85590320D01*
X65932782Y-85590320D01*
X66212855Y-85646030D01*
G37*
G36*
X63599877Y-83346605D02*
G01*
X63799875Y-83429447D01*
X63818172Y-83437026D01*
X64014630Y-83568295D01*
X64181705Y-83735370D01*
X64312975Y-83931830D01*
X64403395Y-84150123D01*
X64449490Y-84381859D01*
X64449490Y-84618141D01*
X64403395Y-84849877D01*
X64312975Y-85068170D01*
X64312974Y-85068172D01*
X64181705Y-85264630D01*
X64014630Y-85431705D01*
X63818172Y-85562974D01*
X63818171Y-85562975D01*
X63818170Y-85562975D01*
X63599877Y-85653395D01*
X63368141Y-85699490D01*
X63131859Y-85699490D01*
X62900123Y-85653395D01*
X62681830Y-85562975D01*
X62681829Y-85562975D01*
X62681828Y-85562974D01*
X62485370Y-85431705D01*
X62318295Y-85264630D01*
X62187026Y-85068172D01*
X62187025Y-85068170D01*
X62096605Y-84849877D01*
X62050510Y-84618141D01*
X62050510Y-84381859D01*
X62096605Y-84150123D01*
X62187025Y-83931830D01*
X62318295Y-83735370D01*
X62485370Y-83568295D01*
X62681828Y-83437026D01*
X62700125Y-83429447D01*
X62900123Y-83346605D01*
X63131859Y-83300510D01*
X63368141Y-83300510D01*
X63599877Y-83346605D01*
G37*
G36*
X66212855Y-80566030D02*
G01*
X66476679Y-80675310D01*
X66476681Y-80675311D01*
X66714117Y-80833960D01*
X66916040Y-81035883D01*
X67074689Y-81273319D01*
X67074690Y-81273321D01*
X67183970Y-81537145D01*
X67239680Y-81817218D01*
X67239680Y-82102782D01*
X67183970Y-82382855D01*
X67074690Y-82646679D01*
X67074689Y-82646681D01*
X66916040Y-82884117D01*
X66714117Y-83086040D01*
X66476681Y-83244689D01*
X66476680Y-83244690D01*
X66476679Y-83244690D01*
X66212855Y-83353970D01*
X65932782Y-83409680D01*
X65647218Y-83409680D01*
X65367145Y-83353970D01*
X65103321Y-83244690D01*
X65103320Y-83244690D01*
X65103319Y-83244689D01*
X64865883Y-83086040D01*
X64663960Y-82884117D01*
X64505311Y-82646681D01*
X64505310Y-82646679D01*
X64396030Y-82382855D01*
X64340320Y-82102782D01*
X64340320Y-81817218D01*
X64396030Y-81537145D01*
X64505310Y-81273321D01*
X64505311Y-81273319D01*
X64663960Y-81035883D01*
X64865883Y-80833960D01*
X65103319Y-80675311D01*
X65103321Y-80675310D01*
X65367145Y-80566030D01*
X65647218Y-80510320D01*
X65932782Y-80510320D01*
X66212855Y-80566030D01*
G37*
G36*
X139109082Y-72621384D02*
G01*
X139424639Y-72684152D01*
X139870510Y-72868838D01*
X140271784Y-73136960D01*
X140613040Y-73478216D01*
X140881162Y-73879490D01*
X141065848Y-74325361D01*
X141160000Y-74798696D01*
X141160000Y-75281304D01*
X141065848Y-75754639D01*
X140881162Y-76200510D01*
X140613040Y-76601784D01*
X140271784Y-76943040D01*
X139870510Y-77211162D01*
X139424639Y-77395848D01*
X139109082Y-77458616D01*
X138951305Y-77490000D01*
X138468695Y-77490000D01*
X138310918Y-77458616D01*
X137995361Y-77395848D01*
X137549490Y-77211162D01*
X137148216Y-76943040D01*
X136806960Y-76601784D01*
X136538838Y-76200510D01*
X136354152Y-75754639D01*
X136260000Y-75281304D01*
X136260000Y-74798696D01*
X136354152Y-74325361D01*
X136538838Y-73879490D01*
X136806960Y-73478216D01*
X137148216Y-73136960D01*
X137549490Y-72868838D01*
X137995361Y-72684152D01*
X138310918Y-72621384D01*
X138468695Y-72590000D01*
X138951305Y-72590000D01*
X139109082Y-72621384D01*
G37*
G36*
X173109082Y-72121384D02*
G01*
X173424639Y-72184152D01*
X173870510Y-72368838D01*
X174271784Y-72636960D01*
X174613040Y-72978216D01*
X174881162Y-73379490D01*
X175065848Y-73825361D01*
X175160000Y-74298696D01*
X175160000Y-74781304D01*
X175065848Y-75254639D01*
X174881162Y-75700510D01*
X174613040Y-76101784D01*
X174271784Y-76443040D01*
X173870510Y-76711162D01*
X173424639Y-76895848D01*
X173187393Y-76943039D01*
X172951305Y-76990000D01*
X172468695Y-76990000D01*
X172232607Y-76943039D01*
X171995361Y-76895848D01*
X171549490Y-76711162D01*
X171148216Y-76443040D01*
X170806960Y-76101784D01*
X170538838Y-75700510D01*
X170354152Y-75254639D01*
X170260000Y-74781304D01*
X170260000Y-74298696D01*
X170354152Y-73825361D01*
X170538838Y-73379490D01*
X170806960Y-72978216D01*
X171148216Y-72636960D01*
X171549490Y-72368838D01*
X171995361Y-72184152D01*
X172310918Y-72121384D01*
X172468695Y-72090000D01*
X172951305Y-72090000D01*
X173109082Y-72121384D01*
G37*
G36*
X190109082Y-72121384D02*
G01*
X190424639Y-72184152D01*
X190870510Y-72368838D01*
X191271784Y-72636960D01*
X191613040Y-72978216D01*
X191881162Y-73379490D01*
X192065848Y-73825361D01*
X192160000Y-74298696D01*
X192160000Y-74781304D01*
X192065848Y-75254639D01*
X191881162Y-75700510D01*
X191613040Y-76101784D01*
X191271784Y-76443040D01*
X190870510Y-76711162D01*
X190424639Y-76895848D01*
X190187393Y-76943039D01*
X189951305Y-76990000D01*
X189468695Y-76990000D01*
X189232607Y-76943039D01*
X188995361Y-76895848D01*
X188549490Y-76711162D01*
X188148216Y-76443040D01*
X187806960Y-76101784D01*
X187538838Y-75700510D01*
X187354152Y-75254639D01*
X187260000Y-74781304D01*
X187260000Y-74298696D01*
X187354152Y-73825361D01*
X187538838Y-73379490D01*
X187806960Y-72978216D01*
X188148216Y-72636960D01*
X188549490Y-72368838D01*
X188995361Y-72184152D01*
X189310918Y-72121384D01*
X189468695Y-72090000D01*
X189951305Y-72090000D01*
X190109082Y-72121384D01*
G37*
G36*
X156109082Y-72121384D02*
G01*
X156424639Y-72184152D01*
X156870510Y-72368838D01*
X157271784Y-72636960D01*
X157613040Y-72978216D01*
X157881162Y-73379490D01*
X158065848Y-73825361D01*
X158160000Y-74298696D01*
X158160000Y-74781304D01*
X158065848Y-75254639D01*
X157881162Y-75700510D01*
X157613040Y-76101784D01*
X157271784Y-76443040D01*
X156870510Y-76711162D01*
X156424639Y-76895848D01*
X156187393Y-76943039D01*
X155951305Y-76990000D01*
X155468695Y-76990000D01*
X155232607Y-76943039D01*
X154995361Y-76895848D01*
X154549490Y-76711162D01*
X154148216Y-76443040D01*
X153806960Y-76101784D01*
X153538838Y-75700510D01*
X153354152Y-75254639D01*
X153260000Y-74781304D01*
X153260000Y-74298696D01*
X153354152Y-73825361D01*
X153538838Y-73379490D01*
X153806960Y-72978216D01*
X154148216Y-72636960D01*
X154549490Y-72368838D01*
X154995361Y-72184152D01*
X155310918Y-72121384D01*
X155468695Y-72090000D01*
X155951305Y-72090000D01*
X156109082Y-72121384D01*
G37*
G36*
X105109082Y-72121384D02*
G01*
X105424639Y-72184152D01*
X105870510Y-72368838D01*
X106271784Y-72636960D01*
X106613040Y-72978216D01*
X106881162Y-73379490D01*
X107065848Y-73825361D01*
X107160000Y-74298696D01*
X107160000Y-74781304D01*
X107065848Y-75254639D01*
X106881162Y-75700510D01*
X106613040Y-76101784D01*
X106271784Y-76443040D01*
X105870510Y-76711162D01*
X105424639Y-76895848D01*
X105187393Y-76943039D01*
X104951305Y-76990000D01*
X104468695Y-76990000D01*
X104232607Y-76943039D01*
X103995361Y-76895848D01*
X103549490Y-76711162D01*
X103148216Y-76443040D01*
X102806960Y-76101784D01*
X102538838Y-75700510D01*
X102354152Y-75254639D01*
X102260000Y-74781304D01*
X102260000Y-74298696D01*
X102354152Y-73825361D01*
X102538838Y-73379490D01*
X102806960Y-72978216D01*
X103148216Y-72636960D01*
X103549490Y-72368838D01*
X103995361Y-72184152D01*
X104310918Y-72121384D01*
X104468695Y-72090000D01*
X104951305Y-72090000D01*
X105109082Y-72121384D01*
G37*
G36*
X88109082Y-72121384D02*
G01*
X88424639Y-72184152D01*
X88870510Y-72368838D01*
X89271784Y-72636960D01*
X89613040Y-72978216D01*
X89881162Y-73379490D01*
X90065848Y-73825361D01*
X90160000Y-74298696D01*
X90160000Y-74781304D01*
X90065848Y-75254639D01*
X89881162Y-75700510D01*
X89613040Y-76101784D01*
X89271784Y-76443040D01*
X88870510Y-76711162D01*
X88424639Y-76895848D01*
X88187393Y-76943039D01*
X87951305Y-76990000D01*
X87468695Y-76990000D01*
X87232607Y-76943039D01*
X86995361Y-76895848D01*
X86549490Y-76711162D01*
X86148216Y-76443040D01*
X85806960Y-76101784D01*
X85538838Y-75700510D01*
X85354152Y-75254639D01*
X85260000Y-74781304D01*
X85260000Y-74298696D01*
X85354152Y-73825361D01*
X85538838Y-73379490D01*
X85806960Y-72978216D01*
X86148216Y-72636960D01*
X86549490Y-72368838D01*
X86995361Y-72184152D01*
X87310918Y-72121384D01*
X87468695Y-72090000D01*
X87951305Y-72090000D01*
X88109082Y-72121384D01*
G37*
G36*
X122109082Y-72121384D02*
G01*
X122424639Y-72184152D01*
X122870510Y-72368838D01*
X123271784Y-72636960D01*
X123613040Y-72978216D01*
X123881162Y-73379490D01*
X124065848Y-73825361D01*
X124160000Y-74298696D01*
X124160000Y-74781304D01*
X124065848Y-75254639D01*
X123881162Y-75700510D01*
X123613040Y-76101784D01*
X123271784Y-76443040D01*
X122870510Y-76711162D01*
X122424639Y-76895848D01*
X122187393Y-76943039D01*
X121951305Y-76990000D01*
X121468695Y-76990000D01*
X121232607Y-76943039D01*
X120995361Y-76895848D01*
X120549490Y-76711162D01*
X120148216Y-76443040D01*
X119806960Y-76101784D01*
X119538838Y-75700510D01*
X119354152Y-75254639D01*
X119260000Y-74781304D01*
X119260000Y-74298696D01*
X119354152Y-73825361D01*
X119538838Y-73379490D01*
X119806960Y-72978216D01*
X120148216Y-72636960D01*
X120549490Y-72368838D01*
X120995361Y-72184152D01*
X121310918Y-72121384D01*
X121468695Y-72090000D01*
X121951305Y-72090000D01*
X122109082Y-72121384D01*
G37*
G36*
X66212855Y-70646030D02*
G01*
X66476679Y-70755310D01*
X66476681Y-70755311D01*
X66714117Y-70913960D01*
X66916040Y-71115883D01*
X67074689Y-71353319D01*
X67074690Y-71353321D01*
X67183970Y-71617145D01*
X67239680Y-71897218D01*
X67239680Y-72182782D01*
X67183970Y-72462855D01*
X67092305Y-72684152D01*
X67074689Y-72726681D01*
X66916040Y-72964117D01*
X66714117Y-73166040D01*
X66476681Y-73324689D01*
X66476680Y-73324690D01*
X66476679Y-73324690D01*
X66212855Y-73433970D01*
X65932782Y-73489680D01*
X65647218Y-73489680D01*
X65367145Y-73433970D01*
X65103321Y-73324690D01*
X65103320Y-73324690D01*
X65103319Y-73324689D01*
X64865883Y-73166040D01*
X64663960Y-72964117D01*
X64505311Y-72726681D01*
X64487695Y-72684152D01*
X64396030Y-72462855D01*
X64340320Y-72182782D01*
X64340320Y-71897218D01*
X64396030Y-71617145D01*
X64505310Y-71353321D01*
X64505311Y-71353319D01*
X64663960Y-71115883D01*
X64865883Y-70913960D01*
X65103319Y-70755311D01*
X65103321Y-70755310D01*
X65367145Y-70646030D01*
X65647218Y-70590320D01*
X65932782Y-70590320D01*
X66212855Y-70646030D01*
G37*
G36*
X142919082Y-67541384D02*
G01*
X143234639Y-67604152D01*
X143680510Y-67788838D01*
X144081784Y-68056960D01*
X144423040Y-68398216D01*
X144691162Y-68799490D01*
X144875848Y-69245361D01*
X144970000Y-69718696D01*
X144970000Y-70201304D01*
X144875848Y-70674639D01*
X144691162Y-71120510D01*
X144423040Y-71521784D01*
X144081784Y-71863040D01*
X143680510Y-72131162D01*
X143234639Y-72315848D01*
X142919082Y-72378616D01*
X142761305Y-72410000D01*
X142278695Y-72410000D01*
X142120918Y-72378616D01*
X141805361Y-72315848D01*
X141359490Y-72131162D01*
X140958216Y-71863040D01*
X140616960Y-71521784D01*
X140348838Y-71120510D01*
X140164152Y-70674639D01*
X140070000Y-70201304D01*
X140070000Y-69718696D01*
X140164152Y-69245361D01*
X140348838Y-68799490D01*
X140616960Y-68398216D01*
X140958216Y-68056960D01*
X141359490Y-67788838D01*
X141805361Y-67604152D01*
X142120918Y-67541384D01*
X142278695Y-67510000D01*
X142761305Y-67510000D01*
X142919082Y-67541384D01*
G37*
G36*
X193919082Y-67041384D02*
G01*
X194234639Y-67104152D01*
X194680510Y-67288838D01*
X195081784Y-67556960D01*
X195423040Y-67898216D01*
X195691162Y-68299490D01*
X195875848Y-68745361D01*
X195970000Y-69218696D01*
X195970000Y-69701304D01*
X195875848Y-70174639D01*
X195691162Y-70620510D01*
X195423040Y-71021784D01*
X195081784Y-71363040D01*
X194680510Y-71631162D01*
X194234639Y-71815848D01*
X193997393Y-71863039D01*
X193761305Y-71910000D01*
X193278695Y-71910000D01*
X193042607Y-71863039D01*
X192805361Y-71815848D01*
X192359490Y-71631162D01*
X191958216Y-71363040D01*
X191616960Y-71021784D01*
X191348838Y-70620510D01*
X191164152Y-70174639D01*
X191070000Y-69701304D01*
X191070000Y-69218696D01*
X191164152Y-68745361D01*
X191348838Y-68299490D01*
X191616960Y-67898216D01*
X191958216Y-67556960D01*
X192359490Y-67288838D01*
X192805361Y-67104152D01*
X193120918Y-67041384D01*
X193278695Y-67010000D01*
X193761305Y-67010000D01*
X193919082Y-67041384D01*
G37*
G36*
X91919082Y-67041384D02*
G01*
X92234639Y-67104152D01*
X92680510Y-67288838D01*
X93081784Y-67556960D01*
X93423040Y-67898216D01*
X93691162Y-68299490D01*
X93875848Y-68745361D01*
X93970000Y-69218696D01*
X93970000Y-69701304D01*
X93875848Y-70174639D01*
X93691162Y-70620510D01*
X93423040Y-71021784D01*
X93081784Y-71363040D01*
X92680510Y-71631162D01*
X92234639Y-71815848D01*
X91997393Y-71863039D01*
X91761305Y-71910000D01*
X91278695Y-71910000D01*
X91042607Y-71863039D01*
X90805361Y-71815848D01*
X90359490Y-71631162D01*
X89958216Y-71363040D01*
X89616960Y-71021784D01*
X89348838Y-70620510D01*
X89164152Y-70174639D01*
X89070000Y-69701304D01*
X89070000Y-69218696D01*
X89164152Y-68745361D01*
X89348838Y-68299490D01*
X89616960Y-67898216D01*
X89958216Y-67556960D01*
X90359490Y-67288838D01*
X90805361Y-67104152D01*
X91120918Y-67041384D01*
X91278695Y-67010000D01*
X91761305Y-67010000D01*
X91919082Y-67041384D01*
G37*
G36*
X108919082Y-67041384D02*
G01*
X109234639Y-67104152D01*
X109680510Y-67288838D01*
X110081784Y-67556960D01*
X110423040Y-67898216D01*
X110691162Y-68299490D01*
X110875848Y-68745361D01*
X110970000Y-69218696D01*
X110970000Y-69701304D01*
X110875848Y-70174639D01*
X110691162Y-70620510D01*
X110423040Y-71021784D01*
X110081784Y-71363040D01*
X109680510Y-71631162D01*
X109234639Y-71815848D01*
X108997393Y-71863039D01*
X108761305Y-71910000D01*
X108278695Y-71910000D01*
X108042607Y-71863039D01*
X107805361Y-71815848D01*
X107359490Y-71631162D01*
X106958216Y-71363040D01*
X106616960Y-71021784D01*
X106348838Y-70620510D01*
X106164152Y-70174639D01*
X106070000Y-69701304D01*
X106070000Y-69218696D01*
X106164152Y-68745361D01*
X106348838Y-68299490D01*
X106616960Y-67898216D01*
X106958216Y-67556960D01*
X107359490Y-67288838D01*
X107805361Y-67104152D01*
X108120918Y-67041384D01*
X108278695Y-67010000D01*
X108761305Y-67010000D01*
X108919082Y-67041384D01*
G37*
G36*
X159919082Y-67041384D02*
G01*
X160234639Y-67104152D01*
X160680510Y-67288838D01*
X161081784Y-67556960D01*
X161423040Y-67898216D01*
X161691162Y-68299490D01*
X161875848Y-68745361D01*
X161970000Y-69218696D01*
X161970000Y-69701304D01*
X161875848Y-70174639D01*
X161691162Y-70620510D01*
X161423040Y-71021784D01*
X161081784Y-71363040D01*
X160680510Y-71631162D01*
X160234639Y-71815848D01*
X159997393Y-71863039D01*
X159761305Y-71910000D01*
X159278695Y-71910000D01*
X159042607Y-71863039D01*
X158805361Y-71815848D01*
X158359490Y-71631162D01*
X157958216Y-71363040D01*
X157616960Y-71021784D01*
X157348838Y-70620510D01*
X157164152Y-70174639D01*
X157070000Y-69701304D01*
X157070000Y-69218696D01*
X157164152Y-68745361D01*
X157348838Y-68299490D01*
X157616960Y-67898216D01*
X157958216Y-67556960D01*
X158359490Y-67288838D01*
X158805361Y-67104152D01*
X159120918Y-67041384D01*
X159278695Y-67010000D01*
X159761305Y-67010000D01*
X159919082Y-67041384D01*
G37*
G36*
X125919082Y-67041384D02*
G01*
X126234639Y-67104152D01*
X126680510Y-67288838D01*
X127081784Y-67556960D01*
X127423040Y-67898216D01*
X127691162Y-68299490D01*
X127875848Y-68745361D01*
X127970000Y-69218696D01*
X127970000Y-69701304D01*
X127875848Y-70174639D01*
X127691162Y-70620510D01*
X127423040Y-71021784D01*
X127081784Y-71363040D01*
X126680510Y-71631162D01*
X126234639Y-71815848D01*
X125997393Y-71863039D01*
X125761305Y-71910000D01*
X125278695Y-71910000D01*
X125042607Y-71863039D01*
X124805361Y-71815848D01*
X124359490Y-71631162D01*
X123958216Y-71363040D01*
X123616960Y-71021784D01*
X123348838Y-70620510D01*
X123164152Y-70174639D01*
X123070000Y-69701304D01*
X123070000Y-69218696D01*
X123164152Y-68745361D01*
X123348838Y-68299490D01*
X123616960Y-67898216D01*
X123958216Y-67556960D01*
X124359490Y-67288838D01*
X124805361Y-67104152D01*
X125120918Y-67041384D01*
X125278695Y-67010000D01*
X125761305Y-67010000D01*
X125919082Y-67041384D01*
G37*
G36*
X176919082Y-67041384D02*
G01*
X177234639Y-67104152D01*
X177680510Y-67288838D01*
X178081784Y-67556960D01*
X178423040Y-67898216D01*
X178691162Y-68299490D01*
X178875848Y-68745361D01*
X178970000Y-69218696D01*
X178970000Y-69701304D01*
X178875848Y-70174639D01*
X178691162Y-70620510D01*
X178423040Y-71021784D01*
X178081784Y-71363040D01*
X177680510Y-71631162D01*
X177234639Y-71815848D01*
X176997393Y-71863039D01*
X176761305Y-71910000D01*
X176278695Y-71910000D01*
X176042607Y-71863039D01*
X175805361Y-71815848D01*
X175359490Y-71631162D01*
X174958216Y-71363040D01*
X174616960Y-71021784D01*
X174348838Y-70620510D01*
X174164152Y-70174639D01*
X174070000Y-69701304D01*
X174070000Y-69218696D01*
X174164152Y-68745361D01*
X174348838Y-68299490D01*
X174616960Y-67898216D01*
X174958216Y-67556960D01*
X175359490Y-67288838D01*
X175805361Y-67104152D01*
X176120918Y-67041384D01*
X176278695Y-67010000D01*
X176761305Y-67010000D01*
X176919082Y-67041384D01*
G37*
G36*
X63599877Y-68346605D02*
G01*
X63799875Y-68429447D01*
X63818172Y-68437026D01*
X64014630Y-68568295D01*
X64181705Y-68735370D01*
X64224549Y-68799490D01*
X64312975Y-68931830D01*
X64403395Y-69150123D01*
X64449490Y-69381859D01*
X64449490Y-69618141D01*
X64403395Y-69849877D01*
X64312975Y-70068170D01*
X64312974Y-70068172D01*
X64181705Y-70264630D01*
X64014630Y-70431705D01*
X63818172Y-70562974D01*
X63818171Y-70562975D01*
X63818170Y-70562975D01*
X63599877Y-70653395D01*
X63368141Y-70699490D01*
X63131859Y-70699490D01*
X62900123Y-70653395D01*
X62681830Y-70562975D01*
X62681829Y-70562975D01*
X62681828Y-70562974D01*
X62485370Y-70431705D01*
X62318295Y-70264630D01*
X62187026Y-70068172D01*
X62187025Y-70068170D01*
X62096605Y-69849877D01*
X62050510Y-69618141D01*
X62050510Y-69381859D01*
X62096605Y-69150123D01*
X62187025Y-68931830D01*
X62275452Y-68799490D01*
X62318295Y-68735370D01*
X62485370Y-68568295D01*
X62681828Y-68437026D01*
X62700125Y-68429447D01*
X62900123Y-68346605D01*
X63131859Y-68300510D01*
X63368141Y-68300510D01*
X63599877Y-68346605D01*
G37*
G36*
X66212855Y-65566030D02*
G01*
X66476679Y-65675310D01*
X66476681Y-65675311D01*
X66714117Y-65833960D01*
X66916040Y-66035883D01*
X67074689Y-66273319D01*
X67074690Y-66273321D01*
X67183970Y-66537145D01*
X67239680Y-66817218D01*
X67239680Y-67102782D01*
X67183970Y-67382855D01*
X67092305Y-67604152D01*
X67074689Y-67646681D01*
X66916040Y-67884117D01*
X66714117Y-68086040D01*
X66476681Y-68244689D01*
X66476680Y-68244690D01*
X66476679Y-68244690D01*
X66212855Y-68353970D01*
X65932782Y-68409680D01*
X65647218Y-68409680D01*
X65367145Y-68353970D01*
X65103321Y-68244690D01*
X65103320Y-68244690D01*
X65103319Y-68244689D01*
X64865883Y-68086040D01*
X64663960Y-67884117D01*
X64505311Y-67646681D01*
X64487695Y-67604152D01*
X64396030Y-67382855D01*
X64340320Y-67102782D01*
X64340320Y-66817218D01*
X64396030Y-66537145D01*
X64505310Y-66273321D01*
X64505311Y-66273319D01*
X64663960Y-66035883D01*
X64865883Y-65833960D01*
X65103319Y-65675311D01*
X65103321Y-65675310D01*
X65367145Y-65566030D01*
X65647218Y-65510320D01*
X65932782Y-65510320D01*
X66212855Y-65566030D01*
G37*
G36*
X86862948Y-60725722D02*
G01*
X87126831Y-60835026D01*
X87126833Y-60835027D01*
X87364321Y-60993711D01*
X87566289Y-61195679D01*
X87593933Y-61237052D01*
X87724974Y-61433169D01*
X87834278Y-61697052D01*
X87890000Y-61977186D01*
X87890000Y-62262814D01*
X87834278Y-62542948D01*
X87733483Y-62786289D01*
X87724973Y-62806833D01*
X87566289Y-63044321D01*
X87364321Y-63246289D01*
X87126833Y-63404973D01*
X87126832Y-63404974D01*
X87126831Y-63404974D01*
X86862948Y-63514278D01*
X86582814Y-63570000D01*
X86297186Y-63570000D01*
X86017052Y-63514278D01*
X85753169Y-63404974D01*
X85753168Y-63404974D01*
X85753167Y-63404973D01*
X85515679Y-63246289D01*
X85313711Y-63044321D01*
X85155027Y-62806833D01*
X85146517Y-62786289D01*
X85045722Y-62542948D01*
X84990000Y-62262814D01*
X84990000Y-61977186D01*
X85045722Y-61697052D01*
X85155026Y-61433169D01*
X85286067Y-61237052D01*
X85313711Y-61195679D01*
X85515679Y-60993711D01*
X85753167Y-60835027D01*
X85753169Y-60835026D01*
X86017052Y-60725722D01*
X86297186Y-60670000D01*
X86582814Y-60670000D01*
X86862948Y-60725722D01*
G37*
G36*
X103862948Y-60725722D02*
G01*
X104126831Y-60835026D01*
X104126833Y-60835027D01*
X104364321Y-60993711D01*
X104566289Y-61195679D01*
X104593933Y-61237052D01*
X104724974Y-61433169D01*
X104834278Y-61697052D01*
X104890000Y-61977186D01*
X104890000Y-62262814D01*
X104834278Y-62542948D01*
X104733483Y-62786289D01*
X104724973Y-62806833D01*
X104566289Y-63044321D01*
X104364321Y-63246289D01*
X104126833Y-63404973D01*
X104126832Y-63404974D01*
X104126831Y-63404974D01*
X103862948Y-63514278D01*
X103582814Y-63570000D01*
X103297186Y-63570000D01*
X103017052Y-63514278D01*
X102753169Y-63404974D01*
X102753168Y-63404974D01*
X102753167Y-63404973D01*
X102515679Y-63246289D01*
X102313711Y-63044321D01*
X102155027Y-62806833D01*
X102146517Y-62786289D01*
X102045722Y-62542948D01*
X101990000Y-62262814D01*
X101990000Y-61977186D01*
X102045722Y-61697052D01*
X102155026Y-61433169D01*
X102286067Y-61237052D01*
X102313711Y-61195679D01*
X102515679Y-60993711D01*
X102753167Y-60835027D01*
X102753169Y-60835026D01*
X103017052Y-60725722D01*
X103297186Y-60670000D01*
X103582814Y-60670000D01*
X103862948Y-60725722D01*
G37*
G36*
X162482948Y-60725722D02*
G01*
X162746831Y-60835026D01*
X162746833Y-60835027D01*
X162984321Y-60993711D01*
X163186289Y-61195679D01*
X163213933Y-61237052D01*
X163344974Y-61433169D01*
X163454278Y-61697052D01*
X163510000Y-61977186D01*
X163510000Y-62262814D01*
X163454278Y-62542948D01*
X163353483Y-62786289D01*
X163344973Y-62806833D01*
X163186289Y-63044321D01*
X162984321Y-63246289D01*
X162746833Y-63404973D01*
X162746832Y-63404974D01*
X162746831Y-63404974D01*
X162482948Y-63514278D01*
X162202814Y-63570000D01*
X161917186Y-63570000D01*
X161637052Y-63514278D01*
X161373169Y-63404974D01*
X161373168Y-63404974D01*
X161373167Y-63404973D01*
X161135679Y-63246289D01*
X160933711Y-63044321D01*
X160775027Y-62806833D01*
X160766517Y-62786289D01*
X160665722Y-62542948D01*
X160610000Y-62262814D01*
X160610000Y-61977186D01*
X160665722Y-61697052D01*
X160775026Y-61433169D01*
X160906067Y-61237052D01*
X160933711Y-61195679D01*
X161135679Y-60993711D01*
X161373167Y-60835027D01*
X161373169Y-60835026D01*
X161637052Y-60725722D01*
X161917186Y-60670000D01*
X162202814Y-60670000D01*
X162482948Y-60725722D01*
G37*
G36*
X111482948Y-60725722D02*
G01*
X111746831Y-60835026D01*
X111746833Y-60835027D01*
X111984321Y-60993711D01*
X112186289Y-61195679D01*
X112213933Y-61237052D01*
X112344974Y-61433169D01*
X112454278Y-61697052D01*
X112510000Y-61977186D01*
X112510000Y-62262814D01*
X112454278Y-62542948D01*
X112353483Y-62786289D01*
X112344973Y-62806833D01*
X112186289Y-63044321D01*
X111984321Y-63246289D01*
X111746833Y-63404973D01*
X111746832Y-63404974D01*
X111746831Y-63404974D01*
X111482948Y-63514278D01*
X111202814Y-63570000D01*
X110917186Y-63570000D01*
X110637052Y-63514278D01*
X110373169Y-63404974D01*
X110373168Y-63404974D01*
X110373167Y-63404973D01*
X110135679Y-63246289D01*
X109933711Y-63044321D01*
X109775027Y-62806833D01*
X109766517Y-62786289D01*
X109665722Y-62542948D01*
X109610000Y-62262814D01*
X109610000Y-61977186D01*
X109665722Y-61697052D01*
X109775026Y-61433169D01*
X109906067Y-61237052D01*
X109933711Y-61195679D01*
X110135679Y-60993711D01*
X110373167Y-60835027D01*
X110373169Y-60835026D01*
X110637052Y-60725722D01*
X110917186Y-60670000D01*
X111202814Y-60670000D01*
X111482948Y-60725722D01*
G37*
G36*
X120862948Y-60725722D02*
G01*
X121126831Y-60835026D01*
X121126833Y-60835027D01*
X121364321Y-60993711D01*
X121566289Y-61195679D01*
X121593933Y-61237052D01*
X121724974Y-61433169D01*
X121834278Y-61697052D01*
X121890000Y-61977186D01*
X121890000Y-62262814D01*
X121834278Y-62542948D01*
X121733483Y-62786289D01*
X121724973Y-62806833D01*
X121566289Y-63044321D01*
X121364321Y-63246289D01*
X121126833Y-63404973D01*
X121126832Y-63404974D01*
X121126831Y-63404974D01*
X120862948Y-63514278D01*
X120582814Y-63570000D01*
X120297186Y-63570000D01*
X120017052Y-63514278D01*
X119753169Y-63404974D01*
X119753168Y-63404974D01*
X119753167Y-63404973D01*
X119515679Y-63246289D01*
X119313711Y-63044321D01*
X119155027Y-62806833D01*
X119146517Y-62786289D01*
X119045722Y-62542948D01*
X118990000Y-62262814D01*
X118990000Y-61977186D01*
X119045722Y-61697052D01*
X119155026Y-61433169D01*
X119286067Y-61237052D01*
X119313711Y-61195679D01*
X119515679Y-60993711D01*
X119753167Y-60835027D01*
X119753169Y-60835026D01*
X120017052Y-60725722D01*
X120297186Y-60670000D01*
X120582814Y-60670000D01*
X120862948Y-60725722D01*
G37*
G36*
X94482948Y-60725722D02*
G01*
X94746831Y-60835026D01*
X94746833Y-60835027D01*
X94984321Y-60993711D01*
X95186289Y-61195679D01*
X95213933Y-61237052D01*
X95344974Y-61433169D01*
X95454278Y-61697052D01*
X95510000Y-61977186D01*
X95510000Y-62262814D01*
X95454278Y-62542948D01*
X95353483Y-62786289D01*
X95344973Y-62806833D01*
X95186289Y-63044321D01*
X94984321Y-63246289D01*
X94746833Y-63404973D01*
X94746832Y-63404974D01*
X94746831Y-63404974D01*
X94482948Y-63514278D01*
X94202814Y-63570000D01*
X93917186Y-63570000D01*
X93637052Y-63514278D01*
X93373169Y-63404974D01*
X93373168Y-63404974D01*
X93373167Y-63404973D01*
X93135679Y-63246289D01*
X92933711Y-63044321D01*
X92775027Y-62806833D01*
X92766517Y-62786289D01*
X92665722Y-62542948D01*
X92610000Y-62262814D01*
X92610000Y-61977186D01*
X92665722Y-61697052D01*
X92775026Y-61433169D01*
X92906067Y-61237052D01*
X92933711Y-61195679D01*
X93135679Y-60993711D01*
X93373167Y-60835027D01*
X93373169Y-60835026D01*
X93637052Y-60725722D01*
X93917186Y-60670000D01*
X94202814Y-60670000D01*
X94482948Y-60725722D01*
G37*
G36*
X137862948Y-60725722D02*
G01*
X138126831Y-60835026D01*
X138126833Y-60835027D01*
X138364321Y-60993711D01*
X138566289Y-61195679D01*
X138593933Y-61237052D01*
X138724974Y-61433169D01*
X138834278Y-61697052D01*
X138890000Y-61977186D01*
X138890000Y-62262814D01*
X138834278Y-62542948D01*
X138733483Y-62786289D01*
X138724973Y-62806833D01*
X138566289Y-63044321D01*
X138364321Y-63246289D01*
X138126833Y-63404973D01*
X138126832Y-63404974D01*
X138126831Y-63404974D01*
X137862948Y-63514278D01*
X137582814Y-63570000D01*
X137297186Y-63570000D01*
X137017052Y-63514278D01*
X136753169Y-63404974D01*
X136753168Y-63404974D01*
X136753167Y-63404973D01*
X136515679Y-63246289D01*
X136313711Y-63044321D01*
X136155027Y-62806833D01*
X136146517Y-62786289D01*
X136045722Y-62542948D01*
X135990000Y-62262814D01*
X135990000Y-61977186D01*
X136045722Y-61697052D01*
X136155026Y-61433169D01*
X136286067Y-61237052D01*
X136313711Y-61195679D01*
X136515679Y-60993711D01*
X136753167Y-60835027D01*
X136753169Y-60835026D01*
X137017052Y-60725722D01*
X137297186Y-60670000D01*
X137582814Y-60670000D01*
X137862948Y-60725722D01*
G37*
G36*
X145482948Y-60725722D02*
G01*
X145746831Y-60835026D01*
X145746833Y-60835027D01*
X145984321Y-60993711D01*
X146186289Y-61195679D01*
X146213933Y-61237052D01*
X146344974Y-61433169D01*
X146454278Y-61697052D01*
X146510000Y-61977186D01*
X146510000Y-62262814D01*
X146454278Y-62542948D01*
X146353483Y-62786289D01*
X146344973Y-62806833D01*
X146186289Y-63044321D01*
X145984321Y-63246289D01*
X145746833Y-63404973D01*
X145746832Y-63404974D01*
X145746831Y-63404974D01*
X145482948Y-63514278D01*
X145202814Y-63570000D01*
X144917186Y-63570000D01*
X144637052Y-63514278D01*
X144373169Y-63404974D01*
X144373168Y-63404974D01*
X144373167Y-63404973D01*
X144135679Y-63246289D01*
X143933711Y-63044321D01*
X143775027Y-62806833D01*
X143766517Y-62786289D01*
X143665722Y-62542948D01*
X143610000Y-62262814D01*
X143610000Y-61977186D01*
X143665722Y-61697052D01*
X143775026Y-61433169D01*
X143906067Y-61237052D01*
X143933711Y-61195679D01*
X144135679Y-60993711D01*
X144373167Y-60835027D01*
X144373169Y-60835026D01*
X144637052Y-60725722D01*
X144917186Y-60670000D01*
X145202814Y-60670000D01*
X145482948Y-60725722D01*
G37*
G36*
X171862948Y-60725722D02*
G01*
X172126831Y-60835026D01*
X172126833Y-60835027D01*
X172364321Y-60993711D01*
X172566289Y-61195679D01*
X172593933Y-61237052D01*
X172724974Y-61433169D01*
X172834278Y-61697052D01*
X172890000Y-61977186D01*
X172890000Y-62262814D01*
X172834278Y-62542948D01*
X172733483Y-62786289D01*
X172724973Y-62806833D01*
X172566289Y-63044321D01*
X172364321Y-63246289D01*
X172126833Y-63404973D01*
X172126832Y-63404974D01*
X172126831Y-63404974D01*
X171862948Y-63514278D01*
X171582814Y-63570000D01*
X171297186Y-63570000D01*
X171017052Y-63514278D01*
X170753169Y-63404974D01*
X170753168Y-63404974D01*
X170753167Y-63404973D01*
X170515679Y-63246289D01*
X170313711Y-63044321D01*
X170155027Y-62806833D01*
X170146517Y-62786289D01*
X170045722Y-62542948D01*
X169990000Y-62262814D01*
X169990000Y-61977186D01*
X170045722Y-61697052D01*
X170155026Y-61433169D01*
X170286067Y-61237052D01*
X170313711Y-61195679D01*
X170515679Y-60993711D01*
X170753167Y-60835027D01*
X170753169Y-60835026D01*
X171017052Y-60725722D01*
X171297186Y-60670000D01*
X171582814Y-60670000D01*
X171862948Y-60725722D01*
G37*
G36*
X179482948Y-60725722D02*
G01*
X179746831Y-60835026D01*
X179746833Y-60835027D01*
X179984321Y-60993711D01*
X180186289Y-61195679D01*
X180213933Y-61237052D01*
X180344974Y-61433169D01*
X180454278Y-61697052D01*
X180510000Y-61977186D01*
X180510000Y-62262814D01*
X180454278Y-62542948D01*
X180353483Y-62786289D01*
X180344973Y-62806833D01*
X180186289Y-63044321D01*
X179984321Y-63246289D01*
X179746833Y-63404973D01*
X179746832Y-63404974D01*
X179746831Y-63404974D01*
X179482948Y-63514278D01*
X179202814Y-63570000D01*
X178917186Y-63570000D01*
X178637052Y-63514278D01*
X178373169Y-63404974D01*
X178373168Y-63404974D01*
X178373167Y-63404973D01*
X178135679Y-63246289D01*
X177933711Y-63044321D01*
X177775027Y-62806833D01*
X177766517Y-62786289D01*
X177665722Y-62542948D01*
X177610000Y-62262814D01*
X177610000Y-61977186D01*
X177665722Y-61697052D01*
X177775026Y-61433169D01*
X177906067Y-61237052D01*
X177933711Y-61195679D01*
X178135679Y-60993711D01*
X178373167Y-60835027D01*
X178373169Y-60835026D01*
X178637052Y-60725722D01*
X178917186Y-60670000D01*
X179202814Y-60670000D01*
X179482948Y-60725722D01*
G37*
G36*
X154862948Y-60725722D02*
G01*
X155126831Y-60835026D01*
X155126833Y-60835027D01*
X155364321Y-60993711D01*
X155566289Y-61195679D01*
X155593933Y-61237052D01*
X155724974Y-61433169D01*
X155834278Y-61697052D01*
X155890000Y-61977186D01*
X155890000Y-62262814D01*
X155834278Y-62542948D01*
X155733483Y-62786289D01*
X155724973Y-62806833D01*
X155566289Y-63044321D01*
X155364321Y-63246289D01*
X155126833Y-63404973D01*
X155126832Y-63404974D01*
X155126831Y-63404974D01*
X154862948Y-63514278D01*
X154582814Y-63570000D01*
X154297186Y-63570000D01*
X154017052Y-63514278D01*
X153753169Y-63404974D01*
X153753168Y-63404974D01*
X153753167Y-63404973D01*
X153515679Y-63246289D01*
X153313711Y-63044321D01*
X153155027Y-62806833D01*
X153146517Y-62786289D01*
X153045722Y-62542948D01*
X152990000Y-62262814D01*
X152990000Y-61977186D01*
X153045722Y-61697052D01*
X153155026Y-61433169D01*
X153286067Y-61237052D01*
X153313711Y-61195679D01*
X153515679Y-60993711D01*
X153753167Y-60835027D01*
X153753169Y-60835026D01*
X154017052Y-60725722D01*
X154297186Y-60670000D01*
X154582814Y-60670000D01*
X154862948Y-60725722D01*
G37*
G36*
X128482948Y-60725722D02*
G01*
X128746831Y-60835026D01*
X128746833Y-60835027D01*
X128984321Y-60993711D01*
X129186289Y-61195679D01*
X129213933Y-61237052D01*
X129344974Y-61433169D01*
X129454278Y-61697052D01*
X129510000Y-61977186D01*
X129510000Y-62262814D01*
X129454278Y-62542948D01*
X129353483Y-62786289D01*
X129344973Y-62806833D01*
X129186289Y-63044321D01*
X128984321Y-63246289D01*
X128746833Y-63404973D01*
X128746832Y-63404974D01*
X128746831Y-63404974D01*
X128482948Y-63514278D01*
X128202814Y-63570000D01*
X127917186Y-63570000D01*
X127637052Y-63514278D01*
X127373169Y-63404974D01*
X127373168Y-63404974D01*
X127373167Y-63404973D01*
X127135679Y-63246289D01*
X126933711Y-63044321D01*
X126775027Y-62806833D01*
X126766517Y-62786289D01*
X126665722Y-62542948D01*
X126610000Y-62262814D01*
X126610000Y-61977186D01*
X126665722Y-61697052D01*
X126775026Y-61433169D01*
X126906067Y-61237052D01*
X126933711Y-61195679D01*
X127135679Y-60993711D01*
X127373167Y-60835027D01*
X127373169Y-60835026D01*
X127637052Y-60725722D01*
X127917186Y-60670000D01*
X128202814Y-60670000D01*
X128482948Y-60725722D01*
G37*
G36*
X196482948Y-60725722D02*
G01*
X196746831Y-60835026D01*
X196746833Y-60835027D01*
X196984321Y-60993711D01*
X197186289Y-61195679D01*
X197213933Y-61237052D01*
X197344974Y-61433169D01*
X197454278Y-61697052D01*
X197510000Y-61977186D01*
X197510000Y-62262814D01*
X197454278Y-62542948D01*
X197353483Y-62786289D01*
X197344973Y-62806833D01*
X197186289Y-63044321D01*
X196984321Y-63246289D01*
X196746833Y-63404973D01*
X196746832Y-63404974D01*
X196746831Y-63404974D01*
X196482948Y-63514278D01*
X196202814Y-63570000D01*
X195917186Y-63570000D01*
X195637052Y-63514278D01*
X195373169Y-63404974D01*
X195373168Y-63404974D01*
X195373167Y-63404973D01*
X195135679Y-63246289D01*
X194933711Y-63044321D01*
X194775027Y-62806833D01*
X194766517Y-62786289D01*
X194665722Y-62542948D01*
X194610000Y-62262814D01*
X194610000Y-61977186D01*
X194665722Y-61697052D01*
X194775026Y-61433169D01*
X194906067Y-61237052D01*
X194933711Y-61195679D01*
X195135679Y-60993711D01*
X195373167Y-60835027D01*
X195373169Y-60835026D01*
X195637052Y-60725722D01*
X195917186Y-60670000D01*
X196202814Y-60670000D01*
X196482948Y-60725722D01*
G37*
G36*
X188862948Y-60725722D02*
G01*
X189126831Y-60835026D01*
X189126833Y-60835027D01*
X189364321Y-60993711D01*
X189566289Y-61195679D01*
X189593933Y-61237052D01*
X189724974Y-61433169D01*
X189834278Y-61697052D01*
X189890000Y-61977186D01*
X189890000Y-62262814D01*
X189834278Y-62542948D01*
X189733483Y-62786289D01*
X189724973Y-62806833D01*
X189566289Y-63044321D01*
X189364321Y-63246289D01*
X189126833Y-63404973D01*
X189126832Y-63404974D01*
X189126831Y-63404974D01*
X188862948Y-63514278D01*
X188582814Y-63570000D01*
X188297186Y-63570000D01*
X188017052Y-63514278D01*
X187753169Y-63404974D01*
X187753168Y-63404974D01*
X187753167Y-63404973D01*
X187515679Y-63246289D01*
X187313711Y-63044321D01*
X187155027Y-62806833D01*
X187146517Y-62786289D01*
X187045722Y-62542948D01*
X186990000Y-62262814D01*
X186990000Y-61977186D01*
X187045722Y-61697052D01*
X187155026Y-61433169D01*
X187286067Y-61237052D01*
X187313711Y-61195679D01*
X187515679Y-60993711D01*
X187753167Y-60835027D01*
X187753169Y-60835026D01*
X188017052Y-60725722D01*
X188297186Y-60670000D01*
X188582814Y-60670000D01*
X188862948Y-60725722D01*
G37*
G36*
X71862948Y-60265722D02*
G01*
X72126831Y-60375026D01*
X72126833Y-60375027D01*
X72364321Y-60533711D01*
X72566289Y-60735679D01*
X72632670Y-60835026D01*
X72724974Y-60973169D01*
X72834278Y-61237052D01*
X72890000Y-61517186D01*
X72890000Y-61802814D01*
X72834278Y-62082948D01*
X72759775Y-62262813D01*
X72724973Y-62346833D01*
X72566289Y-62584321D01*
X72364321Y-62786289D01*
X72126833Y-62944973D01*
X72126832Y-62944974D01*
X72126831Y-62944974D01*
X71862948Y-63054278D01*
X71582814Y-63110000D01*
X71297186Y-63110000D01*
X71017052Y-63054278D01*
X70753169Y-62944974D01*
X70753168Y-62944974D01*
X70753167Y-62944973D01*
X70515679Y-62786289D01*
X70313711Y-62584321D01*
X70155027Y-62346833D01*
X70120225Y-62262813D01*
X70045722Y-62082948D01*
X69990000Y-61802814D01*
X69990000Y-61517186D01*
X70045722Y-61237052D01*
X70155026Y-60973169D01*
X70247330Y-60835026D01*
X70313711Y-60735679D01*
X70515679Y-60533711D01*
X70753167Y-60375027D01*
X70753169Y-60375026D01*
X71017052Y-60265722D01*
X71297186Y-60210000D01*
X71582814Y-60210000D01*
X71862948Y-60265722D01*
G37*
G36*
X79482948Y-60265722D02*
G01*
X79746831Y-60375026D01*
X79746833Y-60375027D01*
X79984321Y-60533711D01*
X80186289Y-60735679D01*
X80252670Y-60835026D01*
X80344974Y-60973169D01*
X80454278Y-61237052D01*
X80510000Y-61517186D01*
X80510000Y-61802814D01*
X80454278Y-62082948D01*
X80379775Y-62262813D01*
X80344973Y-62346833D01*
X80186289Y-62584321D01*
X79984321Y-62786289D01*
X79746833Y-62944973D01*
X79746832Y-62944974D01*
X79746831Y-62944974D01*
X79482948Y-63054278D01*
X79202814Y-63110000D01*
X78917186Y-63110000D01*
X78637052Y-63054278D01*
X78373169Y-62944974D01*
X78373168Y-62944974D01*
X78373167Y-62944973D01*
X78135679Y-62786289D01*
X77933711Y-62584321D01*
X77775027Y-62346833D01*
X77740225Y-62262813D01*
X77665722Y-62082948D01*
X77610000Y-61802814D01*
X77610000Y-61517186D01*
X77665722Y-61237052D01*
X77775026Y-60973169D01*
X77867330Y-60835026D01*
X77933711Y-60735679D01*
X78135679Y-60533711D01*
X78373167Y-60375027D01*
X78373169Y-60375026D01*
X78637052Y-60265722D01*
X78917186Y-60210000D01*
X79202814Y-60210000D01*
X79482948Y-60265722D01*
G37*
G36*
X71862948Y-55185722D02*
G01*
X72126831Y-55295026D01*
X72126833Y-55295027D01*
X72364321Y-55453711D01*
X72566289Y-55655679D01*
X72724973Y-55893167D01*
X72724974Y-55893169D01*
X72834278Y-56157052D01*
X72890000Y-56437186D01*
X72890000Y-56722814D01*
X72834278Y-57002948D01*
X72724974Y-57266831D01*
X72724973Y-57266833D01*
X72566289Y-57504321D01*
X72364321Y-57706289D01*
X72126833Y-57864973D01*
X72126832Y-57864974D01*
X72126831Y-57864974D01*
X71862948Y-57974278D01*
X71582814Y-58030000D01*
X71297186Y-58030000D01*
X71017052Y-57974278D01*
X70753169Y-57864974D01*
X70753168Y-57864974D01*
X70753167Y-57864973D01*
X70515679Y-57706289D01*
X70313711Y-57504321D01*
X70155027Y-57266833D01*
X70155026Y-57266831D01*
X70045722Y-57002948D01*
X69990000Y-56722814D01*
X69990000Y-56437186D01*
X70045722Y-56157052D01*
X70155026Y-55893169D01*
X70155027Y-55893167D01*
X70313711Y-55655679D01*
X70515679Y-55453711D01*
X70753167Y-55295027D01*
X70753169Y-55295026D01*
X71017052Y-55185722D01*
X71297186Y-55130000D01*
X71582814Y-55130000D01*
X71862948Y-55185722D01*
G37*
G36*
X79482948Y-55185722D02*
G01*
X79746831Y-55295026D01*
X79746833Y-55295027D01*
X79984321Y-55453711D01*
X80186289Y-55655679D01*
X80344973Y-55893167D01*
X80344974Y-55893169D01*
X80454278Y-56157052D01*
X80510000Y-56437186D01*
X80510000Y-56722814D01*
X80454278Y-57002948D01*
X80344974Y-57266831D01*
X80344973Y-57266833D01*
X80186289Y-57504321D01*
X79984321Y-57706289D01*
X79746833Y-57864973D01*
X79746832Y-57864974D01*
X79746831Y-57864974D01*
X79482948Y-57974278D01*
X79202814Y-58030000D01*
X78917186Y-58030000D01*
X78637052Y-57974278D01*
X78373169Y-57864974D01*
X78373168Y-57864974D01*
X78373167Y-57864973D01*
X78135679Y-57706289D01*
X77933711Y-57504321D01*
X77775027Y-57266833D01*
X77775026Y-57266831D01*
X77665722Y-57002948D01*
X77610000Y-56722814D01*
X77610000Y-56437186D01*
X77665722Y-56157052D01*
X77775026Y-55893169D01*
X77775027Y-55893167D01*
X77933711Y-55655679D01*
X78135679Y-55453711D01*
X78373167Y-55295027D01*
X78373169Y-55295026D01*
X78637052Y-55185722D01*
X78917186Y-55130000D01*
X79202814Y-55130000D01*
X79482948Y-55185722D01*
G37*
G36*
X162482948Y-53105722D02*
G01*
X162746831Y-53215026D01*
X162746833Y-53215027D01*
X162984321Y-53373711D01*
X163186289Y-53575679D01*
X163344973Y-53813167D01*
X163344974Y-53813169D01*
X163454278Y-54077052D01*
X163510000Y-54357186D01*
X163510000Y-54642814D01*
X163454278Y-54922948D01*
X163368514Y-55130000D01*
X163344973Y-55186833D01*
X163186289Y-55424321D01*
X162984321Y-55626289D01*
X162746833Y-55784973D01*
X162746832Y-55784974D01*
X162746831Y-55784974D01*
X162482948Y-55894278D01*
X162202814Y-55950000D01*
X161917186Y-55950000D01*
X161637052Y-55894278D01*
X161373169Y-55784974D01*
X161373168Y-55784974D01*
X161373167Y-55784973D01*
X161135679Y-55626289D01*
X160933711Y-55424321D01*
X160775027Y-55186833D01*
X160751486Y-55130000D01*
X160665722Y-54922948D01*
X160610000Y-54642814D01*
X160610000Y-54357186D01*
X160665722Y-54077052D01*
X160775026Y-53813169D01*
X160775027Y-53813167D01*
X160933711Y-53575679D01*
X161135679Y-53373711D01*
X161373167Y-53215027D01*
X161373169Y-53215026D01*
X161637052Y-53105722D01*
X161917186Y-53050000D01*
X162202814Y-53050000D01*
X162482948Y-53105722D01*
G37*
G36*
X103862948Y-53105722D02*
G01*
X104126831Y-53215026D01*
X104126833Y-53215027D01*
X104364321Y-53373711D01*
X104566289Y-53575679D01*
X104724973Y-53813167D01*
X104724974Y-53813169D01*
X104834278Y-54077052D01*
X104890000Y-54357186D01*
X104890000Y-54642814D01*
X104834278Y-54922948D01*
X104748514Y-55130000D01*
X104724973Y-55186833D01*
X104566289Y-55424321D01*
X104364321Y-55626289D01*
X104126833Y-55784973D01*
X104126832Y-55784974D01*
X104126831Y-55784974D01*
X103862948Y-55894278D01*
X103582814Y-55950000D01*
X103297186Y-55950000D01*
X103017052Y-55894278D01*
X102753169Y-55784974D01*
X102753168Y-55784974D01*
X102753167Y-55784973D01*
X102515679Y-55626289D01*
X102313711Y-55424321D01*
X102155027Y-55186833D01*
X102131486Y-55130000D01*
X102045722Y-54922948D01*
X101990000Y-54642814D01*
X101990000Y-54357186D01*
X102045722Y-54077052D01*
X102155026Y-53813169D01*
X102155027Y-53813167D01*
X102313711Y-53575679D01*
X102515679Y-53373711D01*
X102753167Y-53215027D01*
X102753169Y-53215026D01*
X103017052Y-53105722D01*
X103297186Y-53050000D01*
X103582814Y-53050000D01*
X103862948Y-53105722D01*
G37*
G36*
X179482948Y-53105722D02*
G01*
X179746831Y-53215026D01*
X179746833Y-53215027D01*
X179984321Y-53373711D01*
X180186289Y-53575679D01*
X180344973Y-53813167D01*
X180344974Y-53813169D01*
X180454278Y-54077052D01*
X180510000Y-54357186D01*
X180510000Y-54642814D01*
X180454278Y-54922948D01*
X180368514Y-55130000D01*
X180344973Y-55186833D01*
X180186289Y-55424321D01*
X179984321Y-55626289D01*
X179746833Y-55784973D01*
X179746832Y-55784974D01*
X179746831Y-55784974D01*
X179482948Y-55894278D01*
X179202814Y-55950000D01*
X178917186Y-55950000D01*
X178637052Y-55894278D01*
X178373169Y-55784974D01*
X178373168Y-55784974D01*
X178373167Y-55784973D01*
X178135679Y-55626289D01*
X177933711Y-55424321D01*
X177775027Y-55186833D01*
X177751486Y-55130000D01*
X177665722Y-54922948D01*
X177610000Y-54642814D01*
X177610000Y-54357186D01*
X177665722Y-54077052D01*
X177775026Y-53813169D01*
X177775027Y-53813167D01*
X177933711Y-53575679D01*
X178135679Y-53373711D01*
X178373167Y-53215027D01*
X178373169Y-53215026D01*
X178637052Y-53105722D01*
X178917186Y-53050000D01*
X179202814Y-53050000D01*
X179482948Y-53105722D01*
G37*
G36*
X171862948Y-53105722D02*
G01*
X172126831Y-53215026D01*
X172126833Y-53215027D01*
X172364321Y-53373711D01*
X172566289Y-53575679D01*
X172724973Y-53813167D01*
X172724974Y-53813169D01*
X172834278Y-54077052D01*
X172890000Y-54357186D01*
X172890000Y-54642814D01*
X172834278Y-54922948D01*
X172748514Y-55130000D01*
X172724973Y-55186833D01*
X172566289Y-55424321D01*
X172364321Y-55626289D01*
X172126833Y-55784973D01*
X172126832Y-55784974D01*
X172126831Y-55784974D01*
X171862948Y-55894278D01*
X171582814Y-55950000D01*
X171297186Y-55950000D01*
X171017052Y-55894278D01*
X170753169Y-55784974D01*
X170753168Y-55784974D01*
X170753167Y-55784973D01*
X170515679Y-55626289D01*
X170313711Y-55424321D01*
X170155027Y-55186833D01*
X170131486Y-55130000D01*
X170045722Y-54922948D01*
X169990000Y-54642814D01*
X169990000Y-54357186D01*
X170045722Y-54077052D01*
X170155026Y-53813169D01*
X170155027Y-53813167D01*
X170313711Y-53575679D01*
X170515679Y-53373711D01*
X170753167Y-53215027D01*
X170753169Y-53215026D01*
X171017052Y-53105722D01*
X171297186Y-53050000D01*
X171582814Y-53050000D01*
X171862948Y-53105722D01*
G37*
G36*
X137862948Y-53105722D02*
G01*
X138126831Y-53215026D01*
X138126833Y-53215027D01*
X138364321Y-53373711D01*
X138566289Y-53575679D01*
X138724973Y-53813167D01*
X138724974Y-53813169D01*
X138834278Y-54077052D01*
X138890000Y-54357186D01*
X138890000Y-54642814D01*
X138834278Y-54922948D01*
X138748514Y-55130000D01*
X138724973Y-55186833D01*
X138566289Y-55424321D01*
X138364321Y-55626289D01*
X138126833Y-55784973D01*
X138126832Y-55784974D01*
X138126831Y-55784974D01*
X137862948Y-55894278D01*
X137582814Y-55950000D01*
X137297186Y-55950000D01*
X137017052Y-55894278D01*
X136753169Y-55784974D01*
X136753168Y-55784974D01*
X136753167Y-55784973D01*
X136515679Y-55626289D01*
X136313711Y-55424321D01*
X136155027Y-55186833D01*
X136131486Y-55130000D01*
X136045722Y-54922948D01*
X135990000Y-54642814D01*
X135990000Y-54357186D01*
X136045722Y-54077052D01*
X136155026Y-53813169D01*
X136155027Y-53813167D01*
X136313711Y-53575679D01*
X136515679Y-53373711D01*
X136753167Y-53215027D01*
X136753169Y-53215026D01*
X137017052Y-53105722D01*
X137297186Y-53050000D01*
X137582814Y-53050000D01*
X137862948Y-53105722D01*
G37*
G36*
X111482948Y-53105722D02*
G01*
X111746831Y-53215026D01*
X111746833Y-53215027D01*
X111984321Y-53373711D01*
X112186289Y-53575679D01*
X112344973Y-53813167D01*
X112344974Y-53813169D01*
X112454278Y-54077052D01*
X112510000Y-54357186D01*
X112510000Y-54642814D01*
X112454278Y-54922948D01*
X112368514Y-55130000D01*
X112344973Y-55186833D01*
X112186289Y-55424321D01*
X111984321Y-55626289D01*
X111746833Y-55784973D01*
X111746832Y-55784974D01*
X111746831Y-55784974D01*
X111482948Y-55894278D01*
X111202814Y-55950000D01*
X110917186Y-55950000D01*
X110637052Y-55894278D01*
X110373169Y-55784974D01*
X110373168Y-55784974D01*
X110373167Y-55784973D01*
X110135679Y-55626289D01*
X109933711Y-55424321D01*
X109775027Y-55186833D01*
X109751486Y-55130000D01*
X109665722Y-54922948D01*
X109610000Y-54642814D01*
X109610000Y-54357186D01*
X109665722Y-54077052D01*
X109775026Y-53813169D01*
X109775027Y-53813167D01*
X109933711Y-53575679D01*
X110135679Y-53373711D01*
X110373167Y-53215027D01*
X110373169Y-53215026D01*
X110637052Y-53105722D01*
X110917186Y-53050000D01*
X111202814Y-53050000D01*
X111482948Y-53105722D01*
G37*
G36*
X94482948Y-53105722D02*
G01*
X94746831Y-53215026D01*
X94746833Y-53215027D01*
X94984321Y-53373711D01*
X95186289Y-53575679D01*
X95344973Y-53813167D01*
X95344974Y-53813169D01*
X95454278Y-54077052D01*
X95510000Y-54357186D01*
X95510000Y-54642814D01*
X95454278Y-54922948D01*
X95368514Y-55130000D01*
X95344973Y-55186833D01*
X95186289Y-55424321D01*
X94984321Y-55626289D01*
X94746833Y-55784973D01*
X94746832Y-55784974D01*
X94746831Y-55784974D01*
X94482948Y-55894278D01*
X94202814Y-55950000D01*
X93917186Y-55950000D01*
X93637052Y-55894278D01*
X93373169Y-55784974D01*
X93373168Y-55784974D01*
X93373167Y-55784973D01*
X93135679Y-55626289D01*
X92933711Y-55424321D01*
X92775027Y-55186833D01*
X92751486Y-55130000D01*
X92665722Y-54922948D01*
X92610000Y-54642814D01*
X92610000Y-54357186D01*
X92665722Y-54077052D01*
X92775026Y-53813169D01*
X92775027Y-53813167D01*
X92933711Y-53575679D01*
X93135679Y-53373711D01*
X93373167Y-53215027D01*
X93373169Y-53215026D01*
X93637052Y-53105722D01*
X93917186Y-53050000D01*
X94202814Y-53050000D01*
X94482948Y-53105722D01*
G37*
G36*
X188862948Y-53105722D02*
G01*
X189126831Y-53215026D01*
X189126833Y-53215027D01*
X189364321Y-53373711D01*
X189566289Y-53575679D01*
X189724973Y-53813167D01*
X189724974Y-53813169D01*
X189834278Y-54077052D01*
X189890000Y-54357186D01*
X189890000Y-54642814D01*
X189834278Y-54922948D01*
X189748514Y-55130000D01*
X189724973Y-55186833D01*
X189566289Y-55424321D01*
X189364321Y-55626289D01*
X189126833Y-55784973D01*
X189126832Y-55784974D01*
X189126831Y-55784974D01*
X188862948Y-55894278D01*
X188582814Y-55950000D01*
X188297186Y-55950000D01*
X188017052Y-55894278D01*
X187753169Y-55784974D01*
X187753168Y-55784974D01*
X187753167Y-55784973D01*
X187515679Y-55626289D01*
X187313711Y-55424321D01*
X187155027Y-55186833D01*
X187131486Y-55130000D01*
X187045722Y-54922948D01*
X186990000Y-54642814D01*
X186990000Y-54357186D01*
X187045722Y-54077052D01*
X187155026Y-53813169D01*
X187155027Y-53813167D01*
X187313711Y-53575679D01*
X187515679Y-53373711D01*
X187753167Y-53215027D01*
X187753169Y-53215026D01*
X188017052Y-53105722D01*
X188297186Y-53050000D01*
X188582814Y-53050000D01*
X188862948Y-53105722D01*
G37*
G36*
X196482948Y-53105722D02*
G01*
X196746831Y-53215026D01*
X196746833Y-53215027D01*
X196984321Y-53373711D01*
X197186289Y-53575679D01*
X197344973Y-53813167D01*
X197344974Y-53813169D01*
X197454278Y-54077052D01*
X197510000Y-54357186D01*
X197510000Y-54642814D01*
X197454278Y-54922948D01*
X197368514Y-55130000D01*
X197344973Y-55186833D01*
X197186289Y-55424321D01*
X196984321Y-55626289D01*
X196746833Y-55784973D01*
X196746832Y-55784974D01*
X196746831Y-55784974D01*
X196482948Y-55894278D01*
X196202814Y-55950000D01*
X195917186Y-55950000D01*
X195637052Y-55894278D01*
X195373169Y-55784974D01*
X195373168Y-55784974D01*
X195373167Y-55784973D01*
X195135679Y-55626289D01*
X194933711Y-55424321D01*
X194775027Y-55186833D01*
X194751486Y-55130000D01*
X194665722Y-54922948D01*
X194610000Y-54642814D01*
X194610000Y-54357186D01*
X194665722Y-54077052D01*
X194775026Y-53813169D01*
X194775027Y-53813167D01*
X194933711Y-53575679D01*
X195135679Y-53373711D01*
X195373167Y-53215027D01*
X195373169Y-53215026D01*
X195637052Y-53105722D01*
X195917186Y-53050000D01*
X196202814Y-53050000D01*
X196482948Y-53105722D01*
G37*
G36*
X120862948Y-53105722D02*
G01*
X121126831Y-53215026D01*
X121126833Y-53215027D01*
X121364321Y-53373711D01*
X121566289Y-53575679D01*
X121724973Y-53813167D01*
X121724974Y-53813169D01*
X121834278Y-54077052D01*
X121890000Y-54357186D01*
X121890000Y-54642814D01*
X121834278Y-54922948D01*
X121748514Y-55130000D01*
X121724973Y-55186833D01*
X121566289Y-55424321D01*
X121364321Y-55626289D01*
X121126833Y-55784973D01*
X121126832Y-55784974D01*
X121126831Y-55784974D01*
X120862948Y-55894278D01*
X120582814Y-55950000D01*
X120297186Y-55950000D01*
X120017052Y-55894278D01*
X119753169Y-55784974D01*
X119753168Y-55784974D01*
X119753167Y-55784973D01*
X119515679Y-55626289D01*
X119313711Y-55424321D01*
X119155027Y-55186833D01*
X119131486Y-55130000D01*
X119045722Y-54922948D01*
X118990000Y-54642814D01*
X118990000Y-54357186D01*
X119045722Y-54077052D01*
X119155026Y-53813169D01*
X119155027Y-53813167D01*
X119313711Y-53575679D01*
X119515679Y-53373711D01*
X119753167Y-53215027D01*
X119753169Y-53215026D01*
X120017052Y-53105722D01*
X120297186Y-53050000D01*
X120582814Y-53050000D01*
X120862948Y-53105722D01*
G37*
G36*
X128482948Y-53105722D02*
G01*
X128746831Y-53215026D01*
X128746833Y-53215027D01*
X128984321Y-53373711D01*
X129186289Y-53575679D01*
X129344973Y-53813167D01*
X129344974Y-53813169D01*
X129454278Y-54077052D01*
X129510000Y-54357186D01*
X129510000Y-54642814D01*
X129454278Y-54922948D01*
X129368514Y-55130000D01*
X129344973Y-55186833D01*
X129186289Y-55424321D01*
X128984321Y-55626289D01*
X128746833Y-55784973D01*
X128746832Y-55784974D01*
X128746831Y-55784974D01*
X128482948Y-55894278D01*
X128202814Y-55950000D01*
X127917186Y-55950000D01*
X127637052Y-55894278D01*
X127373169Y-55784974D01*
X127373168Y-55784974D01*
X127373167Y-55784973D01*
X127135679Y-55626289D01*
X126933711Y-55424321D01*
X126775027Y-55186833D01*
X126751486Y-55130000D01*
X126665722Y-54922948D01*
X126610000Y-54642814D01*
X126610000Y-54357186D01*
X126665722Y-54077052D01*
X126775026Y-53813169D01*
X126775027Y-53813167D01*
X126933711Y-53575679D01*
X127135679Y-53373711D01*
X127373167Y-53215027D01*
X127373169Y-53215026D01*
X127637052Y-53105722D01*
X127917186Y-53050000D01*
X128202814Y-53050000D01*
X128482948Y-53105722D01*
G37*
G36*
X86862948Y-53105722D02*
G01*
X87126831Y-53215026D01*
X87126833Y-53215027D01*
X87364321Y-53373711D01*
X87566289Y-53575679D01*
X87724973Y-53813167D01*
X87724974Y-53813169D01*
X87834278Y-54077052D01*
X87890000Y-54357186D01*
X87890000Y-54642814D01*
X87834278Y-54922948D01*
X87748514Y-55130000D01*
X87724973Y-55186833D01*
X87566289Y-55424321D01*
X87364321Y-55626289D01*
X87126833Y-55784973D01*
X87126832Y-55784974D01*
X87126831Y-55784974D01*
X86862948Y-55894278D01*
X86582814Y-55950000D01*
X86297186Y-55950000D01*
X86017052Y-55894278D01*
X85753169Y-55784974D01*
X85753168Y-55784974D01*
X85753167Y-55784973D01*
X85515679Y-55626289D01*
X85313711Y-55424321D01*
X85155027Y-55186833D01*
X85131486Y-55130000D01*
X85045722Y-54922948D01*
X84990000Y-54642814D01*
X84990000Y-54357186D01*
X85045722Y-54077052D01*
X85155026Y-53813169D01*
X85155027Y-53813167D01*
X85313711Y-53575679D01*
X85515679Y-53373711D01*
X85753167Y-53215027D01*
X85753169Y-53215026D01*
X86017052Y-53105722D01*
X86297186Y-53050000D01*
X86582814Y-53050000D01*
X86862948Y-53105722D01*
G37*
G36*
X154862948Y-53105722D02*
G01*
X155126831Y-53215026D01*
X155126833Y-53215027D01*
X155364321Y-53373711D01*
X155566289Y-53575679D01*
X155724973Y-53813167D01*
X155724974Y-53813169D01*
X155834278Y-54077052D01*
X155890000Y-54357186D01*
X155890000Y-54642814D01*
X155834278Y-54922948D01*
X155748514Y-55130000D01*
X155724973Y-55186833D01*
X155566289Y-55424321D01*
X155364321Y-55626289D01*
X155126833Y-55784973D01*
X155126832Y-55784974D01*
X155126831Y-55784974D01*
X154862948Y-55894278D01*
X154582814Y-55950000D01*
X154297186Y-55950000D01*
X154017052Y-55894278D01*
X153753169Y-55784974D01*
X153753168Y-55784974D01*
X153753167Y-55784973D01*
X153515679Y-55626289D01*
X153313711Y-55424321D01*
X153155027Y-55186833D01*
X153131486Y-55130000D01*
X153045722Y-54922948D01*
X152990000Y-54642814D01*
X152990000Y-54357186D01*
X153045722Y-54077052D01*
X153155026Y-53813169D01*
X153155027Y-53813167D01*
X153313711Y-53575679D01*
X153515679Y-53373711D01*
X153753167Y-53215027D01*
X153753169Y-53215026D01*
X154017052Y-53105722D01*
X154297186Y-53050000D01*
X154582814Y-53050000D01*
X154862948Y-53105722D01*
G37*
G36*
X145482948Y-53105722D02*
G01*
X145746831Y-53215026D01*
X145746833Y-53215027D01*
X145984321Y-53373711D01*
X146186289Y-53575679D01*
X146344973Y-53813167D01*
X146344974Y-53813169D01*
X146454278Y-54077052D01*
X146510000Y-54357186D01*
X146510000Y-54642814D01*
X146454278Y-54922948D01*
X146368514Y-55130000D01*
X146344973Y-55186833D01*
X146186289Y-55424321D01*
X145984321Y-55626289D01*
X145746833Y-55784973D01*
X145746832Y-55784974D01*
X145746831Y-55784974D01*
X145482948Y-55894278D01*
X145202814Y-55950000D01*
X144917186Y-55950000D01*
X144637052Y-55894278D01*
X144373169Y-55784974D01*
X144373168Y-55784974D01*
X144373167Y-55784973D01*
X144135679Y-55626289D01*
X143933711Y-55424321D01*
X143775027Y-55186833D01*
X143751486Y-55130000D01*
X143665722Y-54922948D01*
X143610000Y-54642814D01*
X143610000Y-54357186D01*
X143665722Y-54077052D01*
X143775026Y-53813169D01*
X143775027Y-53813167D01*
X143933711Y-53575679D01*
X144135679Y-53373711D01*
X144373167Y-53215027D01*
X144373169Y-53215026D01*
X144637052Y-53105722D01*
X144917186Y-53050000D01*
X145202814Y-53050000D01*
X145482948Y-53105722D01*
G37*
G36*
X71862948Y-50105722D02*
G01*
X72126831Y-50215026D01*
X72126833Y-50215027D01*
X72364321Y-50373711D01*
X72566289Y-50575679D01*
X72724973Y-50813167D01*
X72724974Y-50813169D01*
X72834278Y-51077052D01*
X72890000Y-51357186D01*
X72890000Y-51642814D01*
X72834278Y-51922948D01*
X72724974Y-52186831D01*
X72724973Y-52186833D01*
X72566289Y-52424321D01*
X72364321Y-52626289D01*
X72126833Y-52784973D01*
X72126832Y-52784974D01*
X72126831Y-52784974D01*
X71862948Y-52894278D01*
X71582814Y-52950000D01*
X71297186Y-52950000D01*
X71017052Y-52894278D01*
X70753169Y-52784974D01*
X70753168Y-52784974D01*
X70753167Y-52784973D01*
X70515679Y-52626289D01*
X70313711Y-52424321D01*
X70155027Y-52186833D01*
X70155026Y-52186831D01*
X70045722Y-51922948D01*
X69990000Y-51642814D01*
X69990000Y-51357186D01*
X70045722Y-51077052D01*
X70155026Y-50813169D01*
X70155027Y-50813167D01*
X70313711Y-50575679D01*
X70515679Y-50373711D01*
X70753167Y-50215027D01*
X70753169Y-50215026D01*
X71017052Y-50105722D01*
X71297186Y-50050000D01*
X71582814Y-50050000D01*
X71862948Y-50105722D01*
G37*
G36*
X79482948Y-50105722D02*
G01*
X79746831Y-50215026D01*
X79746833Y-50215027D01*
X79984321Y-50373711D01*
X80186289Y-50575679D01*
X80344973Y-50813167D01*
X80344974Y-50813169D01*
X80454278Y-51077052D01*
X80510000Y-51357186D01*
X80510000Y-51642814D01*
X80454278Y-51922948D01*
X80344974Y-52186831D01*
X80344973Y-52186833D01*
X80186289Y-52424321D01*
X79984321Y-52626289D01*
X79746833Y-52784973D01*
X79746832Y-52784974D01*
X79746831Y-52784974D01*
X79482948Y-52894278D01*
X79202814Y-52950000D01*
X78917186Y-52950000D01*
X78637052Y-52894278D01*
X78373169Y-52784974D01*
X78373168Y-52784974D01*
X78373167Y-52784973D01*
X78135679Y-52626289D01*
X77933711Y-52424321D01*
X77775027Y-52186833D01*
X77775026Y-52186831D01*
X77665722Y-51922948D01*
X77610000Y-51642814D01*
X77610000Y-51357186D01*
X77665722Y-51077052D01*
X77775026Y-50813169D01*
X77775027Y-50813167D01*
X77933711Y-50575679D01*
X78135679Y-50373711D01*
X78373167Y-50215027D01*
X78373169Y-50215026D01*
X78637052Y-50105722D01*
X78917186Y-50050000D01*
X79202814Y-50050000D01*
X79482948Y-50105722D01*
G37*
G36*
X137862948Y-48025722D02*
G01*
X138126831Y-48135026D01*
X138126833Y-48135027D01*
X138364321Y-48293711D01*
X138566289Y-48495679D01*
X138724973Y-48733167D01*
X138724974Y-48733169D01*
X138834278Y-48997052D01*
X138890000Y-49277186D01*
X138890000Y-49562814D01*
X138834278Y-49842948D01*
X138748514Y-50050000D01*
X138724973Y-50106833D01*
X138566289Y-50344321D01*
X138364321Y-50546289D01*
X138126833Y-50704973D01*
X138126832Y-50704974D01*
X138126831Y-50704974D01*
X137862948Y-50814278D01*
X137582814Y-50870000D01*
X137297186Y-50870000D01*
X137017052Y-50814278D01*
X136753169Y-50704974D01*
X136753168Y-50704974D01*
X136753167Y-50704973D01*
X136515679Y-50546289D01*
X136313711Y-50344321D01*
X136155027Y-50106833D01*
X136131486Y-50050000D01*
X136045722Y-49842948D01*
X135990000Y-49562814D01*
X135990000Y-49277186D01*
X136045722Y-48997052D01*
X136155026Y-48733169D01*
X136155027Y-48733167D01*
X136313711Y-48495679D01*
X136515679Y-48293711D01*
X136753167Y-48135027D01*
X136753169Y-48135026D01*
X137017052Y-48025722D01*
X137297186Y-47970000D01*
X137582814Y-47970000D01*
X137862948Y-48025722D01*
G37*
G36*
X162482948Y-48025722D02*
G01*
X162746831Y-48135026D01*
X162746833Y-48135027D01*
X162984321Y-48293711D01*
X163186289Y-48495679D01*
X163344973Y-48733167D01*
X163344974Y-48733169D01*
X163454278Y-48997052D01*
X163510000Y-49277186D01*
X163510000Y-49562814D01*
X163454278Y-49842948D01*
X163368514Y-50050000D01*
X163344973Y-50106833D01*
X163186289Y-50344321D01*
X162984321Y-50546289D01*
X162746833Y-50704973D01*
X162746832Y-50704974D01*
X162746831Y-50704974D01*
X162482948Y-50814278D01*
X162202814Y-50870000D01*
X161917186Y-50870000D01*
X161637052Y-50814278D01*
X161373169Y-50704974D01*
X161373168Y-50704974D01*
X161373167Y-50704973D01*
X161135679Y-50546289D01*
X160933711Y-50344321D01*
X160775027Y-50106833D01*
X160751486Y-50050000D01*
X160665722Y-49842948D01*
X160610000Y-49562814D01*
X160610000Y-49277186D01*
X160665722Y-48997052D01*
X160775026Y-48733169D01*
X160775027Y-48733167D01*
X160933711Y-48495679D01*
X161135679Y-48293711D01*
X161373167Y-48135027D01*
X161373169Y-48135026D01*
X161637052Y-48025722D01*
X161917186Y-47970000D01*
X162202814Y-47970000D01*
X162482948Y-48025722D01*
G37*
G36*
X154862948Y-48025722D02*
G01*
X155126831Y-48135026D01*
X155126833Y-48135027D01*
X155364321Y-48293711D01*
X155566289Y-48495679D01*
X155724973Y-48733167D01*
X155724974Y-48733169D01*
X155834278Y-48997052D01*
X155890000Y-49277186D01*
X155890000Y-49562814D01*
X155834278Y-49842948D01*
X155748514Y-50050000D01*
X155724973Y-50106833D01*
X155566289Y-50344321D01*
X155364321Y-50546289D01*
X155126833Y-50704973D01*
X155126832Y-50704974D01*
X155126831Y-50704974D01*
X154862948Y-50814278D01*
X154582814Y-50870000D01*
X154297186Y-50870000D01*
X154017052Y-50814278D01*
X153753169Y-50704974D01*
X153753168Y-50704974D01*
X153753167Y-50704973D01*
X153515679Y-50546289D01*
X153313711Y-50344321D01*
X153155027Y-50106833D01*
X153131486Y-50050000D01*
X153045722Y-49842948D01*
X152990000Y-49562814D01*
X152990000Y-49277186D01*
X153045722Y-48997052D01*
X153155026Y-48733169D01*
X153155027Y-48733167D01*
X153313711Y-48495679D01*
X153515679Y-48293711D01*
X153753167Y-48135027D01*
X153753169Y-48135026D01*
X154017052Y-48025722D01*
X154297186Y-47970000D01*
X154582814Y-47970000D01*
X154862948Y-48025722D01*
G37*
G36*
X145482948Y-48025722D02*
G01*
X145746831Y-48135026D01*
X145746833Y-48135027D01*
X145984321Y-48293711D01*
X146186289Y-48495679D01*
X146344973Y-48733167D01*
X146344974Y-48733169D01*
X146454278Y-48997052D01*
X146510000Y-49277186D01*
X146510000Y-49562814D01*
X146454278Y-49842948D01*
X146368514Y-50050000D01*
X146344973Y-50106833D01*
X146186289Y-50344321D01*
X145984321Y-50546289D01*
X145746833Y-50704973D01*
X145746832Y-50704974D01*
X145746831Y-50704974D01*
X145482948Y-50814278D01*
X145202814Y-50870000D01*
X144917186Y-50870000D01*
X144637052Y-50814278D01*
X144373169Y-50704974D01*
X144373168Y-50704974D01*
X144373167Y-50704973D01*
X144135679Y-50546289D01*
X143933711Y-50344321D01*
X143775027Y-50106833D01*
X143751486Y-50050000D01*
X143665722Y-49842948D01*
X143610000Y-49562814D01*
X143610000Y-49277186D01*
X143665722Y-48997052D01*
X143775026Y-48733169D01*
X143775027Y-48733167D01*
X143933711Y-48495679D01*
X144135679Y-48293711D01*
X144373167Y-48135027D01*
X144373169Y-48135026D01*
X144637052Y-48025722D01*
X144917186Y-47970000D01*
X145202814Y-47970000D01*
X145482948Y-48025722D01*
G37*
G36*
X86862948Y-48025722D02*
G01*
X87126831Y-48135026D01*
X87126833Y-48135027D01*
X87364321Y-48293711D01*
X87566289Y-48495679D01*
X87724973Y-48733167D01*
X87724974Y-48733169D01*
X87834278Y-48997052D01*
X87890000Y-49277186D01*
X87890000Y-49562814D01*
X87834278Y-49842948D01*
X87748514Y-50050000D01*
X87724973Y-50106833D01*
X87566289Y-50344321D01*
X87364321Y-50546289D01*
X87126833Y-50704973D01*
X87126832Y-50704974D01*
X87126831Y-50704974D01*
X86862948Y-50814278D01*
X86582814Y-50870000D01*
X86297186Y-50870000D01*
X86017052Y-50814278D01*
X85753169Y-50704974D01*
X85753168Y-50704974D01*
X85753167Y-50704973D01*
X85515679Y-50546289D01*
X85313711Y-50344321D01*
X85155027Y-50106833D01*
X85131486Y-50050000D01*
X85045722Y-49842948D01*
X84990000Y-49562814D01*
X84990000Y-49277186D01*
X85045722Y-48997052D01*
X85155026Y-48733169D01*
X85155027Y-48733167D01*
X85313711Y-48495679D01*
X85515679Y-48293711D01*
X85753167Y-48135027D01*
X85753169Y-48135026D01*
X86017052Y-48025722D01*
X86297186Y-47970000D01*
X86582814Y-47970000D01*
X86862948Y-48025722D01*
G37*
G36*
X171862948Y-48025722D02*
G01*
X172126831Y-48135026D01*
X172126833Y-48135027D01*
X172364321Y-48293711D01*
X172566289Y-48495679D01*
X172724973Y-48733167D01*
X172724974Y-48733169D01*
X172834278Y-48997052D01*
X172890000Y-49277186D01*
X172890000Y-49562814D01*
X172834278Y-49842948D01*
X172748514Y-50050000D01*
X172724973Y-50106833D01*
X172566289Y-50344321D01*
X172364321Y-50546289D01*
X172126833Y-50704973D01*
X172126832Y-50704974D01*
X172126831Y-50704974D01*
X171862948Y-50814278D01*
X171582814Y-50870000D01*
X171297186Y-50870000D01*
X171017052Y-50814278D01*
X170753169Y-50704974D01*
X170753168Y-50704974D01*
X170753167Y-50704973D01*
X170515679Y-50546289D01*
X170313711Y-50344321D01*
X170155027Y-50106833D01*
X170131486Y-50050000D01*
X170045722Y-49842948D01*
X169990000Y-49562814D01*
X169990000Y-49277186D01*
X170045722Y-48997052D01*
X170155026Y-48733169D01*
X170155027Y-48733167D01*
X170313711Y-48495679D01*
X170515679Y-48293711D01*
X170753167Y-48135027D01*
X170753169Y-48135026D01*
X171017052Y-48025722D01*
X171297186Y-47970000D01*
X171582814Y-47970000D01*
X171862948Y-48025722D01*
G37*
G36*
X179482948Y-48025722D02*
G01*
X179746831Y-48135026D01*
X179746833Y-48135027D01*
X179984321Y-48293711D01*
X180186289Y-48495679D01*
X180344973Y-48733167D01*
X180344974Y-48733169D01*
X180454278Y-48997052D01*
X180510000Y-49277186D01*
X180510000Y-49562814D01*
X180454278Y-49842948D01*
X180368514Y-50050000D01*
X180344973Y-50106833D01*
X180186289Y-50344321D01*
X179984321Y-50546289D01*
X179746833Y-50704973D01*
X179746832Y-50704974D01*
X179746831Y-50704974D01*
X179482948Y-50814278D01*
X179202814Y-50870000D01*
X178917186Y-50870000D01*
X178637052Y-50814278D01*
X178373169Y-50704974D01*
X178373168Y-50704974D01*
X178373167Y-50704973D01*
X178135679Y-50546289D01*
X177933711Y-50344321D01*
X177775027Y-50106833D01*
X177751486Y-50050000D01*
X177665722Y-49842948D01*
X177610000Y-49562814D01*
X177610000Y-49277186D01*
X177665722Y-48997052D01*
X177775026Y-48733169D01*
X177775027Y-48733167D01*
X177933711Y-48495679D01*
X178135679Y-48293711D01*
X178373167Y-48135027D01*
X178373169Y-48135026D01*
X178637052Y-48025722D01*
X178917186Y-47970000D01*
X179202814Y-47970000D01*
X179482948Y-48025722D01*
G37*
G36*
X188862948Y-48025722D02*
G01*
X189126831Y-48135026D01*
X189126833Y-48135027D01*
X189364321Y-48293711D01*
X189566289Y-48495679D01*
X189724973Y-48733167D01*
X189724974Y-48733169D01*
X189834278Y-48997052D01*
X189890000Y-49277186D01*
X189890000Y-49562814D01*
X189834278Y-49842948D01*
X189748514Y-50050000D01*
X189724973Y-50106833D01*
X189566289Y-50344321D01*
X189364321Y-50546289D01*
X189126833Y-50704973D01*
X189126832Y-50704974D01*
X189126831Y-50704974D01*
X188862948Y-50814278D01*
X188582814Y-50870000D01*
X188297186Y-50870000D01*
X188017052Y-50814278D01*
X187753169Y-50704974D01*
X187753168Y-50704974D01*
X187753167Y-50704973D01*
X187515679Y-50546289D01*
X187313711Y-50344321D01*
X187155027Y-50106833D01*
X187131486Y-50050000D01*
X187045722Y-49842948D01*
X186990000Y-49562814D01*
X186990000Y-49277186D01*
X187045722Y-48997052D01*
X187155026Y-48733169D01*
X187155027Y-48733167D01*
X187313711Y-48495679D01*
X187515679Y-48293711D01*
X187753167Y-48135027D01*
X187753169Y-48135026D01*
X188017052Y-48025722D01*
X188297186Y-47970000D01*
X188582814Y-47970000D01*
X188862948Y-48025722D01*
G37*
G36*
X196482948Y-48025722D02*
G01*
X196746831Y-48135026D01*
X196746833Y-48135027D01*
X196984321Y-48293711D01*
X197186289Y-48495679D01*
X197344973Y-48733167D01*
X197344974Y-48733169D01*
X197454278Y-48997052D01*
X197510000Y-49277186D01*
X197510000Y-49562814D01*
X197454278Y-49842948D01*
X197368514Y-50050000D01*
X197344973Y-50106833D01*
X197186289Y-50344321D01*
X196984321Y-50546289D01*
X196746833Y-50704973D01*
X196746832Y-50704974D01*
X196746831Y-50704974D01*
X196482948Y-50814278D01*
X196202814Y-50870000D01*
X195917186Y-50870000D01*
X195637052Y-50814278D01*
X195373169Y-50704974D01*
X195373168Y-50704974D01*
X195373167Y-50704973D01*
X195135679Y-50546289D01*
X194933711Y-50344321D01*
X194775027Y-50106833D01*
X194751486Y-50050000D01*
X194665722Y-49842948D01*
X194610000Y-49562814D01*
X194610000Y-49277186D01*
X194665722Y-48997052D01*
X194775026Y-48733169D01*
X194775027Y-48733167D01*
X194933711Y-48495679D01*
X195135679Y-48293711D01*
X195373167Y-48135027D01*
X195373169Y-48135026D01*
X195637052Y-48025722D01*
X195917186Y-47970000D01*
X196202814Y-47970000D01*
X196482948Y-48025722D01*
G37*
G36*
X128482948Y-48025722D02*
G01*
X128746831Y-48135026D01*
X128746833Y-48135027D01*
X128984321Y-48293711D01*
X129186289Y-48495679D01*
X129344973Y-48733167D01*
X129344974Y-48733169D01*
X129454278Y-48997052D01*
X129510000Y-49277186D01*
X129510000Y-49562814D01*
X129454278Y-49842948D01*
X129368514Y-50050000D01*
X129344973Y-50106833D01*
X129186289Y-50344321D01*
X128984321Y-50546289D01*
X128746833Y-50704973D01*
X128746832Y-50704974D01*
X128746831Y-50704974D01*
X128482948Y-50814278D01*
X128202814Y-50870000D01*
X127917186Y-50870000D01*
X127637052Y-50814278D01*
X127373169Y-50704974D01*
X127373168Y-50704974D01*
X127373167Y-50704973D01*
X127135679Y-50546289D01*
X126933711Y-50344321D01*
X126775027Y-50106833D01*
X126751486Y-50050000D01*
X126665722Y-49842948D01*
X126610000Y-49562814D01*
X126610000Y-49277186D01*
X126665722Y-48997052D01*
X126775026Y-48733169D01*
X126775027Y-48733167D01*
X126933711Y-48495679D01*
X127135679Y-48293711D01*
X127373167Y-48135027D01*
X127373169Y-48135026D01*
X127637052Y-48025722D01*
X127917186Y-47970000D01*
X128202814Y-47970000D01*
X128482948Y-48025722D01*
G37*
G36*
X120862948Y-48025722D02*
G01*
X121126831Y-48135026D01*
X121126833Y-48135027D01*
X121364321Y-48293711D01*
X121566289Y-48495679D01*
X121724973Y-48733167D01*
X121724974Y-48733169D01*
X121834278Y-48997052D01*
X121890000Y-49277186D01*
X121890000Y-49562814D01*
X121834278Y-49842948D01*
X121748514Y-50050000D01*
X121724973Y-50106833D01*
X121566289Y-50344321D01*
X121364321Y-50546289D01*
X121126833Y-50704973D01*
X121126832Y-50704974D01*
X121126831Y-50704974D01*
X120862948Y-50814278D01*
X120582814Y-50870000D01*
X120297186Y-50870000D01*
X120017052Y-50814278D01*
X119753169Y-50704974D01*
X119753168Y-50704974D01*
X119753167Y-50704973D01*
X119515679Y-50546289D01*
X119313711Y-50344321D01*
X119155027Y-50106833D01*
X119131486Y-50050000D01*
X119045722Y-49842948D01*
X118990000Y-49562814D01*
X118990000Y-49277186D01*
X119045722Y-48997052D01*
X119155026Y-48733169D01*
X119155027Y-48733167D01*
X119313711Y-48495679D01*
X119515679Y-48293711D01*
X119753167Y-48135027D01*
X119753169Y-48135026D01*
X120017052Y-48025722D01*
X120297186Y-47970000D01*
X120582814Y-47970000D01*
X120862948Y-48025722D01*
G37*
G36*
X111482948Y-48025722D02*
G01*
X111746831Y-48135026D01*
X111746833Y-48135027D01*
X111984321Y-48293711D01*
X112186289Y-48495679D01*
X112344973Y-48733167D01*
X112344974Y-48733169D01*
X112454278Y-48997052D01*
X112510000Y-49277186D01*
X112510000Y-49562814D01*
X112454278Y-49842948D01*
X112368514Y-50050000D01*
X112344973Y-50106833D01*
X112186289Y-50344321D01*
X111984321Y-50546289D01*
X111746833Y-50704973D01*
X111746832Y-50704974D01*
X111746831Y-50704974D01*
X111482948Y-50814278D01*
X111202814Y-50870000D01*
X110917186Y-50870000D01*
X110637052Y-50814278D01*
X110373169Y-50704974D01*
X110373168Y-50704974D01*
X110373167Y-50704973D01*
X110135679Y-50546289D01*
X109933711Y-50344321D01*
X109775027Y-50106833D01*
X109751486Y-50050000D01*
X109665722Y-49842948D01*
X109610000Y-49562814D01*
X109610000Y-49277186D01*
X109665722Y-48997052D01*
X109775026Y-48733169D01*
X109775027Y-48733167D01*
X109933711Y-48495679D01*
X110135679Y-48293711D01*
X110373167Y-48135027D01*
X110373169Y-48135026D01*
X110637052Y-48025722D01*
X110917186Y-47970000D01*
X111202814Y-47970000D01*
X111482948Y-48025722D01*
G37*
G36*
X103862948Y-48025722D02*
G01*
X104126831Y-48135026D01*
X104126833Y-48135027D01*
X104364321Y-48293711D01*
X104566289Y-48495679D01*
X104724973Y-48733167D01*
X104724974Y-48733169D01*
X104834278Y-48997052D01*
X104890000Y-49277186D01*
X104890000Y-49562814D01*
X104834278Y-49842948D01*
X104748514Y-50050000D01*
X104724973Y-50106833D01*
X104566289Y-50344321D01*
X104364321Y-50546289D01*
X104126833Y-50704973D01*
X104126832Y-50704974D01*
X104126831Y-50704974D01*
X103862948Y-50814278D01*
X103582814Y-50870000D01*
X103297186Y-50870000D01*
X103017052Y-50814278D01*
X102753169Y-50704974D01*
X102753168Y-50704974D01*
X102753167Y-50704973D01*
X102515679Y-50546289D01*
X102313711Y-50344321D01*
X102155027Y-50106833D01*
X102131486Y-50050000D01*
X102045722Y-49842948D01*
X101990000Y-49562814D01*
X101990000Y-49277186D01*
X102045722Y-48997052D01*
X102155026Y-48733169D01*
X102155027Y-48733167D01*
X102313711Y-48495679D01*
X102515679Y-48293711D01*
X102753167Y-48135027D01*
X102753169Y-48135026D01*
X103017052Y-48025722D01*
X103297186Y-47970000D01*
X103582814Y-47970000D01*
X103862948Y-48025722D01*
G37*
G36*
X94482948Y-48025722D02*
G01*
X94746831Y-48135026D01*
X94746833Y-48135027D01*
X94984321Y-48293711D01*
X95186289Y-48495679D01*
X95344973Y-48733167D01*
X95344974Y-48733169D01*
X95454278Y-48997052D01*
X95510000Y-49277186D01*
X95510000Y-49562814D01*
X95454278Y-49842948D01*
X95368514Y-50050000D01*
X95344973Y-50106833D01*
X95186289Y-50344321D01*
X94984321Y-50546289D01*
X94746833Y-50704973D01*
X94746832Y-50704974D01*
X94746831Y-50704974D01*
X94482948Y-50814278D01*
X94202814Y-50870000D01*
X93917186Y-50870000D01*
X93637052Y-50814278D01*
X93373169Y-50704974D01*
X93373168Y-50704974D01*
X93373167Y-50704973D01*
X93135679Y-50546289D01*
X92933711Y-50344321D01*
X92775027Y-50106833D01*
X92751486Y-50050000D01*
X92665722Y-49842948D01*
X92610000Y-49562814D01*
X92610000Y-49277186D01*
X92665722Y-48997052D01*
X92775026Y-48733169D01*
X92775027Y-48733167D01*
X92933711Y-48495679D01*
X93135679Y-48293711D01*
X93373167Y-48135027D01*
X93373169Y-48135026D01*
X93637052Y-48025722D01*
X93917186Y-47970000D01*
X94202814Y-47970000D01*
X94482948Y-48025722D01*
G37*
G36*
X154862948Y-42945722D02*
G01*
X155126831Y-43055026D01*
X155126833Y-43055027D01*
X155364321Y-43213711D01*
X155566289Y-43415679D01*
X155593933Y-43457052D01*
X155724974Y-43653169D01*
X155834278Y-43917052D01*
X155890000Y-44197186D01*
X155890000Y-44482814D01*
X155834278Y-44762948D01*
X155733483Y-45006289D01*
X155724973Y-45026833D01*
X155566289Y-45264321D01*
X155364321Y-45466289D01*
X155126833Y-45624973D01*
X155126832Y-45624974D01*
X155126831Y-45624974D01*
X154862948Y-45734278D01*
X154582814Y-45790000D01*
X154297186Y-45790000D01*
X154017052Y-45734278D01*
X153753169Y-45624974D01*
X153753168Y-45624974D01*
X153753167Y-45624973D01*
X153515679Y-45466289D01*
X153313711Y-45264321D01*
X153155027Y-45026833D01*
X153146517Y-45006289D01*
X153045722Y-44762948D01*
X152990000Y-44482814D01*
X152990000Y-44197186D01*
X153045722Y-43917052D01*
X153155026Y-43653169D01*
X153286067Y-43457052D01*
X153313711Y-43415679D01*
X153515679Y-43213711D01*
X153753167Y-43055027D01*
X153753169Y-43055026D01*
X154017052Y-42945722D01*
X154297186Y-42890000D01*
X154582814Y-42890000D01*
X154862948Y-42945722D01*
G37*
G36*
X137862948Y-42945722D02*
G01*
X138126831Y-43055026D01*
X138126833Y-43055027D01*
X138364321Y-43213711D01*
X138566289Y-43415679D01*
X138593933Y-43457052D01*
X138724974Y-43653169D01*
X138834278Y-43917052D01*
X138890000Y-44197186D01*
X138890000Y-44482814D01*
X138834278Y-44762948D01*
X138733483Y-45006289D01*
X138724973Y-45026833D01*
X138566289Y-45264321D01*
X138364321Y-45466289D01*
X138126833Y-45624973D01*
X138126832Y-45624974D01*
X138126831Y-45624974D01*
X137862948Y-45734278D01*
X137582814Y-45790000D01*
X137297186Y-45790000D01*
X137017052Y-45734278D01*
X136753169Y-45624974D01*
X136753168Y-45624974D01*
X136753167Y-45624973D01*
X136515679Y-45466289D01*
X136313711Y-45264321D01*
X136155027Y-45026833D01*
X136146517Y-45006289D01*
X136045722Y-44762948D01*
X135990000Y-44482814D01*
X135990000Y-44197186D01*
X136045722Y-43917052D01*
X136155026Y-43653169D01*
X136286067Y-43457052D01*
X136313711Y-43415679D01*
X136515679Y-43213711D01*
X136753167Y-43055027D01*
X136753169Y-43055026D01*
X137017052Y-42945722D01*
X137297186Y-42890000D01*
X137582814Y-42890000D01*
X137862948Y-42945722D01*
G37*
G36*
X145482948Y-42945722D02*
G01*
X145746831Y-43055026D01*
X145746833Y-43055027D01*
X145984321Y-43213711D01*
X146186289Y-43415679D01*
X146213933Y-43457052D01*
X146344974Y-43653169D01*
X146454278Y-43917052D01*
X146510000Y-44197186D01*
X146510000Y-44482814D01*
X146454278Y-44762948D01*
X146353483Y-45006289D01*
X146344973Y-45026833D01*
X146186289Y-45264321D01*
X145984321Y-45466289D01*
X145746833Y-45624973D01*
X145746832Y-45624974D01*
X145746831Y-45624974D01*
X145482948Y-45734278D01*
X145202814Y-45790000D01*
X144917186Y-45790000D01*
X144637052Y-45734278D01*
X144373169Y-45624974D01*
X144373168Y-45624974D01*
X144373167Y-45624973D01*
X144135679Y-45466289D01*
X143933711Y-45264321D01*
X143775027Y-45026833D01*
X143766517Y-45006289D01*
X143665722Y-44762948D01*
X143610000Y-44482814D01*
X143610000Y-44197186D01*
X143665722Y-43917052D01*
X143775026Y-43653169D01*
X143906067Y-43457052D01*
X143933711Y-43415679D01*
X144135679Y-43213711D01*
X144373167Y-43055027D01*
X144373169Y-43055026D01*
X144637052Y-42945722D01*
X144917186Y-42890000D01*
X145202814Y-42890000D01*
X145482948Y-42945722D01*
G37*
G36*
X86862948Y-42945722D02*
G01*
X87126831Y-43055026D01*
X87126833Y-43055027D01*
X87364321Y-43213711D01*
X87566289Y-43415679D01*
X87593933Y-43457052D01*
X87724974Y-43653169D01*
X87834278Y-43917052D01*
X87890000Y-44197186D01*
X87890000Y-44482814D01*
X87834278Y-44762948D01*
X87733483Y-45006289D01*
X87724973Y-45026833D01*
X87566289Y-45264321D01*
X87364321Y-45466289D01*
X87126833Y-45624973D01*
X87126832Y-45624974D01*
X87126831Y-45624974D01*
X86862948Y-45734278D01*
X86582814Y-45790000D01*
X86297186Y-45790000D01*
X86017052Y-45734278D01*
X85753169Y-45624974D01*
X85753168Y-45624974D01*
X85753167Y-45624973D01*
X85515679Y-45466289D01*
X85313711Y-45264321D01*
X85155027Y-45026833D01*
X85146517Y-45006289D01*
X85045722Y-44762948D01*
X84990000Y-44482814D01*
X84990000Y-44197186D01*
X85045722Y-43917052D01*
X85155026Y-43653169D01*
X85286067Y-43457052D01*
X85313711Y-43415679D01*
X85515679Y-43213711D01*
X85753167Y-43055027D01*
X85753169Y-43055026D01*
X86017052Y-42945722D01*
X86297186Y-42890000D01*
X86582814Y-42890000D01*
X86862948Y-42945722D01*
G37*
G36*
X128482948Y-42945722D02*
G01*
X128746831Y-43055026D01*
X128746833Y-43055027D01*
X128984321Y-43213711D01*
X129186289Y-43415679D01*
X129213933Y-43457052D01*
X129344974Y-43653169D01*
X129454278Y-43917052D01*
X129510000Y-44197186D01*
X129510000Y-44482814D01*
X129454278Y-44762948D01*
X129353483Y-45006289D01*
X129344973Y-45026833D01*
X129186289Y-45264321D01*
X128984321Y-45466289D01*
X128746833Y-45624973D01*
X128746832Y-45624974D01*
X128746831Y-45624974D01*
X128482948Y-45734278D01*
X128202814Y-45790000D01*
X127917186Y-45790000D01*
X127637052Y-45734278D01*
X127373169Y-45624974D01*
X127373168Y-45624974D01*
X127373167Y-45624973D01*
X127135679Y-45466289D01*
X126933711Y-45264321D01*
X126775027Y-45026833D01*
X126766517Y-45006289D01*
X126665722Y-44762948D01*
X126610000Y-44482814D01*
X126610000Y-44197186D01*
X126665722Y-43917052D01*
X126775026Y-43653169D01*
X126906067Y-43457052D01*
X126933711Y-43415679D01*
X127135679Y-43213711D01*
X127373167Y-43055027D01*
X127373169Y-43055026D01*
X127637052Y-42945722D01*
X127917186Y-42890000D01*
X128202814Y-42890000D01*
X128482948Y-42945722D01*
G37*
G36*
X120862948Y-42945722D02*
G01*
X121126831Y-43055026D01*
X121126833Y-43055027D01*
X121364321Y-43213711D01*
X121566289Y-43415679D01*
X121593933Y-43457052D01*
X121724974Y-43653169D01*
X121834278Y-43917052D01*
X121890000Y-44197186D01*
X121890000Y-44482814D01*
X121834278Y-44762948D01*
X121733483Y-45006289D01*
X121724973Y-45026833D01*
X121566289Y-45264321D01*
X121364321Y-45466289D01*
X121126833Y-45624973D01*
X121126832Y-45624974D01*
X121126831Y-45624974D01*
X120862948Y-45734278D01*
X120582814Y-45790000D01*
X120297186Y-45790000D01*
X120017052Y-45734278D01*
X119753169Y-45624974D01*
X119753168Y-45624974D01*
X119753167Y-45624973D01*
X119515679Y-45466289D01*
X119313711Y-45264321D01*
X119155027Y-45026833D01*
X119146517Y-45006289D01*
X119045722Y-44762948D01*
X118990000Y-44482814D01*
X118990000Y-44197186D01*
X119045722Y-43917052D01*
X119155026Y-43653169D01*
X119286067Y-43457052D01*
X119313711Y-43415679D01*
X119515679Y-43213711D01*
X119753167Y-43055027D01*
X119753169Y-43055026D01*
X120017052Y-42945722D01*
X120297186Y-42890000D01*
X120582814Y-42890000D01*
X120862948Y-42945722D01*
G37*
G36*
X111482948Y-42945722D02*
G01*
X111746831Y-43055026D01*
X111746833Y-43055027D01*
X111984321Y-43213711D01*
X112186289Y-43415679D01*
X112213933Y-43457052D01*
X112344974Y-43653169D01*
X112454278Y-43917052D01*
X112510000Y-44197186D01*
X112510000Y-44482814D01*
X112454278Y-44762948D01*
X112353483Y-45006289D01*
X112344973Y-45026833D01*
X112186289Y-45264321D01*
X111984321Y-45466289D01*
X111746833Y-45624973D01*
X111746832Y-45624974D01*
X111746831Y-45624974D01*
X111482948Y-45734278D01*
X111202814Y-45790000D01*
X110917186Y-45790000D01*
X110637052Y-45734278D01*
X110373169Y-45624974D01*
X110373168Y-45624974D01*
X110373167Y-45624973D01*
X110135679Y-45466289D01*
X109933711Y-45264321D01*
X109775027Y-45026833D01*
X109766517Y-45006289D01*
X109665722Y-44762948D01*
X109610000Y-44482814D01*
X109610000Y-44197186D01*
X109665722Y-43917052D01*
X109775026Y-43653169D01*
X109906067Y-43457052D01*
X109933711Y-43415679D01*
X110135679Y-43213711D01*
X110373167Y-43055027D01*
X110373169Y-43055026D01*
X110637052Y-42945722D01*
X110917186Y-42890000D01*
X111202814Y-42890000D01*
X111482948Y-42945722D01*
G37*
G36*
X103862948Y-42945722D02*
G01*
X104126831Y-43055026D01*
X104126833Y-43055027D01*
X104364321Y-43213711D01*
X104566289Y-43415679D01*
X104593933Y-43457052D01*
X104724974Y-43653169D01*
X104834278Y-43917052D01*
X104890000Y-44197186D01*
X104890000Y-44482814D01*
X104834278Y-44762948D01*
X104733483Y-45006289D01*
X104724973Y-45026833D01*
X104566289Y-45264321D01*
X104364321Y-45466289D01*
X104126833Y-45624973D01*
X104126832Y-45624974D01*
X104126831Y-45624974D01*
X103862948Y-45734278D01*
X103582814Y-45790000D01*
X103297186Y-45790000D01*
X103017052Y-45734278D01*
X102753169Y-45624974D01*
X102753168Y-45624974D01*
X102753167Y-45624973D01*
X102515679Y-45466289D01*
X102313711Y-45264321D01*
X102155027Y-45026833D01*
X102146517Y-45006289D01*
X102045722Y-44762948D01*
X101990000Y-44482814D01*
X101990000Y-44197186D01*
X102045722Y-43917052D01*
X102155026Y-43653169D01*
X102286067Y-43457052D01*
X102313711Y-43415679D01*
X102515679Y-43213711D01*
X102753167Y-43055027D01*
X102753169Y-43055026D01*
X103017052Y-42945722D01*
X103297186Y-42890000D01*
X103582814Y-42890000D01*
X103862948Y-42945722D01*
G37*
G36*
X162482948Y-42945722D02*
G01*
X162746831Y-43055026D01*
X162746833Y-43055027D01*
X162984321Y-43213711D01*
X163186289Y-43415679D01*
X163213933Y-43457052D01*
X163344974Y-43653169D01*
X163454278Y-43917052D01*
X163510000Y-44197186D01*
X163510000Y-44482814D01*
X163454278Y-44762948D01*
X163353483Y-45006289D01*
X163344973Y-45026833D01*
X163186289Y-45264321D01*
X162984321Y-45466289D01*
X162746833Y-45624973D01*
X162746832Y-45624974D01*
X162746831Y-45624974D01*
X162482948Y-45734278D01*
X162202814Y-45790000D01*
X161917186Y-45790000D01*
X161637052Y-45734278D01*
X161373169Y-45624974D01*
X161373168Y-45624974D01*
X161373167Y-45624973D01*
X161135679Y-45466289D01*
X160933711Y-45264321D01*
X160775027Y-45026833D01*
X160766517Y-45006289D01*
X160665722Y-44762948D01*
X160610000Y-44482814D01*
X160610000Y-44197186D01*
X160665722Y-43917052D01*
X160775026Y-43653169D01*
X160906067Y-43457052D01*
X160933711Y-43415679D01*
X161135679Y-43213711D01*
X161373167Y-43055027D01*
X161373169Y-43055026D01*
X161637052Y-42945722D01*
X161917186Y-42890000D01*
X162202814Y-42890000D01*
X162482948Y-42945722D01*
G37*
G36*
X171862948Y-42945722D02*
G01*
X172126831Y-43055026D01*
X172126833Y-43055027D01*
X172364321Y-43213711D01*
X172566289Y-43415679D01*
X172593933Y-43457052D01*
X172724974Y-43653169D01*
X172834278Y-43917052D01*
X172890000Y-44197186D01*
X172890000Y-44482814D01*
X172834278Y-44762948D01*
X172733483Y-45006289D01*
X172724973Y-45026833D01*
X172566289Y-45264321D01*
X172364321Y-45466289D01*
X172126833Y-45624973D01*
X172126832Y-45624974D01*
X172126831Y-45624974D01*
X171862948Y-45734278D01*
X171582814Y-45790000D01*
X171297186Y-45790000D01*
X171017052Y-45734278D01*
X170753169Y-45624974D01*
X170753168Y-45624974D01*
X170753167Y-45624973D01*
X170515679Y-45466289D01*
X170313711Y-45264321D01*
X170155027Y-45026833D01*
X170146517Y-45006289D01*
X170045722Y-44762948D01*
X169990000Y-44482814D01*
X169990000Y-44197186D01*
X170045722Y-43917052D01*
X170155026Y-43653169D01*
X170286067Y-43457052D01*
X170313711Y-43415679D01*
X170515679Y-43213711D01*
X170753167Y-43055027D01*
X170753169Y-43055026D01*
X171017052Y-42945722D01*
X171297186Y-42890000D01*
X171582814Y-42890000D01*
X171862948Y-42945722D01*
G37*
G36*
X179482948Y-42945722D02*
G01*
X179746831Y-43055026D01*
X179746833Y-43055027D01*
X179984321Y-43213711D01*
X180186289Y-43415679D01*
X180213933Y-43457052D01*
X180344974Y-43653169D01*
X180454278Y-43917052D01*
X180510000Y-44197186D01*
X180510000Y-44482814D01*
X180454278Y-44762948D01*
X180353483Y-45006289D01*
X180344973Y-45026833D01*
X180186289Y-45264321D01*
X179984321Y-45466289D01*
X179746833Y-45624973D01*
X179746832Y-45624974D01*
X179746831Y-45624974D01*
X179482948Y-45734278D01*
X179202814Y-45790000D01*
X178917186Y-45790000D01*
X178637052Y-45734278D01*
X178373169Y-45624974D01*
X178373168Y-45624974D01*
X178373167Y-45624973D01*
X178135679Y-45466289D01*
X177933711Y-45264321D01*
X177775027Y-45026833D01*
X177766517Y-45006289D01*
X177665722Y-44762948D01*
X177610000Y-44482814D01*
X177610000Y-44197186D01*
X177665722Y-43917052D01*
X177775026Y-43653169D01*
X177906067Y-43457052D01*
X177933711Y-43415679D01*
X178135679Y-43213711D01*
X178373167Y-43055027D01*
X178373169Y-43055026D01*
X178637052Y-42945722D01*
X178917186Y-42890000D01*
X179202814Y-42890000D01*
X179482948Y-42945722D01*
G37*
G36*
X188862948Y-42945722D02*
G01*
X189126831Y-43055026D01*
X189126833Y-43055027D01*
X189364321Y-43213711D01*
X189566289Y-43415679D01*
X189593933Y-43457052D01*
X189724974Y-43653169D01*
X189834278Y-43917052D01*
X189890000Y-44197186D01*
X189890000Y-44482814D01*
X189834278Y-44762948D01*
X189733483Y-45006289D01*
X189724973Y-45026833D01*
X189566289Y-45264321D01*
X189364321Y-45466289D01*
X189126833Y-45624973D01*
X189126832Y-45624974D01*
X189126831Y-45624974D01*
X188862948Y-45734278D01*
X188582814Y-45790000D01*
X188297186Y-45790000D01*
X188017052Y-45734278D01*
X187753169Y-45624974D01*
X187753168Y-45624974D01*
X187753167Y-45624973D01*
X187515679Y-45466289D01*
X187313711Y-45264321D01*
X187155027Y-45026833D01*
X187146517Y-45006289D01*
X187045722Y-44762948D01*
X186990000Y-44482814D01*
X186990000Y-44197186D01*
X187045722Y-43917052D01*
X187155026Y-43653169D01*
X187286067Y-43457052D01*
X187313711Y-43415679D01*
X187515679Y-43213711D01*
X187753167Y-43055027D01*
X187753169Y-43055026D01*
X188017052Y-42945722D01*
X188297186Y-42890000D01*
X188582814Y-42890000D01*
X188862948Y-42945722D01*
G37*
G36*
X196482948Y-42945722D02*
G01*
X196746831Y-43055026D01*
X196746833Y-43055027D01*
X196984321Y-43213711D01*
X197186289Y-43415679D01*
X197213933Y-43457052D01*
X197344974Y-43653169D01*
X197454278Y-43917052D01*
X197510000Y-44197186D01*
X197510000Y-44482814D01*
X197454278Y-44762948D01*
X197353483Y-45006289D01*
X197344973Y-45026833D01*
X197186289Y-45264321D01*
X196984321Y-45466289D01*
X196746833Y-45624973D01*
X196746832Y-45624974D01*
X196746831Y-45624974D01*
X196482948Y-45734278D01*
X196202814Y-45790000D01*
X195917186Y-45790000D01*
X195637052Y-45734278D01*
X195373169Y-45624974D01*
X195373168Y-45624974D01*
X195373167Y-45624973D01*
X195135679Y-45466289D01*
X194933711Y-45264321D01*
X194775027Y-45026833D01*
X194766517Y-45006289D01*
X194665722Y-44762948D01*
X194610000Y-44482814D01*
X194610000Y-44197186D01*
X194665722Y-43917052D01*
X194775026Y-43653169D01*
X194906067Y-43457052D01*
X194933711Y-43415679D01*
X195135679Y-43213711D01*
X195373167Y-43055027D01*
X195373169Y-43055026D01*
X195637052Y-42945722D01*
X195917186Y-42890000D01*
X196202814Y-42890000D01*
X196482948Y-42945722D01*
G37*
G36*
X94482948Y-42945722D02*
G01*
X94746831Y-43055026D01*
X94746833Y-43055027D01*
X94984321Y-43213711D01*
X95186289Y-43415679D01*
X95213933Y-43457052D01*
X95344974Y-43653169D01*
X95454278Y-43917052D01*
X95510000Y-44197186D01*
X95510000Y-44482814D01*
X95454278Y-44762948D01*
X95353483Y-45006289D01*
X95344973Y-45026833D01*
X95186289Y-45264321D01*
X94984321Y-45466289D01*
X94746833Y-45624973D01*
X94746832Y-45624974D01*
X94746831Y-45624974D01*
X94482948Y-45734278D01*
X94202814Y-45790000D01*
X93917186Y-45790000D01*
X93637052Y-45734278D01*
X93373169Y-45624974D01*
X93373168Y-45624974D01*
X93373167Y-45624973D01*
X93135679Y-45466289D01*
X92933711Y-45264321D01*
X92775027Y-45026833D01*
X92766517Y-45006289D01*
X92665722Y-44762948D01*
X92610000Y-44482814D01*
X92610000Y-44197186D01*
X92665722Y-43917052D01*
X92775026Y-43653169D01*
X92906067Y-43457052D01*
X92933711Y-43415679D01*
X93135679Y-43213711D01*
X93373167Y-43055027D01*
X93373169Y-43055026D01*
X93637052Y-42945722D01*
X93917186Y-42890000D01*
X94202814Y-42890000D01*
X94482948Y-42945722D01*
G37*
G36*
X71862948Y-42485722D02*
G01*
X72126831Y-42595026D01*
X72126833Y-42595027D01*
X72364321Y-42753711D01*
X72566289Y-42955679D01*
X72632670Y-43055026D01*
X72724974Y-43193169D01*
X72834278Y-43457052D01*
X72890000Y-43737186D01*
X72890000Y-44022814D01*
X72834278Y-44302948D01*
X72759775Y-44482813D01*
X72724973Y-44566833D01*
X72566289Y-44804321D01*
X72364321Y-45006289D01*
X72126833Y-45164973D01*
X72126832Y-45164974D01*
X72126831Y-45164974D01*
X71862948Y-45274278D01*
X71582814Y-45330000D01*
X71297186Y-45330000D01*
X71017052Y-45274278D01*
X70753169Y-45164974D01*
X70753168Y-45164974D01*
X70753167Y-45164973D01*
X70515679Y-45006289D01*
X70313711Y-44804321D01*
X70155027Y-44566833D01*
X70120225Y-44482813D01*
X70045722Y-44302948D01*
X69990000Y-44022814D01*
X69990000Y-43737186D01*
X70045722Y-43457052D01*
X70155026Y-43193169D01*
X70247330Y-43055026D01*
X70313711Y-42955679D01*
X70515679Y-42753711D01*
X70753167Y-42595027D01*
X70753169Y-42595026D01*
X71017052Y-42485722D01*
X71297186Y-42430000D01*
X71582814Y-42430000D01*
X71862948Y-42485722D01*
G37*
G36*
X79482948Y-42485722D02*
G01*
X79746831Y-42595026D01*
X79746833Y-42595027D01*
X79984321Y-42753711D01*
X80186289Y-42955679D01*
X80252670Y-43055026D01*
X80344974Y-43193169D01*
X80454278Y-43457052D01*
X80510000Y-43737186D01*
X80510000Y-44022814D01*
X80454278Y-44302948D01*
X80379775Y-44482813D01*
X80344973Y-44566833D01*
X80186289Y-44804321D01*
X79984321Y-45006289D01*
X79746833Y-45164973D01*
X79746832Y-45164974D01*
X79746831Y-45164974D01*
X79482948Y-45274278D01*
X79202814Y-45330000D01*
X78917186Y-45330000D01*
X78637052Y-45274278D01*
X78373169Y-45164974D01*
X78373168Y-45164974D01*
X78373167Y-45164973D01*
X78135679Y-45006289D01*
X77933711Y-44804321D01*
X77775027Y-44566833D01*
X77740225Y-44482813D01*
X77665722Y-44302948D01*
X77610000Y-44022814D01*
X77610000Y-43737186D01*
X77665722Y-43457052D01*
X77775026Y-43193169D01*
X77867330Y-43055026D01*
X77933711Y-42955679D01*
X78135679Y-42753711D01*
X78373167Y-42595027D01*
X78373169Y-42595026D01*
X78637052Y-42485722D01*
X78917186Y-42430000D01*
X79202814Y-42430000D01*
X79482948Y-42485722D01*
G37*
M02*
