%TF.GenerationSoftware,KiCad,Pcbnew,(5.1.5)-3*%
%TF.CreationDate,2020-05-10T11:21:28+02:00*%
%TF.ProjectId,LPF,4c50462e-6b69-4636-9164-5f7063625858,rev?*%
%TF.SameCoordinates,Original*%
%TF.FileFunction,Paste,Bot*%
%TF.FilePolarity,Positive*%
%FSLAX46Y46*%
G04 Gerber Fmt 4.6, Leading zero omitted, Abs format (unit mm)*
G04 Created by KiCad (PCBNEW (5.1.5)-3) date 2020-05-10 11:21:28*
%MOMM*%
%LPD*%
G04 APERTURE LIST*
%ADD10C,0.100000*%
%ADD11R,2.500000X2.300000*%
%ADD12R,2.000000X3.500000*%
%ADD13R,3.500000X2.000000*%
G04 APERTURE END LIST*
D10*
G36*
X96224505Y-65951204D02*
G01*
X96248773Y-65954804D01*
X96272572Y-65960765D01*
X96295671Y-65969030D01*
X96317850Y-65979520D01*
X96338893Y-65992132D01*
X96358599Y-66006747D01*
X96376777Y-66023223D01*
X96393253Y-66041401D01*
X96407868Y-66061107D01*
X96420480Y-66082150D01*
X96430970Y-66104329D01*
X96439235Y-66127428D01*
X96445196Y-66151227D01*
X96448796Y-66175495D01*
X96450000Y-66199999D01*
X96450000Y-66850001D01*
X96448796Y-66874505D01*
X96445196Y-66898773D01*
X96439235Y-66922572D01*
X96430970Y-66945671D01*
X96420480Y-66967850D01*
X96407868Y-66988893D01*
X96393253Y-67008599D01*
X96376777Y-67026777D01*
X96358599Y-67043253D01*
X96338893Y-67057868D01*
X96317850Y-67070480D01*
X96295671Y-67080970D01*
X96272572Y-67089235D01*
X96248773Y-67095196D01*
X96224505Y-67098796D01*
X96200001Y-67100000D01*
X95299999Y-67100000D01*
X95275495Y-67098796D01*
X95251227Y-67095196D01*
X95227428Y-67089235D01*
X95204329Y-67080970D01*
X95182150Y-67070480D01*
X95161107Y-67057868D01*
X95141401Y-67043253D01*
X95123223Y-67026777D01*
X95106747Y-67008599D01*
X95092132Y-66988893D01*
X95079520Y-66967850D01*
X95069030Y-66945671D01*
X95060765Y-66922572D01*
X95054804Y-66898773D01*
X95051204Y-66874505D01*
X95050000Y-66850001D01*
X95050000Y-66199999D01*
X95051204Y-66175495D01*
X95054804Y-66151227D01*
X95060765Y-66127428D01*
X95069030Y-66104329D01*
X95079520Y-66082150D01*
X95092132Y-66061107D01*
X95106747Y-66041401D01*
X95123223Y-66023223D01*
X95141401Y-66006747D01*
X95161107Y-65992132D01*
X95182150Y-65979520D01*
X95204329Y-65969030D01*
X95227428Y-65960765D01*
X95251227Y-65954804D01*
X95275495Y-65951204D01*
X95299999Y-65950000D01*
X96200001Y-65950000D01*
X96224505Y-65951204D01*
G37*
G36*
X96224505Y-63901204D02*
G01*
X96248773Y-63904804D01*
X96272572Y-63910765D01*
X96295671Y-63919030D01*
X96317850Y-63929520D01*
X96338893Y-63942132D01*
X96358599Y-63956747D01*
X96376777Y-63973223D01*
X96393253Y-63991401D01*
X96407868Y-64011107D01*
X96420480Y-64032150D01*
X96430970Y-64054329D01*
X96439235Y-64077428D01*
X96445196Y-64101227D01*
X96448796Y-64125495D01*
X96450000Y-64149999D01*
X96450000Y-64800001D01*
X96448796Y-64824505D01*
X96445196Y-64848773D01*
X96439235Y-64872572D01*
X96430970Y-64895671D01*
X96420480Y-64917850D01*
X96407868Y-64938893D01*
X96393253Y-64958599D01*
X96376777Y-64976777D01*
X96358599Y-64993253D01*
X96338893Y-65007868D01*
X96317850Y-65020480D01*
X96295671Y-65030970D01*
X96272572Y-65039235D01*
X96248773Y-65045196D01*
X96224505Y-65048796D01*
X96200001Y-65050000D01*
X95299999Y-65050000D01*
X95275495Y-65048796D01*
X95251227Y-65045196D01*
X95227428Y-65039235D01*
X95204329Y-65030970D01*
X95182150Y-65020480D01*
X95161107Y-65007868D01*
X95141401Y-64993253D01*
X95123223Y-64976777D01*
X95106747Y-64958599D01*
X95092132Y-64938893D01*
X95079520Y-64917850D01*
X95069030Y-64895671D01*
X95060765Y-64872572D01*
X95054804Y-64848773D01*
X95051204Y-64824505D01*
X95050000Y-64800001D01*
X95050000Y-64149999D01*
X95051204Y-64125495D01*
X95054804Y-64101227D01*
X95060765Y-64077428D01*
X95069030Y-64054329D01*
X95079520Y-64032150D01*
X95092132Y-64011107D01*
X95106747Y-63991401D01*
X95123223Y-63973223D01*
X95141401Y-63956747D01*
X95161107Y-63942132D01*
X95182150Y-63929520D01*
X95204329Y-63919030D01*
X95227428Y-63910765D01*
X95251227Y-63904804D01*
X95275495Y-63901204D01*
X95299999Y-63900000D01*
X96200001Y-63900000D01*
X96224505Y-63901204D01*
G37*
D11*
X173100000Y-60500000D03*
X177400000Y-60500000D03*
D10*
G36*
X192049505Y-63301204D02*
G01*
X192073773Y-63304804D01*
X192097572Y-63310765D01*
X192120671Y-63319030D01*
X192142850Y-63329520D01*
X192163893Y-63342132D01*
X192183599Y-63356747D01*
X192201777Y-63373223D01*
X192218253Y-63391401D01*
X192232868Y-63411107D01*
X192245480Y-63432150D01*
X192255970Y-63454329D01*
X192264235Y-63477428D01*
X192270196Y-63501227D01*
X192273796Y-63525495D01*
X192275000Y-63549999D01*
X192275000Y-64450001D01*
X192273796Y-64474505D01*
X192270196Y-64498773D01*
X192264235Y-64522572D01*
X192255970Y-64545671D01*
X192245480Y-64567850D01*
X192232868Y-64588893D01*
X192218253Y-64608599D01*
X192201777Y-64626777D01*
X192183599Y-64643253D01*
X192163893Y-64657868D01*
X192142850Y-64670480D01*
X192120671Y-64680970D01*
X192097572Y-64689235D01*
X192073773Y-64695196D01*
X192049505Y-64698796D01*
X192025001Y-64700000D01*
X191374999Y-64700000D01*
X191350495Y-64698796D01*
X191326227Y-64695196D01*
X191302428Y-64689235D01*
X191279329Y-64680970D01*
X191257150Y-64670480D01*
X191236107Y-64657868D01*
X191216401Y-64643253D01*
X191198223Y-64626777D01*
X191181747Y-64608599D01*
X191167132Y-64588893D01*
X191154520Y-64567850D01*
X191144030Y-64545671D01*
X191135765Y-64522572D01*
X191129804Y-64498773D01*
X191126204Y-64474505D01*
X191125000Y-64450001D01*
X191125000Y-63549999D01*
X191126204Y-63525495D01*
X191129804Y-63501227D01*
X191135765Y-63477428D01*
X191144030Y-63454329D01*
X191154520Y-63432150D01*
X191167132Y-63411107D01*
X191181747Y-63391401D01*
X191198223Y-63373223D01*
X191216401Y-63356747D01*
X191236107Y-63342132D01*
X191257150Y-63329520D01*
X191279329Y-63319030D01*
X191302428Y-63310765D01*
X191326227Y-63304804D01*
X191350495Y-63301204D01*
X191374999Y-63300000D01*
X192025001Y-63300000D01*
X192049505Y-63301204D01*
G37*
G36*
X194099505Y-63301204D02*
G01*
X194123773Y-63304804D01*
X194147572Y-63310765D01*
X194170671Y-63319030D01*
X194192850Y-63329520D01*
X194213893Y-63342132D01*
X194233599Y-63356747D01*
X194251777Y-63373223D01*
X194268253Y-63391401D01*
X194282868Y-63411107D01*
X194295480Y-63432150D01*
X194305970Y-63454329D01*
X194314235Y-63477428D01*
X194320196Y-63501227D01*
X194323796Y-63525495D01*
X194325000Y-63549999D01*
X194325000Y-64450001D01*
X194323796Y-64474505D01*
X194320196Y-64498773D01*
X194314235Y-64522572D01*
X194305970Y-64545671D01*
X194295480Y-64567850D01*
X194282868Y-64588893D01*
X194268253Y-64608599D01*
X194251777Y-64626777D01*
X194233599Y-64643253D01*
X194213893Y-64657868D01*
X194192850Y-64670480D01*
X194170671Y-64680970D01*
X194147572Y-64689235D01*
X194123773Y-64695196D01*
X194099505Y-64698796D01*
X194075001Y-64700000D01*
X193424999Y-64700000D01*
X193400495Y-64698796D01*
X193376227Y-64695196D01*
X193352428Y-64689235D01*
X193329329Y-64680970D01*
X193307150Y-64670480D01*
X193286107Y-64657868D01*
X193266401Y-64643253D01*
X193248223Y-64626777D01*
X193231747Y-64608599D01*
X193217132Y-64588893D01*
X193204520Y-64567850D01*
X193194030Y-64545671D01*
X193185765Y-64522572D01*
X193179804Y-64498773D01*
X193176204Y-64474505D01*
X193175000Y-64450001D01*
X193175000Y-63549999D01*
X193176204Y-63525495D01*
X193179804Y-63501227D01*
X193185765Y-63477428D01*
X193194030Y-63454329D01*
X193204520Y-63432150D01*
X193217132Y-63411107D01*
X193231747Y-63391401D01*
X193248223Y-63373223D01*
X193266401Y-63356747D01*
X193286107Y-63342132D01*
X193307150Y-63329520D01*
X193329329Y-63319030D01*
X193352428Y-63310765D01*
X193376227Y-63304804D01*
X193400495Y-63301204D01*
X193424999Y-63300000D01*
X194075001Y-63300000D01*
X194099505Y-63301204D01*
G37*
G36*
X175074505Y-63301204D02*
G01*
X175098773Y-63304804D01*
X175122572Y-63310765D01*
X175145671Y-63319030D01*
X175167850Y-63329520D01*
X175188893Y-63342132D01*
X175208599Y-63356747D01*
X175226777Y-63373223D01*
X175243253Y-63391401D01*
X175257868Y-63411107D01*
X175270480Y-63432150D01*
X175280970Y-63454329D01*
X175289235Y-63477428D01*
X175295196Y-63501227D01*
X175298796Y-63525495D01*
X175300000Y-63549999D01*
X175300000Y-64450001D01*
X175298796Y-64474505D01*
X175295196Y-64498773D01*
X175289235Y-64522572D01*
X175280970Y-64545671D01*
X175270480Y-64567850D01*
X175257868Y-64588893D01*
X175243253Y-64608599D01*
X175226777Y-64626777D01*
X175208599Y-64643253D01*
X175188893Y-64657868D01*
X175167850Y-64670480D01*
X175145671Y-64680970D01*
X175122572Y-64689235D01*
X175098773Y-64695196D01*
X175074505Y-64698796D01*
X175050001Y-64700000D01*
X174399999Y-64700000D01*
X174375495Y-64698796D01*
X174351227Y-64695196D01*
X174327428Y-64689235D01*
X174304329Y-64680970D01*
X174282150Y-64670480D01*
X174261107Y-64657868D01*
X174241401Y-64643253D01*
X174223223Y-64626777D01*
X174206747Y-64608599D01*
X174192132Y-64588893D01*
X174179520Y-64567850D01*
X174169030Y-64545671D01*
X174160765Y-64522572D01*
X174154804Y-64498773D01*
X174151204Y-64474505D01*
X174150000Y-64450001D01*
X174150000Y-63549999D01*
X174151204Y-63525495D01*
X174154804Y-63501227D01*
X174160765Y-63477428D01*
X174169030Y-63454329D01*
X174179520Y-63432150D01*
X174192132Y-63411107D01*
X174206747Y-63391401D01*
X174223223Y-63373223D01*
X174241401Y-63356747D01*
X174261107Y-63342132D01*
X174282150Y-63329520D01*
X174304329Y-63319030D01*
X174327428Y-63310765D01*
X174351227Y-63304804D01*
X174375495Y-63301204D01*
X174399999Y-63300000D01*
X175050001Y-63300000D01*
X175074505Y-63301204D01*
G37*
G36*
X177124505Y-63301204D02*
G01*
X177148773Y-63304804D01*
X177172572Y-63310765D01*
X177195671Y-63319030D01*
X177217850Y-63329520D01*
X177238893Y-63342132D01*
X177258599Y-63356747D01*
X177276777Y-63373223D01*
X177293253Y-63391401D01*
X177307868Y-63411107D01*
X177320480Y-63432150D01*
X177330970Y-63454329D01*
X177339235Y-63477428D01*
X177345196Y-63501227D01*
X177348796Y-63525495D01*
X177350000Y-63549999D01*
X177350000Y-64450001D01*
X177348796Y-64474505D01*
X177345196Y-64498773D01*
X177339235Y-64522572D01*
X177330970Y-64545671D01*
X177320480Y-64567850D01*
X177307868Y-64588893D01*
X177293253Y-64608599D01*
X177276777Y-64626777D01*
X177258599Y-64643253D01*
X177238893Y-64657868D01*
X177217850Y-64670480D01*
X177195671Y-64680970D01*
X177172572Y-64689235D01*
X177148773Y-64695196D01*
X177124505Y-64698796D01*
X177100001Y-64700000D01*
X176449999Y-64700000D01*
X176425495Y-64698796D01*
X176401227Y-64695196D01*
X176377428Y-64689235D01*
X176354329Y-64680970D01*
X176332150Y-64670480D01*
X176311107Y-64657868D01*
X176291401Y-64643253D01*
X176273223Y-64626777D01*
X176256747Y-64608599D01*
X176242132Y-64588893D01*
X176229520Y-64567850D01*
X176219030Y-64545671D01*
X176210765Y-64522572D01*
X176204804Y-64498773D01*
X176201204Y-64474505D01*
X176200000Y-64450001D01*
X176200000Y-63549999D01*
X176201204Y-63525495D01*
X176204804Y-63501227D01*
X176210765Y-63477428D01*
X176219030Y-63454329D01*
X176229520Y-63432150D01*
X176242132Y-63411107D01*
X176256747Y-63391401D01*
X176273223Y-63373223D01*
X176291401Y-63356747D01*
X176311107Y-63342132D01*
X176332150Y-63329520D01*
X176354329Y-63319030D01*
X176377428Y-63310765D01*
X176401227Y-63304804D01*
X176425495Y-63301204D01*
X176449999Y-63300000D01*
X177100001Y-63300000D01*
X177124505Y-63301204D01*
G37*
G36*
X160099505Y-63301204D02*
G01*
X160123773Y-63304804D01*
X160147572Y-63310765D01*
X160170671Y-63319030D01*
X160192850Y-63329520D01*
X160213893Y-63342132D01*
X160233599Y-63356747D01*
X160251777Y-63373223D01*
X160268253Y-63391401D01*
X160282868Y-63411107D01*
X160295480Y-63432150D01*
X160305970Y-63454329D01*
X160314235Y-63477428D01*
X160320196Y-63501227D01*
X160323796Y-63525495D01*
X160325000Y-63549999D01*
X160325000Y-64450001D01*
X160323796Y-64474505D01*
X160320196Y-64498773D01*
X160314235Y-64522572D01*
X160305970Y-64545671D01*
X160295480Y-64567850D01*
X160282868Y-64588893D01*
X160268253Y-64608599D01*
X160251777Y-64626777D01*
X160233599Y-64643253D01*
X160213893Y-64657868D01*
X160192850Y-64670480D01*
X160170671Y-64680970D01*
X160147572Y-64689235D01*
X160123773Y-64695196D01*
X160099505Y-64698796D01*
X160075001Y-64700000D01*
X159424999Y-64700000D01*
X159400495Y-64698796D01*
X159376227Y-64695196D01*
X159352428Y-64689235D01*
X159329329Y-64680970D01*
X159307150Y-64670480D01*
X159286107Y-64657868D01*
X159266401Y-64643253D01*
X159248223Y-64626777D01*
X159231747Y-64608599D01*
X159217132Y-64588893D01*
X159204520Y-64567850D01*
X159194030Y-64545671D01*
X159185765Y-64522572D01*
X159179804Y-64498773D01*
X159176204Y-64474505D01*
X159175000Y-64450001D01*
X159175000Y-63549999D01*
X159176204Y-63525495D01*
X159179804Y-63501227D01*
X159185765Y-63477428D01*
X159194030Y-63454329D01*
X159204520Y-63432150D01*
X159217132Y-63411107D01*
X159231747Y-63391401D01*
X159248223Y-63373223D01*
X159266401Y-63356747D01*
X159286107Y-63342132D01*
X159307150Y-63329520D01*
X159329329Y-63319030D01*
X159352428Y-63310765D01*
X159376227Y-63304804D01*
X159400495Y-63301204D01*
X159424999Y-63300000D01*
X160075001Y-63300000D01*
X160099505Y-63301204D01*
G37*
G36*
X158049505Y-63301204D02*
G01*
X158073773Y-63304804D01*
X158097572Y-63310765D01*
X158120671Y-63319030D01*
X158142850Y-63329520D01*
X158163893Y-63342132D01*
X158183599Y-63356747D01*
X158201777Y-63373223D01*
X158218253Y-63391401D01*
X158232868Y-63411107D01*
X158245480Y-63432150D01*
X158255970Y-63454329D01*
X158264235Y-63477428D01*
X158270196Y-63501227D01*
X158273796Y-63525495D01*
X158275000Y-63549999D01*
X158275000Y-64450001D01*
X158273796Y-64474505D01*
X158270196Y-64498773D01*
X158264235Y-64522572D01*
X158255970Y-64545671D01*
X158245480Y-64567850D01*
X158232868Y-64588893D01*
X158218253Y-64608599D01*
X158201777Y-64626777D01*
X158183599Y-64643253D01*
X158163893Y-64657868D01*
X158142850Y-64670480D01*
X158120671Y-64680970D01*
X158097572Y-64689235D01*
X158073773Y-64695196D01*
X158049505Y-64698796D01*
X158025001Y-64700000D01*
X157374999Y-64700000D01*
X157350495Y-64698796D01*
X157326227Y-64695196D01*
X157302428Y-64689235D01*
X157279329Y-64680970D01*
X157257150Y-64670480D01*
X157236107Y-64657868D01*
X157216401Y-64643253D01*
X157198223Y-64626777D01*
X157181747Y-64608599D01*
X157167132Y-64588893D01*
X157154520Y-64567850D01*
X157144030Y-64545671D01*
X157135765Y-64522572D01*
X157129804Y-64498773D01*
X157126204Y-64474505D01*
X157125000Y-64450001D01*
X157125000Y-63549999D01*
X157126204Y-63525495D01*
X157129804Y-63501227D01*
X157135765Y-63477428D01*
X157144030Y-63454329D01*
X157154520Y-63432150D01*
X157167132Y-63411107D01*
X157181747Y-63391401D01*
X157198223Y-63373223D01*
X157216401Y-63356747D01*
X157236107Y-63342132D01*
X157257150Y-63329520D01*
X157279329Y-63319030D01*
X157302428Y-63310765D01*
X157326227Y-63304804D01*
X157350495Y-63301204D01*
X157374999Y-63300000D01*
X158025001Y-63300000D01*
X158049505Y-63301204D01*
G37*
G36*
X141049505Y-63301204D02*
G01*
X141073773Y-63304804D01*
X141097572Y-63310765D01*
X141120671Y-63319030D01*
X141142850Y-63329520D01*
X141163893Y-63342132D01*
X141183599Y-63356747D01*
X141201777Y-63373223D01*
X141218253Y-63391401D01*
X141232868Y-63411107D01*
X141245480Y-63432150D01*
X141255970Y-63454329D01*
X141264235Y-63477428D01*
X141270196Y-63501227D01*
X141273796Y-63525495D01*
X141275000Y-63549999D01*
X141275000Y-64450001D01*
X141273796Y-64474505D01*
X141270196Y-64498773D01*
X141264235Y-64522572D01*
X141255970Y-64545671D01*
X141245480Y-64567850D01*
X141232868Y-64588893D01*
X141218253Y-64608599D01*
X141201777Y-64626777D01*
X141183599Y-64643253D01*
X141163893Y-64657868D01*
X141142850Y-64670480D01*
X141120671Y-64680970D01*
X141097572Y-64689235D01*
X141073773Y-64695196D01*
X141049505Y-64698796D01*
X141025001Y-64700000D01*
X140374999Y-64700000D01*
X140350495Y-64698796D01*
X140326227Y-64695196D01*
X140302428Y-64689235D01*
X140279329Y-64680970D01*
X140257150Y-64670480D01*
X140236107Y-64657868D01*
X140216401Y-64643253D01*
X140198223Y-64626777D01*
X140181747Y-64608599D01*
X140167132Y-64588893D01*
X140154520Y-64567850D01*
X140144030Y-64545671D01*
X140135765Y-64522572D01*
X140129804Y-64498773D01*
X140126204Y-64474505D01*
X140125000Y-64450001D01*
X140125000Y-63549999D01*
X140126204Y-63525495D01*
X140129804Y-63501227D01*
X140135765Y-63477428D01*
X140144030Y-63454329D01*
X140154520Y-63432150D01*
X140167132Y-63411107D01*
X140181747Y-63391401D01*
X140198223Y-63373223D01*
X140216401Y-63356747D01*
X140236107Y-63342132D01*
X140257150Y-63329520D01*
X140279329Y-63319030D01*
X140302428Y-63310765D01*
X140326227Y-63304804D01*
X140350495Y-63301204D01*
X140374999Y-63300000D01*
X141025001Y-63300000D01*
X141049505Y-63301204D01*
G37*
G36*
X143099505Y-63301204D02*
G01*
X143123773Y-63304804D01*
X143147572Y-63310765D01*
X143170671Y-63319030D01*
X143192850Y-63329520D01*
X143213893Y-63342132D01*
X143233599Y-63356747D01*
X143251777Y-63373223D01*
X143268253Y-63391401D01*
X143282868Y-63411107D01*
X143295480Y-63432150D01*
X143305970Y-63454329D01*
X143314235Y-63477428D01*
X143320196Y-63501227D01*
X143323796Y-63525495D01*
X143325000Y-63549999D01*
X143325000Y-64450001D01*
X143323796Y-64474505D01*
X143320196Y-64498773D01*
X143314235Y-64522572D01*
X143305970Y-64545671D01*
X143295480Y-64567850D01*
X143282868Y-64588893D01*
X143268253Y-64608599D01*
X143251777Y-64626777D01*
X143233599Y-64643253D01*
X143213893Y-64657868D01*
X143192850Y-64670480D01*
X143170671Y-64680970D01*
X143147572Y-64689235D01*
X143123773Y-64695196D01*
X143099505Y-64698796D01*
X143075001Y-64700000D01*
X142424999Y-64700000D01*
X142400495Y-64698796D01*
X142376227Y-64695196D01*
X142352428Y-64689235D01*
X142329329Y-64680970D01*
X142307150Y-64670480D01*
X142286107Y-64657868D01*
X142266401Y-64643253D01*
X142248223Y-64626777D01*
X142231747Y-64608599D01*
X142217132Y-64588893D01*
X142204520Y-64567850D01*
X142194030Y-64545671D01*
X142185765Y-64522572D01*
X142179804Y-64498773D01*
X142176204Y-64474505D01*
X142175000Y-64450001D01*
X142175000Y-63549999D01*
X142176204Y-63525495D01*
X142179804Y-63501227D01*
X142185765Y-63477428D01*
X142194030Y-63454329D01*
X142204520Y-63432150D01*
X142217132Y-63411107D01*
X142231747Y-63391401D01*
X142248223Y-63373223D01*
X142266401Y-63356747D01*
X142286107Y-63342132D01*
X142307150Y-63329520D01*
X142329329Y-63319030D01*
X142352428Y-63310765D01*
X142376227Y-63304804D01*
X142400495Y-63301204D01*
X142424999Y-63300000D01*
X143075001Y-63300000D01*
X143099505Y-63301204D01*
G37*
G36*
X124049505Y-63301204D02*
G01*
X124073773Y-63304804D01*
X124097572Y-63310765D01*
X124120671Y-63319030D01*
X124142850Y-63329520D01*
X124163893Y-63342132D01*
X124183599Y-63356747D01*
X124201777Y-63373223D01*
X124218253Y-63391401D01*
X124232868Y-63411107D01*
X124245480Y-63432150D01*
X124255970Y-63454329D01*
X124264235Y-63477428D01*
X124270196Y-63501227D01*
X124273796Y-63525495D01*
X124275000Y-63549999D01*
X124275000Y-64450001D01*
X124273796Y-64474505D01*
X124270196Y-64498773D01*
X124264235Y-64522572D01*
X124255970Y-64545671D01*
X124245480Y-64567850D01*
X124232868Y-64588893D01*
X124218253Y-64608599D01*
X124201777Y-64626777D01*
X124183599Y-64643253D01*
X124163893Y-64657868D01*
X124142850Y-64670480D01*
X124120671Y-64680970D01*
X124097572Y-64689235D01*
X124073773Y-64695196D01*
X124049505Y-64698796D01*
X124025001Y-64700000D01*
X123374999Y-64700000D01*
X123350495Y-64698796D01*
X123326227Y-64695196D01*
X123302428Y-64689235D01*
X123279329Y-64680970D01*
X123257150Y-64670480D01*
X123236107Y-64657868D01*
X123216401Y-64643253D01*
X123198223Y-64626777D01*
X123181747Y-64608599D01*
X123167132Y-64588893D01*
X123154520Y-64567850D01*
X123144030Y-64545671D01*
X123135765Y-64522572D01*
X123129804Y-64498773D01*
X123126204Y-64474505D01*
X123125000Y-64450001D01*
X123125000Y-63549999D01*
X123126204Y-63525495D01*
X123129804Y-63501227D01*
X123135765Y-63477428D01*
X123144030Y-63454329D01*
X123154520Y-63432150D01*
X123167132Y-63411107D01*
X123181747Y-63391401D01*
X123198223Y-63373223D01*
X123216401Y-63356747D01*
X123236107Y-63342132D01*
X123257150Y-63329520D01*
X123279329Y-63319030D01*
X123302428Y-63310765D01*
X123326227Y-63304804D01*
X123350495Y-63301204D01*
X123374999Y-63300000D01*
X124025001Y-63300000D01*
X124049505Y-63301204D01*
G37*
G36*
X126099505Y-63301204D02*
G01*
X126123773Y-63304804D01*
X126147572Y-63310765D01*
X126170671Y-63319030D01*
X126192850Y-63329520D01*
X126213893Y-63342132D01*
X126233599Y-63356747D01*
X126251777Y-63373223D01*
X126268253Y-63391401D01*
X126282868Y-63411107D01*
X126295480Y-63432150D01*
X126305970Y-63454329D01*
X126314235Y-63477428D01*
X126320196Y-63501227D01*
X126323796Y-63525495D01*
X126325000Y-63549999D01*
X126325000Y-64450001D01*
X126323796Y-64474505D01*
X126320196Y-64498773D01*
X126314235Y-64522572D01*
X126305970Y-64545671D01*
X126295480Y-64567850D01*
X126282868Y-64588893D01*
X126268253Y-64608599D01*
X126251777Y-64626777D01*
X126233599Y-64643253D01*
X126213893Y-64657868D01*
X126192850Y-64670480D01*
X126170671Y-64680970D01*
X126147572Y-64689235D01*
X126123773Y-64695196D01*
X126099505Y-64698796D01*
X126075001Y-64700000D01*
X125424999Y-64700000D01*
X125400495Y-64698796D01*
X125376227Y-64695196D01*
X125352428Y-64689235D01*
X125329329Y-64680970D01*
X125307150Y-64670480D01*
X125286107Y-64657868D01*
X125266401Y-64643253D01*
X125248223Y-64626777D01*
X125231747Y-64608599D01*
X125217132Y-64588893D01*
X125204520Y-64567850D01*
X125194030Y-64545671D01*
X125185765Y-64522572D01*
X125179804Y-64498773D01*
X125176204Y-64474505D01*
X125175000Y-64450001D01*
X125175000Y-63549999D01*
X125176204Y-63525495D01*
X125179804Y-63501227D01*
X125185765Y-63477428D01*
X125194030Y-63454329D01*
X125204520Y-63432150D01*
X125217132Y-63411107D01*
X125231747Y-63391401D01*
X125248223Y-63373223D01*
X125266401Y-63356747D01*
X125286107Y-63342132D01*
X125307150Y-63329520D01*
X125329329Y-63319030D01*
X125352428Y-63310765D01*
X125376227Y-63304804D01*
X125400495Y-63301204D01*
X125424999Y-63300000D01*
X126075001Y-63300000D01*
X126099505Y-63301204D01*
G37*
G36*
X109099505Y-63301204D02*
G01*
X109123773Y-63304804D01*
X109147572Y-63310765D01*
X109170671Y-63319030D01*
X109192850Y-63329520D01*
X109213893Y-63342132D01*
X109233599Y-63356747D01*
X109251777Y-63373223D01*
X109268253Y-63391401D01*
X109282868Y-63411107D01*
X109295480Y-63432150D01*
X109305970Y-63454329D01*
X109314235Y-63477428D01*
X109320196Y-63501227D01*
X109323796Y-63525495D01*
X109325000Y-63549999D01*
X109325000Y-64450001D01*
X109323796Y-64474505D01*
X109320196Y-64498773D01*
X109314235Y-64522572D01*
X109305970Y-64545671D01*
X109295480Y-64567850D01*
X109282868Y-64588893D01*
X109268253Y-64608599D01*
X109251777Y-64626777D01*
X109233599Y-64643253D01*
X109213893Y-64657868D01*
X109192850Y-64670480D01*
X109170671Y-64680970D01*
X109147572Y-64689235D01*
X109123773Y-64695196D01*
X109099505Y-64698796D01*
X109075001Y-64700000D01*
X108424999Y-64700000D01*
X108400495Y-64698796D01*
X108376227Y-64695196D01*
X108352428Y-64689235D01*
X108329329Y-64680970D01*
X108307150Y-64670480D01*
X108286107Y-64657868D01*
X108266401Y-64643253D01*
X108248223Y-64626777D01*
X108231747Y-64608599D01*
X108217132Y-64588893D01*
X108204520Y-64567850D01*
X108194030Y-64545671D01*
X108185765Y-64522572D01*
X108179804Y-64498773D01*
X108176204Y-64474505D01*
X108175000Y-64450001D01*
X108175000Y-63549999D01*
X108176204Y-63525495D01*
X108179804Y-63501227D01*
X108185765Y-63477428D01*
X108194030Y-63454329D01*
X108204520Y-63432150D01*
X108217132Y-63411107D01*
X108231747Y-63391401D01*
X108248223Y-63373223D01*
X108266401Y-63356747D01*
X108286107Y-63342132D01*
X108307150Y-63329520D01*
X108329329Y-63319030D01*
X108352428Y-63310765D01*
X108376227Y-63304804D01*
X108400495Y-63301204D01*
X108424999Y-63300000D01*
X109075001Y-63300000D01*
X109099505Y-63301204D01*
G37*
G36*
X107049505Y-63301204D02*
G01*
X107073773Y-63304804D01*
X107097572Y-63310765D01*
X107120671Y-63319030D01*
X107142850Y-63329520D01*
X107163893Y-63342132D01*
X107183599Y-63356747D01*
X107201777Y-63373223D01*
X107218253Y-63391401D01*
X107232868Y-63411107D01*
X107245480Y-63432150D01*
X107255970Y-63454329D01*
X107264235Y-63477428D01*
X107270196Y-63501227D01*
X107273796Y-63525495D01*
X107275000Y-63549999D01*
X107275000Y-64450001D01*
X107273796Y-64474505D01*
X107270196Y-64498773D01*
X107264235Y-64522572D01*
X107255970Y-64545671D01*
X107245480Y-64567850D01*
X107232868Y-64588893D01*
X107218253Y-64608599D01*
X107201777Y-64626777D01*
X107183599Y-64643253D01*
X107163893Y-64657868D01*
X107142850Y-64670480D01*
X107120671Y-64680970D01*
X107097572Y-64689235D01*
X107073773Y-64695196D01*
X107049505Y-64698796D01*
X107025001Y-64700000D01*
X106374999Y-64700000D01*
X106350495Y-64698796D01*
X106326227Y-64695196D01*
X106302428Y-64689235D01*
X106279329Y-64680970D01*
X106257150Y-64670480D01*
X106236107Y-64657868D01*
X106216401Y-64643253D01*
X106198223Y-64626777D01*
X106181747Y-64608599D01*
X106167132Y-64588893D01*
X106154520Y-64567850D01*
X106144030Y-64545671D01*
X106135765Y-64522572D01*
X106129804Y-64498773D01*
X106126204Y-64474505D01*
X106125000Y-64450001D01*
X106125000Y-63549999D01*
X106126204Y-63525495D01*
X106129804Y-63501227D01*
X106135765Y-63477428D01*
X106144030Y-63454329D01*
X106154520Y-63432150D01*
X106167132Y-63411107D01*
X106181747Y-63391401D01*
X106198223Y-63373223D01*
X106216401Y-63356747D01*
X106236107Y-63342132D01*
X106257150Y-63329520D01*
X106279329Y-63319030D01*
X106302428Y-63310765D01*
X106326227Y-63304804D01*
X106350495Y-63301204D01*
X106374999Y-63300000D01*
X107025001Y-63300000D01*
X107049505Y-63301204D01*
G37*
G36*
X82224505Y-42901204D02*
G01*
X82248773Y-42904804D01*
X82272572Y-42910765D01*
X82295671Y-42919030D01*
X82317850Y-42929520D01*
X82338893Y-42942132D01*
X82358599Y-42956747D01*
X82376777Y-42973223D01*
X82393253Y-42991401D01*
X82407868Y-43011107D01*
X82420480Y-43032150D01*
X82430970Y-43054329D01*
X82439235Y-43077428D01*
X82445196Y-43101227D01*
X82448796Y-43125495D01*
X82450000Y-43149999D01*
X82450000Y-43800001D01*
X82448796Y-43824505D01*
X82445196Y-43848773D01*
X82439235Y-43872572D01*
X82430970Y-43895671D01*
X82420480Y-43917850D01*
X82407868Y-43938893D01*
X82393253Y-43958599D01*
X82376777Y-43976777D01*
X82358599Y-43993253D01*
X82338893Y-44007868D01*
X82317850Y-44020480D01*
X82295671Y-44030970D01*
X82272572Y-44039235D01*
X82248773Y-44045196D01*
X82224505Y-44048796D01*
X82200001Y-44050000D01*
X81299999Y-44050000D01*
X81275495Y-44048796D01*
X81251227Y-44045196D01*
X81227428Y-44039235D01*
X81204329Y-44030970D01*
X81182150Y-44020480D01*
X81161107Y-44007868D01*
X81141401Y-43993253D01*
X81123223Y-43976777D01*
X81106747Y-43958599D01*
X81092132Y-43938893D01*
X81079520Y-43917850D01*
X81069030Y-43895671D01*
X81060765Y-43872572D01*
X81054804Y-43848773D01*
X81051204Y-43824505D01*
X81050000Y-43800001D01*
X81050000Y-43149999D01*
X81051204Y-43125495D01*
X81054804Y-43101227D01*
X81060765Y-43077428D01*
X81069030Y-43054329D01*
X81079520Y-43032150D01*
X81092132Y-43011107D01*
X81106747Y-42991401D01*
X81123223Y-42973223D01*
X81141401Y-42956747D01*
X81161107Y-42942132D01*
X81182150Y-42929520D01*
X81204329Y-42919030D01*
X81227428Y-42910765D01*
X81251227Y-42904804D01*
X81275495Y-42901204D01*
X81299999Y-42900000D01*
X82200001Y-42900000D01*
X82224505Y-42901204D01*
G37*
G36*
X82224505Y-44951204D02*
G01*
X82248773Y-44954804D01*
X82272572Y-44960765D01*
X82295671Y-44969030D01*
X82317850Y-44979520D01*
X82338893Y-44992132D01*
X82358599Y-45006747D01*
X82376777Y-45023223D01*
X82393253Y-45041401D01*
X82407868Y-45061107D01*
X82420480Y-45082150D01*
X82430970Y-45104329D01*
X82439235Y-45127428D01*
X82445196Y-45151227D01*
X82448796Y-45175495D01*
X82450000Y-45199999D01*
X82450000Y-45850001D01*
X82448796Y-45874505D01*
X82445196Y-45898773D01*
X82439235Y-45922572D01*
X82430970Y-45945671D01*
X82420480Y-45967850D01*
X82407868Y-45988893D01*
X82393253Y-46008599D01*
X82376777Y-46026777D01*
X82358599Y-46043253D01*
X82338893Y-46057868D01*
X82317850Y-46070480D01*
X82295671Y-46080970D01*
X82272572Y-46089235D01*
X82248773Y-46095196D01*
X82224505Y-46098796D01*
X82200001Y-46100000D01*
X81299999Y-46100000D01*
X81275495Y-46098796D01*
X81251227Y-46095196D01*
X81227428Y-46089235D01*
X81204329Y-46080970D01*
X81182150Y-46070480D01*
X81161107Y-46057868D01*
X81141401Y-46043253D01*
X81123223Y-46026777D01*
X81106747Y-46008599D01*
X81092132Y-45988893D01*
X81079520Y-45967850D01*
X81069030Y-45945671D01*
X81060765Y-45922572D01*
X81054804Y-45898773D01*
X81051204Y-45874505D01*
X81050000Y-45850001D01*
X81050000Y-45199999D01*
X81051204Y-45175495D01*
X81054804Y-45151227D01*
X81060765Y-45127428D01*
X81069030Y-45104329D01*
X81079520Y-45082150D01*
X81092132Y-45061107D01*
X81106747Y-45041401D01*
X81123223Y-45023223D01*
X81141401Y-45006747D01*
X81161107Y-44992132D01*
X81182150Y-44979520D01*
X81204329Y-44969030D01*
X81227428Y-44960765D01*
X81251227Y-44954804D01*
X81275495Y-44951204D01*
X81299999Y-44950000D01*
X82200001Y-44950000D01*
X82224505Y-44951204D01*
G37*
G36*
X187724505Y-58951204D02*
G01*
X187748773Y-58954804D01*
X187772572Y-58960765D01*
X187795671Y-58969030D01*
X187817850Y-58979520D01*
X187838893Y-58992132D01*
X187858599Y-59006747D01*
X187876777Y-59023223D01*
X187893253Y-59041401D01*
X187907868Y-59061107D01*
X187920480Y-59082150D01*
X187930970Y-59104329D01*
X187939235Y-59127428D01*
X187945196Y-59151227D01*
X187948796Y-59175495D01*
X187950000Y-59199999D01*
X187950000Y-59850001D01*
X187948796Y-59874505D01*
X187945196Y-59898773D01*
X187939235Y-59922572D01*
X187930970Y-59945671D01*
X187920480Y-59967850D01*
X187907868Y-59988893D01*
X187893253Y-60008599D01*
X187876777Y-60026777D01*
X187858599Y-60043253D01*
X187838893Y-60057868D01*
X187817850Y-60070480D01*
X187795671Y-60080970D01*
X187772572Y-60089235D01*
X187748773Y-60095196D01*
X187724505Y-60098796D01*
X187700001Y-60100000D01*
X186799999Y-60100000D01*
X186775495Y-60098796D01*
X186751227Y-60095196D01*
X186727428Y-60089235D01*
X186704329Y-60080970D01*
X186682150Y-60070480D01*
X186661107Y-60057868D01*
X186641401Y-60043253D01*
X186623223Y-60026777D01*
X186606747Y-60008599D01*
X186592132Y-59988893D01*
X186579520Y-59967850D01*
X186569030Y-59945671D01*
X186560765Y-59922572D01*
X186554804Y-59898773D01*
X186551204Y-59874505D01*
X186550000Y-59850001D01*
X186550000Y-59199999D01*
X186551204Y-59175495D01*
X186554804Y-59151227D01*
X186560765Y-59127428D01*
X186569030Y-59104329D01*
X186579520Y-59082150D01*
X186592132Y-59061107D01*
X186606747Y-59041401D01*
X186623223Y-59023223D01*
X186641401Y-59006747D01*
X186661107Y-58992132D01*
X186682150Y-58979520D01*
X186704329Y-58969030D01*
X186727428Y-58960765D01*
X186751227Y-58954804D01*
X186775495Y-58951204D01*
X186799999Y-58950000D01*
X187700001Y-58950000D01*
X187724505Y-58951204D01*
G37*
G36*
X187724505Y-56901204D02*
G01*
X187748773Y-56904804D01*
X187772572Y-56910765D01*
X187795671Y-56919030D01*
X187817850Y-56929520D01*
X187838893Y-56942132D01*
X187858599Y-56956747D01*
X187876777Y-56973223D01*
X187893253Y-56991401D01*
X187907868Y-57011107D01*
X187920480Y-57032150D01*
X187930970Y-57054329D01*
X187939235Y-57077428D01*
X187945196Y-57101227D01*
X187948796Y-57125495D01*
X187950000Y-57149999D01*
X187950000Y-57800001D01*
X187948796Y-57824505D01*
X187945196Y-57848773D01*
X187939235Y-57872572D01*
X187930970Y-57895671D01*
X187920480Y-57917850D01*
X187907868Y-57938893D01*
X187893253Y-57958599D01*
X187876777Y-57976777D01*
X187858599Y-57993253D01*
X187838893Y-58007868D01*
X187817850Y-58020480D01*
X187795671Y-58030970D01*
X187772572Y-58039235D01*
X187748773Y-58045196D01*
X187724505Y-58048796D01*
X187700001Y-58050000D01*
X186799999Y-58050000D01*
X186775495Y-58048796D01*
X186751227Y-58045196D01*
X186727428Y-58039235D01*
X186704329Y-58030970D01*
X186682150Y-58020480D01*
X186661107Y-58007868D01*
X186641401Y-57993253D01*
X186623223Y-57976777D01*
X186606747Y-57958599D01*
X186592132Y-57938893D01*
X186579520Y-57917850D01*
X186569030Y-57895671D01*
X186560765Y-57872572D01*
X186554804Y-57848773D01*
X186551204Y-57824505D01*
X186550000Y-57800001D01*
X186550000Y-57149999D01*
X186551204Y-57125495D01*
X186554804Y-57101227D01*
X186560765Y-57077428D01*
X186569030Y-57054329D01*
X186579520Y-57032150D01*
X186592132Y-57011107D01*
X186606747Y-56991401D01*
X186623223Y-56973223D01*
X186641401Y-56956747D01*
X186661107Y-56942132D01*
X186682150Y-56929520D01*
X186704329Y-56919030D01*
X186727428Y-56910765D01*
X186751227Y-56904804D01*
X186775495Y-56901204D01*
X186799999Y-56900000D01*
X187700001Y-56900000D01*
X187724505Y-56901204D01*
G37*
G36*
X170724505Y-58951204D02*
G01*
X170748773Y-58954804D01*
X170772572Y-58960765D01*
X170795671Y-58969030D01*
X170817850Y-58979520D01*
X170838893Y-58992132D01*
X170858599Y-59006747D01*
X170876777Y-59023223D01*
X170893253Y-59041401D01*
X170907868Y-59061107D01*
X170920480Y-59082150D01*
X170930970Y-59104329D01*
X170939235Y-59127428D01*
X170945196Y-59151227D01*
X170948796Y-59175495D01*
X170950000Y-59199999D01*
X170950000Y-59850001D01*
X170948796Y-59874505D01*
X170945196Y-59898773D01*
X170939235Y-59922572D01*
X170930970Y-59945671D01*
X170920480Y-59967850D01*
X170907868Y-59988893D01*
X170893253Y-60008599D01*
X170876777Y-60026777D01*
X170858599Y-60043253D01*
X170838893Y-60057868D01*
X170817850Y-60070480D01*
X170795671Y-60080970D01*
X170772572Y-60089235D01*
X170748773Y-60095196D01*
X170724505Y-60098796D01*
X170700001Y-60100000D01*
X169799999Y-60100000D01*
X169775495Y-60098796D01*
X169751227Y-60095196D01*
X169727428Y-60089235D01*
X169704329Y-60080970D01*
X169682150Y-60070480D01*
X169661107Y-60057868D01*
X169641401Y-60043253D01*
X169623223Y-60026777D01*
X169606747Y-60008599D01*
X169592132Y-59988893D01*
X169579520Y-59967850D01*
X169569030Y-59945671D01*
X169560765Y-59922572D01*
X169554804Y-59898773D01*
X169551204Y-59874505D01*
X169550000Y-59850001D01*
X169550000Y-59199999D01*
X169551204Y-59175495D01*
X169554804Y-59151227D01*
X169560765Y-59127428D01*
X169569030Y-59104329D01*
X169579520Y-59082150D01*
X169592132Y-59061107D01*
X169606747Y-59041401D01*
X169623223Y-59023223D01*
X169641401Y-59006747D01*
X169661107Y-58992132D01*
X169682150Y-58979520D01*
X169704329Y-58969030D01*
X169727428Y-58960765D01*
X169751227Y-58954804D01*
X169775495Y-58951204D01*
X169799999Y-58950000D01*
X170700001Y-58950000D01*
X170724505Y-58951204D01*
G37*
G36*
X170724505Y-56901204D02*
G01*
X170748773Y-56904804D01*
X170772572Y-56910765D01*
X170795671Y-56919030D01*
X170817850Y-56929520D01*
X170838893Y-56942132D01*
X170858599Y-56956747D01*
X170876777Y-56973223D01*
X170893253Y-56991401D01*
X170907868Y-57011107D01*
X170920480Y-57032150D01*
X170930970Y-57054329D01*
X170939235Y-57077428D01*
X170945196Y-57101227D01*
X170948796Y-57125495D01*
X170950000Y-57149999D01*
X170950000Y-57800001D01*
X170948796Y-57824505D01*
X170945196Y-57848773D01*
X170939235Y-57872572D01*
X170930970Y-57895671D01*
X170920480Y-57917850D01*
X170907868Y-57938893D01*
X170893253Y-57958599D01*
X170876777Y-57976777D01*
X170858599Y-57993253D01*
X170838893Y-58007868D01*
X170817850Y-58020480D01*
X170795671Y-58030970D01*
X170772572Y-58039235D01*
X170748773Y-58045196D01*
X170724505Y-58048796D01*
X170700001Y-58050000D01*
X169799999Y-58050000D01*
X169775495Y-58048796D01*
X169751227Y-58045196D01*
X169727428Y-58039235D01*
X169704329Y-58030970D01*
X169682150Y-58020480D01*
X169661107Y-58007868D01*
X169641401Y-57993253D01*
X169623223Y-57976777D01*
X169606747Y-57958599D01*
X169592132Y-57938893D01*
X169579520Y-57917850D01*
X169569030Y-57895671D01*
X169560765Y-57872572D01*
X169554804Y-57848773D01*
X169551204Y-57824505D01*
X169550000Y-57800001D01*
X169550000Y-57149999D01*
X169551204Y-57125495D01*
X169554804Y-57101227D01*
X169560765Y-57077428D01*
X169569030Y-57054329D01*
X169579520Y-57032150D01*
X169592132Y-57011107D01*
X169606747Y-56991401D01*
X169623223Y-56973223D01*
X169641401Y-56956747D01*
X169661107Y-56942132D01*
X169682150Y-56929520D01*
X169704329Y-56919030D01*
X169727428Y-56910765D01*
X169751227Y-56904804D01*
X169775495Y-56901204D01*
X169799999Y-56900000D01*
X170700001Y-56900000D01*
X170724505Y-56901204D01*
G37*
G36*
X153724505Y-58951204D02*
G01*
X153748773Y-58954804D01*
X153772572Y-58960765D01*
X153795671Y-58969030D01*
X153817850Y-58979520D01*
X153838893Y-58992132D01*
X153858599Y-59006747D01*
X153876777Y-59023223D01*
X153893253Y-59041401D01*
X153907868Y-59061107D01*
X153920480Y-59082150D01*
X153930970Y-59104329D01*
X153939235Y-59127428D01*
X153945196Y-59151227D01*
X153948796Y-59175495D01*
X153950000Y-59199999D01*
X153950000Y-59850001D01*
X153948796Y-59874505D01*
X153945196Y-59898773D01*
X153939235Y-59922572D01*
X153930970Y-59945671D01*
X153920480Y-59967850D01*
X153907868Y-59988893D01*
X153893253Y-60008599D01*
X153876777Y-60026777D01*
X153858599Y-60043253D01*
X153838893Y-60057868D01*
X153817850Y-60070480D01*
X153795671Y-60080970D01*
X153772572Y-60089235D01*
X153748773Y-60095196D01*
X153724505Y-60098796D01*
X153700001Y-60100000D01*
X152799999Y-60100000D01*
X152775495Y-60098796D01*
X152751227Y-60095196D01*
X152727428Y-60089235D01*
X152704329Y-60080970D01*
X152682150Y-60070480D01*
X152661107Y-60057868D01*
X152641401Y-60043253D01*
X152623223Y-60026777D01*
X152606747Y-60008599D01*
X152592132Y-59988893D01*
X152579520Y-59967850D01*
X152569030Y-59945671D01*
X152560765Y-59922572D01*
X152554804Y-59898773D01*
X152551204Y-59874505D01*
X152550000Y-59850001D01*
X152550000Y-59199999D01*
X152551204Y-59175495D01*
X152554804Y-59151227D01*
X152560765Y-59127428D01*
X152569030Y-59104329D01*
X152579520Y-59082150D01*
X152592132Y-59061107D01*
X152606747Y-59041401D01*
X152623223Y-59023223D01*
X152641401Y-59006747D01*
X152661107Y-58992132D01*
X152682150Y-58979520D01*
X152704329Y-58969030D01*
X152727428Y-58960765D01*
X152751227Y-58954804D01*
X152775495Y-58951204D01*
X152799999Y-58950000D01*
X153700001Y-58950000D01*
X153724505Y-58951204D01*
G37*
G36*
X153724505Y-56901204D02*
G01*
X153748773Y-56904804D01*
X153772572Y-56910765D01*
X153795671Y-56919030D01*
X153817850Y-56929520D01*
X153838893Y-56942132D01*
X153858599Y-56956747D01*
X153876777Y-56973223D01*
X153893253Y-56991401D01*
X153907868Y-57011107D01*
X153920480Y-57032150D01*
X153930970Y-57054329D01*
X153939235Y-57077428D01*
X153945196Y-57101227D01*
X153948796Y-57125495D01*
X153950000Y-57149999D01*
X153950000Y-57800001D01*
X153948796Y-57824505D01*
X153945196Y-57848773D01*
X153939235Y-57872572D01*
X153930970Y-57895671D01*
X153920480Y-57917850D01*
X153907868Y-57938893D01*
X153893253Y-57958599D01*
X153876777Y-57976777D01*
X153858599Y-57993253D01*
X153838893Y-58007868D01*
X153817850Y-58020480D01*
X153795671Y-58030970D01*
X153772572Y-58039235D01*
X153748773Y-58045196D01*
X153724505Y-58048796D01*
X153700001Y-58050000D01*
X152799999Y-58050000D01*
X152775495Y-58048796D01*
X152751227Y-58045196D01*
X152727428Y-58039235D01*
X152704329Y-58030970D01*
X152682150Y-58020480D01*
X152661107Y-58007868D01*
X152641401Y-57993253D01*
X152623223Y-57976777D01*
X152606747Y-57958599D01*
X152592132Y-57938893D01*
X152579520Y-57917850D01*
X152569030Y-57895671D01*
X152560765Y-57872572D01*
X152554804Y-57848773D01*
X152551204Y-57824505D01*
X152550000Y-57800001D01*
X152550000Y-57149999D01*
X152551204Y-57125495D01*
X152554804Y-57101227D01*
X152560765Y-57077428D01*
X152569030Y-57054329D01*
X152579520Y-57032150D01*
X152592132Y-57011107D01*
X152606747Y-56991401D01*
X152623223Y-56973223D01*
X152641401Y-56956747D01*
X152661107Y-56942132D01*
X152682150Y-56929520D01*
X152704329Y-56919030D01*
X152727428Y-56910765D01*
X152751227Y-56904804D01*
X152775495Y-56901204D01*
X152799999Y-56900000D01*
X153700001Y-56900000D01*
X153724505Y-56901204D01*
G37*
D12*
X134750000Y-67500000D03*
X138750000Y-67500000D03*
D10*
G36*
X136724505Y-56926204D02*
G01*
X136748773Y-56929804D01*
X136772572Y-56935765D01*
X136795671Y-56944030D01*
X136817850Y-56954520D01*
X136838893Y-56967132D01*
X136858599Y-56981747D01*
X136876777Y-56998223D01*
X136893253Y-57016401D01*
X136907868Y-57036107D01*
X136920480Y-57057150D01*
X136930970Y-57079329D01*
X136939235Y-57102428D01*
X136945196Y-57126227D01*
X136948796Y-57150495D01*
X136950000Y-57174999D01*
X136950000Y-57825001D01*
X136948796Y-57849505D01*
X136945196Y-57873773D01*
X136939235Y-57897572D01*
X136930970Y-57920671D01*
X136920480Y-57942850D01*
X136907868Y-57963893D01*
X136893253Y-57983599D01*
X136876777Y-58001777D01*
X136858599Y-58018253D01*
X136838893Y-58032868D01*
X136817850Y-58045480D01*
X136795671Y-58055970D01*
X136772572Y-58064235D01*
X136748773Y-58070196D01*
X136724505Y-58073796D01*
X136700001Y-58075000D01*
X135799999Y-58075000D01*
X135775495Y-58073796D01*
X135751227Y-58070196D01*
X135727428Y-58064235D01*
X135704329Y-58055970D01*
X135682150Y-58045480D01*
X135661107Y-58032868D01*
X135641401Y-58018253D01*
X135623223Y-58001777D01*
X135606747Y-57983599D01*
X135592132Y-57963893D01*
X135579520Y-57942850D01*
X135569030Y-57920671D01*
X135560765Y-57897572D01*
X135554804Y-57873773D01*
X135551204Y-57849505D01*
X135550000Y-57825001D01*
X135550000Y-57174999D01*
X135551204Y-57150495D01*
X135554804Y-57126227D01*
X135560765Y-57102428D01*
X135569030Y-57079329D01*
X135579520Y-57057150D01*
X135592132Y-57036107D01*
X135606747Y-57016401D01*
X135623223Y-56998223D01*
X135641401Y-56981747D01*
X135661107Y-56967132D01*
X135682150Y-56954520D01*
X135704329Y-56944030D01*
X135727428Y-56935765D01*
X135751227Y-56929804D01*
X135775495Y-56926204D01*
X135799999Y-56925000D01*
X136700001Y-56925000D01*
X136724505Y-56926204D01*
G37*
G36*
X136724505Y-58976204D02*
G01*
X136748773Y-58979804D01*
X136772572Y-58985765D01*
X136795671Y-58994030D01*
X136817850Y-59004520D01*
X136838893Y-59017132D01*
X136858599Y-59031747D01*
X136876777Y-59048223D01*
X136893253Y-59066401D01*
X136907868Y-59086107D01*
X136920480Y-59107150D01*
X136930970Y-59129329D01*
X136939235Y-59152428D01*
X136945196Y-59176227D01*
X136948796Y-59200495D01*
X136950000Y-59224999D01*
X136950000Y-59875001D01*
X136948796Y-59899505D01*
X136945196Y-59923773D01*
X136939235Y-59947572D01*
X136930970Y-59970671D01*
X136920480Y-59992850D01*
X136907868Y-60013893D01*
X136893253Y-60033599D01*
X136876777Y-60051777D01*
X136858599Y-60068253D01*
X136838893Y-60082868D01*
X136817850Y-60095480D01*
X136795671Y-60105970D01*
X136772572Y-60114235D01*
X136748773Y-60120196D01*
X136724505Y-60123796D01*
X136700001Y-60125000D01*
X135799999Y-60125000D01*
X135775495Y-60123796D01*
X135751227Y-60120196D01*
X135727428Y-60114235D01*
X135704329Y-60105970D01*
X135682150Y-60095480D01*
X135661107Y-60082868D01*
X135641401Y-60068253D01*
X135623223Y-60051777D01*
X135606747Y-60033599D01*
X135592132Y-60013893D01*
X135579520Y-59992850D01*
X135569030Y-59970671D01*
X135560765Y-59947572D01*
X135554804Y-59923773D01*
X135551204Y-59899505D01*
X135550000Y-59875001D01*
X135550000Y-59224999D01*
X135551204Y-59200495D01*
X135554804Y-59176227D01*
X135560765Y-59152428D01*
X135569030Y-59129329D01*
X135579520Y-59107150D01*
X135592132Y-59086107D01*
X135606747Y-59066401D01*
X135623223Y-59048223D01*
X135641401Y-59031747D01*
X135661107Y-59017132D01*
X135682150Y-59004520D01*
X135704329Y-58994030D01*
X135727428Y-58985765D01*
X135751227Y-58979804D01*
X135775495Y-58976204D01*
X135799999Y-58975000D01*
X136700001Y-58975000D01*
X136724505Y-58976204D01*
G37*
G36*
X119724505Y-58976204D02*
G01*
X119748773Y-58979804D01*
X119772572Y-58985765D01*
X119795671Y-58994030D01*
X119817850Y-59004520D01*
X119838893Y-59017132D01*
X119858599Y-59031747D01*
X119876777Y-59048223D01*
X119893253Y-59066401D01*
X119907868Y-59086107D01*
X119920480Y-59107150D01*
X119930970Y-59129329D01*
X119939235Y-59152428D01*
X119945196Y-59176227D01*
X119948796Y-59200495D01*
X119950000Y-59224999D01*
X119950000Y-59875001D01*
X119948796Y-59899505D01*
X119945196Y-59923773D01*
X119939235Y-59947572D01*
X119930970Y-59970671D01*
X119920480Y-59992850D01*
X119907868Y-60013893D01*
X119893253Y-60033599D01*
X119876777Y-60051777D01*
X119858599Y-60068253D01*
X119838893Y-60082868D01*
X119817850Y-60095480D01*
X119795671Y-60105970D01*
X119772572Y-60114235D01*
X119748773Y-60120196D01*
X119724505Y-60123796D01*
X119700001Y-60125000D01*
X118799999Y-60125000D01*
X118775495Y-60123796D01*
X118751227Y-60120196D01*
X118727428Y-60114235D01*
X118704329Y-60105970D01*
X118682150Y-60095480D01*
X118661107Y-60082868D01*
X118641401Y-60068253D01*
X118623223Y-60051777D01*
X118606747Y-60033599D01*
X118592132Y-60013893D01*
X118579520Y-59992850D01*
X118569030Y-59970671D01*
X118560765Y-59947572D01*
X118554804Y-59923773D01*
X118551204Y-59899505D01*
X118550000Y-59875001D01*
X118550000Y-59224999D01*
X118551204Y-59200495D01*
X118554804Y-59176227D01*
X118560765Y-59152428D01*
X118569030Y-59129329D01*
X118579520Y-59107150D01*
X118592132Y-59086107D01*
X118606747Y-59066401D01*
X118623223Y-59048223D01*
X118641401Y-59031747D01*
X118661107Y-59017132D01*
X118682150Y-59004520D01*
X118704329Y-58994030D01*
X118727428Y-58985765D01*
X118751227Y-58979804D01*
X118775495Y-58976204D01*
X118799999Y-58975000D01*
X119700001Y-58975000D01*
X119724505Y-58976204D01*
G37*
G36*
X119724505Y-56926204D02*
G01*
X119748773Y-56929804D01*
X119772572Y-56935765D01*
X119795671Y-56944030D01*
X119817850Y-56954520D01*
X119838893Y-56967132D01*
X119858599Y-56981747D01*
X119876777Y-56998223D01*
X119893253Y-57016401D01*
X119907868Y-57036107D01*
X119920480Y-57057150D01*
X119930970Y-57079329D01*
X119939235Y-57102428D01*
X119945196Y-57126227D01*
X119948796Y-57150495D01*
X119950000Y-57174999D01*
X119950000Y-57825001D01*
X119948796Y-57849505D01*
X119945196Y-57873773D01*
X119939235Y-57897572D01*
X119930970Y-57920671D01*
X119920480Y-57942850D01*
X119907868Y-57963893D01*
X119893253Y-57983599D01*
X119876777Y-58001777D01*
X119858599Y-58018253D01*
X119838893Y-58032868D01*
X119817850Y-58045480D01*
X119795671Y-58055970D01*
X119772572Y-58064235D01*
X119748773Y-58070196D01*
X119724505Y-58073796D01*
X119700001Y-58075000D01*
X118799999Y-58075000D01*
X118775495Y-58073796D01*
X118751227Y-58070196D01*
X118727428Y-58064235D01*
X118704329Y-58055970D01*
X118682150Y-58045480D01*
X118661107Y-58032868D01*
X118641401Y-58018253D01*
X118623223Y-58001777D01*
X118606747Y-57983599D01*
X118592132Y-57963893D01*
X118579520Y-57942850D01*
X118569030Y-57920671D01*
X118560765Y-57897572D01*
X118554804Y-57873773D01*
X118551204Y-57849505D01*
X118550000Y-57825001D01*
X118550000Y-57174999D01*
X118551204Y-57150495D01*
X118554804Y-57126227D01*
X118560765Y-57102428D01*
X118569030Y-57079329D01*
X118579520Y-57057150D01*
X118592132Y-57036107D01*
X118606747Y-57016401D01*
X118623223Y-56998223D01*
X118641401Y-56981747D01*
X118661107Y-56967132D01*
X118682150Y-56954520D01*
X118704329Y-56944030D01*
X118727428Y-56935765D01*
X118751227Y-56929804D01*
X118775495Y-56926204D01*
X118799999Y-56925000D01*
X119700001Y-56925000D01*
X119724505Y-56926204D01*
G37*
G36*
X102724505Y-56876204D02*
G01*
X102748773Y-56879804D01*
X102772572Y-56885765D01*
X102795671Y-56894030D01*
X102817850Y-56904520D01*
X102838893Y-56917132D01*
X102858599Y-56931747D01*
X102876777Y-56948223D01*
X102893253Y-56966401D01*
X102907868Y-56986107D01*
X102920480Y-57007150D01*
X102930970Y-57029329D01*
X102939235Y-57052428D01*
X102945196Y-57076227D01*
X102948796Y-57100495D01*
X102950000Y-57124999D01*
X102950000Y-57775001D01*
X102948796Y-57799505D01*
X102945196Y-57823773D01*
X102939235Y-57847572D01*
X102930970Y-57870671D01*
X102920480Y-57892850D01*
X102907868Y-57913893D01*
X102893253Y-57933599D01*
X102876777Y-57951777D01*
X102858599Y-57968253D01*
X102838893Y-57982868D01*
X102817850Y-57995480D01*
X102795671Y-58005970D01*
X102772572Y-58014235D01*
X102748773Y-58020196D01*
X102724505Y-58023796D01*
X102700001Y-58025000D01*
X101799999Y-58025000D01*
X101775495Y-58023796D01*
X101751227Y-58020196D01*
X101727428Y-58014235D01*
X101704329Y-58005970D01*
X101682150Y-57995480D01*
X101661107Y-57982868D01*
X101641401Y-57968253D01*
X101623223Y-57951777D01*
X101606747Y-57933599D01*
X101592132Y-57913893D01*
X101579520Y-57892850D01*
X101569030Y-57870671D01*
X101560765Y-57847572D01*
X101554804Y-57823773D01*
X101551204Y-57799505D01*
X101550000Y-57775001D01*
X101550000Y-57124999D01*
X101551204Y-57100495D01*
X101554804Y-57076227D01*
X101560765Y-57052428D01*
X101569030Y-57029329D01*
X101579520Y-57007150D01*
X101592132Y-56986107D01*
X101606747Y-56966401D01*
X101623223Y-56948223D01*
X101641401Y-56931747D01*
X101661107Y-56917132D01*
X101682150Y-56904520D01*
X101704329Y-56894030D01*
X101727428Y-56885765D01*
X101751227Y-56879804D01*
X101775495Y-56876204D01*
X101799999Y-56875000D01*
X102700001Y-56875000D01*
X102724505Y-56876204D01*
G37*
G36*
X102724505Y-58926204D02*
G01*
X102748773Y-58929804D01*
X102772572Y-58935765D01*
X102795671Y-58944030D01*
X102817850Y-58954520D01*
X102838893Y-58967132D01*
X102858599Y-58981747D01*
X102876777Y-58998223D01*
X102893253Y-59016401D01*
X102907868Y-59036107D01*
X102920480Y-59057150D01*
X102930970Y-59079329D01*
X102939235Y-59102428D01*
X102945196Y-59126227D01*
X102948796Y-59150495D01*
X102950000Y-59174999D01*
X102950000Y-59825001D01*
X102948796Y-59849505D01*
X102945196Y-59873773D01*
X102939235Y-59897572D01*
X102930970Y-59920671D01*
X102920480Y-59942850D01*
X102907868Y-59963893D01*
X102893253Y-59983599D01*
X102876777Y-60001777D01*
X102858599Y-60018253D01*
X102838893Y-60032868D01*
X102817850Y-60045480D01*
X102795671Y-60055970D01*
X102772572Y-60064235D01*
X102748773Y-60070196D01*
X102724505Y-60073796D01*
X102700001Y-60075000D01*
X101799999Y-60075000D01*
X101775495Y-60073796D01*
X101751227Y-60070196D01*
X101727428Y-60064235D01*
X101704329Y-60055970D01*
X101682150Y-60045480D01*
X101661107Y-60032868D01*
X101641401Y-60018253D01*
X101623223Y-60001777D01*
X101606747Y-59983599D01*
X101592132Y-59963893D01*
X101579520Y-59942850D01*
X101569030Y-59920671D01*
X101560765Y-59897572D01*
X101554804Y-59873773D01*
X101551204Y-59849505D01*
X101550000Y-59825001D01*
X101550000Y-59174999D01*
X101551204Y-59150495D01*
X101554804Y-59126227D01*
X101560765Y-59102428D01*
X101569030Y-59079329D01*
X101579520Y-59057150D01*
X101592132Y-59036107D01*
X101606747Y-59016401D01*
X101623223Y-58998223D01*
X101641401Y-58981747D01*
X101661107Y-58967132D01*
X101682150Y-58954520D01*
X101704329Y-58944030D01*
X101727428Y-58935765D01*
X101751227Y-58929804D01*
X101775495Y-58926204D01*
X101799999Y-58925000D01*
X102700001Y-58925000D01*
X102724505Y-58926204D01*
G37*
G36*
X92099505Y-63301204D02*
G01*
X92123773Y-63304804D01*
X92147572Y-63310765D01*
X92170671Y-63319030D01*
X92192850Y-63329520D01*
X92213893Y-63342132D01*
X92233599Y-63356747D01*
X92251777Y-63373223D01*
X92268253Y-63391401D01*
X92282868Y-63411107D01*
X92295480Y-63432150D01*
X92305970Y-63454329D01*
X92314235Y-63477428D01*
X92320196Y-63501227D01*
X92323796Y-63525495D01*
X92325000Y-63549999D01*
X92325000Y-64450001D01*
X92323796Y-64474505D01*
X92320196Y-64498773D01*
X92314235Y-64522572D01*
X92305970Y-64545671D01*
X92295480Y-64567850D01*
X92282868Y-64588893D01*
X92268253Y-64608599D01*
X92251777Y-64626777D01*
X92233599Y-64643253D01*
X92213893Y-64657868D01*
X92192850Y-64670480D01*
X92170671Y-64680970D01*
X92147572Y-64689235D01*
X92123773Y-64695196D01*
X92099505Y-64698796D01*
X92075001Y-64700000D01*
X91424999Y-64700000D01*
X91400495Y-64698796D01*
X91376227Y-64695196D01*
X91352428Y-64689235D01*
X91329329Y-64680970D01*
X91307150Y-64670480D01*
X91286107Y-64657868D01*
X91266401Y-64643253D01*
X91248223Y-64626777D01*
X91231747Y-64608599D01*
X91217132Y-64588893D01*
X91204520Y-64567850D01*
X91194030Y-64545671D01*
X91185765Y-64522572D01*
X91179804Y-64498773D01*
X91176204Y-64474505D01*
X91175000Y-64450001D01*
X91175000Y-63549999D01*
X91176204Y-63525495D01*
X91179804Y-63501227D01*
X91185765Y-63477428D01*
X91194030Y-63454329D01*
X91204520Y-63432150D01*
X91217132Y-63411107D01*
X91231747Y-63391401D01*
X91248223Y-63373223D01*
X91266401Y-63356747D01*
X91286107Y-63342132D01*
X91307150Y-63329520D01*
X91329329Y-63319030D01*
X91352428Y-63310765D01*
X91376227Y-63304804D01*
X91400495Y-63301204D01*
X91424999Y-63300000D01*
X92075001Y-63300000D01*
X92099505Y-63301204D01*
G37*
G36*
X90049505Y-63301204D02*
G01*
X90073773Y-63304804D01*
X90097572Y-63310765D01*
X90120671Y-63319030D01*
X90142850Y-63329520D01*
X90163893Y-63342132D01*
X90183599Y-63356747D01*
X90201777Y-63373223D01*
X90218253Y-63391401D01*
X90232868Y-63411107D01*
X90245480Y-63432150D01*
X90255970Y-63454329D01*
X90264235Y-63477428D01*
X90270196Y-63501227D01*
X90273796Y-63525495D01*
X90275000Y-63549999D01*
X90275000Y-64450001D01*
X90273796Y-64474505D01*
X90270196Y-64498773D01*
X90264235Y-64522572D01*
X90255970Y-64545671D01*
X90245480Y-64567850D01*
X90232868Y-64588893D01*
X90218253Y-64608599D01*
X90201777Y-64626777D01*
X90183599Y-64643253D01*
X90163893Y-64657868D01*
X90142850Y-64670480D01*
X90120671Y-64680970D01*
X90097572Y-64689235D01*
X90073773Y-64695196D01*
X90049505Y-64698796D01*
X90025001Y-64700000D01*
X89374999Y-64700000D01*
X89350495Y-64698796D01*
X89326227Y-64695196D01*
X89302428Y-64689235D01*
X89279329Y-64680970D01*
X89257150Y-64670480D01*
X89236107Y-64657868D01*
X89216401Y-64643253D01*
X89198223Y-64626777D01*
X89181747Y-64608599D01*
X89167132Y-64588893D01*
X89154520Y-64567850D01*
X89144030Y-64545671D01*
X89135765Y-64522572D01*
X89129804Y-64498773D01*
X89126204Y-64474505D01*
X89125000Y-64450001D01*
X89125000Y-63549999D01*
X89126204Y-63525495D01*
X89129804Y-63501227D01*
X89135765Y-63477428D01*
X89144030Y-63454329D01*
X89154520Y-63432150D01*
X89167132Y-63411107D01*
X89181747Y-63391401D01*
X89198223Y-63373223D01*
X89216401Y-63356747D01*
X89236107Y-63342132D01*
X89257150Y-63329520D01*
X89279329Y-63319030D01*
X89302428Y-63310765D01*
X89326227Y-63304804D01*
X89350495Y-63301204D01*
X89374999Y-63300000D01*
X90025001Y-63300000D01*
X90049505Y-63301204D01*
G37*
D13*
X144750000Y-77000000D03*
X144750000Y-73000000D03*
X93250000Y-76500000D03*
X93250000Y-72500000D03*
X134250000Y-75000000D03*
X134250000Y-71000000D03*
D12*
X185750000Y-68000000D03*
X189750000Y-68000000D03*
X168750000Y-68000000D03*
X172750000Y-68000000D03*
X151750000Y-68000000D03*
X155750000Y-68000000D03*
X121750000Y-67500000D03*
X117750000Y-67500000D03*
X104750000Y-67500000D03*
X100750000Y-67500000D03*
D13*
X86250000Y-82000000D03*
X86250000Y-78000000D03*
X195750000Y-76000000D03*
X195750000Y-72000000D03*
X178750000Y-72000000D03*
X178750000Y-76000000D03*
X161750000Y-76000000D03*
X161750000Y-72000000D03*
X127750000Y-72500000D03*
X127750000Y-76500000D03*
X110750000Y-72500000D03*
X110750000Y-76500000D03*
X93250000Y-84500000D03*
X93250000Y-88500000D03*
X134250000Y-82500000D03*
X134250000Y-78500000D03*
X193250000Y-96500000D03*
X193250000Y-100500000D03*
X176750000Y-100500000D03*
X176750000Y-96500000D03*
X159750000Y-96500000D03*
X159750000Y-100500000D03*
X144750000Y-88500000D03*
X144750000Y-84500000D03*
X125250000Y-100500000D03*
X125250000Y-96500000D03*
X108250000Y-100500000D03*
X108250000Y-96500000D03*
X91250000Y-100500000D03*
X91250000Y-96500000D03*
X195750000Y-107500000D03*
X195750000Y-111500000D03*
X171250000Y-105500000D03*
X171250000Y-101500000D03*
X161750000Y-107500000D03*
X161750000Y-111500000D03*
D12*
X141250000Y-96500000D03*
X137250000Y-96500000D03*
D13*
X127750000Y-111500000D03*
X127750000Y-107500000D03*
X110750000Y-111500000D03*
X110750000Y-107500000D03*
X93250000Y-107500000D03*
X93250000Y-111500000D03*
X187750000Y-105500000D03*
X187750000Y-101500000D03*
X179500000Y-108500000D03*
X179500000Y-112500000D03*
X154250000Y-105500000D03*
X154250000Y-101500000D03*
X120250000Y-101500000D03*
X120250000Y-105500000D03*
X103250000Y-101500000D03*
X103250000Y-105500000D03*
X144750000Y-111500000D03*
X144750000Y-107500000D03*
D10*
G36*
X192049505Y-114301204D02*
G01*
X192073773Y-114304804D01*
X192097572Y-114310765D01*
X192120671Y-114319030D01*
X192142850Y-114329520D01*
X192163893Y-114342132D01*
X192183599Y-114356747D01*
X192201777Y-114373223D01*
X192218253Y-114391401D01*
X192232868Y-114411107D01*
X192245480Y-114432150D01*
X192255970Y-114454329D01*
X192264235Y-114477428D01*
X192270196Y-114501227D01*
X192273796Y-114525495D01*
X192275000Y-114549999D01*
X192275000Y-115450001D01*
X192273796Y-115474505D01*
X192270196Y-115498773D01*
X192264235Y-115522572D01*
X192255970Y-115545671D01*
X192245480Y-115567850D01*
X192232868Y-115588893D01*
X192218253Y-115608599D01*
X192201777Y-115626777D01*
X192183599Y-115643253D01*
X192163893Y-115657868D01*
X192142850Y-115670480D01*
X192120671Y-115680970D01*
X192097572Y-115689235D01*
X192073773Y-115695196D01*
X192049505Y-115698796D01*
X192025001Y-115700000D01*
X191374999Y-115700000D01*
X191350495Y-115698796D01*
X191326227Y-115695196D01*
X191302428Y-115689235D01*
X191279329Y-115680970D01*
X191257150Y-115670480D01*
X191236107Y-115657868D01*
X191216401Y-115643253D01*
X191198223Y-115626777D01*
X191181747Y-115608599D01*
X191167132Y-115588893D01*
X191154520Y-115567850D01*
X191144030Y-115545671D01*
X191135765Y-115522572D01*
X191129804Y-115498773D01*
X191126204Y-115474505D01*
X191125000Y-115450001D01*
X191125000Y-114549999D01*
X191126204Y-114525495D01*
X191129804Y-114501227D01*
X191135765Y-114477428D01*
X191144030Y-114454329D01*
X191154520Y-114432150D01*
X191167132Y-114411107D01*
X191181747Y-114391401D01*
X191198223Y-114373223D01*
X191216401Y-114356747D01*
X191236107Y-114342132D01*
X191257150Y-114329520D01*
X191279329Y-114319030D01*
X191302428Y-114310765D01*
X191326227Y-114304804D01*
X191350495Y-114301204D01*
X191374999Y-114300000D01*
X192025001Y-114300000D01*
X192049505Y-114301204D01*
G37*
G36*
X194099505Y-114301204D02*
G01*
X194123773Y-114304804D01*
X194147572Y-114310765D01*
X194170671Y-114319030D01*
X194192850Y-114329520D01*
X194213893Y-114342132D01*
X194233599Y-114356747D01*
X194251777Y-114373223D01*
X194268253Y-114391401D01*
X194282868Y-114411107D01*
X194295480Y-114432150D01*
X194305970Y-114454329D01*
X194314235Y-114477428D01*
X194320196Y-114501227D01*
X194323796Y-114525495D01*
X194325000Y-114549999D01*
X194325000Y-115450001D01*
X194323796Y-115474505D01*
X194320196Y-115498773D01*
X194314235Y-115522572D01*
X194305970Y-115545671D01*
X194295480Y-115567850D01*
X194282868Y-115588893D01*
X194268253Y-115608599D01*
X194251777Y-115626777D01*
X194233599Y-115643253D01*
X194213893Y-115657868D01*
X194192850Y-115670480D01*
X194170671Y-115680970D01*
X194147572Y-115689235D01*
X194123773Y-115695196D01*
X194099505Y-115698796D01*
X194075001Y-115700000D01*
X193424999Y-115700000D01*
X193400495Y-115698796D01*
X193376227Y-115695196D01*
X193352428Y-115689235D01*
X193329329Y-115680970D01*
X193307150Y-115670480D01*
X193286107Y-115657868D01*
X193266401Y-115643253D01*
X193248223Y-115626777D01*
X193231747Y-115608599D01*
X193217132Y-115588893D01*
X193204520Y-115567850D01*
X193194030Y-115545671D01*
X193185765Y-115522572D01*
X193179804Y-115498773D01*
X193176204Y-115474505D01*
X193175000Y-115450001D01*
X193175000Y-114549999D01*
X193176204Y-114525495D01*
X193179804Y-114501227D01*
X193185765Y-114477428D01*
X193194030Y-114454329D01*
X193204520Y-114432150D01*
X193217132Y-114411107D01*
X193231747Y-114391401D01*
X193248223Y-114373223D01*
X193266401Y-114356747D01*
X193286107Y-114342132D01*
X193307150Y-114329520D01*
X193329329Y-114319030D01*
X193352428Y-114310765D01*
X193376227Y-114304804D01*
X193400495Y-114301204D01*
X193424999Y-114300000D01*
X194075001Y-114300000D01*
X194099505Y-114301204D01*
G37*
G36*
X175049505Y-114301204D02*
G01*
X175073773Y-114304804D01*
X175097572Y-114310765D01*
X175120671Y-114319030D01*
X175142850Y-114329520D01*
X175163893Y-114342132D01*
X175183599Y-114356747D01*
X175201777Y-114373223D01*
X175218253Y-114391401D01*
X175232868Y-114411107D01*
X175245480Y-114432150D01*
X175255970Y-114454329D01*
X175264235Y-114477428D01*
X175270196Y-114501227D01*
X175273796Y-114525495D01*
X175275000Y-114549999D01*
X175275000Y-115450001D01*
X175273796Y-115474505D01*
X175270196Y-115498773D01*
X175264235Y-115522572D01*
X175255970Y-115545671D01*
X175245480Y-115567850D01*
X175232868Y-115588893D01*
X175218253Y-115608599D01*
X175201777Y-115626777D01*
X175183599Y-115643253D01*
X175163893Y-115657868D01*
X175142850Y-115670480D01*
X175120671Y-115680970D01*
X175097572Y-115689235D01*
X175073773Y-115695196D01*
X175049505Y-115698796D01*
X175025001Y-115700000D01*
X174374999Y-115700000D01*
X174350495Y-115698796D01*
X174326227Y-115695196D01*
X174302428Y-115689235D01*
X174279329Y-115680970D01*
X174257150Y-115670480D01*
X174236107Y-115657868D01*
X174216401Y-115643253D01*
X174198223Y-115626777D01*
X174181747Y-115608599D01*
X174167132Y-115588893D01*
X174154520Y-115567850D01*
X174144030Y-115545671D01*
X174135765Y-115522572D01*
X174129804Y-115498773D01*
X174126204Y-115474505D01*
X174125000Y-115450001D01*
X174125000Y-114549999D01*
X174126204Y-114525495D01*
X174129804Y-114501227D01*
X174135765Y-114477428D01*
X174144030Y-114454329D01*
X174154520Y-114432150D01*
X174167132Y-114411107D01*
X174181747Y-114391401D01*
X174198223Y-114373223D01*
X174216401Y-114356747D01*
X174236107Y-114342132D01*
X174257150Y-114329520D01*
X174279329Y-114319030D01*
X174302428Y-114310765D01*
X174326227Y-114304804D01*
X174350495Y-114301204D01*
X174374999Y-114300000D01*
X175025001Y-114300000D01*
X175049505Y-114301204D01*
G37*
G36*
X177099505Y-114301204D02*
G01*
X177123773Y-114304804D01*
X177147572Y-114310765D01*
X177170671Y-114319030D01*
X177192850Y-114329520D01*
X177213893Y-114342132D01*
X177233599Y-114356747D01*
X177251777Y-114373223D01*
X177268253Y-114391401D01*
X177282868Y-114411107D01*
X177295480Y-114432150D01*
X177305970Y-114454329D01*
X177314235Y-114477428D01*
X177320196Y-114501227D01*
X177323796Y-114525495D01*
X177325000Y-114549999D01*
X177325000Y-115450001D01*
X177323796Y-115474505D01*
X177320196Y-115498773D01*
X177314235Y-115522572D01*
X177305970Y-115545671D01*
X177295480Y-115567850D01*
X177282868Y-115588893D01*
X177268253Y-115608599D01*
X177251777Y-115626777D01*
X177233599Y-115643253D01*
X177213893Y-115657868D01*
X177192850Y-115670480D01*
X177170671Y-115680970D01*
X177147572Y-115689235D01*
X177123773Y-115695196D01*
X177099505Y-115698796D01*
X177075001Y-115700000D01*
X176424999Y-115700000D01*
X176400495Y-115698796D01*
X176376227Y-115695196D01*
X176352428Y-115689235D01*
X176329329Y-115680970D01*
X176307150Y-115670480D01*
X176286107Y-115657868D01*
X176266401Y-115643253D01*
X176248223Y-115626777D01*
X176231747Y-115608599D01*
X176217132Y-115588893D01*
X176204520Y-115567850D01*
X176194030Y-115545671D01*
X176185765Y-115522572D01*
X176179804Y-115498773D01*
X176176204Y-115474505D01*
X176175000Y-115450001D01*
X176175000Y-114549999D01*
X176176204Y-114525495D01*
X176179804Y-114501227D01*
X176185765Y-114477428D01*
X176194030Y-114454329D01*
X176204520Y-114432150D01*
X176217132Y-114411107D01*
X176231747Y-114391401D01*
X176248223Y-114373223D01*
X176266401Y-114356747D01*
X176286107Y-114342132D01*
X176307150Y-114329520D01*
X176329329Y-114319030D01*
X176352428Y-114310765D01*
X176376227Y-114304804D01*
X176400495Y-114301204D01*
X176424999Y-114300000D01*
X177075001Y-114300000D01*
X177099505Y-114301204D01*
G37*
G36*
X158049505Y-114301204D02*
G01*
X158073773Y-114304804D01*
X158097572Y-114310765D01*
X158120671Y-114319030D01*
X158142850Y-114329520D01*
X158163893Y-114342132D01*
X158183599Y-114356747D01*
X158201777Y-114373223D01*
X158218253Y-114391401D01*
X158232868Y-114411107D01*
X158245480Y-114432150D01*
X158255970Y-114454329D01*
X158264235Y-114477428D01*
X158270196Y-114501227D01*
X158273796Y-114525495D01*
X158275000Y-114549999D01*
X158275000Y-115450001D01*
X158273796Y-115474505D01*
X158270196Y-115498773D01*
X158264235Y-115522572D01*
X158255970Y-115545671D01*
X158245480Y-115567850D01*
X158232868Y-115588893D01*
X158218253Y-115608599D01*
X158201777Y-115626777D01*
X158183599Y-115643253D01*
X158163893Y-115657868D01*
X158142850Y-115670480D01*
X158120671Y-115680970D01*
X158097572Y-115689235D01*
X158073773Y-115695196D01*
X158049505Y-115698796D01*
X158025001Y-115700000D01*
X157374999Y-115700000D01*
X157350495Y-115698796D01*
X157326227Y-115695196D01*
X157302428Y-115689235D01*
X157279329Y-115680970D01*
X157257150Y-115670480D01*
X157236107Y-115657868D01*
X157216401Y-115643253D01*
X157198223Y-115626777D01*
X157181747Y-115608599D01*
X157167132Y-115588893D01*
X157154520Y-115567850D01*
X157144030Y-115545671D01*
X157135765Y-115522572D01*
X157129804Y-115498773D01*
X157126204Y-115474505D01*
X157125000Y-115450001D01*
X157125000Y-114549999D01*
X157126204Y-114525495D01*
X157129804Y-114501227D01*
X157135765Y-114477428D01*
X157144030Y-114454329D01*
X157154520Y-114432150D01*
X157167132Y-114411107D01*
X157181747Y-114391401D01*
X157198223Y-114373223D01*
X157216401Y-114356747D01*
X157236107Y-114342132D01*
X157257150Y-114329520D01*
X157279329Y-114319030D01*
X157302428Y-114310765D01*
X157326227Y-114304804D01*
X157350495Y-114301204D01*
X157374999Y-114300000D01*
X158025001Y-114300000D01*
X158049505Y-114301204D01*
G37*
G36*
X160099505Y-114301204D02*
G01*
X160123773Y-114304804D01*
X160147572Y-114310765D01*
X160170671Y-114319030D01*
X160192850Y-114329520D01*
X160213893Y-114342132D01*
X160233599Y-114356747D01*
X160251777Y-114373223D01*
X160268253Y-114391401D01*
X160282868Y-114411107D01*
X160295480Y-114432150D01*
X160305970Y-114454329D01*
X160314235Y-114477428D01*
X160320196Y-114501227D01*
X160323796Y-114525495D01*
X160325000Y-114549999D01*
X160325000Y-115450001D01*
X160323796Y-115474505D01*
X160320196Y-115498773D01*
X160314235Y-115522572D01*
X160305970Y-115545671D01*
X160295480Y-115567850D01*
X160282868Y-115588893D01*
X160268253Y-115608599D01*
X160251777Y-115626777D01*
X160233599Y-115643253D01*
X160213893Y-115657868D01*
X160192850Y-115670480D01*
X160170671Y-115680970D01*
X160147572Y-115689235D01*
X160123773Y-115695196D01*
X160099505Y-115698796D01*
X160075001Y-115700000D01*
X159424999Y-115700000D01*
X159400495Y-115698796D01*
X159376227Y-115695196D01*
X159352428Y-115689235D01*
X159329329Y-115680970D01*
X159307150Y-115670480D01*
X159286107Y-115657868D01*
X159266401Y-115643253D01*
X159248223Y-115626777D01*
X159231747Y-115608599D01*
X159217132Y-115588893D01*
X159204520Y-115567850D01*
X159194030Y-115545671D01*
X159185765Y-115522572D01*
X159179804Y-115498773D01*
X159176204Y-115474505D01*
X159175000Y-115450001D01*
X159175000Y-114549999D01*
X159176204Y-114525495D01*
X159179804Y-114501227D01*
X159185765Y-114477428D01*
X159194030Y-114454329D01*
X159204520Y-114432150D01*
X159217132Y-114411107D01*
X159231747Y-114391401D01*
X159248223Y-114373223D01*
X159266401Y-114356747D01*
X159286107Y-114342132D01*
X159307150Y-114329520D01*
X159329329Y-114319030D01*
X159352428Y-114310765D01*
X159376227Y-114304804D01*
X159400495Y-114301204D01*
X159424999Y-114300000D01*
X160075001Y-114300000D01*
X160099505Y-114301204D01*
G37*
D13*
X137250000Y-101500000D03*
X137250000Y-105500000D03*
D10*
G36*
X141049505Y-114301204D02*
G01*
X141073773Y-114304804D01*
X141097572Y-114310765D01*
X141120671Y-114319030D01*
X141142850Y-114329520D01*
X141163893Y-114342132D01*
X141183599Y-114356747D01*
X141201777Y-114373223D01*
X141218253Y-114391401D01*
X141232868Y-114411107D01*
X141245480Y-114432150D01*
X141255970Y-114454329D01*
X141264235Y-114477428D01*
X141270196Y-114501227D01*
X141273796Y-114525495D01*
X141275000Y-114549999D01*
X141275000Y-115450001D01*
X141273796Y-115474505D01*
X141270196Y-115498773D01*
X141264235Y-115522572D01*
X141255970Y-115545671D01*
X141245480Y-115567850D01*
X141232868Y-115588893D01*
X141218253Y-115608599D01*
X141201777Y-115626777D01*
X141183599Y-115643253D01*
X141163893Y-115657868D01*
X141142850Y-115670480D01*
X141120671Y-115680970D01*
X141097572Y-115689235D01*
X141073773Y-115695196D01*
X141049505Y-115698796D01*
X141025001Y-115700000D01*
X140374999Y-115700000D01*
X140350495Y-115698796D01*
X140326227Y-115695196D01*
X140302428Y-115689235D01*
X140279329Y-115680970D01*
X140257150Y-115670480D01*
X140236107Y-115657868D01*
X140216401Y-115643253D01*
X140198223Y-115626777D01*
X140181747Y-115608599D01*
X140167132Y-115588893D01*
X140154520Y-115567850D01*
X140144030Y-115545671D01*
X140135765Y-115522572D01*
X140129804Y-115498773D01*
X140126204Y-115474505D01*
X140125000Y-115450001D01*
X140125000Y-114549999D01*
X140126204Y-114525495D01*
X140129804Y-114501227D01*
X140135765Y-114477428D01*
X140144030Y-114454329D01*
X140154520Y-114432150D01*
X140167132Y-114411107D01*
X140181747Y-114391401D01*
X140198223Y-114373223D01*
X140216401Y-114356747D01*
X140236107Y-114342132D01*
X140257150Y-114329520D01*
X140279329Y-114319030D01*
X140302428Y-114310765D01*
X140326227Y-114304804D01*
X140350495Y-114301204D01*
X140374999Y-114300000D01*
X141025001Y-114300000D01*
X141049505Y-114301204D01*
G37*
G36*
X143099505Y-114301204D02*
G01*
X143123773Y-114304804D01*
X143147572Y-114310765D01*
X143170671Y-114319030D01*
X143192850Y-114329520D01*
X143213893Y-114342132D01*
X143233599Y-114356747D01*
X143251777Y-114373223D01*
X143268253Y-114391401D01*
X143282868Y-114411107D01*
X143295480Y-114432150D01*
X143305970Y-114454329D01*
X143314235Y-114477428D01*
X143320196Y-114501227D01*
X143323796Y-114525495D01*
X143325000Y-114549999D01*
X143325000Y-115450001D01*
X143323796Y-115474505D01*
X143320196Y-115498773D01*
X143314235Y-115522572D01*
X143305970Y-115545671D01*
X143295480Y-115567850D01*
X143282868Y-115588893D01*
X143268253Y-115608599D01*
X143251777Y-115626777D01*
X143233599Y-115643253D01*
X143213893Y-115657868D01*
X143192850Y-115670480D01*
X143170671Y-115680970D01*
X143147572Y-115689235D01*
X143123773Y-115695196D01*
X143099505Y-115698796D01*
X143075001Y-115700000D01*
X142424999Y-115700000D01*
X142400495Y-115698796D01*
X142376227Y-115695196D01*
X142352428Y-115689235D01*
X142329329Y-115680970D01*
X142307150Y-115670480D01*
X142286107Y-115657868D01*
X142266401Y-115643253D01*
X142248223Y-115626777D01*
X142231747Y-115608599D01*
X142217132Y-115588893D01*
X142204520Y-115567850D01*
X142194030Y-115545671D01*
X142185765Y-115522572D01*
X142179804Y-115498773D01*
X142176204Y-115474505D01*
X142175000Y-115450001D01*
X142175000Y-114549999D01*
X142176204Y-114525495D01*
X142179804Y-114501227D01*
X142185765Y-114477428D01*
X142194030Y-114454329D01*
X142204520Y-114432150D01*
X142217132Y-114411107D01*
X142231747Y-114391401D01*
X142248223Y-114373223D01*
X142266401Y-114356747D01*
X142286107Y-114342132D01*
X142307150Y-114329520D01*
X142329329Y-114319030D01*
X142352428Y-114310765D01*
X142376227Y-114304804D01*
X142400495Y-114301204D01*
X142424999Y-114300000D01*
X143075001Y-114300000D01*
X143099505Y-114301204D01*
G37*
G36*
X124049505Y-114301204D02*
G01*
X124073773Y-114304804D01*
X124097572Y-114310765D01*
X124120671Y-114319030D01*
X124142850Y-114329520D01*
X124163893Y-114342132D01*
X124183599Y-114356747D01*
X124201777Y-114373223D01*
X124218253Y-114391401D01*
X124232868Y-114411107D01*
X124245480Y-114432150D01*
X124255970Y-114454329D01*
X124264235Y-114477428D01*
X124270196Y-114501227D01*
X124273796Y-114525495D01*
X124275000Y-114549999D01*
X124275000Y-115450001D01*
X124273796Y-115474505D01*
X124270196Y-115498773D01*
X124264235Y-115522572D01*
X124255970Y-115545671D01*
X124245480Y-115567850D01*
X124232868Y-115588893D01*
X124218253Y-115608599D01*
X124201777Y-115626777D01*
X124183599Y-115643253D01*
X124163893Y-115657868D01*
X124142850Y-115670480D01*
X124120671Y-115680970D01*
X124097572Y-115689235D01*
X124073773Y-115695196D01*
X124049505Y-115698796D01*
X124025001Y-115700000D01*
X123374999Y-115700000D01*
X123350495Y-115698796D01*
X123326227Y-115695196D01*
X123302428Y-115689235D01*
X123279329Y-115680970D01*
X123257150Y-115670480D01*
X123236107Y-115657868D01*
X123216401Y-115643253D01*
X123198223Y-115626777D01*
X123181747Y-115608599D01*
X123167132Y-115588893D01*
X123154520Y-115567850D01*
X123144030Y-115545671D01*
X123135765Y-115522572D01*
X123129804Y-115498773D01*
X123126204Y-115474505D01*
X123125000Y-115450001D01*
X123125000Y-114549999D01*
X123126204Y-114525495D01*
X123129804Y-114501227D01*
X123135765Y-114477428D01*
X123144030Y-114454329D01*
X123154520Y-114432150D01*
X123167132Y-114411107D01*
X123181747Y-114391401D01*
X123198223Y-114373223D01*
X123216401Y-114356747D01*
X123236107Y-114342132D01*
X123257150Y-114329520D01*
X123279329Y-114319030D01*
X123302428Y-114310765D01*
X123326227Y-114304804D01*
X123350495Y-114301204D01*
X123374999Y-114300000D01*
X124025001Y-114300000D01*
X124049505Y-114301204D01*
G37*
G36*
X126099505Y-114301204D02*
G01*
X126123773Y-114304804D01*
X126147572Y-114310765D01*
X126170671Y-114319030D01*
X126192850Y-114329520D01*
X126213893Y-114342132D01*
X126233599Y-114356747D01*
X126251777Y-114373223D01*
X126268253Y-114391401D01*
X126282868Y-114411107D01*
X126295480Y-114432150D01*
X126305970Y-114454329D01*
X126314235Y-114477428D01*
X126320196Y-114501227D01*
X126323796Y-114525495D01*
X126325000Y-114549999D01*
X126325000Y-115450001D01*
X126323796Y-115474505D01*
X126320196Y-115498773D01*
X126314235Y-115522572D01*
X126305970Y-115545671D01*
X126295480Y-115567850D01*
X126282868Y-115588893D01*
X126268253Y-115608599D01*
X126251777Y-115626777D01*
X126233599Y-115643253D01*
X126213893Y-115657868D01*
X126192850Y-115670480D01*
X126170671Y-115680970D01*
X126147572Y-115689235D01*
X126123773Y-115695196D01*
X126099505Y-115698796D01*
X126075001Y-115700000D01*
X125424999Y-115700000D01*
X125400495Y-115698796D01*
X125376227Y-115695196D01*
X125352428Y-115689235D01*
X125329329Y-115680970D01*
X125307150Y-115670480D01*
X125286107Y-115657868D01*
X125266401Y-115643253D01*
X125248223Y-115626777D01*
X125231747Y-115608599D01*
X125217132Y-115588893D01*
X125204520Y-115567850D01*
X125194030Y-115545671D01*
X125185765Y-115522572D01*
X125179804Y-115498773D01*
X125176204Y-115474505D01*
X125175000Y-115450001D01*
X125175000Y-114549999D01*
X125176204Y-114525495D01*
X125179804Y-114501227D01*
X125185765Y-114477428D01*
X125194030Y-114454329D01*
X125204520Y-114432150D01*
X125217132Y-114411107D01*
X125231747Y-114391401D01*
X125248223Y-114373223D01*
X125266401Y-114356747D01*
X125286107Y-114342132D01*
X125307150Y-114329520D01*
X125329329Y-114319030D01*
X125352428Y-114310765D01*
X125376227Y-114304804D01*
X125400495Y-114301204D01*
X125424999Y-114300000D01*
X126075001Y-114300000D01*
X126099505Y-114301204D01*
G37*
G36*
X109149505Y-114301204D02*
G01*
X109173773Y-114304804D01*
X109197572Y-114310765D01*
X109220671Y-114319030D01*
X109242850Y-114329520D01*
X109263893Y-114342132D01*
X109283599Y-114356747D01*
X109301777Y-114373223D01*
X109318253Y-114391401D01*
X109332868Y-114411107D01*
X109345480Y-114432150D01*
X109355970Y-114454329D01*
X109364235Y-114477428D01*
X109370196Y-114501227D01*
X109373796Y-114525495D01*
X109375000Y-114549999D01*
X109375000Y-115450001D01*
X109373796Y-115474505D01*
X109370196Y-115498773D01*
X109364235Y-115522572D01*
X109355970Y-115545671D01*
X109345480Y-115567850D01*
X109332868Y-115588893D01*
X109318253Y-115608599D01*
X109301777Y-115626777D01*
X109283599Y-115643253D01*
X109263893Y-115657868D01*
X109242850Y-115670480D01*
X109220671Y-115680970D01*
X109197572Y-115689235D01*
X109173773Y-115695196D01*
X109149505Y-115698796D01*
X109125001Y-115700000D01*
X108474999Y-115700000D01*
X108450495Y-115698796D01*
X108426227Y-115695196D01*
X108402428Y-115689235D01*
X108379329Y-115680970D01*
X108357150Y-115670480D01*
X108336107Y-115657868D01*
X108316401Y-115643253D01*
X108298223Y-115626777D01*
X108281747Y-115608599D01*
X108267132Y-115588893D01*
X108254520Y-115567850D01*
X108244030Y-115545671D01*
X108235765Y-115522572D01*
X108229804Y-115498773D01*
X108226204Y-115474505D01*
X108225000Y-115450001D01*
X108225000Y-114549999D01*
X108226204Y-114525495D01*
X108229804Y-114501227D01*
X108235765Y-114477428D01*
X108244030Y-114454329D01*
X108254520Y-114432150D01*
X108267132Y-114411107D01*
X108281747Y-114391401D01*
X108298223Y-114373223D01*
X108316401Y-114356747D01*
X108336107Y-114342132D01*
X108357150Y-114329520D01*
X108379329Y-114319030D01*
X108402428Y-114310765D01*
X108426227Y-114304804D01*
X108450495Y-114301204D01*
X108474999Y-114300000D01*
X109125001Y-114300000D01*
X109149505Y-114301204D01*
G37*
G36*
X107099505Y-114301204D02*
G01*
X107123773Y-114304804D01*
X107147572Y-114310765D01*
X107170671Y-114319030D01*
X107192850Y-114329520D01*
X107213893Y-114342132D01*
X107233599Y-114356747D01*
X107251777Y-114373223D01*
X107268253Y-114391401D01*
X107282868Y-114411107D01*
X107295480Y-114432150D01*
X107305970Y-114454329D01*
X107314235Y-114477428D01*
X107320196Y-114501227D01*
X107323796Y-114525495D01*
X107325000Y-114549999D01*
X107325000Y-115450001D01*
X107323796Y-115474505D01*
X107320196Y-115498773D01*
X107314235Y-115522572D01*
X107305970Y-115545671D01*
X107295480Y-115567850D01*
X107282868Y-115588893D01*
X107268253Y-115608599D01*
X107251777Y-115626777D01*
X107233599Y-115643253D01*
X107213893Y-115657868D01*
X107192850Y-115670480D01*
X107170671Y-115680970D01*
X107147572Y-115689235D01*
X107123773Y-115695196D01*
X107099505Y-115698796D01*
X107075001Y-115700000D01*
X106424999Y-115700000D01*
X106400495Y-115698796D01*
X106376227Y-115695196D01*
X106352428Y-115689235D01*
X106329329Y-115680970D01*
X106307150Y-115670480D01*
X106286107Y-115657868D01*
X106266401Y-115643253D01*
X106248223Y-115626777D01*
X106231747Y-115608599D01*
X106217132Y-115588893D01*
X106204520Y-115567850D01*
X106194030Y-115545671D01*
X106185765Y-115522572D01*
X106179804Y-115498773D01*
X106176204Y-115474505D01*
X106175000Y-115450001D01*
X106175000Y-114549999D01*
X106176204Y-114525495D01*
X106179804Y-114501227D01*
X106185765Y-114477428D01*
X106194030Y-114454329D01*
X106204520Y-114432150D01*
X106217132Y-114411107D01*
X106231747Y-114391401D01*
X106248223Y-114373223D01*
X106266401Y-114356747D01*
X106286107Y-114342132D01*
X106307150Y-114329520D01*
X106329329Y-114319030D01*
X106352428Y-114310765D01*
X106376227Y-114304804D01*
X106400495Y-114301204D01*
X106424999Y-114300000D01*
X107075001Y-114300000D01*
X107099505Y-114301204D01*
G37*
D13*
X86250000Y-105500000D03*
X86250000Y-101500000D03*
D10*
G36*
X86724505Y-66476204D02*
G01*
X86748773Y-66479804D01*
X86772572Y-66485765D01*
X86795671Y-66494030D01*
X86817850Y-66504520D01*
X86838893Y-66517132D01*
X86858599Y-66531747D01*
X86876777Y-66548223D01*
X86893253Y-66566401D01*
X86907868Y-66586107D01*
X86920480Y-66607150D01*
X86930970Y-66629329D01*
X86939235Y-66652428D01*
X86945196Y-66676227D01*
X86948796Y-66700495D01*
X86950000Y-66724999D01*
X86950000Y-67375001D01*
X86948796Y-67399505D01*
X86945196Y-67423773D01*
X86939235Y-67447572D01*
X86930970Y-67470671D01*
X86920480Y-67492850D01*
X86907868Y-67513893D01*
X86893253Y-67533599D01*
X86876777Y-67551777D01*
X86858599Y-67568253D01*
X86838893Y-67582868D01*
X86817850Y-67595480D01*
X86795671Y-67605970D01*
X86772572Y-67614235D01*
X86748773Y-67620196D01*
X86724505Y-67623796D01*
X86700001Y-67625000D01*
X85799999Y-67625000D01*
X85775495Y-67623796D01*
X85751227Y-67620196D01*
X85727428Y-67614235D01*
X85704329Y-67605970D01*
X85682150Y-67595480D01*
X85661107Y-67582868D01*
X85641401Y-67568253D01*
X85623223Y-67551777D01*
X85606747Y-67533599D01*
X85592132Y-67513893D01*
X85579520Y-67492850D01*
X85569030Y-67470671D01*
X85560765Y-67447572D01*
X85554804Y-67423773D01*
X85551204Y-67399505D01*
X85550000Y-67375001D01*
X85550000Y-66724999D01*
X85551204Y-66700495D01*
X85554804Y-66676227D01*
X85560765Y-66652428D01*
X85569030Y-66629329D01*
X85579520Y-66607150D01*
X85592132Y-66586107D01*
X85606747Y-66566401D01*
X85623223Y-66548223D01*
X85641401Y-66531747D01*
X85661107Y-66517132D01*
X85682150Y-66504520D01*
X85704329Y-66494030D01*
X85727428Y-66485765D01*
X85751227Y-66479804D01*
X85775495Y-66476204D01*
X85799999Y-66475000D01*
X86700001Y-66475000D01*
X86724505Y-66476204D01*
G37*
G36*
X86724505Y-64426204D02*
G01*
X86748773Y-64429804D01*
X86772572Y-64435765D01*
X86795671Y-64444030D01*
X86817850Y-64454520D01*
X86838893Y-64467132D01*
X86858599Y-64481747D01*
X86876777Y-64498223D01*
X86893253Y-64516401D01*
X86907868Y-64536107D01*
X86920480Y-64557150D01*
X86930970Y-64579329D01*
X86939235Y-64602428D01*
X86945196Y-64626227D01*
X86948796Y-64650495D01*
X86950000Y-64674999D01*
X86950000Y-65325001D01*
X86948796Y-65349505D01*
X86945196Y-65373773D01*
X86939235Y-65397572D01*
X86930970Y-65420671D01*
X86920480Y-65442850D01*
X86907868Y-65463893D01*
X86893253Y-65483599D01*
X86876777Y-65501777D01*
X86858599Y-65518253D01*
X86838893Y-65532868D01*
X86817850Y-65545480D01*
X86795671Y-65555970D01*
X86772572Y-65564235D01*
X86748773Y-65570196D01*
X86724505Y-65573796D01*
X86700001Y-65575000D01*
X85799999Y-65575000D01*
X85775495Y-65573796D01*
X85751227Y-65570196D01*
X85727428Y-65564235D01*
X85704329Y-65555970D01*
X85682150Y-65545480D01*
X85661107Y-65532868D01*
X85641401Y-65518253D01*
X85623223Y-65501777D01*
X85606747Y-65483599D01*
X85592132Y-65463893D01*
X85579520Y-65442850D01*
X85569030Y-65420671D01*
X85560765Y-65397572D01*
X85554804Y-65373773D01*
X85551204Y-65349505D01*
X85550000Y-65325001D01*
X85550000Y-64674999D01*
X85551204Y-64650495D01*
X85554804Y-64626227D01*
X85560765Y-64602428D01*
X85569030Y-64579329D01*
X85579520Y-64557150D01*
X85592132Y-64536107D01*
X85606747Y-64516401D01*
X85623223Y-64498223D01*
X85641401Y-64481747D01*
X85661107Y-64467132D01*
X85682150Y-64454520D01*
X85704329Y-64444030D01*
X85727428Y-64435765D01*
X85751227Y-64429804D01*
X85775495Y-64426204D01*
X85799999Y-64425000D01*
X86700001Y-64425000D01*
X86724505Y-64426204D01*
G37*
G36*
X187724505Y-120926204D02*
G01*
X187748773Y-120929804D01*
X187772572Y-120935765D01*
X187795671Y-120944030D01*
X187817850Y-120954520D01*
X187838893Y-120967132D01*
X187858599Y-120981747D01*
X187876777Y-120998223D01*
X187893253Y-121016401D01*
X187907868Y-121036107D01*
X187920480Y-121057150D01*
X187930970Y-121079329D01*
X187939235Y-121102428D01*
X187945196Y-121126227D01*
X187948796Y-121150495D01*
X187950000Y-121174999D01*
X187950000Y-121825001D01*
X187948796Y-121849505D01*
X187945196Y-121873773D01*
X187939235Y-121897572D01*
X187930970Y-121920671D01*
X187920480Y-121942850D01*
X187907868Y-121963893D01*
X187893253Y-121983599D01*
X187876777Y-122001777D01*
X187858599Y-122018253D01*
X187838893Y-122032868D01*
X187817850Y-122045480D01*
X187795671Y-122055970D01*
X187772572Y-122064235D01*
X187748773Y-122070196D01*
X187724505Y-122073796D01*
X187700001Y-122075000D01*
X186799999Y-122075000D01*
X186775495Y-122073796D01*
X186751227Y-122070196D01*
X186727428Y-122064235D01*
X186704329Y-122055970D01*
X186682150Y-122045480D01*
X186661107Y-122032868D01*
X186641401Y-122018253D01*
X186623223Y-122001777D01*
X186606747Y-121983599D01*
X186592132Y-121963893D01*
X186579520Y-121942850D01*
X186569030Y-121920671D01*
X186560765Y-121897572D01*
X186554804Y-121873773D01*
X186551204Y-121849505D01*
X186550000Y-121825001D01*
X186550000Y-121174999D01*
X186551204Y-121150495D01*
X186554804Y-121126227D01*
X186560765Y-121102428D01*
X186569030Y-121079329D01*
X186579520Y-121057150D01*
X186592132Y-121036107D01*
X186606747Y-121016401D01*
X186623223Y-120998223D01*
X186641401Y-120981747D01*
X186661107Y-120967132D01*
X186682150Y-120954520D01*
X186704329Y-120944030D01*
X186727428Y-120935765D01*
X186751227Y-120929804D01*
X186775495Y-120926204D01*
X186799999Y-120925000D01*
X187700001Y-120925000D01*
X187724505Y-120926204D01*
G37*
G36*
X187724505Y-118876204D02*
G01*
X187748773Y-118879804D01*
X187772572Y-118885765D01*
X187795671Y-118894030D01*
X187817850Y-118904520D01*
X187838893Y-118917132D01*
X187858599Y-118931747D01*
X187876777Y-118948223D01*
X187893253Y-118966401D01*
X187907868Y-118986107D01*
X187920480Y-119007150D01*
X187930970Y-119029329D01*
X187939235Y-119052428D01*
X187945196Y-119076227D01*
X187948796Y-119100495D01*
X187950000Y-119124999D01*
X187950000Y-119775001D01*
X187948796Y-119799505D01*
X187945196Y-119823773D01*
X187939235Y-119847572D01*
X187930970Y-119870671D01*
X187920480Y-119892850D01*
X187907868Y-119913893D01*
X187893253Y-119933599D01*
X187876777Y-119951777D01*
X187858599Y-119968253D01*
X187838893Y-119982868D01*
X187817850Y-119995480D01*
X187795671Y-120005970D01*
X187772572Y-120014235D01*
X187748773Y-120020196D01*
X187724505Y-120023796D01*
X187700001Y-120025000D01*
X186799999Y-120025000D01*
X186775495Y-120023796D01*
X186751227Y-120020196D01*
X186727428Y-120014235D01*
X186704329Y-120005970D01*
X186682150Y-119995480D01*
X186661107Y-119982868D01*
X186641401Y-119968253D01*
X186623223Y-119951777D01*
X186606747Y-119933599D01*
X186592132Y-119913893D01*
X186579520Y-119892850D01*
X186569030Y-119870671D01*
X186560765Y-119847572D01*
X186554804Y-119823773D01*
X186551204Y-119799505D01*
X186550000Y-119775001D01*
X186550000Y-119124999D01*
X186551204Y-119100495D01*
X186554804Y-119076227D01*
X186560765Y-119052428D01*
X186569030Y-119029329D01*
X186579520Y-119007150D01*
X186592132Y-118986107D01*
X186606747Y-118966401D01*
X186623223Y-118948223D01*
X186641401Y-118931747D01*
X186661107Y-118917132D01*
X186682150Y-118904520D01*
X186704329Y-118894030D01*
X186727428Y-118885765D01*
X186751227Y-118879804D01*
X186775495Y-118876204D01*
X186799999Y-118875000D01*
X187700001Y-118875000D01*
X187724505Y-118876204D01*
G37*
G36*
X170724505Y-120926204D02*
G01*
X170748773Y-120929804D01*
X170772572Y-120935765D01*
X170795671Y-120944030D01*
X170817850Y-120954520D01*
X170838893Y-120967132D01*
X170858599Y-120981747D01*
X170876777Y-120998223D01*
X170893253Y-121016401D01*
X170907868Y-121036107D01*
X170920480Y-121057150D01*
X170930970Y-121079329D01*
X170939235Y-121102428D01*
X170945196Y-121126227D01*
X170948796Y-121150495D01*
X170950000Y-121174999D01*
X170950000Y-121825001D01*
X170948796Y-121849505D01*
X170945196Y-121873773D01*
X170939235Y-121897572D01*
X170930970Y-121920671D01*
X170920480Y-121942850D01*
X170907868Y-121963893D01*
X170893253Y-121983599D01*
X170876777Y-122001777D01*
X170858599Y-122018253D01*
X170838893Y-122032868D01*
X170817850Y-122045480D01*
X170795671Y-122055970D01*
X170772572Y-122064235D01*
X170748773Y-122070196D01*
X170724505Y-122073796D01*
X170700001Y-122075000D01*
X169799999Y-122075000D01*
X169775495Y-122073796D01*
X169751227Y-122070196D01*
X169727428Y-122064235D01*
X169704329Y-122055970D01*
X169682150Y-122045480D01*
X169661107Y-122032868D01*
X169641401Y-122018253D01*
X169623223Y-122001777D01*
X169606747Y-121983599D01*
X169592132Y-121963893D01*
X169579520Y-121942850D01*
X169569030Y-121920671D01*
X169560765Y-121897572D01*
X169554804Y-121873773D01*
X169551204Y-121849505D01*
X169550000Y-121825001D01*
X169550000Y-121174999D01*
X169551204Y-121150495D01*
X169554804Y-121126227D01*
X169560765Y-121102428D01*
X169569030Y-121079329D01*
X169579520Y-121057150D01*
X169592132Y-121036107D01*
X169606747Y-121016401D01*
X169623223Y-120998223D01*
X169641401Y-120981747D01*
X169661107Y-120967132D01*
X169682150Y-120954520D01*
X169704329Y-120944030D01*
X169727428Y-120935765D01*
X169751227Y-120929804D01*
X169775495Y-120926204D01*
X169799999Y-120925000D01*
X170700001Y-120925000D01*
X170724505Y-120926204D01*
G37*
G36*
X170724505Y-118876204D02*
G01*
X170748773Y-118879804D01*
X170772572Y-118885765D01*
X170795671Y-118894030D01*
X170817850Y-118904520D01*
X170838893Y-118917132D01*
X170858599Y-118931747D01*
X170876777Y-118948223D01*
X170893253Y-118966401D01*
X170907868Y-118986107D01*
X170920480Y-119007150D01*
X170930970Y-119029329D01*
X170939235Y-119052428D01*
X170945196Y-119076227D01*
X170948796Y-119100495D01*
X170950000Y-119124999D01*
X170950000Y-119775001D01*
X170948796Y-119799505D01*
X170945196Y-119823773D01*
X170939235Y-119847572D01*
X170930970Y-119870671D01*
X170920480Y-119892850D01*
X170907868Y-119913893D01*
X170893253Y-119933599D01*
X170876777Y-119951777D01*
X170858599Y-119968253D01*
X170838893Y-119982868D01*
X170817850Y-119995480D01*
X170795671Y-120005970D01*
X170772572Y-120014235D01*
X170748773Y-120020196D01*
X170724505Y-120023796D01*
X170700001Y-120025000D01*
X169799999Y-120025000D01*
X169775495Y-120023796D01*
X169751227Y-120020196D01*
X169727428Y-120014235D01*
X169704329Y-120005970D01*
X169682150Y-119995480D01*
X169661107Y-119982868D01*
X169641401Y-119968253D01*
X169623223Y-119951777D01*
X169606747Y-119933599D01*
X169592132Y-119913893D01*
X169579520Y-119892850D01*
X169569030Y-119870671D01*
X169560765Y-119847572D01*
X169554804Y-119823773D01*
X169551204Y-119799505D01*
X169550000Y-119775001D01*
X169550000Y-119124999D01*
X169551204Y-119100495D01*
X169554804Y-119076227D01*
X169560765Y-119052428D01*
X169569030Y-119029329D01*
X169579520Y-119007150D01*
X169592132Y-118986107D01*
X169606747Y-118966401D01*
X169623223Y-118948223D01*
X169641401Y-118931747D01*
X169661107Y-118917132D01*
X169682150Y-118904520D01*
X169704329Y-118894030D01*
X169727428Y-118885765D01*
X169751227Y-118879804D01*
X169775495Y-118876204D01*
X169799999Y-118875000D01*
X170700001Y-118875000D01*
X170724505Y-118876204D01*
G37*
G36*
X153724505Y-120951204D02*
G01*
X153748773Y-120954804D01*
X153772572Y-120960765D01*
X153795671Y-120969030D01*
X153817850Y-120979520D01*
X153838893Y-120992132D01*
X153858599Y-121006747D01*
X153876777Y-121023223D01*
X153893253Y-121041401D01*
X153907868Y-121061107D01*
X153920480Y-121082150D01*
X153930970Y-121104329D01*
X153939235Y-121127428D01*
X153945196Y-121151227D01*
X153948796Y-121175495D01*
X153950000Y-121199999D01*
X153950000Y-121850001D01*
X153948796Y-121874505D01*
X153945196Y-121898773D01*
X153939235Y-121922572D01*
X153930970Y-121945671D01*
X153920480Y-121967850D01*
X153907868Y-121988893D01*
X153893253Y-122008599D01*
X153876777Y-122026777D01*
X153858599Y-122043253D01*
X153838893Y-122057868D01*
X153817850Y-122070480D01*
X153795671Y-122080970D01*
X153772572Y-122089235D01*
X153748773Y-122095196D01*
X153724505Y-122098796D01*
X153700001Y-122100000D01*
X152799999Y-122100000D01*
X152775495Y-122098796D01*
X152751227Y-122095196D01*
X152727428Y-122089235D01*
X152704329Y-122080970D01*
X152682150Y-122070480D01*
X152661107Y-122057868D01*
X152641401Y-122043253D01*
X152623223Y-122026777D01*
X152606747Y-122008599D01*
X152592132Y-121988893D01*
X152579520Y-121967850D01*
X152569030Y-121945671D01*
X152560765Y-121922572D01*
X152554804Y-121898773D01*
X152551204Y-121874505D01*
X152550000Y-121850001D01*
X152550000Y-121199999D01*
X152551204Y-121175495D01*
X152554804Y-121151227D01*
X152560765Y-121127428D01*
X152569030Y-121104329D01*
X152579520Y-121082150D01*
X152592132Y-121061107D01*
X152606747Y-121041401D01*
X152623223Y-121023223D01*
X152641401Y-121006747D01*
X152661107Y-120992132D01*
X152682150Y-120979520D01*
X152704329Y-120969030D01*
X152727428Y-120960765D01*
X152751227Y-120954804D01*
X152775495Y-120951204D01*
X152799999Y-120950000D01*
X153700001Y-120950000D01*
X153724505Y-120951204D01*
G37*
G36*
X153724505Y-118901204D02*
G01*
X153748773Y-118904804D01*
X153772572Y-118910765D01*
X153795671Y-118919030D01*
X153817850Y-118929520D01*
X153838893Y-118942132D01*
X153858599Y-118956747D01*
X153876777Y-118973223D01*
X153893253Y-118991401D01*
X153907868Y-119011107D01*
X153920480Y-119032150D01*
X153930970Y-119054329D01*
X153939235Y-119077428D01*
X153945196Y-119101227D01*
X153948796Y-119125495D01*
X153950000Y-119149999D01*
X153950000Y-119800001D01*
X153948796Y-119824505D01*
X153945196Y-119848773D01*
X153939235Y-119872572D01*
X153930970Y-119895671D01*
X153920480Y-119917850D01*
X153907868Y-119938893D01*
X153893253Y-119958599D01*
X153876777Y-119976777D01*
X153858599Y-119993253D01*
X153838893Y-120007868D01*
X153817850Y-120020480D01*
X153795671Y-120030970D01*
X153772572Y-120039235D01*
X153748773Y-120045196D01*
X153724505Y-120048796D01*
X153700001Y-120050000D01*
X152799999Y-120050000D01*
X152775495Y-120048796D01*
X152751227Y-120045196D01*
X152727428Y-120039235D01*
X152704329Y-120030970D01*
X152682150Y-120020480D01*
X152661107Y-120007868D01*
X152641401Y-119993253D01*
X152623223Y-119976777D01*
X152606747Y-119958599D01*
X152592132Y-119938893D01*
X152579520Y-119917850D01*
X152569030Y-119895671D01*
X152560765Y-119872572D01*
X152554804Y-119848773D01*
X152551204Y-119824505D01*
X152550000Y-119800001D01*
X152550000Y-119149999D01*
X152551204Y-119125495D01*
X152554804Y-119101227D01*
X152560765Y-119077428D01*
X152569030Y-119054329D01*
X152579520Y-119032150D01*
X152592132Y-119011107D01*
X152606747Y-118991401D01*
X152623223Y-118973223D01*
X152641401Y-118956747D01*
X152661107Y-118942132D01*
X152682150Y-118929520D01*
X152704329Y-118919030D01*
X152727428Y-118910765D01*
X152751227Y-118904804D01*
X152775495Y-118901204D01*
X152799999Y-118900000D01*
X153700001Y-118900000D01*
X153724505Y-118901204D01*
G37*
G36*
X136724505Y-120926204D02*
G01*
X136748773Y-120929804D01*
X136772572Y-120935765D01*
X136795671Y-120944030D01*
X136817850Y-120954520D01*
X136838893Y-120967132D01*
X136858599Y-120981747D01*
X136876777Y-120998223D01*
X136893253Y-121016401D01*
X136907868Y-121036107D01*
X136920480Y-121057150D01*
X136930970Y-121079329D01*
X136939235Y-121102428D01*
X136945196Y-121126227D01*
X136948796Y-121150495D01*
X136950000Y-121174999D01*
X136950000Y-121825001D01*
X136948796Y-121849505D01*
X136945196Y-121873773D01*
X136939235Y-121897572D01*
X136930970Y-121920671D01*
X136920480Y-121942850D01*
X136907868Y-121963893D01*
X136893253Y-121983599D01*
X136876777Y-122001777D01*
X136858599Y-122018253D01*
X136838893Y-122032868D01*
X136817850Y-122045480D01*
X136795671Y-122055970D01*
X136772572Y-122064235D01*
X136748773Y-122070196D01*
X136724505Y-122073796D01*
X136700001Y-122075000D01*
X135799999Y-122075000D01*
X135775495Y-122073796D01*
X135751227Y-122070196D01*
X135727428Y-122064235D01*
X135704329Y-122055970D01*
X135682150Y-122045480D01*
X135661107Y-122032868D01*
X135641401Y-122018253D01*
X135623223Y-122001777D01*
X135606747Y-121983599D01*
X135592132Y-121963893D01*
X135579520Y-121942850D01*
X135569030Y-121920671D01*
X135560765Y-121897572D01*
X135554804Y-121873773D01*
X135551204Y-121849505D01*
X135550000Y-121825001D01*
X135550000Y-121174999D01*
X135551204Y-121150495D01*
X135554804Y-121126227D01*
X135560765Y-121102428D01*
X135569030Y-121079329D01*
X135579520Y-121057150D01*
X135592132Y-121036107D01*
X135606747Y-121016401D01*
X135623223Y-120998223D01*
X135641401Y-120981747D01*
X135661107Y-120967132D01*
X135682150Y-120954520D01*
X135704329Y-120944030D01*
X135727428Y-120935765D01*
X135751227Y-120929804D01*
X135775495Y-120926204D01*
X135799999Y-120925000D01*
X136700001Y-120925000D01*
X136724505Y-120926204D01*
G37*
G36*
X136724505Y-118876204D02*
G01*
X136748773Y-118879804D01*
X136772572Y-118885765D01*
X136795671Y-118894030D01*
X136817850Y-118904520D01*
X136838893Y-118917132D01*
X136858599Y-118931747D01*
X136876777Y-118948223D01*
X136893253Y-118966401D01*
X136907868Y-118986107D01*
X136920480Y-119007150D01*
X136930970Y-119029329D01*
X136939235Y-119052428D01*
X136945196Y-119076227D01*
X136948796Y-119100495D01*
X136950000Y-119124999D01*
X136950000Y-119775001D01*
X136948796Y-119799505D01*
X136945196Y-119823773D01*
X136939235Y-119847572D01*
X136930970Y-119870671D01*
X136920480Y-119892850D01*
X136907868Y-119913893D01*
X136893253Y-119933599D01*
X136876777Y-119951777D01*
X136858599Y-119968253D01*
X136838893Y-119982868D01*
X136817850Y-119995480D01*
X136795671Y-120005970D01*
X136772572Y-120014235D01*
X136748773Y-120020196D01*
X136724505Y-120023796D01*
X136700001Y-120025000D01*
X135799999Y-120025000D01*
X135775495Y-120023796D01*
X135751227Y-120020196D01*
X135727428Y-120014235D01*
X135704329Y-120005970D01*
X135682150Y-119995480D01*
X135661107Y-119982868D01*
X135641401Y-119968253D01*
X135623223Y-119951777D01*
X135606747Y-119933599D01*
X135592132Y-119913893D01*
X135579520Y-119892850D01*
X135569030Y-119870671D01*
X135560765Y-119847572D01*
X135554804Y-119823773D01*
X135551204Y-119799505D01*
X135550000Y-119775001D01*
X135550000Y-119124999D01*
X135551204Y-119100495D01*
X135554804Y-119076227D01*
X135560765Y-119052428D01*
X135569030Y-119029329D01*
X135579520Y-119007150D01*
X135592132Y-118986107D01*
X135606747Y-118966401D01*
X135623223Y-118948223D01*
X135641401Y-118931747D01*
X135661107Y-118917132D01*
X135682150Y-118904520D01*
X135704329Y-118894030D01*
X135727428Y-118885765D01*
X135751227Y-118879804D01*
X135775495Y-118876204D01*
X135799999Y-118875000D01*
X136700001Y-118875000D01*
X136724505Y-118876204D01*
G37*
G36*
X119724505Y-118901204D02*
G01*
X119748773Y-118904804D01*
X119772572Y-118910765D01*
X119795671Y-118919030D01*
X119817850Y-118929520D01*
X119838893Y-118942132D01*
X119858599Y-118956747D01*
X119876777Y-118973223D01*
X119893253Y-118991401D01*
X119907868Y-119011107D01*
X119920480Y-119032150D01*
X119930970Y-119054329D01*
X119939235Y-119077428D01*
X119945196Y-119101227D01*
X119948796Y-119125495D01*
X119950000Y-119149999D01*
X119950000Y-119800001D01*
X119948796Y-119824505D01*
X119945196Y-119848773D01*
X119939235Y-119872572D01*
X119930970Y-119895671D01*
X119920480Y-119917850D01*
X119907868Y-119938893D01*
X119893253Y-119958599D01*
X119876777Y-119976777D01*
X119858599Y-119993253D01*
X119838893Y-120007868D01*
X119817850Y-120020480D01*
X119795671Y-120030970D01*
X119772572Y-120039235D01*
X119748773Y-120045196D01*
X119724505Y-120048796D01*
X119700001Y-120050000D01*
X118799999Y-120050000D01*
X118775495Y-120048796D01*
X118751227Y-120045196D01*
X118727428Y-120039235D01*
X118704329Y-120030970D01*
X118682150Y-120020480D01*
X118661107Y-120007868D01*
X118641401Y-119993253D01*
X118623223Y-119976777D01*
X118606747Y-119958599D01*
X118592132Y-119938893D01*
X118579520Y-119917850D01*
X118569030Y-119895671D01*
X118560765Y-119872572D01*
X118554804Y-119848773D01*
X118551204Y-119824505D01*
X118550000Y-119800001D01*
X118550000Y-119149999D01*
X118551204Y-119125495D01*
X118554804Y-119101227D01*
X118560765Y-119077428D01*
X118569030Y-119054329D01*
X118579520Y-119032150D01*
X118592132Y-119011107D01*
X118606747Y-118991401D01*
X118623223Y-118973223D01*
X118641401Y-118956747D01*
X118661107Y-118942132D01*
X118682150Y-118929520D01*
X118704329Y-118919030D01*
X118727428Y-118910765D01*
X118751227Y-118904804D01*
X118775495Y-118901204D01*
X118799999Y-118900000D01*
X119700001Y-118900000D01*
X119724505Y-118901204D01*
G37*
G36*
X119724505Y-120951204D02*
G01*
X119748773Y-120954804D01*
X119772572Y-120960765D01*
X119795671Y-120969030D01*
X119817850Y-120979520D01*
X119838893Y-120992132D01*
X119858599Y-121006747D01*
X119876777Y-121023223D01*
X119893253Y-121041401D01*
X119907868Y-121061107D01*
X119920480Y-121082150D01*
X119930970Y-121104329D01*
X119939235Y-121127428D01*
X119945196Y-121151227D01*
X119948796Y-121175495D01*
X119950000Y-121199999D01*
X119950000Y-121850001D01*
X119948796Y-121874505D01*
X119945196Y-121898773D01*
X119939235Y-121922572D01*
X119930970Y-121945671D01*
X119920480Y-121967850D01*
X119907868Y-121988893D01*
X119893253Y-122008599D01*
X119876777Y-122026777D01*
X119858599Y-122043253D01*
X119838893Y-122057868D01*
X119817850Y-122070480D01*
X119795671Y-122080970D01*
X119772572Y-122089235D01*
X119748773Y-122095196D01*
X119724505Y-122098796D01*
X119700001Y-122100000D01*
X118799999Y-122100000D01*
X118775495Y-122098796D01*
X118751227Y-122095196D01*
X118727428Y-122089235D01*
X118704329Y-122080970D01*
X118682150Y-122070480D01*
X118661107Y-122057868D01*
X118641401Y-122043253D01*
X118623223Y-122026777D01*
X118606747Y-122008599D01*
X118592132Y-121988893D01*
X118579520Y-121967850D01*
X118569030Y-121945671D01*
X118560765Y-121922572D01*
X118554804Y-121898773D01*
X118551204Y-121874505D01*
X118550000Y-121850001D01*
X118550000Y-121199999D01*
X118551204Y-121175495D01*
X118554804Y-121151227D01*
X118560765Y-121127428D01*
X118569030Y-121104329D01*
X118579520Y-121082150D01*
X118592132Y-121061107D01*
X118606747Y-121041401D01*
X118623223Y-121023223D01*
X118641401Y-121006747D01*
X118661107Y-120992132D01*
X118682150Y-120979520D01*
X118704329Y-120969030D01*
X118727428Y-120960765D01*
X118751227Y-120954804D01*
X118775495Y-120951204D01*
X118799999Y-120950000D01*
X119700001Y-120950000D01*
X119724505Y-120951204D01*
G37*
G36*
X102224505Y-111876204D02*
G01*
X102248773Y-111879804D01*
X102272572Y-111885765D01*
X102295671Y-111894030D01*
X102317850Y-111904520D01*
X102338893Y-111917132D01*
X102358599Y-111931747D01*
X102376777Y-111948223D01*
X102393253Y-111966401D01*
X102407868Y-111986107D01*
X102420480Y-112007150D01*
X102430970Y-112029329D01*
X102439235Y-112052428D01*
X102445196Y-112076227D01*
X102448796Y-112100495D01*
X102450000Y-112124999D01*
X102450000Y-112775001D01*
X102448796Y-112799505D01*
X102445196Y-112823773D01*
X102439235Y-112847572D01*
X102430970Y-112870671D01*
X102420480Y-112892850D01*
X102407868Y-112913893D01*
X102393253Y-112933599D01*
X102376777Y-112951777D01*
X102358599Y-112968253D01*
X102338893Y-112982868D01*
X102317850Y-112995480D01*
X102295671Y-113005970D01*
X102272572Y-113014235D01*
X102248773Y-113020196D01*
X102224505Y-113023796D01*
X102200001Y-113025000D01*
X101299999Y-113025000D01*
X101275495Y-113023796D01*
X101251227Y-113020196D01*
X101227428Y-113014235D01*
X101204329Y-113005970D01*
X101182150Y-112995480D01*
X101161107Y-112982868D01*
X101141401Y-112968253D01*
X101123223Y-112951777D01*
X101106747Y-112933599D01*
X101092132Y-112913893D01*
X101079520Y-112892850D01*
X101069030Y-112870671D01*
X101060765Y-112847572D01*
X101054804Y-112823773D01*
X101051204Y-112799505D01*
X101050000Y-112775001D01*
X101050000Y-112124999D01*
X101051204Y-112100495D01*
X101054804Y-112076227D01*
X101060765Y-112052428D01*
X101069030Y-112029329D01*
X101079520Y-112007150D01*
X101092132Y-111986107D01*
X101106747Y-111966401D01*
X101123223Y-111948223D01*
X101141401Y-111931747D01*
X101161107Y-111917132D01*
X101182150Y-111904520D01*
X101204329Y-111894030D01*
X101227428Y-111885765D01*
X101251227Y-111879804D01*
X101275495Y-111876204D01*
X101299999Y-111875000D01*
X102200001Y-111875000D01*
X102224505Y-111876204D01*
G37*
G36*
X102224505Y-113926204D02*
G01*
X102248773Y-113929804D01*
X102272572Y-113935765D01*
X102295671Y-113944030D01*
X102317850Y-113954520D01*
X102338893Y-113967132D01*
X102358599Y-113981747D01*
X102376777Y-113998223D01*
X102393253Y-114016401D01*
X102407868Y-114036107D01*
X102420480Y-114057150D01*
X102430970Y-114079329D01*
X102439235Y-114102428D01*
X102445196Y-114126227D01*
X102448796Y-114150495D01*
X102450000Y-114174999D01*
X102450000Y-114825001D01*
X102448796Y-114849505D01*
X102445196Y-114873773D01*
X102439235Y-114897572D01*
X102430970Y-114920671D01*
X102420480Y-114942850D01*
X102407868Y-114963893D01*
X102393253Y-114983599D01*
X102376777Y-115001777D01*
X102358599Y-115018253D01*
X102338893Y-115032868D01*
X102317850Y-115045480D01*
X102295671Y-115055970D01*
X102272572Y-115064235D01*
X102248773Y-115070196D01*
X102224505Y-115073796D01*
X102200001Y-115075000D01*
X101299999Y-115075000D01*
X101275495Y-115073796D01*
X101251227Y-115070196D01*
X101227428Y-115064235D01*
X101204329Y-115055970D01*
X101182150Y-115045480D01*
X101161107Y-115032868D01*
X101141401Y-115018253D01*
X101123223Y-115001777D01*
X101106747Y-114983599D01*
X101092132Y-114963893D01*
X101079520Y-114942850D01*
X101069030Y-114920671D01*
X101060765Y-114897572D01*
X101054804Y-114873773D01*
X101051204Y-114849505D01*
X101050000Y-114825001D01*
X101050000Y-114174999D01*
X101051204Y-114150495D01*
X101054804Y-114126227D01*
X101060765Y-114102428D01*
X101069030Y-114079329D01*
X101079520Y-114057150D01*
X101092132Y-114036107D01*
X101106747Y-114016401D01*
X101123223Y-113998223D01*
X101141401Y-113981747D01*
X101161107Y-113967132D01*
X101182150Y-113954520D01*
X101204329Y-113944030D01*
X101227428Y-113935765D01*
X101251227Y-113929804D01*
X101275495Y-113926204D01*
X101299999Y-113925000D01*
X102200001Y-113925000D01*
X102224505Y-113926204D01*
G37*
G36*
X85224505Y-113926204D02*
G01*
X85248773Y-113929804D01*
X85272572Y-113935765D01*
X85295671Y-113944030D01*
X85317850Y-113954520D01*
X85338893Y-113967132D01*
X85358599Y-113981747D01*
X85376777Y-113998223D01*
X85393253Y-114016401D01*
X85407868Y-114036107D01*
X85420480Y-114057150D01*
X85430970Y-114079329D01*
X85439235Y-114102428D01*
X85445196Y-114126227D01*
X85448796Y-114150495D01*
X85450000Y-114174999D01*
X85450000Y-114825001D01*
X85448796Y-114849505D01*
X85445196Y-114873773D01*
X85439235Y-114897572D01*
X85430970Y-114920671D01*
X85420480Y-114942850D01*
X85407868Y-114963893D01*
X85393253Y-114983599D01*
X85376777Y-115001777D01*
X85358599Y-115018253D01*
X85338893Y-115032868D01*
X85317850Y-115045480D01*
X85295671Y-115055970D01*
X85272572Y-115064235D01*
X85248773Y-115070196D01*
X85224505Y-115073796D01*
X85200001Y-115075000D01*
X84299999Y-115075000D01*
X84275495Y-115073796D01*
X84251227Y-115070196D01*
X84227428Y-115064235D01*
X84204329Y-115055970D01*
X84182150Y-115045480D01*
X84161107Y-115032868D01*
X84141401Y-115018253D01*
X84123223Y-115001777D01*
X84106747Y-114983599D01*
X84092132Y-114963893D01*
X84079520Y-114942850D01*
X84069030Y-114920671D01*
X84060765Y-114897572D01*
X84054804Y-114873773D01*
X84051204Y-114849505D01*
X84050000Y-114825001D01*
X84050000Y-114174999D01*
X84051204Y-114150495D01*
X84054804Y-114126227D01*
X84060765Y-114102428D01*
X84069030Y-114079329D01*
X84079520Y-114057150D01*
X84092132Y-114036107D01*
X84106747Y-114016401D01*
X84123223Y-113998223D01*
X84141401Y-113981747D01*
X84161107Y-113967132D01*
X84182150Y-113954520D01*
X84204329Y-113944030D01*
X84227428Y-113935765D01*
X84251227Y-113929804D01*
X84275495Y-113926204D01*
X84299999Y-113925000D01*
X85200001Y-113925000D01*
X85224505Y-113926204D01*
G37*
G36*
X85224505Y-111876204D02*
G01*
X85248773Y-111879804D01*
X85272572Y-111885765D01*
X85295671Y-111894030D01*
X85317850Y-111904520D01*
X85338893Y-111917132D01*
X85358599Y-111931747D01*
X85376777Y-111948223D01*
X85393253Y-111966401D01*
X85407868Y-111986107D01*
X85420480Y-112007150D01*
X85430970Y-112029329D01*
X85439235Y-112052428D01*
X85445196Y-112076227D01*
X85448796Y-112100495D01*
X85450000Y-112124999D01*
X85450000Y-112775001D01*
X85448796Y-112799505D01*
X85445196Y-112823773D01*
X85439235Y-112847572D01*
X85430970Y-112870671D01*
X85420480Y-112892850D01*
X85407868Y-112913893D01*
X85393253Y-112933599D01*
X85376777Y-112951777D01*
X85358599Y-112968253D01*
X85338893Y-112982868D01*
X85317850Y-112995480D01*
X85295671Y-113005970D01*
X85272572Y-113014235D01*
X85248773Y-113020196D01*
X85224505Y-113023796D01*
X85200001Y-113025000D01*
X84299999Y-113025000D01*
X84275495Y-113023796D01*
X84251227Y-113020196D01*
X84227428Y-113014235D01*
X84204329Y-113005970D01*
X84182150Y-112995480D01*
X84161107Y-112982868D01*
X84141401Y-112968253D01*
X84123223Y-112951777D01*
X84106747Y-112933599D01*
X84092132Y-112913893D01*
X84079520Y-112892850D01*
X84069030Y-112870671D01*
X84060765Y-112847572D01*
X84054804Y-112823773D01*
X84051204Y-112799505D01*
X84050000Y-112775001D01*
X84050000Y-112124999D01*
X84051204Y-112100495D01*
X84054804Y-112076227D01*
X84060765Y-112052428D01*
X84069030Y-112029329D01*
X84079520Y-112007150D01*
X84092132Y-111986107D01*
X84106747Y-111966401D01*
X84123223Y-111948223D01*
X84141401Y-111931747D01*
X84161107Y-111917132D01*
X84182150Y-111904520D01*
X84204329Y-111894030D01*
X84227428Y-111885765D01*
X84251227Y-111879804D01*
X84275495Y-111876204D01*
X84299999Y-111875000D01*
X85200001Y-111875000D01*
X85224505Y-111876204D01*
G37*
G36*
X70724505Y-47926204D02*
G01*
X70748773Y-47929804D01*
X70772572Y-47935765D01*
X70795671Y-47944030D01*
X70817850Y-47954520D01*
X70838893Y-47967132D01*
X70858599Y-47981747D01*
X70876777Y-47998223D01*
X70893253Y-48016401D01*
X70907868Y-48036107D01*
X70920480Y-48057150D01*
X70930970Y-48079329D01*
X70939235Y-48102428D01*
X70945196Y-48126227D01*
X70948796Y-48150495D01*
X70950000Y-48174999D01*
X70950000Y-48825001D01*
X70948796Y-48849505D01*
X70945196Y-48873773D01*
X70939235Y-48897572D01*
X70930970Y-48920671D01*
X70920480Y-48942850D01*
X70907868Y-48963893D01*
X70893253Y-48983599D01*
X70876777Y-49001777D01*
X70858599Y-49018253D01*
X70838893Y-49032868D01*
X70817850Y-49045480D01*
X70795671Y-49055970D01*
X70772572Y-49064235D01*
X70748773Y-49070196D01*
X70724505Y-49073796D01*
X70700001Y-49075000D01*
X69799999Y-49075000D01*
X69775495Y-49073796D01*
X69751227Y-49070196D01*
X69727428Y-49064235D01*
X69704329Y-49055970D01*
X69682150Y-49045480D01*
X69661107Y-49032868D01*
X69641401Y-49018253D01*
X69623223Y-49001777D01*
X69606747Y-48983599D01*
X69592132Y-48963893D01*
X69579520Y-48942850D01*
X69569030Y-48920671D01*
X69560765Y-48897572D01*
X69554804Y-48873773D01*
X69551204Y-48849505D01*
X69550000Y-48825001D01*
X69550000Y-48174999D01*
X69551204Y-48150495D01*
X69554804Y-48126227D01*
X69560765Y-48102428D01*
X69569030Y-48079329D01*
X69579520Y-48057150D01*
X69592132Y-48036107D01*
X69606747Y-48016401D01*
X69623223Y-47998223D01*
X69641401Y-47981747D01*
X69661107Y-47967132D01*
X69682150Y-47954520D01*
X69704329Y-47944030D01*
X69727428Y-47935765D01*
X69751227Y-47929804D01*
X69775495Y-47926204D01*
X69799999Y-47925000D01*
X70700001Y-47925000D01*
X70724505Y-47926204D01*
G37*
G36*
X70724505Y-45876204D02*
G01*
X70748773Y-45879804D01*
X70772572Y-45885765D01*
X70795671Y-45894030D01*
X70817850Y-45904520D01*
X70838893Y-45917132D01*
X70858599Y-45931747D01*
X70876777Y-45948223D01*
X70893253Y-45966401D01*
X70907868Y-45986107D01*
X70920480Y-46007150D01*
X70930970Y-46029329D01*
X70939235Y-46052428D01*
X70945196Y-46076227D01*
X70948796Y-46100495D01*
X70950000Y-46124999D01*
X70950000Y-46775001D01*
X70948796Y-46799505D01*
X70945196Y-46823773D01*
X70939235Y-46847572D01*
X70930970Y-46870671D01*
X70920480Y-46892850D01*
X70907868Y-46913893D01*
X70893253Y-46933599D01*
X70876777Y-46951777D01*
X70858599Y-46968253D01*
X70838893Y-46982868D01*
X70817850Y-46995480D01*
X70795671Y-47005970D01*
X70772572Y-47014235D01*
X70748773Y-47020196D01*
X70724505Y-47023796D01*
X70700001Y-47025000D01*
X69799999Y-47025000D01*
X69775495Y-47023796D01*
X69751227Y-47020196D01*
X69727428Y-47014235D01*
X69704329Y-47005970D01*
X69682150Y-46995480D01*
X69661107Y-46982868D01*
X69641401Y-46968253D01*
X69623223Y-46951777D01*
X69606747Y-46933599D01*
X69592132Y-46913893D01*
X69579520Y-46892850D01*
X69569030Y-46870671D01*
X69560765Y-46847572D01*
X69554804Y-46823773D01*
X69551204Y-46799505D01*
X69550000Y-46775001D01*
X69550000Y-46124999D01*
X69551204Y-46100495D01*
X69554804Y-46076227D01*
X69560765Y-46052428D01*
X69569030Y-46029329D01*
X69579520Y-46007150D01*
X69592132Y-45986107D01*
X69606747Y-45966401D01*
X69623223Y-45948223D01*
X69641401Y-45931747D01*
X69661107Y-45917132D01*
X69682150Y-45904520D01*
X69704329Y-45894030D01*
X69727428Y-45885765D01*
X69751227Y-45879804D01*
X69775495Y-45876204D01*
X69799999Y-45875000D01*
X70700001Y-45875000D01*
X70724505Y-45876204D01*
G37*
G36*
X90099505Y-114301204D02*
G01*
X90123773Y-114304804D01*
X90147572Y-114310765D01*
X90170671Y-114319030D01*
X90192850Y-114329520D01*
X90213893Y-114342132D01*
X90233599Y-114356747D01*
X90251777Y-114373223D01*
X90268253Y-114391401D01*
X90282868Y-114411107D01*
X90295480Y-114432150D01*
X90305970Y-114454329D01*
X90314235Y-114477428D01*
X90320196Y-114501227D01*
X90323796Y-114525495D01*
X90325000Y-114549999D01*
X90325000Y-115450001D01*
X90323796Y-115474505D01*
X90320196Y-115498773D01*
X90314235Y-115522572D01*
X90305970Y-115545671D01*
X90295480Y-115567850D01*
X90282868Y-115588893D01*
X90268253Y-115608599D01*
X90251777Y-115626777D01*
X90233599Y-115643253D01*
X90213893Y-115657868D01*
X90192850Y-115670480D01*
X90170671Y-115680970D01*
X90147572Y-115689235D01*
X90123773Y-115695196D01*
X90099505Y-115698796D01*
X90075001Y-115700000D01*
X89424999Y-115700000D01*
X89400495Y-115698796D01*
X89376227Y-115695196D01*
X89352428Y-115689235D01*
X89329329Y-115680970D01*
X89307150Y-115670480D01*
X89286107Y-115657868D01*
X89266401Y-115643253D01*
X89248223Y-115626777D01*
X89231747Y-115608599D01*
X89217132Y-115588893D01*
X89204520Y-115567850D01*
X89194030Y-115545671D01*
X89185765Y-115522572D01*
X89179804Y-115498773D01*
X89176204Y-115474505D01*
X89175000Y-115450001D01*
X89175000Y-114549999D01*
X89176204Y-114525495D01*
X89179804Y-114501227D01*
X89185765Y-114477428D01*
X89194030Y-114454329D01*
X89204520Y-114432150D01*
X89217132Y-114411107D01*
X89231747Y-114391401D01*
X89248223Y-114373223D01*
X89266401Y-114356747D01*
X89286107Y-114342132D01*
X89307150Y-114329520D01*
X89329329Y-114319030D01*
X89352428Y-114310765D01*
X89376227Y-114304804D01*
X89400495Y-114301204D01*
X89424999Y-114300000D01*
X90075001Y-114300000D01*
X90099505Y-114301204D01*
G37*
G36*
X92149505Y-114301204D02*
G01*
X92173773Y-114304804D01*
X92197572Y-114310765D01*
X92220671Y-114319030D01*
X92242850Y-114329520D01*
X92263893Y-114342132D01*
X92283599Y-114356747D01*
X92301777Y-114373223D01*
X92318253Y-114391401D01*
X92332868Y-114411107D01*
X92345480Y-114432150D01*
X92355970Y-114454329D01*
X92364235Y-114477428D01*
X92370196Y-114501227D01*
X92373796Y-114525495D01*
X92375000Y-114549999D01*
X92375000Y-115450001D01*
X92373796Y-115474505D01*
X92370196Y-115498773D01*
X92364235Y-115522572D01*
X92355970Y-115545671D01*
X92345480Y-115567850D01*
X92332868Y-115588893D01*
X92318253Y-115608599D01*
X92301777Y-115626777D01*
X92283599Y-115643253D01*
X92263893Y-115657868D01*
X92242850Y-115670480D01*
X92220671Y-115680970D01*
X92197572Y-115689235D01*
X92173773Y-115695196D01*
X92149505Y-115698796D01*
X92125001Y-115700000D01*
X91474999Y-115700000D01*
X91450495Y-115698796D01*
X91426227Y-115695196D01*
X91402428Y-115689235D01*
X91379329Y-115680970D01*
X91357150Y-115670480D01*
X91336107Y-115657868D01*
X91316401Y-115643253D01*
X91298223Y-115626777D01*
X91281747Y-115608599D01*
X91267132Y-115588893D01*
X91254520Y-115567850D01*
X91244030Y-115545671D01*
X91235765Y-115522572D01*
X91229804Y-115498773D01*
X91226204Y-115474505D01*
X91225000Y-115450001D01*
X91225000Y-114549999D01*
X91226204Y-114525495D01*
X91229804Y-114501227D01*
X91235765Y-114477428D01*
X91244030Y-114454329D01*
X91254520Y-114432150D01*
X91267132Y-114411107D01*
X91281747Y-114391401D01*
X91298223Y-114373223D01*
X91316401Y-114356747D01*
X91336107Y-114342132D01*
X91357150Y-114329520D01*
X91379329Y-114319030D01*
X91402428Y-114310765D01*
X91426227Y-114304804D01*
X91450495Y-114301204D01*
X91474999Y-114300000D01*
X92125001Y-114300000D01*
X92149505Y-114301204D01*
G37*
D11*
X77400000Y-45500000D03*
X73100000Y-45500000D03*
X190100000Y-118500000D03*
X194400000Y-118500000D03*
X190100000Y-60500000D03*
X194400000Y-60500000D03*
X160400000Y-60500000D03*
X156100000Y-60500000D03*
X143400000Y-60500000D03*
X139100000Y-60500000D03*
X122100000Y-60500000D03*
X126400000Y-60500000D03*
X109400000Y-60500000D03*
X105100000Y-60500000D03*
X88100000Y-60500000D03*
X92400000Y-60500000D03*
X177400000Y-118500000D03*
X173100000Y-118500000D03*
X139100000Y-118500000D03*
X143400000Y-118500000D03*
X122100000Y-118500000D03*
X126400000Y-118500000D03*
X105100000Y-118500000D03*
X109400000Y-118500000D03*
X92400000Y-118500000D03*
X88100000Y-118500000D03*
X160400000Y-118500000D03*
X156100000Y-118500000D03*
D10*
G36*
X67149505Y-90551204D02*
G01*
X67173773Y-90554804D01*
X67197572Y-90560765D01*
X67220671Y-90569030D01*
X67242850Y-90579520D01*
X67263893Y-90592132D01*
X67283599Y-90606747D01*
X67301777Y-90623223D01*
X67318253Y-90641401D01*
X67332868Y-90661107D01*
X67345480Y-90682150D01*
X67355970Y-90704329D01*
X67364235Y-90727428D01*
X67370196Y-90751227D01*
X67373796Y-90775495D01*
X67375000Y-90799999D01*
X67375000Y-91700001D01*
X67373796Y-91724505D01*
X67370196Y-91748773D01*
X67364235Y-91772572D01*
X67355970Y-91795671D01*
X67345480Y-91817850D01*
X67332868Y-91838893D01*
X67318253Y-91858599D01*
X67301777Y-91876777D01*
X67283599Y-91893253D01*
X67263893Y-91907868D01*
X67242850Y-91920480D01*
X67220671Y-91930970D01*
X67197572Y-91939235D01*
X67173773Y-91945196D01*
X67149505Y-91948796D01*
X67125001Y-91950000D01*
X66474999Y-91950000D01*
X66450495Y-91948796D01*
X66426227Y-91945196D01*
X66402428Y-91939235D01*
X66379329Y-91930970D01*
X66357150Y-91920480D01*
X66336107Y-91907868D01*
X66316401Y-91893253D01*
X66298223Y-91876777D01*
X66281747Y-91858599D01*
X66267132Y-91838893D01*
X66254520Y-91817850D01*
X66244030Y-91795671D01*
X66235765Y-91772572D01*
X66229804Y-91748773D01*
X66226204Y-91724505D01*
X66225000Y-91700001D01*
X66225000Y-90799999D01*
X66226204Y-90775495D01*
X66229804Y-90751227D01*
X66235765Y-90727428D01*
X66244030Y-90704329D01*
X66254520Y-90682150D01*
X66267132Y-90661107D01*
X66281747Y-90641401D01*
X66298223Y-90623223D01*
X66316401Y-90606747D01*
X66336107Y-90592132D01*
X66357150Y-90579520D01*
X66379329Y-90569030D01*
X66402428Y-90560765D01*
X66426227Y-90554804D01*
X66450495Y-90551204D01*
X66474999Y-90550000D01*
X67125001Y-90550000D01*
X67149505Y-90551204D01*
G37*
G36*
X65099505Y-90551204D02*
G01*
X65123773Y-90554804D01*
X65147572Y-90560765D01*
X65170671Y-90569030D01*
X65192850Y-90579520D01*
X65213893Y-90592132D01*
X65233599Y-90606747D01*
X65251777Y-90623223D01*
X65268253Y-90641401D01*
X65282868Y-90661107D01*
X65295480Y-90682150D01*
X65305970Y-90704329D01*
X65314235Y-90727428D01*
X65320196Y-90751227D01*
X65323796Y-90775495D01*
X65325000Y-90799999D01*
X65325000Y-91700001D01*
X65323796Y-91724505D01*
X65320196Y-91748773D01*
X65314235Y-91772572D01*
X65305970Y-91795671D01*
X65295480Y-91817850D01*
X65282868Y-91838893D01*
X65268253Y-91858599D01*
X65251777Y-91876777D01*
X65233599Y-91893253D01*
X65213893Y-91907868D01*
X65192850Y-91920480D01*
X65170671Y-91930970D01*
X65147572Y-91939235D01*
X65123773Y-91945196D01*
X65099505Y-91948796D01*
X65075001Y-91950000D01*
X64424999Y-91950000D01*
X64400495Y-91948796D01*
X64376227Y-91945196D01*
X64352428Y-91939235D01*
X64329329Y-91930970D01*
X64307150Y-91920480D01*
X64286107Y-91907868D01*
X64266401Y-91893253D01*
X64248223Y-91876777D01*
X64231747Y-91858599D01*
X64217132Y-91838893D01*
X64204520Y-91817850D01*
X64194030Y-91795671D01*
X64185765Y-91772572D01*
X64179804Y-91748773D01*
X64176204Y-91724505D01*
X64175000Y-91700001D01*
X64175000Y-90799999D01*
X64176204Y-90775495D01*
X64179804Y-90751227D01*
X64185765Y-90727428D01*
X64194030Y-90704329D01*
X64204520Y-90682150D01*
X64217132Y-90661107D01*
X64231747Y-90641401D01*
X64248223Y-90623223D01*
X64266401Y-90606747D01*
X64286107Y-90592132D01*
X64307150Y-90579520D01*
X64329329Y-90569030D01*
X64352428Y-90560765D01*
X64376227Y-90554804D01*
X64400495Y-90551204D01*
X64424999Y-90550000D01*
X65075001Y-90550000D01*
X65099505Y-90551204D01*
G37*
G36*
X198224505Y-63901204D02*
G01*
X198248773Y-63904804D01*
X198272572Y-63910765D01*
X198295671Y-63919030D01*
X198317850Y-63929520D01*
X198338893Y-63942132D01*
X198358599Y-63956747D01*
X198376777Y-63973223D01*
X198393253Y-63991401D01*
X198407868Y-64011107D01*
X198420480Y-64032150D01*
X198430970Y-64054329D01*
X198439235Y-64077428D01*
X198445196Y-64101227D01*
X198448796Y-64125495D01*
X198450000Y-64149999D01*
X198450000Y-64800001D01*
X198448796Y-64824505D01*
X198445196Y-64848773D01*
X198439235Y-64872572D01*
X198430970Y-64895671D01*
X198420480Y-64917850D01*
X198407868Y-64938893D01*
X198393253Y-64958599D01*
X198376777Y-64976777D01*
X198358599Y-64993253D01*
X198338893Y-65007868D01*
X198317850Y-65020480D01*
X198295671Y-65030970D01*
X198272572Y-65039235D01*
X198248773Y-65045196D01*
X198224505Y-65048796D01*
X198200001Y-65050000D01*
X197299999Y-65050000D01*
X197275495Y-65048796D01*
X197251227Y-65045196D01*
X197227428Y-65039235D01*
X197204329Y-65030970D01*
X197182150Y-65020480D01*
X197161107Y-65007868D01*
X197141401Y-64993253D01*
X197123223Y-64976777D01*
X197106747Y-64958599D01*
X197092132Y-64938893D01*
X197079520Y-64917850D01*
X197069030Y-64895671D01*
X197060765Y-64872572D01*
X197054804Y-64848773D01*
X197051204Y-64824505D01*
X197050000Y-64800001D01*
X197050000Y-64149999D01*
X197051204Y-64125495D01*
X197054804Y-64101227D01*
X197060765Y-64077428D01*
X197069030Y-64054329D01*
X197079520Y-64032150D01*
X197092132Y-64011107D01*
X197106747Y-63991401D01*
X197123223Y-63973223D01*
X197141401Y-63956747D01*
X197161107Y-63942132D01*
X197182150Y-63929520D01*
X197204329Y-63919030D01*
X197227428Y-63910765D01*
X197251227Y-63904804D01*
X197275495Y-63901204D01*
X197299999Y-63900000D01*
X198200001Y-63900000D01*
X198224505Y-63901204D01*
G37*
G36*
X198224505Y-65951204D02*
G01*
X198248773Y-65954804D01*
X198272572Y-65960765D01*
X198295671Y-65969030D01*
X198317850Y-65979520D01*
X198338893Y-65992132D01*
X198358599Y-66006747D01*
X198376777Y-66023223D01*
X198393253Y-66041401D01*
X198407868Y-66061107D01*
X198420480Y-66082150D01*
X198430970Y-66104329D01*
X198439235Y-66127428D01*
X198445196Y-66151227D01*
X198448796Y-66175495D01*
X198450000Y-66199999D01*
X198450000Y-66850001D01*
X198448796Y-66874505D01*
X198445196Y-66898773D01*
X198439235Y-66922572D01*
X198430970Y-66945671D01*
X198420480Y-66967850D01*
X198407868Y-66988893D01*
X198393253Y-67008599D01*
X198376777Y-67026777D01*
X198358599Y-67043253D01*
X198338893Y-67057868D01*
X198317850Y-67070480D01*
X198295671Y-67080970D01*
X198272572Y-67089235D01*
X198248773Y-67095196D01*
X198224505Y-67098796D01*
X198200001Y-67100000D01*
X197299999Y-67100000D01*
X197275495Y-67098796D01*
X197251227Y-67095196D01*
X197227428Y-67089235D01*
X197204329Y-67080970D01*
X197182150Y-67070480D01*
X197161107Y-67057868D01*
X197141401Y-67043253D01*
X197123223Y-67026777D01*
X197106747Y-67008599D01*
X197092132Y-66988893D01*
X197079520Y-66967850D01*
X197069030Y-66945671D01*
X197060765Y-66922572D01*
X197054804Y-66898773D01*
X197051204Y-66874505D01*
X197050000Y-66850001D01*
X197050000Y-66199999D01*
X197051204Y-66175495D01*
X197054804Y-66151227D01*
X197060765Y-66127428D01*
X197069030Y-66104329D01*
X197079520Y-66082150D01*
X197092132Y-66061107D01*
X197106747Y-66041401D01*
X197123223Y-66023223D01*
X197141401Y-66006747D01*
X197161107Y-65992132D01*
X197182150Y-65979520D01*
X197204329Y-65969030D01*
X197227428Y-65960765D01*
X197251227Y-65954804D01*
X197275495Y-65951204D01*
X197299999Y-65950000D01*
X198200001Y-65950000D01*
X198224505Y-65951204D01*
G37*
G36*
X181224505Y-63901204D02*
G01*
X181248773Y-63904804D01*
X181272572Y-63910765D01*
X181295671Y-63919030D01*
X181317850Y-63929520D01*
X181338893Y-63942132D01*
X181358599Y-63956747D01*
X181376777Y-63973223D01*
X181393253Y-63991401D01*
X181407868Y-64011107D01*
X181420480Y-64032150D01*
X181430970Y-64054329D01*
X181439235Y-64077428D01*
X181445196Y-64101227D01*
X181448796Y-64125495D01*
X181450000Y-64149999D01*
X181450000Y-64800001D01*
X181448796Y-64824505D01*
X181445196Y-64848773D01*
X181439235Y-64872572D01*
X181430970Y-64895671D01*
X181420480Y-64917850D01*
X181407868Y-64938893D01*
X181393253Y-64958599D01*
X181376777Y-64976777D01*
X181358599Y-64993253D01*
X181338893Y-65007868D01*
X181317850Y-65020480D01*
X181295671Y-65030970D01*
X181272572Y-65039235D01*
X181248773Y-65045196D01*
X181224505Y-65048796D01*
X181200001Y-65050000D01*
X180299999Y-65050000D01*
X180275495Y-65048796D01*
X180251227Y-65045196D01*
X180227428Y-65039235D01*
X180204329Y-65030970D01*
X180182150Y-65020480D01*
X180161107Y-65007868D01*
X180141401Y-64993253D01*
X180123223Y-64976777D01*
X180106747Y-64958599D01*
X180092132Y-64938893D01*
X180079520Y-64917850D01*
X180069030Y-64895671D01*
X180060765Y-64872572D01*
X180054804Y-64848773D01*
X180051204Y-64824505D01*
X180050000Y-64800001D01*
X180050000Y-64149999D01*
X180051204Y-64125495D01*
X180054804Y-64101227D01*
X180060765Y-64077428D01*
X180069030Y-64054329D01*
X180079520Y-64032150D01*
X180092132Y-64011107D01*
X180106747Y-63991401D01*
X180123223Y-63973223D01*
X180141401Y-63956747D01*
X180161107Y-63942132D01*
X180182150Y-63929520D01*
X180204329Y-63919030D01*
X180227428Y-63910765D01*
X180251227Y-63904804D01*
X180275495Y-63901204D01*
X180299999Y-63900000D01*
X181200001Y-63900000D01*
X181224505Y-63901204D01*
G37*
G36*
X181224505Y-65951204D02*
G01*
X181248773Y-65954804D01*
X181272572Y-65960765D01*
X181295671Y-65969030D01*
X181317850Y-65979520D01*
X181338893Y-65992132D01*
X181358599Y-66006747D01*
X181376777Y-66023223D01*
X181393253Y-66041401D01*
X181407868Y-66061107D01*
X181420480Y-66082150D01*
X181430970Y-66104329D01*
X181439235Y-66127428D01*
X181445196Y-66151227D01*
X181448796Y-66175495D01*
X181450000Y-66199999D01*
X181450000Y-66850001D01*
X181448796Y-66874505D01*
X181445196Y-66898773D01*
X181439235Y-66922572D01*
X181430970Y-66945671D01*
X181420480Y-66967850D01*
X181407868Y-66988893D01*
X181393253Y-67008599D01*
X181376777Y-67026777D01*
X181358599Y-67043253D01*
X181338893Y-67057868D01*
X181317850Y-67070480D01*
X181295671Y-67080970D01*
X181272572Y-67089235D01*
X181248773Y-67095196D01*
X181224505Y-67098796D01*
X181200001Y-67100000D01*
X180299999Y-67100000D01*
X180275495Y-67098796D01*
X180251227Y-67095196D01*
X180227428Y-67089235D01*
X180204329Y-67080970D01*
X180182150Y-67070480D01*
X180161107Y-67057868D01*
X180141401Y-67043253D01*
X180123223Y-67026777D01*
X180106747Y-67008599D01*
X180092132Y-66988893D01*
X180079520Y-66967850D01*
X180069030Y-66945671D01*
X180060765Y-66922572D01*
X180054804Y-66898773D01*
X180051204Y-66874505D01*
X180050000Y-66850001D01*
X180050000Y-66199999D01*
X180051204Y-66175495D01*
X180054804Y-66151227D01*
X180060765Y-66127428D01*
X180069030Y-66104329D01*
X180079520Y-66082150D01*
X180092132Y-66061107D01*
X180106747Y-66041401D01*
X180123223Y-66023223D01*
X180141401Y-66006747D01*
X180161107Y-65992132D01*
X180182150Y-65979520D01*
X180204329Y-65969030D01*
X180227428Y-65960765D01*
X180251227Y-65954804D01*
X180275495Y-65951204D01*
X180299999Y-65950000D01*
X181200001Y-65950000D01*
X181224505Y-65951204D01*
G37*
G36*
X164224505Y-63901204D02*
G01*
X164248773Y-63904804D01*
X164272572Y-63910765D01*
X164295671Y-63919030D01*
X164317850Y-63929520D01*
X164338893Y-63942132D01*
X164358599Y-63956747D01*
X164376777Y-63973223D01*
X164393253Y-63991401D01*
X164407868Y-64011107D01*
X164420480Y-64032150D01*
X164430970Y-64054329D01*
X164439235Y-64077428D01*
X164445196Y-64101227D01*
X164448796Y-64125495D01*
X164450000Y-64149999D01*
X164450000Y-64800001D01*
X164448796Y-64824505D01*
X164445196Y-64848773D01*
X164439235Y-64872572D01*
X164430970Y-64895671D01*
X164420480Y-64917850D01*
X164407868Y-64938893D01*
X164393253Y-64958599D01*
X164376777Y-64976777D01*
X164358599Y-64993253D01*
X164338893Y-65007868D01*
X164317850Y-65020480D01*
X164295671Y-65030970D01*
X164272572Y-65039235D01*
X164248773Y-65045196D01*
X164224505Y-65048796D01*
X164200001Y-65050000D01*
X163299999Y-65050000D01*
X163275495Y-65048796D01*
X163251227Y-65045196D01*
X163227428Y-65039235D01*
X163204329Y-65030970D01*
X163182150Y-65020480D01*
X163161107Y-65007868D01*
X163141401Y-64993253D01*
X163123223Y-64976777D01*
X163106747Y-64958599D01*
X163092132Y-64938893D01*
X163079520Y-64917850D01*
X163069030Y-64895671D01*
X163060765Y-64872572D01*
X163054804Y-64848773D01*
X163051204Y-64824505D01*
X163050000Y-64800001D01*
X163050000Y-64149999D01*
X163051204Y-64125495D01*
X163054804Y-64101227D01*
X163060765Y-64077428D01*
X163069030Y-64054329D01*
X163079520Y-64032150D01*
X163092132Y-64011107D01*
X163106747Y-63991401D01*
X163123223Y-63973223D01*
X163141401Y-63956747D01*
X163161107Y-63942132D01*
X163182150Y-63929520D01*
X163204329Y-63919030D01*
X163227428Y-63910765D01*
X163251227Y-63904804D01*
X163275495Y-63901204D01*
X163299999Y-63900000D01*
X164200001Y-63900000D01*
X164224505Y-63901204D01*
G37*
G36*
X164224505Y-65951204D02*
G01*
X164248773Y-65954804D01*
X164272572Y-65960765D01*
X164295671Y-65969030D01*
X164317850Y-65979520D01*
X164338893Y-65992132D01*
X164358599Y-66006747D01*
X164376777Y-66023223D01*
X164393253Y-66041401D01*
X164407868Y-66061107D01*
X164420480Y-66082150D01*
X164430970Y-66104329D01*
X164439235Y-66127428D01*
X164445196Y-66151227D01*
X164448796Y-66175495D01*
X164450000Y-66199999D01*
X164450000Y-66850001D01*
X164448796Y-66874505D01*
X164445196Y-66898773D01*
X164439235Y-66922572D01*
X164430970Y-66945671D01*
X164420480Y-66967850D01*
X164407868Y-66988893D01*
X164393253Y-67008599D01*
X164376777Y-67026777D01*
X164358599Y-67043253D01*
X164338893Y-67057868D01*
X164317850Y-67070480D01*
X164295671Y-67080970D01*
X164272572Y-67089235D01*
X164248773Y-67095196D01*
X164224505Y-67098796D01*
X164200001Y-67100000D01*
X163299999Y-67100000D01*
X163275495Y-67098796D01*
X163251227Y-67095196D01*
X163227428Y-67089235D01*
X163204329Y-67080970D01*
X163182150Y-67070480D01*
X163161107Y-67057868D01*
X163141401Y-67043253D01*
X163123223Y-67026777D01*
X163106747Y-67008599D01*
X163092132Y-66988893D01*
X163079520Y-66967850D01*
X163069030Y-66945671D01*
X163060765Y-66922572D01*
X163054804Y-66898773D01*
X163051204Y-66874505D01*
X163050000Y-66850001D01*
X163050000Y-66199999D01*
X163051204Y-66175495D01*
X163054804Y-66151227D01*
X163060765Y-66127428D01*
X163069030Y-66104329D01*
X163079520Y-66082150D01*
X163092132Y-66061107D01*
X163106747Y-66041401D01*
X163123223Y-66023223D01*
X163141401Y-66006747D01*
X163161107Y-65992132D01*
X163182150Y-65979520D01*
X163204329Y-65969030D01*
X163227428Y-65960765D01*
X163251227Y-65954804D01*
X163275495Y-65951204D01*
X163299999Y-65950000D01*
X164200001Y-65950000D01*
X164224505Y-65951204D01*
G37*
G36*
X147224505Y-65951204D02*
G01*
X147248773Y-65954804D01*
X147272572Y-65960765D01*
X147295671Y-65969030D01*
X147317850Y-65979520D01*
X147338893Y-65992132D01*
X147358599Y-66006747D01*
X147376777Y-66023223D01*
X147393253Y-66041401D01*
X147407868Y-66061107D01*
X147420480Y-66082150D01*
X147430970Y-66104329D01*
X147439235Y-66127428D01*
X147445196Y-66151227D01*
X147448796Y-66175495D01*
X147450000Y-66199999D01*
X147450000Y-66850001D01*
X147448796Y-66874505D01*
X147445196Y-66898773D01*
X147439235Y-66922572D01*
X147430970Y-66945671D01*
X147420480Y-66967850D01*
X147407868Y-66988893D01*
X147393253Y-67008599D01*
X147376777Y-67026777D01*
X147358599Y-67043253D01*
X147338893Y-67057868D01*
X147317850Y-67070480D01*
X147295671Y-67080970D01*
X147272572Y-67089235D01*
X147248773Y-67095196D01*
X147224505Y-67098796D01*
X147200001Y-67100000D01*
X146299999Y-67100000D01*
X146275495Y-67098796D01*
X146251227Y-67095196D01*
X146227428Y-67089235D01*
X146204329Y-67080970D01*
X146182150Y-67070480D01*
X146161107Y-67057868D01*
X146141401Y-67043253D01*
X146123223Y-67026777D01*
X146106747Y-67008599D01*
X146092132Y-66988893D01*
X146079520Y-66967850D01*
X146069030Y-66945671D01*
X146060765Y-66922572D01*
X146054804Y-66898773D01*
X146051204Y-66874505D01*
X146050000Y-66850001D01*
X146050000Y-66199999D01*
X146051204Y-66175495D01*
X146054804Y-66151227D01*
X146060765Y-66127428D01*
X146069030Y-66104329D01*
X146079520Y-66082150D01*
X146092132Y-66061107D01*
X146106747Y-66041401D01*
X146123223Y-66023223D01*
X146141401Y-66006747D01*
X146161107Y-65992132D01*
X146182150Y-65979520D01*
X146204329Y-65969030D01*
X146227428Y-65960765D01*
X146251227Y-65954804D01*
X146275495Y-65951204D01*
X146299999Y-65950000D01*
X147200001Y-65950000D01*
X147224505Y-65951204D01*
G37*
G36*
X147224505Y-63901204D02*
G01*
X147248773Y-63904804D01*
X147272572Y-63910765D01*
X147295671Y-63919030D01*
X147317850Y-63929520D01*
X147338893Y-63942132D01*
X147358599Y-63956747D01*
X147376777Y-63973223D01*
X147393253Y-63991401D01*
X147407868Y-64011107D01*
X147420480Y-64032150D01*
X147430970Y-64054329D01*
X147439235Y-64077428D01*
X147445196Y-64101227D01*
X147448796Y-64125495D01*
X147450000Y-64149999D01*
X147450000Y-64800001D01*
X147448796Y-64824505D01*
X147445196Y-64848773D01*
X147439235Y-64872572D01*
X147430970Y-64895671D01*
X147420480Y-64917850D01*
X147407868Y-64938893D01*
X147393253Y-64958599D01*
X147376777Y-64976777D01*
X147358599Y-64993253D01*
X147338893Y-65007868D01*
X147317850Y-65020480D01*
X147295671Y-65030970D01*
X147272572Y-65039235D01*
X147248773Y-65045196D01*
X147224505Y-65048796D01*
X147200001Y-65050000D01*
X146299999Y-65050000D01*
X146275495Y-65048796D01*
X146251227Y-65045196D01*
X146227428Y-65039235D01*
X146204329Y-65030970D01*
X146182150Y-65020480D01*
X146161107Y-65007868D01*
X146141401Y-64993253D01*
X146123223Y-64976777D01*
X146106747Y-64958599D01*
X146092132Y-64938893D01*
X146079520Y-64917850D01*
X146069030Y-64895671D01*
X146060765Y-64872572D01*
X146054804Y-64848773D01*
X146051204Y-64824505D01*
X146050000Y-64800001D01*
X146050000Y-64149999D01*
X146051204Y-64125495D01*
X146054804Y-64101227D01*
X146060765Y-64077428D01*
X146069030Y-64054329D01*
X146079520Y-64032150D01*
X146092132Y-64011107D01*
X146106747Y-63991401D01*
X146123223Y-63973223D01*
X146141401Y-63956747D01*
X146161107Y-63942132D01*
X146182150Y-63929520D01*
X146204329Y-63919030D01*
X146227428Y-63910765D01*
X146251227Y-63904804D01*
X146275495Y-63901204D01*
X146299999Y-63900000D01*
X147200001Y-63900000D01*
X147224505Y-63901204D01*
G37*
G36*
X130224505Y-63901204D02*
G01*
X130248773Y-63904804D01*
X130272572Y-63910765D01*
X130295671Y-63919030D01*
X130317850Y-63929520D01*
X130338893Y-63942132D01*
X130358599Y-63956747D01*
X130376777Y-63973223D01*
X130393253Y-63991401D01*
X130407868Y-64011107D01*
X130420480Y-64032150D01*
X130430970Y-64054329D01*
X130439235Y-64077428D01*
X130445196Y-64101227D01*
X130448796Y-64125495D01*
X130450000Y-64149999D01*
X130450000Y-64800001D01*
X130448796Y-64824505D01*
X130445196Y-64848773D01*
X130439235Y-64872572D01*
X130430970Y-64895671D01*
X130420480Y-64917850D01*
X130407868Y-64938893D01*
X130393253Y-64958599D01*
X130376777Y-64976777D01*
X130358599Y-64993253D01*
X130338893Y-65007868D01*
X130317850Y-65020480D01*
X130295671Y-65030970D01*
X130272572Y-65039235D01*
X130248773Y-65045196D01*
X130224505Y-65048796D01*
X130200001Y-65050000D01*
X129299999Y-65050000D01*
X129275495Y-65048796D01*
X129251227Y-65045196D01*
X129227428Y-65039235D01*
X129204329Y-65030970D01*
X129182150Y-65020480D01*
X129161107Y-65007868D01*
X129141401Y-64993253D01*
X129123223Y-64976777D01*
X129106747Y-64958599D01*
X129092132Y-64938893D01*
X129079520Y-64917850D01*
X129069030Y-64895671D01*
X129060765Y-64872572D01*
X129054804Y-64848773D01*
X129051204Y-64824505D01*
X129050000Y-64800001D01*
X129050000Y-64149999D01*
X129051204Y-64125495D01*
X129054804Y-64101227D01*
X129060765Y-64077428D01*
X129069030Y-64054329D01*
X129079520Y-64032150D01*
X129092132Y-64011107D01*
X129106747Y-63991401D01*
X129123223Y-63973223D01*
X129141401Y-63956747D01*
X129161107Y-63942132D01*
X129182150Y-63929520D01*
X129204329Y-63919030D01*
X129227428Y-63910765D01*
X129251227Y-63904804D01*
X129275495Y-63901204D01*
X129299999Y-63900000D01*
X130200001Y-63900000D01*
X130224505Y-63901204D01*
G37*
G36*
X130224505Y-65951204D02*
G01*
X130248773Y-65954804D01*
X130272572Y-65960765D01*
X130295671Y-65969030D01*
X130317850Y-65979520D01*
X130338893Y-65992132D01*
X130358599Y-66006747D01*
X130376777Y-66023223D01*
X130393253Y-66041401D01*
X130407868Y-66061107D01*
X130420480Y-66082150D01*
X130430970Y-66104329D01*
X130439235Y-66127428D01*
X130445196Y-66151227D01*
X130448796Y-66175495D01*
X130450000Y-66199999D01*
X130450000Y-66850001D01*
X130448796Y-66874505D01*
X130445196Y-66898773D01*
X130439235Y-66922572D01*
X130430970Y-66945671D01*
X130420480Y-66967850D01*
X130407868Y-66988893D01*
X130393253Y-67008599D01*
X130376777Y-67026777D01*
X130358599Y-67043253D01*
X130338893Y-67057868D01*
X130317850Y-67070480D01*
X130295671Y-67080970D01*
X130272572Y-67089235D01*
X130248773Y-67095196D01*
X130224505Y-67098796D01*
X130200001Y-67100000D01*
X129299999Y-67100000D01*
X129275495Y-67098796D01*
X129251227Y-67095196D01*
X129227428Y-67089235D01*
X129204329Y-67080970D01*
X129182150Y-67070480D01*
X129161107Y-67057868D01*
X129141401Y-67043253D01*
X129123223Y-67026777D01*
X129106747Y-67008599D01*
X129092132Y-66988893D01*
X129079520Y-66967850D01*
X129069030Y-66945671D01*
X129060765Y-66922572D01*
X129054804Y-66898773D01*
X129051204Y-66874505D01*
X129050000Y-66850001D01*
X129050000Y-66199999D01*
X129051204Y-66175495D01*
X129054804Y-66151227D01*
X129060765Y-66127428D01*
X129069030Y-66104329D01*
X129079520Y-66082150D01*
X129092132Y-66061107D01*
X129106747Y-66041401D01*
X129123223Y-66023223D01*
X129141401Y-66006747D01*
X129161107Y-65992132D01*
X129182150Y-65979520D01*
X129204329Y-65969030D01*
X129227428Y-65960765D01*
X129251227Y-65954804D01*
X129275495Y-65951204D01*
X129299999Y-65950000D01*
X130200001Y-65950000D01*
X130224505Y-65951204D01*
G37*
G36*
X113224505Y-65951204D02*
G01*
X113248773Y-65954804D01*
X113272572Y-65960765D01*
X113295671Y-65969030D01*
X113317850Y-65979520D01*
X113338893Y-65992132D01*
X113358599Y-66006747D01*
X113376777Y-66023223D01*
X113393253Y-66041401D01*
X113407868Y-66061107D01*
X113420480Y-66082150D01*
X113430970Y-66104329D01*
X113439235Y-66127428D01*
X113445196Y-66151227D01*
X113448796Y-66175495D01*
X113450000Y-66199999D01*
X113450000Y-66850001D01*
X113448796Y-66874505D01*
X113445196Y-66898773D01*
X113439235Y-66922572D01*
X113430970Y-66945671D01*
X113420480Y-66967850D01*
X113407868Y-66988893D01*
X113393253Y-67008599D01*
X113376777Y-67026777D01*
X113358599Y-67043253D01*
X113338893Y-67057868D01*
X113317850Y-67070480D01*
X113295671Y-67080970D01*
X113272572Y-67089235D01*
X113248773Y-67095196D01*
X113224505Y-67098796D01*
X113200001Y-67100000D01*
X112299999Y-67100000D01*
X112275495Y-67098796D01*
X112251227Y-67095196D01*
X112227428Y-67089235D01*
X112204329Y-67080970D01*
X112182150Y-67070480D01*
X112161107Y-67057868D01*
X112141401Y-67043253D01*
X112123223Y-67026777D01*
X112106747Y-67008599D01*
X112092132Y-66988893D01*
X112079520Y-66967850D01*
X112069030Y-66945671D01*
X112060765Y-66922572D01*
X112054804Y-66898773D01*
X112051204Y-66874505D01*
X112050000Y-66850001D01*
X112050000Y-66199999D01*
X112051204Y-66175495D01*
X112054804Y-66151227D01*
X112060765Y-66127428D01*
X112069030Y-66104329D01*
X112079520Y-66082150D01*
X112092132Y-66061107D01*
X112106747Y-66041401D01*
X112123223Y-66023223D01*
X112141401Y-66006747D01*
X112161107Y-65992132D01*
X112182150Y-65979520D01*
X112204329Y-65969030D01*
X112227428Y-65960765D01*
X112251227Y-65954804D01*
X112275495Y-65951204D01*
X112299999Y-65950000D01*
X113200001Y-65950000D01*
X113224505Y-65951204D01*
G37*
G36*
X113224505Y-63901204D02*
G01*
X113248773Y-63904804D01*
X113272572Y-63910765D01*
X113295671Y-63919030D01*
X113317850Y-63929520D01*
X113338893Y-63942132D01*
X113358599Y-63956747D01*
X113376777Y-63973223D01*
X113393253Y-63991401D01*
X113407868Y-64011107D01*
X113420480Y-64032150D01*
X113430970Y-64054329D01*
X113439235Y-64077428D01*
X113445196Y-64101227D01*
X113448796Y-64125495D01*
X113450000Y-64149999D01*
X113450000Y-64800001D01*
X113448796Y-64824505D01*
X113445196Y-64848773D01*
X113439235Y-64872572D01*
X113430970Y-64895671D01*
X113420480Y-64917850D01*
X113407868Y-64938893D01*
X113393253Y-64958599D01*
X113376777Y-64976777D01*
X113358599Y-64993253D01*
X113338893Y-65007868D01*
X113317850Y-65020480D01*
X113295671Y-65030970D01*
X113272572Y-65039235D01*
X113248773Y-65045196D01*
X113224505Y-65048796D01*
X113200001Y-65050000D01*
X112299999Y-65050000D01*
X112275495Y-65048796D01*
X112251227Y-65045196D01*
X112227428Y-65039235D01*
X112204329Y-65030970D01*
X112182150Y-65020480D01*
X112161107Y-65007868D01*
X112141401Y-64993253D01*
X112123223Y-64976777D01*
X112106747Y-64958599D01*
X112092132Y-64938893D01*
X112079520Y-64917850D01*
X112069030Y-64895671D01*
X112060765Y-64872572D01*
X112054804Y-64848773D01*
X112051204Y-64824505D01*
X112050000Y-64800001D01*
X112050000Y-64149999D01*
X112051204Y-64125495D01*
X112054804Y-64101227D01*
X112060765Y-64077428D01*
X112069030Y-64054329D01*
X112079520Y-64032150D01*
X112092132Y-64011107D01*
X112106747Y-63991401D01*
X112123223Y-63973223D01*
X112141401Y-63956747D01*
X112161107Y-63942132D01*
X112182150Y-63929520D01*
X112204329Y-63919030D01*
X112227428Y-63910765D01*
X112251227Y-63904804D01*
X112275495Y-63901204D01*
X112299999Y-63900000D01*
X113200001Y-63900000D01*
X113224505Y-63901204D01*
G37*
G36*
X197724505Y-120926204D02*
G01*
X197748773Y-120929804D01*
X197772572Y-120935765D01*
X197795671Y-120944030D01*
X197817850Y-120954520D01*
X197838893Y-120967132D01*
X197858599Y-120981747D01*
X197876777Y-120998223D01*
X197893253Y-121016401D01*
X197907868Y-121036107D01*
X197920480Y-121057150D01*
X197930970Y-121079329D01*
X197939235Y-121102428D01*
X197945196Y-121126227D01*
X197948796Y-121150495D01*
X197950000Y-121174999D01*
X197950000Y-121825001D01*
X197948796Y-121849505D01*
X197945196Y-121873773D01*
X197939235Y-121897572D01*
X197930970Y-121920671D01*
X197920480Y-121942850D01*
X197907868Y-121963893D01*
X197893253Y-121983599D01*
X197876777Y-122001777D01*
X197858599Y-122018253D01*
X197838893Y-122032868D01*
X197817850Y-122045480D01*
X197795671Y-122055970D01*
X197772572Y-122064235D01*
X197748773Y-122070196D01*
X197724505Y-122073796D01*
X197700001Y-122075000D01*
X196799999Y-122075000D01*
X196775495Y-122073796D01*
X196751227Y-122070196D01*
X196727428Y-122064235D01*
X196704329Y-122055970D01*
X196682150Y-122045480D01*
X196661107Y-122032868D01*
X196641401Y-122018253D01*
X196623223Y-122001777D01*
X196606747Y-121983599D01*
X196592132Y-121963893D01*
X196579520Y-121942850D01*
X196569030Y-121920671D01*
X196560765Y-121897572D01*
X196554804Y-121873773D01*
X196551204Y-121849505D01*
X196550000Y-121825001D01*
X196550000Y-121174999D01*
X196551204Y-121150495D01*
X196554804Y-121126227D01*
X196560765Y-121102428D01*
X196569030Y-121079329D01*
X196579520Y-121057150D01*
X196592132Y-121036107D01*
X196606747Y-121016401D01*
X196623223Y-120998223D01*
X196641401Y-120981747D01*
X196661107Y-120967132D01*
X196682150Y-120954520D01*
X196704329Y-120944030D01*
X196727428Y-120935765D01*
X196751227Y-120929804D01*
X196775495Y-120926204D01*
X196799999Y-120925000D01*
X197700001Y-120925000D01*
X197724505Y-120926204D01*
G37*
G36*
X197724505Y-118876204D02*
G01*
X197748773Y-118879804D01*
X197772572Y-118885765D01*
X197795671Y-118894030D01*
X197817850Y-118904520D01*
X197838893Y-118917132D01*
X197858599Y-118931747D01*
X197876777Y-118948223D01*
X197893253Y-118966401D01*
X197907868Y-118986107D01*
X197920480Y-119007150D01*
X197930970Y-119029329D01*
X197939235Y-119052428D01*
X197945196Y-119076227D01*
X197948796Y-119100495D01*
X197950000Y-119124999D01*
X197950000Y-119775001D01*
X197948796Y-119799505D01*
X197945196Y-119823773D01*
X197939235Y-119847572D01*
X197930970Y-119870671D01*
X197920480Y-119892850D01*
X197907868Y-119913893D01*
X197893253Y-119933599D01*
X197876777Y-119951777D01*
X197858599Y-119968253D01*
X197838893Y-119982868D01*
X197817850Y-119995480D01*
X197795671Y-120005970D01*
X197772572Y-120014235D01*
X197748773Y-120020196D01*
X197724505Y-120023796D01*
X197700001Y-120025000D01*
X196799999Y-120025000D01*
X196775495Y-120023796D01*
X196751227Y-120020196D01*
X196727428Y-120014235D01*
X196704329Y-120005970D01*
X196682150Y-119995480D01*
X196661107Y-119982868D01*
X196641401Y-119968253D01*
X196623223Y-119951777D01*
X196606747Y-119933599D01*
X196592132Y-119913893D01*
X196579520Y-119892850D01*
X196569030Y-119870671D01*
X196560765Y-119847572D01*
X196554804Y-119823773D01*
X196551204Y-119799505D01*
X196550000Y-119775001D01*
X196550000Y-119124999D01*
X196551204Y-119100495D01*
X196554804Y-119076227D01*
X196560765Y-119052428D01*
X196569030Y-119029329D01*
X196579520Y-119007150D01*
X196592132Y-118986107D01*
X196606747Y-118966401D01*
X196623223Y-118948223D01*
X196641401Y-118931747D01*
X196661107Y-118917132D01*
X196682150Y-118904520D01*
X196704329Y-118894030D01*
X196727428Y-118885765D01*
X196751227Y-118879804D01*
X196775495Y-118876204D01*
X196799999Y-118875000D01*
X197700001Y-118875000D01*
X197724505Y-118876204D01*
G37*
G36*
X180724505Y-118876204D02*
G01*
X180748773Y-118879804D01*
X180772572Y-118885765D01*
X180795671Y-118894030D01*
X180817850Y-118904520D01*
X180838893Y-118917132D01*
X180858599Y-118931747D01*
X180876777Y-118948223D01*
X180893253Y-118966401D01*
X180907868Y-118986107D01*
X180920480Y-119007150D01*
X180930970Y-119029329D01*
X180939235Y-119052428D01*
X180945196Y-119076227D01*
X180948796Y-119100495D01*
X180950000Y-119124999D01*
X180950000Y-119775001D01*
X180948796Y-119799505D01*
X180945196Y-119823773D01*
X180939235Y-119847572D01*
X180930970Y-119870671D01*
X180920480Y-119892850D01*
X180907868Y-119913893D01*
X180893253Y-119933599D01*
X180876777Y-119951777D01*
X180858599Y-119968253D01*
X180838893Y-119982868D01*
X180817850Y-119995480D01*
X180795671Y-120005970D01*
X180772572Y-120014235D01*
X180748773Y-120020196D01*
X180724505Y-120023796D01*
X180700001Y-120025000D01*
X179799999Y-120025000D01*
X179775495Y-120023796D01*
X179751227Y-120020196D01*
X179727428Y-120014235D01*
X179704329Y-120005970D01*
X179682150Y-119995480D01*
X179661107Y-119982868D01*
X179641401Y-119968253D01*
X179623223Y-119951777D01*
X179606747Y-119933599D01*
X179592132Y-119913893D01*
X179579520Y-119892850D01*
X179569030Y-119870671D01*
X179560765Y-119847572D01*
X179554804Y-119823773D01*
X179551204Y-119799505D01*
X179550000Y-119775001D01*
X179550000Y-119124999D01*
X179551204Y-119100495D01*
X179554804Y-119076227D01*
X179560765Y-119052428D01*
X179569030Y-119029329D01*
X179579520Y-119007150D01*
X179592132Y-118986107D01*
X179606747Y-118966401D01*
X179623223Y-118948223D01*
X179641401Y-118931747D01*
X179661107Y-118917132D01*
X179682150Y-118904520D01*
X179704329Y-118894030D01*
X179727428Y-118885765D01*
X179751227Y-118879804D01*
X179775495Y-118876204D01*
X179799999Y-118875000D01*
X180700001Y-118875000D01*
X180724505Y-118876204D01*
G37*
G36*
X180724505Y-120926204D02*
G01*
X180748773Y-120929804D01*
X180772572Y-120935765D01*
X180795671Y-120944030D01*
X180817850Y-120954520D01*
X180838893Y-120967132D01*
X180858599Y-120981747D01*
X180876777Y-120998223D01*
X180893253Y-121016401D01*
X180907868Y-121036107D01*
X180920480Y-121057150D01*
X180930970Y-121079329D01*
X180939235Y-121102428D01*
X180945196Y-121126227D01*
X180948796Y-121150495D01*
X180950000Y-121174999D01*
X180950000Y-121825001D01*
X180948796Y-121849505D01*
X180945196Y-121873773D01*
X180939235Y-121897572D01*
X180930970Y-121920671D01*
X180920480Y-121942850D01*
X180907868Y-121963893D01*
X180893253Y-121983599D01*
X180876777Y-122001777D01*
X180858599Y-122018253D01*
X180838893Y-122032868D01*
X180817850Y-122045480D01*
X180795671Y-122055970D01*
X180772572Y-122064235D01*
X180748773Y-122070196D01*
X180724505Y-122073796D01*
X180700001Y-122075000D01*
X179799999Y-122075000D01*
X179775495Y-122073796D01*
X179751227Y-122070196D01*
X179727428Y-122064235D01*
X179704329Y-122055970D01*
X179682150Y-122045480D01*
X179661107Y-122032868D01*
X179641401Y-122018253D01*
X179623223Y-122001777D01*
X179606747Y-121983599D01*
X179592132Y-121963893D01*
X179579520Y-121942850D01*
X179569030Y-121920671D01*
X179560765Y-121897572D01*
X179554804Y-121873773D01*
X179551204Y-121849505D01*
X179550000Y-121825001D01*
X179550000Y-121174999D01*
X179551204Y-121150495D01*
X179554804Y-121126227D01*
X179560765Y-121102428D01*
X179569030Y-121079329D01*
X179579520Y-121057150D01*
X179592132Y-121036107D01*
X179606747Y-121016401D01*
X179623223Y-120998223D01*
X179641401Y-120981747D01*
X179661107Y-120967132D01*
X179682150Y-120954520D01*
X179704329Y-120944030D01*
X179727428Y-120935765D01*
X179751227Y-120929804D01*
X179775495Y-120926204D01*
X179799999Y-120925000D01*
X180700001Y-120925000D01*
X180724505Y-120926204D01*
G37*
G36*
X163724505Y-118901204D02*
G01*
X163748773Y-118904804D01*
X163772572Y-118910765D01*
X163795671Y-118919030D01*
X163817850Y-118929520D01*
X163838893Y-118942132D01*
X163858599Y-118956747D01*
X163876777Y-118973223D01*
X163893253Y-118991401D01*
X163907868Y-119011107D01*
X163920480Y-119032150D01*
X163930970Y-119054329D01*
X163939235Y-119077428D01*
X163945196Y-119101227D01*
X163948796Y-119125495D01*
X163950000Y-119149999D01*
X163950000Y-119800001D01*
X163948796Y-119824505D01*
X163945196Y-119848773D01*
X163939235Y-119872572D01*
X163930970Y-119895671D01*
X163920480Y-119917850D01*
X163907868Y-119938893D01*
X163893253Y-119958599D01*
X163876777Y-119976777D01*
X163858599Y-119993253D01*
X163838893Y-120007868D01*
X163817850Y-120020480D01*
X163795671Y-120030970D01*
X163772572Y-120039235D01*
X163748773Y-120045196D01*
X163724505Y-120048796D01*
X163700001Y-120050000D01*
X162799999Y-120050000D01*
X162775495Y-120048796D01*
X162751227Y-120045196D01*
X162727428Y-120039235D01*
X162704329Y-120030970D01*
X162682150Y-120020480D01*
X162661107Y-120007868D01*
X162641401Y-119993253D01*
X162623223Y-119976777D01*
X162606747Y-119958599D01*
X162592132Y-119938893D01*
X162579520Y-119917850D01*
X162569030Y-119895671D01*
X162560765Y-119872572D01*
X162554804Y-119848773D01*
X162551204Y-119824505D01*
X162550000Y-119800001D01*
X162550000Y-119149999D01*
X162551204Y-119125495D01*
X162554804Y-119101227D01*
X162560765Y-119077428D01*
X162569030Y-119054329D01*
X162579520Y-119032150D01*
X162592132Y-119011107D01*
X162606747Y-118991401D01*
X162623223Y-118973223D01*
X162641401Y-118956747D01*
X162661107Y-118942132D01*
X162682150Y-118929520D01*
X162704329Y-118919030D01*
X162727428Y-118910765D01*
X162751227Y-118904804D01*
X162775495Y-118901204D01*
X162799999Y-118900000D01*
X163700001Y-118900000D01*
X163724505Y-118901204D01*
G37*
G36*
X163724505Y-120951204D02*
G01*
X163748773Y-120954804D01*
X163772572Y-120960765D01*
X163795671Y-120969030D01*
X163817850Y-120979520D01*
X163838893Y-120992132D01*
X163858599Y-121006747D01*
X163876777Y-121023223D01*
X163893253Y-121041401D01*
X163907868Y-121061107D01*
X163920480Y-121082150D01*
X163930970Y-121104329D01*
X163939235Y-121127428D01*
X163945196Y-121151227D01*
X163948796Y-121175495D01*
X163950000Y-121199999D01*
X163950000Y-121850001D01*
X163948796Y-121874505D01*
X163945196Y-121898773D01*
X163939235Y-121922572D01*
X163930970Y-121945671D01*
X163920480Y-121967850D01*
X163907868Y-121988893D01*
X163893253Y-122008599D01*
X163876777Y-122026777D01*
X163858599Y-122043253D01*
X163838893Y-122057868D01*
X163817850Y-122070480D01*
X163795671Y-122080970D01*
X163772572Y-122089235D01*
X163748773Y-122095196D01*
X163724505Y-122098796D01*
X163700001Y-122100000D01*
X162799999Y-122100000D01*
X162775495Y-122098796D01*
X162751227Y-122095196D01*
X162727428Y-122089235D01*
X162704329Y-122080970D01*
X162682150Y-122070480D01*
X162661107Y-122057868D01*
X162641401Y-122043253D01*
X162623223Y-122026777D01*
X162606747Y-122008599D01*
X162592132Y-121988893D01*
X162579520Y-121967850D01*
X162569030Y-121945671D01*
X162560765Y-121922572D01*
X162554804Y-121898773D01*
X162551204Y-121874505D01*
X162550000Y-121850001D01*
X162550000Y-121199999D01*
X162551204Y-121175495D01*
X162554804Y-121151227D01*
X162560765Y-121127428D01*
X162569030Y-121104329D01*
X162579520Y-121082150D01*
X162592132Y-121061107D01*
X162606747Y-121041401D01*
X162623223Y-121023223D01*
X162641401Y-121006747D01*
X162661107Y-120992132D01*
X162682150Y-120979520D01*
X162704329Y-120969030D01*
X162727428Y-120960765D01*
X162751227Y-120954804D01*
X162775495Y-120951204D01*
X162799999Y-120950000D01*
X163700001Y-120950000D01*
X163724505Y-120951204D01*
G37*
G36*
X146724505Y-118876204D02*
G01*
X146748773Y-118879804D01*
X146772572Y-118885765D01*
X146795671Y-118894030D01*
X146817850Y-118904520D01*
X146838893Y-118917132D01*
X146858599Y-118931747D01*
X146876777Y-118948223D01*
X146893253Y-118966401D01*
X146907868Y-118986107D01*
X146920480Y-119007150D01*
X146930970Y-119029329D01*
X146939235Y-119052428D01*
X146945196Y-119076227D01*
X146948796Y-119100495D01*
X146950000Y-119124999D01*
X146950000Y-119775001D01*
X146948796Y-119799505D01*
X146945196Y-119823773D01*
X146939235Y-119847572D01*
X146930970Y-119870671D01*
X146920480Y-119892850D01*
X146907868Y-119913893D01*
X146893253Y-119933599D01*
X146876777Y-119951777D01*
X146858599Y-119968253D01*
X146838893Y-119982868D01*
X146817850Y-119995480D01*
X146795671Y-120005970D01*
X146772572Y-120014235D01*
X146748773Y-120020196D01*
X146724505Y-120023796D01*
X146700001Y-120025000D01*
X145799999Y-120025000D01*
X145775495Y-120023796D01*
X145751227Y-120020196D01*
X145727428Y-120014235D01*
X145704329Y-120005970D01*
X145682150Y-119995480D01*
X145661107Y-119982868D01*
X145641401Y-119968253D01*
X145623223Y-119951777D01*
X145606747Y-119933599D01*
X145592132Y-119913893D01*
X145579520Y-119892850D01*
X145569030Y-119870671D01*
X145560765Y-119847572D01*
X145554804Y-119823773D01*
X145551204Y-119799505D01*
X145550000Y-119775001D01*
X145550000Y-119124999D01*
X145551204Y-119100495D01*
X145554804Y-119076227D01*
X145560765Y-119052428D01*
X145569030Y-119029329D01*
X145579520Y-119007150D01*
X145592132Y-118986107D01*
X145606747Y-118966401D01*
X145623223Y-118948223D01*
X145641401Y-118931747D01*
X145661107Y-118917132D01*
X145682150Y-118904520D01*
X145704329Y-118894030D01*
X145727428Y-118885765D01*
X145751227Y-118879804D01*
X145775495Y-118876204D01*
X145799999Y-118875000D01*
X146700001Y-118875000D01*
X146724505Y-118876204D01*
G37*
G36*
X146724505Y-120926204D02*
G01*
X146748773Y-120929804D01*
X146772572Y-120935765D01*
X146795671Y-120944030D01*
X146817850Y-120954520D01*
X146838893Y-120967132D01*
X146858599Y-120981747D01*
X146876777Y-120998223D01*
X146893253Y-121016401D01*
X146907868Y-121036107D01*
X146920480Y-121057150D01*
X146930970Y-121079329D01*
X146939235Y-121102428D01*
X146945196Y-121126227D01*
X146948796Y-121150495D01*
X146950000Y-121174999D01*
X146950000Y-121825001D01*
X146948796Y-121849505D01*
X146945196Y-121873773D01*
X146939235Y-121897572D01*
X146930970Y-121920671D01*
X146920480Y-121942850D01*
X146907868Y-121963893D01*
X146893253Y-121983599D01*
X146876777Y-122001777D01*
X146858599Y-122018253D01*
X146838893Y-122032868D01*
X146817850Y-122045480D01*
X146795671Y-122055970D01*
X146772572Y-122064235D01*
X146748773Y-122070196D01*
X146724505Y-122073796D01*
X146700001Y-122075000D01*
X145799999Y-122075000D01*
X145775495Y-122073796D01*
X145751227Y-122070196D01*
X145727428Y-122064235D01*
X145704329Y-122055970D01*
X145682150Y-122045480D01*
X145661107Y-122032868D01*
X145641401Y-122018253D01*
X145623223Y-122001777D01*
X145606747Y-121983599D01*
X145592132Y-121963893D01*
X145579520Y-121942850D01*
X145569030Y-121920671D01*
X145560765Y-121897572D01*
X145554804Y-121873773D01*
X145551204Y-121849505D01*
X145550000Y-121825001D01*
X145550000Y-121174999D01*
X145551204Y-121150495D01*
X145554804Y-121126227D01*
X145560765Y-121102428D01*
X145569030Y-121079329D01*
X145579520Y-121057150D01*
X145592132Y-121036107D01*
X145606747Y-121016401D01*
X145623223Y-120998223D01*
X145641401Y-120981747D01*
X145661107Y-120967132D01*
X145682150Y-120954520D01*
X145704329Y-120944030D01*
X145727428Y-120935765D01*
X145751227Y-120929804D01*
X145775495Y-120926204D01*
X145799999Y-120925000D01*
X146700001Y-120925000D01*
X146724505Y-120926204D01*
G37*
G36*
X129724505Y-120926204D02*
G01*
X129748773Y-120929804D01*
X129772572Y-120935765D01*
X129795671Y-120944030D01*
X129817850Y-120954520D01*
X129838893Y-120967132D01*
X129858599Y-120981747D01*
X129876777Y-120998223D01*
X129893253Y-121016401D01*
X129907868Y-121036107D01*
X129920480Y-121057150D01*
X129930970Y-121079329D01*
X129939235Y-121102428D01*
X129945196Y-121126227D01*
X129948796Y-121150495D01*
X129950000Y-121174999D01*
X129950000Y-121825001D01*
X129948796Y-121849505D01*
X129945196Y-121873773D01*
X129939235Y-121897572D01*
X129930970Y-121920671D01*
X129920480Y-121942850D01*
X129907868Y-121963893D01*
X129893253Y-121983599D01*
X129876777Y-122001777D01*
X129858599Y-122018253D01*
X129838893Y-122032868D01*
X129817850Y-122045480D01*
X129795671Y-122055970D01*
X129772572Y-122064235D01*
X129748773Y-122070196D01*
X129724505Y-122073796D01*
X129700001Y-122075000D01*
X128799999Y-122075000D01*
X128775495Y-122073796D01*
X128751227Y-122070196D01*
X128727428Y-122064235D01*
X128704329Y-122055970D01*
X128682150Y-122045480D01*
X128661107Y-122032868D01*
X128641401Y-122018253D01*
X128623223Y-122001777D01*
X128606747Y-121983599D01*
X128592132Y-121963893D01*
X128579520Y-121942850D01*
X128569030Y-121920671D01*
X128560765Y-121897572D01*
X128554804Y-121873773D01*
X128551204Y-121849505D01*
X128550000Y-121825001D01*
X128550000Y-121174999D01*
X128551204Y-121150495D01*
X128554804Y-121126227D01*
X128560765Y-121102428D01*
X128569030Y-121079329D01*
X128579520Y-121057150D01*
X128592132Y-121036107D01*
X128606747Y-121016401D01*
X128623223Y-120998223D01*
X128641401Y-120981747D01*
X128661107Y-120967132D01*
X128682150Y-120954520D01*
X128704329Y-120944030D01*
X128727428Y-120935765D01*
X128751227Y-120929804D01*
X128775495Y-120926204D01*
X128799999Y-120925000D01*
X129700001Y-120925000D01*
X129724505Y-120926204D01*
G37*
G36*
X129724505Y-118876204D02*
G01*
X129748773Y-118879804D01*
X129772572Y-118885765D01*
X129795671Y-118894030D01*
X129817850Y-118904520D01*
X129838893Y-118917132D01*
X129858599Y-118931747D01*
X129876777Y-118948223D01*
X129893253Y-118966401D01*
X129907868Y-118986107D01*
X129920480Y-119007150D01*
X129930970Y-119029329D01*
X129939235Y-119052428D01*
X129945196Y-119076227D01*
X129948796Y-119100495D01*
X129950000Y-119124999D01*
X129950000Y-119775001D01*
X129948796Y-119799505D01*
X129945196Y-119823773D01*
X129939235Y-119847572D01*
X129930970Y-119870671D01*
X129920480Y-119892850D01*
X129907868Y-119913893D01*
X129893253Y-119933599D01*
X129876777Y-119951777D01*
X129858599Y-119968253D01*
X129838893Y-119982868D01*
X129817850Y-119995480D01*
X129795671Y-120005970D01*
X129772572Y-120014235D01*
X129748773Y-120020196D01*
X129724505Y-120023796D01*
X129700001Y-120025000D01*
X128799999Y-120025000D01*
X128775495Y-120023796D01*
X128751227Y-120020196D01*
X128727428Y-120014235D01*
X128704329Y-120005970D01*
X128682150Y-119995480D01*
X128661107Y-119982868D01*
X128641401Y-119968253D01*
X128623223Y-119951777D01*
X128606747Y-119933599D01*
X128592132Y-119913893D01*
X128579520Y-119892850D01*
X128569030Y-119870671D01*
X128560765Y-119847572D01*
X128554804Y-119823773D01*
X128551204Y-119799505D01*
X128550000Y-119775001D01*
X128550000Y-119124999D01*
X128551204Y-119100495D01*
X128554804Y-119076227D01*
X128560765Y-119052428D01*
X128569030Y-119029329D01*
X128579520Y-119007150D01*
X128592132Y-118986107D01*
X128606747Y-118966401D01*
X128623223Y-118948223D01*
X128641401Y-118931747D01*
X128661107Y-118917132D01*
X128682150Y-118904520D01*
X128704329Y-118894030D01*
X128727428Y-118885765D01*
X128751227Y-118879804D01*
X128775495Y-118876204D01*
X128799999Y-118875000D01*
X129700001Y-118875000D01*
X129724505Y-118876204D01*
G37*
G36*
X112724505Y-120926204D02*
G01*
X112748773Y-120929804D01*
X112772572Y-120935765D01*
X112795671Y-120944030D01*
X112817850Y-120954520D01*
X112838893Y-120967132D01*
X112858599Y-120981747D01*
X112876777Y-120998223D01*
X112893253Y-121016401D01*
X112907868Y-121036107D01*
X112920480Y-121057150D01*
X112930970Y-121079329D01*
X112939235Y-121102428D01*
X112945196Y-121126227D01*
X112948796Y-121150495D01*
X112950000Y-121174999D01*
X112950000Y-121825001D01*
X112948796Y-121849505D01*
X112945196Y-121873773D01*
X112939235Y-121897572D01*
X112930970Y-121920671D01*
X112920480Y-121942850D01*
X112907868Y-121963893D01*
X112893253Y-121983599D01*
X112876777Y-122001777D01*
X112858599Y-122018253D01*
X112838893Y-122032868D01*
X112817850Y-122045480D01*
X112795671Y-122055970D01*
X112772572Y-122064235D01*
X112748773Y-122070196D01*
X112724505Y-122073796D01*
X112700001Y-122075000D01*
X111799999Y-122075000D01*
X111775495Y-122073796D01*
X111751227Y-122070196D01*
X111727428Y-122064235D01*
X111704329Y-122055970D01*
X111682150Y-122045480D01*
X111661107Y-122032868D01*
X111641401Y-122018253D01*
X111623223Y-122001777D01*
X111606747Y-121983599D01*
X111592132Y-121963893D01*
X111579520Y-121942850D01*
X111569030Y-121920671D01*
X111560765Y-121897572D01*
X111554804Y-121873773D01*
X111551204Y-121849505D01*
X111550000Y-121825001D01*
X111550000Y-121174999D01*
X111551204Y-121150495D01*
X111554804Y-121126227D01*
X111560765Y-121102428D01*
X111569030Y-121079329D01*
X111579520Y-121057150D01*
X111592132Y-121036107D01*
X111606747Y-121016401D01*
X111623223Y-120998223D01*
X111641401Y-120981747D01*
X111661107Y-120967132D01*
X111682150Y-120954520D01*
X111704329Y-120944030D01*
X111727428Y-120935765D01*
X111751227Y-120929804D01*
X111775495Y-120926204D01*
X111799999Y-120925000D01*
X112700001Y-120925000D01*
X112724505Y-120926204D01*
G37*
G36*
X112724505Y-118876204D02*
G01*
X112748773Y-118879804D01*
X112772572Y-118885765D01*
X112795671Y-118894030D01*
X112817850Y-118904520D01*
X112838893Y-118917132D01*
X112858599Y-118931747D01*
X112876777Y-118948223D01*
X112893253Y-118966401D01*
X112907868Y-118986107D01*
X112920480Y-119007150D01*
X112930970Y-119029329D01*
X112939235Y-119052428D01*
X112945196Y-119076227D01*
X112948796Y-119100495D01*
X112950000Y-119124999D01*
X112950000Y-119775001D01*
X112948796Y-119799505D01*
X112945196Y-119823773D01*
X112939235Y-119847572D01*
X112930970Y-119870671D01*
X112920480Y-119892850D01*
X112907868Y-119913893D01*
X112893253Y-119933599D01*
X112876777Y-119951777D01*
X112858599Y-119968253D01*
X112838893Y-119982868D01*
X112817850Y-119995480D01*
X112795671Y-120005970D01*
X112772572Y-120014235D01*
X112748773Y-120020196D01*
X112724505Y-120023796D01*
X112700001Y-120025000D01*
X111799999Y-120025000D01*
X111775495Y-120023796D01*
X111751227Y-120020196D01*
X111727428Y-120014235D01*
X111704329Y-120005970D01*
X111682150Y-119995480D01*
X111661107Y-119982868D01*
X111641401Y-119968253D01*
X111623223Y-119951777D01*
X111606747Y-119933599D01*
X111592132Y-119913893D01*
X111579520Y-119892850D01*
X111569030Y-119870671D01*
X111560765Y-119847572D01*
X111554804Y-119823773D01*
X111551204Y-119799505D01*
X111550000Y-119775001D01*
X111550000Y-119124999D01*
X111551204Y-119100495D01*
X111554804Y-119076227D01*
X111560765Y-119052428D01*
X111569030Y-119029329D01*
X111579520Y-119007150D01*
X111592132Y-118986107D01*
X111606747Y-118966401D01*
X111623223Y-118948223D01*
X111641401Y-118931747D01*
X111661107Y-118917132D01*
X111682150Y-118904520D01*
X111704329Y-118894030D01*
X111727428Y-118885765D01*
X111751227Y-118879804D01*
X111775495Y-118876204D01*
X111799999Y-118875000D01*
X112700001Y-118875000D01*
X112724505Y-118876204D01*
G37*
G36*
X95974505Y-117901204D02*
G01*
X95998773Y-117904804D01*
X96022572Y-117910765D01*
X96045671Y-117919030D01*
X96067850Y-117929520D01*
X96088893Y-117942132D01*
X96108599Y-117956747D01*
X96126777Y-117973223D01*
X96143253Y-117991401D01*
X96157868Y-118011107D01*
X96170480Y-118032150D01*
X96180970Y-118054329D01*
X96189235Y-118077428D01*
X96195196Y-118101227D01*
X96198796Y-118125495D01*
X96200000Y-118149999D01*
X96200000Y-118800001D01*
X96198796Y-118824505D01*
X96195196Y-118848773D01*
X96189235Y-118872572D01*
X96180970Y-118895671D01*
X96170480Y-118917850D01*
X96157868Y-118938893D01*
X96143253Y-118958599D01*
X96126777Y-118976777D01*
X96108599Y-118993253D01*
X96088893Y-119007868D01*
X96067850Y-119020480D01*
X96045671Y-119030970D01*
X96022572Y-119039235D01*
X95998773Y-119045196D01*
X95974505Y-119048796D01*
X95950001Y-119050000D01*
X95049999Y-119050000D01*
X95025495Y-119048796D01*
X95001227Y-119045196D01*
X94977428Y-119039235D01*
X94954329Y-119030970D01*
X94932150Y-119020480D01*
X94911107Y-119007868D01*
X94891401Y-118993253D01*
X94873223Y-118976777D01*
X94856747Y-118958599D01*
X94842132Y-118938893D01*
X94829520Y-118917850D01*
X94819030Y-118895671D01*
X94810765Y-118872572D01*
X94804804Y-118848773D01*
X94801204Y-118824505D01*
X94800000Y-118800001D01*
X94800000Y-118149999D01*
X94801204Y-118125495D01*
X94804804Y-118101227D01*
X94810765Y-118077428D01*
X94819030Y-118054329D01*
X94829520Y-118032150D01*
X94842132Y-118011107D01*
X94856747Y-117991401D01*
X94873223Y-117973223D01*
X94891401Y-117956747D01*
X94911107Y-117942132D01*
X94932150Y-117929520D01*
X94954329Y-117919030D01*
X94977428Y-117910765D01*
X95001227Y-117904804D01*
X95025495Y-117901204D01*
X95049999Y-117900000D01*
X95950001Y-117900000D01*
X95974505Y-117901204D01*
G37*
G36*
X95974505Y-119951204D02*
G01*
X95998773Y-119954804D01*
X96022572Y-119960765D01*
X96045671Y-119969030D01*
X96067850Y-119979520D01*
X96088893Y-119992132D01*
X96108599Y-120006747D01*
X96126777Y-120023223D01*
X96143253Y-120041401D01*
X96157868Y-120061107D01*
X96170480Y-120082150D01*
X96180970Y-120104329D01*
X96189235Y-120127428D01*
X96195196Y-120151227D01*
X96198796Y-120175495D01*
X96200000Y-120199999D01*
X96200000Y-120850001D01*
X96198796Y-120874505D01*
X96195196Y-120898773D01*
X96189235Y-120922572D01*
X96180970Y-120945671D01*
X96170480Y-120967850D01*
X96157868Y-120988893D01*
X96143253Y-121008599D01*
X96126777Y-121026777D01*
X96108599Y-121043253D01*
X96088893Y-121057868D01*
X96067850Y-121070480D01*
X96045671Y-121080970D01*
X96022572Y-121089235D01*
X95998773Y-121095196D01*
X95974505Y-121098796D01*
X95950001Y-121100000D01*
X95049999Y-121100000D01*
X95025495Y-121098796D01*
X95001227Y-121095196D01*
X94977428Y-121089235D01*
X94954329Y-121080970D01*
X94932150Y-121070480D01*
X94911107Y-121057868D01*
X94891401Y-121043253D01*
X94873223Y-121026777D01*
X94856747Y-121008599D01*
X94842132Y-120988893D01*
X94829520Y-120967850D01*
X94819030Y-120945671D01*
X94810765Y-120922572D01*
X94804804Y-120898773D01*
X94801204Y-120874505D01*
X94800000Y-120850001D01*
X94800000Y-120199999D01*
X94801204Y-120175495D01*
X94804804Y-120151227D01*
X94810765Y-120127428D01*
X94819030Y-120104329D01*
X94829520Y-120082150D01*
X94842132Y-120061107D01*
X94856747Y-120041401D01*
X94873223Y-120023223D01*
X94891401Y-120006747D01*
X94911107Y-119992132D01*
X94932150Y-119979520D01*
X94954329Y-119969030D01*
X94977428Y-119960765D01*
X95001227Y-119954804D01*
X95025495Y-119951204D01*
X95049999Y-119950000D01*
X95950001Y-119950000D01*
X95974505Y-119951204D01*
G37*
M02*
