M48
; DRILL file {KiCad (5.1.5)-3} date 07/12/2021 14:42:36
; FORMAT={-:-/ absolute / metric / decimal}
; #@! TF.CreationDate,2021-12-07T14:42:36+01:00
; #@! TF.GenerationSoftware,Kicad,Pcbnew,(5.1.5)-3
; #@! TF.FileFunction,Plated,1,4,PTH
FMAT,2
METRIC
T1C0.400
T2C1.000
T3C1.300
T4C1.500
T5C3.500
%
G90
G05
T1
X60.21Y-75.347
X60.21Y-78.653
X60.21Y-90.364
X60.21Y-93.689
X60.21Y-97.013
X60.21Y-100.338
X60.21Y-103.662
X60.21Y-106.987
X60.21Y-110.311
X60.21Y-113.636
X60.21Y-125.347
X60.21Y-128.653
X60.25Y-60.476
X60.25Y-61.482
X60.25Y-62.488
X60.25Y-63.494
X60.25Y-64.5
X60.25Y-59.471
X60.427Y-58.485
X60.918Y-57.613
X61.21Y-75.347
X61.21Y-78.653
X61.21Y-90.364
X61.21Y-93.689
X61.21Y-97.013
X61.21Y-100.338
X61.21Y-103.662
X61.21Y-106.987
X61.21Y-110.311
X61.21Y-113.636
X61.21Y-125.347
X61.21Y-128.653
X61.617Y-56.89
X62.329Y-56.179
X63.04Y-55.468
X63.25Y-81.5
X63.25Y-87.5
X63.751Y-54.756
X64.5Y-54.088
X65.413Y-53.677
X66.25Y-60.743
X66.25Y-61.995
X66.25Y-63.248
X66.25Y-64.5
X66.411Y-53.58
X67.413Y-59.58
X67.416Y-53.58
X67.75Y-124.316
X67.75Y-125.39
X67.75Y-126.464
X67.75Y-127.537
X67.75Y-128.611
X67.75Y-129.685
X67.845Y-130.75
X67.856Y-81.5
X68.25Y-91.25
X68.266Y-131.682
X68.355Y-87.5
X68.419Y-59.58
X68.422Y-53.58
X68.952Y-132.444
X69.007Y-81.5
X69.25Y-41.5
X69.375Y-87.5
X69.426Y-59.58
X69.428Y-53.58
X69.5Y-91.25
X69.678Y-133.171
X69.858Y-80.649
X70.371Y-117.379
X70.396Y-87.496
X70.405Y-133.897
X70.434Y-54.0
X70.709Y-79.799
X70.75Y-91.25
X71.131Y-134.624
X71.195Y-118.202
X71.388Y-87.276
X71.44Y-54.0
X71.44Y-59.16
X71.44Y-64.66
X71.559Y-78.948
X71.858Y-135.35
X72.018Y-119.026
X72.249Y-86.737
X72.25Y-41.5
X72.25Y-90.75
X72.41Y-64.66
X72.41Y-65.694
X72.41Y-66.727
X72.41Y-67.761
X72.41Y-68.795
X72.41Y-69.828
X72.41Y-70.862
X72.41Y-71.896
X72.41Y-72.929
X72.41Y-73.963
X72.41Y-74.996
X72.41Y-76.03
X72.41Y-77.064
X72.41Y-78.097
X72.529Y-59.16
X72.584Y-136.077
X72.75Y-54.0
X72.842Y-119.849
X72.974Y-86.018
X73.25Y-89.75
X73.311Y-136.803
X73.5Y-120.801
X73.617Y-59.16
X73.696Y-85.296
X73.749Y-121.932
X73.75Y-54.0
X73.75Y-123.069
X73.75Y-124.207
X73.75Y-125.344
X73.75Y-126.482
X73.75Y-127.62
X73.75Y-128.757
X74.152Y-137.384
X74.418Y-84.575
X74.476Y-129.483
X74.706Y-59.16
X74.75Y-54.0
X75.14Y-137.648
X75.14Y-83.853
X75.201Y-130.209
X75.25Y-41.5
X75.75Y-54.0
X75.794Y-59.16
X75.862Y-83.131
X75.927Y-130.934
X76.167Y-137.66
X76.584Y-82.409
X76.653Y-131.66
X76.75Y-54.0
X76.883Y-59.16
X77.194Y-137.66
X77.306Y-81.687
X77.74Y-131.66
X77.75Y-54.0
X77.75Y-54.0
X77.965Y-80.912
X77.971Y-59.16
X78.221Y-137.66
X78.25Y-41.5
X78.343Y-79.969
X78.41Y-64.66
X78.41Y-65.681
X78.41Y-66.702
X78.41Y-67.723
X78.41Y-68.744
X78.41Y-69.765
X78.41Y-70.785
X78.41Y-71.806
X78.41Y-72.827
X78.41Y-73.848
X78.41Y-74.869
X78.41Y-75.89
X78.41Y-76.911
X78.41Y-77.932
X78.41Y-78.953
X78.75Y-54.0
X78.828Y-131.66
X79.06Y-59.16
X79.249Y-137.66
X79.75Y-54.0
X79.915Y-131.66
X80.276Y-137.66
X81.003Y-131.66
X81.25Y-41.5
X81.303Y-137.66
X82.09Y-131.66
X82.25Y-65.056
X82.25Y-68.136
X82.25Y-71.216
X82.25Y-74.296
X82.25Y-77.375
X82.25Y-80.455
X82.25Y-83.535
X82.25Y-86.615
X82.25Y-89.695
X82.25Y-92.775
X82.25Y-95.855
X82.25Y-98.935
X82.25Y-102.015
X82.25Y-105.094
X82.25Y-108.174
X82.25Y-111.254
X82.25Y-114.334
X82.25Y-117.414
X82.331Y-137.66
X83.25Y-66.225
X83.25Y-69.354
X83.25Y-72.483
X83.25Y-75.613
X83.25Y-78.742
X83.25Y-81.872
X83.25Y-85.001
X83.25Y-88.13
X83.25Y-91.26
X83.25Y-94.389
X83.25Y-97.518
X83.25Y-100.648
X83.25Y-103.777
X83.25Y-106.907
X83.25Y-110.036
X83.25Y-116.295
X83.25Y-119.424
X83.358Y-137.66
X84.25Y-41.5
X84.385Y-137.66
X85.413Y-137.66
X86.44Y-137.66
X87.25Y-41.5
X87.25Y-137.5
X90.25Y-41.5
X90.25Y-137.5
X93.25Y-41.5
X93.25Y-137.5
X96.25Y-41.5
X96.25Y-137.5
X98.67Y-49.42
X98.67Y-52.497
X98.67Y-55.574
X98.67Y-59.0
X98.67Y-61.728
X98.67Y-64.805
X98.67Y-67.882
X98.67Y-70.958
X98.67Y-74.035
X98.67Y-77.112
X98.67Y-80.189
X98.67Y-83.266
X98.67Y-86.343
X98.67Y-89.42
X98.67Y-92.497
X98.67Y-95.574
X98.67Y-98.651
X98.67Y-101.728
X98.67Y-104.805
X98.67Y-107.882
X98.67Y-110.958
X98.67Y-114.035
X98.67Y-117.112
X98.67Y-120.189
X98.67Y-123.266
X98.67Y-129.42
X99.25Y-41.5
X99.25Y-137.5
X99.67Y-49.42
X99.67Y-52.497
X99.67Y-55.574
X99.67Y-59.0
X99.67Y-61.728
X99.67Y-64.805
X99.67Y-70.958
X99.67Y-74.035
X99.67Y-77.112
X99.67Y-80.189
X99.67Y-83.266
X99.67Y-86.343
X99.67Y-89.42
X99.67Y-92.497
X99.67Y-95.574
X99.67Y-98.651
X99.67Y-101.728
X99.67Y-104.805
X99.67Y-107.882
X99.67Y-110.958
X99.67Y-114.035
X99.67Y-117.112
X99.67Y-120.189
X99.67Y-123.266
X99.67Y-129.42
X102.25Y-41.5
X102.25Y-137.5
X105.25Y-41.5
X105.25Y-137.5
X108.25Y-41.5
X108.25Y-137.5
X111.25Y-41.5
X111.25Y-137.5
X114.25Y-41.5
X114.25Y-137.5
X115.83Y-49.42
X115.83Y-52.487
X115.83Y-55.555
X115.83Y-59.0
X115.83Y-61.689
X115.83Y-64.757
X115.83Y-67.824
X115.83Y-70.891
X115.83Y-73.958
X115.83Y-77.026
X115.83Y-80.093
X115.83Y-83.16
X115.83Y-86.228
X115.83Y-89.295
X115.83Y-92.362
X115.83Y-95.43
X115.83Y-98.497
X115.83Y-101.564
X115.83Y-104.632
X115.83Y-107.699
X115.83Y-110.766
X115.83Y-113.833
X115.83Y-116.901
X115.83Y-119.968
X115.83Y-123.035
X115.83Y-129.17
X116.83Y-49.42
X116.83Y-52.487
X116.83Y-55.555
X116.83Y-59.0
X116.83Y-61.689
X116.83Y-64.757
X116.83Y-70.891
X116.83Y-73.958
X116.83Y-77.026
X116.83Y-80.093
X116.83Y-83.16
X116.83Y-86.228
X116.83Y-89.295
X116.83Y-92.362
X116.83Y-95.43
X116.83Y-98.497
X116.83Y-101.564
X116.83Y-104.632
X116.83Y-107.699
X116.83Y-110.766
X116.83Y-113.833
X116.83Y-116.901
X116.83Y-119.968
X116.83Y-123.035
X116.83Y-129.17
X117.25Y-41.5
X117.25Y-137.5
X120.25Y-41.5
X120.25Y-137.5
X123.25Y-41.5
X123.25Y-137.5
X126.25Y-41.5
X126.25Y-137.5
X129.25Y-41.5
X129.25Y-137.5
X132.25Y-41.5
X132.25Y-137.5
X133.17Y-49.42
X133.17Y-52.497
X133.17Y-55.574
X133.17Y-59.0
X133.17Y-61.728
X133.17Y-64.805
X133.17Y-86.343
X133.17Y-89.42
X133.17Y-92.497
X133.17Y-95.574
X133.17Y-98.651
X133.17Y-101.728
X133.17Y-104.805
X133.17Y-107.882
X133.17Y-110.958
X133.17Y-114.035
X133.17Y-117.112
X133.17Y-120.189
X133.17Y-123.266
X133.17Y-129.42
X133.67Y-68.23
X133.67Y-73.17
X133.67Y-73.17
X133.67Y-80.67
X134.17Y-49.42
X134.17Y-52.497
X134.17Y-55.574
X134.17Y-59.0
X134.17Y-61.728
X134.17Y-64.805
X134.17Y-86.343
X134.17Y-89.42
X134.17Y-92.497
X134.17Y-95.574
X134.17Y-98.651
X134.17Y-101.728
X134.17Y-104.805
X134.17Y-107.882
X134.17Y-110.958
X134.17Y-114.035
X134.17Y-117.112
X134.17Y-120.189
X134.17Y-123.266
X134.17Y-129.42
X135.25Y-41.5
X135.25Y-137.5
X138.25Y-41.5
X138.25Y-137.5
X141.25Y-41.5
X141.25Y-137.5
X144.25Y-41.5
X144.25Y-137.5
X147.25Y-41.5
X147.25Y-137.5
X150.08Y-49.42
X150.08Y-52.486
X150.08Y-55.553
X150.08Y-58.619
X150.08Y-61.686
X150.08Y-64.752
X150.08Y-70.885
X150.08Y-73.951
X150.08Y-77.018
X150.08Y-80.084
X150.08Y-83.15
X150.08Y-86.217
X150.08Y-89.283
X150.08Y-92.35
X150.08Y-95.416
X150.08Y-98.482
X150.08Y-101.549
X150.08Y-104.615
X150.08Y-107.682
X150.08Y-110.748
X150.08Y-113.814
X150.08Y-116.881
X150.08Y-119.947
X150.08Y-123.014
X150.08Y-126.08
X150.25Y-41.5
X150.25Y-137.5
X151.08Y-49.42
X151.08Y-52.486
X151.08Y-55.553
X151.08Y-58.619
X151.08Y-61.686
X151.08Y-64.752
X151.08Y-70.885
X151.08Y-73.951
X151.08Y-77.018
X151.08Y-80.084
X151.08Y-83.15
X151.08Y-86.217
X151.08Y-89.283
X151.08Y-92.35
X151.08Y-95.416
X151.08Y-98.482
X151.08Y-101.549
X151.08Y-104.615
X151.08Y-107.682
X151.08Y-110.748
X151.08Y-113.814
X151.08Y-116.881
X151.08Y-119.947
X151.08Y-123.014
X151.08Y-126.08
X153.25Y-41.5
X153.25Y-137.5
X156.25Y-41.5
X156.25Y-137.5
X159.25Y-41.5
X159.25Y-137.5
X162.25Y-41.5
X162.25Y-137.5
X165.25Y-41.5
X165.25Y-137.5
X166.67Y-49.42
X166.67Y-52.493
X166.67Y-55.567
X166.67Y-58.64
X166.67Y-61.714
X166.67Y-64.787
X166.67Y-67.861
X166.67Y-70.934
X166.67Y-74.008
X166.67Y-77.081
X166.67Y-80.155
X166.67Y-83.228
X166.67Y-86.302
X166.67Y-89.375
X166.67Y-92.448
X166.67Y-95.522
X166.67Y-98.595
X166.67Y-101.669
X166.67Y-104.742
X166.67Y-107.816
X166.67Y-110.889
X166.67Y-113.963
X166.67Y-117.036
X166.67Y-120.11
X166.67Y-123.183
X166.67Y-126.257
X166.67Y-129.33
X167.67Y-49.42
X167.67Y-52.493
X167.67Y-55.567
X167.67Y-58.64
X167.67Y-61.714
X167.67Y-64.787
X167.67Y-70.934
X167.67Y-74.008
X167.67Y-77.081
X167.67Y-80.155
X167.67Y-83.228
X167.67Y-86.302
X167.67Y-89.375
X167.67Y-92.448
X167.67Y-95.522
X167.67Y-98.595
X167.67Y-101.669
X167.67Y-104.742
X167.67Y-107.816
X167.67Y-110.889
X167.67Y-113.963
X167.67Y-117.036
X167.67Y-120.11
X167.67Y-123.183
X167.67Y-126.257
X167.67Y-129.33
X168.25Y-41.5
X168.25Y-137.5
X171.25Y-41.5
X171.25Y-137.5
X174.25Y-41.5
X174.25Y-137.5
X177.25Y-41.5
X177.25Y-137.5
X180.25Y-41.5
X180.25Y-137.5
X183.25Y-41.5
X183.25Y-137.5
X183.67Y-49.42
X183.67Y-52.474
X183.67Y-55.528
X183.67Y-58.583
X183.67Y-61.637
X183.67Y-64.691
X183.67Y-67.745
X183.67Y-70.8
X183.67Y-73.854
X183.67Y-76.908
X183.67Y-79.962
X183.67Y-83.017
X183.67Y-86.071
X183.67Y-89.125
X183.67Y-92.179
X183.67Y-95.233
X183.67Y-98.288
X183.67Y-101.342
X183.67Y-104.396
X183.67Y-107.45
X183.67Y-110.505
X183.67Y-113.559
X183.67Y-116.613
X183.67Y-119.667
X183.67Y-122.722
X183.67Y-125.776
X183.67Y-128.83
X184.67Y-49.42
X184.67Y-52.474
X184.67Y-55.528
X184.67Y-58.583
X184.67Y-61.637
X184.67Y-64.691
X184.67Y-70.8
X184.67Y-73.854
X184.67Y-76.908
X184.67Y-79.962
X184.67Y-83.017
X184.67Y-86.071
X184.67Y-89.125
X184.67Y-92.179
X184.67Y-95.233
X184.67Y-98.288
X184.67Y-101.342
X184.67Y-104.396
X184.67Y-107.45
X184.67Y-110.505
X184.67Y-113.559
X184.67Y-116.613
X184.67Y-119.667
X184.67Y-122.722
X184.67Y-125.776
X184.67Y-128.83
X186.25Y-41.5
X186.25Y-137.5
X189.25Y-41.5
X189.25Y-137.5
X192.25Y-41.5
X192.25Y-137.5
X195.25Y-41.5
X195.25Y-137.5
X197.888Y-51.955
X197.888Y-127.045
X198.25Y-41.5
X198.25Y-137.5
X198.598Y-51.251
X200.069Y-54.136
X200.782Y-53.435
X200.782Y-125.565
X202.25Y-56.317
X202.25Y-59.334
X202.25Y-62.35
X202.25Y-65.367
X202.25Y-68.384
X202.25Y-71.4
X202.25Y-74.417
X202.25Y-77.433
X202.25Y-80.45
X202.25Y-83.467
X202.25Y-86.483
X202.25Y-89.5
X202.25Y-92.517
X202.25Y-95.533
X202.25Y-98.55
X202.25Y-101.567
X202.25Y-104.583
X202.25Y-107.6
X202.25Y-110.616
X202.25Y-113.633
X202.25Y-116.65
X202.25Y-119.666
X202.25Y-122.683
X202.966Y-55.619
X202.966Y-123.381
X203.25Y-58.612
X203.25Y-61.7
X203.25Y-64.789
X203.25Y-67.878
X203.25Y-70.967
X203.25Y-74.056
X203.25Y-77.145
X203.25Y-80.233
X203.25Y-83.322
X203.25Y-86.411
X203.25Y-89.5
X203.25Y-92.589
X203.25Y-95.678
X203.25Y-98.767
X203.25Y-101.855
X203.25Y-104.944
X203.25Y-108.033
X203.25Y-111.122
X203.25Y-114.211
X203.25Y-117.3
X203.25Y-120.388
X206.25Y-49.5
X206.25Y-52.5
X206.25Y-55.5
X206.25Y-58.5
X206.25Y-61.5
X206.25Y-64.5
X206.25Y-67.5
X206.25Y-70.5
X206.25Y-73.5
X206.25Y-76.5
X206.25Y-79.5
X206.25Y-82.5
X206.25Y-85.5
X206.25Y-88.5
X206.25Y-91.5
X206.25Y-94.5
X206.25Y-97.5
X206.25Y-100.5
X206.25Y-103.5
X206.25Y-106.5
X206.25Y-109.5
X206.25Y-112.5
X206.25Y-115.5
X206.25Y-118.5
X206.25Y-121.5
X206.25Y-124.5
X206.25Y-127.5
X206.25Y-130.5
T2
X137.44Y-44.34
X137.44Y-49.42
X137.44Y-54.5
X137.44Y-62.12
X145.06Y-44.34
X145.06Y-49.42
X145.06Y-54.5
X145.06Y-62.12
X86.44Y-116.88
X86.44Y-124.5
X86.44Y-129.58
X86.44Y-134.66
X94.06Y-116.88
X94.06Y-124.5
X94.06Y-129.58
X94.06Y-134.66
X171.44Y-116.88
X171.44Y-124.5
X171.44Y-129.58
X171.44Y-134.66
X179.06Y-116.88
X179.06Y-124.5
X179.06Y-129.58
X179.06Y-134.66
X71.44Y-43.88
X71.44Y-51.5
X71.44Y-56.58
X71.44Y-61.66
X79.06Y-43.88
X79.06Y-51.5
X79.06Y-56.58
X79.06Y-61.66
X188.44Y-116.88
X188.44Y-124.5
X188.44Y-129.58
X188.44Y-134.66
X196.06Y-116.88
X196.06Y-124.5
X196.06Y-129.58
X196.06Y-134.66
X86.44Y-44.34
X86.44Y-49.42
X86.44Y-54.5
X86.44Y-62.12
X94.06Y-44.34
X94.06Y-49.42
X94.06Y-54.5
X94.06Y-62.12
X154.44Y-116.88
X154.44Y-124.5
X154.44Y-129.58
X154.44Y-134.66
X162.06Y-116.88
X162.06Y-124.5
X162.06Y-129.58
X162.06Y-134.66
X103.44Y-116.88
X103.44Y-124.5
X103.44Y-129.58
X103.44Y-134.66
X111.06Y-116.88
X111.06Y-124.5
X111.06Y-129.58
X111.06Y-134.66
X120.44Y-116.88
X120.44Y-124.5
X120.44Y-129.58
X120.44Y-134.66
X128.06Y-116.88
X128.06Y-124.5
X128.06Y-129.58
X128.06Y-134.66
X120.44Y-44.34
X120.44Y-49.42
X120.44Y-54.5
X120.44Y-62.12
X128.06Y-44.34
X128.06Y-49.42
X128.06Y-54.5
X128.06Y-62.12
X103.44Y-44.34
X103.44Y-49.42
X103.44Y-54.5
X103.44Y-62.12
X111.06Y-44.34
X111.06Y-49.42
X111.06Y-54.5
X111.06Y-62.12
X188.44Y-44.34
X188.44Y-49.42
X188.44Y-54.5
X188.44Y-62.12
X196.06Y-44.34
X196.06Y-49.42
X196.06Y-54.5
X196.06Y-62.12
X137.44Y-116.88
X137.44Y-124.5
X137.44Y-129.58
X137.44Y-134.66
X145.06Y-116.88
X145.06Y-124.5
X145.06Y-129.58
X145.06Y-134.66
X171.44Y-44.34
X171.44Y-49.42
X171.44Y-54.5
X171.44Y-62.12
X179.06Y-44.34
X179.06Y-49.42
X179.06Y-54.5
X179.06Y-62.12
X154.44Y-44.34
X154.44Y-49.42
X154.44Y-54.5
X154.44Y-62.12
X162.06Y-44.34
X162.06Y-49.42
X162.06Y-54.5
X162.06Y-62.12
X65.75Y-96.96
X65.75Y-99.5
X65.75Y-102.04
X65.75Y-104.58
X65.75Y-107.12
X68.29Y-96.96
X68.29Y-99.5
X68.29Y-102.04
X68.29Y-104.58
X68.29Y-107.12
T3
X60.71Y-81.96
X60.71Y-87.04
X63.25Y-84.5
X65.79Y-81.96
X65.79Y-87.04
X60.71Y-66.96
X60.71Y-72.04
X63.25Y-69.5
X65.79Y-66.96
X65.79Y-72.04
X60.71Y-116.96
X60.71Y-122.04
X63.25Y-119.5
X65.79Y-116.96
X65.79Y-122.04
T4
X121.71Y-109.54
X125.52Y-104.46
X87.71Y-109.54
X91.52Y-104.46
X155.71Y-109.54
X159.52Y-104.46
X104.71Y-109.54
X108.52Y-104.46
X87.71Y-74.54
X91.52Y-69.46
X138.71Y-89.23
X143.79Y-93.04
X189.71Y-109.54
X193.52Y-104.46
X189.71Y-74.54
X193.52Y-69.46
X104.71Y-74.54
X108.52Y-69.46
X87.71Y-88.23
X92.79Y-92.04
X138.71Y-75.04
X142.52Y-69.96
X121.71Y-74.54
X125.52Y-69.46
X138.71Y-109.54
X142.52Y-104.46
X155.71Y-74.54
X159.52Y-69.46
X172.71Y-109.54
X176.52Y-104.46
X172.71Y-74.54
X176.52Y-69.46
T5
X203.25Y-134.5
X203.25Y-44.5
X63.25Y-44.5
X63.25Y-134.5
T0
M30
