G04 #@! TF.FileFunction,Legend,Top*
%FSLAX46Y46*%
G04 Gerber Fmt 4.6, Leading zero omitted, Abs format (unit mm)*
G04 Created by KiCad (PCBNEW 4.0.7) date 07/05/18 17:57:39*
%MOMM*%
%LPD*%
G01*
G04 APERTURE LIST*
%ADD10C,0.100000*%
%ADD11C,0.300000*%
%ADD12C,0.250000*%
%ADD13C,0.150000*%
%ADD14C,0.120000*%
%ADD15C,0.099060*%
%ADD16C,0.381000*%
%ADD17C,0.125000*%
G04 APERTURE END LIST*
D10*
D11*
X132750000Y-125178571D02*
X132464286Y-125178571D01*
X132321429Y-125250000D01*
X132250000Y-125321429D01*
X132107143Y-125535714D01*
X132035714Y-125821429D01*
X132035714Y-126392857D01*
X132107143Y-126535714D01*
X132178571Y-126607143D01*
X132321429Y-126678571D01*
X132607143Y-126678571D01*
X132750000Y-126607143D01*
X132821429Y-126535714D01*
X132892857Y-126392857D01*
X132892857Y-126035714D01*
X132821429Y-125892857D01*
X132750000Y-125821429D01*
X132607143Y-125750000D01*
X132321429Y-125750000D01*
X132178571Y-125821429D01*
X132107143Y-125892857D01*
X132035714Y-126035714D01*
X134178571Y-125678571D02*
X134178571Y-126678571D01*
X133821428Y-125107143D02*
X133464285Y-126178571D01*
X134392857Y-126178571D01*
X136107142Y-126678571D02*
X136107142Y-125178571D01*
X136607142Y-126250000D01*
X137107142Y-125178571D01*
X137107142Y-126678571D01*
X137821428Y-126678571D02*
X137821428Y-125178571D01*
X137821428Y-125892857D02*
X138678571Y-125892857D01*
X138678571Y-126678571D02*
X138678571Y-125178571D01*
X139250000Y-125678571D02*
X140035714Y-125678571D01*
X139250000Y-126678571D01*
X140035714Y-126678571D01*
X99035714Y-108321429D02*
X99107143Y-108250000D01*
X99250000Y-108178571D01*
X99607143Y-108178571D01*
X99750000Y-108250000D01*
X99821429Y-108321429D01*
X99892857Y-108464286D01*
X99892857Y-108607143D01*
X99821429Y-108821429D01*
X98964286Y-109678571D01*
X99892857Y-109678571D01*
X101250000Y-108178571D02*
X100535714Y-108178571D01*
X100464285Y-108892857D01*
X100535714Y-108821429D01*
X100678571Y-108750000D01*
X101035714Y-108750000D01*
X101178571Y-108821429D01*
X101250000Y-108892857D01*
X101321428Y-109035714D01*
X101321428Y-109392857D01*
X101250000Y-109535714D01*
X101178571Y-109607143D01*
X101035714Y-109678571D01*
X100678571Y-109678571D01*
X100535714Y-109607143D01*
X100464285Y-109535714D01*
X103107142Y-109678571D02*
X103107142Y-108178571D01*
X103607142Y-109250000D01*
X104107142Y-108178571D01*
X104107142Y-109678571D01*
X104821428Y-109678571D02*
X104821428Y-108178571D01*
X104821428Y-108892857D02*
X105678571Y-108892857D01*
X105678571Y-109678571D02*
X105678571Y-108178571D01*
X106250000Y-108678571D02*
X107035714Y-108678571D01*
X106250000Y-109678571D01*
X107035714Y-109678571D01*
X99035714Y-97321429D02*
X99107143Y-97250000D01*
X99250000Y-97178571D01*
X99607143Y-97178571D01*
X99750000Y-97250000D01*
X99821429Y-97321429D01*
X99892857Y-97464286D01*
X99892857Y-97607143D01*
X99821429Y-97821429D01*
X98964286Y-98678571D01*
X99892857Y-98678571D01*
X100821428Y-97178571D02*
X100964285Y-97178571D01*
X101107142Y-97250000D01*
X101178571Y-97321429D01*
X101250000Y-97464286D01*
X101321428Y-97750000D01*
X101321428Y-98107143D01*
X101250000Y-98392857D01*
X101178571Y-98535714D01*
X101107142Y-98607143D01*
X100964285Y-98678571D01*
X100821428Y-98678571D01*
X100678571Y-98607143D01*
X100607142Y-98535714D01*
X100535714Y-98392857D01*
X100464285Y-98107143D01*
X100464285Y-97750000D01*
X100535714Y-97464286D01*
X100607142Y-97321429D01*
X100678571Y-97250000D01*
X100821428Y-97178571D01*
X103107142Y-98678571D02*
X103107142Y-97178571D01*
X103607142Y-98250000D01*
X104107142Y-97178571D01*
X104107142Y-98678571D01*
X104821428Y-98678571D02*
X104821428Y-97178571D01*
X104821428Y-97892857D02*
X105678571Y-97892857D01*
X105678571Y-98678571D02*
X105678571Y-97178571D01*
X106250000Y-97678571D02*
X107035714Y-97678571D01*
X106250000Y-98678571D01*
X107035714Y-98678571D01*
X101464286Y-64678571D02*
X101464286Y-65678571D01*
X101107143Y-64107143D02*
X100750000Y-65178571D01*
X101678572Y-65178571D01*
X103392857Y-65678571D02*
X103392857Y-64178571D01*
X103892857Y-65250000D01*
X104392857Y-64178571D01*
X104392857Y-65678571D01*
X105107143Y-65678571D02*
X105107143Y-64178571D01*
X105107143Y-64892857D02*
X105964286Y-64892857D01*
X105964286Y-65678571D02*
X105964286Y-64178571D01*
X106535715Y-64678571D02*
X107321429Y-64678571D01*
X106535715Y-65678571D01*
X107321429Y-65678571D01*
X108892857Y-90678571D02*
X108035714Y-90678571D01*
X108464286Y-90678571D02*
X108464286Y-89178571D01*
X108321429Y-89392857D01*
X108178571Y-89535714D01*
X108035714Y-89607143D01*
X110178571Y-89678571D02*
X110178571Y-90678571D01*
X109821428Y-89107143D02*
X109464285Y-90178571D01*
X110392857Y-90178571D01*
X112107142Y-90678571D02*
X112107142Y-89178571D01*
X112607142Y-90250000D01*
X113107142Y-89178571D01*
X113107142Y-90678571D01*
X113821428Y-90678571D02*
X113821428Y-89178571D01*
X113821428Y-89892857D02*
X114678571Y-89892857D01*
X114678571Y-90678571D02*
X114678571Y-89178571D01*
X115250000Y-89678571D02*
X116035714Y-89678571D01*
X115250000Y-90678571D01*
X116035714Y-90678571D01*
X100678572Y-75178571D02*
X101678572Y-75178571D01*
X101035715Y-76678571D01*
X103392857Y-76678571D02*
X103392857Y-75178571D01*
X103892857Y-76250000D01*
X104392857Y-75178571D01*
X104392857Y-76678571D01*
X105107143Y-76678571D02*
X105107143Y-75178571D01*
X105107143Y-75892857D02*
X105964286Y-75892857D01*
X105964286Y-76678571D02*
X105964286Y-75178571D01*
X106535715Y-75678571D02*
X107321429Y-75678571D01*
X106535715Y-76678571D01*
X107321429Y-76678571D01*
X98535714Y-56678571D02*
X97678571Y-56678571D01*
X98107143Y-56678571D02*
X98107143Y-55178571D01*
X97964286Y-55392857D01*
X97821428Y-55535714D01*
X97678571Y-55607143D01*
X99178571Y-56535714D02*
X99249999Y-56607143D01*
X99178571Y-56678571D01*
X99107142Y-56607143D01*
X99178571Y-56535714D01*
X99178571Y-56678571D01*
X100607143Y-55178571D02*
X99892857Y-55178571D01*
X99821428Y-55892857D01*
X99892857Y-55821429D01*
X100035714Y-55750000D01*
X100392857Y-55750000D01*
X100535714Y-55821429D01*
X100607143Y-55892857D01*
X100678571Y-56035714D01*
X100678571Y-56392857D01*
X100607143Y-56535714D01*
X100535714Y-56607143D01*
X100392857Y-56678571D01*
X100035714Y-56678571D01*
X99892857Y-56607143D01*
X99821428Y-56535714D01*
X102464285Y-56678571D02*
X102464285Y-55178571D01*
X102964285Y-56250000D01*
X103464285Y-55178571D01*
X103464285Y-56678571D01*
X104178571Y-56678571D02*
X104178571Y-55178571D01*
X104178571Y-55892857D02*
X105035714Y-55892857D01*
X105035714Y-56678571D02*
X105035714Y-55178571D01*
X105607143Y-55678571D02*
X106392857Y-55678571D01*
X105607143Y-56678571D01*
X106392857Y-56678571D01*
X98142858Y-132117857D02*
X97642858Y-132117857D01*
X97642858Y-132903571D02*
X97642858Y-131403571D01*
X98357144Y-131403571D01*
X98928572Y-132903571D02*
X98928572Y-131903571D01*
X98928572Y-132189286D02*
X99000000Y-132046429D01*
X99071429Y-131975000D01*
X99214286Y-131903571D01*
X99357143Y-131903571D01*
X100071429Y-132903571D02*
X99928571Y-132832143D01*
X99857143Y-132760714D01*
X99785714Y-132617857D01*
X99785714Y-132189286D01*
X99857143Y-132046429D01*
X99928571Y-131975000D01*
X100071429Y-131903571D01*
X100285714Y-131903571D01*
X100428571Y-131975000D01*
X100500000Y-132046429D01*
X100571429Y-132189286D01*
X100571429Y-132617857D01*
X100500000Y-132760714D01*
X100428571Y-132832143D01*
X100285714Y-132903571D01*
X100071429Y-132903571D01*
X101214286Y-132903571D02*
X101214286Y-131903571D01*
X101214286Y-132046429D02*
X101285714Y-131975000D01*
X101428572Y-131903571D01*
X101642857Y-131903571D01*
X101785714Y-131975000D01*
X101857143Y-132117857D01*
X101857143Y-132903571D01*
X101857143Y-132117857D02*
X101928572Y-131975000D01*
X102071429Y-131903571D01*
X102285714Y-131903571D01*
X102428572Y-131975000D01*
X102500000Y-132117857D01*
X102500000Y-132903571D01*
X104357143Y-132903571D02*
X104357143Y-131403571D01*
X104928571Y-131403571D01*
X105071429Y-131475000D01*
X105142857Y-131546429D01*
X105214286Y-131689286D01*
X105214286Y-131903571D01*
X105142857Y-132046429D01*
X105071429Y-132117857D01*
X104928571Y-132189286D01*
X104357143Y-132189286D01*
X105857143Y-132760714D02*
X105928571Y-132832143D01*
X105857143Y-132903571D01*
X105785714Y-132832143D01*
X105857143Y-132760714D01*
X105857143Y-132903571D01*
X106500000Y-132475000D02*
X107214286Y-132475000D01*
X106357143Y-132903571D02*
X106857143Y-131403571D01*
X107357143Y-132903571D01*
X107857143Y-132760714D02*
X107928571Y-132832143D01*
X107857143Y-132903571D01*
X107785714Y-132832143D01*
X107857143Y-132760714D01*
X107857143Y-132903571D01*
X99714285Y-133953571D02*
X99999999Y-133953571D01*
X100142857Y-134025000D01*
X100285714Y-134167857D01*
X100357142Y-134453571D01*
X100357142Y-134953571D01*
X100285714Y-135239286D01*
X100142857Y-135382143D01*
X99999999Y-135453571D01*
X99714285Y-135453571D01*
X99571428Y-135382143D01*
X99428571Y-135239286D01*
X99357142Y-134953571D01*
X99357142Y-134453571D01*
X99428571Y-134167857D01*
X99571428Y-134025000D01*
X99714285Y-133953571D01*
X101642857Y-134453571D02*
X101642857Y-135453571D01*
X101000000Y-134453571D02*
X101000000Y-135239286D01*
X101071428Y-135382143D01*
X101214286Y-135453571D01*
X101428571Y-135453571D01*
X101571428Y-135382143D01*
X101642857Y-135310714D01*
X102142857Y-134453571D02*
X102714286Y-134453571D01*
X102357143Y-133953571D02*
X102357143Y-135239286D01*
X102428571Y-135382143D01*
X102571429Y-135453571D01*
X102714286Y-135453571D01*
X103214286Y-134453571D02*
X103214286Y-135953571D01*
X103214286Y-134525000D02*
X103357143Y-134453571D01*
X103642857Y-134453571D01*
X103785714Y-134525000D01*
X103857143Y-134596429D01*
X103928572Y-134739286D01*
X103928572Y-135167857D01*
X103857143Y-135310714D01*
X103785714Y-135382143D01*
X103642857Y-135453571D01*
X103357143Y-135453571D01*
X103214286Y-135382143D01*
X105214286Y-134453571D02*
X105214286Y-135453571D01*
X104571429Y-134453571D02*
X104571429Y-135239286D01*
X104642857Y-135382143D01*
X104785715Y-135453571D01*
X105000000Y-135453571D01*
X105142857Y-135382143D01*
X105214286Y-135310714D01*
X105714286Y-134453571D02*
X106285715Y-134453571D01*
X105928572Y-133953571D02*
X105928572Y-135239286D01*
X106000000Y-135382143D01*
X106142858Y-135453571D01*
X106285715Y-135453571D01*
X96285715Y-115750000D02*
X97000001Y-115750000D01*
X96142858Y-116178571D02*
X96642858Y-114678571D01*
X97142858Y-116178571D01*
X96071430Y-114821429D02*
X96142858Y-114821429D01*
X96214287Y-114750000D01*
X96214287Y-114607143D01*
X97857144Y-115178571D02*
X97500001Y-116178571D01*
X97500001Y-114678571D02*
X97642858Y-114678571D01*
X97714286Y-114750000D01*
X97857144Y-115178571D01*
X98214286Y-116178571D01*
X98928572Y-115678571D02*
X98785715Y-115750000D01*
X98714286Y-115892857D01*
X98714286Y-115964286D01*
X98785715Y-116107143D01*
X98928572Y-116178571D01*
X99214286Y-116178571D01*
X99357143Y-116107143D01*
X99071429Y-115678571D02*
X98928572Y-115678571D01*
X98785715Y-115607143D01*
X98714286Y-115464286D01*
X98714286Y-115392857D01*
X98785715Y-115250000D01*
X98928572Y-115178571D01*
X99214286Y-115178571D01*
X99357143Y-115250000D01*
X100000001Y-114678571D02*
X100714287Y-114678571D01*
X100285715Y-114678571D02*
X100142858Y-114750000D01*
X100071429Y-114892857D01*
X100071429Y-115107143D01*
X100142858Y-115250000D01*
X100285715Y-115321429D01*
X100571429Y-115321429D01*
X100285715Y-115321429D02*
X100142858Y-115392857D01*
X100071429Y-115464286D01*
X100000001Y-115607143D01*
X100000001Y-115892857D01*
X100071429Y-116035714D01*
X100142858Y-116107143D01*
X100285715Y-116178571D01*
X100428572Y-116178571D01*
X100571429Y-116250000D01*
X100642858Y-116392857D01*
X100642858Y-116464286D01*
X100571429Y-116607143D01*
X100428572Y-116678571D01*
X100357144Y-116678571D01*
X101285715Y-115178571D02*
X101285715Y-115964286D01*
X101357143Y-116107143D01*
X101500001Y-116178571D01*
X102928572Y-115178571D02*
X102714286Y-115892857D01*
X102642857Y-116035714D01*
X102571429Y-116107143D01*
X102428572Y-116178571D01*
X102285715Y-116178571D01*
X102142857Y-116107143D01*
X102071429Y-116035714D01*
X102000000Y-115821429D01*
X102000000Y-115535714D01*
X102071429Y-115321429D01*
X102142857Y-115250000D01*
X102285715Y-115178571D01*
X102428572Y-115178571D01*
X102571429Y-115250000D01*
X102642857Y-115321429D01*
X102714286Y-115464286D01*
X102785715Y-115964286D01*
X102857143Y-116107143D01*
X103000000Y-116178571D01*
X102571429Y-114607143D02*
X102357143Y-114821429D01*
X103571429Y-116678571D02*
X103571429Y-115464286D01*
X103642857Y-115321429D01*
X103714286Y-115250000D01*
X103857143Y-115178571D01*
X104071429Y-115178571D01*
X104214286Y-115250000D01*
X104285715Y-115321429D01*
X104357143Y-115464286D01*
X104357143Y-115892857D01*
X104285715Y-116035714D01*
X104214286Y-116107143D01*
X104071429Y-116178571D01*
X103857143Y-116178571D01*
X103714286Y-116107143D01*
X103571429Y-115964286D01*
X105000000Y-115178571D02*
X105000000Y-116178571D01*
X105000000Y-115321429D02*
X105071428Y-115250000D01*
X105214286Y-115178571D01*
X105428571Y-115178571D01*
X105571428Y-115250000D01*
X105642857Y-115392857D01*
X105642857Y-116678571D01*
X107000000Y-115250000D02*
X106857143Y-115178571D01*
X106571429Y-115178571D01*
X106428571Y-115250000D01*
X106357143Y-115321429D01*
X106285714Y-115464286D01*
X106285714Y-115892857D01*
X106357143Y-116035714D01*
X106428571Y-116107143D01*
X106571429Y-116178571D01*
X106785714Y-116178571D01*
X106928571Y-116250000D01*
X107000000Y-116392857D01*
X107000000Y-116464286D01*
X106928571Y-116607143D01*
X106785714Y-116678571D01*
X73678572Y-115750000D02*
X74392858Y-115750000D01*
X73535715Y-116178571D02*
X74035715Y-114678571D01*
X74535715Y-116178571D01*
X75250001Y-116178571D02*
X75107143Y-116107143D01*
X75035715Y-115964286D01*
X75035715Y-114678571D01*
X76392857Y-116107143D02*
X76250000Y-116178571D01*
X75964286Y-116178571D01*
X75821429Y-116107143D01*
X75750000Y-115964286D01*
X75750000Y-115392857D01*
X75821429Y-115250000D01*
X75964286Y-115178571D01*
X76250000Y-115178571D01*
X76392857Y-115250000D01*
X76464286Y-115392857D01*
X76464286Y-115535714D01*
X75750000Y-115678571D01*
X76964286Y-116178571D02*
X77750000Y-115178571D01*
X76964286Y-115178571D02*
X77750000Y-116178571D01*
X78321429Y-116178571D02*
X78321429Y-115178571D01*
X78321429Y-114678571D02*
X78250000Y-114750000D01*
X78321429Y-114821429D01*
X78392857Y-114750000D01*
X78321429Y-114678571D01*
X78321429Y-114821429D01*
X79678572Y-116178571D02*
X79678572Y-115392857D01*
X79607143Y-115250000D01*
X79464286Y-115178571D01*
X79178572Y-115178571D01*
X79035715Y-115250000D01*
X79678572Y-116107143D02*
X79535715Y-116178571D01*
X79178572Y-116178571D01*
X79035715Y-116107143D01*
X78964286Y-115964286D01*
X78964286Y-115821429D01*
X79035715Y-115678571D01*
X79178572Y-115607143D01*
X79535715Y-115607143D01*
X79678572Y-115535714D01*
X80392858Y-116178571D02*
X80392858Y-115178571D01*
X80392858Y-115464286D02*
X80464286Y-115321429D01*
X80535715Y-115250000D01*
X80678572Y-115178571D01*
X80821429Y-115178571D01*
X81892857Y-116107143D02*
X81750000Y-116178571D01*
X81464286Y-116178571D01*
X81321429Y-116107143D01*
X81250000Y-115964286D01*
X81250000Y-115392857D01*
X81321429Y-115250000D01*
X81464286Y-115178571D01*
X81750000Y-115178571D01*
X81892857Y-115250000D01*
X81964286Y-115392857D01*
X81964286Y-115535714D01*
X81250000Y-115678571D01*
X82535714Y-116107143D02*
X82678571Y-116178571D01*
X82964286Y-116178571D01*
X83107143Y-116107143D01*
X83178571Y-115964286D01*
X83178571Y-115892857D01*
X83107143Y-115750000D01*
X82964286Y-115678571D01*
X82750000Y-115678571D01*
X82607143Y-115607143D01*
X82535714Y-115464286D01*
X82535714Y-115392857D01*
X82607143Y-115250000D01*
X82750000Y-115178571D01*
X82964286Y-115178571D01*
X83107143Y-115250000D01*
X85678572Y-116178571D02*
X84964286Y-116178571D01*
X84964286Y-114678571D01*
X86178572Y-116178571D02*
X86178572Y-114678571D01*
X86750000Y-114678571D01*
X86892858Y-114750000D01*
X86964286Y-114821429D01*
X87035715Y-114964286D01*
X87035715Y-115178571D01*
X86964286Y-115321429D01*
X86892858Y-115392857D01*
X86750000Y-115464286D01*
X86178572Y-115464286D01*
X88178572Y-115392857D02*
X87678572Y-115392857D01*
X87678572Y-116178571D02*
X87678572Y-114678571D01*
X88392858Y-114678571D01*
D12*
X57154762Y-136261905D02*
X57202381Y-136119048D01*
X57202381Y-135880952D01*
X57154762Y-135785714D01*
X57107143Y-135738095D01*
X57011905Y-135690476D01*
X56916667Y-135690476D01*
X56821429Y-135738095D01*
X56773810Y-135785714D01*
X56726190Y-135880952D01*
X56678571Y-136071429D01*
X56630952Y-136166667D01*
X56583333Y-136214286D01*
X56488095Y-136261905D01*
X56392857Y-136261905D01*
X56297619Y-136214286D01*
X56250000Y-136166667D01*
X56202381Y-136071429D01*
X56202381Y-135833333D01*
X56250000Y-135690476D01*
X57154762Y-134833333D02*
X57202381Y-134928571D01*
X57202381Y-135119048D01*
X57154762Y-135214286D01*
X57107143Y-135261905D01*
X57011905Y-135309524D01*
X56726190Y-135309524D01*
X56630952Y-135261905D01*
X56583333Y-135214286D01*
X56535714Y-135119048D01*
X56535714Y-134928571D01*
X56583333Y-134833333D01*
X57202381Y-134404762D02*
X56202381Y-134404762D01*
X57202381Y-133976190D02*
X56678571Y-133976190D01*
X56583333Y-134023809D01*
X56535714Y-134119047D01*
X56535714Y-134261905D01*
X56583333Y-134357143D01*
X56630952Y-134404762D01*
X57154762Y-133119047D02*
X57202381Y-133214285D01*
X57202381Y-133404762D01*
X57154762Y-133500000D01*
X57059524Y-133547619D01*
X56678571Y-133547619D01*
X56583333Y-133500000D01*
X56535714Y-133404762D01*
X56535714Y-133214285D01*
X56583333Y-133119047D01*
X56678571Y-133071428D01*
X56773810Y-133071428D01*
X56869048Y-133547619D01*
X57202381Y-132642857D02*
X56535714Y-132642857D01*
X56630952Y-132642857D02*
X56583333Y-132595238D01*
X56535714Y-132500000D01*
X56535714Y-132357142D01*
X56583333Y-132261904D01*
X56678571Y-132214285D01*
X57202381Y-132214285D01*
X56678571Y-132214285D02*
X56583333Y-132166666D01*
X56535714Y-132071428D01*
X56535714Y-131928571D01*
X56583333Y-131833333D01*
X56678571Y-131785714D01*
X57202381Y-131785714D01*
X57202381Y-130880952D02*
X56678571Y-130880952D01*
X56583333Y-130928571D01*
X56535714Y-131023809D01*
X56535714Y-131214286D01*
X56583333Y-131309524D01*
X57154762Y-130880952D02*
X57202381Y-130976190D01*
X57202381Y-131214286D01*
X57154762Y-131309524D01*
X57059524Y-131357143D01*
X56964286Y-131357143D01*
X56869048Y-131309524D01*
X56821429Y-131214286D01*
X56821429Y-130976190D01*
X56773810Y-130880952D01*
X56535714Y-130547619D02*
X56535714Y-130166667D01*
X56202381Y-130404762D02*
X57059524Y-130404762D01*
X57154762Y-130357143D01*
X57202381Y-130261905D01*
X57202381Y-130166667D01*
X57202381Y-129833333D02*
X56535714Y-129833333D01*
X56202381Y-129833333D02*
X56250000Y-129880952D01*
X56297619Y-129833333D01*
X56250000Y-129785714D01*
X56202381Y-129833333D01*
X56297619Y-129833333D01*
X57154762Y-128928571D02*
X57202381Y-129023809D01*
X57202381Y-129214286D01*
X57154762Y-129309524D01*
X57107143Y-129357143D01*
X57011905Y-129404762D01*
X56726190Y-129404762D01*
X56630952Y-129357143D01*
X56583333Y-129309524D01*
X56535714Y-129214286D01*
X56535714Y-129023809D01*
X56583333Y-128928571D01*
X57202381Y-127738095D02*
X56202381Y-127738095D01*
X57202381Y-127166666D02*
X56630952Y-127595238D01*
X56202381Y-127166666D02*
X56773810Y-127738095D01*
X56678571Y-126738095D02*
X56678571Y-126404761D01*
X57202381Y-126261904D02*
X57202381Y-126738095D01*
X56202381Y-126738095D01*
X56202381Y-126261904D01*
X57202381Y-125785714D02*
X57202381Y-125595238D01*
X57154762Y-125499999D01*
X57107143Y-125452380D01*
X56964286Y-125357142D01*
X56773810Y-125309523D01*
X56392857Y-125309523D01*
X56297619Y-125357142D01*
X56250000Y-125404761D01*
X56202381Y-125499999D01*
X56202381Y-125690476D01*
X56250000Y-125785714D01*
X56297619Y-125833333D01*
X56392857Y-125880952D01*
X56630952Y-125880952D01*
X56726190Y-125833333D01*
X56773810Y-125785714D01*
X56821429Y-125690476D01*
X56821429Y-125499999D01*
X56773810Y-125404761D01*
X56726190Y-125357142D01*
X56630952Y-125309523D01*
X57202381Y-124880952D02*
X56202381Y-124880952D01*
X56678571Y-124880952D02*
X56678571Y-124309523D01*
X57202381Y-124309523D02*
X56202381Y-124309523D01*
X56154762Y-123119047D02*
X57440476Y-123976190D01*
X56202381Y-122166666D02*
X57202381Y-121833333D01*
X56202381Y-121499999D01*
X57202381Y-121166666D02*
X56202381Y-121166666D01*
X57202381Y-120595237D02*
X56630952Y-121023809D01*
X56202381Y-120595237D02*
X56773810Y-121166666D01*
X56202381Y-119738094D02*
X56202381Y-119928571D01*
X56250000Y-120023809D01*
X56297619Y-120071428D01*
X56440476Y-120166666D01*
X56630952Y-120214285D01*
X57011905Y-120214285D01*
X57107143Y-120166666D01*
X57154762Y-120119047D01*
X57202381Y-120023809D01*
X57202381Y-119833332D01*
X57154762Y-119738094D01*
X57107143Y-119690475D01*
X57011905Y-119642856D01*
X56773810Y-119642856D01*
X56678571Y-119690475D01*
X56630952Y-119738094D01*
X56583333Y-119833332D01*
X56583333Y-120023809D01*
X56630952Y-120119047D01*
X56678571Y-120166666D01*
X56773810Y-120214285D01*
X56916667Y-119261904D02*
X56916667Y-118785713D01*
X57202381Y-119357142D02*
X56202381Y-119023809D01*
X57202381Y-118690475D01*
X57202381Y-118357142D02*
X56202381Y-118357142D01*
X56202381Y-117976189D01*
X56250000Y-117880951D01*
X56297619Y-117833332D01*
X56392857Y-117785713D01*
X56535714Y-117785713D01*
X56630952Y-117833332D01*
X56678571Y-117880951D01*
X56726190Y-117976189D01*
X56726190Y-118357142D01*
X57202381Y-117357142D02*
X56202381Y-117357142D01*
X56678571Y-117357142D02*
X56678571Y-116785713D01*
X57202381Y-116785713D02*
X56202381Y-116785713D01*
X58952381Y-131309524D02*
X57952381Y-131309524D01*
X57952381Y-131071429D01*
X58000000Y-130928571D01*
X58095238Y-130833333D01*
X58190476Y-130785714D01*
X58380952Y-130738095D01*
X58523810Y-130738095D01*
X58714286Y-130785714D01*
X58809524Y-130833333D01*
X58904762Y-130928571D01*
X58952381Y-131071429D01*
X58952381Y-131309524D01*
X58952381Y-130309524D02*
X58285714Y-130309524D01*
X58476190Y-130309524D02*
X58380952Y-130261905D01*
X58333333Y-130214286D01*
X58285714Y-130119048D01*
X58285714Y-130023809D01*
X58952381Y-129261904D02*
X58428571Y-129261904D01*
X58333333Y-129309523D01*
X58285714Y-129404761D01*
X58285714Y-129595238D01*
X58333333Y-129690476D01*
X58904762Y-129261904D02*
X58952381Y-129357142D01*
X58952381Y-129595238D01*
X58904762Y-129690476D01*
X58809524Y-129738095D01*
X58714286Y-129738095D01*
X58619048Y-129690476D01*
X58571429Y-129595238D01*
X58571429Y-129357142D01*
X58523810Y-129261904D01*
X58285714Y-128880952D02*
X58952381Y-128690476D01*
X58476190Y-128499999D01*
X58952381Y-128309523D01*
X58285714Y-128119047D01*
X58952381Y-127738095D02*
X58285714Y-127738095D01*
X57952381Y-127738095D02*
X58000000Y-127785714D01*
X58047619Y-127738095D01*
X58000000Y-127690476D01*
X57952381Y-127738095D01*
X58047619Y-127738095D01*
X58285714Y-127261905D02*
X58952381Y-127261905D01*
X58380952Y-127261905D02*
X58333333Y-127214286D01*
X58285714Y-127119048D01*
X58285714Y-126976190D01*
X58333333Y-126880952D01*
X58428571Y-126833333D01*
X58952381Y-126833333D01*
X58285714Y-125928571D02*
X59095238Y-125928571D01*
X59190476Y-125976190D01*
X59238095Y-126023809D01*
X59285714Y-126119048D01*
X59285714Y-126261905D01*
X59238095Y-126357143D01*
X58904762Y-125928571D02*
X58952381Y-126023809D01*
X58952381Y-126214286D01*
X58904762Y-126309524D01*
X58857143Y-126357143D01*
X58761905Y-126404762D01*
X58476190Y-126404762D01*
X58380952Y-126357143D01*
X58333333Y-126309524D01*
X58285714Y-126214286D01*
X58285714Y-126023809D01*
X58333333Y-125928571D01*
X58285714Y-124833333D02*
X58285714Y-124452381D01*
X58952381Y-124690476D02*
X58095238Y-124690476D01*
X58000000Y-124642857D01*
X57952381Y-124547619D01*
X57952381Y-124452381D01*
X57952381Y-123690475D02*
X57952381Y-123880952D01*
X58000000Y-123976190D01*
X58047619Y-124023809D01*
X58190476Y-124119047D01*
X58380952Y-124166666D01*
X58761905Y-124166666D01*
X58857143Y-124119047D01*
X58904762Y-124071428D01*
X58952381Y-123976190D01*
X58952381Y-123785713D01*
X58904762Y-123690475D01*
X58857143Y-123642856D01*
X58761905Y-123595237D01*
X58523810Y-123595237D01*
X58428571Y-123642856D01*
X58380952Y-123690475D01*
X58333333Y-123785713D01*
X58333333Y-123976190D01*
X58380952Y-124071428D01*
X58428571Y-124119047D01*
X58523810Y-124166666D01*
X58952381Y-123166666D02*
X58285714Y-123166666D01*
X57952381Y-123166666D02*
X58000000Y-123214285D01*
X58047619Y-123166666D01*
X58000000Y-123119047D01*
X57952381Y-123166666D01*
X58047619Y-123166666D01*
X58285714Y-122833333D02*
X58285714Y-122452381D01*
X57952381Y-122690476D02*
X58809524Y-122690476D01*
X58904762Y-122642857D01*
X58952381Y-122547619D01*
X58952381Y-122452381D01*
X58285714Y-121690475D02*
X58952381Y-121690475D01*
X58285714Y-122119047D02*
X58809524Y-122119047D01*
X58904762Y-122071428D01*
X58952381Y-121976190D01*
X58952381Y-121833332D01*
X58904762Y-121738094D01*
X58857143Y-121690475D01*
X59702381Y-128023809D02*
X60702381Y-127690476D01*
X59702381Y-127357142D01*
X59797619Y-127071428D02*
X59750000Y-127023809D01*
X59702381Y-126928571D01*
X59702381Y-126690475D01*
X59750000Y-126595237D01*
X59797619Y-126547618D01*
X59892857Y-126499999D01*
X59988095Y-126499999D01*
X60130952Y-126547618D01*
X60702381Y-127119047D01*
X60702381Y-126499999D01*
X60607143Y-126071428D02*
X60654762Y-126023809D01*
X60702381Y-126071428D01*
X60654762Y-126119047D01*
X60607143Y-126071428D01*
X60702381Y-126071428D01*
X59702381Y-125404762D02*
X59702381Y-125309523D01*
X59750000Y-125214285D01*
X59797619Y-125166666D01*
X59892857Y-125119047D01*
X60083333Y-125071428D01*
X60321429Y-125071428D01*
X60511905Y-125119047D01*
X60607143Y-125166666D01*
X60654762Y-125214285D01*
X60702381Y-125309523D01*
X60702381Y-125404762D01*
X60654762Y-125500000D01*
X60607143Y-125547619D01*
X60511905Y-125595238D01*
X60321429Y-125642857D01*
X60083333Y-125642857D01*
X59892857Y-125595238D01*
X59797619Y-125547619D01*
X59750000Y-125500000D01*
X59702381Y-125404762D01*
D11*
X136500000Y-130403571D02*
X137071429Y-130403571D01*
X136714286Y-129903571D02*
X136714286Y-131189286D01*
X136785714Y-131332143D01*
X136928572Y-131403571D01*
X137071429Y-131403571D01*
X137785715Y-131403571D02*
X137642857Y-131332143D01*
X137571429Y-131260714D01*
X137500000Y-131117857D01*
X137500000Y-130689286D01*
X137571429Y-130546429D01*
X137642857Y-130475000D01*
X137785715Y-130403571D01*
X138000000Y-130403571D01*
X138142857Y-130475000D01*
X138214286Y-130546429D01*
X138285715Y-130689286D01*
X138285715Y-131117857D01*
X138214286Y-131260714D01*
X138142857Y-131332143D01*
X138000000Y-131403571D01*
X137785715Y-131403571D01*
X140071429Y-131403571D02*
X140071429Y-129903571D01*
X140642857Y-129903571D01*
X140785715Y-129975000D01*
X140857143Y-130046429D01*
X140928572Y-130189286D01*
X140928572Y-130403571D01*
X140857143Y-130546429D01*
X140785715Y-130617857D01*
X140642857Y-130689286D01*
X140071429Y-130689286D01*
X141500000Y-131332143D02*
X141714286Y-131403571D01*
X142071429Y-131403571D01*
X142214286Y-131332143D01*
X142285715Y-131260714D01*
X142357143Y-131117857D01*
X142357143Y-130975000D01*
X142285715Y-130832143D01*
X142214286Y-130760714D01*
X142071429Y-130689286D01*
X141785715Y-130617857D01*
X141642857Y-130546429D01*
X141571429Y-130475000D01*
X141500000Y-130332143D01*
X141500000Y-130189286D01*
X141571429Y-130046429D01*
X141642857Y-129975000D01*
X141785715Y-129903571D01*
X142142857Y-129903571D01*
X142357143Y-129975000D01*
X144071428Y-129832143D02*
X142785714Y-131760714D01*
X144357143Y-129903571D02*
X144857143Y-131403571D01*
X145357143Y-129903571D01*
X145785714Y-131332143D02*
X146000000Y-131403571D01*
X146357143Y-131403571D01*
X146500000Y-131332143D01*
X146571429Y-131260714D01*
X146642857Y-131117857D01*
X146642857Y-130975000D01*
X146571429Y-130832143D01*
X146500000Y-130760714D01*
X146357143Y-130689286D01*
X146071429Y-130617857D01*
X145928571Y-130546429D01*
X145857143Y-130475000D01*
X145785714Y-130332143D01*
X145785714Y-130189286D01*
X145857143Y-130046429D01*
X145928571Y-129975000D01*
X146071429Y-129903571D01*
X146428571Y-129903571D01*
X146642857Y-129975000D01*
X147142857Y-129903571D02*
X147500000Y-131403571D01*
X147785714Y-130332143D01*
X148071428Y-131403571D01*
X148428571Y-129903571D01*
X149857143Y-131403571D02*
X149357143Y-130689286D01*
X149000000Y-131403571D02*
X149000000Y-129903571D01*
X149571428Y-129903571D01*
X149714286Y-129975000D01*
X149785714Y-130046429D01*
X149857143Y-130189286D01*
X149857143Y-130403571D01*
X149785714Y-130546429D01*
X149714286Y-130617857D01*
X149571428Y-130689286D01*
X149000000Y-130689286D01*
X133821428Y-133525000D02*
X134535714Y-133525000D01*
X133678571Y-133953571D02*
X134178571Y-132453571D01*
X134678571Y-133953571D01*
X135178571Y-132953571D02*
X135178571Y-133953571D01*
X135178571Y-133096429D02*
X135249999Y-133025000D01*
X135392857Y-132953571D01*
X135607142Y-132953571D01*
X135749999Y-133025000D01*
X135821428Y-133167857D01*
X135821428Y-133953571D01*
X136321428Y-132953571D02*
X136892857Y-132953571D01*
X136535714Y-132453571D02*
X136535714Y-133739286D01*
X136607142Y-133882143D01*
X136750000Y-133953571D01*
X136892857Y-133953571D01*
X137392857Y-133810714D02*
X137464285Y-133882143D01*
X137392857Y-133953571D01*
X137321428Y-133882143D01*
X137392857Y-133810714D01*
X137392857Y-133953571D01*
X139035714Y-132453571D02*
X139892857Y-132453571D01*
X139464286Y-133953571D02*
X139464286Y-132453571D01*
X140250000Y-132453571D02*
X141250000Y-133953571D01*
X141250000Y-132453571D02*
X140250000Y-133953571D01*
X143821428Y-133810714D02*
X143749999Y-133882143D01*
X143535713Y-133953571D01*
X143392856Y-133953571D01*
X143178571Y-133882143D01*
X143035713Y-133739286D01*
X142964285Y-133596429D01*
X142892856Y-133310714D01*
X142892856Y-133096429D01*
X142964285Y-132810714D01*
X143035713Y-132667857D01*
X143178571Y-132525000D01*
X143392856Y-132453571D01*
X143535713Y-132453571D01*
X143749999Y-132525000D01*
X143821428Y-132596429D01*
X144678571Y-133953571D02*
X144535713Y-133882143D01*
X144464285Y-133810714D01*
X144392856Y-133667857D01*
X144392856Y-133239286D01*
X144464285Y-133096429D01*
X144535713Y-133025000D01*
X144678571Y-132953571D01*
X144892856Y-132953571D01*
X145035713Y-133025000D01*
X145107142Y-133096429D01*
X145178571Y-133239286D01*
X145178571Y-133667857D01*
X145107142Y-133810714D01*
X145035713Y-133882143D01*
X144892856Y-133953571D01*
X144678571Y-133953571D01*
X146464285Y-133953571D02*
X146464285Y-133167857D01*
X146392856Y-133025000D01*
X146249999Y-132953571D01*
X145964285Y-132953571D01*
X145821428Y-133025000D01*
X146464285Y-133882143D02*
X146321428Y-133953571D01*
X145964285Y-133953571D01*
X145821428Y-133882143D01*
X145749999Y-133739286D01*
X145749999Y-133596429D01*
X145821428Y-133453571D01*
X145964285Y-133382143D01*
X146321428Y-133382143D01*
X146464285Y-133310714D01*
X147035714Y-133953571D02*
X147821428Y-132953571D01*
X147035714Y-132953571D02*
X147821428Y-133953571D01*
X149821428Y-132453571D02*
X150107142Y-132453571D01*
X150250000Y-132525000D01*
X150392857Y-132667857D01*
X150464285Y-132953571D01*
X150464285Y-133453571D01*
X150392857Y-133739286D01*
X150250000Y-133882143D01*
X150107142Y-133953571D01*
X149821428Y-133953571D01*
X149678571Y-133882143D01*
X149535714Y-133739286D01*
X149464285Y-133453571D01*
X149464285Y-132953571D01*
X149535714Y-132667857D01*
X149678571Y-132525000D01*
X149821428Y-132453571D01*
X151750000Y-132953571D02*
X151750000Y-133953571D01*
X151107143Y-132953571D02*
X151107143Y-133739286D01*
X151178571Y-133882143D01*
X151321429Y-133953571D01*
X151535714Y-133953571D01*
X151678571Y-133882143D01*
X151750000Y-133810714D01*
X152250000Y-132953571D02*
X152821429Y-132953571D01*
X152464286Y-132453571D02*
X152464286Y-133739286D01*
X152535714Y-133882143D01*
X152678572Y-133953571D01*
X152821429Y-133953571D01*
X87107143Y-132903571D02*
X86607143Y-132189286D01*
X86250000Y-132903571D02*
X86250000Y-131403571D01*
X86821428Y-131403571D01*
X86964286Y-131475000D01*
X87035714Y-131546429D01*
X87107143Y-131689286D01*
X87107143Y-131903571D01*
X87035714Y-132046429D01*
X86964286Y-132117857D01*
X86821428Y-132189286D01*
X86250000Y-132189286D01*
X87607143Y-132903571D02*
X88392857Y-131903571D01*
X87607143Y-131903571D02*
X88392857Y-132903571D01*
X82321429Y-135453571D02*
X82321429Y-133953571D01*
X82821429Y-135025000D01*
X83321429Y-133953571D01*
X83321429Y-135453571D01*
X84678572Y-135453571D02*
X84678572Y-134667857D01*
X84607143Y-134525000D01*
X84464286Y-134453571D01*
X84178572Y-134453571D01*
X84035715Y-134525000D01*
X84678572Y-135382143D02*
X84535715Y-135453571D01*
X84178572Y-135453571D01*
X84035715Y-135382143D01*
X83964286Y-135239286D01*
X83964286Y-135096429D01*
X84035715Y-134953571D01*
X84178572Y-134882143D01*
X84535715Y-134882143D01*
X84678572Y-134810714D01*
X85321429Y-135382143D02*
X85464286Y-135453571D01*
X85750001Y-135453571D01*
X85892858Y-135382143D01*
X85964286Y-135239286D01*
X85964286Y-135167857D01*
X85892858Y-135025000D01*
X85750001Y-134953571D01*
X85535715Y-134953571D01*
X85392858Y-134882143D01*
X85321429Y-134739286D01*
X85321429Y-134667857D01*
X85392858Y-134525000D01*
X85535715Y-134453571D01*
X85750001Y-134453571D01*
X85892858Y-134525000D01*
X86392858Y-134453571D02*
X86964287Y-134453571D01*
X86607144Y-133953571D02*
X86607144Y-135239286D01*
X86678572Y-135382143D01*
X86821430Y-135453571D01*
X86964287Y-135453571D01*
X88035715Y-135382143D02*
X87892858Y-135453571D01*
X87607144Y-135453571D01*
X87464287Y-135382143D01*
X87392858Y-135239286D01*
X87392858Y-134667857D01*
X87464287Y-134525000D01*
X87607144Y-134453571D01*
X87892858Y-134453571D01*
X88035715Y-134525000D01*
X88107144Y-134667857D01*
X88107144Y-134810714D01*
X87392858Y-134953571D01*
X88750001Y-135453571D02*
X88750001Y-134453571D01*
X88750001Y-134739286D02*
X88821429Y-134596429D01*
X88892858Y-134525000D01*
X89035715Y-134453571D01*
X89178572Y-134453571D01*
X90821429Y-135453571D02*
X90821429Y-133953571D01*
X91535715Y-134453571D02*
X91535715Y-135453571D01*
X91535715Y-134596429D02*
X91607143Y-134525000D01*
X91750001Y-134453571D01*
X91964286Y-134453571D01*
X92107143Y-134525000D01*
X92178572Y-134667857D01*
X92178572Y-135453571D01*
X115507143Y-126392857D02*
X115507143Y-125250000D01*
X116078571Y-125821429D02*
X114935714Y-125821429D01*
X114578571Y-124750000D02*
X116078571Y-124250000D01*
X114578571Y-123750000D01*
X118628571Y-125607143D02*
X118628571Y-126464286D01*
X118628571Y-126035714D02*
X117128571Y-126035714D01*
X117342857Y-126178571D01*
X117485714Y-126321429D01*
X117557143Y-126464286D01*
X117128571Y-124678572D02*
X117128571Y-124535715D01*
X117200000Y-124392858D01*
X117271429Y-124321429D01*
X117414286Y-124250000D01*
X117700000Y-124178572D01*
X118057143Y-124178572D01*
X118342857Y-124250000D01*
X118485714Y-124321429D01*
X118557143Y-124392858D01*
X118628571Y-124535715D01*
X118628571Y-124678572D01*
X118557143Y-124821429D01*
X118485714Y-124892858D01*
X118342857Y-124964286D01*
X118057143Y-125035715D01*
X117700000Y-125035715D01*
X117414286Y-124964286D01*
X117271429Y-124892858D01*
X117200000Y-124821429D01*
X117128571Y-124678572D01*
X118628571Y-123535715D02*
X117628571Y-123535715D01*
X117771429Y-123535715D02*
X117700000Y-123464287D01*
X117628571Y-123321429D01*
X117628571Y-123107144D01*
X117700000Y-122964287D01*
X117842857Y-122892858D01*
X118628571Y-122892858D01*
X117842857Y-122892858D02*
X117700000Y-122821429D01*
X117628571Y-122678572D01*
X117628571Y-122464287D01*
X117700000Y-122321429D01*
X117842857Y-122250001D01*
X118628571Y-122250001D01*
X121178571Y-125607143D02*
X121178571Y-126464286D01*
X121178571Y-126035714D02*
X119678571Y-126035714D01*
X119892857Y-126178571D01*
X120035714Y-126321429D01*
X120107143Y-126464286D01*
X119678571Y-124250000D02*
X119678571Y-124964286D01*
X120392857Y-125035715D01*
X120321429Y-124964286D01*
X120250000Y-124821429D01*
X120250000Y-124464286D01*
X120321429Y-124321429D01*
X120392857Y-124250000D01*
X120535714Y-124178572D01*
X120892857Y-124178572D01*
X121035714Y-124250000D01*
X121107143Y-124321429D01*
X121178571Y-124464286D01*
X121178571Y-124821429D01*
X121107143Y-124964286D01*
X121035714Y-125035715D01*
X121178571Y-123535715D02*
X120178571Y-123535715D01*
X120321429Y-123535715D02*
X120250000Y-123464287D01*
X120178571Y-123321429D01*
X120178571Y-123107144D01*
X120250000Y-122964287D01*
X120392857Y-122892858D01*
X121178571Y-122892858D01*
X120392857Y-122892858D02*
X120250000Y-122821429D01*
X120178571Y-122678572D01*
X120178571Y-122464287D01*
X120250000Y-122321429D01*
X120392857Y-122250001D01*
X121178571Y-122250001D01*
X122371429Y-126464286D02*
X122300000Y-126392857D01*
X122228571Y-126250000D01*
X122228571Y-125892857D01*
X122300000Y-125750000D01*
X122371429Y-125678571D01*
X122514286Y-125607143D01*
X122657143Y-125607143D01*
X122871429Y-125678571D01*
X123728571Y-126535714D01*
X123728571Y-125607143D01*
X122228571Y-124678572D02*
X122228571Y-124535715D01*
X122300000Y-124392858D01*
X122371429Y-124321429D01*
X122514286Y-124250000D01*
X122800000Y-124178572D01*
X123157143Y-124178572D01*
X123442857Y-124250000D01*
X123585714Y-124321429D01*
X123657143Y-124392858D01*
X123728571Y-124535715D01*
X123728571Y-124678572D01*
X123657143Y-124821429D01*
X123585714Y-124892858D01*
X123442857Y-124964286D01*
X123157143Y-125035715D01*
X122800000Y-125035715D01*
X122514286Y-124964286D01*
X122371429Y-124892858D01*
X122300000Y-124821429D01*
X122228571Y-124678572D01*
X123728571Y-123535715D02*
X122728571Y-123535715D01*
X122871429Y-123535715D02*
X122800000Y-123464287D01*
X122728571Y-123321429D01*
X122728571Y-123107144D01*
X122800000Y-122964287D01*
X122942857Y-122892858D01*
X123728571Y-122892858D01*
X122942857Y-122892858D02*
X122800000Y-122821429D01*
X122728571Y-122678572D01*
X122728571Y-122464287D01*
X122800000Y-122321429D01*
X122942857Y-122250001D01*
X123728571Y-122250001D01*
X125278571Y-125750000D02*
X126278571Y-125750000D01*
X124707143Y-126107143D02*
X125778571Y-126464286D01*
X125778571Y-125535714D01*
X124778571Y-124678572D02*
X124778571Y-124535715D01*
X124850000Y-124392858D01*
X124921429Y-124321429D01*
X125064286Y-124250000D01*
X125350000Y-124178572D01*
X125707143Y-124178572D01*
X125992857Y-124250000D01*
X126135714Y-124321429D01*
X126207143Y-124392858D01*
X126278571Y-124535715D01*
X126278571Y-124678572D01*
X126207143Y-124821429D01*
X126135714Y-124892858D01*
X125992857Y-124964286D01*
X125707143Y-125035715D01*
X125350000Y-125035715D01*
X125064286Y-124964286D01*
X124921429Y-124892858D01*
X124850000Y-124821429D01*
X124778571Y-124678572D01*
X126278571Y-123535715D02*
X125278571Y-123535715D01*
X125421429Y-123535715D02*
X125350000Y-123464287D01*
X125278571Y-123321429D01*
X125278571Y-123107144D01*
X125350000Y-122964287D01*
X125492857Y-122892858D01*
X126278571Y-122892858D01*
X125492857Y-122892858D02*
X125350000Y-122821429D01*
X125278571Y-122678572D01*
X125278571Y-122464287D01*
X125350000Y-122321429D01*
X125492857Y-122250001D01*
X126278571Y-122250001D01*
X114150000Y-140571429D02*
X114078571Y-140714286D01*
X114078571Y-140928572D01*
X114150000Y-141142857D01*
X114292857Y-141285715D01*
X114435714Y-141357143D01*
X114721429Y-141428572D01*
X114935714Y-141428572D01*
X115221429Y-141357143D01*
X115364286Y-141285715D01*
X115507143Y-141142857D01*
X115578571Y-140928572D01*
X115578571Y-140785715D01*
X115507143Y-140571429D01*
X115435714Y-140500000D01*
X114935714Y-140500000D01*
X114935714Y-140785715D01*
X114578571Y-139857143D02*
X115578571Y-139857143D01*
X114721429Y-139857143D02*
X114650000Y-139785715D01*
X114578571Y-139642857D01*
X114578571Y-139428572D01*
X114650000Y-139285715D01*
X114792857Y-139214286D01*
X115578571Y-139214286D01*
X115578571Y-137857143D02*
X114078571Y-137857143D01*
X115507143Y-137857143D02*
X115578571Y-138000000D01*
X115578571Y-138285714D01*
X115507143Y-138428572D01*
X115435714Y-138500000D01*
X115292857Y-138571429D01*
X114864286Y-138571429D01*
X114721429Y-138500000D01*
X114650000Y-138428572D01*
X114578571Y-138285714D01*
X114578571Y-138000000D01*
X114650000Y-137857143D01*
X116628571Y-139928571D02*
X116628571Y-140214285D01*
X116700000Y-140357142D01*
X116771429Y-140428571D01*
X116985714Y-140571428D01*
X117271429Y-140642857D01*
X117842857Y-140642857D01*
X117985714Y-140571428D01*
X118057143Y-140500000D01*
X118128571Y-140357142D01*
X118128571Y-140071428D01*
X118057143Y-139928571D01*
X117985714Y-139857142D01*
X117842857Y-139785714D01*
X117485714Y-139785714D01*
X117342857Y-139857142D01*
X117271429Y-139928571D01*
X117200000Y-140071428D01*
X117200000Y-140357142D01*
X117271429Y-140500000D01*
X117342857Y-140571428D01*
X117485714Y-140642857D01*
X118128571Y-139142857D02*
X117128571Y-139142857D01*
X117271429Y-139142857D02*
X117200000Y-139071429D01*
X117128571Y-138928571D01*
X117128571Y-138714286D01*
X117200000Y-138571429D01*
X117342857Y-138500000D01*
X118128571Y-138500000D01*
X117342857Y-138500000D02*
X117200000Y-138428571D01*
X117128571Y-138285714D01*
X117128571Y-138071429D01*
X117200000Y-137928571D01*
X117342857Y-137857143D01*
X118128571Y-137857143D01*
X119178571Y-144499999D02*
X119178571Y-143642856D01*
X120678571Y-144071427D02*
X119178571Y-144071427D01*
X119178571Y-143285713D02*
X120678571Y-142285713D01*
X119178571Y-142285713D02*
X120678571Y-143285713D01*
X120821429Y-142071428D02*
X120821429Y-140928571D01*
X120678571Y-139714285D02*
X119964286Y-140214285D01*
X120678571Y-140571428D02*
X119178571Y-140571428D01*
X119178571Y-140000000D01*
X119250000Y-139857142D01*
X119321429Y-139785714D01*
X119464286Y-139714285D01*
X119678571Y-139714285D01*
X119821429Y-139785714D01*
X119892857Y-139857142D01*
X119964286Y-140000000D01*
X119964286Y-140571428D01*
X120678571Y-138857142D02*
X120607143Y-139000000D01*
X120464286Y-139071428D01*
X119178571Y-139071428D01*
X119678571Y-138428571D02*
X120678571Y-138071428D01*
X119678571Y-137714286D02*
X120678571Y-138071428D01*
X121035714Y-138214286D01*
X121107143Y-138285714D01*
X121178571Y-138428571D01*
X123228571Y-142642856D02*
X123228571Y-143499999D01*
X123228571Y-143071427D02*
X121728571Y-143071427D01*
X121942857Y-143214284D01*
X122085714Y-143357142D01*
X122157143Y-143499999D01*
X121728571Y-141357142D02*
X121728571Y-141642856D01*
X121800000Y-141785713D01*
X121871429Y-141857142D01*
X122085714Y-141999999D01*
X122371429Y-142071428D01*
X122942857Y-142071428D01*
X123085714Y-141999999D01*
X123157143Y-141928571D01*
X123228571Y-141785713D01*
X123228571Y-141499999D01*
X123157143Y-141357142D01*
X123085714Y-141285713D01*
X122942857Y-141214285D01*
X122585714Y-141214285D01*
X122442857Y-141285713D01*
X122371429Y-141357142D01*
X122300000Y-141499999D01*
X122300000Y-141785713D01*
X122371429Y-141928571D01*
X122442857Y-141999999D01*
X122585714Y-142071428D01*
X121728571Y-140285714D02*
X121728571Y-140142857D01*
X121800000Y-140000000D01*
X121871429Y-139928571D01*
X122014286Y-139857142D01*
X122300000Y-139785714D01*
X122657143Y-139785714D01*
X122942857Y-139857142D01*
X123085714Y-139928571D01*
X123157143Y-140000000D01*
X123228571Y-140142857D01*
X123228571Y-140285714D01*
X123157143Y-140428571D01*
X123085714Y-140500000D01*
X122942857Y-140571428D01*
X122657143Y-140642857D01*
X122300000Y-140642857D01*
X122014286Y-140571428D01*
X121871429Y-140500000D01*
X121800000Y-140428571D01*
X121728571Y-140285714D01*
X123228571Y-139142857D02*
X122228571Y-139142857D01*
X122371429Y-139142857D02*
X122300000Y-139071429D01*
X122228571Y-138928571D01*
X122228571Y-138714286D01*
X122300000Y-138571429D01*
X122442857Y-138500000D01*
X123228571Y-138500000D01*
X122442857Y-138500000D02*
X122300000Y-138428571D01*
X122228571Y-138285714D01*
X122228571Y-138071429D01*
X122300000Y-137928571D01*
X122442857Y-137857143D01*
X123228571Y-137857143D01*
X124921429Y-141785713D02*
X124850000Y-141928571D01*
X124778571Y-141999999D01*
X124635714Y-142071428D01*
X124564286Y-142071428D01*
X124421429Y-141999999D01*
X124350000Y-141928571D01*
X124278571Y-141785713D01*
X124278571Y-141499999D01*
X124350000Y-141357142D01*
X124421429Y-141285713D01*
X124564286Y-141214285D01*
X124635714Y-141214285D01*
X124778571Y-141285713D01*
X124850000Y-141357142D01*
X124921429Y-141499999D01*
X124921429Y-141785713D01*
X124992857Y-141928571D01*
X125064286Y-141999999D01*
X125207143Y-142071428D01*
X125492857Y-142071428D01*
X125635714Y-141999999D01*
X125707143Y-141928571D01*
X125778571Y-141785713D01*
X125778571Y-141499999D01*
X125707143Y-141357142D01*
X125635714Y-141285713D01*
X125492857Y-141214285D01*
X125207143Y-141214285D01*
X125064286Y-141285713D01*
X124992857Y-141357142D01*
X124921429Y-141499999D01*
X124278571Y-140285714D02*
X124278571Y-140142857D01*
X124350000Y-140000000D01*
X124421429Y-139928571D01*
X124564286Y-139857142D01*
X124850000Y-139785714D01*
X125207143Y-139785714D01*
X125492857Y-139857142D01*
X125635714Y-139928571D01*
X125707143Y-140000000D01*
X125778571Y-140142857D01*
X125778571Y-140285714D01*
X125707143Y-140428571D01*
X125635714Y-140500000D01*
X125492857Y-140571428D01*
X125207143Y-140642857D01*
X124850000Y-140642857D01*
X124564286Y-140571428D01*
X124421429Y-140500000D01*
X124350000Y-140428571D01*
X124278571Y-140285714D01*
X125778571Y-139142857D02*
X124778571Y-139142857D01*
X124921429Y-139142857D02*
X124850000Y-139071429D01*
X124778571Y-138928571D01*
X124778571Y-138714286D01*
X124850000Y-138571429D01*
X124992857Y-138500000D01*
X125778571Y-138500000D01*
X124992857Y-138500000D02*
X124850000Y-138428571D01*
X124778571Y-138285714D01*
X124778571Y-138071429D01*
X124850000Y-137928571D01*
X124992857Y-137857143D01*
X125778571Y-137857143D01*
D13*
X108887341Y-52726924D02*
X109987822Y-56133013D01*
X109536860Y-52351924D02*
X111670835Y-58048076D01*
X110402886Y-51851924D02*
X112536860Y-57548076D01*
X111052405Y-51476924D02*
X113186379Y-57173076D01*
X111918430Y-50976924D02*
X114052405Y-56673076D01*
X112784456Y-50476924D02*
X114918430Y-56173076D01*
X113433975Y-50101924D02*
X115784456Y-55673076D01*
X119712659Y-46476924D02*
X122112178Y-49133013D01*
X119063140Y-46851924D02*
X122929165Y-51548076D01*
X118197114Y-47351924D02*
X122063140Y-52048076D01*
X117331089Y-47851924D02*
X121197114Y-52548076D01*
X116681570Y-48226924D02*
X120547595Y-52923076D01*
X116032051Y-48601924D02*
X119681570Y-53423076D01*
X115382532Y-48976924D02*
X118815544Y-53923076D01*
X114083494Y-49726924D02*
X116650481Y-55173076D01*
X114733013Y-49351924D02*
X117949519Y-54423076D01*
X114300000Y-49601924D02*
X120362178Y-46101924D01*
X120362178Y-46101924D02*
X123362178Y-51298076D01*
X123362178Y-51298076D02*
X111237822Y-58298076D01*
X111237822Y-58298076D02*
X108237822Y-53101924D01*
X108237822Y-53101924D02*
X114300000Y-49601924D01*
X87087341Y-52526924D02*
X88187822Y-55933013D01*
X87736860Y-52151924D02*
X89870835Y-57848076D01*
X88602886Y-51651924D02*
X90736860Y-57348076D01*
X89252405Y-51276924D02*
X91386379Y-56973076D01*
X90118430Y-50776924D02*
X92252405Y-56473076D01*
X90984456Y-50276924D02*
X93118430Y-55973076D01*
X91633975Y-49901924D02*
X93984456Y-55473076D01*
X97912659Y-46276924D02*
X100312178Y-48933013D01*
X97263140Y-46651924D02*
X101129165Y-51348076D01*
X96397114Y-47151924D02*
X100263140Y-51848076D01*
X95531089Y-47651924D02*
X99397114Y-52348076D01*
X94881570Y-48026924D02*
X98747595Y-52723076D01*
X94232051Y-48401924D02*
X97881570Y-53223076D01*
X93582532Y-48776924D02*
X97015544Y-53723076D01*
X92283494Y-49526924D02*
X94850481Y-54973076D01*
X92933013Y-49151924D02*
X96149519Y-54223076D01*
X92500000Y-49401924D02*
X98562178Y-45901924D01*
X98562178Y-45901924D02*
X101562178Y-51098076D01*
X101562178Y-51098076D02*
X89437822Y-58098076D01*
X89437822Y-58098076D02*
X86437822Y-52901924D01*
X86437822Y-52901924D02*
X92500000Y-49401924D01*
X112750000Y-61000000D02*
X112000000Y-64500000D01*
X113500000Y-61000000D02*
X112500000Y-67000000D01*
X114500000Y-61000000D02*
X113500000Y-67000000D01*
X115250000Y-61000000D02*
X114250000Y-67000000D01*
X116250000Y-61000000D02*
X115250000Y-67000000D01*
X117250000Y-61000000D02*
X116250000Y-67000000D01*
X118000000Y-61000000D02*
X117250000Y-67000000D01*
X125250000Y-61000000D02*
X126000000Y-64500000D01*
X124500000Y-61000000D02*
X125500000Y-67000000D01*
X123500000Y-61000000D02*
X124500000Y-67000000D01*
X122500000Y-61000000D02*
X123500000Y-67000000D01*
X121750000Y-61000000D02*
X122750000Y-67000000D01*
X121000000Y-61000000D02*
X121750000Y-67000000D01*
X120250000Y-61000000D02*
X120750000Y-67000000D01*
X118750000Y-61000000D02*
X118250000Y-67000000D01*
X119500000Y-61000000D02*
X119750000Y-67000000D01*
X119000000Y-61000000D02*
X126000000Y-61000000D01*
X126000000Y-61000000D02*
X126000000Y-67000000D01*
X126000000Y-67000000D02*
X112000000Y-67000000D01*
X112000000Y-67000000D02*
X112000000Y-61000000D01*
X112000000Y-61000000D02*
X119000000Y-61000000D01*
X115750000Y-83000000D02*
X115000000Y-86500000D01*
X116500000Y-83000000D02*
X115500000Y-89000000D01*
X117500000Y-83000000D02*
X116500000Y-89000000D01*
X118250000Y-83000000D02*
X117250000Y-89000000D01*
X119250000Y-83000000D02*
X118250000Y-89000000D01*
X120250000Y-83000000D02*
X119250000Y-89000000D01*
X121000000Y-83000000D02*
X120250000Y-89000000D01*
X128250000Y-83000000D02*
X129000000Y-86500000D01*
X127500000Y-83000000D02*
X128500000Y-89000000D01*
X126500000Y-83000000D02*
X127500000Y-89000000D01*
X125500000Y-83000000D02*
X126500000Y-89000000D01*
X124750000Y-83000000D02*
X125750000Y-89000000D01*
X124000000Y-83000000D02*
X124750000Y-89000000D01*
X123250000Y-83000000D02*
X123750000Y-89000000D01*
X121750000Y-83000000D02*
X121250000Y-89000000D01*
X122500000Y-83000000D02*
X122750000Y-89000000D01*
X122000000Y-83000000D02*
X129000000Y-83000000D01*
X129000000Y-83000000D02*
X129000000Y-89000000D01*
X129000000Y-89000000D02*
X115000000Y-89000000D01*
X115000000Y-89000000D02*
X115000000Y-83000000D01*
X115000000Y-83000000D02*
X122000000Y-83000000D01*
D14*
X130830000Y-136070000D02*
X110010000Y-136070000D01*
X110010000Y-136070000D02*
X110010000Y-126470000D01*
X110010000Y-126470000D02*
X130830000Y-126470000D01*
X130830000Y-126470000D02*
X130830000Y-136070000D01*
D13*
X132000000Y-79000000D02*
X132000000Y-69000000D01*
X152250000Y-79000000D02*
X132000000Y-79000000D01*
X152250000Y-69000000D02*
X132000000Y-69000000D01*
X152250000Y-79000000D02*
X152250000Y-69000000D01*
X115750000Y-94000000D02*
X115000000Y-97500000D01*
X116500000Y-94000000D02*
X115500000Y-100000000D01*
X117500000Y-94000000D02*
X116500000Y-100000000D01*
X118250000Y-94000000D02*
X117250000Y-100000000D01*
X119250000Y-94000000D02*
X118250000Y-100000000D01*
X120250000Y-94000000D02*
X119250000Y-100000000D01*
X121000000Y-94000000D02*
X120250000Y-100000000D01*
X128250000Y-94000000D02*
X129000000Y-97500000D01*
X127500000Y-94000000D02*
X128500000Y-100000000D01*
X126500000Y-94000000D02*
X127500000Y-100000000D01*
X125500000Y-94000000D02*
X126500000Y-100000000D01*
X124750000Y-94000000D02*
X125750000Y-100000000D01*
X124000000Y-94000000D02*
X124750000Y-100000000D01*
X123250000Y-94000000D02*
X123750000Y-100000000D01*
X121750000Y-94000000D02*
X121250000Y-100000000D01*
X122500000Y-94000000D02*
X122750000Y-100000000D01*
X122000000Y-94000000D02*
X129000000Y-94000000D01*
X129000000Y-94000000D02*
X129000000Y-100000000D01*
X129000000Y-100000000D02*
X115000000Y-100000000D01*
X115000000Y-100000000D02*
X115000000Y-94000000D01*
X115000000Y-94000000D02*
X122000000Y-94000000D01*
X129000000Y-114000000D02*
X129000000Y-124000000D01*
X108750000Y-114000000D02*
X129000000Y-114000000D01*
X108750000Y-124000000D02*
X129000000Y-124000000D01*
X108750000Y-114000000D02*
X108750000Y-124000000D01*
X85000000Y-47000000D02*
X85000000Y-57000000D01*
X64750000Y-47000000D02*
X85000000Y-47000000D01*
X64750000Y-57000000D02*
X85000000Y-57000000D01*
X64750000Y-47000000D02*
X64750000Y-57000000D01*
X132000000Y-112000000D02*
X132000000Y-102000000D01*
X152250000Y-112000000D02*
X132000000Y-112000000D01*
X152250000Y-102000000D02*
X132000000Y-102000000D01*
X152250000Y-112000000D02*
X152250000Y-102000000D01*
X82750000Y-94000000D02*
X82000000Y-97500000D01*
X83500000Y-94000000D02*
X82500000Y-100000000D01*
X84500000Y-94000000D02*
X83500000Y-100000000D01*
X85250000Y-94000000D02*
X84250000Y-100000000D01*
X86250000Y-94000000D02*
X85250000Y-100000000D01*
X87250000Y-94000000D02*
X86250000Y-100000000D01*
X88000000Y-94000000D02*
X87250000Y-100000000D01*
X95250000Y-94000000D02*
X96000000Y-97500000D01*
X94500000Y-94000000D02*
X95500000Y-100000000D01*
X93500000Y-94000000D02*
X94500000Y-100000000D01*
X92500000Y-94000000D02*
X93500000Y-100000000D01*
X91750000Y-94000000D02*
X92750000Y-100000000D01*
X91000000Y-94000000D02*
X91750000Y-100000000D01*
X90250000Y-94000000D02*
X90750000Y-100000000D01*
X88750000Y-94000000D02*
X88250000Y-100000000D01*
X89500000Y-94000000D02*
X89750000Y-100000000D01*
X89000000Y-94000000D02*
X96000000Y-94000000D01*
X96000000Y-94000000D02*
X96000000Y-100000000D01*
X96000000Y-100000000D02*
X82000000Y-100000000D01*
X82000000Y-100000000D02*
X82000000Y-94000000D01*
X82000000Y-94000000D02*
X89000000Y-94000000D01*
D15*
X102500380Y-140000000D02*
G75*
G03X102500380Y-140000000I-500380J0D01*
G01*
X103501140Y-140000000D02*
G75*
G03X103501140Y-140000000I-1501140J0D01*
G01*
D16*
X104548957Y-140000000D02*
G75*
G03X104548957Y-140000000I-2548957J0D01*
G01*
X99000260Y-137000260D02*
X104999740Y-137000260D01*
X104999740Y-137000260D02*
X104999740Y-142999740D01*
X104999740Y-142999740D02*
X99000260Y-142999740D01*
X99000260Y-142999740D02*
X99000260Y-137000260D01*
X104371904Y-140000000D02*
G75*
G03X104371904Y-140000000I-2371904J0D01*
G01*
D15*
X139500380Y-140000000D02*
G75*
G03X139500380Y-140000000I-500380J0D01*
G01*
X140501140Y-140000000D02*
G75*
G03X140501140Y-140000000I-1501140J0D01*
G01*
D16*
X141548957Y-140000000D02*
G75*
G03X141548957Y-140000000I-2548957J0D01*
G01*
X136000260Y-137000260D02*
X141999740Y-137000260D01*
X141999740Y-137000260D02*
X141999740Y-142999740D01*
X141999740Y-142999740D02*
X136000260Y-142999740D01*
X136000260Y-142999740D02*
X136000260Y-137000260D01*
X141371904Y-140000000D02*
G75*
G03X141371904Y-140000000I-2371904J0D01*
G01*
D15*
X87500380Y-140000000D02*
G75*
G03X87500380Y-140000000I-500380J0D01*
G01*
X88501140Y-140000000D02*
G75*
G03X88501140Y-140000000I-1501140J0D01*
G01*
D16*
X89548957Y-140000000D02*
G75*
G03X89548957Y-140000000I-2548957J0D01*
G01*
X84000260Y-137000260D02*
X89999740Y-137000260D01*
X89999740Y-137000260D02*
X89999740Y-142999740D01*
X89999740Y-142999740D02*
X84000260Y-142999740D01*
X84000260Y-142999740D02*
X84000260Y-137000260D01*
X89371904Y-140000000D02*
G75*
G03X89371904Y-140000000I-2371904J0D01*
G01*
D13*
X82750000Y-83000000D02*
X82000000Y-86500000D01*
X83500000Y-83000000D02*
X82500000Y-89000000D01*
X84500000Y-83000000D02*
X83500000Y-89000000D01*
X85250000Y-83000000D02*
X84250000Y-89000000D01*
X86250000Y-83000000D02*
X85250000Y-89000000D01*
X87250000Y-83000000D02*
X86250000Y-89000000D01*
X88000000Y-83000000D02*
X87250000Y-89000000D01*
X95250000Y-83000000D02*
X96000000Y-86500000D01*
X94500000Y-83000000D02*
X95500000Y-89000000D01*
X93500000Y-83000000D02*
X94500000Y-89000000D01*
X92500000Y-83000000D02*
X93500000Y-89000000D01*
X91750000Y-83000000D02*
X92750000Y-89000000D01*
X91000000Y-83000000D02*
X91750000Y-89000000D01*
X90250000Y-83000000D02*
X90750000Y-89000000D01*
X88750000Y-83000000D02*
X88250000Y-89000000D01*
X89500000Y-83000000D02*
X89750000Y-89000000D01*
X89000000Y-83000000D02*
X96000000Y-83000000D01*
X96000000Y-83000000D02*
X96000000Y-89000000D01*
X96000000Y-89000000D02*
X82000000Y-89000000D01*
X82000000Y-89000000D02*
X82000000Y-83000000D01*
X82000000Y-83000000D02*
X89000000Y-83000000D01*
X79650000Y-142200000D02*
X80400000Y-138700000D01*
X78900000Y-142200000D02*
X79900000Y-136200000D01*
X77900000Y-142200000D02*
X78900000Y-136200000D01*
X77150000Y-142200000D02*
X78150000Y-136200000D01*
X76150000Y-142200000D02*
X77150000Y-136200000D01*
X75150000Y-142200000D02*
X76150000Y-136200000D01*
X74400000Y-142200000D02*
X75150000Y-136200000D01*
X67150000Y-142200000D02*
X66400000Y-138700000D01*
X67900000Y-142200000D02*
X66900000Y-136200000D01*
X68900000Y-142200000D02*
X67900000Y-136200000D01*
X69900000Y-142200000D02*
X68900000Y-136200000D01*
X70650000Y-142200000D02*
X69650000Y-136200000D01*
X71400000Y-142200000D02*
X70650000Y-136200000D01*
X72150000Y-142200000D02*
X71650000Y-136200000D01*
X73650000Y-142200000D02*
X74150000Y-136200000D01*
X72900000Y-142200000D02*
X72650000Y-136200000D01*
X73400000Y-142200000D02*
X66400000Y-142200000D01*
X66400000Y-142200000D02*
X66400000Y-136200000D01*
X66400000Y-136200000D02*
X80400000Y-136200000D01*
X80400000Y-136200000D02*
X80400000Y-142200000D01*
X80400000Y-142200000D02*
X73400000Y-142200000D01*
X84750000Y-61000000D02*
X84000000Y-64500000D01*
X85500000Y-61000000D02*
X84500000Y-67000000D01*
X86500000Y-61000000D02*
X85500000Y-67000000D01*
X87250000Y-61000000D02*
X86250000Y-67000000D01*
X88250000Y-61000000D02*
X87250000Y-67000000D01*
X89250000Y-61000000D02*
X88250000Y-67000000D01*
X90000000Y-61000000D02*
X89250000Y-67000000D01*
X97250000Y-61000000D02*
X98000000Y-64500000D01*
X96500000Y-61000000D02*
X97500000Y-67000000D01*
X95500000Y-61000000D02*
X96500000Y-67000000D01*
X94500000Y-61000000D02*
X95500000Y-67000000D01*
X93750000Y-61000000D02*
X94750000Y-67000000D01*
X93000000Y-61000000D02*
X93750000Y-67000000D01*
X92250000Y-61000000D02*
X92750000Y-67000000D01*
X90750000Y-61000000D02*
X90250000Y-67000000D01*
X91500000Y-61000000D02*
X91750000Y-67000000D01*
X91000000Y-61000000D02*
X98000000Y-61000000D01*
X98000000Y-61000000D02*
X98000000Y-67000000D01*
X98000000Y-67000000D02*
X84000000Y-67000000D01*
X84000000Y-67000000D02*
X84000000Y-61000000D01*
X84000000Y-61000000D02*
X91000000Y-61000000D01*
X82750000Y-72000000D02*
X82000000Y-75500000D01*
X83500000Y-72000000D02*
X82500000Y-78000000D01*
X84500000Y-72000000D02*
X83500000Y-78000000D01*
X85250000Y-72000000D02*
X84250000Y-78000000D01*
X86250000Y-72000000D02*
X85250000Y-78000000D01*
X87250000Y-72000000D02*
X86250000Y-78000000D01*
X88000000Y-72000000D02*
X87250000Y-78000000D01*
X95250000Y-72000000D02*
X96000000Y-75500000D01*
X94500000Y-72000000D02*
X95500000Y-78000000D01*
X93500000Y-72000000D02*
X94500000Y-78000000D01*
X92500000Y-72000000D02*
X93500000Y-78000000D01*
X91750000Y-72000000D02*
X92750000Y-78000000D01*
X91000000Y-72000000D02*
X91750000Y-78000000D01*
X90250000Y-72000000D02*
X90750000Y-78000000D01*
X88750000Y-72000000D02*
X88250000Y-78000000D01*
X89500000Y-72000000D02*
X89750000Y-78000000D01*
X89000000Y-72000000D02*
X96000000Y-72000000D01*
X96000000Y-72000000D02*
X96000000Y-78000000D01*
X96000000Y-78000000D02*
X82000000Y-78000000D01*
X82000000Y-78000000D02*
X82000000Y-72000000D01*
X82000000Y-72000000D02*
X89000000Y-72000000D01*
X84750000Y-105000000D02*
X84000000Y-108500000D01*
X85500000Y-105000000D02*
X84500000Y-111000000D01*
X86500000Y-105000000D02*
X85500000Y-111000000D01*
X87250000Y-105000000D02*
X86250000Y-111000000D01*
X88250000Y-105000000D02*
X87250000Y-111000000D01*
X89250000Y-105000000D02*
X88250000Y-111000000D01*
X90000000Y-105000000D02*
X89250000Y-111000000D01*
X97250000Y-105000000D02*
X98000000Y-108500000D01*
X96500000Y-105000000D02*
X97500000Y-111000000D01*
X95500000Y-105000000D02*
X96500000Y-111000000D01*
X94500000Y-105000000D02*
X95500000Y-111000000D01*
X93750000Y-105000000D02*
X94750000Y-111000000D01*
X93000000Y-105000000D02*
X93750000Y-111000000D01*
X92250000Y-105000000D02*
X92750000Y-111000000D01*
X90750000Y-105000000D02*
X90250000Y-111000000D01*
X91500000Y-105000000D02*
X91750000Y-111000000D01*
X91000000Y-105000000D02*
X98000000Y-105000000D01*
X98000000Y-105000000D02*
X98000000Y-111000000D01*
X98000000Y-111000000D02*
X84000000Y-111000000D01*
X84000000Y-111000000D02*
X84000000Y-105000000D01*
X84000000Y-105000000D02*
X91000000Y-105000000D01*
X77250000Y-131500000D02*
X78000000Y-128000000D01*
X76500000Y-131500000D02*
X77500000Y-125500000D01*
X75500000Y-131500000D02*
X76500000Y-125500000D01*
X74750000Y-131500000D02*
X75750000Y-125500000D01*
X73750000Y-131500000D02*
X74750000Y-125500000D01*
X72750000Y-131500000D02*
X73750000Y-125500000D01*
X72000000Y-131500000D02*
X72750000Y-125500000D01*
X64750000Y-131500000D02*
X64000000Y-128000000D01*
X65500000Y-131500000D02*
X64500000Y-125500000D01*
X66500000Y-131500000D02*
X65500000Y-125500000D01*
X67500000Y-131500000D02*
X66500000Y-125500000D01*
X68250000Y-131500000D02*
X67250000Y-125500000D01*
X69000000Y-131500000D02*
X68250000Y-125500000D01*
X69750000Y-131500000D02*
X69250000Y-125500000D01*
X71250000Y-131500000D02*
X71750000Y-125500000D01*
X70500000Y-131500000D02*
X70250000Y-125500000D01*
X71000000Y-131500000D02*
X64000000Y-131500000D01*
X64000000Y-131500000D02*
X64000000Y-125500000D01*
X64000000Y-125500000D02*
X78000000Y-125500000D01*
X78000000Y-125500000D02*
X78000000Y-131500000D01*
X78000000Y-131500000D02*
X71000000Y-131500000D01*
X115750000Y-72000000D02*
X115000000Y-75500000D01*
X116500000Y-72000000D02*
X115500000Y-78000000D01*
X117500000Y-72000000D02*
X116500000Y-78000000D01*
X118250000Y-72000000D02*
X117250000Y-78000000D01*
X119250000Y-72000000D02*
X118250000Y-78000000D01*
X120250000Y-72000000D02*
X119250000Y-78000000D01*
X121000000Y-72000000D02*
X120250000Y-78000000D01*
X128250000Y-72000000D02*
X129000000Y-75500000D01*
X127500000Y-72000000D02*
X128500000Y-78000000D01*
X126500000Y-72000000D02*
X127500000Y-78000000D01*
X125500000Y-72000000D02*
X126500000Y-78000000D01*
X124750000Y-72000000D02*
X125750000Y-78000000D01*
X124000000Y-72000000D02*
X124750000Y-78000000D01*
X123250000Y-72000000D02*
X123750000Y-78000000D01*
X121750000Y-72000000D02*
X121250000Y-78000000D01*
X122500000Y-72000000D02*
X122750000Y-78000000D01*
X122000000Y-72000000D02*
X129000000Y-72000000D01*
X129000000Y-72000000D02*
X129000000Y-78000000D01*
X129000000Y-78000000D02*
X115000000Y-78000000D01*
X115000000Y-78000000D02*
X115000000Y-72000000D01*
X115000000Y-72000000D02*
X122000000Y-72000000D01*
X112750000Y-105000000D02*
X112000000Y-108500000D01*
X113500000Y-105000000D02*
X112500000Y-111000000D01*
X114500000Y-105000000D02*
X113500000Y-111000000D01*
X115250000Y-105000000D02*
X114250000Y-111000000D01*
X116250000Y-105000000D02*
X115250000Y-111000000D01*
X117250000Y-105000000D02*
X116250000Y-111000000D01*
X118000000Y-105000000D02*
X117250000Y-111000000D01*
X125250000Y-105000000D02*
X126000000Y-108500000D01*
X124500000Y-105000000D02*
X125500000Y-111000000D01*
X123500000Y-105000000D02*
X124500000Y-111000000D01*
X122500000Y-105000000D02*
X123500000Y-111000000D01*
X121750000Y-105000000D02*
X122750000Y-111000000D01*
X121000000Y-105000000D02*
X121750000Y-111000000D01*
X120250000Y-105000000D02*
X120750000Y-111000000D01*
X118750000Y-105000000D02*
X118250000Y-111000000D01*
X119500000Y-105000000D02*
X119750000Y-111000000D01*
X119000000Y-105000000D02*
X126000000Y-105000000D01*
X126000000Y-105000000D02*
X126000000Y-111000000D01*
X126000000Y-111000000D02*
X112000000Y-111000000D01*
X112000000Y-111000000D02*
X112000000Y-105000000D01*
X112000000Y-105000000D02*
X119000000Y-105000000D01*
X72250000Y-121000000D02*
X73000000Y-117500000D01*
X71500000Y-121000000D02*
X72500000Y-115000000D01*
X70500000Y-121000000D02*
X71500000Y-115000000D01*
X69750000Y-121000000D02*
X70750000Y-115000000D01*
X68750000Y-121000000D02*
X69750000Y-115000000D01*
X67750000Y-121000000D02*
X68750000Y-115000000D01*
X67000000Y-121000000D02*
X67750000Y-115000000D01*
X59750000Y-121000000D02*
X59000000Y-117500000D01*
X60500000Y-121000000D02*
X59500000Y-115000000D01*
X61500000Y-121000000D02*
X60500000Y-115000000D01*
X62500000Y-121000000D02*
X61500000Y-115000000D01*
X63250000Y-121000000D02*
X62250000Y-115000000D01*
X64000000Y-121000000D02*
X63250000Y-115000000D01*
X64750000Y-121000000D02*
X64250000Y-115000000D01*
X66250000Y-121000000D02*
X66750000Y-115000000D01*
X65500000Y-121000000D02*
X65250000Y-115000000D01*
X66000000Y-121000000D02*
X59000000Y-121000000D01*
X59000000Y-121000000D02*
X59000000Y-115000000D01*
X59000000Y-115000000D02*
X73000000Y-115000000D01*
X73000000Y-115000000D02*
X73000000Y-121000000D01*
X73000000Y-121000000D02*
X66000000Y-121000000D01*
X83000000Y-131000000D02*
X83000000Y-121000000D01*
X103250000Y-131000000D02*
X83000000Y-131000000D01*
X103250000Y-121000000D02*
X83000000Y-121000000D01*
X103250000Y-131000000D02*
X103250000Y-121000000D01*
X81000000Y-58000000D02*
X81000000Y-68000000D01*
X60750000Y-58000000D02*
X81000000Y-58000000D01*
X60750000Y-68000000D02*
X81000000Y-68000000D01*
X60750000Y-58000000D02*
X60750000Y-68000000D01*
X79000000Y-69000000D02*
X79000000Y-79000000D01*
X58750000Y-69000000D02*
X79000000Y-69000000D01*
X58750000Y-79000000D02*
X79000000Y-79000000D01*
X58750000Y-69000000D02*
X58750000Y-79000000D01*
X79000000Y-80000000D02*
X79000000Y-90000000D01*
X58750000Y-80000000D02*
X79000000Y-80000000D01*
X58750000Y-90000000D02*
X79000000Y-90000000D01*
X58750000Y-80000000D02*
X58750000Y-90000000D01*
X79000000Y-91000000D02*
X79000000Y-101000000D01*
X58750000Y-91000000D02*
X79000000Y-91000000D01*
X58750000Y-101000000D02*
X79000000Y-101000000D01*
X58750000Y-91000000D02*
X58750000Y-101000000D01*
X79000000Y-102000000D02*
X79000000Y-112000000D01*
X58750000Y-102000000D02*
X79000000Y-102000000D01*
X58750000Y-112000000D02*
X79000000Y-112000000D01*
X58750000Y-102000000D02*
X58750000Y-112000000D01*
X124500000Y-57000000D02*
X124500000Y-47000000D01*
X144750000Y-57000000D02*
X124500000Y-57000000D01*
X144750000Y-47000000D02*
X124500000Y-47000000D01*
X144750000Y-57000000D02*
X144750000Y-47000000D01*
X129000000Y-68000000D02*
X129000000Y-58000000D01*
X149250000Y-68000000D02*
X129000000Y-68000000D01*
X149250000Y-58000000D02*
X129000000Y-58000000D01*
X149250000Y-68000000D02*
X149250000Y-58000000D01*
X132000000Y-90000000D02*
X132000000Y-80000000D01*
X152250000Y-90000000D02*
X132000000Y-90000000D01*
X152250000Y-80000000D02*
X132000000Y-80000000D01*
X152250000Y-90000000D02*
X152250000Y-80000000D01*
X132000000Y-101000000D02*
X132000000Y-91000000D01*
X152250000Y-101000000D02*
X132000000Y-101000000D01*
X152250000Y-91000000D02*
X132000000Y-91000000D01*
X152250000Y-101000000D02*
X152250000Y-91000000D01*
X132000000Y-124000000D02*
X132000000Y-114000000D01*
X152250000Y-124000000D02*
X132000000Y-124000000D01*
X152250000Y-114000000D02*
X132000000Y-114000000D01*
X152250000Y-124000000D02*
X152250000Y-114000000D01*
X98459262Y-89298097D02*
X100403806Y-92303301D01*
X98989592Y-88767767D02*
X102525126Y-93717514D01*
X99696699Y-88060660D02*
X103232233Y-93010408D01*
X100227029Y-87530330D02*
X103762563Y-92480078D01*
X100934136Y-86823223D02*
X104469670Y-91772971D01*
X101641243Y-86116117D02*
X105176777Y-91065864D01*
X102171573Y-85585786D02*
X105883883Y-90358757D01*
X107298097Y-80459262D02*
X110303301Y-82403806D01*
X106767767Y-80989592D02*
X111717514Y-84525126D01*
X106060660Y-81696699D02*
X111010408Y-85232233D01*
X105353553Y-82403806D02*
X110303301Y-85939340D01*
X104823223Y-82934136D02*
X109772971Y-86469670D01*
X104292893Y-83464466D02*
X109065864Y-87176777D01*
X103762563Y-83994796D02*
X108358757Y-87883883D01*
X102701903Y-85055456D02*
X106590990Y-89651650D01*
X103232233Y-84525126D02*
X107651650Y-88590990D01*
X102878680Y-84878680D02*
X107828427Y-79928932D01*
X107828427Y-79928932D02*
X112071068Y-84171573D01*
X112071068Y-84171573D02*
X102171573Y-94071068D01*
X102171573Y-94071068D02*
X97928932Y-89828427D01*
X97928932Y-89828427D02*
X102878680Y-84878680D01*
D17*
X114563371Y-58343810D02*
X114150978Y-58581905D01*
X113650978Y-57715880D01*
X115305679Y-57915238D02*
X114810807Y-58200953D01*
X115058242Y-58058096D02*
X114558242Y-57192071D01*
X114547192Y-57363407D01*
X114512333Y-57493505D01*
X114453664Y-57582363D01*
X115341789Y-56739690D02*
X115424268Y-56692070D01*
X115530556Y-56685690D01*
X115595605Y-56703120D01*
X115684463Y-56761789D01*
X115820941Y-56902937D01*
X115939989Y-57109134D01*
X115993987Y-57297900D01*
X116000367Y-57404188D01*
X115982937Y-57469237D01*
X115924268Y-57558095D01*
X115841789Y-57605715D01*
X115735501Y-57612095D01*
X115670452Y-57594665D01*
X115581594Y-57535996D01*
X115445117Y-57394848D01*
X115326069Y-57188651D01*
X115272070Y-56999885D01*
X115265690Y-56893597D01*
X115283120Y-56828548D01*
X115341789Y-56739690D01*
X93175765Y-57905714D02*
X92763371Y-58143810D01*
X92263371Y-57277785D01*
X92881961Y-56920642D02*
X93418072Y-56611118D01*
X93319872Y-57107699D01*
X93443591Y-57036270D01*
X93549879Y-57029890D01*
X93614928Y-57047320D01*
X93703787Y-57105990D01*
X93822834Y-57312186D01*
X93829214Y-57418474D01*
X93811784Y-57483523D01*
X93753115Y-57572381D01*
X93505679Y-57715238D01*
X93399391Y-57721618D01*
X93334342Y-57704188D01*
X114857143Y-68702381D02*
X114380952Y-68702381D01*
X114380952Y-67702381D01*
X115714286Y-68702381D02*
X115142857Y-68702381D01*
X115428571Y-68702381D02*
X115428571Y-67702381D01*
X115333333Y-67845238D01*
X115238095Y-67940476D01*
X115142857Y-67988095D01*
X116666667Y-68702381D02*
X116095238Y-68702381D01*
X116380952Y-68702381D02*
X116380952Y-67702381D01*
X116285714Y-67845238D01*
X116190476Y-67940476D01*
X116095238Y-67988095D01*
X117857143Y-90702381D02*
X117380952Y-90702381D01*
X117380952Y-89702381D01*
X118714286Y-90702381D02*
X118142857Y-90702381D01*
X118428571Y-90702381D02*
X118428571Y-89702381D01*
X118333333Y-89845238D01*
X118238095Y-89940476D01*
X118142857Y-89988095D01*
X119571429Y-89702381D02*
X119380952Y-89702381D01*
X119285714Y-89750000D01*
X119238095Y-89797619D01*
X119142857Y-89940476D01*
X119095238Y-90130952D01*
X119095238Y-90511905D01*
X119142857Y-90607143D01*
X119190476Y-90654762D01*
X119285714Y-90702381D01*
X119476191Y-90702381D01*
X119571429Y-90654762D01*
X119619048Y-90607143D01*
X119666667Y-90511905D01*
X119666667Y-90273810D01*
X119619048Y-90178571D01*
X119571429Y-90130952D01*
X119476191Y-90083333D01*
X119285714Y-90083333D01*
X119190476Y-90130952D01*
X119142857Y-90178571D01*
X119095238Y-90273810D01*
D13*
X120166667Y-127202381D02*
X120166667Y-127916667D01*
X120119047Y-128059524D01*
X120023809Y-128154762D01*
X119880952Y-128202381D01*
X119785714Y-128202381D01*
X121166667Y-128202381D02*
X120595238Y-128202381D01*
X120880952Y-128202381D02*
X120880952Y-127202381D01*
X120785714Y-127345238D01*
X120690476Y-127440476D01*
X120595238Y-127488095D01*
D14*
X125765715Y-128732381D02*
X125194286Y-128732381D01*
X125480000Y-128732381D02*
X125480000Y-127732381D01*
X125384762Y-127875238D01*
X125289524Y-127970476D01*
X125194286Y-128018095D01*
D13*
X144952381Y-75047619D02*
X144476190Y-75380953D01*
X144952381Y-75619048D02*
X143952381Y-75619048D01*
X143952381Y-75238095D01*
X144000000Y-75142857D01*
X144047619Y-75095238D01*
X144142857Y-75047619D01*
X144285714Y-75047619D01*
X144380952Y-75095238D01*
X144428571Y-75142857D01*
X144476190Y-75238095D01*
X144476190Y-75619048D01*
X144952381Y-74142857D02*
X144952381Y-74619048D01*
X143952381Y-74619048D01*
X144952381Y-73285714D02*
X144952381Y-73857143D01*
X144952381Y-73571429D02*
X143952381Y-73571429D01*
X144095238Y-73666667D01*
X144190476Y-73761905D01*
X144238095Y-73857143D01*
X144952381Y-72333333D02*
X144952381Y-72904762D01*
X144952381Y-72619048D02*
X143952381Y-72619048D01*
X144095238Y-72714286D01*
X144190476Y-72809524D01*
X144238095Y-72904762D01*
D17*
X117857143Y-101702381D02*
X117380952Y-101702381D01*
X117380952Y-100702381D01*
X118714286Y-101702381D02*
X118142857Y-101702381D01*
X118428571Y-101702381D02*
X118428571Y-100702381D01*
X118333333Y-100845238D01*
X118238095Y-100940476D01*
X118142857Y-100988095D01*
X119047619Y-100702381D02*
X119666667Y-100702381D01*
X119333333Y-101083333D01*
X119476191Y-101083333D01*
X119571429Y-101130952D01*
X119619048Y-101178571D01*
X119666667Y-101273810D01*
X119666667Y-101511905D01*
X119619048Y-101607143D01*
X119571429Y-101654762D01*
X119476191Y-101702381D01*
X119190476Y-101702381D01*
X119095238Y-101654762D01*
X119047619Y-101607143D01*
D13*
X116952381Y-119571428D02*
X116476190Y-119904762D01*
X116952381Y-120142857D02*
X115952381Y-120142857D01*
X115952381Y-119761904D01*
X116000000Y-119666666D01*
X116047619Y-119619047D01*
X116142857Y-119571428D01*
X116285714Y-119571428D01*
X116380952Y-119619047D01*
X116428571Y-119666666D01*
X116476190Y-119761904D01*
X116476190Y-120142857D01*
X116952381Y-118666666D02*
X116952381Y-119142857D01*
X115952381Y-119142857D01*
X116380952Y-118190476D02*
X116333333Y-118285714D01*
X116285714Y-118333333D01*
X116190476Y-118380952D01*
X116142857Y-118380952D01*
X116047619Y-118333333D01*
X116000000Y-118285714D01*
X115952381Y-118190476D01*
X115952381Y-117999999D01*
X116000000Y-117904761D01*
X116047619Y-117857142D01*
X116142857Y-117809523D01*
X116190476Y-117809523D01*
X116285714Y-117857142D01*
X116333333Y-117904761D01*
X116380952Y-117999999D01*
X116380952Y-118190476D01*
X116428571Y-118285714D01*
X116476190Y-118333333D01*
X116571429Y-118380952D01*
X116761905Y-118380952D01*
X116857143Y-118333333D01*
X116904762Y-118285714D01*
X116952381Y-118190476D01*
X116952381Y-117999999D01*
X116904762Y-117904761D01*
X116857143Y-117857142D01*
X116761905Y-117809523D01*
X116571429Y-117809523D01*
X116476190Y-117857142D01*
X116428571Y-117904761D01*
X116380952Y-117999999D01*
X72952381Y-52571428D02*
X72476190Y-52904762D01*
X72952381Y-53142857D02*
X71952381Y-53142857D01*
X71952381Y-52761904D01*
X72000000Y-52666666D01*
X72047619Y-52619047D01*
X72142857Y-52571428D01*
X72285714Y-52571428D01*
X72380952Y-52619047D01*
X72428571Y-52666666D01*
X72476190Y-52761904D01*
X72476190Y-53142857D01*
X72952381Y-51666666D02*
X72952381Y-52142857D01*
X71952381Y-52142857D01*
X72047619Y-51380952D02*
X72000000Y-51333333D01*
X71952381Y-51238095D01*
X71952381Y-50999999D01*
X72000000Y-50904761D01*
X72047619Y-50857142D01*
X72142857Y-50809523D01*
X72238095Y-50809523D01*
X72380952Y-50857142D01*
X72952381Y-51428571D01*
X72952381Y-50809523D01*
X144952381Y-108047619D02*
X144476190Y-108380953D01*
X144952381Y-108619048D02*
X143952381Y-108619048D01*
X143952381Y-108238095D01*
X144000000Y-108142857D01*
X144047619Y-108095238D01*
X144142857Y-108047619D01*
X144285714Y-108047619D01*
X144380952Y-108095238D01*
X144428571Y-108142857D01*
X144476190Y-108238095D01*
X144476190Y-108619048D01*
X144952381Y-107142857D02*
X144952381Y-107619048D01*
X143952381Y-107619048D01*
X144952381Y-106285714D02*
X144952381Y-106857143D01*
X144952381Y-106571429D02*
X143952381Y-106571429D01*
X144095238Y-106666667D01*
X144190476Y-106761905D01*
X144238095Y-106857143D01*
X144285714Y-105428571D02*
X144952381Y-105428571D01*
X143904762Y-105666667D02*
X144619048Y-105904762D01*
X144619048Y-105285714D01*
D17*
X85333334Y-101702381D02*
X84857143Y-101702381D01*
X84857143Y-100702381D01*
X86095239Y-100702381D02*
X85904762Y-100702381D01*
X85809524Y-100750000D01*
X85761905Y-100797619D01*
X85666667Y-100940476D01*
X85619048Y-101130952D01*
X85619048Y-101511905D01*
X85666667Y-101607143D01*
X85714286Y-101654762D01*
X85809524Y-101702381D01*
X86000001Y-101702381D01*
X86095239Y-101654762D01*
X86142858Y-101607143D01*
X86190477Y-101511905D01*
X86190477Y-101273810D01*
X86142858Y-101178571D01*
X86095239Y-101130952D01*
X86000001Y-101083333D01*
X85809524Y-101083333D01*
X85714286Y-101130952D01*
X85666667Y-101178571D01*
X85619048Y-101273810D01*
D10*
X101880953Y-136476190D02*
X101880953Y-135976190D01*
X102071429Y-135976190D01*
X102119048Y-136000000D01*
X102142857Y-136023810D01*
X102166667Y-136071429D01*
X102166667Y-136142857D01*
X102142857Y-136190476D01*
X102119048Y-136214286D01*
X102071429Y-136238095D01*
X101880953Y-136238095D01*
X102642857Y-136476190D02*
X102357143Y-136476190D01*
X102500000Y-136476190D02*
X102500000Y-135976190D01*
X102452381Y-136047619D01*
X102404762Y-136095238D01*
X102357143Y-136119048D01*
X138880953Y-136226190D02*
X138880953Y-135726190D01*
X139071429Y-135726190D01*
X139119048Y-135750000D01*
X139142857Y-135773810D01*
X139166667Y-135821429D01*
X139166667Y-135892857D01*
X139142857Y-135940476D01*
X139119048Y-135964286D01*
X139071429Y-135988095D01*
X138880953Y-135988095D01*
X139333334Y-135726190D02*
X139642857Y-135726190D01*
X139476191Y-135916667D01*
X139547619Y-135916667D01*
X139595238Y-135940476D01*
X139619048Y-135964286D01*
X139642857Y-136011905D01*
X139642857Y-136130952D01*
X139619048Y-136178571D01*
X139595238Y-136202381D01*
X139547619Y-136226190D01*
X139404762Y-136226190D01*
X139357143Y-136202381D01*
X139333334Y-136178571D01*
X86880953Y-136476190D02*
X86880953Y-135976190D01*
X87071429Y-135976190D01*
X87119048Y-136000000D01*
X87142857Y-136023810D01*
X87166667Y-136071429D01*
X87166667Y-136142857D01*
X87142857Y-136190476D01*
X87119048Y-136214286D01*
X87071429Y-136238095D01*
X86880953Y-136238095D01*
X87595238Y-136142857D02*
X87595238Y-136476190D01*
X87476191Y-135952381D02*
X87357143Y-136309524D01*
X87666667Y-136309524D01*
D17*
X85333334Y-90702381D02*
X84857143Y-90702381D01*
X84857143Y-89702381D01*
X86190477Y-90702381D02*
X85619048Y-90702381D01*
X85904762Y-90702381D02*
X85904762Y-89702381D01*
X85809524Y-89845238D01*
X85714286Y-89940476D01*
X85619048Y-89988095D01*
X76733334Y-135402381D02*
X76257143Y-135402381D01*
X76257143Y-134402381D01*
X77019048Y-134497619D02*
X77066667Y-134450000D01*
X77161905Y-134402381D01*
X77400001Y-134402381D01*
X77495239Y-134450000D01*
X77542858Y-134497619D01*
X77590477Y-134592857D01*
X77590477Y-134688095D01*
X77542858Y-134830952D01*
X76971429Y-135402381D01*
X77590477Y-135402381D01*
X87333334Y-68702381D02*
X86857143Y-68702381D01*
X86857143Y-67702381D01*
X88095239Y-68035714D02*
X88095239Y-68702381D01*
X87857143Y-67654762D02*
X87619048Y-68369048D01*
X88238096Y-68369048D01*
X85333334Y-79702381D02*
X84857143Y-79702381D01*
X84857143Y-78702381D01*
X86142858Y-78702381D02*
X85666667Y-78702381D01*
X85619048Y-79178571D01*
X85666667Y-79130952D01*
X85761905Y-79083333D01*
X86000001Y-79083333D01*
X86095239Y-79130952D01*
X86142858Y-79178571D01*
X86190477Y-79273810D01*
X86190477Y-79511905D01*
X86142858Y-79607143D01*
X86095239Y-79654762D01*
X86000001Y-79702381D01*
X85761905Y-79702381D01*
X85666667Y-79654762D01*
X85619048Y-79607143D01*
X87333334Y-112702381D02*
X86857143Y-112702381D01*
X86857143Y-111702381D01*
X87571429Y-111702381D02*
X88238096Y-111702381D01*
X87809524Y-112702381D01*
X74333334Y-124702381D02*
X73857143Y-124702381D01*
X73857143Y-123702381D01*
X74809524Y-124130952D02*
X74714286Y-124083333D01*
X74666667Y-124035714D01*
X74619048Y-123940476D01*
X74619048Y-123892857D01*
X74666667Y-123797619D01*
X74714286Y-123750000D01*
X74809524Y-123702381D01*
X75000001Y-123702381D01*
X75095239Y-123750000D01*
X75142858Y-123797619D01*
X75190477Y-123892857D01*
X75190477Y-123940476D01*
X75142858Y-124035714D01*
X75095239Y-124083333D01*
X75000001Y-124130952D01*
X74809524Y-124130952D01*
X74714286Y-124178571D01*
X74666667Y-124226190D01*
X74619048Y-124321429D01*
X74619048Y-124511905D01*
X74666667Y-124607143D01*
X74714286Y-124654762D01*
X74809524Y-124702381D01*
X75000001Y-124702381D01*
X75095239Y-124654762D01*
X75142858Y-124607143D01*
X75190477Y-124511905D01*
X75190477Y-124321429D01*
X75142858Y-124226190D01*
X75095239Y-124178571D01*
X75000001Y-124130952D01*
X117857143Y-79702381D02*
X117380952Y-79702381D01*
X117380952Y-78702381D01*
X118714286Y-79702381D02*
X118142857Y-79702381D01*
X118428571Y-79702381D02*
X118428571Y-78702381D01*
X118333333Y-78845238D01*
X118238095Y-78940476D01*
X118142857Y-78988095D01*
X119095238Y-78797619D02*
X119142857Y-78750000D01*
X119238095Y-78702381D01*
X119476191Y-78702381D01*
X119571429Y-78750000D01*
X119619048Y-78797619D01*
X119666667Y-78892857D01*
X119666667Y-78988095D01*
X119619048Y-79130952D01*
X119047619Y-79702381D01*
X119666667Y-79702381D01*
X114857143Y-112702381D02*
X114380952Y-112702381D01*
X114380952Y-111702381D01*
X115714286Y-112702381D02*
X115142857Y-112702381D01*
X115428571Y-112702381D02*
X115428571Y-111702381D01*
X115333333Y-111845238D01*
X115238095Y-111940476D01*
X115142857Y-111988095D01*
X116571429Y-112035714D02*
X116571429Y-112702381D01*
X116333333Y-111654762D02*
X116095238Y-112369048D01*
X116714286Y-112369048D01*
X68857143Y-114202381D02*
X68380952Y-114202381D01*
X68380952Y-113202381D01*
X69714286Y-114202381D02*
X69142857Y-114202381D01*
X69428571Y-114202381D02*
X69428571Y-113202381D01*
X69333333Y-113345238D01*
X69238095Y-113440476D01*
X69142857Y-113488095D01*
X70619048Y-113202381D02*
X70142857Y-113202381D01*
X70095238Y-113678571D01*
X70142857Y-113630952D01*
X70238095Y-113583333D01*
X70476191Y-113583333D01*
X70571429Y-113630952D01*
X70619048Y-113678571D01*
X70666667Y-113773810D01*
X70666667Y-114011905D01*
X70619048Y-114107143D01*
X70571429Y-114154762D01*
X70476191Y-114202381D01*
X70238095Y-114202381D01*
X70142857Y-114154762D01*
X70095238Y-114107143D01*
D13*
X95952381Y-126571428D02*
X95476190Y-126904762D01*
X95952381Y-127142857D02*
X94952381Y-127142857D01*
X94952381Y-126761904D01*
X95000000Y-126666666D01*
X95047619Y-126619047D01*
X95142857Y-126571428D01*
X95285714Y-126571428D01*
X95380952Y-126619047D01*
X95428571Y-126666666D01*
X95476190Y-126761904D01*
X95476190Y-127142857D01*
X95952381Y-125666666D02*
X95952381Y-126142857D01*
X94952381Y-126142857D01*
X95952381Y-124809523D02*
X95952381Y-125380952D01*
X95952381Y-125095238D02*
X94952381Y-125095238D01*
X95095238Y-125190476D01*
X95190476Y-125285714D01*
X95238095Y-125380952D01*
X68952381Y-63571428D02*
X68476190Y-63904762D01*
X68952381Y-64142857D02*
X67952381Y-64142857D01*
X67952381Y-63761904D01*
X68000000Y-63666666D01*
X68047619Y-63619047D01*
X68142857Y-63571428D01*
X68285714Y-63571428D01*
X68380952Y-63619047D01*
X68428571Y-63666666D01*
X68476190Y-63761904D01*
X68476190Y-64142857D01*
X68952381Y-62666666D02*
X68952381Y-63142857D01*
X67952381Y-63142857D01*
X67952381Y-62428571D02*
X67952381Y-61809523D01*
X68333333Y-62142857D01*
X68333333Y-61999999D01*
X68380952Y-61904761D01*
X68428571Y-61857142D01*
X68523810Y-61809523D01*
X68761905Y-61809523D01*
X68857143Y-61857142D01*
X68904762Y-61904761D01*
X68952381Y-61999999D01*
X68952381Y-62285714D01*
X68904762Y-62380952D01*
X68857143Y-62428571D01*
X66952381Y-74571428D02*
X66476190Y-74904762D01*
X66952381Y-75142857D02*
X65952381Y-75142857D01*
X65952381Y-74761904D01*
X66000000Y-74666666D01*
X66047619Y-74619047D01*
X66142857Y-74571428D01*
X66285714Y-74571428D01*
X66380952Y-74619047D01*
X66428571Y-74666666D01*
X66476190Y-74761904D01*
X66476190Y-75142857D01*
X66952381Y-73666666D02*
X66952381Y-74142857D01*
X65952381Y-74142857D01*
X66285714Y-72904761D02*
X66952381Y-72904761D01*
X65904762Y-73142857D02*
X66619048Y-73380952D01*
X66619048Y-72761904D01*
X66952381Y-85571428D02*
X66476190Y-85904762D01*
X66952381Y-86142857D02*
X65952381Y-86142857D01*
X65952381Y-85761904D01*
X66000000Y-85666666D01*
X66047619Y-85619047D01*
X66142857Y-85571428D01*
X66285714Y-85571428D01*
X66380952Y-85619047D01*
X66428571Y-85666666D01*
X66476190Y-85761904D01*
X66476190Y-86142857D01*
X66952381Y-84666666D02*
X66952381Y-85142857D01*
X65952381Y-85142857D01*
X65952381Y-83857142D02*
X65952381Y-84333333D01*
X66428571Y-84380952D01*
X66380952Y-84333333D01*
X66333333Y-84238095D01*
X66333333Y-83999999D01*
X66380952Y-83904761D01*
X66428571Y-83857142D01*
X66523810Y-83809523D01*
X66761905Y-83809523D01*
X66857143Y-83857142D01*
X66904762Y-83904761D01*
X66952381Y-83999999D01*
X66952381Y-84238095D01*
X66904762Y-84333333D01*
X66857143Y-84380952D01*
X66952381Y-96571428D02*
X66476190Y-96904762D01*
X66952381Y-97142857D02*
X65952381Y-97142857D01*
X65952381Y-96761904D01*
X66000000Y-96666666D01*
X66047619Y-96619047D01*
X66142857Y-96571428D01*
X66285714Y-96571428D01*
X66380952Y-96619047D01*
X66428571Y-96666666D01*
X66476190Y-96761904D01*
X66476190Y-97142857D01*
X66952381Y-95666666D02*
X66952381Y-96142857D01*
X65952381Y-96142857D01*
X65952381Y-94904761D02*
X65952381Y-95095238D01*
X66000000Y-95190476D01*
X66047619Y-95238095D01*
X66190476Y-95333333D01*
X66380952Y-95380952D01*
X66761905Y-95380952D01*
X66857143Y-95333333D01*
X66904762Y-95285714D01*
X66952381Y-95190476D01*
X66952381Y-94999999D01*
X66904762Y-94904761D01*
X66857143Y-94857142D01*
X66761905Y-94809523D01*
X66523810Y-94809523D01*
X66428571Y-94857142D01*
X66380952Y-94904761D01*
X66333333Y-94999999D01*
X66333333Y-95190476D01*
X66380952Y-95285714D01*
X66428571Y-95333333D01*
X66523810Y-95380952D01*
X66952381Y-107571428D02*
X66476190Y-107904762D01*
X66952381Y-108142857D02*
X65952381Y-108142857D01*
X65952381Y-107761904D01*
X66000000Y-107666666D01*
X66047619Y-107619047D01*
X66142857Y-107571428D01*
X66285714Y-107571428D01*
X66380952Y-107619047D01*
X66428571Y-107666666D01*
X66476190Y-107761904D01*
X66476190Y-108142857D01*
X66952381Y-106666666D02*
X66952381Y-107142857D01*
X65952381Y-107142857D01*
X65952381Y-106428571D02*
X65952381Y-105761904D01*
X66952381Y-106190476D01*
X137452381Y-52571428D02*
X136976190Y-52904762D01*
X137452381Y-53142857D02*
X136452381Y-53142857D01*
X136452381Y-52761904D01*
X136500000Y-52666666D01*
X136547619Y-52619047D01*
X136642857Y-52571428D01*
X136785714Y-52571428D01*
X136880952Y-52619047D01*
X136928571Y-52666666D01*
X136976190Y-52761904D01*
X136976190Y-53142857D01*
X137452381Y-51666666D02*
X137452381Y-52142857D01*
X136452381Y-52142857D01*
X137452381Y-51285714D02*
X137452381Y-51095238D01*
X137404762Y-50999999D01*
X137357143Y-50952380D01*
X137214286Y-50857142D01*
X137023810Y-50809523D01*
X136642857Y-50809523D01*
X136547619Y-50857142D01*
X136500000Y-50904761D01*
X136452381Y-50999999D01*
X136452381Y-51190476D01*
X136500000Y-51285714D01*
X136547619Y-51333333D01*
X136642857Y-51380952D01*
X136880952Y-51380952D01*
X136976190Y-51333333D01*
X137023810Y-51285714D01*
X137071429Y-51190476D01*
X137071429Y-50999999D01*
X137023810Y-50904761D01*
X136976190Y-50857142D01*
X136880952Y-50809523D01*
X141952381Y-64047619D02*
X141476190Y-64380953D01*
X141952381Y-64619048D02*
X140952381Y-64619048D01*
X140952381Y-64238095D01*
X141000000Y-64142857D01*
X141047619Y-64095238D01*
X141142857Y-64047619D01*
X141285714Y-64047619D01*
X141380952Y-64095238D01*
X141428571Y-64142857D01*
X141476190Y-64238095D01*
X141476190Y-64619048D01*
X141952381Y-63142857D02*
X141952381Y-63619048D01*
X140952381Y-63619048D01*
X141952381Y-62285714D02*
X141952381Y-62857143D01*
X141952381Y-62571429D02*
X140952381Y-62571429D01*
X141095238Y-62666667D01*
X141190476Y-62761905D01*
X141238095Y-62857143D01*
X140952381Y-61666667D02*
X140952381Y-61571428D01*
X141000000Y-61476190D01*
X141047619Y-61428571D01*
X141142857Y-61380952D01*
X141333333Y-61333333D01*
X141571429Y-61333333D01*
X141761905Y-61380952D01*
X141857143Y-61428571D01*
X141904762Y-61476190D01*
X141952381Y-61571428D01*
X141952381Y-61666667D01*
X141904762Y-61761905D01*
X141857143Y-61809524D01*
X141761905Y-61857143D01*
X141571429Y-61904762D01*
X141333333Y-61904762D01*
X141142857Y-61857143D01*
X141047619Y-61809524D01*
X141000000Y-61761905D01*
X140952381Y-61666667D01*
X144952381Y-86047619D02*
X144476190Y-86380953D01*
X144952381Y-86619048D02*
X143952381Y-86619048D01*
X143952381Y-86238095D01*
X144000000Y-86142857D01*
X144047619Y-86095238D01*
X144142857Y-86047619D01*
X144285714Y-86047619D01*
X144380952Y-86095238D01*
X144428571Y-86142857D01*
X144476190Y-86238095D01*
X144476190Y-86619048D01*
X144952381Y-85142857D02*
X144952381Y-85619048D01*
X143952381Y-85619048D01*
X144952381Y-84285714D02*
X144952381Y-84857143D01*
X144952381Y-84571429D02*
X143952381Y-84571429D01*
X144095238Y-84666667D01*
X144190476Y-84761905D01*
X144238095Y-84857143D01*
X144047619Y-83904762D02*
X144000000Y-83857143D01*
X143952381Y-83761905D01*
X143952381Y-83523809D01*
X144000000Y-83428571D01*
X144047619Y-83380952D01*
X144142857Y-83333333D01*
X144238095Y-83333333D01*
X144380952Y-83380952D01*
X144952381Y-83952381D01*
X144952381Y-83333333D01*
X144952381Y-97047619D02*
X144476190Y-97380953D01*
X144952381Y-97619048D02*
X143952381Y-97619048D01*
X143952381Y-97238095D01*
X144000000Y-97142857D01*
X144047619Y-97095238D01*
X144142857Y-97047619D01*
X144285714Y-97047619D01*
X144380952Y-97095238D01*
X144428571Y-97142857D01*
X144476190Y-97238095D01*
X144476190Y-97619048D01*
X144952381Y-96142857D02*
X144952381Y-96619048D01*
X143952381Y-96619048D01*
X144952381Y-95285714D02*
X144952381Y-95857143D01*
X144952381Y-95571429D02*
X143952381Y-95571429D01*
X144095238Y-95666667D01*
X144190476Y-95761905D01*
X144238095Y-95857143D01*
X143952381Y-94952381D02*
X143952381Y-94333333D01*
X144333333Y-94666667D01*
X144333333Y-94523809D01*
X144380952Y-94428571D01*
X144428571Y-94380952D01*
X144523810Y-94333333D01*
X144761905Y-94333333D01*
X144857143Y-94380952D01*
X144904762Y-94428571D01*
X144952381Y-94523809D01*
X144952381Y-94809524D01*
X144904762Y-94904762D01*
X144857143Y-94952381D01*
X144952381Y-120047619D02*
X144476190Y-120380953D01*
X144952381Y-120619048D02*
X143952381Y-120619048D01*
X143952381Y-120238095D01*
X144000000Y-120142857D01*
X144047619Y-120095238D01*
X144142857Y-120047619D01*
X144285714Y-120047619D01*
X144380952Y-120095238D01*
X144428571Y-120142857D01*
X144476190Y-120238095D01*
X144476190Y-120619048D01*
X144952381Y-119142857D02*
X144952381Y-119619048D01*
X143952381Y-119619048D01*
X144952381Y-118285714D02*
X144952381Y-118857143D01*
X144952381Y-118571429D02*
X143952381Y-118571429D01*
X144095238Y-118666667D01*
X144190476Y-118761905D01*
X144238095Y-118857143D01*
X143952381Y-117380952D02*
X143952381Y-117857143D01*
X144428571Y-117904762D01*
X144380952Y-117857143D01*
X144333333Y-117761905D01*
X144333333Y-117523809D01*
X144380952Y-117428571D01*
X144428571Y-117380952D01*
X144523810Y-117333333D01*
X144761905Y-117333333D01*
X144857143Y-117380952D01*
X144904762Y-117428571D01*
X144952381Y-117523809D01*
X144952381Y-117761905D01*
X144904762Y-117857143D01*
X144857143Y-117904762D01*
D17*
X105732361Y-92917810D02*
X105395643Y-93254528D01*
X104688536Y-92547421D01*
X106001735Y-92648437D02*
X106136422Y-92513750D01*
X106170094Y-92412734D01*
X106170094Y-92345390D01*
X106136422Y-92177032D01*
X106035407Y-92008673D01*
X105766033Y-91739299D01*
X105665018Y-91705627D01*
X105597674Y-91705627D01*
X105496659Y-91739299D01*
X105361971Y-91873986D01*
X105328300Y-91975002D01*
X105328300Y-92042345D01*
X105361971Y-92143360D01*
X105530330Y-92311719D01*
X105631345Y-92345390D01*
X105698689Y-92345391D01*
X105799704Y-92311719D01*
X105934392Y-92177032D01*
X105968064Y-92076017D01*
X105968063Y-92008673D01*
X105934391Y-91907657D01*
D13*
X110452381Y-143538095D02*
X109452381Y-143538095D01*
X109452381Y-143157142D01*
X109500000Y-143061904D01*
X109547619Y-143014285D01*
X109642857Y-142966666D01*
X109785714Y-142966666D01*
X109880952Y-143014285D01*
X109928571Y-143061904D01*
X109976190Y-143157142D01*
X109976190Y-143538095D01*
X109547619Y-142585714D02*
X109500000Y-142538095D01*
X109452381Y-142442857D01*
X109452381Y-142204761D01*
X109500000Y-142109523D01*
X109547619Y-142061904D01*
X109642857Y-142014285D01*
X109738095Y-142014285D01*
X109880952Y-142061904D01*
X110452381Y-142633333D01*
X110452381Y-142014285D01*
X95452381Y-143538095D02*
X94452381Y-143538095D01*
X94452381Y-143157142D01*
X94500000Y-143061904D01*
X94547619Y-143014285D01*
X94642857Y-142966666D01*
X94785714Y-142966666D01*
X94880952Y-143014285D01*
X94928571Y-143061904D01*
X94976190Y-143157142D01*
X94976190Y-143538095D01*
X94452381Y-142061904D02*
X94452381Y-142538095D01*
X94928571Y-142585714D01*
X94880952Y-142538095D01*
X94833333Y-142442857D01*
X94833333Y-142204761D01*
X94880952Y-142109523D01*
X94928571Y-142061904D01*
X95023810Y-142014285D01*
X95261905Y-142014285D01*
X95357143Y-142061904D01*
X95404762Y-142109523D01*
X95452381Y-142204761D01*
X95452381Y-142442857D01*
X95404762Y-142538095D01*
X95357143Y-142585714D01*
M02*
