M48
;DRILL file {KiCad 4.0.7} date 07/05/18 18:33:26
;FORMAT={-:-/ absolute / inch / decimal}
FMAT,2
INCH,TZ
T1C0.012
T2C0.016
T3C0.039
T4C0.040
T5C0.051
T6C0.059
T7C0.138
%
G90
G05
M72
T1
X2.2047Y-2.126
X2.2047Y-2.1654
X2.2047Y-2.2047
X2.2047Y-2.2441
X2.2047Y-2.2835
X2.2047Y-2.3228
X2.2047Y-2.3622
X2.2047Y-2.4016
X2.2047Y-2.4409
X2.2047Y-2.4803
X2.2047Y-2.5197
X2.2047Y-2.5591
X2.2047Y-2.5984
X2.2047Y-2.6378
X2.2047Y-2.6772
X2.2047Y-2.7165
X2.2047Y-2.7559
X2.2047Y-2.7953
X2.2047Y-2.8346
X2.2047Y-2.874
X2.2047Y-2.9134
X2.2047Y-2.9528
X2.2047Y-2.9921
X2.2047Y-3.0315
X2.2047Y-3.0709
X2.2047Y-3.1102
X2.2047Y-3.1496
X2.2047Y-3.189
X2.2047Y-3.2283
X2.2047Y-3.2677
X2.2047Y-3.3071
X2.2047Y-3.3465
X2.2047Y-3.3858
X2.2047Y-3.4252
X2.2047Y-3.4646
X2.2047Y-3.5039
X2.2047Y-3.5433
X2.2047Y-3.5827
X2.2047Y-3.622
X2.2047Y-3.6614
X2.2047Y-3.7008
X2.2047Y-3.7402
X2.2047Y-3.7795
X2.2047Y-3.8189
X2.2047Y-3.8583
X2.2047Y-3.8976
X2.2047Y-3.937
X2.2047Y-3.9764
X2.2047Y-4.0157
X2.2047Y-4.0551
X2.2047Y-4.0945
X2.2047Y-4.1339
X2.2047Y-4.1732
X2.2047Y-4.2126
X2.2047Y-4.252
X2.2047Y-4.2913
X2.2047Y-4.3307
X2.2047Y-4.3701
X2.2047Y-4.4094
X2.2047Y-4.4488
X2.2047Y-4.4882
X2.2047Y-4.5276
X2.2047Y-4.5669
X2.2047Y-4.6063
X2.2047Y-4.6457
X2.2047Y-4.685
X2.2047Y-4.7244
X2.2047Y-4.7638
X2.2047Y-4.8031
X2.2047Y-4.8425
X2.2047Y-4.8819
X2.2047Y-4.9213
X2.2047Y-4.9606
X2.2047Y-5.
X2.2047Y-5.0394
X2.2047Y-5.0787
X2.2047Y-5.1181
X2.2047Y-5.1575
X2.2047Y-5.1969
X2.2047Y-5.2362
X2.2047Y-5.2756
X2.2047Y-5.315
X2.2047Y-5.3543
X2.2441Y-2.126
X2.2441Y-2.1654
X2.2441Y-2.2047
X2.2441Y-2.2441
X2.2441Y-2.2835
X2.2441Y-2.3228
X2.2441Y-2.3622
X2.2441Y-2.4016
X2.2441Y-2.4409
X2.2441Y-2.4803
X2.2441Y-2.5197
X2.2441Y-2.5591
X2.2441Y-2.5984
X2.2441Y-2.6378
X2.2441Y-2.6772
X2.2441Y-2.7165
X2.2441Y-2.7559
X2.2441Y-2.7953
X2.2441Y-2.8346
X2.2441Y-2.874
X2.2441Y-2.9134
X2.2441Y-2.9528
X2.2441Y-2.9921
X2.2441Y-3.0315
X2.2441Y-3.0709
X2.2441Y-3.1102
X2.2441Y-3.1496
X2.2441Y-3.189
X2.2441Y-3.2283
X2.2441Y-3.2677
X2.2441Y-3.3071
X2.2441Y-3.3465
X2.2441Y-3.3858
X2.2441Y-3.4252
X2.2441Y-3.4646
X2.2441Y-3.5039
X2.2441Y-3.5433
X2.2441Y-3.5827
X2.2441Y-3.622
X2.2441Y-3.6614
X2.2441Y-3.7008
X2.2441Y-3.7402
X2.2441Y-3.7795
X2.2441Y-3.8189
X2.2441Y-3.8583
X2.2441Y-3.8976
X2.2441Y-3.937
X2.2441Y-3.9764
X2.2441Y-4.0157
X2.2441Y-4.0551
X2.2441Y-4.0945
X2.2441Y-4.1339
X2.2441Y-4.1732
X2.2441Y-4.2126
X2.2441Y-4.252
X2.2441Y-4.2913
X2.2441Y-4.3307
X2.2441Y-4.3701
X2.2441Y-4.4094
X2.2441Y-4.4488
X2.2441Y-4.4882
X2.2441Y-4.5276
X2.2441Y-4.5669
X2.2441Y-4.6063
X2.2441Y-4.6457
X2.2441Y-4.685
X2.2441Y-4.7244
X2.2441Y-4.7638
X2.2441Y-4.8031
X2.2441Y-4.8425
X2.2441Y-4.8819
X2.2441Y-4.9213
X2.2441Y-4.9606
X2.2441Y-5.
X2.2441Y-5.0394
X2.2441Y-5.0787
X2.2441Y-5.1181
X2.2441Y-5.1575
X2.2441Y-5.1969
X2.2441Y-5.2362
X2.2441Y-5.2756
X2.2441Y-5.315
X2.2441Y-5.3543
X3.6024Y-5.4724
X3.6024Y-5.5118
X3.6024Y-5.5512
X3.6024Y-5.5906
X3.6024Y-5.6299
X3.6024Y-5.6693
X3.6417Y-5.4724
X3.6417Y-5.5118
X3.6417Y-5.5512
X3.6417Y-5.5906
X3.6417Y-5.6299
X3.6417Y-5.6693
X3.6811Y-5.4724
X3.6811Y-5.5118
X3.6811Y-5.5512
X3.6811Y-5.5906
X3.6811Y-5.6299
X3.6811Y-5.6693
X3.7205Y-5.4724
X3.7205Y-5.5118
X3.7205Y-5.5512
X3.7205Y-5.5906
X3.7205Y-5.6299
X3.7205Y-5.6693
X3.7598Y-5.4724
X3.7598Y-5.5118
X3.7598Y-5.5512
X3.7598Y-5.5906
X3.7598Y-5.6299
X3.7598Y-5.6693
X3.7992Y-5.4724
X3.7992Y-5.5118
X3.7992Y-5.5512
X3.7992Y-5.5906
X3.7992Y-5.6299
X3.7992Y-5.6693
X3.8386Y-5.4724
X3.8386Y-5.5118
X3.8386Y-5.5512
X3.8386Y-5.5906
X3.8386Y-5.6299
X3.8386Y-5.6693
X4.2126Y-5.4331
X4.2126Y-5.4724
X4.2126Y-5.5118
X4.2126Y-5.5512
X4.2126Y-5.5906
X4.2126Y-5.6299
X4.252Y-5.4331
X4.252Y-5.4724
X4.252Y-5.5118
X4.252Y-5.5512
X4.252Y-5.5906
X4.252Y-5.6299
X4.2913Y-5.4331
X4.2913Y-5.4724
X4.2913Y-5.5118
X4.2913Y-5.5512
X4.2913Y-5.5906
X4.2913Y-5.6299
X4.3307Y-5.4331
X4.3307Y-5.4724
X4.3307Y-5.5118
X4.3307Y-5.5512
X4.3307Y-5.5906
X4.3307Y-5.6299
X4.3701Y-5.4331
X4.3701Y-5.4724
X4.3701Y-5.5118
X4.3701Y-5.5512
X4.3701Y-5.5906
X4.3701Y-5.6299
X4.4094Y-5.4331
X4.4094Y-5.4724
X4.4094Y-5.5118
X4.4094Y-5.5512
X4.4094Y-5.5906
X4.4094Y-5.6299
X4.4488Y-5.4331
X4.4488Y-5.4724
X4.4488Y-5.5118
X4.4488Y-5.5512
X4.4488Y-5.5906
X4.4488Y-5.6299
X4.4882Y-5.4331
X4.4882Y-5.4724
X4.4882Y-5.5118
X4.4882Y-5.5512
X4.4882Y-5.5906
X4.4882Y-5.6299
X4.5276Y-5.4331
X4.5276Y-5.4724
X4.5276Y-5.5118
X4.5276Y-5.5512
X4.5276Y-5.5906
X4.5276Y-5.6299
X4.5669Y-5.4331
X4.5669Y-5.4724
X4.5669Y-5.5118
X4.5669Y-5.5512
X4.5669Y-5.5906
X4.5669Y-5.6299
X4.6063Y-5.4331
X4.6063Y-5.4724
X4.6063Y-5.5118
X4.6063Y-5.5512
X4.6063Y-5.5906
X4.6063Y-5.6299
X4.6457Y-5.4331
X4.6457Y-5.4724
X4.6457Y-5.5118
X4.6457Y-5.5512
X4.6457Y-5.5906
X4.6457Y-5.6299
X4.685Y-5.4331
X4.685Y-5.4724
X4.685Y-5.5118
X4.685Y-5.5512
X4.685Y-5.5906
X4.685Y-5.6299
X4.7244Y-5.4331
X4.7244Y-5.4724
X4.7244Y-5.5118
X4.7244Y-5.5512
X4.7244Y-5.5906
X4.7244Y-5.6299
X4.7638Y-5.4331
X4.7638Y-5.4724
X4.7638Y-5.5118
X4.7638Y-5.5512
X4.7638Y-5.5906
X4.7638Y-5.6299
X4.8031Y-5.4331
X4.8031Y-5.4724
X4.8031Y-5.5118
X4.8031Y-5.5512
X4.8031Y-5.5906
X4.8031Y-5.6299
X4.8425Y-5.4331
X4.8425Y-5.4724
X4.8425Y-5.5118
X4.8425Y-5.5512
X4.8425Y-5.5906
X4.8425Y-5.6299
X4.8819Y-5.4331
X4.8819Y-5.4724
X4.8819Y-5.5118
X4.8819Y-5.5512
X4.8819Y-5.5906
X4.8819Y-5.6299
X4.9213Y-5.4331
X4.9213Y-5.4724
X4.9213Y-5.5118
X4.9213Y-5.5512
X4.9213Y-5.5906
X4.9213Y-5.6299
X4.9606Y-5.4331
X4.9606Y-5.4724
X4.9606Y-5.5118
X4.9606Y-5.5512
X4.9606Y-5.5906
X4.9606Y-5.6299
X5.Y-5.4331
X5.Y-5.4724
X5.Y-5.5118
X5.Y-5.5512
X5.Y-5.5906
X5.Y-5.6299
X5.0394Y-5.4331
X5.0394Y-5.4724
X5.0394Y-5.5118
X5.0394Y-5.5512
X5.0394Y-5.5906
X5.0394Y-5.6299
X5.0787Y-5.4331
X5.0787Y-5.4724
X5.0787Y-5.5118
X5.0787Y-5.5512
X5.0787Y-5.5906
X5.0787Y-5.6299
X5.1181Y-5.4331
X5.1181Y-5.4724
X5.1181Y-5.5118
X5.1181Y-5.5512
X5.1181Y-5.5906
X5.1181Y-5.6299
X5.1575Y-5.4331
X5.1575Y-5.4724
X5.1575Y-5.5118
X5.1575Y-5.5512
X5.1575Y-5.5906
X5.1575Y-5.6299
X5.1969Y-5.4331
X5.1969Y-5.4724
X5.1969Y-5.5118
X5.1969Y-5.5512
X5.1969Y-5.5906
X5.1969Y-5.6299
X5.2362Y-5.4331
X5.2362Y-5.4724
X5.2362Y-5.5118
X5.2362Y-5.5512
X5.2362Y-5.5906
X5.2362Y-5.6299
X5.2756Y-5.4331
X5.2756Y-5.4724
X5.2756Y-5.5118
X5.2756Y-5.5512
X5.2756Y-5.5906
X5.2756Y-5.6299
X6.063Y-2.126
X6.063Y-2.1654
X6.063Y-2.2047
X6.063Y-2.2441
X6.063Y-2.2835
X6.063Y-2.3228
X6.063Y-2.3622
X6.063Y-2.4016
X6.063Y-2.4409
X6.063Y-2.4803
X6.063Y-2.5197
X6.063Y-2.5591
X6.063Y-2.5984
X6.063Y-2.6378
X6.063Y-2.6772
X6.063Y-2.7165
X6.063Y-2.7559
X6.063Y-2.7953
X6.063Y-2.8346
X6.063Y-2.874
X6.063Y-2.9134
X6.063Y-2.9528
X6.063Y-2.9921
X6.063Y-3.0315
X6.063Y-3.0709
X6.063Y-3.1102
X6.063Y-3.1496
X6.063Y-3.189
X6.063Y-3.2283
X6.063Y-3.2677
X6.063Y-3.3071
X6.063Y-3.3465
X6.063Y-3.3858
X6.063Y-3.4252
X6.063Y-3.4646
X6.063Y-3.5039
X6.063Y-3.5433
X6.063Y-3.5827
X6.063Y-3.622
X6.063Y-3.6614
X6.063Y-3.7008
X6.063Y-3.7402
X6.063Y-3.7795
X6.063Y-3.8189
X6.063Y-3.8583
X6.063Y-3.8976
X6.063Y-3.937
X6.063Y-3.9764
X6.063Y-4.0157
X6.063Y-4.0551
X6.063Y-4.0945
X6.063Y-4.1339
X6.063Y-4.1732
X6.063Y-4.2126
X6.063Y-4.252
X6.063Y-4.2913
X6.063Y-4.3307
X6.063Y-4.3701
X6.063Y-4.4094
X6.063Y-4.4488
X6.063Y-4.4882
X6.063Y-4.5276
X6.063Y-4.5669
X6.063Y-4.6063
X6.063Y-4.6457
X6.063Y-4.685
X6.063Y-4.7244
X6.063Y-4.7638
X6.063Y-4.8031
X6.063Y-4.8425
X6.063Y-4.8819
X6.063Y-4.9213
X6.063Y-4.9606
X6.063Y-5.
X6.063Y-5.0394
X6.063Y-5.0787
X6.063Y-5.1181
X6.063Y-5.1575
X6.063Y-5.1969
X6.063Y-5.2362
X6.063Y-5.2756
X6.063Y-5.315
X6.063Y-5.3543
T2
X2.4705Y-2.8051
X2.4705Y-3.0315
X2.4705Y-3.2382
X2.4705Y-3.4547
X2.4705Y-3.6713
X2.4705Y-3.8878
X2.4705Y-4.1043
X2.4705Y-4.3209
X2.4803Y-5.6693
X2.5197Y-5.6693
X2.5394Y-2.3819
X2.5394Y-2.5984
X2.5591Y-5.6693
X2.5984Y-5.6693
X2.6378Y-3.1299
X2.6378Y-3.563
X2.6378Y-3.9961
X2.6378Y-5.6693
X2.6772Y-1.8898
X2.6772Y-1.9291
X2.6772Y-1.9685
X2.6772Y-2.0079
X2.6772Y-2.0472
X2.6772Y-2.0866
X2.6772Y-2.126
X2.6772Y-2.1654
X2.6772Y-2.2047
X2.6772Y-2.2047
X2.6772Y-3.1299
X2.6772Y-3.563
X2.6772Y-3.9961
X2.6772Y-5.6693
X2.7165Y-5.6693
X2.7559Y-5.6693
X2.7953Y-5.6693
X2.8346Y-3.1299
X2.8346Y-3.563
X2.8346Y-3.9961
X2.8346Y-5.6693
X2.874Y-1.8898
X2.874Y-1.9291
X2.874Y-2.1654
X2.874Y-2.2047
X2.874Y-2.2441
X2.874Y-3.1299
X2.874Y-3.563
X2.874Y-4.4685
X2.874Y-5.6693
X2.878Y-3.9961
X2.9134Y-2.7047
X2.9134Y-3.1299
X2.9134Y-3.563
X2.9134Y-3.9961
X2.9134Y-4.4685
X2.9134Y-5.6693
X2.9528Y-2.7047
X2.9528Y-3.1299
X2.9528Y-3.563
X2.9528Y-3.9961
X2.9528Y-4.4685
X2.9528Y-5.6693
X2.9921Y-3.1299
X2.9921Y-3.563
X2.9921Y-3.9961
X2.9921Y-4.4685
X2.9921Y-5.6693
X3.0315Y-4.4685
X3.0315Y-5.6693
X3.0669Y-4.4685
X3.0709Y-5.6693
X3.1102Y-1.811
X3.1102Y-1.8504
X3.1102Y-1.8898
X3.1102Y-1.9291
X3.1102Y-1.9685
X3.1102Y-2.1654
X3.1102Y-2.2047
X3.1102Y-2.2441
X3.1102Y-3.1299
X3.1102Y-3.563
X3.1102Y-3.9961
X3.1102Y-4.4685
X3.1102Y-4.6457
X3.1102Y-4.685
X3.1102Y-4.7244
X3.1102Y-4.7638
X3.1102Y-4.8031
X3.1102Y-4.8425
X3.1102Y-4.8819
X3.1102Y-4.9213
X3.1102Y-4.9606
X3.1102Y-5.
X3.1102Y-5.0394
X3.1102Y-5.0787
X3.1102Y-5.1181
X3.1102Y-5.1575
X3.1102Y-5.6693
X3.1457Y-3.9961
X3.1467Y-3.6959
X3.1496Y-1.811
X3.1496Y-1.9685
X3.1496Y-2.2441
X3.1496Y-2.7126
X3.1496Y-3.1457
X3.1496Y-3.563
X3.1496Y-4.126
X3.1496Y-4.4685
X3.1496Y-4.6457
X3.1496Y-5.6693
X3.1693Y-3.2579
X3.189Y-1.811
X3.189Y-2.7126
X3.189Y-3.1457
X3.189Y-3.563
X3.189Y-3.6959
X3.189Y-3.9961
X3.189Y-4.126
X3.189Y-4.4685
X3.189Y-4.6457
X3.189Y-5.6693
X3.2087Y-3.2579
X3.2244Y-3.6959
X3.2283Y-1.811
X3.2283Y-2.3858
X3.2283Y-2.7126
X3.2283Y-2.874
X3.2283Y-3.1457
X3.2283Y-3.563
X3.2283Y-3.9961
X3.2283Y-4.126
X3.2283Y-4.4685
X3.2283Y-4.6457
X3.2283Y-5.6693
X3.2283Y-5.6693
X3.248Y-3.2579
X3.2638Y-2.874
X3.2677Y-1.811
X3.2677Y-2.3858
X3.2677Y-2.7126
X3.2677Y-3.1457
X3.2677Y-3.563
X3.2677Y-3.6969
X3.2677Y-4.126
X3.2677Y-4.4685
X3.2677Y-4.6457
X3.3071Y-1.811
X3.3071Y-2.3858
X3.3071Y-2.7126
X3.3071Y-4.126
X3.3071Y-4.4685
X3.3071Y-4.6457
X3.3465Y-1.811
X3.3465Y-2.3858
X3.3465Y-2.7126
X3.3465Y-4.126
X3.3465Y-4.4685
X3.3465Y-4.6457
X3.3858Y-1.811
X3.3858Y-3.1614
X3.3858Y-3.5906
X3.3858Y-4.0315
X3.3858Y-4.4685
X3.3858Y-4.6457
X3.3858Y-5.315
X3.4252Y-1.811
X3.4252Y-2.2835
X3.4252Y-2.7323
X3.4252Y-3.1614
X3.4252Y-3.5906
X3.4252Y-4.0315
X3.4252Y-4.4685
X3.4252Y-4.6457
X3.4252Y-5.2756
X3.4646Y-1.811
X3.4646Y-2.2835
X3.4646Y-2.7323
X3.4646Y-3.1614
X3.4646Y-3.5906
X3.4646Y-4.0315
X3.4646Y-4.4685
X3.4646Y-4.6457
X3.4646Y-5.2362
X3.4843Y-5.0197
X3.5039Y-1.811
X3.5039Y-2.2835
X3.5039Y-2.7323
X3.5039Y-3.1614
X3.5039Y-3.5906
X3.5039Y-3.6614
X3.5039Y-4.0315
X3.5039Y-4.4685
X3.5039Y-4.6457
X3.5039Y-5.1969
X3.5236Y-3.248
X3.5236Y-4.7835
X3.5236Y-4.8228
X3.5236Y-4.8622
X3.5236Y-4.9016
X3.5236Y-4.9409
X3.5236Y-4.9803
X3.5236Y-5.0197
X3.5433Y-1.811
X3.5433Y-2.7323
X3.5433Y-2.874
X3.5433Y-3.7008
X3.5433Y-4.0315
X3.5433Y-4.4685
X3.5433Y-4.6457
X3.5433Y-5.1969
X3.5472Y-3.1614
X3.563Y-3.248
X3.5827Y-1.811
X3.5827Y-2.7323
X3.5827Y-2.9134
X3.5827Y-3.7402
X3.5827Y-4.4685
X3.5827Y-4.6457
X3.5827Y-5.1969
X3.6024Y-3.248
X3.622Y-1.811
X3.622Y-1.8898
X3.622Y-2.4803
X3.622Y-2.9134
X3.622Y-3.7795
X3.622Y-4.4685
X3.622Y-4.6457
X3.622Y-5.1969
X3.622Y-5.3937
X3.6339Y-4.1732
X3.6417Y-3.248
X3.6614Y-1.811
X3.6614Y-1.8898
X3.6614Y-2.4803
X3.6614Y-2.9134
X3.6614Y-4.4685
X3.6614Y-4.6457
X3.6614Y-5.1969
X3.6614Y-5.3937
X3.6654Y-3.7795
X3.6811Y-3.248
X3.6969Y-3.7795
X3.7008Y-1.811
X3.7008Y-1.8898
X3.7008Y-2.4803
X3.7008Y-2.9134
X3.7008Y-3.1496
X3.7008Y-3.5866
X3.7008Y-4.0157
X3.7008Y-4.2126
X3.7008Y-4.4685
X3.7008Y-4.6457
X3.7008Y-5.1575
X3.7008Y-5.3937
X3.7205Y-3.248
X3.7205Y-4.7835
X3.7205Y-4.8228
X3.7205Y-4.8622
X3.7205Y-4.9016
X3.7205Y-4.9409
X3.7205Y-4.9803
X3.7205Y-5.0197
X3.7205Y-5.0591
X3.7205Y-5.0984
X3.7402Y-3.1496
X3.7402Y-1.811
X3.7402Y-1.8898
X3.7402Y-2.4803
X3.7402Y-2.9134
X3.7402Y-3.5866
X3.7402Y-3.7795
X3.7402Y-4.0157
X3.7402Y-4.2126
X3.7402Y-4.4685
X3.7402Y-4.6457
X3.7402Y-5.3543
X3.7598Y-3.248
X3.7756Y-2.4803
X3.7795Y-1.811
X3.7795Y-1.8898
X3.7795Y-2.7323
X3.7795Y-2.9134
X3.7795Y-3.5866
X3.7795Y-3.7795
X3.7795Y-4.0157
X3.7795Y-4.2126
X3.7795Y-4.4685
X3.7795Y-4.6457
X3.7795Y-5.315
X3.7795Y-3.1496
X3.7992Y-3.248
X3.8189Y-1.811
X3.8189Y-1.8898
X3.8189Y-2.4803
X3.8189Y-2.7323
X3.8189Y-2.9134
X3.8189Y-3.1496
X3.8189Y-3.5866
X3.8189Y-3.7795
X3.8189Y-4.0157
X3.8189Y-4.2126
X3.8189Y-4.4685
X3.8189Y-4.6457
X3.8189Y-5.2756
X3.8386Y-3.248
X3.8583Y-3.1496
X3.8583Y-1.811
X3.8583Y-1.8898
X3.8583Y-2.2913
X3.8583Y-2.4803
X3.8583Y-2.7323
X3.8583Y-2.9134
X3.8583Y-3.5866
X3.8583Y-3.7795
X3.8583Y-4.0157
X3.8583Y-4.2126
X3.8583Y-4.4685
X3.8583Y-4.6457
X3.8583Y-5.2362
X3.878Y-3.248
X3.8937Y-3.7795
X3.8976Y-1.811
X3.8976Y-2.2913
X3.8976Y-2.4803
X3.8976Y-2.7323
X3.8976Y-2.9134
X3.8976Y-3.1496
X3.8976Y-3.5866
X3.8976Y-4.0157
X3.8976Y-4.2126
X3.8976Y-4.4685
X3.8976Y-4.6457
X3.8976Y-5.1969
X3.8976Y-5.2559
X3.8976Y-5.2953
X3.8976Y-5.3346
X3.9173Y-3.248
X3.9173Y-4.8031
X3.9173Y-4.8425
X3.9173Y-4.8819
X3.9173Y-4.9213
X3.9173Y-4.9606
X3.9173Y-5.
X3.9173Y-5.0394
X3.9173Y-5.0787
X3.9173Y-5.1181
X3.9173Y-5.1575
X3.937Y-1.811
X3.937Y-2.2913
X3.937Y-2.4803
X3.937Y-2.7323
X3.937Y-2.9134
X3.937Y-3.1496
X3.937Y-3.5866
X3.937Y-4.0157
X3.937Y-4.2126
X3.937Y-4.4685
X3.937Y-4.6457
X3.9409Y-3.7795
X3.9567Y-3.248
X3.9764Y-1.811
X3.9764Y-2.2913
X3.9764Y-2.4803
X3.9764Y-2.7323
X3.9764Y-2.9134
X3.9764Y-3.1496
X3.9764Y-3.5866
X3.9764Y-3.7795
X3.9764Y-4.0157
X3.9764Y-4.2126
X3.9764Y-4.4685
X3.9764Y-4.6457
X4.0118Y-3.1496
X4.0157Y-1.811
X4.0157Y-2.2913
X4.0157Y-2.7323
X4.0157Y-2.9134
X4.0157Y-3.5866
X4.0157Y-3.7795
X4.0157Y-4.0157
X4.0157Y-4.1732
X4.0157Y-4.4685
X4.0157Y-4.6457
X4.0354Y-2.4803
X4.0551Y-1.811
X4.0551Y-2.2913
X4.0551Y-2.7323
X4.0551Y-2.874
X4.0551Y-3.1496
X4.0551Y-3.5866
X4.0551Y-3.7795
X4.0551Y-4.0157
X4.0551Y-4.1339
X4.0551Y-4.4685
X4.0551Y-4.6457
X4.0748Y-2.4409
X4.0945Y-1.811
X4.0945Y-1.8898
X4.0945Y-2.2913
X4.0945Y-2.7323
X4.0945Y-2.8346
X4.0945Y-3.1496
X4.0945Y-3.248
X4.0945Y-3.5866
X4.0945Y-3.7402
X4.0945Y-4.0157
X4.0945Y-4.1142
X4.0945Y-4.4685
X4.0945Y-4.685
X4.1102Y-2.4055
X4.1339Y-1.811
X4.1339Y-1.8898
X4.1339Y-2.2913
X4.1339Y-2.3819
X4.1339Y-2.7165
X4.1339Y-2.8189
X4.1339Y-3.5866
X4.1339Y-3.7008
X4.1339Y-4.0157
X4.1339Y-4.1142
X4.1339Y-4.4094
X4.1339Y-4.4685
X4.1339Y-4.7244
X4.1339Y-4.8425
X4.1339Y-4.8819
X4.1339Y-4.9213
X4.1339Y-4.9606
X4.1339Y-5.
X4.1339Y-5.0394
X4.1339Y-5.0787
X4.1339Y-5.1181
X4.1339Y-5.1575
X4.1339Y-5.1969
X4.1339Y-5.2362
X4.1339Y-5.2756
X4.1339Y-5.315
X4.1378Y-3.1457
X4.1732Y-1.811
X4.1732Y-1.8898
X4.1732Y-2.2913
X4.1732Y-2.3819
X4.1732Y-2.6772
X4.1732Y-2.8189
X4.1732Y-3.1102
X4.1732Y-3.5866
X4.1732Y-3.6614
X4.1732Y-4.0157
X4.1732Y-4.1142
X4.1732Y-4.3701
X4.1732Y-4.4685
X4.1732Y-4.7638
X4.2087Y-3.0709
X4.2126Y-1.811
X4.2126Y-1.8898
X4.2126Y-2.2913
X4.2126Y-2.3819
X4.2126Y-2.6378
X4.2126Y-2.8189
X4.2126Y-3.5866
X4.2126Y-3.6614
X4.2126Y-3.9764
X4.2126Y-4.1142
X4.2126Y-4.3307
X4.2126Y-4.4685
X4.2126Y-4.8031
X4.2323Y-4.8425
X4.2323Y-4.8819
X4.2323Y-4.9213
X4.252Y-1.811
X4.252Y-1.8898
X4.252Y-2.2913
X4.252Y-2.3819
X4.252Y-2.5984
X4.252Y-2.8189
X4.252Y-3.0276
X4.252Y-3.5866
X4.252Y-3.937
X4.252Y-4.1142
X4.252Y-4.3307
X4.252Y-4.4685
X4.2559Y-3.6614
X4.2717Y-4.9213
X4.2913Y-1.811
X4.2913Y-1.8898
X4.2913Y-2.2913
X4.2913Y-2.3819
X4.2913Y-2.5984
X4.2913Y-2.8189
X4.2913Y-3.0276
X4.2913Y-3.248
X4.2913Y-3.5866
X4.2913Y-3.6614
X4.2913Y-3.8976
X4.2913Y-4.1142
X4.2913Y-4.3307
X4.311Y-4.9213
X4.3307Y-1.811
X4.3307Y-1.8898
X4.3307Y-2.2913
X4.3307Y-2.3819
X4.3307Y-2.5984
X4.3307Y-2.8189
X4.3307Y-3.0276
X4.3307Y-3.248
X4.3307Y-3.5866
X4.3307Y-3.6614
X4.3307Y-3.8976
X4.3307Y-4.1142
X4.3307Y-4.3307
X4.3504Y-4.9213
X4.3701Y-1.811
X4.3701Y-1.8898
X4.3701Y-2.2913
X4.3701Y-2.3819
X4.3701Y-2.5984
X4.3701Y-2.8189
X4.3701Y-3.0276
X4.3701Y-3.248
X4.3701Y-3.5866
X4.3701Y-3.6614
X4.3701Y-3.8976
X4.3701Y-4.1142
X4.3701Y-4.3307
X4.3701Y-4.4685
X4.3898Y-4.9213
X4.4055Y-4.4685
X4.4094Y-1.811
X4.4094Y-1.8898
X4.4094Y-2.2913
X4.4094Y-2.3819
X4.4094Y-2.5984
X4.4094Y-2.8189
X4.4094Y-3.0276
X4.4094Y-3.248
X4.4094Y-3.5866
X4.4094Y-3.6614
X4.4094Y-3.8976
X4.4094Y-4.1142
X4.4094Y-4.3307
X4.4291Y-4.5669
X4.4291Y-4.813
X4.437Y-4.4685
X4.4488Y-1.811
X4.4488Y-1.8898
X4.4488Y-2.3819
X4.4488Y-2.8189
X4.4488Y-3.0276
X4.4488Y-3.248
X4.4488Y-3.5866
X4.4488Y-3.6614
X4.4488Y-3.8976
X4.4488Y-4.1142
X4.4488Y-4.3307
X4.4685Y-4.4685
X4.4882Y-1.811
X4.4882Y-1.8898
X4.4882Y-2.7402
X4.4882Y-2.8189
X4.4882Y-3.0276
X4.4882Y-3.248
X4.4882Y-3.5866
X4.4882Y-3.6614
X4.4882Y-3.8976
X4.4882Y-4.1142
X4.5276Y-1.811
X4.5276Y-1.8898
X4.5276Y-2.7402
X4.5276Y-3.248
X4.5276Y-3.5866
X4.5276Y-3.6614
X4.5276Y-3.8976
X4.5276Y-3.937
X4.5276Y-3.9764
X4.5276Y-4.0276
X4.5276Y-4.9213
X4.5315Y-2.8189
X4.5315Y-3.0276
X4.5669Y-1.811
X4.5669Y-1.8898
X4.5669Y-2.7402
X4.5669Y-3.1654
X4.5669Y-3.248
X4.5669Y-3.5866
X4.5669Y-3.6614
X4.5669Y-4.0276
X4.5669Y-4.9213
X4.5669Y-2.8189
X4.5866Y-4.4685
X4.6063Y-1.811
X4.6063Y-2.7402
X4.6063Y-3.1654
X4.6063Y-3.248
X4.6063Y-3.5866
X4.6063Y-3.6614
X4.6063Y-4.0276
X4.6063Y-4.9213
X4.626Y-4.4685
X4.6457Y-1.811
X4.6457Y-2.7402
X4.6457Y-3.1654
X4.6457Y-3.5866
X4.6457Y-4.0276
X4.6457Y-4.9213
X4.6654Y-4.4685
X4.685Y-1.811
X4.685Y-2.7402
X4.685Y-3.1654
X4.685Y-3.5866
X4.685Y-4.0276
X4.685Y-4.1142
X4.685Y-4.9213
X4.7244Y-1.811
X4.7244Y-2.3622
X4.7244Y-2.7402
X4.7244Y-3.1654
X4.7244Y-3.5866
X4.7244Y-4.0276
X4.7244Y-4.1142
X4.7244Y-4.9213
X4.7638Y-1.811
X4.7638Y-2.2047
X4.7638Y-2.2047
X4.7638Y-2.2441
X4.7638Y-2.2835
X4.7638Y-2.3622
X4.7638Y-2.7402
X4.7638Y-3.1654
X4.7638Y-3.5866
X4.7638Y-4.0276
X4.7638Y-4.1142
X4.8031Y-1.811
X4.8031Y-2.3622
X4.8031Y-2.7402
X4.8031Y-2.8071
X4.8031Y-3.1654
X4.8031Y-3.5866
X4.8031Y-3.6614
X4.8031Y-4.0276
X4.8031Y-4.1142
X4.8031Y-4.4724
X4.8228Y-3.248
X4.8425Y-1.811
X4.8425Y-2.126
X4.8425Y-2.1654
X4.8425Y-2.2047
X4.8425Y-2.2441
X4.8425Y-2.2835
X4.8425Y-2.3622
X4.8425Y-2.7402
X4.8425Y-2.8071
X4.8425Y-3.1654
X4.8425Y-3.6614
X4.8425Y-4.0276
X4.8425Y-4.1142
X4.8524Y-4.9114
X4.8622Y-3.248
X4.8622Y-4.4685
X4.878Y-2.7402
X4.8819Y-2.3622
X4.8819Y-2.8071
X4.8819Y-4.1142
X4.8819Y-4.9114
X4.8858Y-3.6614
X4.9016Y-3.248
X4.9134Y-2.7047
X4.9213Y-2.8071
X4.9213Y-3.6614
X4.9213Y-4.3504
X4.9213Y-4.9114
X4.9213Y-4.9114
X4.936Y-2.3622
X4.9409Y-2.5984
X4.9409Y-2.6339
X4.9409Y-2.6772
X4.9409Y-3.248
X4.9606Y-2.8071
X4.9606Y-4.9134
X4.9803Y-3.248
X4.9803Y-4.0276
X5.0197Y-3.248
X5.0394Y-3.9764
X5.0787Y-3.937
X5.1181Y-2.126
X5.1181Y-2.1654
X5.1181Y-2.2047
X5.1181Y-4.9134
X5.1575Y-1.811
X5.1575Y-2.126
X5.1575Y-2.1654
X5.1575Y-2.2047
X5.1969Y-1.811
X5.2362Y-1.811
X5.2362Y-2.5197
X5.2362Y-2.5197
X5.2362Y-2.5591
X5.2362Y-2.5984
X5.2362Y-2.6378
X5.2756Y-1.811
X5.2756Y-2.6378
X5.315Y-1.811
X5.315Y-2.6378
X5.3543Y-1.811
X5.3543Y-1.8504
X5.3543Y-1.8898
X5.3543Y-1.9291
X5.3543Y-1.9685
X5.3543Y-2.0866
X5.3543Y-2.126
X5.3543Y-2.1654
X5.3543Y-2.2047
X5.3543Y-3.0315
X5.3543Y-3.0709
X5.3543Y-3.1102
X5.3543Y-3.8937
X5.3543Y-3.937
X5.3543Y-3.9961
X5.3543Y-4.3307
X5.3543Y-4.3701
X5.3543Y-4.4094
X5.3543Y-4.4488
X5.3543Y-5.2756
X5.3543Y-5.315
X5.3937Y-3.1102
X5.3937Y-3.4646
X5.3937Y-3.5039
X5.3937Y-3.5433
X5.3937Y-3.8937
X5.3937Y-3.937
X5.3937Y-3.9764
X5.3937Y-5.2362
X5.4331Y-3.0315
X5.4331Y-3.0709
X5.4331Y-3.1102
X5.4331Y-3.4646
X5.4331Y-3.5039
X5.4331Y-3.5433
X5.4331Y-4.3307
X5.4331Y-4.3701
X5.4331Y-4.4094
X5.4331Y-4.4488
X5.4331Y-5.1969
X5.4646Y-3.563
X5.4724Y-5.1575
X5.5118Y-5.1181
X5.5512Y-5.1181
X5.5906Y-5.1181
X5.626Y-3.563
X5.6299Y-5.1181
X5.6299Y-5.3543
X5.6693Y-5.1181
X5.6693Y-5.3543
X5.7087Y-5.1181
X5.7087Y-5.3543
X5.748Y-3.7795
X5.748Y-4.2126
X5.748Y-4.4488
X5.748Y-4.685
X5.748Y-5.1181
X5.748Y-5.3543
X5.7874Y-5.0787
X5.7874Y-5.3543
X5.8268Y-5.0394
X5.8268Y-5.3543
X5.8661Y-5.
X5.8661Y-5.315
X5.9055Y-5.2756
X5.9449Y-5.2362
X5.9843Y-5.1969
X6.0236Y-5.1575
X6.063Y-5.0295
T3
X2.3559Y-2.7634
X2.3559Y-3.0634
X2.3559Y-3.1965
X2.3559Y-3.4965
X2.3559Y-3.6295
X2.3559Y-3.9295
X2.3559Y-4.0626
X2.3559Y-4.3626
X2.4346Y-2.3303
X2.4346Y-2.6303
X2.5559Y-2.7634
X2.5559Y-3.0634
X2.5559Y-3.1965
X2.5559Y-3.4965
X2.5559Y-3.6295
X2.5559Y-3.9295
X2.5559Y-4.0626
X2.5559Y-4.3626
X2.5921Y-1.8972
X2.5921Y-2.1972
X2.6346Y-2.3303
X2.6346Y-2.6303
X2.7559Y-2.7634
X2.7559Y-3.0634
X2.7559Y-3.1965
X2.7559Y-3.4965
X2.7559Y-3.6295
X2.7559Y-3.9295
X2.7559Y-4.0626
X2.7559Y-4.3626
X2.7921Y-1.8972
X2.7921Y-2.1972
X2.8346Y-2.3303
X2.8346Y-2.6303
X2.9921Y-1.8972
X2.9921Y-2.1972
X3.0559Y-2.7634
X3.0559Y-3.0634
X3.0559Y-3.1965
X3.0559Y-3.4965
X3.0559Y-3.6295
X3.0559Y-3.9295
X3.0559Y-4.0626
X3.0559Y-4.3626
X3.1346Y-2.3303
X3.1346Y-2.6303
X3.2921Y-1.8972
X3.2921Y-2.1972
X3.322Y-4.8106
X3.322Y-5.1106
X3.622Y-4.8106
X3.622Y-5.1106
X3.822Y-4.8106
X3.822Y-5.1106
X4.022Y-4.8106
X4.022Y-5.1106
X4.3244Y-4.535
X4.3244Y-4.835
X4.5244Y-4.535
X4.5244Y-4.835
X4.7244Y-4.535
X4.7244Y-4.835
X4.9559Y-1.8972
X4.9559Y-2.1972
X5.0244Y-4.535
X5.0244Y-4.835
X5.1331Y-2.3303
X5.1331Y-2.6303
X5.2512Y-2.7634
X5.2512Y-3.0634
X5.2512Y-3.1965
X5.2512Y-3.4965
X5.2512Y-3.6295
X5.2512Y-3.9295
X5.2512Y-4.0626
X5.2512Y-4.3626
X5.2512Y-4.535
X5.2512Y-4.835
X5.2559Y-1.8972
X5.2559Y-2.1972
X5.4331Y-2.3303
X5.4331Y-2.6303
X5.4559Y-1.8972
X5.4559Y-2.1972
X5.5512Y-2.7634
X5.5512Y-3.0634
X5.5512Y-3.1965
X5.5512Y-3.4965
X5.5512Y-3.6295
X5.5512Y-3.9295
X5.5512Y-4.0626
X5.5512Y-4.3626
X5.5512Y-4.535
X5.5512Y-4.835
X5.6331Y-2.3303
X5.6331Y-2.6303
X5.6559Y-1.8972
X5.6559Y-2.1972
X5.7512Y-2.7634
X5.7512Y-3.0634
X5.7512Y-3.1965
X5.7512Y-3.4965
X5.7512Y-3.6295
X5.7512Y-3.9295
X5.7512Y-4.0626
X5.7512Y-4.3626
X5.7512Y-4.535
X5.7512Y-4.835
X5.8331Y-2.3303
X5.8331Y-2.6303
X5.9512Y-2.7634
X5.9512Y-3.0634
X5.9512Y-3.1965
X5.9512Y-3.4965
X5.9512Y-3.6295
X5.9512Y-3.9295
X5.9512Y-4.0626
X5.9512Y-4.3626
X5.9512Y-4.535
X5.9512Y-4.835
T4
X4.5409Y-5.1181
X4.5409Y-5.2181
X4.6409Y-5.1181
X4.6409Y-5.2181
X4.7409Y-5.1181
X4.7409Y-5.2181
X4.8409Y-5.1181
X4.8409Y-5.2181
X4.9409Y-5.1181
X4.9409Y-5.2181
T5
X3.3252Y-5.4118
X3.3252Y-5.6118
X3.4252Y-5.5118
X3.5252Y-5.4118
X3.5252Y-5.6118
X3.9157Y-5.4118
X3.9157Y-5.6118
X4.0157Y-5.5118
X4.1157Y-5.4118
X4.1157Y-5.6118
X5.3724Y-5.4118
X5.3724Y-5.6118
X5.4724Y-5.5118
X5.5724Y-5.4118
X5.5724Y-5.6118
T6
X2.4984Y-4.5457
X2.6953Y-4.9591
X2.6984Y-4.6957
X2.7898Y-5.3803
X2.8953Y-5.1091
X2.9898Y-5.5303
X3.4039Y-2.9028
X3.4039Y-3.3358
X3.4039Y-3.7689
X3.4827Y-2.4697
X3.4827Y-4.202
X3.5892Y-2.0539
X3.6039Y-3.0528
X3.6039Y-3.4858
X3.6039Y-3.9189
X3.6827Y-2.6197
X3.6827Y-4.352
X3.8374Y-2.0838
X4.0278Y-3.4606
X4.2753Y-3.4252
X4.4475Y-2.0618
X4.585Y-2.4697
X4.585Y-4.202
X4.6957Y-2.0917
X4.7031Y-2.9028
X4.7031Y-3.3358
X4.7031Y-3.7689
X4.785Y-2.6197
X4.785Y-4.352
X4.9031Y-3.0528
X4.9031Y-3.4858
X4.9031Y-3.9189
T7
X2.3622Y-1.9685
X2.3622Y-5.5118
X5.9055Y-1.9685
X5.9055Y-5.5118
T0
M30
